<svg id="b9a824d5-bf39-4d5b-ae58-0025acb24e7f" data-name="bg" xmlns="http://www.w3.org/2000/svg" xmlns:xlink="http://www.w3.org/1999/xlink" viewBox="0 0 400 400"><defs><pattern id="b536d4a1-2140-4394-a75c-52c454c49500" data-name="Crystals Pure 5" width="200" height="200" patternUnits="userSpaceOnUse" viewBox="0 0 200 200"><rect width="200" height="200" style="fill:none"/><g id="b22d04e8-0196-4f7c-aa06-deec12f6221d" data-name="first"><path d="M-75,6l30,27,30,14L0,33Q2,15.5,4-2L-27-53Z" style="fill:#29c0ac"/></g><g id="a79eba7d-dd1d-4824-8686-a0777605667f" data-name="second"><path d="M5-4-33,23q5-26.5,10-53Z" style="fill:#37cd85"/></g><g id="e2d45f4b-6524-4f0e-9831-7da0db712a96" data-name="third"><polygon points="-45 33 -15 47 13 -23 -45 33" style="fill:#dbf647"/></g><g id="efeffc79-e549-42f9-b912-98e33fe841ba" data-name="first"><path d="M110,88l19,16,10-39c.6588-.2994,33-12,33-12L151,42S120.6951,18.199,113,12L87,26Z" style="fill:#29c0ac"/><path d="M13-23,29,30,9,19,0,0Z" style="fill:#29c0ac"/><polygon points="17.167 170.122 42.423 160.843 132 172 158.117 132.825 34 47 -20 84 -6 137 17.167 170.122" style="fill:#29c0ac"/><path d="M30-20C34-3,43,29,43,29L95,80S84.3333,43,79,25l46-44L44-25Z" style="fill:#29c0ac"/><path d="M125,6l30,27,30,14,15-14q2-17.5,4-35L173-53Z" style="fill:#29c0ac"/><polygon points="148 74 140 107 187 148 165 83 181 58 148 74" style="fill:#29c0ac"/></g><g id="bc551672-5c57-4281-95ef-872bfb76e638" data-name="second"><path d="M205-4,167,23q5-26.5,10-53Z" style="fill:#37cd85"/><path d="M113,12l2,45-5,31L91,37Z" style="fill:#37cd85"/><path d="M39,4" style="fill:#37cd85"/><path d="M55,0,94,78,58,28Z" style="fill:#37cd85"/><polygon points="29 75 19 120 -7 137 -21 84 29 75" style="fill:#37cd85"/><path d="M29,30,9,15,0,0-15,47Z" style="fill:#37cd85"/><path d="M130,136l-3,12L66,134l5-45,20,18,21-6Z" style="fill:#37cd85"/><polygon points="44 -25 104 -13 106 0 44 -25" style="fill:#37cd85"/><polygon points="150 83 150 91 154.78 79.33 150 83" style="fill:#6fce63"/><polygon points="155 97 187 148 140 107 155 97" style="fill:#37cd85"/><polygon points="127 148 132 172 99.462 133.297 127 148" style="fill:#29c0ac"/></g><g id="bb266fac-3832-4548-8376-e87d545534da" data-name="third"><path d="M29,75q-5,19-10,38,.5,15,1,30l46-9,25-27L71,89Z" style="fill:#dbf647"/><path d="M139,65l-25-7-2-8,1-38Z" style="fill:#dbf647"/><polygon points="155 97 187 148 165 83 155 97" style="fill:#dbf647"/><polygon points="55 0 95 80 71 -5 30 -20 55 0" style="fill:#dbf647"/><polygon points="155 33 185 47 213 -23 155 33" style="fill:#dbf647"/></g><g id="f917d470-6012-48f7-9c2f-debb299d9493" data-name="fourth"><polygon points="99 133 132 172 127 148 120 133 110 107 91 107 99 133" style="fill:#5acdaa"/><polygon points="72.505 0.264 74.813 16.264 106 0 68.813 -15.022 72.505 0.264" style="fill:#5acdaa"/><path d="M71,89,29,75q2.5-14,5-28Z" style="fill:#5acdaa"/><polygon points="165 83 150 91 140 107 148 74 165 83" style="fill:#5acdaa"/><path d="M112,50,95,47l15,41,4-30Z" style="fill:#5acdaa"/></g><g id="b7084f40-0027-4b92-8b28-f91c62b5411a" data-name="fifth"><polygon points="66 134 57 144 132 172 99 133 66 134" style="fill:#2dc07f"/><polygon points="139 65 110 88 114 58 139 65" style="fill:#2dc07f"/><polygon points="145 98 155 97 150 91 145 98" style="fill:#2dc07f"/><polygon points="165 83 181 58 155 79 165 83" style="fill:#2dc07f"/><polygon points="82.582 12.11 75 16 79.418 24.638 106 0 82.582 12.11" style="fill:#2dc07f"/><polygon points="150 91 145 87 150.033 82.693 150 91" style="fill:#2dc07f"/><path d="M150,91l10-1,5-7Z" style="fill:#2dc07f"/></g><g id="f633a7d8-501e-47f0-a58c-05f805888409" data-name="sixth"><polygon points="181 58 144.956 86.879 148 74 181 58" style="fill:#00b5af"/><polygon points="143.011 95.055 140 107 150 91 143.011 95.055" style="fill:#00b5af"/></g><polygon points="20 143 41 161 66 134 20 143" style="fill:#5acdaa"/><polygon points="57 144 132 172 41 161 57 144" style="fill:#00b5af"/><path d="M129.9743,137.0973l-2.9179,11.022c9.9624-5.0744,21.9248-10.1638,31.8872-15.2382C149.9538,134.2815,138.9641,135.6969,129.9743,137.0973Z" style="fill:#2dc07f"/><polygon points="130 137 159 133 112 101 130 137" style="fill:#dbf647"/><polygon points="127 148 159 133 134 151 127 148" style="fill:#00b5af"/><polygon points="134 151 132 172 159 133 134 151" style="fill:#5acdaa"/><polygon points="127 148 132 172 134 151 127 148" style="fill:#2dc07f"/><polygon points="112 101 120 133 91 107 112 101" style="fill:#2dc07f"/><polygon points="99 133 120 133 127 148 99 133" style="fill:#00b5af"/><path d="M103,136" style="fill:#5acdaa"/><path d="M19,113q.5,15,1,30l-27-6Z" style="fill:#2dc07f"/><polygon points="-7 137 20 143 41 161 5.44 153.209 -7 137" style="fill:#00b5af"/><polygon points="1 69 29 75 -21 84 1 69" style="fill:#00b5af"/><path d="M71,89l27,2L34,47Z" style="fill:#2dc07f"/><polygon points="58 28 43 29 40.516 20.022 55 0 58 28" style="fill:#5acdaa"/><polygon points="43 29 55 0 40 19 43 29" style="fill:#2dc07f"/><polygon points="32.934 -8.593 55 0 40 19 32.934 -8.593" style="fill:#00b5af"/><path d="M110,88l14,1,10-5q2.5-9.5,5-19Z" style="fill:#00b5af"/><polygon points="113 12 146 49 172 53 113 12" style="fill:#2dc07f"/><polygon points="146 48 139 65 171.396 53.517 146 48" style="fill:#5acdaa"/><path d="M110,88l14,1q2.5,7.5,5,15Z" style="fill:#37cd85"/><path d="M173-53q2,11.5,4,23L171,2q-2-13-4-26Z" style="fill:#dbf647"/><polygon points="167 -25 125 6 167 20 171 2 167 -25" style="fill:#2dc07f"/><polygon points="125 6 167 20 138.89 19.099 125 6" style="fill:#00b5af"/><path d="M167-25l-7,5L171,3Q169-11,167-25Z" style="fill:#5acdaa"/><polygon points="125.505 5.253 167 -25 173 -53 162 -29 125.505 5.253" style="fill:#37cd85"/><path d="M0,0,13-23Q11-4,9,15Z" style="fill:#5acdaa"/><path d="M13-23Q11-4,9,15l12,9Q17,.5,13-23Z" style="fill:#2dc07f"/><g id="a62d7bf5-7f37-44e4-a9a8-e3fa6381a266" data-name="first"><polygon points="217.167 170.122 242.423 160.843 332 172 358.117 132.825 234 47 180 84 194 137 217.167 170.122" style="fill:#29c0ac"/></g><g id="fbf7749f-8ad7-417f-9819-b5fe4376cebd" data-name="second"><polygon points="229 75 219 120 193 137 179 84 229 75" style="fill:#37cd85"/><path d="M229,30,209,15,200,0,185,47Z" style="fill:#37cd85"/></g><path d="M219,113q.5,15,1,30l-27-6Z" style="fill:#2dc07f"/><polygon points="193 137 220 143 241 161 205.44 153.209 193 137" style="fill:#00b5af"/><polygon points="201 69 229 75 179 84 201 69" style="fill:#00b5af"/><g id="ab7465f9-1c8b-435b-b099-e011a392ab41" data-name="first"><path d="M-75,206l30,27,30,14L0,233q2-17.5,4-35l-31-51Z" style="fill:#29c0ac"/></g><g id="ead3b235-3424-4adc-9359-78d424fb1860" data-name="second"><path d="M5,196l-38,27q5-26.5,10-53Z" style="fill:#37cd85"/></g><g id="b2cade86-ef07-4505-9195-e15524c10ff1" data-name="third"><polygon points="-45 233 -15 247 13 177 -45 233" style="fill:#dbf647"/></g><g id="e156b172-5444-4f9d-b10d-89bd1bbd6fd7" data-name="first"><path d="M13,177l16,53L9,219,0,200Z" style="fill:#29c0ac"/><path d="M30,180c4,17,13,49,13,49l52,51s-10.6667-37-16-55l46-44-81-6Z" style="fill:#29c0ac"/><path d="M125,206l30,27,30,14,15-14q2-17.5,4-35l-31-51Z" style="fill:#29c0ac"/></g><g id="b30bd98e-77ab-4c4c-baf5-ed125d942254" data-name="second"><path d="M205,196l-38,27q5-26.5,10-53Z" style="fill:#37cd85"/><polygon points="44 175 104 187 106 200 44 175" style="fill:#37cd85"/></g><g id="a7a81f89-0f02-4341-9179-18bdae1825d0" data-name="third"><polygon points="55 200 95 280 71 195 30 180 55 200" style="fill:#dbf647"/><polygon points="155 233 185 247 213 177 155 233" style="fill:#dbf647"/></g><g id="fd63c247-7c95-4ff4-9bce-5f59e9cdc30f" data-name="fourth"><polygon points="72.505 200.264 74.813 216.264 106 200 68.813 184.978 72.505 200.264" style="fill:#5acdaa"/></g><polygon points="32.934 191.407 55 200 40 219 32.934 191.407" style="fill:#00b5af"/><path d="M173,147q2,11.5,4,23l-6,32q-2-13-4-26Z" style="fill:#dbf647"/><polygon points="167 175 125 206 167 220 171 202 167 175" style="fill:#2dc07f"/><path d="M167,175l-7,5,11,23Q169,189,167,175Z" style="fill:#5acdaa"/><polygon points="125.505 205.253 167 175 173 147 162 171 125.505 205.253" style="fill:#37cd85"/><path d="M0,200l13-23q-2,19-4,38Z" style="fill:#5acdaa"/><path d="M13,177q-2,19-4,38l12,9Q17,200.5,13,177Z" style="fill:#2dc07f"/></pattern></defs><rect width="400" height="400" style="fill:url(#b536d4a1-2140-4394-a75c-52c454c49500)"/></svg>