<svg id="path-mobile" xmlns="http://www.w3.org/2000/svg" viewBox="0 0 400 1850"><path id="motion-path" d="M-1,0C42.896-1.43,118.3481,2.15,200,40c40.5063,18.777,81,37.5482,111,79,28.29,39.0894,26.8365,70.1227,29,236,2.2843,175.1344,4.8673,214.5441-28,243-7.5987,6.5788-42.5025,18.4753-112,42-99.1081,33.5477-101.4848,32.83-110,40-35.21,29.6474-30.334,72.028-30,246,.3149,164.0326-3.7747,203.9747,30,233,8.7,7.4768,42.6021,18.7333,110,41,96.3865,31.8439,99.4676,30.1477,110,39,32.5929,27.3936,28.0885,64.6487,30,231,1.9407,168.8882,7.5235,212.286-28,245-19.7651,18.2019-42.4675,24.0824-71,59a234.2645,234.2645,0,0,0-41,76" style="fill:none"/></svg>