<?xml version="1.0" encoding="UTF-8"?>
<svg id="final_color_v2_copy_2" data-name="final_color v2 copy 2" xmlns="http://www.w3.org/2000/svg" xmlns:xlink="http://www.w3.org/1999/xlink" viewBox="0 0 565.3151 283.7931">
  <defs>
    <linearGradient id="linear-gradient" x1="97.3578" y1="235.701" x2="166.7392" y2="131.3514" gradientUnits="userSpaceOnUse">
      <stop offset="0" stop-color="#6145a6"/>
      <stop offset="1" stop-color="#a15796"/>
    </linearGradient>
    <linearGradient id="linear-gradient-2" x1="144.3381" y1="260.4521" x2="71.5469" y2="226.6938" gradientUnits="userSpaceOnUse">
      <stop offset="0" stop-color="#662d91"/>
      <stop offset="1" stop-color="#3da8bd"/>
    </linearGradient>
    <linearGradient id="linear-gradient-3" x1="305.6785" y1="269.9623" x2="316.2279" y2="141.259" xlink:href="#linear-gradient"/>
    <linearGradient id="linear-gradient-4" x1="186.251" y1="245.5835" x2="245.5916" y2="143.5176" xlink:href="#linear-gradient"/>
    <linearGradient id="linear-gradient-5" x1="343.2486" y1="242.2929" x2="175.5343" y2="244.45" xlink:href="#linear-gradient-2"/>
    <linearGradient id="linear-gradient-6" x1="419.3236" y1="37.4407" x2="367.8951" y2="71.4626" gradientUnits="userSpaceOnUse">
      <stop offset="0" stop-color="#414141"/>
      <stop offset="1" stop-color="#555"/>
    </linearGradient>
    <linearGradient id="linear-gradient-7" x1="357.9103" y1="64.9598" x2="562.8993" y2="64.9598" gradientUnits="userSpaceOnUse">
      <stop offset="0" stop-color="#5f5f5f"/>
      <stop offset=".5" stop-color="#555"/>
      <stop offset=".8771" stop-color="#464646"/>
      <stop offset="1" stop-color="#414141"/>
    </linearGradient>
    <linearGradient id="linear-gradient-8" x1="510.8826" y1="171.9648" x2="535.41" y2="124.4922" xlink:href="#linear-gradient-6"/>
    <linearGradient id="linear-gradient-9" x1="376.8033" y1="242.3703" x2="419.5286" y2="140.3044" xlink:href="#linear-gradient"/>
    <linearGradient id="linear-gradient-10" x1="427.3858" y1="225.3222" x2="476.9318" y2="291.8996" xlink:href="#linear-gradient"/>
    <linearGradient id="linear-gradient-11" x1="561.9929" y1="170.8806" x2="310.3885" y2="256.3312" xlink:href="#linear-gradient-2"/>
    <linearGradient id="linear-gradient-12" x1="175.455" y1="59.2037" x2="193.6528" y2="92.4345" xlink:href="#linear-gradient-6"/>
    <linearGradient id="linear-gradient-13" x1="26.1273" y1="118.9063" x2="198.1127" y2="33.5569" gradientUnits="userSpaceOnUse">
      <stop offset="0" stop-color="#414141"/>
      <stop offset=".0614" stop-color="#434343"/>
      <stop offset=".5" stop-color="#555"/>
      <stop offset="1" stop-color="#5f5f5f"/>
    </linearGradient>
    <linearGradient id="linear-gradient-14" x1="-9.3023" y1="120.8548" x2="35.5329" y2="146.1735" gradientUnits="userSpaceOnUse">
      <stop offset="0" stop-color="#5f5f5f"/>
      <stop offset="1" stop-color="#555"/>
    </linearGradient>
    <linearGradient id="linear-gradient-15" x1="283.1541" y1="130.0969" x2="284.3232" y2="55.273" xlink:href="#linear-gradient-6"/>
  </defs>
  <path d="M172.4794,156.5021l-32.8701,67.5299c-.7928,1.5435-4.7403,8.827-13.699,11.8855-.936,.3196-9.323,3.0399-18-1-8.9268-4.1562-14.6576-13.8367-14.9209-24.7854l24.5-50.3301,11.83-24.2999,.5299,.26,42.6301,20.74Z" style="fill: url(#linear-gradient);"/>
  <path d="M139.6093,224.0321l-22.1299,45.47c-3.78,7.78-11.4601,12.92-20.0901,13.45-.5,.03-1,.05-1.49,.05-8.08,0-15.6599-4.07-20.11-10.9l-43-66,40.22-26.2,19.86,30.48,.1201-.25,7.7999,11.97c.5441,.8165,7.5151,10.8939,20.11,10.9,11.1567,.0054,17.8334-7.8959,18.71-8.97Z" style="fill: url(#linear-gradient-2);"/>
  <path d="M285.9103,243.9175c9.4945-2.9153,18.989-5.8306,28.4835-8.7458l50.0349-101.5631-43.0586-21.2129-60.3992,122.6018c8.3132,2.9734,16.6263,5.9467,24.9395,8.92Z" style="fill: url(#linear-gradient-3);"/>
  <path d="M195.9103,240.9175c15.3375,5.1543,27.8689-5.4474,28.4082-5.92l44.1497-90.47-43.1377-21.0508-39.532,81.0083c-2.6294,6.1442-5.2588,12.2884-7.8882,18.4326,.5238,1.4963,5.007,13.6335,18,18Z" style="fill: url(#linear-gradient-4);"/>
  <path d="M297.4303,269.6075c-1.4601,2.5566-3.9467,6.7194-8.8525,9.77-3.735,2.3225-8.1074,3.62-12.6775,3.62h-90c-8.28,0-15.97-4.2599-20.36-11.28-4.38-7.02-4.84-15.8-1.21-23.24l21.47-44c-1.3245,2.1839-4.3815,7.9409-2.89,14.44,2.135,9.303,12.7809,16.6018,25.99,16.08h90c12.2573-3.3408,18.2886-8.7653,21.53-13.39,1.7596-2.5106,3.3718-5.748,3.48-5.69,.1676,.0899-4.0212,7.6923-8.1391,16.2088-5.1118,10.572-10.9677,24.5709-18.3409,37.4812Z" style="fill: url(#linear-gradient-5);"/>
  <path d="M357.6743,38.1112c-7.4351,15.0955-14.8702,30.1909-22.3052,45.2864l43.0605,21.209c7.7706-15.5725,15.53-31.3403,23.2716-47.3031,7.2074-14.8613,14.2724-29.6299,21.1981-44.3014-21.7417,8.3697-43.4833,16.7394-65.225,25.1091Z" style="fill: url(#linear-gradient-6);"/>
  <path d="M422.9103,12.9175c-21.6667,8.3333-43.3333,16.6667-65,25,18.8178,7.587,33.8618,14.5081,43.9942,19.3573,42.3037,20.2458,65.0202,36.1973,115.5108,57.4219l5.484,2.3053c10-5.3333,20-10.6667,30-16,3.3333-5.6667,6.6667-11.3333,10-17-46.663-23.6948-93.326-47.3897-139.989-71.0845Z" style="fill: url(#linear-gradient-7);"/>
  <path d="M562.8993,84.0021c-15.121,11.084-30.242,22.168-45.363,33.252l.1296,.0644-28.3213,21.6006,29.1094,38.166c15.6204-11.9138,31.2407-23.8276,46.8611-35.7415-.8052-19.1138-1.6105-38.2277-2.4158-57.3416Z" style="fill: url(#linear-gradient-8);"/>
  <path d="M356.9103,241.9175c22.3333-17,44.6667-34,67-51,1.3274-2.1909,2.6548-4.3818,3.9822-6.5727l29.5898-60.8467-43.166-20.9922c-17.5993,35.7443-35.0679,71.5481-52.406,107.4116-6.2136,12.8527-12.4116,25.7156-18.594,38.5884,4.5313-2.1962,9.0627-4.3923,13.594-6.5884Z" style="fill: url(#linear-gradient-9);"/>
  <path d="M417.1761,251.4386c7.67,10.7808,15.413,21.5811,23.1837,32.3545h59.3105c-14.6282-20.0389-29.2607-40.3279-43.6456-60.5498-.0381-2.1086-.0764-4.2172-.1145-6.3257l-45,33,6.2659,1.5211Z" style="fill: url(#linear-gradient-10);"/>
  <path d="M492.2403,196.2475l-2.43,1.8101-65.75,48.39c-2.29,1.66-4.59,3.32-6.88,4.99l-38.43,27.16c-8.94,6.33-21.04,5.79-29.39-1.3-8.31-7.07-9.82-18.94-6.88-26.87,.31-.83,.62-1.4901,.84-1.92,.31-.66,.63-1.31,.95-1.97l.7401-1.52c5.2131-10.8277,10.4265-21.6553,15.6398-32.4828l1.2601-2.6171s.0004-.0009,.0005-.0013c.0002-.0007,.0004-.0013,.0004-.0013-.0003-.0001-.7505,2.2509-2.0009,6.0026-.5225,3.074,.6265,6.1682,3,8,2.8257,2.1808,6.9226,2.2139,10,0,6.3251-4.323,10.9511-7.4968,11.2681-7.7297,.3358-.2468,.7422-.5457,.7422-.5457,1.2585-.9256,21.4617-15.7848,42.9196-31.5746,2.8439-2.0927,29.7369-21.8856,32.65-24.03l3.07-2.26,28.68,38.47Z" style="fill: url(#linear-gradient-11);"/>
  <path d="M191.8993,12.0021c-16.3334,31.6667-32.6666,63.3333-49,95,14.3334,7,28.6666,14,43,21,13.6703-27.3615,27.3407-54.723,41.011-82.0845-11.6703-11.3052-23.3407-22.6103-35.011-33.9154Z" style="fill: url(#linear-gradient-12);"/>
  <path d="M191.9103,11.9175c-57.6606,27.5524-115.3211,55.1049-172.9817,82.6573-.0098,3.4757-.0195,6.9515-.0293,10.4272,6.6666,10,13.3334,20,20,30,2.1914,.0298,4.3829,.0596,6.5743,.0894,36.4468-16.6033,73.6426-34.3153,111.4794-53.2187,23.8615-11.9213,47.1806-23.9181,69.9573-35.9552-11.6667-11.3333-23.3333-22.6667-35-34Z" style="fill: url(#linear-gradient-13);"/>
  <path d="M0,152.6086c5.1642,8.3421,10.3284,16.6842,15.4926,25.0263l40.8135-25.2656-11.9111-19.2402c-8.4985-13.0423-16.9971-26.0847-25.4956-39.127-6.2998,19.5355-12.5995,39.071-18.8993,58.6065Z" style="fill: url(#linear-gradient-14);"/>
  <polygon points="285.5912 0 239.3446 94.4473 282.454 115.5567 329.2408 20.0063 285.5912 0" style="fill: url(#linear-gradient-15);"/>
</svg>