<?xml version="1.0" encoding="utf-8"?>
<!-- Generator: Adobe Illustrator 27.0.1, SVG Export Plug-In . SVG Version: 6.00 Build 0)  -->
<svg version="1.1" id="Layer_1" xmlns="http://www.w3.org/2000/svg" xmlns:xlink="http://www.w3.org/1999/xlink" x="0px" y="0px"
	 viewBox="0 0 20 20" style="enable-background:new 0 0 20 20;" xml:space="preserve">
<path d="M10,0C4.5,0,0,4.5,0,10s4.5,10,10,10s10-4.5,10-10S15.5,0,10,0z M9.5,14l-0.5,0.5c-0.4,0.5-1.1,0.7-1.7,0.7S6,15.1,5.5,14.5
	c-0.4-0.4-0.7-1.1-0.7-1.8c0-0.6,0.2-1.3,0.7-1.7l2-1.9c1.2-1.3,2.5-1.5,3.5-0.5c0.2,0.2,0.2,0.6,0,0.9c-0.2,0.2-0.6,0.2-0.9,0
	c-0.5-0.5-1.4,0-1.7,0.4l-2,1.9C6.1,12.1,6,12.4,6,12.7c0,0.3,0.1,0.6,0.3,0.8C6.7,14,7.6,14,8,13.6l0.5-0.5c0.2-0.2,0.6-0.2,0.9,0
	C9.8,13.4,9.8,13.8,9.5,14z M14.5,9.1l-2.1,2.1c-0.6,0.6-1.4,0.9-2,0.9c-0.5,0-1.1-0.2-1.5-0.6c-0.2-0.2-0.2-0.6,0-0.9
	c0.2-0.2,0.6-0.2,0.9,0c0.2,0.2,0.6,0.6,1.6-0.3l2.1-2.1c0.2-0.2,0.3-0.5,0.3-0.8s-0.1-0.6-0.3-0.8C13.2,6,12.5,5.8,12,6.3l-0.6,0.6
	c-0.2,0.2-0.6,0.2-0.9,0c-0.2-0.2-0.2-0.6,0-0.9l0.6-0.6c0.9-0.9,2.3-0.8,3.4,0.1c0.4,0.4,0.7,1.1,0.7,1.8S15.1,8.5,14.5,9.1z"/>
</svg>
