<svg id="hero" xmlns="http://www.w3.org/2000/svg" xmlns:xlink="http://www.w3.org/1999/xlink" viewBox="0 0 550 993"><defs><radialGradient id="radial-gradient" cx="311.6303" cy="710.8626" r="159.4441" gradientUnits="userSpaceOnUse"><stop offset="0" stop-color="#55bdc5"/><stop offset="0.1653" stop-color="#58b8c3"/><stop offset="0.3705" stop-color="#5fa8bd"/><stop offset="0.5966" stop-color="#6b8fb3"/><stop offset="0.8362" stop-color="#7c6ca6"/><stop offset="1" stop-color="#8a509b"/></radialGradient><radialGradient id="radial-gradient-2" cx="346.6374" cy="761.9505" r="141.3233" xlink:href="#radial-gradient"/><radialGradient id="radial-gradient-3" cx="262.5312" cy="716.0338" r="135.8014" xlink:href="#radial-gradient"/><radialGradient id="radial-gradient-4" cx="176.2747" cy="705.5997" r="150.0409" xlink:href="#radial-gradient"/><radialGradient id="radial-gradient-5" cx="263.8242" cy="716.0604" r="110.8524" xlink:href="#radial-gradient"/><radialGradient id="radial-gradient-6" cx="232.1758" cy="741.6429" r="95.8963" xlink:href="#radial-gradient"/><radialGradient id="radial-gradient-7" cx="153.9066" cy="841.4069" r="190.8256" gradientUnits="userSpaceOnUse"><stop offset="0" stop-color="#a3adbd"/><stop offset="0.2444" stop-color="#a3aac1"/><stop offset="0.4922" stop-color="#a3a2cd"/><stop offset="0.7415" stop-color="#a294e2"/><stop offset="0.9906" stop-color="#a280fe"/><stop offset="1" stop-color="#a27fff"/></radialGradient><radialGradient id="radial-gradient-8" cx="252.6097" cy="1035.9182" r="223.2486" gradientUnits="userSpaceOnUse"><stop offset="0" stop-color="#5a43c1"/><stop offset="0.2204" stop-color="#5d47c3"/><stop offset="0.4438" stop-color="#6653c7"/><stop offset="0.6687" stop-color="#7668cf"/><stop offset="0.8932" stop-color="#8b84da"/><stop offset="1" stop-color="#9794e0"/></radialGradient><radialGradient id="radial-gradient-9" cx="292.0649" cy="665.2882" r="192.963" gradientUnits="userSpaceOnUse"><stop offset="0" stop-color="#7f85aa"/><stop offset="0.2373" stop-color="#8085ae"/><stop offset="0.4778" stop-color="#8284ba"/><stop offset="0.7198" stop-color="#8682cf"/><stop offset="0.9615" stop-color="#8b7feb"/><stop offset="1" stop-color="#8c7ff0"/></radialGradient><radialGradient id="radial-gradient-10" cx="423.63" cy="938.8594" r="353.9698" gradientUnits="userSpaceOnUse"><stop offset="0" stop-color="#7b53c4"/><stop offset="0.2463" stop-color="#7d57c6"/><stop offset="0.496" stop-color="#8363cb"/><stop offset="0.7473" stop-color="#8e78d4"/><stop offset="0.9983" stop-color="#9c94e0"/><stop offset="1" stop-color="#9c94e0"/></radialGradient><radialGradient id="radial-gradient-11" cx="445.0738" cy="899.1384" r="172.5504" gradientUnits="userSpaceOnUse"><stop offset="0" stop-color="#6c49c1"/><stop offset="0.2292" stop-color="#6f4dc3"/><stop offset="0.4615" stop-color="#7659c8"/><stop offset="0.6952" stop-color="#836ed0"/><stop offset="0.9286" stop-color="#958adc"/><stop offset="1" stop-color="#9c94e0"/></radialGradient><radialGradient id="radial-gradient-12" cx="-16.8687" cy="793.4871" r="261.8274" gradientUnits="userSpaceOnUse"><stop offset="0" stop-color="#4dc6bd"/><stop offset="0.2204" stop-color="#51c4be"/><stop offset="0.4438" stop-color="#5dbfbf"/><stop offset="0.6687" stop-color="#72b6c2"/><stop offset="0.8932" stop-color="#8eaac7"/><stop offset="1" stop-color="#9ea3c9"/></radialGradient><radialGradient id="radial-gradient-13" cx="352.2484" cy="938.9176" r="180.1517" gradientUnits="userSpaceOnUse"><stop offset="0" stop-color="#787dd4"/><stop offset="0.2784" stop-color="#7b81d3"/><stop offset="0.5606" stop-color="#858dd1"/><stop offset="0.8437" stop-color="#95a1cc"/><stop offset="1" stop-color="#a1b0c9"/></radialGradient><radialGradient id="radial-gradient-14" cx="354.6064" cy="991.1476" r="111.6542" gradientUnits="userSpaceOnUse"><stop offset="0" stop-color="#5a49c1"/><stop offset="0.2292" stop-color="#5e4dc3"/><stop offset="0.4615" stop-color="#6859c8"/><stop offset="0.6952" stop-color="#7a6ed0"/><stop offset="0.9286" stop-color="#938adc"/><stop offset="1" stop-color="#9c94e0"/></radialGradient><radialGradient id="radial-gradient-15" cx="34.277" cy="705.8903" r="376.8674" gradientUnits="userSpaceOnUse"><stop offset="0" stop-color="#55bdc5"/><stop offset="0.1897" stop-color="#57b9c3"/><stop offset="0.382" stop-color="#5dadbf"/><stop offset="0.5756" stop-color="#6798b7"/><stop offset="0.7701" stop-color="#757cac"/><stop offset="0.9636" stop-color="#86589e"/><stop offset="1" stop-color="#8a509b"/></radialGradient><radialGradient id="radial-gradient-16" cx="296.8335" cy="529.3289" r="257.7297" gradientUnits="userSpaceOnUse"><stop offset="0" stop-color="#00b5be"/><stop offset="0.5826" stop-color="#2ad5ba"/><stop offset="1" stop-color="#43e8b8"/></radialGradient><radialGradient id="radial-gradient-17" cx="224.3334" cy="385.2977" r="255.0836" gradientUnits="userSpaceOnUse"><stop offset="0" stop-color="#00b5be"/><stop offset="0.5826" stop-color="#2ad5a8"/><stop offset="1" stop-color="#43e89a"/></radialGradient><radialGradient id="radial-gradient-18" cx="263.3642" cy="-33.0583" r="230.4185" gradientUnits="userSpaceOnUse"><stop offset="0" stop-color="#ffff40"/><stop offset="0.4925" stop-color="#99f76c"/><stop offset="0.8381" stop-color="#57f188"/><stop offset="1" stop-color="#3eef93"/></radialGradient><radialGradient id="radial-gradient-19" cx="345.4066" cy="6.0824" r="83.0279" gradientUnits="userSpaceOnUse"><stop offset="0" stop-color="#64f968"/><stop offset="0.1919" stop-color="#6af66f"/><stop offset="1" stop-color="#7fe988"/></radialGradient><radialGradient id="radial-gradient-20" cx="105.6158" cy="17.775" r="296.3492" xlink:href="#radial-gradient-18"/><radialGradient id="radial-gradient-21" cx="395.8999" cy="227.3291" r="138.4353" gradientUnits="userSpaceOnUse"><stop offset="0" stop-color="#00b5af"/><stop offset="0.5826" stop-color="#2ad5a1"/><stop offset="1" stop-color="#43e899"/></radialGradient><radialGradient id="radial-gradient-22" cx="214.1126" cy="525.4066" r="217.1362" xlink:href="#radial-gradient-21"/><radialGradient id="radial-gradient-23" cx="254.2035" cy="548.5021" r="230.9947" xlink:href="#radial-gradient-21"/><radialGradient id="radial-gradient-24" cx="25.189" cy="268.0303" r="265.4065" gradientUnits="userSpaceOnUse"><stop offset="0" stop-color="#fcee21"/><stop offset="0.4677" stop-color="#a0f576"/><stop offset="0.8301" stop-color="#5ef9b3"/><stop offset="1" stop-color="#45fbca"/></radialGradient><radialGradient id="radial-gradient-25" cx="0.9391" cy="140.8946" r="304.2782" xlink:href="#radial-gradient-24"/><radialGradient id="radial-gradient-26" cx="313.6699" cy="362.4559" r="141.6898" gradientUnits="userSpaceOnUse"><stop offset="0" stop-color="#00b56c"/><stop offset="0.5826" stop-color="#2ad584"/><stop offset="1" stop-color="#43e893"/></radialGradient><radialGradient id="radial-gradient-27" cx="241.2518" cy="170.94" r="122.3112" gradientUnits="userSpaceOnUse"><stop offset="0" stop-color="#3ae879"/><stop offset="0.4281" stop-color="#40d88f"/><stop offset="1" stop-color="#46c5a8"/></radialGradient><radialGradient id="radial-gradient-28" cx="63.2571" cy="682.0559" r="272.5343" xlink:href="#radial-gradient-21"/><radialGradient id="radial-gradient-29" cx="36.5099" cy="567.5495" r="199.4696" gradientUnits="userSpaceOnUse"><stop offset="0" stop-color="#ffe47d"/><stop offset="1" stop-color="#6fc2bf"/></radialGradient><radialGradient id="radial-gradient-30" cx="378.6374" cy="159.5769" r="94.6049" xlink:href="#radial-gradient-21"/><radialGradient id="radial-gradient-31" cx="468.5601" cy="350.873" r="261.2796" xlink:href="#radial-gradient-16"/><radialGradient id="radial-gradient-32" cx="371.9625" cy="362.0482" r="171.8521" gradientUnits="userSpaceOnUse"><stop offset="0" stop-color="#4dc6bd"/><stop offset="0.2356" stop-color="#4ec2c1"/><stop offset="0.4744" stop-color="#53b6cc"/><stop offset="0.7146" stop-color="#5aa1df"/><stop offset="0.9547" stop-color="#6485f9"/><stop offset="1" stop-color="#667fff"/></radialGradient><radialGradient id="radial-gradient-33" cx="383.5153" cy="756.2858" r="489.5842" gradientTransform="matrix(0.3629, -0.9318, 0.5417, 0.211, -165.323, 954.1041)" gradientUnits="userSpaceOnUse"><stop offset="0" stop-color="#4dc6bd"/><stop offset="0.2705" stop-color="#4fc2bf"/><stop offset="0.5446" stop-color="#57b6c3"/><stop offset="0.8196" stop-color="#63a2cb"/><stop offset="1" stop-color="#6d90d2"/></radialGradient><radialGradient id="radial-gradient-34" cx="397.2336" cy="455.1076" r="268.7126" gradientUnits="userSpaceOnUse"><stop offset="0" stop-color="#4dc6bd"/><stop offset="0.2151" stop-color="#51c3c0"/><stop offset="0.4332" stop-color="#5db8ca"/><stop offset="0.6526" stop-color="#72a7d9"/><stop offset="0.8718" stop-color="#8e90ef"/><stop offset="1" stop-color="#a27fff"/></radialGradient><radialGradient id="radial-gradient-35" cx="416.399" cy="392.5495" r="162.6264" gradientUnits="userSpaceOnUse"><stop offset="0" stop-color="#3da6c1"/><stop offset="0.5987" stop-color="#6ac0ae"/><stop offset="1" stop-color="#83cfa3"/></radialGradient><radialGradient id="radial-gradient-36" cx="453.8262" cy="575.2978" r="293.9045" gradientUnits="userSpaceOnUse"><stop offset="0" stop-color="#00b5af"/><stop offset="0.2607" stop-color="#24bea7"/><stop offset="0.7629" stop-color="#65ce99"/><stop offset="1" stop-color="#7ed493"/></radialGradient><radialGradient id="radial-gradient-37" cx="491.2022" cy="293.0107" r="147.9075" gradientTransform="translate(0.4565 -0.4253) rotate(0.0305)" gradientUnits="userSpaceOnUse"><stop offset="0" stop-color="#00b5af"/><stop offset="0.3898" stop-color="#42c0a6"/><stop offset="0.8041" stop-color="#83cb9d"/><stop offset="1" stop-color="#9ccf99"/></radialGradient><radialGradient id="radial-gradient-38" cx="455.2031" cy="415.7366" r="249.5943" gradientUnits="userSpaceOnUse"><stop offset="0" stop-color="#009cd1"/><stop offset="0.4778" stop-color="#60c5b4"/><stop offset="0.8334" stop-color="#a2e0a1"/><stop offset="1" stop-color="#bbeb99"/></radialGradient><radialGradient id="radial-gradient-39" cx="234.078" cy="172.0016" r="173.2893" gradientUnits="userSpaceOnUse"><stop offset="0" stop-color="#00b5be"/><stop offset="0.4002" stop-color="#45cbbb"/><stop offset="0.8075" stop-color="#86e0b9"/><stop offset="1" stop-color="#9fe8b8"/></radialGradient><radialGradient id="radial-gradient-40" cx="41.1882" cy="661.7907" r="247.6438" xlink:href="#radial-gradient-16"/><radialGradient id="radial-gradient-41" cx="355.4011" cy="889.767" r="195.9687" gradientUnits="userSpaceOnUse"><stop offset="0" stop-color="#6b78d4"/><stop offset="0.2871" stop-color="#6e7cd3"/><stop offset="0.5781" stop-color="#7688d0"/><stop offset="0.8699" stop-color="#859ccc"/><stop offset="1" stop-color="#8da8c9"/></radialGradient><radialGradient id="radial-gradient-42" cx="527.9294" cy="803.0336" r="198.4273" gradientUnits="userSpaceOnUse"><stop offset="0" stop-color="#7149c1"/><stop offset="0.1933" stop-color="#724dc3"/><stop offset="0.3894" stop-color="#7659cb"/><stop offset="0.5866" stop-color="#7c6ed7"/><stop offset="0.7848" stop-color="#858ae7"/><stop offset="0.9819" stop-color="#91aefd"/><stop offset="1" stop-color="#92b2ff"/></radialGradient><radialGradient id="radial-gradient-43" cx="401.2038" cy="640.254" r="176.1707" gradientUnits="userSpaceOnUse"><stop offset="0" stop-color="#b6e473"/><stop offset="1" stop-color="#3fbfc4"/></radialGradient><radialGradient id="radial-gradient-44" cx="339.3634" cy="583.6914" r="45.5138" xlink:href="#radial-gradient-43"/><radialGradient id="radial-gradient-45" cx="235.6572" cy="533.6938" r="286.497" gradientUnits="userSpaceOnUse"><stop offset="0" stop-color="#76eaa9"/><stop offset="1" stop-color="#7388ff"/></radialGradient><radialGradient id="radial-gradient-46" cx="219.2581" cy="589.5922" r="184.2543" xlink:href="#radial-gradient-45"/><radialGradient id="radial-gradient-47" cx="266.5856" cy="653.8335" r="199.0796" gradientUnits="userSpaceOnUse"><stop offset="0" stop-color="#4dc6bd"/><stop offset="0.2444" stop-color="#4fc3c1"/><stop offset="0.4922" stop-color="#53bbcd"/><stop offset="0.7415" stop-color="#5baee2"/><stop offset="0.9906" stop-color="#669cfe"/><stop offset="1" stop-color="#669bff"/></radialGradient><radialGradient id="radial-gradient-48" cx="59.9862" cy="617.4264" r="317.9666" gradientUnits="userSpaceOnUse"><stop offset="0" stop-color="#4dafd2"/><stop offset="0.2204" stop-color="#51aed2"/><stop offset="0.4438" stop-color="#5dadd0"/><stop offset="0.6687" stop-color="#72aace"/><stop offset="0.8932" stop-color="#8ea5cb"/><stop offset="1" stop-color="#9ea3c9"/></radialGradient><radialGradient id="radial-gradient-49" cx="316.6319" cy="603.9451" r="269.6183" gradientTransform="matrix(1, 0, 0, 1, 0, 0)" xlink:href="#radial-gradient-37"/><radialGradient id="radial-gradient-50" cx="218.5352" cy="563.784" r="199.0771" gradientUnits="userSpaceOnUse"><stop offset="0" stop-color="#78c6bd"/><stop offset="0.2356" stop-color="#77c2c1"/><stop offset="0.4744" stop-color="#74b6cc"/><stop offset="0.7146" stop-color="#6fa1df"/><stop offset="0.9547" stop-color="#6885f9"/><stop offset="1" stop-color="#667fff"/></radialGradient><radialGradient id="radial-gradient-51" cx="132.095" cy="656.7777" r="85.8599" xlink:href="#radial-gradient-12"/><radialGradient id="radial-gradient-52" cx="129.0434" cy="430.2192" r="345.5039" gradientUnits="userSpaceOnUse"><stop offset="0" stop-color="#96e46f"/><stop offset="0.9068" stop-color="#6fbbd8"/></radialGradient><radialGradient id="radial-gradient-53" cx="76.3956" cy="606.6099" r="177.4849" gradientUnits="userSpaceOnUse"><stop offset="0" stop-color="#96e46f"/><stop offset="1" stop-color="#6fbbd8"/></radialGradient><radialGradient id="radial-gradient-54" cx="46.3628" cy="442.4149" r="177.5713" xlink:href="#radial-gradient-39"/><radialGradient id="radial-gradient-55" cx="240.5881" cy="581.2124" r="102.8368" gradientTransform="matrix(1, 0, 0, 1, 0, 0)" xlink:href="#radial-gradient-37"/><radialGradient id="radial-gradient-56" cx="432.0769" cy="461.0275" r="250.3397" gradientTransform="matrix(1, 0, 0, 1, 0, 0)" xlink:href="#radial-gradient-37"/><radialGradient id="radial-gradient-57" cx="328" cy="499.6596" r="262.9409" xlink:href="#radial-gradient-21"/><radialGradient id="radial-gradient-58" cx="22.6957" cy="541.7582" r="154.4966" gradientUnits="userSpaceOnUse"><stop offset="0.0289" stop-color="#00aca8"/><stop offset="0.5946" stop-color="#2ad19f"/><stop offset="1" stop-color="#43e89a"/></radialGradient><radialGradient id="radial-gradient-59" cx="-18.4581" cy="613.7195" r="265.4047" xlink:href="#radial-gradient-29"/><radialGradient id="radial-gradient-60" cx="73.5434" cy="885.6154" r="120.1059" xlink:href="#radial-gradient-12"/><radialGradient id="radial-gradient-61" cx="77.4787" cy="817.7649" r="148.3867" gradientUnits="userSpaceOnUse"><stop offset="0" stop-color="#00b5bc"/><stop offset="0.2762" stop-color="#27bcbf"/><stop offset="0.7678" stop-color="#68c7c3"/><stop offset="1" stop-color="#81cbc5"/></radialGradient><radialGradient id="radial-gradient-62" cx="9.4892" cy="662.7825" r="98.6866" xlink:href="#radial-gradient-43"/><radialGradient id="radial-gradient-63" cx="80.1699" cy="769.922" r="200.385" gradientTransform="matrix(1, 0, 0, 1, 0, 0)" xlink:href="#radial-gradient-37"/><radialGradient id="radial-gradient-64" cx="186.1505" cy="743.7802" r="139.6287" gradientTransform="matrix(1, 0, 0, 1, 0, 0)" xlink:href="#radial-gradient-37"/><radialGradient id="radial-gradient-65" cx="241.6327" cy="741.3113" r="104.9169" xlink:href="#radial-gradient-13"/><radialGradient id="radial-gradient-66" cx="171.8407" cy="725.6064" r="214.7103" gradientTransform="matrix(1, 0, 0, 1, 0, 0)" xlink:href="#radial-gradient-37"/><radialGradient id="radial-gradient-67" cx="101.7143" cy="742.1487" r="71.0786" gradientUnits="userSpaceOnUse"><stop offset="0" stop-color="#00b5af"/><stop offset="0.2762" stop-color="#27b1b6"/><stop offset="0.7678" stop-color="#68aac1"/><stop offset="1" stop-color="#81a7c5"/></radialGradient><radialGradient id="radial-gradient-68" cx="167.7446" cy="587.7889" r="160.5164" gradientTransform="matrix(1, 0, 0, 1, 0, 0)" xlink:href="#radial-gradient-37"/><radialGradient id="radial-gradient-69" cx="169.467" cy="580.3597" r="193.2267" xlink:href="#radial-gradient-16"/><radialGradient id="radial-gradient-70" cx="-18.8354" cy="368.4477" r="240.8936" xlink:href="#radial-gradient-24"/><radialGradient id="radial-gradient-71" cx="125.4505" cy="598.2547" r="189.5396" xlink:href="#radial-gradient-21"/><radialGradient id="radial-gradient-72" cx="196.6798" cy="499.853" r="134.4332" gradientTransform="matrix(1, 0, 0, 1, 0, 0)" xlink:href="#radial-gradient-37"/><radialGradient id="radial-gradient-73" cx="112.3232" cy="569.3845" r="146.7358" xlink:href="#radial-gradient-58"/><radialGradient id="radial-gradient-74" cx="71.1484" cy="532.7363" r="55.8405" xlink:href="#radial-gradient-17"/><radialGradient id="radial-gradient-75" cx="-17.3658" cy="528.9954" r="247.6768" xlink:href="#radial-gradient-24"/><radialGradient id="radial-gradient-76" cx="106.2426" cy="572.2302" r="164.0688" xlink:href="#radial-gradient-21"/><radialGradient id="radial-gradient-77" cx="46.9319" cy="525.2543" r="97.2248" gradientUnits="userSpaceOnUse"><stop offset="0" stop-color="#00abbe"/><stop offset="0.5826" stop-color="#2ad1a8"/><stop offset="1" stop-color="#43e89a"/></radialGradient><radialGradient id="radial-gradient-78" cx="52.8918" cy="530.456" r="86.4765" xlink:href="#radial-gradient-17"/></defs><g id="lower"><g id="shapes_shard_01"><path d="M370,671.5q.5,10,1,20,7,35.5,14,71l6,17,78-87,8-12Z" style="fill:url(#radial-gradient)"/><path d="M253,700.5l5,8,52,53,57-83,3-7Z" style="fill:url(#radial-gradient-2)"/><path d="M370,671.5l-60,88,81,20Z" style="fill:url(#radial-gradient-3)"/><path d="M253,700.5l-76,54,97,61q-.5-11-1-22l-18-88Z" style="fill:url(#radial-gradient-4)"/><path d="M310,759.5l81,20-117,36,3-8,24-39Z" style="fill:url(#radial-gradient-5)"/><path d="M253,700.5l57,59-36,56-14-42Q256.5,737,253,700.5Z" style="fill:url(#radial-gradient-6)"/><path d="M207,866.5h-2L310.5,993l.5-9.5-9-81Z" style="fill:url(#radial-gradient-7)"/><path d="M275.5,814l-.5,4.5,22,82,4,5,88-2,4-1q1-3.5,2-7,5-28,10-56l-122-25Z" style="fill:url(#radial-gradient-8)"/><path d="M390,777.5l2,4q5.5,29,11,58l-.5,2.5L275.5146,814.0807Z" style="fill:url(#radial-gradient-9)"/><path d="M424,831.5h-1l-18,8-2.5,2.5q-4.75,30.25-9.5,60.5Q408.5,867,424,831.5Z" style="fill:url(#radial-gradient-10)"/><path d="M390,777.5q6.25,32.25,12.5,64.5L424,831.5q26.5-75.5,53-151Z" style="fill:url(#radial-gradient-11)"/><path d="M177,754.5,275.5,814l-7.5,8.5-58,42-5,2Z" style="fill:url(#radial-gradient-12)"/><path d="M299.5,904,205,866.5,275.5,814Z" style="fill:url(#radial-gradient-13)"/><path d="M299.5,904q5.5,44.5,11,89L393,902.5Z" style="fill:url(#radial-gradient-14)"/><path d="M177,754.5,275.5,814,390,777.5l87-97-107-9-117,29Z" style="opacity:0.88;fill:url(#radial-gradient-15)"/></g><g id="highlights" style="opacity:0.5"><path d="M401,840.5q-4-23-8-46l10,46,17-7-17,9-6,37q2-18.5,4-37l-44-10Z" style="fill:#f2f2f2"/><path d="M194,823.5l12,41,45-32-43,34,47,20-47-18q29.313,35.7359,29,36-.3232.27-32-37Z" style="fill:#f2f2f2"/></g></g><g id="main"><g id="shapes_color"><path d="M70.5,390l4.5,3.5,72,97-9,93-44-66-1-3Z" style="fill:url(#radial-gradient-16)"/><path d="M342,232.5l-52,85-2,2q5.5-43.5,11-87Z" style="fill:url(#radial-gradient-17)"/><path d="M342.5,35l.5,1.5s-10.2095,48.2632-11,52l-37,45-3-2q-12.5-43-25-86l.5-2.5,44-43Z" style="fill:url(#radial-gradient-18)"/><path d="M388.5,65,382,69.5l-41,16L331.5,88q5.5-26.5,11-53Z" style="fill:url(#radial-gradient-19)"/><path d="M294.5,132l1.5,3.5,9,49-1,47-9,6-70,21-46-50-1.5-3.5,90-162Z" style="fill:url(#radial-gradient-20)"/><path d="M303,185.5l58,22q-2.5-35.5-5-71l-22-46L331.5,88l-37,44Q298.75,158.75,303,185.5Z" style="fill:url(#radial-gradient-21)"/><path d="M70.5,390l4.5-1.5,61-14,4.5.5,3.5,6.5,3,104-2,6Z" style="fill:url(#radial-gradient-22)"/><path d="M140.5,375l1.5-3.5,60-67,36,89q.5,5,1,10l-2,3-90,84-2,1Z" style="fill:url(#radial-gradient-23)"/><path d="M160,255.5l3,1,35,47,3,6L140.5,375l-70,15Z" style="fill:url(#radial-gradient-24)"/><path d="M177.5,205,226,256.5l1,4-23,47-3,2-41-54Z" style="fill:url(#radial-gradient-25)"/><path d="M226,256.5l2,5,56,54,5,2q5.75-41.75,11.5-83.5Z" style="fill:url(#radial-gradient-26)"/><path d="M303,184.5l56,18-1,4-14,23-4,4-39.5.5Z" style="fill:url(#radial-gradient-27)"/><path d="M84.5,533l6.5,3.5,42,38,3,3,11,14,4,7-4,2-38,2-7.5-.5Q93,567.5,84.5,533Z" style="fill:url(#radial-gradient-28)"/><path d="M93,514.5l43,63L84.5,533Q88.75,523.75,93,514.5Z" style="fill:url(#radial-gradient-29)"/><path d="M388.5,65,387,70.5l-27,58-5.5,9.5-23-50Z" style="fill:url(#radial-gradient-30)"/><path d="M388.5,65l-34,73,4.5,64.5,6,9,100,86Z" style="fill:url(#radial-gradient-31)"/><path d="M442,275.5q.5,4,1,8l39,101,7.5,17.5Q477.25,349.75,465,297.5Z" style="fill:url(#radial-gradient-32)"/><path d="M442,275.5,549.5,554l-6.5,5.5-117,51-37-60-7-16-1.5-7.5q-1.25-67.75-2.5-135.5l59-109Z" style="fill:url(#radial-gradient-33)"/><path d="M427,607.5l-2,2q-5.5,21-11,42l58,29h5L549.5,554Z" style="fill:url(#radial-gradient-34)"/><path d="M379,391.5l-6,8-27,82,35,52,1,1Z" style="fill:url(#radial-gradient-35)"/><path d="M288,316.5l-49,87q31,63.5,62,127l47-48,31-91-.2528-2.1082L291,318.5Z" style="fill:url(#radial-gradient-36)"/><path d="M359,202.5l2,10,30,95,3,6h1l44-35,3-3Z" style="fill:url(#radial-gradient-37)"/><path d="M394,313.5l-1,1q-6.5,33-13,66-.5,5.5-1,11l63-116Z" style="fill:url(#radial-gradient-38)"/><path d="M359,202.5q17.5,55.5,35,111l-7,3-91,2-7-1Z" style="fill:url(#radial-gradient-39)"/><path d="M149.5,598l2.5,1.5,24,90q1,30,2,60l-1,5Q139.25,678.25,101.5,602Z" style="fill:url(#radial-gradient-40)"/><path d="M390,704.5q.5,35,1,70l-1,4-114,36v-8q8.5-59.5,17-119Z" style="fill:url(#radial-gradient-41)"/><path d="M415.5,650,477,680.5l-87,98L388.5,706l-.5-4.5,22-46Z" style="fill:url(#radial-gradient-42)"/><path d="M348.5,480,302,528.5l-1,3,1,11h1l77-7,2-1Z" style="fill:url(#radial-gradient-43)"/><path d="M282,544.5l21-3-1-13-4,2-11,9Z" style="fill:url(#radial-gradient-44)"/><path d="M382,534.5l-79,7-1,3q-6.5,41-13,82,1,29,2,58l2.5,5.5,95,16,27-56q-1.25-9.25-2.5-18.5l-24-81Z" style="fill:url(#radial-gradient-45)"/><path d="M303,541.5l-18,1-1,2q2.5,39,5,78l1,9Q296.5,586.5,303,541.5Z" style="fill:url(#radial-gradient-46)"/><path d="M382,534.5q16.75,57.75,33.5,115.5,5.75-21.25,11.5-42.5Z" style="fill:url(#radial-gradient-47)"/><path d="M178,748.5q-.5,3-1,6l99,60q8.9167-62.0932,17.8334-124.1864L287,689.5l-92,9Z" style="fill:url(#radial-gradient-48)"/><path d="M239,403.5l3,12q20.5,62,41,124l2,3,17-14Z" style="fill:url(#radial-gradient-49)"/><path d="M291,626.5l3,64L197.5,700l-.5-2.5,22-58,67-16Z" style="fill:url(#radial-gradient-50)"/><path d="M219,643.5l-4,3-36,37-4.5,6.5q1.25,32.25,2.5,64.5Z" style="fill:url(#radial-gradient-51)"/><path d="M239,403.5l-2,3-44,158,21,72,4.5,7.5L291,626.5l-6-84Z" style="fill:url(#radial-gradient-52)"/><path d="M195.5,561l-6.5.5-37,31-2.5,5.5q12.5,46,25,92l44-46Z" style="fill:url(#radial-gradient-53)"/><path d="M145,491.5l1,4,47,64,2.5,1.5L239,403.5Z" style="fill:url(#radial-gradient-54)"/><path d="M145,491.5,195.5,561l-46,37L136,577.5Z" style="fill:url(#radial-gradient-55)"/><path d="M289,317.5l105-4-15,78Z" style="fill:url(#radial-gradient-56)"/><path d="M226,256.5l63,61-50,86q-19-47-38-94Z" style="fill:url(#radial-gradient-57)"/></g><g id="highlights-2" data-name="highlights" style="opacity:0.5"><path d="M243,251.5q-.2143-.6858,56-19,2-21,4-42-.5,21-1,42l27,1-28,2q-11.5083,79.0634-12,79-.49-.0683,10-79Q243.2164,252.18,243,251.5Z" style="fill:#f2f2f2"/><path d="M320,316.5l72.3022-4.0118Q381.651,276.4942,371,240.5q12.1511,35.9941,24.3022,71.9882L421,292.5l-26.6978,22.9882Q385.4886,369.5782,385,369.5q-.4878-.075,7.3022-54.0118Z" style="fill:#f2f2f2"/><path d="M399,560.5l29,45,42-16-41,18-12,40,9-40Z" style="fill:#f2f2f2"/><path d="M358,45.5l30,19,16,45-17-42-25,54,24-55-41,15,41-17Z" style="fill:#f2f2f2"/><path d="M523,485.5l24,68-39,19,38-16q-27.5313,49.6952-27,50,.55.3125,31-52Z" style="fill:#f2f2f2"/><path d="M368,423.5l-20,56-28,30,28-28q13.7111,20.1891,14,20,.29-.1911-13-21Z" style="fill:#f2f2f2"/><path d="M272,347.5l-31,56,14,32-17-33Z" style="fill:#f2f2f2"/><path d="M292,657.5q1,15.5,2,31l56,11-58-9Z" style="fill:#f2f2f2"/><path d="M195,559.5l9-29q-4,15.5-8,31,5.5,20,11,40l-12-39-25,19,24-20-22-33Z" style="fill:#f2f2f2"/></g></g><g id="lower-left"><g id="shapes_shard_03"><path d="M74,513.5l-14,8,6,88,21-76Z" style="fill:url(#radial-gradient-58)"/><path d="M136,577.5l14,20-3,9q-23.5,48.5-47,97,15.5-58.5,31-117Z" style="fill:url(#radial-gradient-59)"/><path d="M136,798.5l-3,5-15,43-1,5,67-70Z" style="fill:url(#radial-gradient-60)"/><path d="M119,720.5q8,34.5,16,69,.5,4.5,1,9-9.5,26.5-19,53l-15-61q1-6,2-12Z" style="fill:url(#radial-gradient-61)"/><path d="M66,609.5l2,1,34,88q.5,4.5,1,9v76q-.5,3.5-1,7L76.5,710Z" style="fill:url(#radial-gradient-62)"/><path d="M101.5,699l4.5,3.5,13,19v2q-8.5,33.5-17,67Q101.75,744.75,101.5,699Z" style="fill:url(#radial-gradient-63)"/><path d="M119,723.5,101.5,699q24.25-50.75,48.5-101.5,13,45.5,26,91l-4,4-48,29Z" style="fill:url(#radial-gradient-64)"/><path d="M176,688.5l-9,17-28,81-2.9454,12.3272L184,781.5q-3.2857-13.6647-6.5716-27.3293Z" style="fill:url(#radial-gradient-65)"/><path d="M84,533.5l-18,76L101.5,699,136,577.5c-4.343-4.6109-9.0036-9.2941-14-14a331.6543,331.6543,0,0,0-34-28Z" style="fill:url(#radial-gradient-66)"/><path d="M119,723.5q8.5,38,17,76l40-111Z" style="fill:url(#radial-gradient-67)"/><path d="M74,513.5l62,64-52-44Z" style="fill:url(#radial-gradient-68)"/></g><g id="highlights-3" data-name="highlights" style="opacity:0.5"><path d="M78,709.5l12,46-15-44q-2.5-30.5-5-61Q74,680,78,709.5Z" style="fill:#f2f2f2"/><path d="M122,737.5q6.5,31,13,62l-8,24,10-24,27-11-26,9,30-89-32,89Q129,767.5,122,737.5Z" style="fill:#f2f2f2"/><path d="M101,698.5l-8-20,8,21q.5,12,1,24v-23l7,9-7-10,6-23Z" style="fill:#f2f2f2"/></g></g><g id="middle-left"><g id="shapes_shard_02_color"><path d="M26,456.5l2-1,31,1,20,31L74.5,515,64,520.5l-4,1L40.5,503Q33.25,479.75,26,456.5Z" style="fill:url(#radial-gradient-69)"/><path d="M142,373.5l-3,5-78,77L58.5,457,26,456.5l45-67Z" style="fill:url(#radial-gradient-70)"/><path d="M145.5,492l-1.5.5-64-4-2-1L58.5,457,142,373.5Q143.75,432.75,145.5,492Z" style="fill:url(#radial-gradient-71)"/><path d="M117.5,490l-2.5,1.5-30,38-1,4,52,44q4.75-42.75,9.5-85.5Z" style="fill:url(#radial-gradient-72)"/><path d="M84,533.5l-2-3-8-14v-2q2-13.5,4-27l39.5,2.5Z" style="fill:url(#radial-gradient-73)"/><path d="M60,521.5l14-7,10,19Z" style="fill:url(#radial-gradient-74)"/></g></g><g id="middle-tiny"><g id="shapes-shard"><path d="M59,456.5H26l-26,46,6-3,52-41Z" style="fill:url(#radial-gradient-75)"/><path d="M59,456.5,78.5,487,76,488.5l-69,14H0Z" style="fill:url(#radial-gradient-76)"/><path d="M60,521.5l14.2327-6.3854L71,513.5l-61-10-10-1Z" style="fill:url(#radial-gradient-77)"/><path d="M78.5,487,0,502.5l74.2327,12.6146L74.5,515Q76.5,501,78.5,487Z" style="fill:url(#radial-gradient-78)"/></g><g id="highlights-4" data-name="highlights" style="opacity:0.5"><path d="M3,499.5l24-18-23,19,46-8-50,10,20-35Z" style="fill:#f2f2f2"/></g></g></svg>