<svg id="scroll" xmlns="http://www.w3.org/2000/svg" xmlns:xlink="http://www.w3.org/1999/xlink" viewBox="0 0 158 331.2103"><defs><radialGradient id="radial-gradient" cx="149.1603" cy="326.0096" r="311.2107" gradientTransform="translate(-9.1605 1.8643) rotate(-1.8969)" gradientUnits="userSpaceOnUse"><stop offset="0" stop-color="#00b5af"/><stop offset="0.5826" stop-color="#2ad5a1"/><stop offset="1" stop-color="#43e899"/></radialGradient><radialGradient id="radial-gradient-2" cx="142.183" cy="258.2749" r="220.0352" gradientTransform="translate(-271.4087 397.1751) rotate(-91.8969)" gradientUnits="userSpaceOnUse"><stop offset="0" stop-color="#ffff5e"/><stop offset="0.4925" stop-color="#99f77a"/><stop offset="0.8381" stop-color="#57f18c"/><stop offset="1" stop-color="#3eef93"/></radialGradient><radialGradient id="radial-gradient-3" cx="158.5869" cy="311.2147" r="122.5169" gradientTransform="translate(-271.4087 397.1751) rotate(-91.8969)" gradientUnits="userSpaceOnUse"><stop offset="0" stop-color="#ffff40"/><stop offset="0.4925" stop-color="#99f76c"/><stop offset="0.8381" stop-color="#57f188"/><stop offset="1" stop-color="#3eef93"/></radialGradient><radialGradient id="radial-gradient-4" cx="347.3885" cy="267.9889" r="129.6362" gradientTransform="translate(-271.4087 397.1751) rotate(-91.8969)" gradientUnits="userSpaceOnUse"><stop offset="0" stop-color="#fcee21"/><stop offset="0.4677" stop-color="#a0f576"/><stop offset="0.8301" stop-color="#5ef9b3"/><stop offset="1" stop-color="#45fbca"/></radialGradient><radialGradient id="radial-gradient-5" cx="28.8088" cy="191.0084" r="149.4797" gradientTransform="translate(-9.1605 1.8643) rotate(-1.8969)" gradientUnits="userSpaceOnUse"><stop offset="0" stop-color="#ffee60"/><stop offset="0.4754" stop-color="#a0f596"/><stop offset="0.8326" stop-color="#5ef9bc"/><stop offset="1" stop-color="#45fbca"/></radialGradient><radialGradient id="radial-gradient-6" cx="219.7858" cy="178.302" r="173.0918" gradientTransform="translate(-9.1605 1.8643) rotate(-1.8969)" gradientUnits="userSpaceOnUse"><stop offset="0" stop-color="#00c9f4"/><stop offset="0.4345" stop-color="#50dac4"/><stop offset="0.8196" stop-color="#92e99c"/><stop offset="1" stop-color="#abee8d"/></radialGradient><radialGradient id="radial-gradient-7" cx="0.7178" cy="217.6374" r="153.9388" gradientUnits="userSpaceOnUse"><stop offset="0" stop-color="#c8e0ab"/><stop offset="0.0649" stop-color="#c1e1ab"/><stop offset="0.7003" stop-color="#80eca7"/><stop offset="1" stop-color="#67f0a5"/></radialGradient><radialGradient id="radial-gradient-8" cx="11.2788" cy="42.9654" r="70.5853" gradientTransform="translate(-9.1605 1.8643) rotate(-1.8969)" gradientUnits="userSpaceOnUse"><stop offset="0" stop-color="#64f968"/><stop offset="0.1919" stop-color="#6af66f"/><stop offset="1" stop-color="#7fe988"/></radialGradient><radialGradient id="radial-gradient-9" cx="207.5264" cy="64.5788" r="133.5145" gradientTransform="translate(-9.1605 1.8643) rotate(-1.8969)" gradientUnits="userSpaceOnUse"><stop offset="0" stop-color="#00b5be"/><stop offset="0.5826" stop-color="#2ad5a8"/><stop offset="1" stop-color="#43e89a"/></radialGradient><radialGradient id="radial-gradient-10" cx="228.1655" cy="160.2785" r="174.4837" gradientTransform="translate(-9.1605 1.8643) rotate(-1.8969)" gradientUnits="userSpaceOnUse"><stop offset="0" stop-color="#00b5bb"/><stop offset="0.5826" stop-color="#2ad7b1"/><stop offset="1" stop-color="#43ebab"/></radialGradient><radialGradient id="radial-gradient-11" cx="197.4617" cy="204.2213" r="142.8632" gradientTransform="translate(-9.1605 1.8643) rotate(-1.8969)" gradientUnits="userSpaceOnUse"><stop offset="0" stop-color="#00c4ba"/><stop offset="0.5826" stop-color="#2adaa6"/><stop offset="1" stop-color="#43e89a"/></radialGradient><radialGradient id="radial-gradient-12" cx="224.0773" cy="298.735" r="288.7055" gradientTransform="translate(-9.1605 1.8643) rotate(-1.8969)" gradientUnits="userSpaceOnUse"><stop offset="0" stop-color="#009cd1"/><stop offset="0.4345" stop-color="#50cab7"/><stop offset="0.8196" stop-color="#92efa1"/><stop offset="1" stop-color="#abfd99"/></radialGradient><radialGradient id="radial-gradient-13" cx="114.6051" cy="124.9231" r="79.8852" gradientUnits="userSpaceOnUse"><stop offset="0" stop-color="#34e09f"/><stop offset="0.6478" stop-color="#6cf27c"/><stop offset="1" stop-color="#85fa6c"/></radialGradient></defs><g id="top"><path d="M5.9531,123.5744,26.366,165.922q3.71,21.3888,7.42,42.7778,7.9725,29.2521,15.9452,58.5043l28.3671,63.7952q32.93-59.4723,65.8591-118.9444Q146.4787,163.0274,149,114L73,7Z" style="fill:url(#radial-gradient)"/><g id="shapes_copy_5" data-name="shapes copy 5"><path d="M0,101q2.9766,11.2872,5.9531,22.5744,25.9463,28.1566,51.8924,56.3132L74,175q5-20.5,10-41L5,102Z" style="fill:url(#radial-gradient-2)"/><path d="M0,101l74.1539-2.6969L76,101q2.5,16,5,32v4Z" style="fill:url(#radial-gradient-3)"/><path d="M0,101l74.1539-2.6969L78,93l3.2559-21.9469L72,0Z" style="fill:url(#radial-gradient-4)"/><path d="M71.5638,252.386q-6.859-36.2492-13.7183-72.4984L72,172q.5,1,1,2-.5,38-1,76Z" style="fill:url(#radial-gradient-5)"/><path d="M89,260q5.8383-12.75,11.6767-25.5.1617-1.75.3233-3.5L83,142l-2-5-9,35-.4362,80.386L74,255l13,6Z" style="fill:url(#radial-gradient-6)"/><path d="M71.5638,252.386Q74.87,291.7981,78.1766,331.21L89,260Z" style="fill:url(#radial-gradient-7)"/><path d="M81,71l21.2112-1.6415q1.941-1.4967,3.8985-3.1307a127.8005,127.8005,0,0,0,16.4611-16.554L72,0Z" style="fill:url(#radial-gradient-8)"/><path d="M81,71l3,4,71,44,3,.4615q-8.14-17.3377-17.28-35.37-9.0418-17.8027-18.1492-34.4181Z" style="fill:url(#radial-gradient-9)"/><path d="M81,71l77,48.4615v20L156,140,89,108q-4-17-8-34Z" style="fill:url(#radial-gradient-10)"/><path d="M90,107l68,32.4615Q151,175.7308,144,212l-3-1L84,144l-3-7q.5-4,1-8,3.5-10.5,7-21Z" style="fill:url(#radial-gradient-11)"/><path d="M81,137l19.6767,97.5,43.2808-22.4449Z" style="fill:url(#radial-gradient-12)"/><path d="M90,107l-9,30q-3.423-19.3485-6.8461-38.6969Q77.5771,84.6516,81,71Z" style="fill:url(#radial-gradient-13)"/></g><g id="highlights_copy_2" data-name="highlights copy 2" style="opacity:0.5"><path d="M72,0,89,17,73,2l3,30Q74,17,72,2,53.2337,27.1741,53,27,52.7588,26.8236,72,0Z" style="fill:#f2f2f2"/><path d="M80,75,73,97l-40,3,40-1,6,29q-2-15-4-30Q77.5,86.5,80,75Z" style="fill:#f2f2f2"/><path d="M130,126l28,13q-3.5,18-7,36l6-35Z" style="fill:#f2f2f2"/></g></g></svg>