<svg id="scroll" xmlns="http://www.w3.org/2000/svg" xmlns:xlink="http://www.w3.org/1999/xlink" viewBox="0 0 232 400.4615"><defs><radialGradient id="radial-gradient" cx="1.5448" cy="20.2888" r="469.8113" gradientUnits="userSpaceOnUse"><stop offset="0" stop-color="#07d887"/><stop offset="0.6478" stop-color="#35a08e"/><stop offset="1" stop-color="#4a8791"/></radialGradient><radialGradient id="radial-gradient-2" cx="18.7842" cy="77.4455" r="148.9581" gradientTransform="translate(-5.7546 5.6158) rotate(-1.8969)" gradientUnits="userSpaceOnUse"><stop offset="0" stop-color="#ffff40"/><stop offset="0.0381" stop-color="#f6fe44"/><stop offset="0.5148" stop-color="#8ff171"/><stop offset="0.8452" stop-color="#4de88e"/><stop offset="1" stop-color="#34e599"/></radialGradient><radialGradient id="radial-gradient-3" cx="169.022" cy="298.1189" r="203.9856" gradientUnits="userSpaceOnUse"><stop offset="0" stop-color="#00b897"/><stop offset="0.266" stop-color="#25c698"/><stop offset="0.7646" stop-color="#66df9a"/><stop offset="1" stop-color="#7fe99b"/></radialGradient><radialGradient id="radial-gradient-4" cx="262.6439" cy="252.3219" r="300.5038" gradientTransform="translate(-5.7546 5.6158) rotate(-1.8969)" gradientUnits="userSpaceOnUse"><stop offset="0" stop-color="#00b5af"/><stop offset="0.2712" stop-color="#26c4a8"/><stop offset="0.7662" stop-color="#67de9d"/><stop offset="1" stop-color="#80e899"/></radialGradient><radialGradient id="radial-gradient-5" cx="222.6525" cy="390.8019" r="244.2034" gradientTransform="translate(-5.7546 5.6158) rotate(-1.8969)" gradientUnits="userSpaceOnUse"><stop offset="0" stop-color="#00b5be"/><stop offset="0.0194" stop-color="#02b5bd"/><stop offset="0.6858" stop-color="#43bb95"/><stop offset="1" stop-color="#5cbd85"/></radialGradient><radialGradient id="radial-gradient-6" cx="103.7038" cy="230.0153" r="156.659" gradientUnits="userSpaceOnUse"><stop offset="0" stop-color="#6ae8c4"/><stop offset="1" stop-color="#6fb57f"/></radialGradient><radialGradient id="radial-gradient-7" cx="174.8967" cy="402.8389" r="162.1278" gradientTransform="translate(-5.7546 5.6158) rotate(-1.8969)" gradientUnits="userSpaceOnUse"><stop offset="0" stop-color="#168492"/><stop offset="0.6627" stop-color="#52bb9e"/><stop offset="1" stop-color="#6bd2a3"/></radialGradient><radialGradient id="radial-gradient-8" cx="114.804" cy="292.8718" r="104.3515" gradientUnits="userSpaceOnUse"><stop offset="0" stop-color="#53af90"/><stop offset="0.3035" stop-color="#53b194"/><stop offset="0.6111" stop-color="#52b5a0"/><stop offset="0.9196" stop-color="#50bdb4"/><stop offset="1" stop-color="#50bfbb"/></radialGradient><radialGradient id="radial-gradient-9" cx="312.2498" cy="257.1963" r="205.2926" gradientUnits="userSpaceOnUse"><stop offset="0" stop-color="#00a07f"/><stop offset="0.2554" stop-color="#23b28e"/><stop offset="0.7612" stop-color="#64d4a9"/><stop offset="1" stop-color="#7de1b4"/></radialGradient><radialGradient id="radial-gradient-10" cx="174.033" cy="316.4725" r="373.2329" gradientUnits="userSpaceOnUse"><stop offset="0" stop-color="#6ae8ba"/><stop offset="1" stop-color="#6fb57f"/></radialGradient><radialGradient id="radial-gradient-11" cx="66.7245" cy="10.3162" r="82.0429" gradientTransform="translate(-5.7546 5.6158) rotate(-1.8969)" gradientUnits="userSpaceOnUse"><stop offset="0" stop-color="#00b5bb"/><stop offset="0.5826" stop-color="#2ad7b1"/><stop offset="1" stop-color="#43ebab"/></radialGradient></defs><g id="left"><g id="inner"><path d="M115,0l58,79q16,36.7308,32,73.4615,3.5,19.5,7,39,.5,27,1,54,9.5,36,19,72Q231,334.7309,230,352l-24,48.4615-106-28q-37-43-74-86l32-54Z" style="fill:url(#radial-gradient)"/></g><g id="_Layer_" data-name="&lt;Layer&gt;"><path d="M121,17q.5,10.5,1,21,8.5,40,17,80l32-30q1-4.5,2-9Z" style="fill:url(#radial-gradient-2)"/><path d="M173,79q11,38.2308,22,76.4615,2.5,15,5,30Q198,208.2308,196,231l-3-2-39-52-14.2986-61.764Z" style="fill:url(#radial-gradient-3)"/><path d="M156,180q-8.244,22.3005-17,45-11.3989,29.537-23,58L7,243l-7-4L121,17Q138.5,98.5,156,180Z" style="fill:url(#radial-gradient-4)"/><path d="M26.132,286.3245,0,239l115.5,41.8634L116,286l-9,64-1,2Z" style="fill:url(#radial-gradient-5)"/><path d="M144.6034,268.3932,161,240l48,66Z" style="fill:url(#radial-gradient-6)"/><path d="M115,281l-9,71,16-6,81-35,6-5-61-38Z" style="fill:url(#radial-gradient-7)"/><path d="M209,306,106,352l83,11.4615,16-23Q207,323.2309,209,306Z" style="fill:url(#radial-gradient-8)"/><path d="M160,240l-6-58q.5-3,1-6l41,55q6.5,37.5,13,75Z" style="fill:url(#radial-gradient-9)"/><path d="M155,176q-9.33,25.1091-18.7693,50.1821Q125.9278,253.5505,115.5,280.8634L147,268l14.2166-26.6715Z" style="fill:url(#radial-gradient-10)"/><path d="M79,94l42-77L115,0Z" style="fill:url(#radial-gradient-11)"/></g><g id="highlights_copy_3" data-name="highlights copy 3" style="opacity:0.5"><path d="M156,176l3,42q-2-20-4-40l-13,33,12-35q-9.4764-46.8942-9-47Q145.4794,128.898,156,176Z" style="fill:#f2f2f2"/><path d="M116,279l-32-9,30,12q-1,12.5-2,25,2.5-12.5,5-25l31-13,9-19-10,18Z" style="fill:#f2f2f2"/><path d="M22,199,4,238l57,23L4,242l19,39L0,239Z" style="fill:#f2f2f2"/></g></g></svg>