<svg id="scroll" xmlns="http://www.w3.org/2000/svg" xmlns:xlink="http://www.w3.org/1999/xlink" viewBox="0 0 134.5292 210.9294"><defs><radialGradient id="radial-gradient" cx="-11.8823" cy="46.3833" r="240.2445" gradientTransform="translate(-6.4046 -1.6811) rotate(-1.8969)" gradientUnits="userSpaceOnUse"><stop offset="0" stop-color="#00ceaf"/><stop offset="0.2554" stop-color="#23afad"/><stop offset="0.7612" stop-color="#6476a9"/><stop offset="1" stop-color="#7d5fa7"/></radialGradient><radialGradient id="radial-gradient-2" cx="34.3111" cy="73.5231" r="130.5917" gradientTransform="translate(-6.4046 -1.6811) rotate(-1.8969)" gradientUnits="userSpaceOnUse"><stop offset="0" stop-color="#00c4ba"/><stop offset="0.1848" stop-color="#17c9b7"/><stop offset="0.7386" stop-color="#58d9ad"/><stop offset="1" stop-color="#71dfa9"/></radialGradient><radialGradient id="radial-gradient-3" cx="114.7325" cy="128.0769" r="137.0637" gradientUnits="userSpaceOnUse"><stop offset="0" stop-color="#04c0c1"/><stop offset="0.5589" stop-color="#2ad4b4"/><stop offset="1" stop-color="#43e2ab"/></radialGradient><radialGradient id="radial-gradient-4" cx="121.2894" cy="109.2163" r="185.2287" gradientTransform="translate(-6.4046 -1.6811) rotate(-1.8969)" gradientUnits="userSpaceOnUse"><stop offset="0" stop-color="#00c1be"/><stop offset="0.5826" stop-color="#2ad9a8"/><stop offset="1" stop-color="#43e89a"/></radialGradient><radialGradient id="radial-gradient-5" cx="52.1762" cy="111.1712" r="114.2336" gradientUnits="userSpaceOnUse"><stop offset="0" stop-color="#6cd3b5"/><stop offset="0.2731" stop-color="#68d4b6"/><stop offset="0.5499" stop-color="#5cd5b7"/><stop offset="0.8274" stop-color="#48d8ba"/><stop offset="1" stop-color="#37dabc"/></radialGradient><radialGradient id="radial-gradient-6" cx="90.3369" cy="110.4117" r="96.5019" gradientUnits="userSpaceOnUse"><stop offset="0" stop-color="#76eaa9"/><stop offset="1" stop-color="#6760ff"/></radialGradient><radialGradient id="radial-gradient-7" cx="98.766" cy="30.1172" r="169.9937" gradientTransform="translate(-6.4046 -1.6811) rotate(-1.8969)" gradientUnits="userSpaceOnUse"><stop offset="0" stop-color="#4dc6bd"/><stop offset="0.2204" stop-color="#51c3be"/><stop offset="0.4438" stop-color="#5dbabf"/><stop offset="0.6687" stop-color="#72aac2"/><stop offset="0.8932" stop-color="#8e94c7"/><stop offset="1" stop-color="#9e88c9"/></radialGradient></defs><g id="right"><path d="M35.2929,0q-3.2905,10.656-6.581,21.3121L22.6425,49.5285,18.9693,89.6721,0,151.3338l58.5971,17.07,36.94,27.7925,38.5088,14.7334q-10.1172-48.6918-20.2345-97.3836Z" style="fill:url(#radial-gradient)"/><g id="_Layer_" data-name="&lt;Layer&gt;"><path d="M52.2929,55q-7,36.2307-14,72.4615l5,.5385,65-12,6-2c-2.3164-2.3345-4.5875-4.7323-7-7l-50-47Z" style="fill:url(#radial-gradient-2)"/><path d="M52.2929,35l.1148,22.0473L114.2929,114Z" style="fill:url(#radial-gradient-3)"/><path d="M35.2929,0l18,40,61,74Z" style="fill:url(#radial-gradient-4)"/><path d="M114.2929,114l-3,4-33,25-3,1-37-16.5385Z" style="fill:url(#radial-gradient-5)"/><path d="M114.2929,114l-39,30,35,29q1-4.5,2-9,1-22,2-44Z" style="fill:url(#radial-gradient-6)"/><path d="M114.2929,114q-2,29.5-4,59l24.2363,37.4131Q124.4111,162.2066,114.2929,114Z" style="fill:url(#radial-gradient-7)"/></g><g id="highlights" style="opacity:0.5"><path d="M114.2929,114q12.1554,57.9726,12,58-.15.0319-12-55-1,14.5-2,29,.5-15.5,1-31l-25,19,24-20-14-15,12.0964,11.34Q112.3411,112.17,114.2929,114Z" style="fill:#f2f2f2"/></g></g></svg>