<svg id="scroll" xmlns="http://www.w3.org/2000/svg" xmlns:xlink="http://www.w3.org/1999/xlink" viewBox="0 0 80 178"><defs><radialGradient id="radial-gradient" cx="-128.0733" cy="-24.1795" r="236.161" gradientUnits="userSpaceOnUse"><stop offset="0" stop-color="#32bf94"/><stop offset="0.1848" stop-color="#45a894"/><stop offset="0.7386" stop-color="#796792"/><stop offset="1" stop-color="#8e4e92"/></radialGradient><radialGradient id="radial-gradient-2" cx="-72.8772" cy="22.1365" r="164.9407" gradientUnits="userSpaceOnUse"><stop offset="0" stop-color="#617eaa"/><stop offset="0.2609" stop-color="#657dae"/><stop offset="0.5254" stop-color="#7078ba"/><stop offset="0.7905" stop-color="#8271ce"/><stop offset="1" stop-color="#9669e4"/></radialGradient><radialGradient id="radial-gradient-3" cx="105.749" cy="74.3322" r="90.1779" gradientTransform="translate(6.9023 0.9364) rotate(-1.9344)" gradientUnits="userSpaceOnUse"><stop offset="0" stop-color="#8756aa"/><stop offset="0.2373" stop-color="#8557ae"/><stop offset="0.4778" stop-color="#7f5cba"/><stop offset="0.7198" stop-color="#7563cf"/><stop offset="0.9615" stop-color="#686ceb"/><stop offset="1" stop-color="#656ef0"/></radialGradient><radialGradient id="radial-gradient-4" cx="-19.6333" cy="110.5515" r="127.138" gradientTransform="translate(6.9481 0.9034) rotate(-1.8969)" gradientUnits="userSpaceOnUse"><stop offset="0" stop-color="#6b78d4"/><stop offset="0.2757" stop-color="#6e74d3"/><stop offset="0.5552" stop-color="#7668d1"/><stop offset="0.8354" stop-color="#8354cc"/><stop offset="1" stop-color="#8d44c9"/></radialGradient><radialGradient id="radial-gradient-5" cx="-130.123" cy="131.6841" r="226.4123" gradientTransform="translate(6.9481 0.9034) rotate(-1.8969)" gradientUnits="userSpaceOnUse"><stop offset="0" stop-color="#787dd4"/><stop offset="0.3109" stop-color="#7c7dd3"/><stop offset="0.6259" stop-color="#887dd0"/><stop offset="0.942" stop-color="#9c7eca"/><stop offset="1" stop-color="#a17ec9"/></radialGradient></defs><g id="bottom"><path d="M42,0Q24.5,44,7,88q-3.5,20.5-7,41l10,34,31,10,39-46L65,96Q53.5,48,42,0Z" style="fill:url(#radial-gradient)"/><g id="_Layer_" data-name="&lt;Layer&gt;"><path d="M17,96.4615Q13.5,129.7308,10,163l3-2,32-55q-1-34.5-2-69-.5-7.2693-1-14.5385Q29.5,59.4616,17,96.4615Z" style="fill:url(#radial-gradient-2)"/><path d="M42,23.4615Q42.5,64.2308,43,105l3,3,29,17,5,2L55,102Q48.5,62.7307,42,23.4615Z" style="fill:url(#radial-gradient-3)"/><path d="M42,178l38-51L43,105q-.5,1.5-1,3-.5,34-1,68Z" style="fill:url(#radial-gradient-4)"/><path d="M43,105,10,163l32,15Q42.5,141.5,43,105Z" style="fill:url(#radial-gradient-5)"/></g><g id="highlights" style="opacity:0.5"><path d="M43,174l34-43L42,178,14,165l27,10q.5-12.5,1-25Q42.5,162,43,174Z" style="fill:#f2f2f2"/><path d="M42,78v27L30,128l13-23Q42.5,91.5,42,78Z" style="fill:#f2f2f2"/></g></g></svg>