<svg xmlns="http://www.w3.org/2000/svg" xmlns:xlink="http://www.w3.org/1999/xlink" viewBox="0 0 300 321.5"><defs><radialGradient id="radial-gradient" cx="-124.1441" cy="4.3407" r="467.5275" gradientTransform="translate(4.8098 5.5) scale(0.9679 0.9657)" gradientUnits="userSpaceOnUse"><stop offset="0" stop-color="#55bdc5"/><stop offset="0.1653" stop-color="#58b8c3"/><stop offset="0.3705" stop-color="#5fa8bd"/><stop offset="0.5966" stop-color="#6b8fb3"/><stop offset="0.8362" stop-color="#7c6ca6"/><stop offset="1" stop-color="#8a509b"/></radialGradient><radialGradient id="radial-gradient-2" cx="134.6303" cy="39.3626" r="159.4441" gradientTransform="matrix(1, 0, 0, 1, 0, 0)" xlink:href="#radial-gradient"/><radialGradient id="radial-gradient-3" cx="169.6374" cy="90.4505" r="141.3233" gradientTransform="matrix(1, 0, 0, 1, 0, 0)" xlink:href="#radial-gradient"/><radialGradient id="radial-gradient-4" cx="85.5312" cy="44.5338" r="135.8014" gradientTransform="matrix(1, 0, 0, 1, 0, 0)" xlink:href="#radial-gradient"/><radialGradient id="radial-gradient-5" cx="-0.7253" cy="34.0997" r="150.0409" gradientTransform="matrix(1, 0, 0, 1, 0, 0)" xlink:href="#radial-gradient"/><radialGradient id="radial-gradient-6" cx="86.8242" cy="44.5604" r="110.8524" gradientTransform="matrix(1, 0, 0, 1, 0, 0)" xlink:href="#radial-gradient"/><radialGradient id="radial-gradient-7" cx="55.1758" cy="70.1429" r="95.8963" gradientTransform="matrix(1, 0, 0, 1, 0, 0)" xlink:href="#radial-gradient"/><radialGradient id="radial-gradient-8" cx="-23.0934" cy="169.9069" r="190.8256" gradientUnits="userSpaceOnUse"><stop offset="0" stop-color="#a3adbd"/><stop offset="0.2444" stop-color="#a3aac1"/><stop offset="0.4922" stop-color="#a3a2cd"/><stop offset="0.7415" stop-color="#a294e2"/><stop offset="0.9906" stop-color="#a280fe"/><stop offset="1" stop-color="#a27fff"/></radialGradient><radialGradient id="radial-gradient-9" cx="75.6097" cy="364.4182" r="223.2486" gradientUnits="userSpaceOnUse"><stop offset="0" stop-color="#5a43c1"/><stop offset="0.2204" stop-color="#5d47c3"/><stop offset="0.4438" stop-color="#6653c7"/><stop offset="0.6687" stop-color="#7668cf"/><stop offset="0.8932" stop-color="#8b84da"/><stop offset="1" stop-color="#9794e0"/></radialGradient><radialGradient id="radial-gradient-10" cx="115.0649" cy="-6.2118" r="192.963" gradientUnits="userSpaceOnUse"><stop offset="0" stop-color="#7f85aa"/><stop offset="0.2373" stop-color="#8085ae"/><stop offset="0.4778" stop-color="#8284ba"/><stop offset="0.7198" stop-color="#8682cf"/><stop offset="0.9615" stop-color="#8b7feb"/><stop offset="1" stop-color="#8c7ff0"/></radialGradient><radialGradient id="radial-gradient-11" cx="246.63" cy="267.3594" r="353.9698" gradientUnits="userSpaceOnUse"><stop offset="0" stop-color="#7b53c4"/><stop offset="0.2463" stop-color="#7d57c6"/><stop offset="0.496" stop-color="#8363cb"/><stop offset="0.7473" stop-color="#8e78d4"/><stop offset="0.9983" stop-color="#9c94e0"/><stop offset="1" stop-color="#9c94e0"/></radialGradient><radialGradient id="radial-gradient-12" cx="268.0738" cy="227.6384" r="172.5504" gradientUnits="userSpaceOnUse"><stop offset="0" stop-color="#6c49c1"/><stop offset="0.2292" stop-color="#6f4dc3"/><stop offset="0.4615" stop-color="#7659c8"/><stop offset="0.6952" stop-color="#836ed0"/><stop offset="0.9286" stop-color="#958adc"/><stop offset="1" stop-color="#9c94e0"/></radialGradient><radialGradient id="radial-gradient-13" cx="-193.8687" cy="121.9871" r="261.8274" gradientUnits="userSpaceOnUse"><stop offset="0" stop-color="#4dc6bd"/><stop offset="0.2204" stop-color="#51c4be"/><stop offset="0.4438" stop-color="#5dbfbf"/><stop offset="0.6687" stop-color="#72b6c2"/><stop offset="0.8932" stop-color="#8eaac7"/><stop offset="1" stop-color="#9ea3c9"/></radialGradient><radialGradient id="radial-gradient-14" cx="175.2484" cy="267.4176" r="180.1517" gradientUnits="userSpaceOnUse"><stop offset="0" stop-color="#787dd4"/><stop offset="0.2784" stop-color="#7b81d3"/><stop offset="0.5606" stop-color="#858dd1"/><stop offset="0.8437" stop-color="#95a1cc"/><stop offset="1" stop-color="#a1b0c9"/></radialGradient><radialGradient id="radial-gradient-15" cx="177.6064" cy="319.6476" r="111.6542" gradientUnits="userSpaceOnUse"><stop offset="0" stop-color="#5a49c1"/><stop offset="0.2292" stop-color="#5e4dc3"/><stop offset="0.4615" stop-color="#6859c8"/><stop offset="0.6952" stop-color="#7a6ed0"/><stop offset="0.9286" stop-color="#938adc"/><stop offset="1" stop-color="#9c94e0"/></radialGradient><radialGradient id="radial-gradient-16" cx="-142.723" cy="34.3903" r="376.8674" gradientUnits="userSpaceOnUse"><stop offset="0" stop-color="#55bdc5"/><stop offset="0.1897" stop-color="#57b9c3"/><stop offset="0.382" stop-color="#5dadbf"/><stop offset="0.5756" stop-color="#6798b7"/><stop offset="0.7701" stop-color="#757cac"/><stop offset="0.9636" stop-color="#86589e"/><stop offset="1" stop-color="#8a509b"/></radialGradient></defs><g id="hero"><g id="lower-2" data-name="lower"><g id="bg"><path d="M78.5631,34.472,5,84.69,32.1022,193.8178q28.5369,34.5978,58.0761,69.5327,22.3061,26.3741,44.525,52.1495,39.6853-43.458,79.3706-86.9159,15.0031-34.2836,30.006-68.567L295,14.3145,190.8435,5.5Z" style="fill:url(#radial-gradient)"/></g><g id="shapes_shard_01"><path d="M193,0q.5,10,1,20,7,35.5,14,71l6,17,78-87,8-12Z" style="fill:url(#radial-gradient-2)"/><path d="M76,29l5,8,52,53L190,7l3-7Z" style="fill:url(#radial-gradient-3)"/><path d="M193,0,133,88l81,20Z" style="fill:url(#radial-gradient-4)"/><path d="M76,29,0,83l97,61q-.5-11-1-22L78,34Z" style="fill:url(#radial-gradient-5)"/><path d="M133,88l81,20L97,144l3-8,24-39Z" style="fill:url(#radial-gradient-6)"/><path d="M76,29l57,59L97,144q-7-21-14-42Q79.5,65.5,76,29Z" style="fill:url(#radial-gradient-7)"/><path d="M30,195H28L133.5,321.5l.5-9.5-9-81Z" style="fill:url(#radial-gradient-8)"/><path d="M98.5,142.5,98,147l22,82,4,5,88-2,4-1q1-3.5,2-7,5-28,10-56L106,143Z" style="fill:url(#radial-gradient-9)"/><path d="M213,106l2,4q5.5,29,11,58l-.5,2.5L98.5146,142.5807Z" style="fill:url(#radial-gradient-10)"/><path d="M247,160h-1l-18,8-2.5,2.5q-4.75,30.25-9.5,60.5Q231.5,195.5,247,160Z" style="fill:url(#radial-gradient-11)"/><path d="M213,106q6.25,32.25,12.5,64.5L247,160Q273.5,84.5,300,9Z" style="fill:url(#radial-gradient-12)"/><path d="M0,83l98.5,59.5L91,151,33,193l-5,2Z" style="fill:url(#radial-gradient-13)"/><path d="M122.5,232.5,28,195l70.5-52.5Z" style="fill:url(#radial-gradient-14)"/><path d="M122.5,232.5q5.5,44.5,11,89L216,231Z" style="fill:url(#radial-gradient-15)"/><path d="M0,83l98.5,59.5L213,106,300,9,193,0,76,29Z" style="opacity:0.88;fill:url(#radial-gradient-16)"/></g><g id="highlights-5" data-name="highlights" style="opacity:0.5"><path d="M224,169q-4-23-8-46l10,46,17-7-17,9-6,37q2-18.5,4-37l-44-10Z" style="fill:#f2f2f2"/><path d="M17,152l12,41,45-32L31,195l47,20L31,197q29.313,35.7359,29,36-.3233.27-32-37Q22.5,174,17,152Z" style="fill:#f2f2f2"/></g></g></g></svg>