<svg id="hero" xmlns="http://www.w3.org/2000/svg" xmlns:xlink="http://www.w3.org/1999/xlink" viewBox="0 0 479.5 993"><defs><radialGradient id="radial-gradient" cx="-17.6441" cy="675.8407" r="467.5276" gradientTransform="translate(8.2247 28.5109) scale(0.9679 0.9657)" gradientUnits="userSpaceOnUse"><stop offset="0" stop-color="#55bdc5"/><stop offset="0.1653" stop-color="#58b8c3"/><stop offset="0.3705" stop-color="#5fa8bd"/><stop offset="0.5966" stop-color="#6b8fb3"/><stop offset="0.8362" stop-color="#7c6ca6"/><stop offset="1" stop-color="#8a509b"/></radialGradient><radialGradient id="radial-gradient-2" cx="241.1303" cy="710.8626" r="159.4441" gradientTransform="matrix(1, 0, 0, 1, 0, 0)" xlink:href="#radial-gradient"/><radialGradient id="radial-gradient-3" cx="276.1374" cy="761.9505" r="141.3233" gradientTransform="matrix(1, 0, 0, 1, 0, 0)" xlink:href="#radial-gradient"/><radialGradient id="radial-gradient-4" cx="192.0312" cy="716.0338" r="135.8014" gradientTransform="matrix(1, 0, 0, 1, 0, 0)" xlink:href="#radial-gradient"/><radialGradient id="radial-gradient-5" cx="105.7747" cy="705.5997" r="150.0409" gradientTransform="matrix(1, 0, 0, 1, 0, 0)" xlink:href="#radial-gradient"/><radialGradient id="radial-gradient-6" cx="193.3242" cy="716.0604" r="110.8524" gradientTransform="matrix(1, 0, 0, 1, 0, 0)" xlink:href="#radial-gradient"/><radialGradient id="radial-gradient-7" cx="161.6758" cy="741.6429" r="95.8963" gradientTransform="matrix(1, 0, 0, 1, 0, 0)" xlink:href="#radial-gradient"/><radialGradient id="radial-gradient-8" cx="83.4066" cy="841.4069" r="190.8256" gradientUnits="userSpaceOnUse"><stop offset="0" stop-color="#a3adbd"/><stop offset="0.2444" stop-color="#a3aac1"/><stop offset="0.4922" stop-color="#a3a2cd"/><stop offset="0.7415" stop-color="#a294e2"/><stop offset="0.9906" stop-color="#a280fe"/><stop offset="1" stop-color="#a27fff"/></radialGradient><radialGradient id="radial-gradient-9" cx="182.1097" cy="1035.9182" r="223.2486" gradientUnits="userSpaceOnUse"><stop offset="0" stop-color="#5a43c1"/><stop offset="0.2204" stop-color="#5d47c3"/><stop offset="0.4438" stop-color="#6653c7"/><stop offset="0.6687" stop-color="#7668cf"/><stop offset="0.8932" stop-color="#8b84da"/><stop offset="1" stop-color="#9794e0"/></radialGradient><radialGradient id="radial-gradient-10" cx="221.5649" cy="665.2882" r="192.963" gradientUnits="userSpaceOnUse"><stop offset="0" stop-color="#7f85aa"/><stop offset="0.2373" stop-color="#8085ae"/><stop offset="0.4778" stop-color="#8284ba"/><stop offset="0.7198" stop-color="#8682cf"/><stop offset="0.9615" stop-color="#8b7feb"/><stop offset="1" stop-color="#8c7ff0"/></radialGradient><radialGradient id="radial-gradient-11" cx="353.13" cy="938.8594" r="353.9698" gradientUnits="userSpaceOnUse"><stop offset="0" stop-color="#7b53c4"/><stop offset="0.2463" stop-color="#7d57c6"/><stop offset="0.496" stop-color="#8363cb"/><stop offset="0.7473" stop-color="#8e78d4"/><stop offset="0.9983" stop-color="#9c94e0"/><stop offset="1" stop-color="#9c94e0"/></radialGradient><radialGradient id="radial-gradient-12" cx="374.5738" cy="899.1384" r="172.5504" gradientUnits="userSpaceOnUse"><stop offset="0" stop-color="#6c49c1"/><stop offset="0.2292" stop-color="#6f4dc3"/><stop offset="0.4615" stop-color="#7659c8"/><stop offset="0.6952" stop-color="#836ed0"/><stop offset="0.9286" stop-color="#958adc"/><stop offset="1" stop-color="#9c94e0"/></radialGradient><radialGradient id="radial-gradient-13" cx="-87.3687" cy="793.4871" r="261.8274" gradientUnits="userSpaceOnUse"><stop offset="0" stop-color="#4dc6bd"/><stop offset="0.2204" stop-color="#51c4be"/><stop offset="0.4438" stop-color="#5dbfbf"/><stop offset="0.6687" stop-color="#72b6c2"/><stop offset="0.8932" stop-color="#8eaac7"/><stop offset="1" stop-color="#9ea3c9"/></radialGradient><radialGradient id="radial-gradient-14" cx="281.7484" cy="938.9176" r="180.1517" gradientUnits="userSpaceOnUse"><stop offset="0" stop-color="#787dd4"/><stop offset="0.2784" stop-color="#7b81d3"/><stop offset="0.5606" stop-color="#858dd1"/><stop offset="0.8437" stop-color="#95a1cc"/><stop offset="1" stop-color="#a1b0c9"/></radialGradient><radialGradient id="radial-gradient-15" cx="284.1064" cy="991.1476" r="111.6542" gradientUnits="userSpaceOnUse"><stop offset="0" stop-color="#5a49c1"/><stop offset="0.2292" stop-color="#5e4dc3"/><stop offset="0.4615" stop-color="#6859c8"/><stop offset="0.6952" stop-color="#7a6ed0"/><stop offset="0.9286" stop-color="#938adc"/><stop offset="1" stop-color="#9c94e0"/></radialGradient><radialGradient id="radial-gradient-16" cx="-36.223" cy="705.8903" r="376.8674" gradientUnits="userSpaceOnUse"><stop offset="0" stop-color="#55bdc5"/><stop offset="0.1897" stop-color="#57b9c3"/><stop offset="0.382" stop-color="#5dadbf"/><stop offset="0.5756" stop-color="#6798b7"/><stop offset="0.7701" stop-color="#757cac"/><stop offset="0.9636" stop-color="#86589e"/><stop offset="1" stop-color="#8a509b"/></radialGradient><linearGradient id="linear-gradient" x1="100.6728" y1="307.1782" x2="383.9886" y2="568.4326" gradientUnits="userSpaceOnUse"><stop offset="0" stop-color="#33dc8a"/><stop offset="0.5" stop-color="#53bcc1"/><stop offset="0.7026" stop-color="#67aed1"/><stop offset="1" stop-color="#809be5"/></linearGradient><radialGradient id="radial-gradient-17" cx="226.3335" cy="529.3289" r="257.7297" gradientUnits="userSpaceOnUse"><stop offset="0" stop-color="#00b5be"/><stop offset="0.5826" stop-color="#2ad5ba"/><stop offset="1" stop-color="#43e8b8"/></radialGradient><radialGradient id="radial-gradient-18" cx="153.8334" cy="385.2977" r="255.0836" gradientUnits="userSpaceOnUse"><stop offset="0" stop-color="#00b5be"/><stop offset="0.5826" stop-color="#2ad5a8"/><stop offset="1" stop-color="#43e89a"/></radialGradient><radialGradient id="radial-gradient-19" cx="192.8642" cy="-33.0583" r="230.4185" gradientUnits="userSpaceOnUse"><stop offset="0" stop-color="#ffff40"/><stop offset="0.4925" stop-color="#99f76c"/><stop offset="0.8381" stop-color="#57f188"/><stop offset="1" stop-color="#3eef93"/></radialGradient><radialGradient id="radial-gradient-20" cx="274.9066" cy="6.0824" r="83.0279" gradientUnits="userSpaceOnUse"><stop offset="0" stop-color="#64f968"/><stop offset="0.1919" stop-color="#6af66f"/><stop offset="1" stop-color="#7fe988"/></radialGradient><radialGradient id="radial-gradient-21" cx="35.1158" cy="17.775" r="296.3492" xlink:href="#radial-gradient-19"/><radialGradient id="radial-gradient-22" cx="392.0495" cy="248.456" r="201.4978" gradientUnits="userSpaceOnUse"><stop offset="0" stop-color="#00b5ce"/><stop offset="0.6662" stop-color="#3dd9a9"/><stop offset="1" stop-color="#56e899"/></radialGradient><radialGradient id="radial-gradient-23" cx="143.6126" cy="525.4066" r="217.1362" gradientUnits="userSpaceOnUse"><stop offset="0" stop-color="#00b5af"/><stop offset="0.5826" stop-color="#2ad5a1"/><stop offset="1" stop-color="#43e899"/></radialGradient><radialGradient id="radial-gradient-24" cx="183.7035" cy="548.5021" r="230.9947" xlink:href="#radial-gradient-23"/><radialGradient id="radial-gradient-25" cx="-45.311" cy="268.0303" r="265.4065" gradientUnits="userSpaceOnUse"><stop offset="0" stop-color="#fcee21"/><stop offset="0.4677" stop-color="#a0f576"/><stop offset="0.8301" stop-color="#5ef9b3"/><stop offset="1" stop-color="#45fbca"/></radialGradient><radialGradient id="radial-gradient-26" cx="-69.5609" cy="140.8946" r="304.2782" xlink:href="#radial-gradient-25"/><radialGradient id="radial-gradient-27" cx="243.1699" cy="362.4559" r="141.6898" gradientUnits="userSpaceOnUse"><stop offset="0" stop-color="#00b56c"/><stop offset="0.5826" stop-color="#2ad584"/><stop offset="1" stop-color="#43e893"/></radialGradient><radialGradient id="radial-gradient-28" cx="355.522" cy="270.3462" r="197.7039" xlink:href="#radial-gradient-18"/><radialGradient id="radial-gradient-29" cx="-7.2429" cy="682.0559" r="272.5343" xlink:href="#radial-gradient-23"/><radialGradient id="radial-gradient-30" cx="-33.9901" cy="567.5495" r="199.4696" gradientUnits="userSpaceOnUse"><stop offset="0" stop-color="#ffe47d"/><stop offset="1" stop-color="#6fc2bf"/></radialGradient><radialGradient id="radial-gradient-31" cx="308.1374" cy="159.5769" r="94.6049" gradientUnits="userSpaceOnUse"><stop offset="0" stop-color="#00bdaf"/><stop offset="0.5826" stop-color="#2ad8a1"/><stop offset="1" stop-color="#43e899"/></radialGradient><radialGradient id="radial-gradient-32" cx="447.9062" cy="309.3346" r="261.2796" gradientUnits="userSpaceOnUse"><stop offset="0" stop-color="#00b5be"/><stop offset="0.5826" stop-color="#2ad5b7"/><stop offset="1" stop-color="#43e8b2"/></radialGradient><radialGradient id="radial-gradient-33" cx="301.4625" cy="362.0482" r="171.8521" gradientUnits="userSpaceOnUse"><stop offset="0" stop-color="#4dc6bd"/><stop offset="0.2356" stop-color="#4ec2c1"/><stop offset="0.4744" stop-color="#53b6cc"/><stop offset="0.7146" stop-color="#5aa1df"/><stop offset="0.9547" stop-color="#6485f9"/><stop offset="1" stop-color="#667fff"/></radialGradient><radialGradient id="radial-gradient-34" cx="313.0153" cy="756.2858" r="489.5842" gradientTransform="matrix(0.3629, -0.9318, 0.5417, 0.211, -210.2372, 888.4108)" gradientUnits="userSpaceOnUse"><stop offset="0" stop-color="#4dc6bd"/><stop offset="0.2705" stop-color="#4fc2bf"/><stop offset="0.5446" stop-color="#57b6c3"/><stop offset="0.8196" stop-color="#63a2cb"/><stop offset="1" stop-color="#6d90d2"/></radialGradient><radialGradient id="radial-gradient-35" cx="326.7336" cy="455.1076" r="268.7126" gradientUnits="userSpaceOnUse"><stop offset="0" stop-color="#4dc6bd"/><stop offset="0.2151" stop-color="#51c3c0"/><stop offset="0.4332" stop-color="#5db8ca"/><stop offset="0.6526" stop-color="#72a7d9"/><stop offset="0.8718" stop-color="#8e90ef"/><stop offset="1" stop-color="#a27fff"/></radialGradient><radialGradient id="radial-gradient-36" cx="345.899" cy="392.5495" r="162.6264" gradientUnits="userSpaceOnUse"><stop offset="0" stop-color="#3da6c1"/><stop offset="0.5987" stop-color="#6ac0ae"/><stop offset="1" stop-color="#83cfa3"/></radialGradient><radialGradient id="radial-gradient-37" cx="383.3262" cy="575.2978" r="293.9045" gradientUnits="userSpaceOnUse"><stop offset="0" stop-color="#00b5af"/><stop offset="0.2607" stop-color="#24bea7"/><stop offset="0.7629" stop-color="#65ce99"/><stop offset="1" stop-color="#7ed493"/></radialGradient><radialGradient id="radial-gradient-38" cx="420.7022" cy="293.0107" r="147.9075" gradientTransform="translate(0.4565 -0.3878) rotate(0.0305)" gradientUnits="userSpaceOnUse"><stop offset="0" stop-color="#00b5af"/><stop offset="0.3898" stop-color="#42c0a6"/><stop offset="0.8041" stop-color="#83cb9d"/><stop offset="1" stop-color="#9ccf99"/></radialGradient><radialGradient id="radial-gradient-39" cx="384.7031" cy="415.7366" r="249.5943" gradientUnits="userSpaceOnUse"><stop offset="0" stop-color="#009cd1"/><stop offset="0.4778" stop-color="#60c5b4"/><stop offset="0.8334" stop-color="#a2e0a1"/><stop offset="1" stop-color="#bbeb99"/></radialGradient><radialGradient id="radial-gradient-40" cx="163.578" cy="172.0016" r="173.2893" gradientUnits="userSpaceOnUse"><stop offset="0" stop-color="#00b5be"/><stop offset="0.4002" stop-color="#45cbbb"/><stop offset="0.8075" stop-color="#86e0b9"/><stop offset="1" stop-color="#9fe8b8"/></radialGradient><radialGradient id="radial-gradient-41" cx="-29.3118" cy="661.7907" r="247.6438" xlink:href="#radial-gradient-17"/><radialGradient id="radial-gradient-42" cx="284.9011" cy="889.767" r="195.9687" gradientUnits="userSpaceOnUse"><stop offset="0" stop-color="#6b78d4"/><stop offset="0.2871" stop-color="#6e7cd3"/><stop offset="0.5781" stop-color="#7688d0"/><stop offset="0.8699" stop-color="#859ccc"/><stop offset="1" stop-color="#8da8c9"/></radialGradient><radialGradient id="radial-gradient-43" cx="457.4294" cy="803.0336" r="198.4273" gradientUnits="userSpaceOnUse"><stop offset="0" stop-color="#7149c1"/><stop offset="0.1933" stop-color="#724dc3"/><stop offset="0.3894" stop-color="#7659cb"/><stop offset="0.5866" stop-color="#7c6ed7"/><stop offset="0.7848" stop-color="#858ae7"/><stop offset="0.9819" stop-color="#91aefd"/><stop offset="1" stop-color="#92b2ff"/></radialGradient><radialGradient id="radial-gradient-44" cx="330.7038" cy="640.254" r="176.1707" gradientUnits="userSpaceOnUse"><stop offset="0" stop-color="#b6e473"/><stop offset="1" stop-color="#3fbfc4"/></radialGradient><radialGradient id="radial-gradient-45" cx="268.8634" cy="583.6914" r="45.5138" xlink:href="#radial-gradient-44"/><radialGradient id="radial-gradient-46" cx="165.1572" cy="533.6938" r="286.497" gradientUnits="userSpaceOnUse"><stop offset="0" stop-color="#76eaa9"/><stop offset="1" stop-color="#7388ff"/></radialGradient><radialGradient id="radial-gradient-47" cx="148.7581" cy="589.5922" r="184.2543" xlink:href="#radial-gradient-46"/><radialGradient id="radial-gradient-48" cx="196.0856" cy="653.8335" r="199.0796" gradientUnits="userSpaceOnUse"><stop offset="0" stop-color="#4dc6bd"/><stop offset="0.2444" stop-color="#4fc3c1"/><stop offset="0.4922" stop-color="#53bbcd"/><stop offset="0.7415" stop-color="#5baee2"/><stop offset="0.9906" stop-color="#669cfe"/><stop offset="1" stop-color="#669bff"/></radialGradient><radialGradient id="radial-gradient-49" cx="-10.5138" cy="617.4264" r="317.9666" gradientUnits="userSpaceOnUse"><stop offset="0" stop-color="#4dafd2"/><stop offset="0.2204" stop-color="#51aed2"/><stop offset="0.4438" stop-color="#5dadd0"/><stop offset="0.6687" stop-color="#72aace"/><stop offset="0.8932" stop-color="#8ea5cb"/><stop offset="1" stop-color="#9ea3c9"/></radialGradient><radialGradient id="radial-gradient-50" cx="246.1319" cy="603.9451" r="269.6183" gradientTransform="matrix(1, 0, 0, 1, 0, 0)" xlink:href="#radial-gradient-38"/><radialGradient id="radial-gradient-51" cx="148.0352" cy="563.784" r="199.0771" gradientUnits="userSpaceOnUse"><stop offset="0" stop-color="#78c6bd"/><stop offset="0.2356" stop-color="#77c2c1"/><stop offset="0.4744" stop-color="#74b6cc"/><stop offset="0.7146" stop-color="#6fa1df"/><stop offset="0.9547" stop-color="#6885f9"/><stop offset="1" stop-color="#667fff"/></radialGradient><radialGradient id="radial-gradient-52" cx="61.595" cy="656.7777" r="85.8599" xlink:href="#radial-gradient-13"/><radialGradient id="radial-gradient-53" cx="58.5434" cy="430.2192" r="345.5039" gradientUnits="userSpaceOnUse"><stop offset="0" stop-color="#96e46f"/><stop offset="0.9068" stop-color="#6fbbd8"/></radialGradient><radialGradient id="radial-gradient-54" cx="5.8956" cy="606.6099" r="177.4849" gradientUnits="userSpaceOnUse"><stop offset="0" stop-color="#96e46f"/><stop offset="1" stop-color="#6fbbd8"/></radialGradient><radialGradient id="radial-gradient-55" cx="-24.1372" cy="442.4149" r="177.5713" xlink:href="#radial-gradient-40"/><radialGradient id="radial-gradient-56" cx="170.0881" cy="581.2124" r="102.8368" gradientTransform="matrix(1, 0, 0, 1, 0, 0)" xlink:href="#radial-gradient-38"/><radialGradient id="radial-gradient-57" cx="361.5769" cy="461.0275" r="250.3397" gradientTransform="matrix(1, 0, 0, 1, 0, 0)" xlink:href="#radial-gradient-38"/><radialGradient id="radial-gradient-58" cx="257.5" cy="499.6596" r="262.9409" xlink:href="#radial-gradient-23"/></defs><g id="lower"><g id="bg"><path d="M185.0631,705.972,111.5,756.19l27.1022,109.1278q28.5369,34.5978,58.0761,69.5327Q218.9844,961.2246,241.2033,987q39.6853-43.458,79.3706-86.9159,15.0032-34.2836,30.006-68.567L401.5,685.8145,297.3435,677Z" style="fill:url(#radial-gradient)"/></g><g id="shapes_shard_01"><path d="M299.5,671.5q.5,10,1,20,7,35.5,14,71l6,17,78-87,8-12Z" style="fill:url(#radial-gradient-2)"/><path d="M182.5,700.5l5,8,52,53,57-83,3-7Z" style="fill:url(#radial-gradient-3)"/><path d="M299.5,671.5l-60,88,81,20Z" style="fill:url(#radial-gradient-4)"/><path d="M182.5,700.5l-76,54,97,61q-.5-11-1-22l-18-88Z" style="fill:url(#radial-gradient-5)"/><path d="M239.5,759.5l81,20-117,36,3-8,24-39Z" style="fill:url(#radial-gradient-6)"/><path d="M182.5,700.5l57,59-36,56-14-42Q186,737,182.5,700.5Z" style="fill:url(#radial-gradient-7)"/><path d="M136.5,866.5h-2L240,993l.5-9.5-9-81Z" style="fill:url(#radial-gradient-8)"/><path d="M205,814l-.5,4.5,22,82,4,5,88-2,4-1q1-3.5,2-7,5-28,10-56l-122-25Z" style="fill:url(#radial-gradient-9)"/><path d="M319.5,777.5l2,4q5.5,29,11,58L332,842,205.0146,814.0807Z" style="fill:url(#radial-gradient-10)"/><path d="M353.5,831.5h-1l-18,8L332,842q-4.75,30.25-9.5,60.5Q338,867,353.5,831.5Z" style="fill:url(#radial-gradient-11)"/><path d="M319.5,777.5q6.25,32.25,12.5,64.5l21.5-10.5q26.5-75.5,53-151Z" style="fill:url(#radial-gradient-12)"/><path d="M106.5,754.5,205,814l-7.5,8.5-58,42-5,2Z" style="fill:url(#radial-gradient-13)"/><path d="M229,904l-94.5-37.5L205,814Z" style="fill:url(#radial-gradient-14)"/><path d="M229,904q5.5,44.5,11,89l82.5-90.5Z" style="fill:url(#radial-gradient-15)"/><path d="M106.5,754.5,205,814l114.5-36.5,87-97-107-9-117,29Z" style="opacity:0.88;fill:url(#radial-gradient-16)"/></g><g id="highlights" style="opacity:0.5"><path d="M330.5,840.5q-4-23-8-46l10,46,17-7-17,9-6,37q2-18.5,4-37l-44-10Z" style="fill:#f2f2f2"/><path d="M123.5,823.5l12,41,45-32-43,34,47,20-47-18q29.313,35.7359,29,36-.3232.27-32-37Z" style="fill:#f2f2f2"/></g></g><g id="main"><g id="bg-2" data-name="bg"><path d="M474,551.3479q-28.8227-74.3736-57.6451-148.7473-12.7015-50.8872-25.4029-101.7744Q353.3361,186.8193,315.72,72.8123l-44.9437-29.358q-15.144-17.1255-30.2881-34.251l-42.9895,42.08L110.5428,208.8378Q101.75,234.2814,92.9562,259.725L6,389.8788q10.7473,61.1627,21.4948,122.3251l-8.7933,18.5934q8.3048,33.7617,16.61,67.5234,18.5637,37.1868,37.1273,74.3737l37.1274,75.3522,95.481,57.1567L317.3952,769.07l84.8972-94.2942.384-1.1032Q438.3382,612.51,474,551.3479Z" style="fill:url(#linear-gradient)"/></g><g id="shapes_color"><path d="M0,390l4.5,3.5,72,97-9,93-44-66-1-3Z" style="fill:url(#radial-gradient-17)"/><path d="M271.5,232.5l-52,85-2,2q5.5-43.5,11-87Z" style="fill:url(#radial-gradient-18)"/><path d="M272,35l.5,1.5s-10.2095,48.2632-11,52l-37,45-3-2q-12.5-43-25-86L197,43,241,0Z" style="fill:url(#radial-gradient-19)"/><path d="M318,65l-6.5,4.5-41,16L261,88q5.5-26.5,11-53Z" style="fill:url(#radial-gradient-20)"/><path d="M224,132l1.5,3.5,9,49-1,47-9,6-70,21-46-50L107,205,197,43Z" style="fill:url(#radial-gradient-21)"/><path d="M232.5,185.5l58,22q-2.5-35.5-5-71l-22-46L261,88l-37,44Q228.25,158.75,232.5,185.5Z" style="fill:url(#radial-gradient-22)"/><path d="M0,390l4.5-1.5,61-14,4.5.5,3.5,6.5,3,104q-1,3-2,6Z" style="fill:url(#radial-gradient-23)"/><path d="M70,375l1.5-3.5,60-67,36,89q.5,5,1,10l-2,3-90,84-2,1Z" style="fill:url(#radial-gradient-24)"/><path d="M89.5,255.5l3,1,35,47,3,6L70,375,0,390Z" style="fill:url(#radial-gradient-25)"/><path d="M107,205l48.5,51.5,1,4-23,47-3,2-41-54Z" style="fill:url(#radial-gradient-26)"/><path d="M155.5,256.5l2,5,56,54,5,2q5.75-41.75,11.5-83.5Z" style="fill:url(#radial-gradient-27)"/><path d="M232.5,184.5l56,18-1,4-14,23-4,4L230,234Z" style="fill:url(#radial-gradient-28)"/><path d="M14,533l6.5,3.5,42,38,3,3,11,14,4,7-4,2-38,2L31,602Q22.5,567.5,14,533Z" style="fill:url(#radial-gradient-29)"/><path d="M22.5,514.5l43,63L14,533Q18.25,523.75,22.5,514.5Z" style="fill:url(#radial-gradient-30)"/><path d="M318,65l-1.5,5.5-27,58L284,138,261,88Z" style="fill:url(#radial-gradient-31)"/><path d="M318,65l-34,73,4.5,64.5,6,9,100,86Z" style="fill:url(#radial-gradient-32)"/><path d="M371.5,275.5q.5,4,1,8l39,101L419,402q-12.25-52.25-24.5-104.5Z" style="fill:url(#radial-gradient-33)"/><path d="M371.5,275.5,479,554l-6.5,5.5-117,51-37-60-7-16L310,527q-1.25-67.75-2.5-135.5l59-109Z" style="fill:url(#radial-gradient-34)"/><path d="M356.5,607.5l-2,2q-5.5,21-11,42l58,29h5L479,554Z" style="fill:url(#radial-gradient-35)"/><path d="M308.5,391.5l-6,8-27,82,35,52,1,1Z" style="fill:url(#radial-gradient-36)"/><path d="M217.5,316.5l-49,87q31,63.5,62,127l47-48,31-91-.2528-2.1082L220.5,318.5Z" style="fill:url(#radial-gradient-37)"/><path d="M288.5,202.5l2,10,30,95,3,6h1l44-35,3-3Z" style="fill:url(#radial-gradient-38)"/><path d="M323.5,313.5l-1,1q-6.5,33-13,66-.5,5.5-1,11l63-116Z" style="fill:url(#radial-gradient-39)"/><path d="M288.5,202.5q17.5,55.5,35,111l-7,3-91,2-7-1Z" style="fill:url(#radial-gradient-40)"/><path d="M79,598l2.5,1.5,24,90q1,30,2,60l-1,5Q68.75,678.25,31,602Z" style="fill:url(#radial-gradient-41)"/><path d="M319.5,704.5q.5,35,1,70l-1,4-114,36v-8q8.5-59.5,17-119Z" style="fill:url(#radial-gradient-42)"/><path d="M345,650l61.5,30.5-87,98L318,706l-.5-4.5,22-46Z" style="fill:url(#radial-gradient-43)"/><path d="M278,480l-46.5,48.5-1,3,1,11h1l77-7,2-1Z" style="fill:url(#radial-gradient-44)"/><path d="M211.5,544.5l21-3-1-13-4,2-11,9Z" style="fill:url(#radial-gradient-45)"/><path d="M311.5,534.5l-79,7-1,3q-6.5,41-13,82,1,29,2,58L223,690l95,16,27-56q-1.25-9.25-2.5-18.5l-24-81Z" style="fill:url(#radial-gradient-46)"/><path d="M232.5,541.5l-18,1-1,2q2.5,39,5,78l1,9Q226,586.5,232.5,541.5Z" style="fill:url(#radial-gradient-47)"/><path d="M311.5,534.5Q328.25,592.25,345,650q5.75-21.25,11.5-42.5Z" style="fill:url(#radial-gradient-48)"/><path d="M107.5,748.5q-.5,3-1,6l99,60q8.9168-62.0932,17.8334-124.1864L216.5,689.5l-92,9Z" style="fill:url(#radial-gradient-49)"/><path d="M168.5,403.5l3,12q20.5,62,41,124l2,3,17-14Z" style="fill:url(#radial-gradient-50)"/><path d="M220.5,626.5l3,64L127,700l-.5-2.5,22-58,67-16Z" style="fill:url(#radial-gradient-51)"/><path d="M148.5,643.5l-4,3-36,37L104,690q1.25,32.25,2.5,64.5Z" style="fill:url(#radial-gradient-52)"/><path d="M168.5,403.5l-2,3-44,158,21,72L148,644l72.5-17.5-6-84Z" style="fill:url(#radial-gradient-53)"/><path d="M125,561l-6.5.5-37,31L79,598q12.5,46,25,92l44-46Z" style="fill:url(#radial-gradient-54)"/><path d="M74.5,491.5q.5,2,1,4l47,64L125,561l43.5-157.5Z" style="fill:url(#radial-gradient-55)"/><path d="M74.5,491.5,125,561,79,598,65.5,577.5Z" style="fill:url(#radial-gradient-56)"/><path d="M218.5,317.5l105-4-15,78Z" style="fill:url(#radial-gradient-57)"/><path d="M155.5,256.5l63,61-50,86q-19-47-38-94Z" style="fill:url(#radial-gradient-58)"/></g><g id="highlights-2" data-name="highlights" style="opacity:0.5"><path d="M172.5,251.5q-.2143-.6858,56-19,2-21,4-42-.5,21-1,42l27,1-28,2q-11.5083,79.0634-12,79-.49-.0683,10-79Q172.7164,252.18,172.5,251.5Z" style="fill:#f2f2f2"/><path d="M249.5,316.5l72.3022-4.0118Q311.151,276.4942,300.5,240.5q12.1511,35.9941,24.3022,71.9882L350.5,292.5l-26.6978,22.9882q-8.8136,54.09-9.3022,54.0118-.4878-.075,7.3022-54.0118Z" style="fill:#f2f2f2"/><path d="M328.5,560.5l29,45,42-16-41,18-12,40,9-40Z" style="fill:#f2f2f2"/><path d="M287.5,45.5l30,19,16,45-17-42-25,54,24-55-41,15,41-17Z" style="fill:#f2f2f2"/><path d="M452.5,485.5l24,68-39,19,38-16q-27.5313,49.6952-27,50,.55.3125,31-52Z" style="fill:#f2f2f2"/><path d="M297.5,423.5l-20,56-28,30,28-28q13.7111,20.1891,14,20,.29-.1911-13-21Z" style="fill:#f2f2f2"/><path d="M201.5,347.5l-31,56,14,32-17-33Z" style="fill:#f2f2f2"/><path d="M221.5,657.5q1,15.5,2,31l56,11-58-9Z" style="fill:#f2f2f2"/><path d="M124.5,559.5l9-29q-4,15.5-8,31,5.5,20,11,40l-12-39-25,19,24-20-22-33Z" style="fill:#f2f2f2"/></g></g></svg>