<svg id="hero" xmlns="http://www.w3.org/2000/svg" xmlns:xlink="http://www.w3.org/1999/xlink" viewBox="0 0 78.5 65"><defs><radialGradient id="radial-gradient" cx="-17.3658" cy="72.4954" r="247.6768" gradientUnits="userSpaceOnUse"><stop offset="0" stop-color="#fcee21"/><stop offset="0.4677" stop-color="#a0f576"/><stop offset="0.8301" stop-color="#5ef9b3"/><stop offset="1" stop-color="#45fbca"/></radialGradient><radialGradient id="radial-gradient-2" cx="106.2426" cy="115.7302" r="164.0688" gradientUnits="userSpaceOnUse"><stop offset="0" stop-color="#00b5af"/><stop offset="0.5826" stop-color="#2ad5a1"/><stop offset="1" stop-color="#43e899"/></radialGradient><radialGradient id="radial-gradient-3" cx="46.9319" cy="68.7543" r="97.2248" gradientUnits="userSpaceOnUse"><stop offset="0" stop-color="#00abbe"/><stop offset="0.5826" stop-color="#2ad1a8"/><stop offset="1" stop-color="#43e89a"/></radialGradient><radialGradient id="radial-gradient-4" cx="52.8918" cy="73.956" r="86.4765" gradientUnits="userSpaceOnUse"><stop offset="0" stop-color="#00b5be"/><stop offset="0.5826" stop-color="#2ad5a8"/><stop offset="1" stop-color="#43e89a"/></radialGradient></defs><g id="middle-tiny"><g id="shapes-shard"><path d="M59,0H26L0,46l6-3L58,2Z" style="fill:url(#radial-gradient)"/><path d="M59,0,78.5,30.5,76,32,7,46H0Z" style="fill:url(#radial-gradient-2)"/><path d="M60,65l14.2327-6.3854L71,57,10,47,0,46Z" style="fill:url(#radial-gradient-3)"/><path d="M78.5,30.5,0,46,74.2327,58.6146,74.5,58.5Q76.5,44.5,78.5,30.5Z" style="fill:url(#radial-gradient-4)"/></g><g id="highlights" style="opacity:0.5"><path d="M3,43,27,25,4,44l46-8L0,46,20,11Z" style="fill:#f2f2f2"/></g></g></svg>