<svg id="hero" xmlns="http://www.w3.org/2000/svg" xmlns:xlink="http://www.w3.org/1999/xlink" viewBox="0 0 119.5 204"><defs><radialGradient id="radial-gradient" cx="143.467" cy="206.8597" r="193.2267" gradientUnits="userSpaceOnUse"><stop offset="0" stop-color="#00b5be"/><stop offset="0.5826" stop-color="#2ad5ba"/><stop offset="1" stop-color="#43e8b8"/></radialGradient><radialGradient id="radial-gradient-2" cx="-44.8354" cy="-5.0523" r="240.8936" gradientUnits="userSpaceOnUse"><stop offset="0" stop-color="#fcee21"/><stop offset="0.4677" stop-color="#a0f576"/><stop offset="0.8301" stop-color="#5ef9b3"/><stop offset="1" stop-color="#45fbca"/></radialGradient><radialGradient id="radial-gradient-3" cx="99.4505" cy="224.7547" r="189.5396" gradientUnits="userSpaceOnUse"><stop offset="0" stop-color="#00b5af"/><stop offset="0.5826" stop-color="#2ad5a1"/><stop offset="1" stop-color="#43e899"/></radialGradient><radialGradient id="radial-gradient-4" cx="170.6798" cy="126.353" r="134.4332" gradientUnits="userSpaceOnUse"><stop offset="0" stop-color="#00b5af"/><stop offset="0.3898" stop-color="#42c0a6"/><stop offset="0.8041" stop-color="#83cb9d"/><stop offset="1" stop-color="#9ccf99"/></radialGradient><radialGradient id="radial-gradient-5" cx="86.3232" cy="195.8845" r="146.7358" gradientUnits="userSpaceOnUse"><stop offset="0.0289" stop-color="#00aca8"/><stop offset="0.5946" stop-color="#2ad19f"/><stop offset="1" stop-color="#43e89a"/></radialGradient><radialGradient id="radial-gradient-6" cx="45.1484" cy="159.2363" r="55.8405" gradientUnits="userSpaceOnUse"><stop offset="0" stop-color="#00b5be"/><stop offset="0.5826" stop-color="#2ad5a8"/><stop offset="1" stop-color="#43e89a"/></radialGradient></defs><g id="middle-left"><g id="shapes_shard_02_color"><path d="M0,83l2-1,31,1,20,31-4.5,27.5L38,147l-4,1L14.5,129.5Q7.25,106.25,0,83Z" style="fill:url(#radial-gradient)"/><path d="M116,0l-3,5L35,82l-2.5,1.5L0,83,45,16Z" style="fill:url(#radial-gradient-2)"/><path d="M119.5,118.5l-1.5.5-64-4-2-1L32.5,83.5,116,0Q117.75,59.25,119.5,118.5Z" style="fill:url(#radial-gradient-3)"/><path d="M91.5,116.5,89,118,59,156l-1,4,52,44q4.75-42.75,9.5-85.5Z" style="fill:url(#radial-gradient-4)"/><path d="M58,160l-2-3-8-14v-2q2-13.5,4-27l39.5,2.5Z" style="fill:url(#radial-gradient-5)"/><path d="M34,148l14-7,10,19Z" style="fill:url(#radial-gradient-6)"/></g></g></svg>