<svg xmlns="http://www.w3.org/2000/svg" xmlns:xlink="http://www.w3.org/1999/xlink" viewBox="0 0 371.3574 665"><defs><radialGradient id="radial-gradient" cx="63.1228" cy="509.1365" r="164.9407" gradientUnits="userSpaceOnUse"><stop offset="0" stop-color="#617eaa"/><stop offset="0.2609" stop-color="#657dae"/><stop offset="0.5254" stop-color="#7078ba"/><stop offset="0.7905" stop-color="#8271ce"/><stop offset="1" stop-color="#9669e4"/></radialGradient><radialGradient id="radial-gradient-2" cx="241.749" cy="561.3322" r="90.1779" gradientTransform="translate(-9.4595 5.8035) rotate(-1.9344)" gradientUnits="userSpaceOnUse"><stop offset="0" stop-color="#8756aa"/><stop offset="0.2373" stop-color="#8557ae"/><stop offset="0.4778" stop-color="#7f5cba"/><stop offset="0.7198" stop-color="#7563cf"/><stop offset="0.9615" stop-color="#686ceb"/><stop offset="1" stop-color="#656ef0"/></radialGradient><radialGradient id="radial-gradient-3" cx="116.3667" cy="597.5515" r="127.138" gradientTransform="translate(-9.0977 5.6709) rotate(-1.8969)" gradientUnits="userSpaceOnUse"><stop offset="0" stop-color="#6b78d4"/><stop offset="0.2757" stop-color="#6e74d3"/><stop offset="0.5552" stop-color="#7668d1"/><stop offset="0.8354" stop-color="#8354cc"/><stop offset="1" stop-color="#8d44c9"/></radialGradient><radialGradient id="radial-gradient-4" cx="5.877" cy="618.6841" r="226.4123" gradientTransform="translate(-9.0977 5.6709) rotate(-1.8969)" gradientUnits="userSpaceOnUse"><stop offset="0" stop-color="#787dd4"/><stop offset="0.3109" stop-color="#7c7dd3"/><stop offset="0.6259" stop-color="#887dd0"/><stop offset="0.942" stop-color="#9c7eca"/><stop offset="1" stop-color="#a17ec9"/></radialGradient><radialGradient id="radial-gradient-5" cx="208.8248" cy="131.3833" r="240.2445" gradientTransform="translate(-9.0977 5.6709) rotate(-1.8969)" gradientUnits="userSpaceOnUse"><stop offset="0" stop-color="#00ceaf"/><stop offset="0.2554" stop-color="#23afad"/><stop offset="0.7612" stop-color="#6476a9"/><stop offset="1" stop-color="#7d5fa7"/></radialGradient><radialGradient id="radial-gradient-6" cx="255.0182" cy="158.5231" r="130.5917" gradientTransform="translate(-9.0977 5.6709) rotate(-1.8969)" gradientUnits="userSpaceOnUse"><stop offset="0" stop-color="#00c4ba"/><stop offset="0.1848" stop-color="#17c9b7"/><stop offset="0.7386" stop-color="#58d9ad"/><stop offset="1" stop-color="#71dfa9"/></radialGradient><radialGradient id="radial-gradient-7" cx="335.4396" cy="213.0769" r="137.0637" gradientUnits="userSpaceOnUse"><stop offset="0" stop-color="#04c0c1"/><stop offset="0.5589" stop-color="#2ad4b4"/><stop offset="1" stop-color="#43e2ab"/></radialGradient><radialGradient id="radial-gradient-8" cx="341.9965" cy="194.2163" r="185.2287" gradientTransform="translate(-9.0977 5.6709) rotate(-1.8969)" gradientUnits="userSpaceOnUse"><stop offset="0" stop-color="#00c1be"/><stop offset="0.5826" stop-color="#2ad9a8"/><stop offset="1" stop-color="#43e89a"/></radialGradient><radialGradient id="radial-gradient-9" cx="272.8833" cy="196.1712" r="114.2336" gradientUnits="userSpaceOnUse"><stop offset="0" stop-color="#6cd3b5"/><stop offset="0.2731" stop-color="#68d4b6"/><stop offset="0.5499" stop-color="#5cd5b7"/><stop offset="0.8274" stop-color="#48d8ba"/><stop offset="1" stop-color="#37dabc"/></radialGradient><radialGradient id="radial-gradient-10" cx="311.044" cy="195.4117" r="96.5019" gradientUnits="userSpaceOnUse"><stop offset="0" stop-color="#76eaa9"/><stop offset="1" stop-color="#6760ff"/></radialGradient><radialGradient id="radial-gradient-11" cx="319.473" cy="115.1172" r="169.9937" gradientTransform="translate(-9.0977 5.6709) rotate(-1.8969)" gradientUnits="userSpaceOnUse"><stop offset="0" stop-color="#4dc6bd"/><stop offset="0.2204" stop-color="#51c3be"/><stop offset="0.4438" stop-color="#5dbabf"/><stop offset="0.6687" stop-color="#72aac2"/><stop offset="0.8932" stop-color="#8e94c7"/><stop offset="1" stop-color="#9e88c9"/></radialGradient><radialGradient id="radial-gradient-12" cx="257.183" cy="258.2749" r="220.0352" gradientTransform="translate(-152.6021 512.1124) rotate(-91.8969)" gradientUnits="userSpaceOnUse"><stop offset="0" stop-color="#ffff5e"/><stop offset="0.4925" stop-color="#99f77a"/><stop offset="0.8381" stop-color="#57f18c"/><stop offset="1" stop-color="#3eef93"/></radialGradient><radialGradient id="radial-gradient-13" cx="273.5869" cy="311.2147" r="122.5169" gradientTransform="translate(-152.6021 512.1124) rotate(-91.8969)" gradientUnits="userSpaceOnUse"><stop offset="0" stop-color="#ffff40"/><stop offset="0.4925" stop-color="#99f76c"/><stop offset="0.8381" stop-color="#57f188"/><stop offset="1" stop-color="#3eef93"/></radialGradient><radialGradient id="radial-gradient-14" cx="462.3885" cy="267.9889" r="129.6362" gradientTransform="translate(-152.6021 512.1124) rotate(-91.8969)" gradientUnits="userSpaceOnUse"><stop offset="0" stop-color="#fcee21"/><stop offset="0.4677" stop-color="#a0f576"/><stop offset="0.8301" stop-color="#5ef9b3"/><stop offset="1" stop-color="#45fbca"/></radialGradient><radialGradient id="radial-gradient-15" cx="143.8088" cy="191.0084" r="149.4797" gradientTransform="translate(-9.0977 5.6709) rotate(-1.8969)" gradientUnits="userSpaceOnUse"><stop offset="0" stop-color="#ffee60"/><stop offset="0.4754" stop-color="#a0f596"/><stop offset="0.8326" stop-color="#5ef9bc"/><stop offset="1" stop-color="#45fbca"/></radialGradient><radialGradient id="radial-gradient-16" cx="334.7858" cy="178.302" r="173.0918" gradientTransform="translate(-9.0977 5.6709) rotate(-1.8969)" gradientUnits="userSpaceOnUse"><stop offset="0" stop-color="#00c9f4"/><stop offset="0.4345" stop-color="#50dac4"/><stop offset="0.8196" stop-color="#92e99c"/><stop offset="1" stop-color="#abee8d"/></radialGradient><radialGradient id="radial-gradient-17" cx="115.7178" cy="217.6374" r="153.9388" gradientUnits="userSpaceOnUse"><stop offset="0" stop-color="#c8e0ab"/><stop offset="0.0649" stop-color="#c1e1ab"/><stop offset="0.7003" stop-color="#80eca7"/><stop offset="1" stop-color="#67f0a5"/></radialGradient><radialGradient id="radial-gradient-18" cx="126.2788" cy="42.9654" r="70.5853" gradientTransform="translate(-9.0977 5.6709) rotate(-1.8969)" gradientUnits="userSpaceOnUse"><stop offset="0" stop-color="#64f968"/><stop offset="0.1919" stop-color="#6af66f"/><stop offset="1" stop-color="#7fe988"/></radialGradient><radialGradient id="radial-gradient-19" cx="322.5264" cy="64.5788" r="133.5145" gradientTransform="translate(-9.0977 5.6709) rotate(-1.8969)" gradientUnits="userSpaceOnUse"><stop offset="0" stop-color="#00b5be"/><stop offset="0.5826" stop-color="#2ad5a8"/><stop offset="1" stop-color="#43e89a"/></radialGradient><radialGradient id="radial-gradient-20" cx="343.1655" cy="160.2785" r="174.4837" gradientTransform="translate(-9.0977 5.6709) rotate(-1.8969)" gradientUnits="userSpaceOnUse"><stop offset="0" stop-color="#00b5bb"/><stop offset="0.5826" stop-color="#2ad7b1"/><stop offset="1" stop-color="#43ebab"/></radialGradient><radialGradient id="radial-gradient-21" cx="312.4617" cy="204.2213" r="142.8632" gradientTransform="translate(-9.0977 5.6709) rotate(-1.8969)" gradientUnits="userSpaceOnUse"><stop offset="0" stop-color="#00c4ba"/><stop offset="0.5826" stop-color="#2adaa6"/><stop offset="1" stop-color="#43e89a"/></radialGradient><radialGradient id="radial-gradient-22" cx="339.0773" cy="298.735" r="288.7055" gradientTransform="translate(-9.0977 5.6709) rotate(-1.8969)" gradientUnits="userSpaceOnUse"><stop offset="0" stop-color="#009cd1"/><stop offset="0.4345" stop-color="#50cab7"/><stop offset="0.8196" stop-color="#92efa1"/><stop offset="1" stop-color="#abfd99"/></radialGradient><radialGradient id="radial-gradient-23" cx="229.6051" cy="124.9231" r="79.8852" gradientUnits="userSpaceOnUse"><stop offset="0" stop-color="#34e09f"/><stop offset="0.6478" stop-color="#6cf27c"/><stop offset="1" stop-color="#85fa6c"/></radialGradient><radialGradient id="radial-gradient-24" cx="18.7842" cy="178.4455" r="148.9581" gradientTransform="translate(-9.0977 5.6709) rotate(-1.8969)" gradientUnits="userSpaceOnUse"><stop offset="0" stop-color="#ffff40"/><stop offset="0.0381" stop-color="#f6fe44"/><stop offset="0.5148" stop-color="#8ff171"/><stop offset="0.8452" stop-color="#4de88e"/><stop offset="1" stop-color="#34e599"/></radialGradient><radialGradient id="radial-gradient-25" cx="169.022" cy="399.1189" r="203.9856" gradientUnits="userSpaceOnUse"><stop offset="0" stop-color="#00b897"/><stop offset="0.266" stop-color="#25c698"/><stop offset="0.7646" stop-color="#66df9a"/><stop offset="1" stop-color="#7fe99b"/></radialGradient><radialGradient id="radial-gradient-26" cx="262.6439" cy="353.3219" r="300.5038" gradientTransform="translate(-9.0977 5.6709) rotate(-1.8969)" gradientUnits="userSpaceOnUse"><stop offset="0" stop-color="#00b5af"/><stop offset="0.2712" stop-color="#26c4a8"/><stop offset="0.7662" stop-color="#67de9d"/><stop offset="1" stop-color="#80e899"/></radialGradient><radialGradient id="radial-gradient-27" cx="222.6525" cy="491.8019" r="244.2034" gradientTransform="translate(-9.0977 5.6709) rotate(-1.8969)" gradientUnits="userSpaceOnUse"><stop offset="0" stop-color="#00b5be"/><stop offset="0.0194" stop-color="#02b5bd"/><stop offset="0.6858" stop-color="#43bb95"/><stop offset="1" stop-color="#5cbd85"/></radialGradient><radialGradient id="radial-gradient-28" cx="103.7038" cy="331.0153" r="156.659" gradientUnits="userSpaceOnUse"><stop offset="0" stop-color="#6ae8c4"/><stop offset="1" stop-color="#6fb57f"/></radialGradient><radialGradient id="radial-gradient-29" cx="174.8967" cy="503.8389" r="162.1278" gradientTransform="translate(-9.0977 5.6709) rotate(-1.8969)" gradientUnits="userSpaceOnUse"><stop offset="0" stop-color="#168492"/><stop offset="0.6627" stop-color="#52bb9e"/><stop offset="1" stop-color="#6bd2a3"/></radialGradient><radialGradient id="radial-gradient-30" cx="114.804" cy="393.8718" r="104.3515" gradientUnits="userSpaceOnUse"><stop offset="0" stop-color="#53af90"/><stop offset="0.3035" stop-color="#53b194"/><stop offset="0.6111" stop-color="#52b5a0"/><stop offset="0.9196" stop-color="#50bdb4"/><stop offset="1" stop-color="#50bfbb"/></radialGradient><radialGradient id="radial-gradient-31" cx="312.2498" cy="358.1963" r="205.2926" gradientUnits="userSpaceOnUse"><stop offset="0" stop-color="#00a07f"/><stop offset="0.2554" stop-color="#23b28e"/><stop offset="0.7612" stop-color="#64d4a9"/><stop offset="1" stop-color="#7de1b4"/></radialGradient><radialGradient id="radial-gradient-32" cx="174.033" cy="417.4725" r="373.2329" gradientUnits="userSpaceOnUse"><stop offset="0" stop-color="#6ae8ba"/><stop offset="1" stop-color="#6fb57f"/></radialGradient><radialGradient id="radial-gradient-33" cx="66.7245" cy="111.3162" r="82.0429" xlink:href="#radial-gradient-20"/><radialGradient id="radial-gradient-34" cx="-93.9553" cy="456.345" r="217.7854" gradientTransform="translate(-9.0977 5.6709) rotate(-1.8969)" gradientUnits="userSpaceOnUse"><stop offset="0" stop-color="#b6e473"/><stop offset="1" stop-color="#3fbfc4"/></radialGradient><radialGradient id="radial-gradient-35" cx="68.2393" cy="398.614" r="198.9843" gradientTransform="translate(-9.0977 5.6709) rotate(-1.8969)" gradientUnits="userSpaceOnUse"><stop offset="0" stop-color="#76eaa9"/><stop offset="1" stop-color="#7388ff"/></radialGradient><radialGradient id="radial-gradient-36" cx="55.9968" cy="478.6237" r="137.2539" gradientTransform="translate(-9.0977 5.6709) rotate(-1.8969)" gradientUnits="userSpaceOnUse"><stop offset="0" stop-color="#78c6bd"/><stop offset="0.2356" stop-color="#77c2c1"/><stop offset="0.4744" stop-color="#74b6cc"/><stop offset="0.7146" stop-color="#6fa1df"/><stop offset="0.9547" stop-color="#6885f9"/><stop offset="1" stop-color="#667fff"/></radialGradient><radialGradient id="radial-gradient-37" cx="14.1988" cy="535.4015" r="155.4494" gradientTransform="translate(-9.0977 5.6709) rotate(-1.8969)" gradientUnits="userSpaceOnUse"><stop offset="0" stop-color="#2dc6bd"/><stop offset="0.1933" stop-color="#31c4be"/><stop offset="0.3894" stop-color="#3dbec0"/><stop offset="0.5866" stop-color="#52b3c4"/><stop offset="0.7848" stop-color="#6ea5ca"/><stop offset="0.9819" stop-color="#9292d1"/><stop offset="1" stop-color="#9690d2"/></radialGradient><radialGradient id="radial-gradient-38" cx="192.9153" cy="555.3682" r="170.2448" gradientTransform="translate(-9.0977 5.6709) rotate(-1.8969)" gradientUnits="userSpaceOnUse"><stop offset="0" stop-color="#97aaea"/><stop offset="0.6399" stop-color="#61c7d1"/><stop offset="1" stop-color="#48d5c5"/></radialGradient><radialGradient id="radial-gradient-39" cx="59.1102" cy="534.5639" r="73.7703" gradientTransform="translate(-9.0977 5.6709) rotate(-1.8969)" gradientUnits="userSpaceOnUse"><stop offset="0" stop-color="#4dc6bd"/><stop offset="0.2373" stop-color="#51c4c1"/><stop offset="0.4778" stop-color="#5dbecc"/><stop offset="0.7198" stop-color="#72b4df"/><stop offset="0.9615" stop-color="#8ea7fa"/><stop offset="1" stop-color="#93a4ff"/></radialGradient><radialGradient id="radial-gradient-40" cx="28.7138" cy="558.2771" r="159.9856" gradientTransform="translate(-9.0977 5.6709) rotate(-1.8969)" gradientUnits="userSpaceOnUse"><stop offset="0" stop-color="#4dc6bd"/><stop offset="0.2055" stop-color="#50c2be"/><stop offset="0.4139" stop-color="#5bb6bf"/><stop offset="0.6237" stop-color="#6ca1c2"/><stop offset="0.833" stop-color="#8385c5"/><stop offset="1" stop-color="#9b69c9"/></radialGradient><radialGradient id="radial-gradient-41" cx="43.6213" cy="588.1533" r="116.4421" gradientTransform="translate(-9.0977 5.6709) rotate(-1.8969)" gradientUnits="userSpaceOnUse"><stop offset="0" stop-color="#79c6bd"/><stop offset="0.1838" stop-color="#79c2bd"/><stop offset="0.3702" stop-color="#78b6bf"/><stop offset="0.5578" stop-color="#76a1c1"/><stop offset="0.7463" stop-color="#7485c4"/><stop offset="0.9337" stop-color="#7161c7"/><stop offset="1" stop-color="#7052c9"/></radialGradient><radialGradient id="radial-gradient-42" cx="257.1099" cy="341.3481" r="100.144" gradientUnits="userSpaceOnUse"><stop offset="0" stop-color="#4dcbbb"/><stop offset="0.377" stop-color="#51ccbc"/><stop offset="0.7584" stop-color="#5dcdbf"/><stop offset="1" stop-color="#69cfc2"/></radialGradient><radialGradient id="radial-gradient-43" cx="144.3207" cy="215.4114" r="397.1773" gradientTransform="translate(30.6159 -20.7765) rotate(3.7987)" gradientUnits="userSpaceOnUse"><stop offset="0" stop-color="#76f8a9"/><stop offset="1" stop-color="#704aff"/></radialGradient><radialGradient id="radial-gradient-44" cx="182.9437" cy="312.1452" r="208.6642" gradientTransform="translate(32.2383 -22.2727) rotate(4.1431)" gradientUnits="userSpaceOnUse"><stop offset="0" stop-color="#4eddb6"/><stop offset="1" stop-color="#b443eb"/></radialGradient><radialGradient id="radial-gradient-45" cx="194.3407" cy="196.7253" r="262.2353" gradientUnits="userSpaceOnUse"><stop offset="0" stop-color="#4dd6be"/><stop offset="0.1924" stop-color="#4fd2be"/><stop offset="0.3875" stop-color="#57c6c0"/><stop offset="0.5838" stop-color="#63b1c1"/><stop offset="0.781" stop-color="#7495c4"/><stop offset="0.9772" stop-color="#8971c8"/><stop offset="1" stop-color="#8c6cc8"/></radialGradient><radialGradient id="radial-gradient-46" cx="388.1868" cy="434.3516" r="174.371" gradientUnits="userSpaceOnUse"><stop offset="0" stop-color="#924396"/><stop offset="1" stop-color="#5abdea"/></radialGradient><radialGradient id="radial-gradient-47" cx="377.5587" cy="541.8777" r="205.107" gradientUnits="userSpaceOnUse"><stop offset="0" stop-color="#6b78d4"/><stop offset="0.2841" stop-color="#6e7cd4"/><stop offset="0.572" stop-color="#7688d4"/><stop offset="0.8609" stop-color="#839cd4"/><stop offset="1" stop-color="#8ba9d4"/></radialGradient><radialGradient id="radial-gradient-48" cx="361.6813" cy="462.1758" r="127.4927" gradientUnits="userSpaceOnUse"><stop offset="0" stop-color="#714aac"/><stop offset="0.2931" stop-color="#885cb5"/><stop offset="0.7444" stop-color="#a673c1"/><stop offset="1" stop-color="#b17cc6"/></radialGradient><radialGradient id="radial-gradient-49" cx="411.4264" cy="505.6074" r="156.6053" gradientTransform="translate(32.2383 -22.2727) rotate(4.1431)" gradientUnits="userSpaceOnUse"><stop offset="0" stop-color="#6c49c1"/><stop offset="0.2292" stop-color="#6f4dc3"/><stop offset="0.4615" stop-color="#7659c8"/><stop offset="0.6952" stop-color="#836ed0"/><stop offset="0.9286" stop-color="#958adc"/><stop offset="1" stop-color="#9c94e0"/></radialGradient><radialGradient id="radial-gradient-50" cx="414.4667" cy="644.5927" r="261.4565" gradientTransform="translate(32.2383 -22.2727) rotate(4.1431)" gradientUnits="userSpaceOnUse"><stop offset="0" stop-color="#6b78d4"/><stop offset="0.2871" stop-color="#6e7cd3"/><stop offset="0.5781" stop-color="#7688d0"/><stop offset="0.8699" stop-color="#859ccc"/><stop offset="1" stop-color="#8da8c9"/></radialGradient><radialGradient id="radial-gradient-51" cx="354.6886" cy="531.1204" r="135.2652" gradientTransform="translate(32.2383 -22.2727) rotate(4.1431)" gradientUnits="userSpaceOnUse"><stop offset="0" stop-color="#9062d4"/><stop offset="0.2373" stop-color="#9066d3"/><stop offset="0.4778" stop-color="#8f72d1"/><stop offset="0.7198" stop-color="#8e87ce"/><stop offset="0.9615" stop-color="#8da3ca"/><stop offset="1" stop-color="#8da8c9"/></radialGradient><radialGradient id="radial-gradient-52" cx="247.6659" cy="628.1267" r="211.1568" xlink:href="#radial-gradient-50"/><radialGradient id="radial-gradient-53" cx="272.725" cy="768.4505" r="315.6975" gradientTransform="translate(32.2383 -22.2727) rotate(4.1431)" gradientUnits="userSpaceOnUse"><stop offset="0" stop-color="#7835c7"/><stop offset="0.18" stop-color="#7639c8"/><stop offset="0.3624" stop-color="#7145c9"/><stop offset="0.5461" stop-color="#695acc"/><stop offset="0.7306" stop-color="#5d76d0"/><stop offset="0.9141" stop-color="#4e9ad4"/><stop offset="1" stop-color="#46aed7"/></radialGradient><radialGradient id="radial-gradient-54" cx="272.8165" cy="567.7481" r="117.9695" gradientTransform="translate(32.2383 -22.2727) rotate(4.1431)" gradientUnits="userSpaceOnUse"><stop offset="0" stop-color="#5a43c1"/><stop offset="0.2151" stop-color="#5e47c2"/><stop offset="0.4332" stop-color="#6a52c7"/><stop offset="0.6526" stop-color="#7f66ce"/><stop offset="0.8718" stop-color="#9b81d9"/><stop offset="1" stop-color="#af94e0"/></radialGradient><radialGradient id="radial-gradient-55" cx="207.7548" cy="474.192" r="159.5913" gradientTransform="translate(32.2383 -22.2727) rotate(4.1431)" gradientUnits="userSpaceOnUse"><stop offset="0" stop-color="#5a49c1"/><stop offset="0.2292" stop-color="#5e4dc3"/><stop offset="0.4615" stop-color="#6859c8"/><stop offset="0.6952" stop-color="#7a6ed0"/><stop offset="0.9286" stop-color="#938adc"/><stop offset="1" stop-color="#9c94e0"/></radialGradient><radialGradient id="radial-gradient-56" cx="180.1173" cy="221.7802" r="192.0921" gradientUnits="userSpaceOnUse"><stop offset="0" stop-color="#4dcbbd"/><stop offset="0.2587" stop-color="#4fc7be"/><stop offset="0.5209" stop-color="#56bbc3"/><stop offset="0.7838" stop-color="#61a7ca"/><stop offset="1" stop-color="#6d90d2"/></radialGradient><radialGradient id="radial-gradient-57" cx="89.7866" cy="334.4273" r="230.5519" gradientTransform="translate(32.2383 -22.2727) rotate(4.1431)" gradientUnits="userSpaceOnUse"><stop offset="0" stop-color="#4dc6bd"/><stop offset="0.2356" stop-color="#50c2be"/><stop offset="0.4744" stop-color="#58b6c3"/><stop offset="0.7146" stop-color="#65a1ca"/><stop offset="0.9547" stop-color="#7785d5"/><stop offset="1" stop-color="#7b7fd7"/></radialGradient><radialGradient id="radial-gradient-58" cx="158.7363" cy="406.3956" r="86.5714" gradientUnits="userSpaceOnUse"><stop offset="0" stop-color="#4ee3b1"/><stop offset="0.9946" stop-color="#858ce2"/></radialGradient></defs><g id="scroll"><g id="bottom"><g id="_Layer_" data-name="&lt;Layer&gt;"><path d="M153,583.4615Q149.5,616.7307,146,650l3-2,32-55q-1-34.5-2-69-.5-7.2693-1-14.5385Q165.5,546.4616,153,583.4615Z" style="fill:url(#radial-gradient)"/><path d="M178,510.4615q.5,40.7692,1,81.5385l3,3,29,17,5,2-25-25Q184.5,549.7308,178,510.4615Z" style="fill:url(#radial-gradient-2)"/><path d="M178,665l38-51-37-22-1,3q-.5,34-1,68Z" style="fill:url(#radial-gradient-3)"/><path d="M179,592l-33,58,32,15Q178.5,628.5,179,592Z" style="fill:url(#radial-gradient-4)"/></g><g id="highlights-9" data-name="highlights" style="opacity:0.5"><path d="M179,661l34-43-35,47-28-13,27,10q.5-12.5,1-25Q178.5,649,179,661Z" style="fill:#f2f2f2"/><path d="M178,565v27l-12,23,13-23Q178.5,578.5,178,565Z" style="fill:#f2f2f2"/></g></g><g id="right"><path d="M256,85q-3.2905,10.656-6.581,21.3121L243.35,134.5285l-3.6732,40.1436-18.9693,61.6617,58.5971,17.07,36.94,27.7925,38.5088,14.7334q-10.1172-48.6918-20.2345-97.3836Z" style="fill:url(#radial-gradient-5)"/><g id="_Layer_2" data-name="&lt;Layer&gt;"><path d="M273,140q-7,36.2307-14,72.4615L264,213l65-12,6-2c-2.3164-2.3345-4.5875-4.7323-7-7l-50-47Z" style="fill:url(#radial-gradient-6)"/><path d="M273,120l.1148,22.0473L335,199Z" style="fill:url(#radial-gradient-7)"/><path d="M256,85l18,40,61,74Z" style="fill:url(#radial-gradient-8)"/><path d="M335,199l-3,4-33,25-3,1-37-16.5385Z" style="fill:url(#radial-gradient-9)"/><path d="M335,199l-39,30,35,29q1-4.5,2-9,1-22,2-44Z" style="fill:url(#radial-gradient-10)"/><path d="M335,199q-2,29.5-4,59l24.2363,37.4131Q345.118,247.2066,335,199Z" style="fill:url(#radial-gradient-11)"/></g><g id="highlights-10" data-name="highlights" style="opacity:0.5"><path d="M335,199q12.1554,57.9726,12,58-.15.0319-12-55-1,14.5-2,29,.5-15.5,1-31l-25,19,24-20-14-15,12.0964,11.34Q333.0482,197.17,335,199Z" style="fill:#f2f2f2"/></g></g><g id="top"><g id="shapes_copy_5" data-name="shapes copy 5"><path d="M115,101q2.9766,11.2872,5.9531,22.5744,25.9462,28.1566,51.8924,56.3132L189,175q5-20.5,10-41l-79-32Z" style="fill:url(#radial-gradient-12)"/><path d="M115,101l74.1539-2.6969L191,101q2.5,16,5,32v4Z" style="fill:url(#radial-gradient-13)"/><path d="M115,101l74.1539-2.6969L193,93l3.2559-21.9469L187,0Z" style="fill:url(#radial-gradient-14)"/><path d="M186.5638,252.386q-6.859-36.2492-13.7183-72.4984L187,172l1,2q-.5,38-1,76Z" style="fill:url(#radial-gradient-15)"/><path d="M204,260q5.8383-12.75,11.6767-25.5.1617-1.75.3233-3.5l-18-89-2-5-9,35-.4362,80.386L189,255l13,6Z" style="fill:url(#radial-gradient-16)"/><path d="M186.5638,252.386q3.3065,39.4121,6.6128,78.8243L204,260Z" style="fill:url(#radial-gradient-17)"/><path d="M196,71l21.2112-1.6415q1.941-1.4967,3.8985-3.1307a127.8005,127.8005,0,0,0,16.4611-16.554L187,0Z" style="fill:url(#radial-gradient-18)"/><path d="M196,71l3,4,71,44,3,.4615q-8.14-17.3377-17.28-35.37-9.0418-17.8027-18.1492-34.4181Z" style="fill:url(#radial-gradient-19)"/><path d="M196,71l77,48.4615v20L271,140l-67-32q-4-17-8-34Z" style="fill:url(#radial-gradient-20)"/><path d="M205,107l68,32.4615Q266,175.7308,259,212l-3-1-57-67-3-7q.5-4,1-8l7-21Z" style="fill:url(#radial-gradient-21)"/><path d="M196,137l19.6767,97.5,43.2808-22.4449Z" style="fill:url(#radial-gradient-22)"/><path d="M205,107l-9,30q-3.423-19.3485-6.8461-38.6969Q192.5771,84.6516,196,71Z" style="fill:url(#radial-gradient-23)"/></g><g id="highlights_copy_2" data-name="highlights copy 2" style="opacity:0.5"><path d="M187,0l17,17L188,2l3,30q-2-15-4-30-18.7663,25.174-19,25Q167.7588,26.8236,187,0Z" style="fill:#f2f2f2"/><path d="M195,75l-7,22-40,3,40-1,6,29q-2-15-4-30Q192.5,86.5,195,75Z" style="fill:#f2f2f2"/><path d="M245,126l28,13q-3.5,18-7,36l6-35Z" style="fill:#f2f2f2"/></g></g><g id="left"><g id="_Layer_3" data-name="&lt;Layer&gt;"><path d="M121,118q.5,10.5,1,21,8.5,40,17,80l32-30q1-4.5,2-9Z" style="fill:url(#radial-gradient-24)"/><path d="M173,180q11,38.2308,22,76.4615,2.5,15,5,30Q198,309.2308,196,332l-3-2-39-52-14.2986-61.764Z" style="fill:url(#radial-gradient-25)"/><path d="M156,281q-8.244,22.3005-17,45-11.3989,29.537-23,58L7,344l-7-4L121,118Q138.5,199.5,156,281Z" style="fill:url(#radial-gradient-26)"/><path d="M26.132,387.3245,0,340l115.5,41.8634L116,387l-9,64-1,2Z" style="fill:url(#radial-gradient-27)"/><path d="M144.6034,369.3932,161,341l48,66Z" style="fill:url(#radial-gradient-28)"/><path d="M115,382l-9,71,16-6,81-35,6-5-61-38Z" style="fill:url(#radial-gradient-29)"/><path d="M209,407,106,453l83,11.4615,16-23Q207,424.2309,209,407Z" style="fill:url(#radial-gradient-30)"/><path d="M160,341l-6-58q.5-3,1-6l41,55q6.5,37.5,13,75Z" style="fill:url(#radial-gradient-31)"/><path d="M155,277q-9.33,25.1091-18.7693,50.1821Q125.9278,354.5505,115.5,381.8634L147,369l14.2166-26.6715Z" style="fill:url(#radial-gradient-32)"/><path d="M79,195l42-77-6-17Z" style="fill:url(#radial-gradient-33)"/></g><g id="highlights_copy_3" data-name="highlights copy 3" style="opacity:0.5"><path d="M156,277l3,42q-2-20-4-40l-13,33,12-35q-9.4764-46.8942-9-47Q145.4794,229.898,156,277Z" style="fill:#f2f2f2"/><path d="M116,380l-32-9,30,12q-1,12.5-2,25,2.5-12.5,5-25l31-13,9-19-10,18Z" style="fill:#f2f2f2"/><path d="M22,300,4,339l57,23L4,343l19,39L0,340Z" style="fill:#f2f2f2"/></g></g><g id="left-bottom"><g id="_Layer_4" data-name="&lt;Layer&gt;"><path d="M104,448l1,3s-1.3913,26.0872-4,75l-1.307,1.832L26,387Z" style="fill:url(#radial-gradient-34)"/><path d="M107,450l5,7,61,51,5,1.4615L190,464Z" style="fill:url(#radial-gradient-35)"/><path d="M107,450q-.5,3.5-1,7l15,84c15.6845-7.5821,31.7435-16.1958,48-26q4.5642-2.7527,9-5.5385Z" style="fill:url(#radial-gradient-36)"/><path d="M178,509.4615,171,526l-44,80-6,7q-.5-7-1-14V545l2-5Z" style="fill:url(#radial-gradient-37)"/><path d="M99.693,527.832Q101.3465,529.916,103,532l15,9,4-1-15-90-3-2Q101.8465,487.9161,99.693,527.832Z" style="fill:url(#radial-gradient-38)"/><path d="M122,540q-.5,36.5-1,73-10.6536-42.584-21.307-85.168Z" style="fill:url(#radial-gradient-39)"/><path d="M178,509.4615,121,613l5-2,24-23,3-5Z" style="fill:url(#radial-gradient-40)"/><path d="M153,583l-32,30,25.2908,37.857Z" style="fill:url(#radial-gradient-41)"/></g><g id="highlights-11" data-name="highlights" style="opacity:0.5"><path d="M115,496q4,21.5,8,43l32-17-32,19q-.5,13-1,26-.5-13.5-1-27Z" style="fill:#f2f2f2"/><path d="M121,613l11,16-9-16q19.2457-19.7519,19-20Q141.7468,592.747,121,613Z" style="fill:#f2f2f2"/></g></g><g id="right-bottom"><g id="_Layer_5" data-name="&lt;Layer&gt;"><path d="M215,234l3,3q3.5,47.5,7,95l-30-1.5385q4-35,8-70Z" style="fill:url(#radial-gradient-42)"/><path d="M355,294q-12.5-18.7692-25-37.5385l-35-28L259,212l20,22,57,49Z" style="fill:url(#radial-gradient-43)"/><path d="M195,330q6.5,38.7307,13,77.4615L214,410h76l-64-78-3-2Z" style="fill:url(#radial-gradient-44)"/><path d="M371.3574,404.01,368,404l-76-51L259,220v-8l96,82Q363.1788,349.005,371.3574,404.01Z" style="fill:url(#radial-gradient-45)"/><path d="M357,443q7.1787-19.495,14.3574-38.99l-77.32-53.7266L290,353l-6,48,3,10,68,32Z" style="fill:url(#radial-gradient-46)"/><path d="M286,408l2,8q-2,15.5-4,31L177,510q5.5-22.7693,11-45.5385l11-19L205,441l68-30Z" style="fill:url(#radial-gradient-47)"/><path d="M339.9033,464.522,357,443l-71-35,3,8,46,46Z" style="fill:url(#radial-gradient-48)"/><path d="M286,408q-4,20-8,40,1,3.5,2,7l42,58,3.2474,1.5939q7.3279-25.0359,14.6559-50.0719Z" style="fill:url(#radial-gradient-49)"/><path d="M278,448,177,510l88,25q7-41.5,14-83Z" style="fill:url(#radial-gradient-50)"/><path d="M278,448q-7,45-14,90l49-17,12.2474-6.4061Z" style="fill:url(#radial-gradient-51)"/><path d="M265,533l-30,38-48-48-10-13Z" style="fill:url(#radial-gradient-52)"/><path d="M177,510l59,60q-9.5,20.5-19,41l-2.2408,3.2455L186,541Z" style="fill:url(#radial-gradient-53)"/><path d="M190.561,588.43l24.1982,25.8157L177,510Q183.78,549.2149,190.561,588.43Z" style="fill:url(#radial-gradient-54)"/><path d="M325.2205,514.9666,265,533l-30,36-20.2408,45.2455Z" style="fill:url(#radial-gradient-55)"/><path d="M259,212.4615,215,234q4,48,8,96l8,5,60,16,3.0369-.7167Q276.5186,281.3724,259,212.4615Z" style="fill:url(#radial-gradient-56)"/><path d="M223,330l63,78q4-29,8-58Z" style="fill:url(#radial-gradient-57)"/><path d="M208,407.4615l-9,38L286,408Z" style="fill:url(#radial-gradient-58)"/></g><g id="highlights-12" data-name="highlights" style="opacity:0.5"><path d="M292,349q-13-54.5-26-109l30,110,61,44-62-40-6,35,3-36-36-14Z" style="fill:#f2f2f2"/><path d="M275,462l-12,69-38-8,37,11-16,22,20-22,36-12-36,9Z" style="fill:#f2f2f2"/></g></g></g></svg>