<svg id="scroll" xmlns="http://www.w3.org/2000/svg" xmlns:xlink="http://www.w3.org/1999/xlink" viewBox="0 0 135 217"><defs><radialGradient id="radial-gradient" cx="-11.1752" cy="47.5209" r="244.2377" gradientTransform="translate(-6.6028 -1.6544) rotate(-1.8969)" gradientUnits="userSpaceOnUse"><stop offset="0" stop-color="#00ceaf"/><stop offset="0.2554" stop-color="#23afad"/><stop offset="0.7612" stop-color="#6476a9"/><stop offset="1" stop-color="#7d5fa7"/></radialGradient><radialGradient id="radial-gradient-2" cx="-26.7143" cy="125.7305" r="183.1557" gradientTransform="matrix(1, 0, 0, 1, 0, 0)" xlink:href="#radial-gradient"/><radialGradient id="radial-gradient-3" cx="22.6577" cy="77.4151" r="184.7842" gradientTransform="matrix(1, 0, 0, 1, 0, 0)" xlink:href="#radial-gradient"/><radialGradient id="radial-gradient-4" cx="-23.63" cy="79.3516" r="240.3012" gradientTransform="matrix(1, 0, 0, 1, 0, 0)" xlink:href="#radial-gradient"/><radialGradient id="radial-gradient-5" cx="-9.4396" cy="74.5456" r="275.2232" gradientTransform="matrix(1, 0, 0, 1, 0, 0)" xlink:href="#radial-gradient"/><radialGradient id="radial-gradient-6" cx="-63.021" cy="27.9005" r="393.9144" gradientTransform="matrix(1, 0, 0, 1, 0, 0)" xlink:href="#radial-gradient"/><radialGradient id="radial-gradient-7" cx="-36.5538" cy="-44.7544" r="341.0425" gradientTransform="matrix(1, 0, 0, 1, 0, 0)" xlink:href="#radial-gradient"/><radialGradient id="radial-gradient-8" cx="31.8332" cy="78.729" r="134.5754" gradientTransform="translate(-6.6028 -1.6544) rotate(-1.8969)" gradientUnits="userSpaceOnUse"><stop offset="0" stop-color="#00c4ba"/><stop offset="0.1848" stop-color="#17c9b7"/><stop offset="0.7386" stop-color="#58d9ad"/><stop offset="1" stop-color="#71dfa9"/></radialGradient><radialGradient id="radial-gradient-9" cx="115.4467" cy="134.2551" r="138.7992" gradientUnits="userSpaceOnUse"><stop offset="0" stop-color="#04c0c1"/><stop offset="0.5589" stop-color="#2ad4b4"/><stop offset="1" stop-color="#43e2ab"/></radialGradient><radialGradient id="radial-gradient-10" cx="122.2158" cy="114.6869" r="194.5211" gradientTransform="translate(-6.6028 -1.6544) rotate(-1.8969)" gradientUnits="userSpaceOnUse"><stop offset="0" stop-color="#00c1be"/><stop offset="0.5826" stop-color="#2ad9a8"/><stop offset="1" stop-color="#43e89a"/></radialGradient><radialGradient id="radial-gradient-11" cx="50.4313" cy="117.0769" r="118.59" gradientUnits="userSpaceOnUse"><stop offset="0" stop-color="#6cd3b5"/><stop offset="0.2731" stop-color="#68d4b6"/><stop offset="0.5499" stop-color="#5cd5b7"/><stop offset="0.8274" stop-color="#48d8ba"/><stop offset="1" stop-color="#37dabc"/></radialGradient><radialGradient id="radial-gradient-12" cx="90.8354" cy="92.7435" r="159.6755" gradientUnits="userSpaceOnUse"><stop offset="0" stop-color="#76eaa9"/><stop offset="1" stop-color="#6760ff"/></radialGradient><radialGradient id="radial-gradient-13" cx="97.9972" cy="37.4271" r="167.811" gradientTransform="translate(-6.6028 -1.6544) rotate(-1.8969)" gradientUnits="userSpaceOnUse"><stop offset="0" stop-color="#4dc6bd"/><stop offset="0.2204" stop-color="#51c3be"/><stop offset="0.4438" stop-color="#5dbabf"/><stop offset="0.6687" stop-color="#72aac2"/><stop offset="0.8932" stop-color="#8e94c7"/><stop offset="1" stop-color="#9e88c9"/></radialGradient></defs><g id="right"><g id="inner"><path d="M33,0a386.8559,386.8559,0,0,1-7,59c-1.4722,7.4749-2.7419,13.7846-6,26L.7071,157.3338,59,174l37.2444,28.196,38.5088,14.7334q-10.1172-48.6918-20.2345-97.3836Z" style="fill:url(#radial-gradient)"/><g id="shapes"><path d="M110,180,97,203l38,14Q122.5,198.5,110,180Z" style="fill:url(#radial-gradient-2)"/><path d="M75,151,59,174l38,29,13-23Z" style="fill:url(#radial-gradient-3)"/><path d="M38,133,0,157l59,17,16-23Z" style="fill:url(#radial-gradient-4)"/><path d="M53,60,20,84Q10,120.5,0,157l39-24Q46,96.5,53,60Z" style="fill:url(#radial-gradient-5)"/><path d="M52,41,24,61q-2,11.5-4,23L52,60Z" style="fill:url(#radial-gradient-6)"/><path d="M33,0,24,61,52,41Q42.5,20.5,33,0Z" style="fill:url(#radial-gradient-7)"/></g></g><g id="_Layer_" data-name="&lt;Layer&gt;"><path d="M53,60q-8.5,36-17,72l8,2,65-12,6-2L98,101Z" style="fill:url(#radial-gradient-8)"/><path d="M52,40q.5,10,1,20l62,60L62,50Z" style="fill:url(#radial-gradient-9)"/><path d="M33,0q9.5,20.5,19,41,61.362,80.2008,63,79Q116.9641,118.559,33,0Z" style="fill:url(#radial-gradient-10)"/><path d="M115,120l-3,4L78,150l-3,1L36,132Z" style="fill:url(#radial-gradient-11)"/><path d="M115,120,75,151l35,29,3-10q1-22,2-44Z" style="fill:url(#radial-gradient-12)"/><path d="M115,120q-2.5,30-5,60l25,35Q125,167.5,115,120Z" style="fill:url(#radial-gradient-13)"/></g><g id="highlights" style="opacity:0.5"><path d="M115,120q12.1554,57.9726,12,58-.15.0319-12-55l-3,30q1-16,2-32L89,140l24-20L99,105l12.0964,11.34Q113.0482,118.17,115,120Z" style="fill:#f2f2f2"/></g></g></svg>