<?xml version="1.0" encoding="utf-8"?>
<!-- Generator: Adobe Illustrator 24.1.3, SVG Export Plug-In . SVG Version: 6.00 Build 0)  -->
<svg version="1.1" xmlns="http://www.w3.org/2000/svg" xmlns:xlink="http://www.w3.org/1999/xlink" x="0px" y="0px"
	 viewBox="0 0 371.4 665" style="enable-background:new 0 0 371.4 665;" xml:space="preserve">
<style type="text/css">
	.st0{fill:url(#SVGID_1_);}
	.st1{fill:url(#SVGID_2_);}
	.st2{fill:url(#SVGID_3_);}
	.st3{fill:url(#SVGID_4_);}
	.st4{fill:url(#SVGID_5_);}
	.st5{opacity:0.5;}
	.st6{fill:#F2F2F2;}
	.st7{fill:url(#SVGID_6_);}
	.st8{fill:url(#SVGID_7_);}
	.st9{fill:url(#SVGID_8_);}
	.st10{fill:url(#SVGID_9_);}
	.st11{fill:url(#SVGID_10_);}
	.st12{fill:url(#SVGID_11_);}
	.st13{fill:url(#SVGID_12_);}
	.st14{fill:url(#SVGID_13_);}
	.st15{fill:url(#SVGID_14_);}
	.st16{fill:url(#SVGID_15_);}
	.st17{fill:url(#SVGID_16_);}
	.st18{fill:url(#SVGID_17_);}
	.st19{fill:url(#SVGID_18_);}
	.st20{fill:url(#SVGID_19_);}
	.st21{fill:url(#SVGID_20_);}
	.st22{fill:url(#SVGID_21_);}
	.st23{fill:url(#SVGID_22_);}
	.st24{fill:url(#SVGID_23_);}
	.st25{fill:url(#SVGID_24_);}
	.st26{fill:url(#SVGID_25_);}
	.st27{fill:url(#SVGID_26_);}
	.st28{fill:url(#SVGID_27_);}
	.st29{fill:url(#SVGID_28_);}
	.st30{fill:url(#SVGID_29_);}
	.st31{fill:url(#SVGID_30_);}
	.st32{fill:url(#SVGID_31_);}
	.st33{fill:url(#SVGID_32_);}
	.st34{fill:url(#SVGID_33_);}
	.st35{fill:url(#SVGID_34_);}
	.st36{fill:url(#SVGID_35_);}
	.st37{fill:url(#SVGID_36_);}
	.st38{fill:url(#SVGID_37_);}
	.st39{fill:url(#SVGID_38_);}
	.st40{fill:url(#SVGID_39_);}
	.st41{fill:url(#SVGID_40_);}
	.st42{fill:url(#SVGID_41_);}
	.st43{fill:url(#SVGID_42_);}
	.st44{fill:url(#SVGID_43_);}
	.st45{fill:url(#SVGID_44_);}
	.st46{fill:url(#SVGID_45_);}
	.st47{fill:url(#SVGID_46_);}
	.st48{fill:url(#SVGID_47_);}
	.st49{fill:url(#SVGID_48_);}
	.st50{fill:url(#SVGID_49_);}
	.st51{fill:url(#SVGID_50_);}
	.st52{fill:url(#SVGID_51_);}
	.st53{fill:url(#SVGID_52_);}
	.st54{fill:url(#SVGID_53_);}
	.st55{fill:url(#SVGID_54_);}
	.st56{fill:url(#SVGID_55_);}
	.st57{fill:url(#SVGID_56_);}
	.st58{fill:url(#SVGID_57_);}
	.st59{fill:url(#SVGID_58_);}
</style>
<g id="bgc">
	<linearGradient id="SVGID_1_" gradientUnits="userSpaceOnUse" x1="49.8107" y1="150.2381" x2="326.7338" y2="540.304">
		<stop  offset="0" style="stop-color:#70E29C"/>
		<stop  offset="0.5168" style="stop-color:#58B8C4"/>
		<stop  offset="1" style="stop-color:#9E88C9"/>
	</linearGradient>
	<path class="st0" d="M345.5,296.1C345.5,296.1,345.5,296.1,345.5,296.1c0-0.1,0-0.2-0.1-0.4c0-0.3-0.1-0.6-0.1-1
		c0,0-0.1-0.1-0.1-0.1c-6.3-31-12.5-62-18.8-93L252.6,90.7c-6-11.8-12-23.7-18-35.5l0,0L186.9,6.5c-5.9,8.6-10.4,15.1-13.4,19.5
		c-18.2,26.5-36.3,53-54.5,79.5l-33.9,92.2c-24.8,47.4-49.6,94.8-74.5,142.2L32.4,381l-1.4-2.9l4.3,8.1l0.1,0.1L104.6,524
		c0,0,0,0,0,0h0c6.7,27.8,13.4,55.7,20.1,83.5l23.8,37.1c10,4.6,19.9,9.2,29.9,13.9l35.8-50c34.3-32.4,68.6-64.7,102.9-97.1
		c4.6-16.5,9.2-33,13.8-49.5l16.1-21.1c4.5-12.7,9-25.5,13.5-38.2C355.6,367.1,350.5,331.6,345.5,296.1z M200,286.7
		c0-0.1,0-0.1,0-0.2l0.2-1.4C200.1,285.6,200.1,286.2,200,286.7z"/>
</g>
<g id="Layer_1">
	<g id="bottom">
		<g id="_Layer_">
			
				<radialGradient id="SVGID_2_" cx="55.2397" cy="159.6171" r="175.9712" gradientTransform="matrix(1 0 0 -1 0 666)" gradientUnits="userSpaceOnUse">
				<stop  offset="0" style="stop-color:#617EAA"/>
				<stop  offset="0.2609" style="stop-color:#657DAE"/>
				<stop  offset="0.5254" style="stop-color:#7078BA"/>
				<stop  offset="0.7905" style="stop-color:#8271CE"/>
				<stop  offset="1" style="stop-color:#9669E4"/>
			</radialGradient>
			<path class="st1" d="M150.5,581.9c-2.3,20.6-4.6,41.1-6.9,61.7c0.8,2.1,1.6,4.3,2.3,6.4c1-0.7,2-1.3,3-2l32-55
				c-0.3-22.4-0.6-44.9-0.9-67.3c-0.8-6.3-1.6-12.7-2.4-19C168.6,531.8,159.6,556.8,150.5,581.9z"/>
			
				<radialGradient id="SVGID_3_" cx="242.7415" cy="97.4591" r="90.1779" gradientTransform="matrix(0.9994 -3.375524e-02 -3.375524e-02 -0.9994 11.7862 664.2529)" gradientUnits="userSpaceOnUse">
				<stop  offset="0" style="stop-color:#8756AA"/>
				<stop  offset="0.2373" style="stop-color:#8557AE"/>
				<stop  offset="0.4778" style="stop-color:#7F5CBA"/>
				<stop  offset="0.7198" style="stop-color:#7563CF"/>
				<stop  offset="0.9615" style="stop-color:#686CEB"/>
				<stop  offset="1" style="stop-color:#656EF0"/>
			</radialGradient>
			<path class="st2" d="M178,510.5c0.3,27.2,0.7,54.4,1,81.5l3,3l29,17l5,2c-7.7-9.7-15.3-19.5-23-29.2C188,560,183,535.2,178,510.5
				z"/>
			
				<radialGradient id="SVGID_4_" cx="117.3423" cy="61.3799" r="127.138" gradientTransform="matrix(0.9995 -3.310110e-02 -3.310110e-02 -0.9995 11.7386 664.2735)" gradientUnits="userSpaceOnUse">
				<stop  offset="0" style="stop-color:#6B78D4"/>
				<stop  offset="0.2757" style="stop-color:#6E74D3"/>
				<stop  offset="0.5552" style="stop-color:#7668D1"/>
				<stop  offset="0.8354" style="stop-color:#8354CC"/>
				<stop  offset="1" style="stop-color:#8D44C9"/>
			</radialGradient>
			<path class="st3" d="M178,665l38-51l-37-22l-1,3c-0.3,22.7-0.7,45.3-1,68L178,665z"/>
			
				<radialGradient id="SVGID_5_" cx="6.8526" cy="40.2473" r="226.4123" gradientTransform="matrix(0.9995 -3.310110e-02 -3.310110e-02 -0.9995 11.7386 664.2735)" gradientUnits="userSpaceOnUse">
				<stop  offset="0" style="stop-color:#787DD4"/>
				<stop  offset="0.3109" style="stop-color:#7C7DD3"/>
				<stop  offset="0.6259" style="stop-color:#887DD0"/>
				<stop  offset="0.942" style="stop-color:#9C7ECA"/>
				<stop  offset="1" style="stop-color:#A17EC9"/>
			</radialGradient>
			<path class="st4" d="M179,592l-33,58l32,15C178.3,640.7,178.7,616.3,179,592z"/>
		</g>
		<g id="highlights-9" class="st5">
			<path class="st6" d="M179,661l34-43l-35,47l-28-13l27,10c0.3-8.3,0.7-16.7,1-25C178.3,645,178.7,653,179,661z"/>
			<path class="st6" d="M178,565v27l-12,23l13-23C178.7,583,178.3,574,178,565z"/>
		</g>
	</g>
	<g id="right">
		<g id="_Layer_2">
			
				<radialGradient id="SVGID_6_" cx="254.1753" cy="502.44" r="133.5254" gradientTransform="matrix(0.9995 -3.310110e-02 -3.310110e-02 -0.9995 11.7386 664.2735)" gradientUnits="userSpaceOnUse">
				<stop  offset="0" style="stop-color:#00C4BA"/>
				<stop  offset="0.1848" style="stop-color:#17C9B7"/>
				<stop  offset="0.7386" style="stop-color:#58D9AD"/>
				<stop  offset="1" style="stop-color:#71DFA9"/>
			</radialGradient>
			<path class="st7" d="M272.7,137.5c-0.6,1.4-1.2,2.7-1.8,4.1c-4.5,23.8-9.1,47.6-13.6,71.3c2.2,0,4.4,0.1,6.7,0.1l65-12l6-2
				c-2.3-2.3-4.6-4.7-7-7C309.6,173.8,291.2,155.6,272.7,137.5z"/>
			
				<radialGradient id="SVGID_7_" cx="335.4572" cy="451.8559" r="147.4544" gradientTransform="matrix(1 0 0 -1 0 666)" gradientUnits="userSpaceOnUse">
				<stop  offset="0" style="stop-color:#04C0C1"/>
				<stop  offset="0.5589" style="stop-color:#2AD4B4"/>
				<stop  offset="1" style="stop-color:#43E2AB"/>
			</radialGradient>
			<path class="st8" d="M270.5,114c0.8,8.5,1.7,17,2.5,25.5c20.7,19.8,41.3,39.7,62,59.5c-8.4-12.2-17.3-24.6-26.8-37.3
				C295.6,144.8,283,128.9,270.5,114z"/>
			
				<radialGradient id="SVGID_8_" cx="342.9721" cy="464.7151" r="185.2287" gradientTransform="matrix(0.9995 -3.310110e-02 -3.310110e-02 -0.9995 11.7386 664.2735)" gradientUnits="userSpaceOnUse">
				<stop  offset="0" style="stop-color:#00C1BE"/>
				<stop  offset="0.5826" style="stop-color:#2AD9A8"/>
				<stop  offset="1" style="stop-color:#43E89A"/>
			</radialGradient>
			<path class="st9" d="M256,85c3.4,8.7,6.9,17.5,10.3,26.2c22.9,29.3,45.8,58.5,68.7,87.8L256,85z"/>
			
				<radialGradient id="SVGID_9_" cx="272.8833" cy="470.0277" r="114.2508" gradientTransform="matrix(1 0 0 -1 0 666)" gradientUnits="userSpaceOnUse">
				<stop  offset="0" style="stop-color:#6CD3B5"/>
				<stop  offset="0.2731" style="stop-color:#68D4B6"/>
				<stop  offset="0.5499" style="stop-color:#5CD5B7"/>
				<stop  offset="0.8274" style="stop-color:#48D8BA"/>
				<stop  offset="1" style="stop-color:#37DABC"/>
			</radialGradient>
			<path class="st10" d="M335,199l-3,4c-12.4,9.4-24.8,18.7-37.2,28.1c-11.9-6.2-23.9-12.4-35.8-18.6L335,199z"/>
			
				<radialGradient id="SVGID_10_" cx="309.4442" cy="470.5883" r="102.8092" gradientTransform="matrix(1 0 0 -1 0 666)" gradientUnits="userSpaceOnUse">
				<stop  offset="0" style="stop-color:#76EAA9"/>
				<stop  offset="1" style="stop-color:#6760FF"/>
			</radialGradient>
			<path class="st11" d="M335,199c-13.9,10.3-27.7,20.6-41.6,30.9c12.5,9.4,25.1,18.7,37.6,28.1c0.7-3,1.3-6,2-9
				c0.7-14.7,1.3-29.3,2-44V199z"/>
			
				<radialGradient id="SVGID_11_" cx="318.5547" cy="543.8142" r="171.2442" gradientTransform="matrix(0.9995 -3.310110e-02 -3.310110e-02 -0.9995 11.7386 664.2735)" gradientUnits="userSpaceOnUse">
				<stop  offset="0" style="stop-color:#4DC6BD"/>
				<stop  offset="0.2204" style="stop-color:#51C3BE"/>
				<stop  offset="0.4438" style="stop-color:#5DBABF"/>
				<stop  offset="0.6687" style="stop-color:#72AAC2"/>
				<stop  offset="0.8932" style="stop-color:#8E94C7"/>
				<stop  offset="1" style="stop-color:#9E88C9"/>
			</radialGradient>
			<path class="st12" d="M335,199c-1.7,20-3.5,40-5.2,60c8.5,12.1,17,24.3,25.4,36.4C348.5,263.3,341.7,231.1,335,199z"/>
		</g>
		<g id="highlights-10" class="st5">
			<path class="st6" d="M335,199c8.1,38.6,12.1,58,12,58c-0.1,0-4.1-18.3-12-55c-0.7,9.7-1.3,19.3-2,29c0.3-10.3,0.7-20.7,1-31
				l-25,19l24-20l-14-15l12.1,11.3C332.4,196.6,333.7,197.8,335,199z"/>
		</g>
	</g>
	<g id="top">
		<g id="shapes_copy_5">
			
				<radialGradient id="SVGID_12_" cx="66.2867" cy="160.7495" r="225.7112" gradientTransform="matrix(-3.310104e-02 -0.9995 -0.9995 3.310104e-02 260.0005 311.2762)" gradientUnits="userSpaceOnUse">
				<stop  offset="0" style="stop-color:#FFFF5E"/>
				<stop  offset="0.4925" style="stop-color:#99F77A"/>
				<stop  offset="0.8381" style="stop-color:#57F18C"/>
				<stop  offset="1" style="stop-color:#3EEF93"/>
			</radialGradient>
			<path class="st13" d="M115,101c2,7.5,4,15,6,22.6c17,19.5,34,39,50.9,58.5c5.7-2.4,11.4-4.7,17.1-7.1c3.3-13.7,6.7-27.3,10-41
				l-79-32L115,101z"/>
			
				<radialGradient id="SVGID_13_" cx="82.7834" cy="107.8097" r="127.3535" gradientTransform="matrix(-3.310104e-02 -0.9995 -0.9995 3.310104e-02 260.0005 311.2762)" gradientUnits="userSpaceOnUse">
				<stop  offset="0" style="stop-color:#FFFF40"/>
				<stop  offset="0.4925" style="stop-color:#99F76C"/>
				<stop  offset="0.8381" style="stop-color:#57F188"/>
				<stop  offset="1" style="stop-color:#3EEF93"/>
			</radialGradient>
			<path class="st14" d="M115,101c2.7-0.5,5.4-1,8.1-1.5c21.5-0.9,43-1.8,64.5-2.8c1.1,1.4,2.3,2.8,3.4,4.3c1.7,10.7,3.3,21.3,5,32
				v4L115,101z"/>
			
				<radialGradient id="SVGID_14_" cx="275.2847" cy="151.2084" r="129.9237" gradientTransform="matrix(-3.310104e-02 -0.9995 -0.9995 3.310104e-02 260.0005 311.2762)" gradientUnits="userSpaceOnUse">
				<stop  offset="0" style="stop-color:#FCEE21"/>
				<stop  offset="0.4677" style="stop-color:#A0F576"/>
				<stop  offset="0.8301" style="stop-color:#5EF9B3"/>
				<stop  offset="1" style="stop-color:#45FBCA"/>
			</radialGradient>
			<path class="st15" d="M115,101c25.2-0.8,50.5-1.6,75.7-2.4c0.8-1.9,1.5-3.7,2.3-5.6c1.4-7.5,2.9-14.9,4.3-22.4
				c-2.8-21.9-5.6-43.9-8.4-65.8c-0.6-1.6-1.3-3.2-1.9-4.8C163,33.7,139,67.3,115,101z"/>
			
				<radialGradient id="SVGID_15_" cx="144.7844" cy="467.923" r="149.4797" gradientTransform="matrix(0.9995 -3.310110e-02 -3.310110e-02 -0.9995 11.7386 664.2735)" gradientUnits="userSpaceOnUse">
				<stop  offset="0" style="stop-color:#FFEE60"/>
				<stop  offset="0.4754" style="stop-color:#A0F596"/>
				<stop  offset="0.8326" style="stop-color:#5EF9BC"/>
				<stop  offset="1" style="stop-color:#45FBCA"/>
			</radialGradient>
			<path class="st16" d="M186.6,252.4c-4.6-24.2-9.1-48.3-13.7-72.5L187,172l1,2c-0.3,25.3-0.7,50.7-1,76L186.6,252.4z"/>
			
				<radialGradient id="SVGID_16_" cx="335.7614" cy="480.6294" r="173.0918" gradientTransform="matrix(0.9995 -3.310110e-02 -3.310110e-02 -0.9995 11.7386 664.2735)" gradientUnits="userSpaceOnUse">
				<stop  offset="0" style="stop-color:#00C9F4"/>
				<stop  offset="0.4345" style="stop-color:#50DAC4"/>
				<stop  offset="0.8196" style="stop-color:#92E99C"/>
				<stop  offset="1" style="stop-color:#ABEE8D"/>
			</radialGradient>
			<path class="st17" d="M204,260c3.9-8.5,7.8-17,11.7-25.5c0.1-1.2,0.2-2.3,0.3-3.5l-18-89l-2-5l-9,35l-0.4,80.4l2.4,2.6l13,6
				L204,260z"/>
			
				<radialGradient id="SVGID_17_" cx="115.7178" cy="448.3626" r="153.9388" gradientTransform="matrix(1 0 0 -1 0 666)" gradientUnits="userSpaceOnUse">
				<stop  offset="0" style="stop-color:#C8E0AB"/>
				<stop  offset="6.490000e-02" style="stop-color:#C1E1AB"/>
				<stop  offset="0.7003" style="stop-color:#80ECA7"/>
				<stop  offset="1" style="stop-color:#67F0A5"/>
			</radialGradient>
			<path class="st18" d="M186.6,252.4c2.2,26.3,4.4,52.5,6.6,78.8L204,260L186.6,252.4z"/>
			
				<radialGradient id="SVGID_18_" cx="127.2544" cy="615.966" r="70.5853" gradientTransform="matrix(0.9995 -3.310110e-02 -3.310110e-02 -0.9995 11.7386 664.2735)" gradientUnits="userSpaceOnUse">
				<stop  offset="0" style="stop-color:#64F968"/>
				<stop  offset="0.1919" style="stop-color:#6AF66F"/>
				<stop  offset="1" style="stop-color:#7FE988"/>
			</radialGradient>
			<path class="st19" d="M196,71l21.2-1.6c1.3-1,2.6-2,3.9-3.1c6-5,11.5-10.5,16.5-16.6L187,0L196,71z"/>
			
				<radialGradient id="SVGID_19_" cx="323.502" cy="594.3526" r="133.5145" gradientTransform="matrix(0.9995 -3.310110e-02 -3.310110e-02 -0.9995 11.7386 664.2735)" gradientUnits="userSpaceOnUse">
				<stop  offset="0" style="stop-color:#00B5BE"/>
				<stop  offset="0.5826" style="stop-color:#2AD5A8"/>
				<stop  offset="1" style="stop-color:#43E89A"/>
			</radialGradient>
			<path class="st20" d="M196,71l3,4l71,44l3,0.5c-5.4-11.6-11.2-23.3-17.3-35.4c-6-11.9-12.1-23.3-18.1-34.4L196,71z"/>
			
				<radialGradient id="SVGID_20_" cx="344.1411" cy="498.6529" r="174.4837" gradientTransform="matrix(0.9995 -3.310110e-02 -3.310110e-02 -0.9995 11.7386 664.2735)" gradientUnits="userSpaceOnUse">
				<stop  offset="0" style="stop-color:#00B5BB"/>
				<stop  offset="0.5826" style="stop-color:#2AD7B1"/>
				<stop  offset="1" style="stop-color:#43EBAB"/>
			</radialGradient>
			<path class="st21" d="M196,71l77,48.5v20l-2,0.5l-67-32c-2.7-11.3-5.3-22.7-8-34V71z"/>
			
				<radialGradient id="SVGID_21_" cx="313.4373" cy="454.7101" r="142.8632" gradientTransform="matrix(0.9995 -3.310110e-02 -3.310110e-02 -0.9995 11.7386 664.2735)" gradientUnits="userSpaceOnUse">
				<stop  offset="0" style="stop-color:#00C4BA"/>
				<stop  offset="0.5826" style="stop-color:#2ADAA6"/>
				<stop  offset="1" style="stop-color:#43E89A"/>
			</radialGradient>
			<path class="st22" d="M205,107l68,32.5c-4.7,24.2-9.3,48.4-14,72.5l-3-1l-57-67l-3-7c0.3-2.7,0.7-5.3,1-8l7-21L205,107z"/>
			
				<radialGradient id="SVGID_22_" cx="345.178" cy="355.3848" r="297.7411" gradientTransform="matrix(0.9995 -3.310110e-02 -3.310110e-02 -0.9995 11.7386 664.2735)" gradientUnits="userSpaceOnUse">
				<stop  offset="0" style="stop-color:#009CD1"/>
				<stop  offset="0.4345" style="stop-color:#50CAB7"/>
				<stop  offset="0.8196" style="stop-color:#92EFA1"/>
				<stop  offset="1" style="stop-color:#ABFD99"/>
			</radialGradient>
			<path class="st23" d="M196,137c6.6,33.5,13.1,67,19.7,100.4c15.2-7.6,30.4-15.1,45.6-22.7C239.5,188.8,217.8,162.9,196,137z"/>
			
				<radialGradient id="SVGID_23_" cx="229.6051" cy="541.0769" r="79.8852" gradientTransform="matrix(1 0 0 -1 0 666)" gradientUnits="userSpaceOnUse">
				<stop  offset="0" style="stop-color:#34E09F"/>
				<stop  offset="0.6478" style="stop-color:#6CF27C"/>
				<stop  offset="1" style="stop-color:#85FA6C"/>
			</radialGradient>
			<path class="st24" d="M205,107l-9,30c-2.3-12.9-4.6-25.8-6.8-38.7c2.3-9.1,4.6-18.2,6.8-27.3L205,107z"/>
		</g>
		<g id="highlights_copy_2" class="st5">
			<path class="st6" d="M187,0l17,17L188,2l3,30c-1.3-10-2.7-20-4-30c-12.5,16.8-18.8,25.1-19,25C167.8,26.9,174.2,17.9,187,0z"/>
			<path class="st6" d="M195,75l-7,22l-40,3l40-1l6,29c-1.3-10-2.7-20-4-30C191.7,90.3,193.3,82.7,195,75z"/>
			<path class="st6" d="M245,126l28,13c-2.3,12-4.7,24-7,36l6-35L245,126z"/>
		</g>
	</g>
	<g id="left">
		<g id="_Layer_3">
			
				<radialGradient id="SVGID_24_" cx="19.7598" cy="480.4859" r="148.9581" gradientTransform="matrix(0.9995 -3.310110e-02 -3.310110e-02 -0.9995 11.7386 664.2735)" gradientUnits="userSpaceOnUse">
				<stop  offset="0" style="stop-color:#FFFF40"/>
				<stop  offset="3.810000e-02" style="stop-color:#F6FE44"/>
				<stop  offset="0.5148" style="stop-color:#8FF171"/>
				<stop  offset="0.8452" style="stop-color:#4DE88E"/>
				<stop  offset="1" style="stop-color:#34E599"/>
			</radialGradient>
			<path class="st25" d="M121,118c0.3,7,0.7,14,1,21c5.7,26.7,11.3,53.3,17,80l32-30c0.7-3,1.3-6,2-9L121,118z"/>
			
				<radialGradient id="SVGID_25_" cx="169.8075" cy="266.8811" r="204.0941" gradientTransform="matrix(1 0 0 -1 0 666)" gradientUnits="userSpaceOnUse">
				<stop  offset="0" style="stop-color:#00B897"/>
				<stop  offset="0.266" style="stop-color:#25C698"/>
				<stop  offset="0.7646" style="stop-color:#66DF9A"/>
				<stop  offset="1" style="stop-color:#7FE99B"/>
			</radialGradient>
			<path class="st26" d="M173,180c7.3,25.5,14.7,51,22,76.5c2.2,13.3,4.4,26.6,6.6,39.9c-1.9,11.9-3.7,23.7-5.6,35.6l-3-2l-39-52
				l-14.3-61.8L173,180z"/>
			
				<radialGradient id="SVGID_26_" cx="263.6195" cy="305.6095" r="300.5038" gradientTransform="matrix(0.9995 -3.310110e-02 -3.310110e-02 -0.9995 11.7386 664.2735)" gradientUnits="userSpaceOnUse">
				<stop  offset="0" style="stop-color:#00B5AF"/>
				<stop  offset="0.2712" style="stop-color:#26C4A8"/>
				<stop  offset="0.7662" style="stop-color:#67DE9D"/>
				<stop  offset="1" style="stop-color:#80E899"/>
			</radialGradient>
			<path class="st27" d="M156,281c-5.5,14.9-11.2,29.9-17,45c-7.6,19.7-15.3,39-23,58L7,344l-7-4l121-222
				C132.7,172.3,144.3,226.7,156,281z"/>
			
				<radialGradient id="SVGID_27_" cx="223.6281" cy="167.1295" r="244.2034" gradientTransform="matrix(0.9995 -3.310110e-02 -3.310110e-02 -0.9995 11.7386 664.2735)" gradientUnits="userSpaceOnUse">
				<stop  offset="0" style="stop-color:#00B5BE"/>
				<stop  offset="1.940000e-02" style="stop-color:#02B5BD"/>
				<stop  offset="0.6858" style="stop-color:#43BB95"/>
				<stop  offset="1" style="stop-color:#5CBD85"/>
			</radialGradient>
			<path class="st28" d="M26.1,387.3L0,340l115.5,41.9l0.5,5.1l-9,64l-1,2L26.1,387.3z"/>
			
				<radialGradient id="SVGID_28_" cx="100.462" cy="338.7233" r="167.0325" gradientTransform="matrix(1 0 0 -1 0 666)" gradientUnits="userSpaceOnUse">
				<stop  offset="0" style="stop-color:#6AE8C4"/>
				<stop  offset="1" style="stop-color:#6FB57F"/>
			</radialGradient>
			<path class="st29" d="M144.1,370.2c5.6-10.6,11.2-21.2,16.8-31.8c17.3,24.3,34.5,48.7,51.8,73
				C189.8,397.6,166.9,383.9,144.1,370.2z"/>
			
				<radialGradient id="SVGID_29_" cx="175.8723" cy="154.3748" r="164.2248" gradientTransform="matrix(0.9995 -3.310110e-02 -3.310110e-02 -0.9995 11.7386 664.2735)" gradientUnits="userSpaceOnUse">
				<stop  offset="0" style="stop-color:#168492"/>
				<stop  offset="0.6627" style="stop-color:#52BB9E"/>
				<stop  offset="1" style="stop-color:#6BD2A3"/>
			</radialGradient>
			<path class="st30" d="M114.8,382.1c-2.9,23.6-5.9,47.3-8.8,70.9l16-6l81-35l6-5c-21.4-13-42.9-26-64.3-39
				C134.7,372.7,124.8,377.4,114.8,382.1z"/>
			
				<radialGradient id="SVGID_30_" cx="113.8895" cy="272.5023" r="105.4023" gradientTransform="matrix(1 0 0 -1 0 666)" gradientUnits="userSpaceOnUse">
				<stop  offset="0" style="stop-color:#53AF90"/>
				<stop  offset="1" style="stop-color:#58AEC5"/>
			</radialGradient>
			<path class="st31" d="M209,407c-34.7,14.7-69.3,29.3-104,44c28.1,5,56.2,10.1,84.4,15.1c5.2-8.2,10.4-16.4,15.6-24.6
				C206.3,430,207.7,418.5,209,407z"/>
			
				<radialGradient id="SVGID_31_" cx="320.0279" cy="304.4955" r="214.725" gradientTransform="matrix(1 0 0 -1 0 666)" gradientUnits="userSpaceOnUse">
				<stop  offset="0" style="stop-color:#00A07F"/>
				<stop  offset="0.2554" style="stop-color:#23B28E"/>
				<stop  offset="0.7612" style="stop-color:#64D4A9"/>
				<stop  offset="1" style="stop-color:#7DE1B4"/>
			</radialGradient>
			<path class="st32" d="M160,341l-6-58c0.3-2,0.7-4,1-6c15.1,20,30.2,39.9,45.4,59.9c3.8,25.1,7.6,50.3,11.3,75.4
				C194.5,388.5,177.2,364.8,160,341z"/>
			
				<radialGradient id="SVGID_32_" cx="174.033" cy="248.5275" r="373.2329" gradientTransform="matrix(1 0 0 -1 0 666)" gradientUnits="userSpaceOnUse">
				<stop  offset="0" style="stop-color:#6AE8BA"/>
				<stop  offset="1" style="stop-color:#6FB57F"/>
			</radialGradient>
			<path class="st33" d="M155,277c-6.2,16.7-12.5,33.5-18.8,50.2c-6.9,18.2-13.8,36.5-20.7,54.7L147,369l14.2-26.7L155,277z"/>
			
				<radialGradient id="SVGID_33_" cx="66.7245" cy="554.6838" r="82.0429" gradientTransform="matrix(1 0 0 -1 0 666)" gradientUnits="userSpaceOnUse">
				<stop  offset="0" style="stop-color:#00B5BB"/>
				<stop  offset="0.5826" style="stop-color:#2AD7B1"/>
				<stop  offset="1" style="stop-color:#43EBAB"/>
			</radialGradient>
			<path class="st34" d="M79,195l42-77l-6-17L79,195z"/>
		</g>
		<g id="highlights_copy_3" class="st5">
			<path class="st6" d="M156,277l3,42c-1.3-13.3-2.7-26.7-4-40l-13,33l12-35c-6.3-31.3-9.3-46.9-9-47C145.3,229.9,149,245.6,156,277
				z"/>
			<path class="st6" d="M116,380l-32-9l30,12c-0.7,8.3-1.3,16.7-2,25c1.7-8.3,3.3-16.7,5-25l31-13l9-19l-10,18L116,380z"/>
			<path class="st6" d="M22,300L4,339l57,23L4,343l19,39L0,340L22,300z"/>
		</g>
	</g>
	<g id="left-bottom">
		<g id="_Layer_4">
			
				<radialGradient id="SVGID_34_" cx="-92.9797" cy="202.5864" r="217.7854" gradientTransform="matrix(0.9995 -3.310110e-02 -3.310110e-02 -0.9995 11.7386 664.2735)" gradientUnits="userSpaceOnUse">
				<stop  offset="0" style="stop-color:#B6E473"/>
				<stop  offset="1" style="stop-color:#3FBFC4"/>
			</radialGradient>
			<path class="st35" d="M104,448l1,3c0,0-1.4,26.1-4,75l-1.3,1.8L26,387L104,448z"/>
			
				<radialGradient id="SVGID_35_" cx="69.2149" cy="260.3174" r="198.9843" gradientTransform="matrix(0.9995 -3.310110e-02 -3.310110e-02 -0.9995 11.7386 664.2735)" gradientUnits="userSpaceOnUse">
				<stop  offset="0" style="stop-color:#76EAA9"/>
				<stop  offset="1" style="stop-color:#7388FF"/>
			</radialGradient>
			<path class="st36" d="M107,450l5,7l61,51l5,1.5l12-45.5L107,450z"/>
			
				<radialGradient id="SVGID_36_" cx="56.9724" cy="180.1894" r="137.2896" gradientTransform="matrix(0.9995 -3.310110e-02 -3.310110e-02 -0.9995 11.7386 664.2735)" gradientUnits="userSpaceOnUse">
				<stop  offset="0" style="stop-color:#78C6BD"/>
				<stop  offset="0.2356" style="stop-color:#77C2C1"/>
				<stop  offset="0.4744" style="stop-color:#74B6CC"/>
				<stop  offset="0.7146" style="stop-color:#6FA1DF"/>
				<stop  offset="0.9547" style="stop-color:#6885F9"/>
				<stop  offset="1" style="stop-color:#667FFF"/>
			</radialGradient>
			<path class="st37" d="M107,450c-0.3,2.3-0.7,4.7-1,7l15,84c0.9,0.1,1.8,0.2,2.7,0.3c15-8.4,30.1-16.7,45.1-25.1
				c3.1-2.2,6.1-4.5,9.2-6.7L107,450z"/>
			
				<radialGradient id="SVGID_37_" cx="15.1744" cy="123.5299" r="155.4494" gradientTransform="matrix(0.9995 -3.310110e-02 -3.310110e-02 -0.9995 11.7386 664.2735)" gradientUnits="userSpaceOnUse">
				<stop  offset="0" style="stop-color:#2DC6BD"/>
				<stop  offset="0.1933" style="stop-color:#31C4BE"/>
				<stop  offset="0.3894" style="stop-color:#3DBEC0"/>
				<stop  offset="0.5866" style="stop-color:#52B3C4"/>
				<stop  offset="0.7848" style="stop-color:#6EA5CA"/>
				<stop  offset="0.9819" style="stop-color:#9292D1"/>
				<stop  offset="1" style="stop-color:#9690D2"/>
			</radialGradient>
			<path class="st38" d="M178,509.5l-7,16.5l-44,80l-6,7c-0.3-4.7-0.7-9.3-1-14v-54l2-5L178,509.5z"/>
			
				<radialGradient id="SVGID_38_" cx="193.8909" cy="103.5632" r="170.2448" gradientTransform="matrix(0.9995 -3.310110e-02 -3.310110e-02 -0.9995 11.7386 664.2735)" gradientUnits="userSpaceOnUse">
				<stop  offset="0" style="stop-color:#97AAEA"/>
				<stop  offset="0.6399" style="stop-color:#61C7D1"/>
				<stop  offset="1" style="stop-color:#48D5C5"/>
			</radialGradient>
			<path class="st39" d="M99.7,527.8c1.1,1.4,2.2,2.8,3.3,4.2l15,9l4-1l-15-90l-3-2C102.6,474.6,101.1,501.2,99.7,527.8z"/>
			
				<radialGradient id="SVGID_39_" cx="60.0858" cy="124.3675" r="73.7703" gradientTransform="matrix(0.9995 -3.310110e-02 -3.310110e-02 -0.9995 11.7386 664.2735)" gradientUnits="userSpaceOnUse">
				<stop  offset="0" style="stop-color:#4DC6BD"/>
				<stop  offset="0.2373" style="stop-color:#51C4C1"/>
				<stop  offset="0.4778" style="stop-color:#5DBECC"/>
				<stop  offset="0.7198" style="stop-color:#72B4DF"/>
				<stop  offset="0.9615" style="stop-color:#8EA7FA"/>
				<stop  offset="1" style="stop-color:#93A4FF"/>
			</radialGradient>
			<path class="st40" d="M122,540c-0.3,24.3-0.7,48.7-1,73c-7.1-28.4-14.2-56.8-21.3-85.2L122,540z"/>
			
				<radialGradient id="SVGID_40_" cx="29.6894" cy="100.6543" r="159.9856" gradientTransform="matrix(0.9995 -3.310110e-02 -3.310110e-02 -0.9995 11.7386 664.2735)" gradientUnits="userSpaceOnUse">
				<stop  offset="0" style="stop-color:#4DC6BD"/>
				<stop  offset="0.2055" style="stop-color:#50C2BE"/>
				<stop  offset="0.4139" style="stop-color:#5BB6BF"/>
				<stop  offset="0.6237" style="stop-color:#6CA1C2"/>
				<stop  offset="0.833" style="stop-color:#8385C5"/>
				<stop  offset="1" style="stop-color:#9B69C9"/>
			</radialGradient>
			<path class="st41" d="M178,509.5L121,613l5-2l24-23l3-5L178,509.5z"/>
			
				<radialGradient id="SVGID_41_" cx="44.5969" cy="70.7781" r="116.4421" gradientTransform="matrix(0.9995 -3.310110e-02 -3.310110e-02 -0.9995 11.7386 664.2735)" gradientUnits="userSpaceOnUse">
				<stop  offset="0" style="stop-color:#79C6BD"/>
				<stop  offset="0.1838" style="stop-color:#79C2BD"/>
				<stop  offset="0.3702" style="stop-color:#78B6BF"/>
				<stop  offset="0.5578" style="stop-color:#76A1C1"/>
				<stop  offset="0.7463" style="stop-color:#7485C4"/>
				<stop  offset="0.9337" style="stop-color:#7161C7"/>
				<stop  offset="1" style="stop-color:#7052C9"/>
			</radialGradient>
			<path class="st42" d="M153,583l-32,30l25.3,37.9L153,583z"/>
		</g>
		<g id="highlights-11" class="st5">
			<path class="st6" d="M115,496c2.7,14.3,5.3,28.7,8,43l32-17l-32,19c-0.3,8.7-0.7,17.3-1,26c-0.3-9-0.7-18-1-27L115,496z"/>
			<path class="st6" d="M121,613l11,16l-9-16c12.8-13.2,19.2-19.8,19-20C141.8,592.8,134.8,599.5,121,613z"/>
		</g>
	</g>
	<g id="right-bottom">
		<g id="_Layer_5">
			
				<radialGradient id="SVGID_42_" cx="257.1099" cy="324.6519" r="100.144" gradientTransform="matrix(1 0 0 -1 0 666)" gradientUnits="userSpaceOnUse">
				<stop  offset="0" style="stop-color:#4DCBBB"/>
				<stop  offset="0.377" style="stop-color:#51CCBC"/>
				<stop  offset="0.7584" style="stop-color:#5DCDBF"/>
				<stop  offset="1" style="stop-color:#69CFC2"/>
			</radialGradient>
			<path class="st43" d="M215,234l3,3c2.3,31.7,4.7,63.3,7,95l-30-1.5c2.7-23.3,5.3-46.7,8-70L215,234z"/>
			
				<radialGradient id="SVGID_43_" cx="141.6664" cy="464.6276" r="397.1773" gradientTransform="matrix(0.9978 6.625126e-02 6.625126e-02 -0.9978 -11.7891 657.9443)" gradientUnits="userSpaceOnUse">
				<stop  offset="0" style="stop-color:#76F8A9"/>
				<stop  offset="1" style="stop-color:#704AFF"/>
			</radialGradient>
			<path class="st44" d="M355,294c-8.3-12.5-16.7-25-25-37.5l-35-28L259,212l20,22l57,49L355,294z"/>
			
				<radialGradient id="SVGID_44_" cx="180.0029" cy="369.1573" r="208.6642" gradientTransform="matrix(0.9974 7.224773e-02 7.224773e-02 -0.9974 -14.0511 657.4619)" gradientUnits="userSpaceOnUse">
				<stop  offset="0" style="stop-color:#4EDDB6"/>
				<stop  offset="1" style="stop-color:#B443EB"/>
			</radialGradient>
			<path class="st45" d="M195,330c4.3,25.8,8.7,51.6,13,77.5l6,2.5h76l-64-78l-3-2H195z"/>
			
				<radialGradient id="SVGID_45_" cx="194.3407" cy="469.2747" r="262.2353" gradientTransform="matrix(1 0 0 -1 0 666)" gradientUnits="userSpaceOnUse">
				<stop  offset="0" style="stop-color:#4DD6BE"/>
				<stop  offset="0.1924" style="stop-color:#4FD2BE"/>
				<stop  offset="0.3875" style="stop-color:#57C6C0"/>
				<stop  offset="0.5838" style="stop-color:#63B1C1"/>
				<stop  offset="0.781" style="stop-color:#7495C4"/>
				<stop  offset="0.9772" style="stop-color:#8971C8"/>
				<stop  offset="1" style="stop-color:#8C6CC8"/>
			</radialGradient>
			<path class="st46" d="M371.4,404l-3.4,0l-76-51l-33-133v-8l96,82C360.5,330.7,365.9,367.3,371.4,404z"/>
			
				<radialGradient id="SVGID_46_" cx="388.1868" cy="231.6484" r="174.371" gradientTransform="matrix(1 0 0 -1 0 666)" gradientUnits="userSpaceOnUse">
				<stop  offset="0" style="stop-color:#924396"/>
				<stop  offset="1" style="stop-color:#5ABDEA"/>
			</radialGradient>
			<path class="st47" d="M357,443c4.8-13,9.6-26,14.4-39L294,350.3l-4,2.7l-6,48l3,10l68,32H357z"/>
			
				<radialGradient id="SVGID_47_" cx="377.5587" cy="124.1223" r="205.107" gradientTransform="matrix(1 0 0 -1 0 666)" gradientUnits="userSpaceOnUse">
				<stop  offset="0" style="stop-color:#6B78D4"/>
				<stop  offset="0.2841" style="stop-color:#6E7CD4"/>
				<stop  offset="0.572" style="stop-color:#7688D4"/>
				<stop  offset="0.8609" style="stop-color:#839CD4"/>
				<stop  offset="1" style="stop-color:#8BA9D4"/>
			</radialGradient>
			<path class="st48" d="M286,408l2,8c-2.2,10.8-4.4,21.5-6.5,32.3c-32.5,19.8-65.1,39.6-97.6,59.5c-2.3,0.7-4.6,1.5-6.9,2.2
				c3.7-15.2,7.3-30.4,11-45.5l11-19l6-4.5l68-30L286,408z"/>
			
				<radialGradient id="SVGID_48_" cx="361.6813" cy="203.8242" r="127.4927" gradientTransform="matrix(1 0 0 -1 0 666)" gradientUnits="userSpaceOnUse">
				<stop  offset="0" style="stop-color:#714AAC"/>
				<stop  offset="0.2931" style="stop-color:#885CB5"/>
				<stop  offset="0.7444" style="stop-color:#A673C1"/>
				<stop  offset="1" style="stop-color:#B17CC6"/>
			</radialGradient>
			<path class="st49" d="M339.9,464.5L357,443l-71-35l3,8l46,46L339.9,464.5z"/>
			
				<radialGradient id="SVGID_49_" cx="408.4856" cy="175.6951" r="156.6053" gradientTransform="matrix(0.9974 7.224773e-02 7.224773e-02 -0.9974 -14.0511 657.4619)" gradientUnits="userSpaceOnUse">
				<stop  offset="0" style="stop-color:#6C49C1"/>
				<stop  offset="0.2292" style="stop-color:#6F4DC3"/>
				<stop  offset="0.4615" style="stop-color:#7659C8"/>
				<stop  offset="0.6952" style="stop-color:#836ED0"/>
				<stop  offset="0.9286" style="stop-color:#958ADC"/>
				<stop  offset="1" style="stop-color:#9C94E0"/>
			</radialGradient>
			<path class="st50" d="M286,408c-2.7,13.3-5.3,26.7-8,40c0.7,2.3,1.3,4.7,2,7l42,58l3.2,1.6c4.9-16.7,9.8-33.4,14.7-50.1L286,408z
				"/>
			
				<radialGradient id="SVGID_50_" cx="411.5259" cy="34.5744" r="263.4101" gradientTransform="matrix(0.9974 7.224773e-02 7.224773e-02 -0.9974 -14.0511 657.4619)" gradientUnits="userSpaceOnUse">
				<stop  offset="0" style="stop-color:#6B78D4"/>
				<stop  offset="0.2871" style="stop-color:#6E7CD3"/>
				<stop  offset="0.5781" style="stop-color:#7688D0"/>
				<stop  offset="0.8699" style="stop-color:#859CCC"/>
				<stop  offset="1" style="stop-color:#8DA8C9"/>
			</radialGradient>
			<path class="st51" d="M278,448l-101,62c2.5,1.5,4.9,2.9,7.4,4.4c26.9,7.2,53.9,14.4,80.8,21.6c4.6-28,9.2-56,13.8-84L278,448z"/>
			
				<radialGradient id="SVGID_51_" cx="351.7478" cy="150.1821" r="135.2652" gradientTransform="matrix(0.9974 7.224773e-02 7.224773e-02 -0.9974 -14.0511 657.4619)" gradientUnits="userSpaceOnUse">
				<stop  offset="0" style="stop-color:#9062D4"/>
				<stop  offset="0.2373" style="stop-color:#9066D3"/>
				<stop  offset="0.4778" style="stop-color:#8F72D1"/>
				<stop  offset="0.7198" style="stop-color:#8E87CE"/>
				<stop  offset="0.9615" style="stop-color:#8DA3CA"/>
				<stop  offset="1" style="stop-color:#8DA8C9"/>
			</radialGradient>
			<path class="st52" d="M278,448c-4.7,30-9.3,60-14,90l49-17l12.2-6.4L278,448z"/>
			
				<radialGradient id="SVGID_52_" cx="247.6659" cy="37.8733" r="211.1568" gradientTransform="matrix(1 0 0 -1 0 666)" gradientUnits="userSpaceOnUse">
				<stop  offset="0" style="stop-color:#6B78D4"/>
				<stop  offset="0.2871" style="stop-color:#6E7CD3"/>
				<stop  offset="0.5781" style="stop-color:#7688D0"/>
				<stop  offset="0.8699" style="stop-color:#859CCC"/>
				<stop  offset="1" style="stop-color:#8DA8C9"/>
			</radialGradient>
			<path class="st53" d="M265,533l-30,38l-48-48l-10-13L265,533z"/>
			
				<radialGradient id="SVGID_53_" cx="269.7842" cy="-87.148" r="315.6975" gradientTransform="matrix(0.9974 7.224773e-02 7.224773e-02 -0.9974 -14.0511 657.4619)" gradientUnits="userSpaceOnUse">
				<stop  offset="0" style="stop-color:#7835C7"/>
				<stop  offset="0.18" style="stop-color:#7639C8"/>
				<stop  offset="0.3624" style="stop-color:#7145C9"/>
				<stop  offset="0.5461" style="stop-color:#695ACC"/>
				<stop  offset="0.7306" style="stop-color:#5D76D0"/>
				<stop  offset="0.9141" style="stop-color:#4E9AD4"/>
				<stop  offset="1" style="stop-color:#46AED7"/>
			</radialGradient>
			<path class="st54" d="M177,510l59,60c-6.3,13.7-12.7,27.3-19,41l-2.2,3.2c-2.2-3.6-4.3-7.2-6.5-10.7
				c-7.2-18.3-14.4-36.6-21.6-54.9C183.4,535.8,180.2,522.9,177,510z"/>
			
				<radialGradient id="SVGID_54_" cx="269.8757" cy="113.5544" r="117.9695" gradientTransform="matrix(0.9974 7.224773e-02 7.224773e-02 -0.9974 -14.0511 657.4619)" gradientUnits="userSpaceOnUse">
				<stop  offset="0" style="stop-color:#5A43C1"/>
				<stop  offset="0.2151" style="stop-color:#5E47C2"/>
				<stop  offset="0.4332" style="stop-color:#6A52C7"/>
				<stop  offset="0.6526" style="stop-color:#7F66CE"/>
				<stop  offset="0.8718" style="stop-color:#9B81D9"/>
				<stop  offset="1" style="stop-color:#AF94E0"/>
			</radialGradient>
			<path class="st55" d="M190.6,588.4l24.2,25.8L177,510C181.5,536.1,186,562.3,190.6,588.4z"/>
			
				<radialGradient id="SVGID_55_" cx="204.814" cy="207.1105" r="159.5913" gradientTransform="matrix(0.9974 7.224773e-02 7.224773e-02 -0.9974 -14.0511 657.4619)" gradientUnits="userSpaceOnUse">
				<stop  offset="0" style="stop-color:#5A49C1"/>
				<stop  offset="0.2292" style="stop-color:#5E4DC3"/>
				<stop  offset="0.4615" style="stop-color:#6859C8"/>
				<stop  offset="0.6952" style="stop-color:#7A6ED0"/>
				<stop  offset="0.9286" style="stop-color:#938ADC"/>
				<stop  offset="1" style="stop-color:#9C94E0"/>
			</radialGradient>
			<path class="st56" d="M325.2,515L265,533l-30,36l-20.2,45.2L325.2,515z"/>
			
				<radialGradient id="SVGID_56_" cx="180.1173" cy="444.2198" r="192.0921" gradientTransform="matrix(1 0 0 -1 0 666)" gradientUnits="userSpaceOnUse">
				<stop  offset="0" style="stop-color:#4DCBBD"/>
				<stop  offset="0.2587" style="stop-color:#4FC7BE"/>
				<stop  offset="0.5209" style="stop-color:#56BBC3"/>
				<stop  offset="0.7838" style="stop-color:#61A7CA"/>
				<stop  offset="1" style="stop-color:#6D90D2"/>
			</radialGradient>
			<path class="st57" d="M259,212.5L215,234c2.7,32,5.3,64,8,96l8,5l60,16l3-0.7C282.4,304.3,270.7,258.4,259,212.5z"/>
			
				<radialGradient id="SVGID_57_" cx="86.8458" cy="346.8752" r="230.5519" gradientTransform="matrix(0.9974 7.224773e-02 7.224773e-02 -0.9974 -14.0511 657.4619)" gradientUnits="userSpaceOnUse">
				<stop  offset="0" style="stop-color:#4DC6BD"/>
				<stop  offset="0.2356" style="stop-color:#50C2BE"/>
				<stop  offset="0.4744" style="stop-color:#58B6C3"/>
				<stop  offset="0.7146" style="stop-color:#65A1CA"/>
				<stop  offset="0.9547" style="stop-color:#7785D5"/>
				<stop  offset="1" style="stop-color:#7B7FD7"/>
			</radialGradient>
			<path class="st58" d="M223,330l63,78c2.7-19.3,5.3-38.7,8-58L223,330z"/>
			
				<radialGradient id="SVGID_58_" cx="158.7363" cy="259.6044" r="86.5714" gradientTransform="matrix(1 0 0 -1 0 666)" gradientUnits="userSpaceOnUse">
				<stop  offset="0" style="stop-color:#4EE3B1"/>
				<stop  offset="0.9946" style="stop-color:#858CE2"/>
			</radialGradient>
			<path class="st59" d="M208,407.5l-9,38l87-37.5L208,407.5z"/>
		</g>
		<g id="highlights-12" class="st5">
			<path class="st6" d="M292,349c-8.7-36.3-17.3-72.7-26-109l30,110l61,44l-62-40l-6,35l3-36l-36-14L292,349z"/>
			<path class="st6" d="M275,462l-12,69l-38-8l37,11l-16,22l20-22l36-12l-36,9L275,462z"/>
		</g>
	</g>
</g>
</svg>
