<svg id="scroll" xmlns="http://www.w3.org/2000/svg" xmlns:xlink="http://www.w3.org/1999/xlink" viewBox="0 0 201 264.8234"><defs><radialGradient id="radial-gradient" cx="-32.1211" cy="-2.9719" r="457.8578" gradientUnits="userSpaceOnUse"><stop offset="0" stop-color="#32bf53"/><stop offset="0.3524" stop-color="#4c8782"/><stop offset="0.7922" stop-color="#6946b9"/><stop offset="1" stop-color="#752dce"/></radialGradient><radialGradient id="radial-gradient-2" cx="-119.9553" cy="69.345" r="217.7854" gradientTransform="translate(3.6981 4.5991) rotate(-1.8969)" gradientUnits="userSpaceOnUse"><stop offset="0" stop-color="#b6e473"/><stop offset="1" stop-color="#3fbfc4"/></radialGradient><radialGradient id="radial-gradient-3" cx="42.2393" cy="11.614" r="198.9843" gradientTransform="translate(3.6981 4.5991) rotate(-1.8969)" gradientUnits="userSpaceOnUse"><stop offset="0" stop-color="#76eaa9"/><stop offset="1" stop-color="#7388ff"/></radialGradient><radialGradient id="radial-gradient-4" cx="29.9968" cy="91.6237" r="137.2539" gradientTransform="translate(3.6981 4.5991) rotate(-1.8969)" gradientUnits="userSpaceOnUse"><stop offset="0" stop-color="#78c6bd"/><stop offset="0.2356" stop-color="#77c2c1"/><stop offset="0.4744" stop-color="#74b6cc"/><stop offset="0.7146" stop-color="#6fa1df"/><stop offset="0.9547" stop-color="#6885f9"/><stop offset="1" stop-color="#667fff"/></radialGradient><radialGradient id="radial-gradient-5" cx="-11.8012" cy="148.4015" r="155.4494" gradientTransform="translate(3.6981 4.5991) rotate(-1.8969)" gradientUnits="userSpaceOnUse"><stop offset="0" stop-color="#2dc6bd"/><stop offset="0.1933" stop-color="#31c4be"/><stop offset="0.3894" stop-color="#3dbec0"/><stop offset="0.5866" stop-color="#52b3c4"/><stop offset="0.7848" stop-color="#6ea5ca"/><stop offset="0.9819" stop-color="#9292d1"/><stop offset="1" stop-color="#9690d2"/></radialGradient><radialGradient id="radial-gradient-6" cx="166.9153" cy="168.3682" r="170.2448" gradientTransform="translate(3.6981 4.5991) rotate(-1.8969)" gradientUnits="userSpaceOnUse"><stop offset="0" stop-color="#97aaea"/><stop offset="0.6399" stop-color="#61c7d1"/><stop offset="1" stop-color="#48d5c5"/></radialGradient><radialGradient id="radial-gradient-7" cx="33.1102" cy="147.5639" r="73.7703" gradientTransform="translate(3.6981 4.5991) rotate(-1.8969)" gradientUnits="userSpaceOnUse"><stop offset="0" stop-color="#4dc6bd"/><stop offset="0.2373" stop-color="#51c4c1"/><stop offset="0.4778" stop-color="#5dbecc"/><stop offset="0.7198" stop-color="#72b4df"/><stop offset="0.9615" stop-color="#8ea7fa"/><stop offset="1" stop-color="#93a4ff"/></radialGradient><radialGradient id="radial-gradient-8" cx="2.7138" cy="171.2771" r="159.9856" gradientTransform="translate(3.6981 4.5991) rotate(-1.8969)" gradientUnits="userSpaceOnUse"><stop offset="0" stop-color="#4dc6bd"/><stop offset="0.2055" stop-color="#50c2be"/><stop offset="0.4139" stop-color="#5bb6bf"/><stop offset="0.6237" stop-color="#6ca1c2"/><stop offset="0.833" stop-color="#8385c5"/><stop offset="1" stop-color="#9b69c9"/></radialGradient><radialGradient id="radial-gradient-9" cx="17.6213" cy="201.1533" r="116.4421" gradientTransform="translate(3.6981 4.5991) rotate(-1.8969)" gradientUnits="userSpaceOnUse"><stop offset="0" stop-color="#79c6bd"/><stop offset="0.1838" stop-color="#79c2bd"/><stop offset="0.3702" stop-color="#78b6bf"/><stop offset="0.5578" stop-color="#76a1c1"/><stop offset="0.7463" stop-color="#7485c4"/><stop offset="0.9337" stop-color="#7161c7"/><stop offset="1" stop-color="#7052c9"/></radialGradient></defs><g id="left-bottom"><g id="inner"><path d="M201,59l-29,80q-8.5,34.7308-17,69.4615l-33.6767,56.3619-26.31-39.1506q-10.4184-42.6786-20.8369-85.3571Q37.088,70.658,0,1L99,45Z" style="fill:url(#radial-gradient)"/></g><g id="_Layer_" data-name="&lt;Layer&gt;"><path d="M78,61l1,3s-1.3913,26.0872-4,75l-1.307,1.832L0,0Z" style="fill:url(#radial-gradient-2)"/><path d="M81,63l5,7,61,51,5,1.4615L164,77Z" style="fill:url(#radial-gradient-3)"/><path d="M81,63q-.5,3.5-1,7l15,84c15.6845-7.5821,31.7435-16.1958,48-26q4.5642-2.7526,9-5.5385Z" style="fill:url(#radial-gradient-4)"/><path d="M152,122.4615,145,139l-44,80-6,7q-.5-7-1-14V158l2-5Z" style="fill:url(#radial-gradient-5)"/><path d="M73.693,140.832Q75.3465,142.916,77,145l15,9,4-1L81,63l-3-2Q75.8465,100.916,73.693,140.832Z" style="fill:url(#radial-gradient-6)"/><path d="M96,153q-.5,36.5-1,73-10.6536-42.5839-21.307-85.168Z" style="fill:url(#radial-gradient-7)"/><path d="M152,122.4615,95,226l5-2,24-23,3-5Z" style="fill:url(#radial-gradient-8)"/><path d="M127,196,95,226l25.2908,37.857Z" style="fill:url(#radial-gradient-9)"/></g><g id="highlights" style="opacity:0.5"><path d="M89,109q4,21.5,8,43l32-17L97,154q-.5,13-1,26-.5-13.5-1-27Z" style="fill:#f2f2f2"/><path d="M95,226l11,16-9-16q19.2458-19.7518,19-20Q115.7468,205.747,95,226Z" style="fill:#f2f2f2"/></g></g></svg>