<svg id="scroll" xmlns="http://www.w3.org/2000/svg" xmlns:xlink="http://www.w3.org/1999/xlink" viewBox="0 0 224.8369 402.2455"><defs><radialGradient id="radial-gradient" cx="-44.0352" cy="-38.0958" r="472.4085" gradientTransform="translate(16.5389 -12.241) rotate(4.1431)" gradientUnits="userSpaceOnUse"><stop offset="0" stop-color="#1fbf8a"/><stop offset="0.239" stop-color="#389f90"/><stop offset="0.756" stop-color="#6a5e9d"/><stop offset="1" stop-color="#7e45a2"/></radialGradient><radialGradient id="radial-gradient-2" cx="110.5893" cy="129.3481" r="100.144" gradientUnits="userSpaceOnUse"><stop offset="0" stop-color="#4dcbbb"/><stop offset="0.377" stop-color="#51ccbc"/><stop offset="0.7584" stop-color="#5dcdbf"/><stop offset="1" stop-color="#69cfc2"/></radialGradient><radialGradient id="radial-gradient-3" cx="-2.1999" cy="3.4114" r="397.1773" gradientTransform="translate(16.2489 -11.5352) rotate(3.7987)" gradientUnits="userSpaceOnUse"><stop offset="0" stop-color="#76f8a9"/><stop offset="1" stop-color="#704aff"/></radialGradient><radialGradient id="radial-gradient-4" cx="36.4231" cy="100.1452" r="208.6642" gradientTransform="translate(16.5389 -12.241) rotate(4.1431)" gradientUnits="userSpaceOnUse"><stop offset="0" stop-color="#4eddb6"/><stop offset="1" stop-color="#b443eb"/></radialGradient><radialGradient id="radial-gradient-5" cx="47.8201" cy="-15.2747" r="262.2353" gradientUnits="userSpaceOnUse"><stop offset="0" stop-color="#4dd6be"/><stop offset="0.1924" stop-color="#4fd2be"/><stop offset="0.3875" stop-color="#57c6c0"/><stop offset="0.5838" stop-color="#63b1c1"/><stop offset="0.781" stop-color="#7495c4"/><stop offset="0.9772" stop-color="#8971c8"/><stop offset="1" stop-color="#8c6cc8"/></radialGradient><radialGradient id="radial-gradient-6" cx="241.6662" cy="222.3516" r="174.371" gradientUnits="userSpaceOnUse"><stop offset="0" stop-color="#924396"/><stop offset="1" stop-color="#5abdea"/></radialGradient><radialGradient id="radial-gradient-7" cx="231.0382" cy="329.8777" r="205.107" gradientUnits="userSpaceOnUse"><stop offset="0" stop-color="#6b78d4"/><stop offset="0.2841" stop-color="#6e7cd4"/><stop offset="0.572" stop-color="#7688d4"/><stop offset="0.8609" stop-color="#839cd4"/><stop offset="1" stop-color="#8ba9d4"/></radialGradient><radialGradient id="radial-gradient-8" cx="215.1607" cy="250.1758" r="127.4927" gradientUnits="userSpaceOnUse"><stop offset="0" stop-color="#714aac"/><stop offset="0.2931" stop-color="#885cb5"/><stop offset="0.7444" stop-color="#a673c1"/><stop offset="1" stop-color="#b17cc6"/></radialGradient><radialGradient id="radial-gradient-9" cx="264.9058" cy="293.6074" r="156.6053" gradientTransform="translate(16.5389 -12.241) rotate(4.1431)" gradientUnits="userSpaceOnUse"><stop offset="0" stop-color="#6c49c1"/><stop offset="0.2292" stop-color="#6f4dc3"/><stop offset="0.4615" stop-color="#7659c8"/><stop offset="0.6952" stop-color="#836ed0"/><stop offset="0.9286" stop-color="#958adc"/><stop offset="1" stop-color="#9c94e0"/></radialGradient><radialGradient id="radial-gradient-10" cx="267.9461" cy="432.5927" r="261.4565" gradientTransform="translate(16.5389 -12.241) rotate(4.1431)" gradientUnits="userSpaceOnUse"><stop offset="0" stop-color="#6b78d4"/><stop offset="0.2871" stop-color="#6e7cd3"/><stop offset="0.5781" stop-color="#7688d0"/><stop offset="0.8699" stop-color="#859ccc"/><stop offset="1" stop-color="#8da8c9"/></radialGradient><radialGradient id="radial-gradient-11" cx="208.1681" cy="319.1204" r="135.2652" gradientTransform="translate(16.5389 -12.241) rotate(4.1431)" gradientUnits="userSpaceOnUse"><stop offset="0" stop-color="#9062d4"/><stop offset="0.2373" stop-color="#9066d3"/><stop offset="0.4778" stop-color="#8f72d1"/><stop offset="0.7198" stop-color="#8e87ce"/><stop offset="0.9615" stop-color="#8da3ca"/><stop offset="1" stop-color="#8da8c9"/></radialGradient><radialGradient id="radial-gradient-12" cx="101.1454" cy="416.1267" r="211.1568" xlink:href="#radial-gradient-10"/><radialGradient id="radial-gradient-13" cx="126.2044" cy="556.4505" r="315.6975" gradientTransform="translate(16.5389 -12.241) rotate(4.1431)" gradientUnits="userSpaceOnUse"><stop offset="0" stop-color="#7835c7"/><stop offset="0.18" stop-color="#7639c8"/><stop offset="0.3624" stop-color="#7145c9"/><stop offset="0.5461" stop-color="#695acc"/><stop offset="0.7306" stop-color="#5d76d0"/><stop offset="0.9141" stop-color="#4e9ad4"/><stop offset="1" stop-color="#46aed7"/></radialGradient><radialGradient id="radial-gradient-14" cx="126.2959" cy="355.7481" r="117.9695" gradientTransform="translate(16.5389 -12.241) rotate(4.1431)" gradientUnits="userSpaceOnUse"><stop offset="0" stop-color="#5a43c1"/><stop offset="0.2151" stop-color="#5e47c2"/><stop offset="0.4332" stop-color="#6a52c7"/><stop offset="0.6526" stop-color="#7f66ce"/><stop offset="0.8718" stop-color="#9b81d9"/><stop offset="1" stop-color="#af94e0"/></radialGradient><radialGradient id="radial-gradient-15" cx="61.2342" cy="262.192" r="159.5913" gradientTransform="translate(16.5389 -12.241) rotate(4.1431)" gradientUnits="userSpaceOnUse"><stop offset="0" stop-color="#5a49c1"/><stop offset="0.2292" stop-color="#5e4dc3"/><stop offset="0.4615" stop-color="#6859c8"/><stop offset="0.6952" stop-color="#7a6ed0"/><stop offset="0.9286" stop-color="#938adc"/><stop offset="1" stop-color="#9c94e0"/></radialGradient><radialGradient id="radial-gradient-16" cx="33.5967" cy="9.7802" r="192.0921" gradientUnits="userSpaceOnUse"><stop offset="0" stop-color="#4dcbbd"/><stop offset="0.2587" stop-color="#4fc7be"/><stop offset="0.5209" stop-color="#56bbc3"/><stop offset="0.7838" stop-color="#61a7ca"/><stop offset="1" stop-color="#6d90d2"/></radialGradient><radialGradient id="radial-gradient-17" cx="-56.7339" cy="122.4273" r="230.5519" gradientTransform="translate(16.5389 -12.241) rotate(4.1431)" gradientUnits="userSpaceOnUse"><stop offset="0" stop-color="#4dc6bd"/><stop offset="0.2356" stop-color="#50c2be"/><stop offset="0.4744" stop-color="#58b6c3"/><stop offset="0.7146" stop-color="#65a1ca"/><stop offset="0.9547" stop-color="#7785d5"/><stop offset="1" stop-color="#7b7fd7"/></radialGradient><radialGradient id="radial-gradient-18" cx="12.2157" cy="194.3956" r="86.5714" gradientUnits="userSpaceOnUse"><stop offset="0" stop-color="#4ee3b1"/><stop offset="0.9946" stop-color="#858ce2"/></radialGradient></defs><g id="right-bottom"><g id="inner"><path d="M18.4794,207.4615,0,306.1908,28.7184,380.333l39.52,21.9125,110.2283-99.5993q7.4943-25.2257,14.9887-50.4513,8.4252-10.678,16.85-21.356,6.76-19.25,13.5193-38.5-3.83-17.1633-7.66-34.3266-2.6766-28.0626-5.3533-56.1251l-27.3319-57.426-70-44-57,19-29,39q-8,38-16,76Q14.9794,170.9616,18.4794,207.4615Z" style="fill:url(#radial-gradient)"/></g><g id="_Layer_" data-name="&lt;Layer&gt;"><path d="M68.4794,22l3,3q3.5,47.5,7,95l-30-1.5385q4-35,8-70Z" style="fill:url(#radial-gradient-2)"/><path d="M208.4794,82l-25-37.5385-35-28L112.4794,0l20,22,57,49Z" style="fill:url(#radial-gradient-3)"/><path d="M48.4794,118q6.5,38.7308,13,77.4615l6,2.5385h76l-64-78-3-2Z" style="fill:url(#radial-gradient-4)"/><path d="M224.8369,192.01l-3.3575-.01-76-51-33-133V0l96,82Q216.6582,137.005,224.8369,192.01Z" style="fill:url(#radial-gradient-5)"/><path d="M210.4794,231l14.3575-38.99q-38.66-26.8632-77.3205-53.7266L143.4794,141l-6,48,3,10,68,32Z" style="fill:url(#radial-gradient-6)"/><path d="M139.4794,196l2,8q-2,15.5-4,31l-107,63q5.5-22.7693,11-45.5385l11-19,6-4.4615,68-30Z" style="fill:url(#radial-gradient-7)"/><path d="M193.3828,252.522,210.4794,231l-71-35,3,8,46,46Z" style="fill:url(#radial-gradient-8)"/><path d="M139.4794,196q-4,20-8,40,1,3.5,2,7l42,58,3.2475,1.5939q7.3278-25.0359,14.6559-50.0719Z" style="fill:url(#radial-gradient-9)"/><path d="M131.4794,236l-101,62,88,25q7-41.5,14-83Z" style="fill:url(#radial-gradient-10)"/><path d="M131.4794,236q-7,45-14,90l49-17q6.1239-3.2029,12.2475-6.4061Z" style="fill:url(#radial-gradient-11)"/><path d="M118.4794,321l-30,38-48-48-10-13Z" style="fill:url(#radial-gradient-12)"/><path d="M30.4794,298l59,60q-9.5,20.5-19,41l-2.2408,3.2455L39.4794,329Z" style="fill:url(#radial-gradient-13)"/><path d="M44.0405,376.43q12.099,12.9078,24.1981,25.8157L30.4794,298Q37.26,337.215,44.0405,376.43Z" style="fill:url(#radial-gradient-14)"/><path d="M178.7,302.9666,118.4794,321l-30,36L68.2386,402.2455Z" style="fill:url(#radial-gradient-15)"/><path d="M112.4794.4615,68.4794,22q4,48,8,96l8,5,60,16,3.037-.7167Z" style="fill:url(#radial-gradient-16)"/><path d="M76.4794,118l63,78q4-29,8-58Z" style="fill:url(#radial-gradient-17)"/><path d="M61.4794,195.4615l-9,38,87-37.4615Z" style="fill:url(#radial-gradient-18)"/></g><g id="highlights" style="opacity:0.5"><path d="M145.4794,137q-13-54.5-26-109l30,110,61,44-62-40-6,35,3-36-36-14Z" style="fill:#f2f2f2"/><path d="M128.4794,250l-12,69-38-8,37,11-16,22,20-22,36-12-36,9Z" style="fill:#f2f2f2"/></g></g></svg>