<!-- Generated by IcoMoon.io -->
<svg version="1.1" xmlns="http://www.w3.org/2000/svg" width="33" height="32" viewBox="0 0 33 32">
<title>adjustments</title>
<path d="M31 0h-29c-0.822 0-2 1.178-2 2v28c0 0.822 1.178 2 2 2h29c0.822 0 2-1.178 2-2v-28c0-0.822-1.178-2-2-2zM32 30c-0.006 0.284-0.716 0.994-1 1h-29c-0.284-0.006-0.994-0.716-1-1v-28c0.006-0.284 0.716-0.994 1-1h29c0.284 0.006 0.994 0.716 1 1v28zM16.5 5.5c-1.103 0-2 0.897-2 2s0.897 2 2 2 2-0.897 2-2-0.897-2-2-2zM16.5 8.5c-0.551 0-1-0.449-1-1s0.449-1 1-1 1 0.449 1 1-0.449 1-1 1zM24.5 21.5c-1.103 0-2 0.897-2 2s0.897 2 2 2 2-0.897 2-2-0.897-2-2-2zM24.5 24.5c-0.551 0-1-0.449-1-1s0.449-1 1-1 1 0.449 1 1-0.449 1-1 1zM8.5 16.5c-1.103 0-2 0.897-2 2s0.897 2 2 2 2-0.897 2-2-0.897-2-2-2zM8.5 19.5c-0.551 0-1-0.449-1-1s0.449-1 1-1 1 0.449 1 1-0.449 1-1 1zM8.5 15c0.276 0 0.5-0.224 0.5-0.5v-9c0-0.276-0.224-0.5-0.5-0.5s-0.5 0.224-0.5 0.5v9c0 0.276 0.224 0.5 0.5 0.5zM8.5 22c-0.276 0-0.5 0.224-0.5 0.5v3c0 0.276 0.224 0.5 0.5 0.5s0.5-0.224 0.5-0.5v-3c0-0.276-0.224-0.5-0.5-0.5zM16.5 11c-0.276 0-0.5 0.224-0.5 0.5v14c0 0.276 0.224 0.5 0.5 0.5s0.5-0.224 0.5-0.5v-14c0-0.276-0.224-0.5-0.5-0.5zM24.5 20c0.276 0 0.5-0.224 0.5-0.5v-14c0-0.276-0.224-0.5-0.5-0.5s-0.5 0.224-0.5 0.5v14c0 0.276 0.224 0.5 0.5 0.5z"></path>
</svg>
