<?xml version="1.0" encoding="utf-8"?>
<!-- Generator: Adobe Illustrator 24.1.3, SVG Export Plug-In . SVG Version: 6.00 Build 0)  -->
<svg version="1.1" id="scroll" xmlns="http://www.w3.org/2000/svg" xmlns:xlink="http://www.w3.org/1999/xlink" x="0px" y="0px"
	 viewBox="0 0 600 1000" style="enable-background:new 0 0 600 1000;" xml:space="preserve">
<style type="text/css">
	.st0{fill:url(#SVGID_1_);}
	.st1{fill:url(#SVGID_2_);}
	.st2{fill:url(#SVGID_3_);}
	.st3{fill:url(#SVGID_4_);}
	.st4{fill:url(#SVGID_5_);}
	.st5{fill:url(#SVGID_6_);}
	.st6{fill:url(#SVGID_7_);}
	.st7{opacity:0.5;}
	.st8{fill:#F2F2F2;}
	.st9{fill:url(#SVGID_8_);}
	.st10{fill:url(#SVGID_9_);}
	.st11{fill:url(#SVGID_10_);}
	.st12{fill:url(#SVGID_11_);}
	.st13{fill:url(#SVGID_12_);}
	.st14{fill:url(#SVGID_13_);}
	.st15{fill:url(#SVGID_14_);}
	.st16{fill:url(#SVGID_15_);}
	.st17{fill:url(#SVGID_16_);}
	.st18{fill:url(#SVGID_17_);}
	.st19{fill:url(#SVGID_18_);}
	.st20{fill:url(#SVGID_19_);}
	.st21{fill:url(#SVGID_20_);}
	.st22{fill:url(#SVGID_21_);}
	.st23{fill:url(#SVGID_22_);}
	.st24{fill:url(#SVGID_23_);}
	.st25{fill:url(#SVGID_24_);}
	.st26{fill:url(#SVGID_25_);}
	.st27{fill:url(#SVGID_26_);}
	.st28{fill:url(#SVGID_27_);}
	.st29{fill:url(#SVGID_28_);}
	.st30{fill:url(#SVGID_29_);}
	.st31{fill:url(#SVGID_30_);}
	.st32{fill:url(#SVGID_31_);}
	.st33{fill:url(#SVGID_32_);}
	.st34{fill:url(#SVGID_33_);}
	.st35{fill:url(#SVGID_34_);}
	.st36{fill:url(#SVGID_35_);}
	.st37{fill:url(#SVGID_36_);}
	.st38{fill:url(#SVGID_37_);}
	.st39{fill:url(#SVGID_38_);}
	.st40{fill:url(#SVGID_39_);}
	.st41{fill:url(#SVGID_40_);}
	.st42{fill:url(#SVGID_41_);}
	.st43{fill:url(#SVGID_42_);}
	.st44{fill:url(#SVGID_43_);}
	.st45{fill:url(#SVGID_44_);}
	.st46{fill:url(#SVGID_45_);}
	.st47{fill:url(#SVGID_46_);}
	.st48{fill:url(#SVGID_47_);}
	.st49{fill:url(#SVGID_48_);}
	.st50{fill:url(#SVGID_49_);}
	.st51{fill:url(#SVGID_50_);}
	.st52{fill:url(#SVGID_51_);}
	.st53{fill:url(#SVGID_52_);}
	.st54{fill:url(#SVGID_53_);}
	.st55{fill:url(#SVGID_54_);}
	.st56{fill:url(#SVGID_55_);}
	.st57{fill:url(#SVGID_56_);}
	.st58{fill:url(#SVGID_57_);}
	.st59{fill:url(#SVGID_58_);}
	.st60{fill:url(#SVGID_59_);}
	.st61{fill:url(#SVGID_60_);}
	.st62{fill:url(#SVGID_61_);}
	.st63{fill:url(#SVGID_62_);}
	.st64{fill:url(#SVGID_63_);}
</style>
<g id="right">
	<g id="inner">
		
			<radialGradient id="SVGID_1_" cx="329.3908" cy="694.2301" r="240.2445" gradientTransform="matrix(0.9995 -3.310110e-02 -3.310110e-02 -0.9995 11.7308 1005.8223)" gradientUnits="userSpaceOnUse">
			<stop  offset="0" style="stop-color:#00CEAF"/>
			<stop  offset="0.2554" style="stop-color:#23AFAD"/>
			<stop  offset="0.7612" style="stop-color:#6476A9"/>
			<stop  offset="1" style="stop-color:#7D5FA7"/>
		</radialGradient>
		<path class="st0" d="M370,256c-2.2,7.1-4.4,14.2-6.6,21.3l-6.1,28.2l-3.7,40.1l-19,61.7l58.6,17.1l36.9,27.8l38.5,14.7
			c-6.7-32.5-13.5-64.9-20.2-97.4L370,256z"/>
	</g>
	<g id="_Layer_">
		
			<radialGradient id="SVGID_2_" cx="375.5842" cy="667.0903" r="130.5917" gradientTransform="matrix(0.9995 -3.310110e-02 -3.310110e-02 -0.9995 11.7308 1005.8223)" gradientUnits="userSpaceOnUse">
			<stop  offset="0" style="stop-color:#00C4BA"/>
			<stop  offset="0.1848" style="stop-color:#17C9B7"/>
			<stop  offset="0.7386" style="stop-color:#58D9AD"/>
			<stop  offset="1" style="stop-color:#71DFA9"/>
		</radialGradient>
		<path class="st1" d="M387,311c-4.7,24.2-9.3,48.3-14,72.5l5,0.5l65-12l6-2c-2.3-2.3-4.6-4.7-7-7l-50-47L387,311z"/>
		
			<radialGradient id="SVGID_3_" cx="449.4396" cy="615.9231" r="137.0637" gradientTransform="matrix(1 0 0 -1 0 1000)" gradientUnits="userSpaceOnUse">
			<stop  offset="0" style="stop-color:#04C0C1"/>
			<stop  offset="0.5589" style="stop-color:#2AD4B4"/>
			<stop  offset="1" style="stop-color:#43E2AB"/>
		</radialGradient>
		<path class="st2" d="M387,291l0.1,22l61.9,57L387,291z"/>
		
			<radialGradient id="SVGID_4_" cx="462.5625" cy="631.3971" r="185.2287" gradientTransform="matrix(0.9995 -3.310110e-02 -3.310110e-02 -0.9995 11.7308 1005.8223)" gradientUnits="userSpaceOnUse">
			<stop  offset="0" style="stop-color:#00C1BE"/>
			<stop  offset="0.5826" style="stop-color:#2AD9A8"/>
			<stop  offset="1" style="stop-color:#43E89A"/>
		</radialGradient>
		<path class="st3" d="M370,256l18,40l61,74L370,256z"/>
		
			<radialGradient id="SVGID_5_" cx="386.8833" cy="632.8288" r="114.2336" gradientTransform="matrix(1 0 0 -1 0 1000)" gradientUnits="userSpaceOnUse">
			<stop  offset="0" style="stop-color:#6CD3B5"/>
			<stop  offset="0.2731" style="stop-color:#68D4B6"/>
			<stop  offset="0.5499" style="stop-color:#5CD5B7"/>
			<stop  offset="0.8274" style="stop-color:#48D8BA"/>
			<stop  offset="1" style="stop-color:#37DABC"/>
		</radialGradient>
		<path class="st4" d="M449,370l-3,4l-33,25l-3,1l-37-16.5L449,370z"/>
		
			<radialGradient id="SVGID_6_" cx="425.044" cy="633.5883" r="96.5019" gradientTransform="matrix(1 0 0 -1 0 1000)" gradientUnits="userSpaceOnUse">
			<stop  offset="0" style="stop-color:#76EAA9"/>
			<stop  offset="1" style="stop-color:#6760FF"/>
		</radialGradient>
		<path class="st5" d="M449,370l-39,30l35,29c0.7-3,1.3-6,2-9c0.7-14.7,1.3-29.3,2-44V370z"/>
		
			<radialGradient id="SVGID_7_" cx="440.039" cy="710.4962" r="169.9937" gradientTransform="matrix(0.9995 -3.310110e-02 -3.310110e-02 -0.9995 11.7308 1005.8223)" gradientUnits="userSpaceOnUse">
			<stop  offset="0" style="stop-color:#4DC6BD"/>
			<stop  offset="0.2204" style="stop-color:#51C3BE"/>
			<stop  offset="0.4438" style="stop-color:#5DBABF"/>
			<stop  offset="0.6687" style="stop-color:#72AAC2"/>
			<stop  offset="0.8932" style="stop-color:#8E94C7"/>
			<stop  offset="1" style="stop-color:#9E88C9"/>
		</radialGradient>
		<path class="st6" d="M449,370c-1.3,19.7-2.7,39.3-4,59l24.2,37.4C462.5,434.3,455.7,402.1,449,370z"/>
	</g>
	<g id="highlights-9" class="st7">
		<path class="st8" d="M449,370c8.1,38.6,12.1,58,12,58c-0.1,0-4.1-18.3-12-55c-0.7,9.7-1.3,19.3-2,29c0.3-10.3,0.7-20.7,1-31
			l-25,19l24-20l-14-15l12.1,11.3C446.4,367.6,447.7,368.8,449,370z"/>
	</g>
</g>
<g id="top">
	<g id="inner-2">
		
			<radialGradient id="SVGID_8_" cx="384.7263" cy="499.6038" r="311.2107" gradientTransform="matrix(0.9995 -3.310110e-02 -3.310110e-02 -0.9995 11.7308 1005.8223)" gradientUnits="userSpaceOnUse">
			<stop  offset="0" style="stop-color:#00B5AF"/>
			<stop  offset="0.5826" style="stop-color:#2AD5A1"/>
			<stop  offset="1" style="stop-color:#43E899"/>
		</radialGradient>
		<path class="st9" d="M235,294.6l20.4,42.3c2.5,14.3,4.9,28.5,7.4,42.8c5.3,19.5,10.6,39,15.9,58.5l28.4,63.8
			c22-39.6,43.9-79.3,65.9-118.9c1.7-32.7,3.4-65.4,5-98.1l-76-107L235,294.6z"/>
	</g>
	<g id="shapes_copy_5">
		
			<radialGradient id="SVGID_9_" cx="468.7964" cy="265.1591" r="220.0352" gradientTransform="matrix(-3.310104e-02 -0.9995 -0.9995 3.310104e-02 491.5493 877.2838)" gradientUnits="userSpaceOnUse">
			<stop  offset="0" style="stop-color:#FFFF5E"/>
			<stop  offset="0.4925" style="stop-color:#99F77A"/>
			<stop  offset="0.8381" style="stop-color:#57F18C"/>
			<stop  offset="1" style="stop-color:#3EEF93"/>
		</radialGradient>
		<path class="st10" d="M229,272c2,7.5,4,15,6,22.6c17.3,18.8,34.6,37.5,51.9,56.3L303,346c3.3-13.7,6.7-27.3,10-41l-79-32L229,272z
			"/>
		
			<radialGradient id="SVGID_10_" cx="485.2003" cy="212.2193" r="122.5169" gradientTransform="matrix(-3.310104e-02 -0.9995 -0.9995 3.310104e-02 491.5493 877.2838)" gradientUnits="userSpaceOnUse">
			<stop  offset="0" style="stop-color:#FFFF40"/>
			<stop  offset="0.4925" style="stop-color:#99F76C"/>
			<stop  offset="0.8381" style="stop-color:#57F188"/>
			<stop  offset="1" style="stop-color:#3EEF93"/>
		</radialGradient>
		<path class="st11" d="M229,272l74.2-2.7l1.8,2.7c1.7,10.7,3.3,21.3,5,32v4L229,272z"/>
		
			<radialGradient id="SVGID_11_" cx="674.0019" cy="255.4451" r="129.6362" gradientTransform="matrix(-3.310104e-02 -0.9995 -0.9995 3.310104e-02 491.5493 877.2838)" gradientUnits="userSpaceOnUse">
			<stop  offset="0" style="stop-color:#FCEE21"/>
			<stop  offset="0.4677" style="stop-color:#A0F576"/>
			<stop  offset="0.8301" style="stop-color:#5EF9B3"/>
			<stop  offset="1" style="stop-color:#45FBCA"/>
		</radialGradient>
		<path class="st12" d="M229,272l74.2-2.7l3.8-5.3l3.3-21.9L301,171L229,272z"/>
		
			<radialGradient id="SVGID_12_" cx="264.3748" cy="634.605" r="149.4797" gradientTransform="matrix(0.9995 -3.310110e-02 -3.310110e-02 -0.9995 11.7308 1005.8223)" gradientUnits="userSpaceOnUse">
			<stop  offset="0" style="stop-color:#FFEE60"/>
			<stop  offset="0.4754" style="stop-color:#A0F596"/>
			<stop  offset="0.8326" style="stop-color:#5EF9BC"/>
			<stop  offset="1" style="stop-color:#45FBCA"/>
		</radialGradient>
		<path class="st13" d="M300.6,423.4c-4.6-24.2-9.1-48.3-13.7-72.5L301,343l1,2c-0.3,25.3-0.7,50.7-1,76L300.6,423.4z"/>
		
			<radialGradient id="SVGID_13_" cx="455.3518" cy="647.3114" r="173.0918" gradientTransform="matrix(0.9995 -3.310110e-02 -3.310110e-02 -0.9995 11.7308 1005.8223)" gradientUnits="userSpaceOnUse">
			<stop  offset="0" style="stop-color:#00C9F4"/>
			<stop  offset="0.4345" style="stop-color:#50DAC4"/>
			<stop  offset="0.8196" style="stop-color:#92E99C"/>
			<stop  offset="1" style="stop-color:#ABEE8D"/>
		</radialGradient>
		<path class="st14" d="M318,431c3.9-8.5,7.8-17,11.7-25.5c0.1-1.2,0.2-2.3,0.3-3.5l-18-89l-2-5l-9,35l-0.4,80.4l2.4,2.6l13,6
			L318,431z"/>
		
			<radialGradient id="SVGID_14_" cx="229.7178" cy="611.3626" r="153.9388" gradientTransform="matrix(1 0 0 -1 0 1000)" gradientUnits="userSpaceOnUse">
			<stop  offset="0" style="stop-color:#C8E0AB"/>
			<stop  offset="6.490000e-02" style="stop-color:#C1E1AB"/>
			<stop  offset="0.7003" style="stop-color:#80ECA7"/>
			<stop  offset="1" style="stop-color:#67F0A5"/>
		</radialGradient>
		<path class="st15" d="M300.6,423.4c2.2,26.3,4.4,52.5,6.6,78.8L318,431L300.6,423.4z"/>
		
			<radialGradient id="SVGID_15_" cx="246.8448" cy="782.648" r="70.5853" gradientTransform="matrix(0.9995 -3.310110e-02 -3.310110e-02 -0.9995 11.7308 1005.8223)" gradientUnits="userSpaceOnUse">
			<stop  offset="0" style="stop-color:#64F968"/>
			<stop  offset="0.1919" style="stop-color:#6AF66F"/>
			<stop  offset="1" style="stop-color:#7FE988"/>
		</radialGradient>
		<path class="st16" d="M310,242l21.2-1.6c1.3-1,2.6-2,3.9-3.1c6-5,11.5-10.5,16.5-16.6L301,171L310,242z"/>
		
			<radialGradient id="SVGID_16_" cx="443.0924" cy="761.0346" r="133.5145" gradientTransform="matrix(0.9995 -3.310110e-02 -3.310110e-02 -0.9995 11.7308 1005.8223)" gradientUnits="userSpaceOnUse">
			<stop  offset="0" style="stop-color:#00B5BE"/>
			<stop  offset="0.5826" style="stop-color:#2AD5A8"/>
			<stop  offset="1" style="stop-color:#43E89A"/>
		</radialGradient>
		<path class="st17" d="M310,242l3,4l71,44l3,0.5c-5.4-11.6-11.2-23.3-17.3-35.4c-6-11.9-12.1-23.3-18.1-34.4L310,242z"/>
		
			<radialGradient id="SVGID_17_" cx="463.7315" cy="665.3349" r="174.4837" gradientTransform="matrix(0.9995 -3.310110e-02 -3.310110e-02 -0.9995 11.7308 1005.8223)" gradientUnits="userSpaceOnUse">
			<stop  offset="0" style="stop-color:#00B5BB"/>
			<stop  offset="0.5826" style="stop-color:#2AD7B1"/>
			<stop  offset="1" style="stop-color:#43EBAB"/>
		</radialGradient>
		<path class="st18" d="M310,242l77,48.5v20l-2,0.5l-67-32c-2.7-11.3-5.3-22.7-8-34V242z"/>
		
			<radialGradient id="SVGID_18_" cx="433.0277" cy="621.3921" r="142.8632" gradientTransform="matrix(0.9995 -3.310110e-02 -3.310110e-02 -0.9995 11.7308 1005.8223)" gradientUnits="userSpaceOnUse">
			<stop  offset="0" style="stop-color:#00C4BA"/>
			<stop  offset="0.5826" style="stop-color:#2ADAA6"/>
			<stop  offset="1" style="stop-color:#43E89A"/>
		</radialGradient>
		<path class="st19" d="M319,278l68,32.5c-4.7,24.2-9.3,48.4-14,72.5l-3-1l-57-67l-3-7c0.3-2.7,0.7-5.3,1-8l7-21L319,278z"/>
		
			<radialGradient id="SVGID_19_" cx="459.6433" cy="526.8784" r="288.7055" gradientTransform="matrix(0.9995 -3.310110e-02 -3.310110e-02 -0.9995 11.7308 1005.8223)" gradientUnits="userSpaceOnUse">
			<stop  offset="0" style="stop-color:#009CD1"/>
			<stop  offset="0.4345" style="stop-color:#50CAB7"/>
			<stop  offset="0.8196" style="stop-color:#92EFA1"/>
			<stop  offset="1" style="stop-color:#ABFD99"/>
		</radialGradient>
		<path class="st20" d="M310,308l19.7,97.5l43.3-22.4L310,308z"/>
		
			<radialGradient id="SVGID_20_" cx="343.6051" cy="704.0769" r="79.8852" gradientTransform="matrix(1 0 0 -1 0 1000)" gradientUnits="userSpaceOnUse">
			<stop  offset="0" style="stop-color:#34E09F"/>
			<stop  offset="0.6478" style="stop-color:#6CF27C"/>
			<stop  offset="1" style="stop-color:#85FA6C"/>
		</radialGradient>
		<path class="st21" d="M319,278l-9,30c-2.3-12.9-4.6-25.8-6.8-38.7c2.3-9.1,4.6-18.2,6.8-27.3L319,278z"/>
	</g>
	<g id="highlights_copy_2" class="st7">
		<path class="st8" d="M301,171l17,17l-16-15l3,30c-1.3-10-2.7-20-4-30c-12.5,16.8-18.8,25.1-19,25C281.8,197.9,288.2,188.9,301,171
			z"/>
		<path class="st8" d="M309,246l-7,22l-40,3l40-1l6,29c-1.3-10-2.7-20-4-30C305.7,261.3,307.3,253.7,309,246z"/>
		<path class="st8" d="M359,297l28,13c-2.3,12-4.7,24-7,36l6-35L359,297z"/>
	</g>
</g>
<g id="left">
	<g id="inner-3">
		
			<radialGradient id="SVGID_21_" cx="115.5448" cy="707.7112" r="469.8113" gradientTransform="matrix(1 0 0 -1 0 1000)" gradientUnits="userSpaceOnUse">
			<stop  offset="0" style="stop-color:#07D887"/>
			<stop  offset="0.6478" style="stop-color:#35A08E"/>
			<stop  offset="1" style="stop-color:#4A8791"/>
		</radialGradient>
		<path class="st22" d="M229,272l58,79c10.7,24.5,21.3,49,32,73.5c2.3,13,4.7,26,7,39c0.3,18,0.7,36,1,54c6.3,24,12.7,48,19,72
			c-0.7,11.5-1.3,23-2,34.5l-24,48.5l-106-28c-24.7-28.7-49.3-57.3-74-86l32-54L229,272z"/>
	</g>
	<g id="_Layer_2">
		
			<radialGradient id="SVGID_22_" cx="139.3502" cy="647.1679" r="148.9581" gradientTransform="matrix(0.9995 -3.310110e-02 -3.310110e-02 -0.9995 11.7308 1005.8223)" gradientUnits="userSpaceOnUse">
			<stop  offset="0" style="stop-color:#FFFF40"/>
			<stop  offset="3.810000e-02" style="stop-color:#F6FE44"/>
			<stop  offset="0.5148" style="stop-color:#8FF171"/>
			<stop  offset="0.8452" style="stop-color:#4DE88E"/>
			<stop  offset="1" style="stop-color:#34E599"/>
		</radialGradient>
		<path class="st23" d="M235,289c0.3,7,0.7,14,1,21c5.7,26.7,11.3,53.3,17,80l32-30c0.7-3,1.3-6,2-9L235,289z"/>
		
			<radialGradient id="SVGID_23_" cx="283.022" cy="429.8811" r="203.9856" gradientTransform="matrix(1 0 0 -1 0 1000)" gradientUnits="userSpaceOnUse">
			<stop  offset="0" style="stop-color:#00B897"/>
			<stop  offset="0.266" style="stop-color:#25C698"/>
			<stop  offset="0.7646" style="stop-color:#66DF9A"/>
			<stop  offset="1" style="stop-color:#7FE99B"/>
		</radialGradient>
		<path class="st24" d="M287,351c7.3,25.5,14.7,51,22,76.5c1.7,10,3.3,20,5,30c-1.3,15.2-2.7,30.4-4,45.5l-3-2l-39-52l-14.3-61.8
			L287,351z"/>
		
			<radialGradient id="SVGID_24_" cx="383.2099" cy="472.2915" r="300.5038" gradientTransform="matrix(0.9995 -3.310110e-02 -3.310110e-02 -0.9995 11.7308 1005.8223)" gradientUnits="userSpaceOnUse">
			<stop  offset="0" style="stop-color:#00B5AF"/>
			<stop  offset="0.2712" style="stop-color:#26C4A8"/>
			<stop  offset="0.7662" style="stop-color:#67DE9D"/>
			<stop  offset="1" style="stop-color:#80E899"/>
		</radialGradient>
		<path class="st25" d="M270,452c-5.5,14.9-11.2,29.9-17,45c-7.6,19.7-15.3,39-23,58l-109-40l-7-4l121-222
			C246.7,343.3,258.3,397.7,270,452z"/>
		
			<radialGradient id="SVGID_25_" cx="343.2185" cy="333.8115" r="244.2034" gradientTransform="matrix(0.9995 -3.310110e-02 -3.310110e-02 -0.9995 11.7308 1005.8223)" gradientUnits="userSpaceOnUse">
			<stop  offset="0" style="stop-color:#00B5BE"/>
			<stop  offset="1.940000e-02" style="stop-color:#02B5BD"/>
			<stop  offset="0.6858" style="stop-color:#43BB95"/>
			<stop  offset="1" style="stop-color:#5CBD85"/>
		</radialGradient>
		<path class="st26" d="M140.1,558.3L114,511l115.5,41.9l0.5,5.1l-9,64l-1,2L140.1,558.3z"/>
		
			<radialGradient id="SVGID_26_" cx="217.7038" cy="497.9847" r="156.659" gradientTransform="matrix(1 0 0 -1 0 1000)" gradientUnits="userSpaceOnUse">
			<stop  offset="0" style="stop-color:#6AE8C4"/>
			<stop  offset="1" style="stop-color:#6FB57F"/>
		</radialGradient>
		<path class="st27" d="M258.6,540.4L275,512l48,66L258.6,540.4z"/>
		
			<radialGradient id="SVGID_27_" cx="295.4627" cy="321.7745" r="162.1278" gradientTransform="matrix(0.9995 -3.310110e-02 -3.310110e-02 -0.9995 11.7308 1005.8223)" gradientUnits="userSpaceOnUse">
			<stop  offset="0" style="stop-color:#168492"/>
			<stop  offset="0.6627" style="stop-color:#52BB9E"/>
			<stop  offset="1" style="stop-color:#6BD2A3"/>
		</radialGradient>
		<path class="st28" d="M229,553l-9,71l16-6l81-35l6-5l-61-38L229,553z"/>
		
			<radialGradient id="SVGID_28_" cx="228.804" cy="435.1282" r="104.3515" gradientTransform="matrix(1 0 0 -1 0 1000)" gradientUnits="userSpaceOnUse">
			<stop  offset="0" style="stop-color:#53AF90"/>
			<stop  offset="0.3035" style="stop-color:#53B194"/>
			<stop  offset="0.6111" style="stop-color:#52B5A0"/>
			<stop  offset="0.9196" style="stop-color:#50BDB4"/>
			<stop  offset="1" style="stop-color:#50BFBB"/>
		</radialGradient>
		<path class="st29" d="M323,578l-103,46l83,11.5l16-23C320.3,601,321.7,589.5,323,578z"/>
		
			<radialGradient id="SVGID_29_" cx="426.2498" cy="470.8037" r="205.2926" gradientTransform="matrix(1 0 0 -1 0 1000)" gradientUnits="userSpaceOnUse">
			<stop  offset="0" style="stop-color:#00A07F"/>
			<stop  offset="0.2554" style="stop-color:#23B28E"/>
			<stop  offset="0.7612" style="stop-color:#64D4A9"/>
			<stop  offset="1" style="stop-color:#7DE1B4"/>
		</radialGradient>
		<path class="st30" d="M274,512l-6-58c0.3-2,0.7-4,1-6l41,55c4.3,25,8.7,50,13,75L274,512z"/>
		
			<radialGradient id="SVGID_30_" cx="288.033" cy="411.5275" r="373.2329" gradientTransform="matrix(1 0 0 -1 0 1000)" gradientUnits="userSpaceOnUse">
			<stop  offset="0" style="stop-color:#6AE8BA"/>
			<stop  offset="1" style="stop-color:#6FB57F"/>
		</radialGradient>
		<path class="st31" d="M269,448c-6.2,16.7-12.5,33.5-18.8,50.2c-6.9,18.2-13.8,36.5-20.7,54.7L261,540l14.2-26.7L269,448z"/>
		
			<radialGradient id="SVGID_31_" cx="180.7245" cy="717.6838" r="82.0429" gradientTransform="matrix(1 0 0 -1 0 1000)" gradientUnits="userSpaceOnUse">
			<stop  offset="0" style="stop-color:#00B5BB"/>
			<stop  offset="0.5826" style="stop-color:#2AD7B1"/>
			<stop  offset="1" style="stop-color:#43EBAB"/>
		</radialGradient>
		<path class="st32" d="M193,366l42-77l-6-17L193,366z"/>
	</g>
	<g id="highlights_copy_3" class="st7">
		<path class="st8" d="M270,448l3,42c-1.3-13.3-2.7-26.7-4-40l-13,33l12-35c-6.3-31.3-9.3-46.9-9-47C259.3,400.9,263,416.6,270,448z
			"/>
		<path class="st8" d="M230,551l-32-9l30,12c-0.7,8.3-1.3,16.7-2,25c1.7-8.3,3.3-16.7,5-25l31-13l9-19l-10,18L230,551z"/>
		<path class="st8" d="M136,471l-18,39l57,23l-57-19l19,39l-23-42L136,471z"/>
	</g>
</g>
<g id="left-bottom">
	<g id="inner-4">
		
			<radialGradient id="SVGID_32_" cx="107.8789" cy="444.9719" r="457.8578" gradientTransform="matrix(1 0 0 -1 0 1000)" gradientUnits="userSpaceOnUse">
			<stop  offset="0" style="stop-color:#32BF53"/>
			<stop  offset="0.3524" style="stop-color:#4C8782"/>
			<stop  offset="0.7922" style="stop-color:#6946B9"/>
			<stop  offset="1" style="stop-color:#752DCE"/>
		</radialGradient>
		<path class="st33" d="M341,617l-29,80c-5.7,23.2-11.3,46.3-17,69.5l-33.7,56.4L235,783.7c-6.9-28.5-13.9-56.9-20.8-85.4
			c-24.7-46.4-49.5-92.9-74.2-139.3l99,44L341,617z"/>
	</g>
	<g id="_Layer_3">
		
			<radialGradient id="SVGID_33_" cx="26.6107" cy="369.2684" r="217.7854" gradientTransform="matrix(0.9995 -3.310110e-02 -3.310110e-02 -0.9995 11.7308 1005.8223)" gradientUnits="userSpaceOnUse">
			<stop  offset="0" style="stop-color:#B6E473"/>
			<stop  offset="1" style="stop-color:#3FBFC4"/>
		</radialGradient>
		<path class="st34" d="M218,619l1,3c0,0-1.4,26.1-4,75l-1.3,1.8L140,558L218,619z"/>
		
			<radialGradient id="SVGID_34_" cx="188.8053" cy="426.9994" r="198.9843" gradientTransform="matrix(0.9995 -3.310110e-02 -3.310110e-02 -0.9995 11.7308 1005.8223)" gradientUnits="userSpaceOnUse">
			<stop  offset="0" style="stop-color:#76EAA9"/>
			<stop  offset="1" style="stop-color:#7388FF"/>
		</radialGradient>
		<path class="st35" d="M221,621l5,7l61,51l5,1.5l12-45.5L221,621z"/>
		
			<radialGradient id="SVGID_35_" cx="176.5628" cy="346.9897" r="137.2539" gradientTransform="matrix(0.9995 -3.310110e-02 -3.310110e-02 -0.9995 11.7308 1005.8223)" gradientUnits="userSpaceOnUse">
			<stop  offset="0" style="stop-color:#78C6BD"/>
			<stop  offset="0.2356" style="stop-color:#77C2C1"/>
			<stop  offset="0.4744" style="stop-color:#74B6CC"/>
			<stop  offset="0.7146" style="stop-color:#6FA1DF"/>
			<stop  offset="0.9547" style="stop-color:#6885F9"/>
			<stop  offset="1" style="stop-color:#667FFF"/>
		</radialGradient>
		<path class="st36" d="M221,621c-0.3,2.3-0.7,4.7-1,7l15,84c15.7-7.6,31.7-16.2,48-26c3-1.8,6-3.7,9-5.5L221,621z"/>
		
			<radialGradient id="SVGID_36_" cx="134.7648" cy="290.2119" r="155.4494" gradientTransform="matrix(0.9995 -3.310110e-02 -3.310110e-02 -0.9995 11.7308 1005.8223)" gradientUnits="userSpaceOnUse">
			<stop  offset="0" style="stop-color:#2DC6BD"/>
			<stop  offset="0.1933" style="stop-color:#31C4BE"/>
			<stop  offset="0.3894" style="stop-color:#3DBEC0"/>
			<stop  offset="0.5866" style="stop-color:#52B3C4"/>
			<stop  offset="0.7848" style="stop-color:#6EA5CA"/>
			<stop  offset="0.9819" style="stop-color:#9292D1"/>
			<stop  offset="1" style="stop-color:#9690D2"/>
		</radialGradient>
		<path class="st37" d="M292,680.5l-7,16.5l-44,80l-6,7c-0.3-4.7-0.7-9.3-1-14v-54l2-5L292,680.5z"/>
		
			<radialGradient id="SVGID_37_" cx="313.4813" cy="270.2452" r="170.2448" gradientTransform="matrix(0.9995 -3.310110e-02 -3.310110e-02 -0.9995 11.7308 1005.8223)" gradientUnits="userSpaceOnUse">
			<stop  offset="0" style="stop-color:#97AAEA"/>
			<stop  offset="0.6399" style="stop-color:#61C7D1"/>
			<stop  offset="1" style="stop-color:#48D5C5"/>
		</radialGradient>
		<path class="st38" d="M213.7,698.8c1.1,1.4,2.2,2.8,3.3,4.2l15,9l4-1l-15-90l-3-2C216.6,645.6,215.1,672.2,213.7,698.8z"/>
		
			<radialGradient id="SVGID_38_" cx="179.6762" cy="291.0495" r="73.7703" gradientTransform="matrix(0.9995 -3.310110e-02 -3.310110e-02 -0.9995 11.7308 1005.8223)" gradientUnits="userSpaceOnUse">
			<stop  offset="0" style="stop-color:#4DC6BD"/>
			<stop  offset="0.2373" style="stop-color:#51C4C1"/>
			<stop  offset="0.4778" style="stop-color:#5DBECC"/>
			<stop  offset="0.7198" style="stop-color:#72B4DF"/>
			<stop  offset="0.9615" style="stop-color:#8EA7FA"/>
			<stop  offset="1" style="stop-color:#93A4FF"/>
		</radialGradient>
		<path class="st39" d="M236,711c-0.3,24.3-0.7,48.7-1,73c-7.1-28.4-14.2-56.8-21.3-85.2L236,711z"/>
		
			<radialGradient id="SVGID_39_" cx="149.2798" cy="267.3363" r="159.9856" gradientTransform="matrix(0.9995 -3.310110e-02 -3.310110e-02 -0.9995 11.7308 1005.8223)" gradientUnits="userSpaceOnUse">
			<stop  offset="0" style="stop-color:#4DC6BD"/>
			<stop  offset="0.2055" style="stop-color:#50C2BE"/>
			<stop  offset="0.4139" style="stop-color:#5BB6BF"/>
			<stop  offset="0.6237" style="stop-color:#6CA1C2"/>
			<stop  offset="0.833" style="stop-color:#8385C5"/>
			<stop  offset="1" style="stop-color:#9B69C9"/>
		</radialGradient>
		<path class="st40" d="M292,680.5L235,784l5-2l24-23l3-5L292,680.5z"/>
		
			<radialGradient id="SVGID_40_" cx="164.1873" cy="237.4601" r="116.4421" gradientTransform="matrix(0.9995 -3.310110e-02 -3.310110e-02 -0.9995 11.7308 1005.8223)" gradientUnits="userSpaceOnUse">
			<stop  offset="0" style="stop-color:#79C6BD"/>
			<stop  offset="0.1838" style="stop-color:#79C2BD"/>
			<stop  offset="0.3702" style="stop-color:#78B6BF"/>
			<stop  offset="0.5578" style="stop-color:#76A1C1"/>
			<stop  offset="0.7463" style="stop-color:#7485C4"/>
			<stop  offset="0.9337" style="stop-color:#7161C7"/>
			<stop  offset="1" style="stop-color:#7052C9"/>
		</radialGradient>
		<path class="st41" d="M267,754l-32,30l25.3,37.9L267,754z"/>
	</g>
	<g id="highlights-10" class="st7">
		<path class="st8" d="M229,667c2.7,14.3,5.3,28.7,8,43l32-17l-32,19c-0.3,8.7-0.7,17.3-1,26c-0.3-9-0.7-18-1-27L229,667z"/>
		<path class="st8" d="M235,784l11,16l-9-16c12.8-13.2,19.2-19.8,19-20C255.8,763.8,248.8,770.5,235,784z"/>
	</g>
</g>
<g id="right-bottom">
	<g id="inner-5">
		
			<radialGradient id="SVGID_41_" cx="201.7771" cy="661.7256" r="472.4085" gradientTransform="matrix(0.9974 7.224773e-02 7.224773e-02 -0.9974 -13.1664 974.9998)" gradientUnits="userSpaceOnUse">
			<stop  offset="0" style="stop-color:#1FBF8A"/>
			<stop  offset="0.239" style="stop-color:#389F90"/>
			<stop  offset="0.756" style="stop-color:#6A5E9D"/>
			<stop  offset="1" style="stop-color:#7E45A2"/>
		</radialGradient>
		<path class="st42" d="M279,590.5l-18.5,98.7c9.6,24.7,19.1,49.4,28.7,74.1l39.5,21.9c36.7-33.2,73.5-66.4,110.2-99.6
			c5-16.8,10-33.6,15-50.5c5.6-7.1,11.2-14.2,16.9-21.4c4.5-12.8,9-25.7,13.5-38.5c-2.6-11.4-5.1-22.9-7.7-34.3
			c-1.8-18.7-3.6-37.4-5.4-56.1L444,427.5l-70-44l-57,19l-29,39c-5.3,25.3-10.7,50.7-16,76C274.3,541.8,276.7,566.1,279,590.5z"/>
	</g>
	<g id="_Layer_4">
		
			<radialGradient id="SVGID_42_" cx="371.1099" cy="487.6519" r="100.144" gradientTransform="matrix(1 0 0 -1 0 1000)" gradientUnits="userSpaceOnUse">
			<stop  offset="0" style="stop-color:#4DCBBB"/>
			<stop  offset="0.377" style="stop-color:#51CCBC"/>
			<stop  offset="0.7584" style="stop-color:#5DCDBF"/>
			<stop  offset="1" style="stop-color:#69CFC2"/>
		</radialGradient>
		<path class="st43" d="M329,405l3,3c2.3,31.7,4.7,63.3,7,95l-30-1.5c2.7-23.3,5.3-46.7,8-70L329,405z"/>
		
			<radialGradient id="SVGID_43_" cx="244.853" cy="619.7081" r="397.1773" gradientTransform="matrix(0.9978 6.625126e-02 6.625126e-02 -0.9978 -11.0232 976.8478)" gradientUnits="userSpaceOnUse">
			<stop  offset="0" style="stop-color:#76F8A9"/>
			<stop  offset="1" style="stop-color:#704AFF"/>
		</radialGradient>
		<path class="st44" d="M469,465c-8.3-12.5-16.7-25-25-37.5l-35-28L373,383l20,22l57,49L469,465z"/>
		
			<radialGradient id="SVGID_44_" cx="282.2354" cy="523.4847" r="208.6642" gradientTransform="matrix(0.9974 7.224773e-02 7.224773e-02 -0.9974 -13.1664 974.9998)" gradientUnits="userSpaceOnUse">
			<stop  offset="0" style="stop-color:#4EDDB6"/>
			<stop  offset="1" style="stop-color:#B443EB"/>
		</radialGradient>
		<path class="st45" d="M309,501c4.3,25.8,8.7,51.6,13,77.5l6,2.5h76l-64-78l-3-2H309z"/>
		
			<radialGradient id="SVGID_45_" cx="308.3407" cy="632.2747" r="262.2353" gradientTransform="matrix(1 0 0 -1 0 1000)" gradientUnits="userSpaceOnUse">
			<stop  offset="0" style="stop-color:#4DD6BE"/>
			<stop  offset="0.1924" style="stop-color:#4FD2BE"/>
			<stop  offset="0.3875" style="stop-color:#57C6C0"/>
			<stop  offset="0.5838" style="stop-color:#63B1C1"/>
			<stop  offset="0.781" style="stop-color:#7495C4"/>
			<stop  offset="0.9772" style="stop-color:#8971C8"/>
			<stop  offset="1" style="stop-color:#8C6CC8"/>
		</radialGradient>
		<path class="st46" d="M485.4,575l-3.4,0l-76-51l-33-133v-8l96,82C474.5,501.7,479.9,538.3,485.4,575z"/>
		
			<radialGradient id="SVGID_46_" cx="502.1868" cy="394.6484" r="174.371" gradientTransform="matrix(1 0 0 -1 0 1000)" gradientUnits="userSpaceOnUse">
			<stop  offset="0" style="stop-color:#924396"/>
			<stop  offset="1" style="stop-color:#5ABDEA"/>
		</radialGradient>
		<path class="st47" d="M471,614c4.8-13,9.6-26,14.4-39L408,521.3l-4,2.7l-6,48l3,10l68,32H471z"/>
		
			<radialGradient id="SVGID_47_" cx="491.5587" cy="287.1223" r="205.107" gradientTransform="matrix(1 0 0 -1 0 1000)" gradientUnits="userSpaceOnUse">
			<stop  offset="0" style="stop-color:#6B78D4"/>
			<stop  offset="0.2841" style="stop-color:#6E7CD4"/>
			<stop  offset="0.572" style="stop-color:#7688D4"/>
			<stop  offset="0.8609" style="stop-color:#839CD4"/>
			<stop  offset="1" style="stop-color:#8BA9D4"/>
		</radialGradient>
		<path class="st48" d="M400,579l2,8c-1.3,10.3-2.7,20.7-4,31l-107,63c3.7-15.2,7.3-30.4,11-45.5l11-19l6-4.5l68-30L400,579z"/>
		
			<radialGradient id="SVGID_48_" cx="475.6813" cy="366.8242" r="127.4927" gradientTransform="matrix(1 0 0 -1 0 1000)" gradientUnits="userSpaceOnUse">
			<stop  offset="0" style="stop-color:#714AAC"/>
			<stop  offset="0.2931" style="stop-color:#885CB5"/>
			<stop  offset="0.7444" style="stop-color:#A673C1"/>
			<stop  offset="1" style="stop-color:#B17CC6"/>
		</radialGradient>
		<path class="st49" d="M453.9,635.5L471,614l-71-35l3,8l46,46L453.9,635.5z"/>
		
			<radialGradient id="SVGID_49_" cx="510.7181" cy="330.0225" r="156.6053" gradientTransform="matrix(0.9974 7.224773e-02 7.224773e-02 -0.9974 -13.1664 974.9998)" gradientUnits="userSpaceOnUse">
			<stop  offset="0" style="stop-color:#6C49C1"/>
			<stop  offset="0.2292" style="stop-color:#6F4DC3"/>
			<stop  offset="0.4615" style="stop-color:#7659C8"/>
			<stop  offset="0.6952" style="stop-color:#836ED0"/>
			<stop  offset="0.9286" style="stop-color:#958ADC"/>
			<stop  offset="1" style="stop-color:#9C94E0"/>
		</radialGradient>
		<path class="st50" d="M400,579c-2.7,13.3-5.3,26.7-8,40c0.7,2.3,1.3,4.7,2,7l42,58l3.2,1.6c4.9-16.7,9.8-33.4,14.7-50.1L400,579z"
			/>
		
			<radialGradient id="SVGID_50_" cx="513.7584" cy="191.0372" r="261.4565" gradientTransform="matrix(0.9974 7.224773e-02 7.224773e-02 -0.9974 -13.1664 974.9998)" gradientUnits="userSpaceOnUse">
			<stop  offset="0" style="stop-color:#6B78D4"/>
			<stop  offset="0.2871" style="stop-color:#6E7CD3"/>
			<stop  offset="0.5781" style="stop-color:#7688D0"/>
			<stop  offset="0.8699" style="stop-color:#859CCC"/>
			<stop  offset="1" style="stop-color:#8DA8C9"/>
		</radialGradient>
		<path class="st51" d="M392,619l-101,62l88,25c4.7-27.7,9.3-55.3,14-83L392,619z"/>
		
			<radialGradient id="SVGID_51_" cx="453.9803" cy="304.5095" r="135.2652" gradientTransform="matrix(0.9974 7.224773e-02 7.224773e-02 -0.9974 -13.1664 974.9998)" gradientUnits="userSpaceOnUse">
			<stop  offset="0" style="stop-color:#9062D4"/>
			<stop  offset="0.2373" style="stop-color:#9066D3"/>
			<stop  offset="0.4778" style="stop-color:#8F72D1"/>
			<stop  offset="0.7198" style="stop-color:#8E87CE"/>
			<stop  offset="0.9615" style="stop-color:#8DA3CA"/>
			<stop  offset="1" style="stop-color:#8DA8C9"/>
		</radialGradient>
		<path class="st52" d="M392,619c-4.7,30-9.3,60-14,90l49-17l12.2-6.4L392,619z"/>
		
			<radialGradient id="SVGID_52_" cx="361.6659" cy="200.8733" r="211.1568" gradientTransform="matrix(1 0 0 -1 0 1000)" gradientUnits="userSpaceOnUse">
			<stop  offset="0" style="stop-color:#6B78D4"/>
			<stop  offset="0.2871" style="stop-color:#6E7CD3"/>
			<stop  offset="0.5781" style="stop-color:#7688D0"/>
			<stop  offset="0.8699" style="stop-color:#859CCC"/>
			<stop  offset="1" style="stop-color:#8DA8C9"/>
		</radialGradient>
		<path class="st53" d="M379,704l-30,38l-48-48l-10-13L379,704z"/>
		
			<radialGradient id="SVGID_53_" cx="372.0168" cy="67.1794" r="315.6975" gradientTransform="matrix(0.9974 7.224773e-02 7.224773e-02 -0.9974 -13.1664 974.9998)" gradientUnits="userSpaceOnUse">
			<stop  offset="0" style="stop-color:#7835C7"/>
			<stop  offset="0.18" style="stop-color:#7639C8"/>
			<stop  offset="0.3624" style="stop-color:#7145C9"/>
			<stop  offset="0.5461" style="stop-color:#695ACC"/>
			<stop  offset="0.7306" style="stop-color:#5D76D0"/>
			<stop  offset="0.9141" style="stop-color:#4E9AD4"/>
			<stop  offset="1" style="stop-color:#46AED7"/>
		</radialGradient>
		<path class="st54" d="M291,681l59,60c-6.3,13.7-12.7,27.3-19,41l-2.2,3.2L300,712L291,681z"/>
		
			<radialGradient id="SVGID_54_" cx="372.1082" cy="267.8818" r="117.9695" gradientTransform="matrix(0.9974 7.224773e-02 7.224773e-02 -0.9974 -13.1664 974.9998)" gradientUnits="userSpaceOnUse">
			<stop  offset="0" style="stop-color:#5A43C1"/>
			<stop  offset="0.2151" style="stop-color:#5E47C2"/>
			<stop  offset="0.4332" style="stop-color:#6A52C7"/>
			<stop  offset="0.6526" style="stop-color:#7F66CE"/>
			<stop  offset="0.8718" style="stop-color:#9B81D9"/>
			<stop  offset="1" style="stop-color:#AF94E0"/>
		</radialGradient>
		<path class="st55" d="M304.6,759.4l24.2,25.8L291,681C295.5,707.1,300,733.3,304.6,759.4z"/>
		
			<radialGradient id="SVGID_55_" cx="307.0465" cy="361.4379" r="159.5913" gradientTransform="matrix(0.9974 7.224773e-02 7.224773e-02 -0.9974 -13.1664 974.9998)" gradientUnits="userSpaceOnUse">
			<stop  offset="0" style="stop-color:#5A49C1"/>
			<stop  offset="0.2292" style="stop-color:#5E4DC3"/>
			<stop  offset="0.4615" style="stop-color:#6859C8"/>
			<stop  offset="0.6952" style="stop-color:#7A6ED0"/>
			<stop  offset="0.9286" style="stop-color:#938ADC"/>
			<stop  offset="1" style="stop-color:#9C94E0"/>
		</radialGradient>
		<path class="st56" d="M439.2,686L379,704l-30,36l-20.2,45.2L439.2,686z"/>
		
			<radialGradient id="SVGID_56_" cx="294.1173" cy="607.2198" r="192.0921" gradientTransform="matrix(1 0 0 -1 0 1000)" gradientUnits="userSpaceOnUse">
			<stop  offset="0" style="stop-color:#4DCBBD"/>
			<stop  offset="0.2587" style="stop-color:#4FC7BE"/>
			<stop  offset="0.5209" style="stop-color:#56BBC3"/>
			<stop  offset="0.7838" style="stop-color:#61A7CA"/>
			<stop  offset="1" style="stop-color:#6D90D2"/>
		</radialGradient>
		<path class="st57" d="M373,383.5L329,405c2.7,32,5.3,64,8,96l8,5l60,16l3-0.7C396.4,475.3,384.7,429.4,373,383.5z"/>
		
			<radialGradient id="SVGID_57_" cx="189.0784" cy="501.2026" r="230.5519" gradientTransform="matrix(0.9974 7.224773e-02 7.224773e-02 -0.9974 -13.1664 974.9998)" gradientUnits="userSpaceOnUse">
			<stop  offset="0" style="stop-color:#4DC6BD"/>
			<stop  offset="0.2356" style="stop-color:#50C2BE"/>
			<stop  offset="0.4744" style="stop-color:#58B6C3"/>
			<stop  offset="0.7146" style="stop-color:#65A1CA"/>
			<stop  offset="0.9547" style="stop-color:#7785D5"/>
			<stop  offset="1" style="stop-color:#7B7FD7"/>
		</radialGradient>
		<path class="st58" d="M337,501l63,78c2.7-19.3,5.3-38.7,8-58L337,501z"/>
		
			<radialGradient id="SVGID_58_" cx="272.7363" cy="422.6044" r="86.5714" gradientTransform="matrix(1 0 0 -1 0 1000)" gradientUnits="userSpaceOnUse">
			<stop  offset="0" style="stop-color:#4EE3B1"/>
			<stop  offset="0.9946" style="stop-color:#858CE2"/>
		</radialGradient>
		<path class="st59" d="M322,578.5l-9,38l87-37.5L322,578.5z"/>
	</g>
	<g id="highlights-11" class="st7">
		<path class="st8" d="M406,520c-8.7-36.3-17.3-72.7-26-109l30,110l61,44l-62-40l-6,35l3-36l-36-14L406,520z"/>
		<path class="st8" d="M389,633l-12,69l-38-8l37,11l-16,22l20-22l36-12l-36,9L389,633z"/>
	</g>
</g>
<g id="bottom">
	
		<radialGradient id="SVGID_59_" cx="121.9267" cy="366.1795" r="236.161" gradientTransform="matrix(1 0 0 -1 0 1000)" gradientUnits="userSpaceOnUse">
		<stop  offset="0" style="stop-color:#32BF94"/>
		<stop  offset="0.1848" style="stop-color:#45A894"/>
		<stop  offset="0.7386" style="stop-color:#796792"/>
		<stop  offset="1" style="stop-color:#8E4E92"/>
	</radialGradient>
	<path class="st60" d="M292,658c-11.7,29.3-23.3,58.7-35,88c-2.3,13.7-4.7,27.3-7,41l10,34l31,10l39-46l-15-31
		C307.3,722,299.7,690,292,658z"/>
	<g id="_Layer_5">
		
			<radialGradient id="SVGID_60_" cx="177.1228" cy="319.8635" r="164.9407" gradientTransform="matrix(1 0 0 -1 0 1000)" gradientUnits="userSpaceOnUse">
			<stop  offset="0" style="stop-color:#617EAA"/>
			<stop  offset="0.2609" style="stop-color:#657DAE"/>
			<stop  offset="0.5254" style="stop-color:#7078BA"/>
			<stop  offset="0.7905" style="stop-color:#8271CE"/>
			<stop  offset="1" style="stop-color:#9669E4"/>
		</radialGradient>
		<path class="st61" d="M267,754.5c-2.3,22.2-4.7,44.4-7,66.5l3-2l32-55c-0.7-23-1.3-46-2-69c-0.3-4.8-0.7-9.7-1-14.5
			C283.7,705.1,275.3,729.8,267,754.5z"/>
		
			<radialGradient id="SVGID_61_" cx="362.4436" cy="264.212" r="90.1779" gradientTransform="matrix(0.9994 -3.375524e-02 -3.375524e-02 -0.9994 11.7807 1005.9509)" gradientUnits="userSpaceOnUse">
			<stop  offset="0" style="stop-color:#8756AA"/>
			<stop  offset="0.2373" style="stop-color:#8557AE"/>
			<stop  offset="0.4778" style="stop-color:#7F5CBA"/>
			<stop  offset="0.7198" style="stop-color:#7563CF"/>
			<stop  offset="0.9615" style="stop-color:#686CEB"/>
			<stop  offset="1" style="stop-color:#656EF0"/>
		</radialGradient>
		<path class="st62" d="M292,681.5c0.3,27.2,0.7,54.4,1,81.5l3,3l29,17l5,2l-25-25C300.7,733.8,296.3,707.6,292,681.5z"/>
		
			<radialGradient id="SVGID_62_" cx="236.9327" cy="228.0619" r="127.138" gradientTransform="matrix(0.9995 -3.310110e-02 -3.310110e-02 -0.9995 11.7308 1005.8223)" gradientUnits="userSpaceOnUse">
			<stop  offset="0" style="stop-color:#6B78D4"/>
			<stop  offset="0.2757" style="stop-color:#6E74D3"/>
			<stop  offset="0.5552" style="stop-color:#7668D1"/>
			<stop  offset="0.8354" style="stop-color:#8354CC"/>
			<stop  offset="1" style="stop-color:#8D44C9"/>
		</radialGradient>
		<path class="st63" d="M292,836l38-51l-37-22l-1,3c-0.3,22.7-0.7,45.3-1,68L292,836z"/>
		
			<radialGradient id="SVGID_63_" cx="126.443" cy="206.9293" r="226.4123" gradientTransform="matrix(0.9995 -3.310110e-02 -3.310110e-02 -0.9995 11.7308 1005.8223)" gradientUnits="userSpaceOnUse">
			<stop  offset="0" style="stop-color:#787DD4"/>
			<stop  offset="0.3109" style="stop-color:#7C7DD3"/>
			<stop  offset="0.6259" style="stop-color:#887DD0"/>
			<stop  offset="0.942" style="stop-color:#9C7ECA"/>
			<stop  offset="1" style="stop-color:#A17EC9"/>
		</radialGradient>
		<path class="st64" d="M293,763l-33,58l32,15C292.3,811.7,292.7,787.3,293,763z"/>
	</g>
	<g id="highlights-12" class="st7">
		<path class="st8" d="M293,832l34-43l-35,47l-28-13l27,10c0.3-8.3,0.7-16.7,1-25C292.3,816,292.7,824,293,832z"/>
		<path class="st8" d="M292,736v27l-12,23l13-23C292.7,754,292.3,745,292,736z"/>
	</g>
</g>
</svg>
