<?xml version="1.0" encoding="utf-8"?>
<!-- Generator: Adobe Illustrator 24.1.3, SVG Export Plug-In . SVG Version: 6.00 Build 0)  -->
<svg version="1.1" id="hero" xmlns="http://www.w3.org/2000/svg" xmlns:xlink="http://www.w3.org/1999/xlink" x="0px" y="0px"
	 viewBox="0 0 124 338" style="enable-background:new 0 0 124 338;" xml:space="preserve">
<style type="text/css">
	.st0{fill:url(#SVGID_1_);}
	.st1{fill:url(#SVGID_2_);}
	.st2{fill:url(#SVGID_3_);}
	.st3{fill:url(#SVGID_4_);}
	.st4{fill:url(#SVGID_5_);}
	.st5{fill:url(#SVGID_6_);}
	.st6{fill:url(#SVGID_7_);}
	.st7{fill:url(#SVGID_8_);}
	.st8{fill:url(#SVGID_9_);}
	.st9{fill:url(#SVGID_10_);}
	.st10{fill:url(#SVGID_11_);}
	.st11{opacity:0.5;}
	.st12{fill:#F2F2F2;}
</style>
<g id="lower-left">
	<g id="shapes_shard_03">
		
			<radialGradient id="SVGID_1_" cx="-37.3043" cy="311.7418" r="154.4966" gradientTransform="matrix(1 0 0 -1 0 340)" gradientUnits="userSpaceOnUse">
			<stop  offset="2.890000e-02" style="stop-color:#00ACA8"/>
			<stop  offset="0.5946" style="stop-color:#2AD19F"/>
			<stop  offset="1" style="stop-color:#43E89A"/>
		</radialGradient>
		<path class="st0" d="M14,0L0,8l6,88l21-76L14,0z"/>
		
			<radialGradient id="SVGID_2_" cx="-78.4581" cy="239.7805" r="265.4047" gradientTransform="matrix(1 0 0 -1 0 340)" gradientUnits="userSpaceOnUse">
			<stop  offset="0" style="stop-color:#FFE47D"/>
			<stop  offset="1" style="stop-color:#6FC2BF"/>
		</radialGradient>
		<path class="st1" d="M76,64l14,20l-3,9c-15.7,32.3-31.3,64.7-47,97c10.3-39,20.7-78,31-117L76,64z"/>
		
			<radialGradient id="SVGID_3_" cx="13.5434" cy="-32.5546" r="120.8358" gradientTransform="matrix(1 0 0 -1 0 340)" gradientUnits="userSpaceOnUse">
			<stop  offset="0" style="stop-color:#4DC6BD"/>
			<stop  offset="0.2204" style="stop-color:#51C4BE"/>
			<stop  offset="0.4438" style="stop-color:#5DBFBF"/>
			<stop  offset="0.6687" style="stop-color:#72B6C2"/>
			<stop  offset="0.8932" style="stop-color:#8EAAC7"/>
			<stop  offset="1" style="stop-color:#9EA3C9"/>
		</radialGradient>
		<path class="st2" d="M76,283.6c-1,2.1-2,4.3-3,6.4l-15,43l-1,5l67-70c-0.7-0.3-1.3-0.6-2-0.9C106.6,272.6,91.3,278.1,76,283.6z"/>
		
			<radialGradient id="SVGID_4_" cx="17.4787" cy="35.7351" r="148.3867" gradientTransform="matrix(1 0 0 -1 0 340)" gradientUnits="userSpaceOnUse">
			<stop  offset="0" style="stop-color:#00B5BC"/>
			<stop  offset="0.2762" style="stop-color:#27BCBF"/>
			<stop  offset="0.7678" style="stop-color:#68C7C3"/>
			<stop  offset="1" style="stop-color:#81CBC5"/>
		</radialGradient>
		<path class="st3" d="M59,207c5.3,23,10.7,46,16,69c0.3,3,0.7,6,1,9c-6.3,17.7-12.7,35.3-19,53l-15-61c0.7-4,1.3-8,2-12L59,207z"/>
		
			<radialGradient id="SVGID_5_" cx="-50.5108" cy="190.7175" r="98.6866" gradientTransform="matrix(1 0 0 -1 0 340)" gradientUnits="userSpaceOnUse">
			<stop  offset="0" style="stop-color:#B6E473"/>
			<stop  offset="1" style="stop-color:#3FBFC4"/>
		</radialGradient>
		<path class="st4" d="M6,96l2,1l34,88c0.3,3,0.7,6,1,9v76c-0.3,2.3-0.7,4.7-1,7l-25.5-80.5L6,96z"/>
		
			<radialGradient id="SVGID_6_" cx="20.1699" cy="83.578" r="200.385" gradientTransform="matrix(1 0 0 -1 0 340)" gradientUnits="userSpaceOnUse">
			<stop  offset="0" style="stop-color:#00B5AF"/>
			<stop  offset="0.3898" style="stop-color:#42C0A6"/>
			<stop  offset="0.8041" style="stop-color:#83CB9D"/>
			<stop  offset="1" style="stop-color:#9CCF99"/>
		</radialGradient>
		<path class="st5" d="M41.5,185.5L46,189l13,19v2c-5.7,22.3-11.3,44.7-17,67C41.8,246.5,41.7,216,41.5,185.5z"/>
		
			<radialGradient id="SVGID_7_" cx="126.1505" cy="109.7198" r="139.6287" gradientTransform="matrix(1 0 0 -1 0 340)" gradientUnits="userSpaceOnUse">
			<stop  offset="0" style="stop-color:#00B5AF"/>
			<stop  offset="0.3898" style="stop-color:#42C0A6"/>
			<stop  offset="0.8041" style="stop-color:#83CB9D"/>
			<stop  offset="1" style="stop-color:#9CCF99"/>
		</radialGradient>
		<path class="st6" d="M59,210l-17.5-24.5C57.7,151.7,73.8,117.8,90,84c8.7,30.3,17.3,60.7,26,91l-4,4l-48,29L59,210z"/>
		
			<radialGradient id="SVGID_8_" cx="181.6327" cy="112.1887" r="104.9169" gradientTransform="matrix(1 0 0 -1 0 340)" gradientUnits="userSpaceOnUse">
			<stop  offset="0" style="stop-color:#787DD4"/>
			<stop  offset="0.2784" style="stop-color:#7B81D3"/>
			<stop  offset="0.5606" style="stop-color:#858DD1"/>
			<stop  offset="0.8437" style="stop-color:#95A1CC"/>
			<stop  offset="1" style="stop-color:#A1B0C9"/>
		</radialGradient>
		<path class="st7" d="M116,175l-9,17l-28,81l-2.9,12.3L124,268c-2.2-9.1-4.4-18.2-6.6-27.3L116,175z"/>
		
			<radialGradient id="SVGID_9_" cx="111.8407" cy="127.8936" r="214.7103" gradientTransform="matrix(1 0 0 -1 0 340)" gradientUnits="userSpaceOnUse">
			<stop  offset="0" style="stop-color:#00B5AF"/>
			<stop  offset="0.3898" style="stop-color:#42C0A6"/>
			<stop  offset="0.8041" style="stop-color:#83CB9D"/>
			<stop  offset="1" style="stop-color:#9CCF99"/>
		</radialGradient>
		<path class="st8" d="M24,20L6,96l35.5,89.5L76,64c-4.3-4.6-9-9.3-14-14C51.3,39.9,39.9,30.6,28,22L24,20z"/>
		
			<radialGradient id="SVGID_10_" cx="41.7143" cy="111.3513" r="71.0786" gradientTransform="matrix(1 0 0 -1 0 340)" gradientUnits="userSpaceOnUse">
			<stop  offset="0" style="stop-color:#00B5AF"/>
			<stop  offset="0.2762" style="stop-color:#27B1B6"/>
			<stop  offset="0.7678" style="stop-color:#68AAC1"/>
			<stop  offset="1" style="stop-color:#81A7C5"/>
		</radialGradient>
		<path class="st9" d="M59,210c5.7,25.3,11.3,50.7,17,76l40-111L59,210z"/>
		
			<radialGradient id="SVGID_11_" cx="107.7446" cy="265.7111" r="160.5164" gradientTransform="matrix(1 0 0 -1 0 340)" gradientUnits="userSpaceOnUse">
			<stop  offset="0" style="stop-color:#00B5AF"/>
			<stop  offset="0.3898" style="stop-color:#42C0A6"/>
			<stop  offset="0.8041" style="stop-color:#83CB9D"/>
			<stop  offset="1" style="stop-color:#9CCF99"/>
		</radialGradient>
		<path class="st10" d="M14,0l62,64L24,20L14,0z"/>
	</g>
	<g id="highlights" class="st11">
		<path class="st12" d="M18,196l12,46l-15-44c-1.7-20.3-3.3-40.7-5-61C12.7,156.7,15.3,176.3,18,196z"/>
		<path class="st12" d="M62,224c4.3,20.7,8.7,41.3,13,62c-2.7,8-5.3,16-8,24l10-24l27-11l-26,9l30-89l-32,89
			C71.3,264,66.7,244,62,224z"/>
		<path class="st12" d="M41,185l-8-20l8,21c0.3,8,0.7,16,1,24v-23l7,9l-7-10l6-23L41,185z"/>
	</g>
</g>
</svg>
