<?xml version="1.0" encoding="utf-8"?>
<!-- Generator: Adobe Illustrator 24.1.3, SVG Export Plug-In . SVG Version: 6.00 Build 0)  -->
<svg version="1.1" id="hero" xmlns="http://www.w3.org/2000/svg" xmlns:xlink="http://www.w3.org/1999/xlink" x="0px" y="0px"
	 viewBox="0 0 479.5 814.5" style="enable-background:new 0 0 479.5 814.5;" xml:space="preserve">
<style type="text/css">
	.st0{fill:url(#SVGID_1_);}
	.st1{fill:url(#SVGID_2_);}
	.st2{fill:url(#SVGID_3_);}
	.st3{fill:url(#SVGID_4_);}
	.st4{fill:url(#SVGID_5_);}
	.st5{fill:url(#SVGID_6_);}
	.st6{fill:url(#SVGID_7_);}
	.st7{fill:url(#SVGID_8_);}
	.st8{fill:url(#SVGID_9_);}
	.st9{fill:url(#SVGID_10_);}
	.st10{fill:url(#SVGID_11_);}
	.st11{fill:url(#SVGID_12_);}
	.st12{fill:url(#SVGID_13_);}
	.st13{fill:url(#SVGID_14_);}
	.st14{fill:url(#SVGID_15_);}
	.st15{fill:url(#SVGID_16_);}
	.st16{fill:url(#SVGID_17_);}
	.st17{fill:url(#SVGID_18_);}
	.st18{fill:url(#SVGID_19_);}
	.st19{fill:url(#SVGID_20_);}
	.st20{fill:url(#SVGID_21_);}
	.st21{fill:url(#SVGID_22_);}
	.st22{fill:url(#SVGID_23_);}
	.st23{fill:url(#SVGID_24_);}
	.st24{fill:url(#SVGID_25_);}
	.st25{fill:url(#SVGID_26_);}
	.st26{fill:url(#SVGID_27_);}
	.st27{fill:url(#SVGID_28_);}
	.st28{fill:url(#SVGID_29_);}
	.st29{fill:url(#SVGID_30_);}
	.st30{fill:url(#SVGID_31_);}
	.st31{fill:url(#SVGID_32_);}
	.st32{fill:url(#SVGID_33_);}
	.st33{fill:url(#SVGID_34_);}
	.st34{fill:url(#SVGID_35_);}
	.st35{fill:url(#SVGID_36_);}
	.st36{fill:url(#SVGID_37_);}
	.st37{fill:url(#SVGID_38_);}
	.st38{fill:url(#SVGID_39_);}
	.st39{fill:url(#SVGID_40_);}
	.st40{fill:url(#SVGID_41_);}
	.st41{fill:url(#SVGID_42_);}
	.st42{opacity:0.5;}
	.st43{fill:#F2F2F2;}
</style>
<g id="main">
	<g id="shapes_color">
		
			<radialGradient id="SVGID_1_" cx="226.3335" cy="284.6711" r="257.7297" gradientTransform="matrix(1 0 0 -1 0 814)" gradientUnits="userSpaceOnUse">
			<stop  offset="0" style="stop-color:#00B5BE"/>
			<stop  offset="0.5826" style="stop-color:#2AD5BA"/>
			<stop  offset="1" style="stop-color:#43E8B8"/>
		</radialGradient>
		<path class="st0" d="M0,390l4.5,3.5l72,97l-9,93l-44-66l-1-3L0,390z"/>
		
			<radialGradient id="SVGID_2_" cx="153.8334" cy="428.7023" r="255.0836" gradientTransform="matrix(1 0 0 -1 0 814)" gradientUnits="userSpaceOnUse">
			<stop  offset="0" style="stop-color:#00B5BE"/>
			<stop  offset="0.5826" style="stop-color:#2AD5A8"/>
			<stop  offset="1" style="stop-color:#43E89A"/>
		</radialGradient>
		<path class="st1" d="M271.5,232.5l-52,85l-2,2c3.7-29,7.3-58,11-87H271.5z"/>
		
			<radialGradient id="SVGID_3_" cx="192.8298" cy="847.0583" r="232.2813" gradientTransform="matrix(1 0 0 -1 0 814)" gradientUnits="userSpaceOnUse">
			<stop  offset="0" style="stop-color:#FFFF40"/>
			<stop  offset="0.4925" style="stop-color:#99F76C"/>
			<stop  offset="0.8381" style="stop-color:#57F188"/>
			<stop  offset="1" style="stop-color:#3EEF93"/>
		</radialGradient>
		<path class="st2" d="M272,35c0.4,1,0.8,1.9,1.2,2.9c-3.4,16.9-6.7,33.9-10.1,50.8c-12.9,14.9-25.8,29.9-38.6,44.8l-3-2
			c-8.3-28.7-16.7-57.3-25-86L197,43l44-43L272,35z"/>
		
			<radialGradient id="SVGID_4_" cx="274.9066" cy="807.9176" r="83.0279" gradientTransform="matrix(1 0 0 -1 0 814)" gradientUnits="userSpaceOnUse">
			<stop  offset="0" style="stop-color:#64F968"/>
			<stop  offset="0.1919" style="stop-color:#6AF66F"/>
			<stop  offset="1" style="stop-color:#7FE988"/>
		</radialGradient>
		<path class="st3" d="M318,65l-6.5,4.5l-41,16L261,88c3.7-17.7,7.3-35.3,11-53L318,65z"/>
		
			<radialGradient id="SVGID_5_" cx="35.1158" cy="796.225" r="296.3492" gradientTransform="matrix(1 0 0 -1 0 814)" gradientUnits="userSpaceOnUse">
			<stop  offset="0" style="stop-color:#FFFF40"/>
			<stop  offset="0.4925" style="stop-color:#99F76C"/>
			<stop  offset="0.8381" style="stop-color:#57F188"/>
			<stop  offset="1" style="stop-color:#3EEF93"/>
		</radialGradient>
		<path class="st4" d="M224,132l1.5,3.5l9,49l-1,47l-9,6l-70,21l-46-50L107,205l90-162L224,132z"/>
		
			<radialGradient id="SVGID_6_" cx="325.3999" cy="586.6709" r="138.4353" gradientTransform="matrix(1 0 0 -1 0 814)" gradientUnits="userSpaceOnUse">
			<stop  offset="0" style="stop-color:#00B5AF"/>
			<stop  offset="0.5826" style="stop-color:#2AD5A1"/>
			<stop  offset="1" style="stop-color:#43E899"/>
		</radialGradient>
		<path class="st5" d="M232.5,185.5l58,22c-1.7-23.7-3.3-47.3-5-71l-22-46L261,88l-37,44C226.8,149.8,229.7,167.7,232.5,185.5z"/>
		
			<radialGradient id="SVGID_7_" cx="143.6126" cy="288.5934" r="217.1362" gradientTransform="matrix(1 0 0 -1 0 814)" gradientUnits="userSpaceOnUse">
			<stop  offset="0" style="stop-color:#00B5AF"/>
			<stop  offset="0.5826" style="stop-color:#2AD5A1"/>
			<stop  offset="1" style="stop-color:#43E899"/>
		</radialGradient>
		<path class="st6" d="M0,390l4.5-1.5l61-14L70,375l3.5,6.5l3,104c-0.7,2-1.3,4-2,6L0,390z"/>
		
			<radialGradient id="SVGID_8_" cx="183.7035" cy="265.4979" r="230.9947" gradientTransform="matrix(1 0 0 -1 0 814)" gradientUnits="userSpaceOnUse">
			<stop  offset="0" style="stop-color:#00B5AF"/>
			<stop  offset="0.5826" style="stop-color:#2AD5A1"/>
			<stop  offset="1" style="stop-color:#43E899"/>
		</radialGradient>
		<path class="st7" d="M70,375l1.5-3.5l60-67l36,89c0.3,3.3,0.7,6.7,1,10l-2,3l-90,84l-2,1L70,375z"/>
		
			<radialGradient id="SVGID_9_" cx="-45.311" cy="545.9697" r="265.4065" gradientTransform="matrix(1 0 0 -1 0 814)" gradientUnits="userSpaceOnUse">
			<stop  offset="0" style="stop-color:#FCEE21"/>
			<stop  offset="0.4677" style="stop-color:#A0F576"/>
			<stop  offset="0.8301" style="stop-color:#5EF9B3"/>
			<stop  offset="1" style="stop-color:#45FBCA"/>
		</radialGradient>
		<path class="st8" d="M89.5,255.5l3,1l35,47l3,6L70,375L0,390L89.5,255.5z"/>
		
			<radialGradient id="SVGID_10_" cx="-69.5609" cy="673.1054" r="304.2782" gradientTransform="matrix(1 0 0 -1 0 814)" gradientUnits="userSpaceOnUse">
			<stop  offset="0" style="stop-color:#FCEE21"/>
			<stop  offset="0.4677" style="stop-color:#A0F576"/>
			<stop  offset="0.8301" style="stop-color:#5EF9B3"/>
			<stop  offset="1" style="stop-color:#45FBCA"/>
		</radialGradient>
		<path class="st9" d="M107,205l48.5,51.5l1,4l-23,47l-3,2l-41-54L107,205z"/>
		
			<radialGradient id="SVGID_11_" cx="243.1699" cy="451.5441" r="141.6898" gradientTransform="matrix(1 0 0 -1 0 814)" gradientUnits="userSpaceOnUse">
			<stop  offset="0" style="stop-color:#00B56C"/>
			<stop  offset="0.5826" style="stop-color:#2AD584"/>
			<stop  offset="1" style="stop-color:#43E893"/>
		</radialGradient>
		<path class="st10" d="M155.5,256.5l2,5l56,54l5,2c3.8-27.8,7.7-55.7,11.5-83.5L155.5,256.5z"/>
		
			<radialGradient id="SVGID_12_" cx="170.7518" cy="643.06" r="122.3112" gradientTransform="matrix(1 0 0 -1 0 814)" gradientUnits="userSpaceOnUse">
			<stop  offset="0" style="stop-color:#3AE879"/>
			<stop  offset="0.4281" style="stop-color:#40D88F"/>
			<stop  offset="1" style="stop-color:#46C5A8"/>
		</radialGradient>
		<path class="st11" d="M232.5,184.5l56,18l-1,4l-14,23l-4,4L230,234L232.5,184.5z"/>
		
			<radialGradient id="SVGID_13_" cx="-7.2429" cy="131.9441" r="272.5343" gradientTransform="matrix(1 0 0 -1 0 814)" gradientUnits="userSpaceOnUse">
			<stop  offset="0" style="stop-color:#00B5AF"/>
			<stop  offset="0.5826" style="stop-color:#2AD5A1"/>
			<stop  offset="1" style="stop-color:#43E899"/>
		</radialGradient>
		<path class="st12" d="M14,533l6.5,3.5l42,38l3,3l11,14l4,7l-4,2l-38,2L31,602C25.3,579,19.7,556,14,533z"/>
		
			<radialGradient id="SVGID_14_" cx="-33.9901" cy="246.4505" r="199.4696" gradientTransform="matrix(1 0 0 -1 0 814)" gradientUnits="userSpaceOnUse">
			<stop  offset="0" style="stop-color:#FFE47D"/>
			<stop  offset="1" style="stop-color:#6FC2BF"/>
		</radialGradient>
		<path class="st13" d="M22.5,514.5l43,63L14,533C16.8,526.8,19.7,520.7,22.5,514.5z"/>
		
			<radialGradient id="SVGID_15_" cx="308.1374" cy="654.4231" r="94.6049" gradientTransform="matrix(1 0 0 -1 0 814)" gradientUnits="userSpaceOnUse">
			<stop  offset="0" style="stop-color:#00B5AF"/>
			<stop  offset="0.5826" style="stop-color:#2AD5A1"/>
			<stop  offset="1" style="stop-color:#43E899"/>
		</radialGradient>
		<path class="st14" d="M318,65l-1.5,5.5l-27,58L284,138l-23-50L318,65z"/>
		
			<radialGradient id="SVGID_16_" cx="398.0601" cy="463.127" r="261.2796" gradientTransform="matrix(1 0 0 -1 0 814)" gradientUnits="userSpaceOnUse">
			<stop  offset="0" style="stop-color:#00B5BE"/>
			<stop  offset="0.5826" style="stop-color:#2AD5BA"/>
			<stop  offset="1" style="stop-color:#43E8B8"/>
		</radialGradient>
		<path class="st15" d="M318,65l-34,73l4.5,64.5l6,9l100,86L318,65z"/>
		
			<radialGradient id="SVGID_17_" cx="301.4625" cy="451.9518" r="171.8521" gradientTransform="matrix(1 0 0 -1 0 814)" gradientUnits="userSpaceOnUse">
			<stop  offset="0" style="stop-color:#4DC6BD"/>
			<stop  offset="0.2356" style="stop-color:#4EC2C1"/>
			<stop  offset="0.4744" style="stop-color:#53B6CC"/>
			<stop  offset="0.7146" style="stop-color:#5AA1DF"/>
			<stop  offset="0.9547" style="stop-color:#6485F9"/>
			<stop  offset="1" style="stop-color:#667FFF"/>
		</radialGradient>
		<path class="st16" d="M371.5,275.5c0.3,2.7,0.7,5.3,1,8l39,101L419,402c-8.2-34.8-16.3-69.7-24.5-104.5L371.5,275.5z"/>
		
			<radialGradient id="SVGID_18_" cx="311.4323" cy="-237.3482" r="489.5842" gradientTransform="matrix(0.3629 -0.9318 -0.5417 -0.211 71.4458 996.4316)" gradientUnits="userSpaceOnUse">
			<stop  offset="0" style="stop-color:#4DC6BD"/>
			<stop  offset="0.2705" style="stop-color:#4FC2BF"/>
			<stop  offset="0.5446" style="stop-color:#57B6C3"/>
			<stop  offset="0.8196" style="stop-color:#63A2CB"/>
			<stop  offset="1" style="stop-color:#6D90D2"/>
		</radialGradient>
		<path class="st17" d="M371.5,275.5L479,554l-6.5,5.5l-117,51l-37-60l-7-16L310,527c-0.8-45.2-1.7-90.3-2.5-135.5l59-109
			L371.5,275.5z"/>
		
			<radialGradient id="SVGID_19_" cx="326.7336" cy="358.8924" r="268.7126" gradientTransform="matrix(1 0 0 -1 0 814)" gradientUnits="userSpaceOnUse">
			<stop  offset="0" style="stop-color:#4DC6BD"/>
			<stop  offset="0.2151" style="stop-color:#51C3C0"/>
			<stop  offset="0.4332" style="stop-color:#5DB8CA"/>
			<stop  offset="0.6526" style="stop-color:#72A7D9"/>
			<stop  offset="0.8718" style="stop-color:#8E90EF"/>
			<stop  offset="1" style="stop-color:#A27FFF"/>
		</radialGradient>
		<path class="st18" d="M356.5,607.5l-2,2c-3.7,14-7.3,28-11,42l58,29h5L479,554L356.5,607.5z"/>
		
			<radialGradient id="SVGID_20_" cx="345.899" cy="421.4505" r="162.6264" gradientTransform="matrix(1 0 0 -1 0 814)" gradientUnits="userSpaceOnUse">
			<stop  offset="0" style="stop-color:#3DA6C1"/>
			<stop  offset="0.5987" style="stop-color:#6AC0AE"/>
			<stop  offset="1" style="stop-color:#83CFA3"/>
		</radialGradient>
		<path class="st19" d="M308.5,391.5l-6,8l-27,82l35,52l1,1L308.5,391.5z"/>
		
			<radialGradient id="SVGID_21_" cx="383.3262" cy="238.7022" r="293.9045" gradientTransform="matrix(1 0 0 -1 0 814)" gradientUnits="userSpaceOnUse">
			<stop  offset="0" style="stop-color:#00B5AF"/>
			<stop  offset="0.2607" style="stop-color:#24BEA7"/>
			<stop  offset="0.7629" style="stop-color:#65CE99"/>
			<stop  offset="1" style="stop-color:#7ED493"/>
		</radialGradient>
		<path class="st20" d="M217.5,316.5l-49,87c20.7,42.3,41.3,84.7,62,127l47-48l31-91l-0.3-2.1l-87.7-70.9L217.5,316.5z"/>
		
			<radialGradient id="SVGID_22_" cx="420.6452" cy="521.0739" r="147.9075" gradientTransform="matrix(1 5.323254e-04 5.323254e-04 -1 8.014593e-02 813.6968)" gradientUnits="userSpaceOnUse">
			<stop  offset="0" style="stop-color:#00B5AF"/>
			<stop  offset="0.3898" style="stop-color:#42C0A6"/>
			<stop  offset="0.8041" style="stop-color:#83CB9D"/>
			<stop  offset="1" style="stop-color:#9CCF99"/>
		</radialGradient>
		<path class="st21" d="M288.5,202.5l2,10l30,95l3,6h1l44-35l3-3L288.5,202.5z"/>
		
			<radialGradient id="SVGID_23_" cx="384.7031" cy="398.2634" r="249.5943" gradientTransform="matrix(1 0 0 -1 0 814)" gradientUnits="userSpaceOnUse">
			<stop  offset="0" style="stop-color:#009CD1"/>
			<stop  offset="0.4778" style="stop-color:#60C5B4"/>
			<stop  offset="0.8334" style="stop-color:#A2E0A1"/>
			<stop  offset="1" style="stop-color:#BBEB99"/>
		</radialGradient>
		<path class="st22" d="M323.5,313.5l-1,1c-4.3,22-8.7,44-13,66c-0.3,3.7-0.7,7.3-1,11l63-116L323.5,313.5z"/>
		
			<radialGradient id="SVGID_24_" cx="163.578" cy="641.9984" r="173.2893" gradientTransform="matrix(1 0 0 -1 0 814)" gradientUnits="userSpaceOnUse">
			<stop  offset="0" style="stop-color:#00B5BE"/>
			<stop  offset="0.4002" style="stop-color:#45CBBB"/>
			<stop  offset="0.8075" style="stop-color:#86E0B9"/>
			<stop  offset="1" style="stop-color:#9FE8B8"/>
		</radialGradient>
		<path class="st23" d="M288.5,202.5c11.7,37,23.3,74,35,111l-7,3l-91,2l-7-1L288.5,202.5z"/>
		
			<radialGradient id="SVGID_25_" cx="-29.3118" cy="152.2093" r="247.6438" gradientTransform="matrix(1 0 0 -1 0 814)" gradientUnits="userSpaceOnUse">
			<stop  offset="0" style="stop-color:#00B5BE"/>
			<stop  offset="0.5826" style="stop-color:#2AD5BA"/>
			<stop  offset="1" style="stop-color:#43E8B8"/>
		</radialGradient>
		<path class="st24" d="M79,598l2.5,1.5l24,90c0.7,20,1.3,40,2,60l-1,5C81.3,703.7,56.2,652.8,31,602L79,598z"/>
		
			<radialGradient id="SVGID_26_" cx="284.9011" cy="-75.767" r="195.9687" gradientTransform="matrix(1 0 0 -1 0 814)" gradientUnits="userSpaceOnUse">
			<stop  offset="0" style="stop-color:#6B78D4"/>
			<stop  offset="0.2871" style="stop-color:#6E7CD3"/>
			<stop  offset="0.5781" style="stop-color:#7688D0"/>
			<stop  offset="0.8699" style="stop-color:#859CCC"/>
			<stop  offset="1" style="stop-color:#8DA8C9"/>
		</radialGradient>
		<path class="st25" d="M319.5,704.5c0.3,23.3,0.7,46.7,1,70l-1,4l-114,36v-8c5.7-39.7,11.3-79.3,17-119L319.5,704.5z"/>
		
			<radialGradient id="SVGID_27_" cx="457.4294" cy="10.9664" r="198.4273" gradientTransform="matrix(1 0 0 -1 0 814)" gradientUnits="userSpaceOnUse">
			<stop  offset="0" style="stop-color:#7149C1"/>
			<stop  offset="0.1933" style="stop-color:#724DC3"/>
			<stop  offset="0.3894" style="stop-color:#7659CB"/>
			<stop  offset="0.5866" style="stop-color:#7C6ED7"/>
			<stop  offset="0.7848" style="stop-color:#858AE7"/>
			<stop  offset="0.9819" style="stop-color:#91AEFD"/>
			<stop  offset="1" style="stop-color:#92B2FF"/>
		</radialGradient>
		<path class="st26" d="M345,650l61.5,30.5l-87,98L318,706l-0.5-4.5l22-46L345,650z"/>
		
			<radialGradient id="SVGID_28_" cx="330.7038" cy="173.746" r="176.1707" gradientTransform="matrix(1 0 0 -1 0 814)" gradientUnits="userSpaceOnUse">
			<stop  offset="0" style="stop-color:#B6E473"/>
			<stop  offset="1" style="stop-color:#3FBFC4"/>
		</radialGradient>
		<path class="st27" d="M278,480l-46.5,48.5l-1,3l1,11h1l77-7l2-1L278,480z"/>
		
			<radialGradient id="SVGID_29_" cx="268.8634" cy="230.3086" r="45.5138" gradientTransform="matrix(1 0 0 -1 0 814)" gradientUnits="userSpaceOnUse">
			<stop  offset="0" style="stop-color:#B6E473"/>
			<stop  offset="1" style="stop-color:#3FBFC4"/>
		</radialGradient>
		<path class="st28" d="M211.5,544.5l21-3l-1-13l-4,2l-11,9L211.5,544.5z"/>
		
			<radialGradient id="SVGID_30_" cx="165.1572" cy="280.3062" r="286.497" gradientTransform="matrix(1 0 0 -1 0 814)" gradientUnits="userSpaceOnUse">
			<stop  offset="0" style="stop-color:#76EAA9"/>
			<stop  offset="1" style="stop-color:#7388FF"/>
		</radialGradient>
		<path class="st29" d="M311.5,534.5l-79,7l-1,3c-4.3,27.3-8.7,54.7-13,82c0.7,19.3,1.3,38.7,2,58l2.5,5.5l95,16l27-56
			c-0.8-6.2-1.7-12.3-2.5-18.5l-24-81L311.5,534.5z"/>
		
			<radialGradient id="SVGID_31_" cx="148.7581" cy="224.4078" r="184.2543" gradientTransform="matrix(1 0 0 -1 0 814)" gradientUnits="userSpaceOnUse">
			<stop  offset="0" style="stop-color:#76EAA9"/>
			<stop  offset="1" style="stop-color:#7388FF"/>
		</radialGradient>
		<path class="st30" d="M232.5,541.5l-18,1l-1,2c1.7,26,3.3,52,5,78l1,9C223.8,601.5,228.2,571.5,232.5,541.5z"/>
		
			<radialGradient id="SVGID_32_" cx="196.0856" cy="160.1665" r="199.0796" gradientTransform="matrix(1 0 0 -1 0 814)" gradientUnits="userSpaceOnUse">
			<stop  offset="0" style="stop-color:#4DC6BD"/>
			<stop  offset="0.2444" style="stop-color:#4FC3C1"/>
			<stop  offset="0.4922" style="stop-color:#53BBCD"/>
			<stop  offset="0.7415" style="stop-color:#5BAEE2"/>
			<stop  offset="0.9906" style="stop-color:#669CFE"/>
			<stop  offset="1" style="stop-color:#669BFF"/>
		</radialGradient>
		<path class="st31" d="M311.5,534.5c11.2,38.5,22.3,77,33.5,115.5c3.8-14.2,7.7-28.3,11.5-42.5L311.5,534.5z"/>
		
			<radialGradient id="SVGID_33_" cx="-10.5138" cy="196.5736" r="317.9666" gradientTransform="matrix(1 0 0 -1 0 814)" gradientUnits="userSpaceOnUse">
			<stop  offset="0" style="stop-color:#4DAFD2"/>
			<stop  offset="0.2204" style="stop-color:#51AED2"/>
			<stop  offset="0.4438" style="stop-color:#5DADD0"/>
			<stop  offset="0.6687" style="stop-color:#72AACE"/>
			<stop  offset="0.8932" style="stop-color:#8EA5CB"/>
			<stop  offset="1" style="stop-color:#9EA3C9"/>
		</radialGradient>
		<path class="st32" d="M107.5,748.5c-0.3,2-0.7,4-1,6l99,60c5.9-41.4,11.9-82.8,17.8-124.2l-6.8-0.8l-92,9L107.5,748.5z"/>
		
			<radialGradient id="SVGID_34_" cx="246.1319" cy="210.0549" r="269.6183" gradientTransform="matrix(1 0 0 -1 0 814)" gradientUnits="userSpaceOnUse">
			<stop  offset="0" style="stop-color:#00B5AF"/>
			<stop  offset="0.3898" style="stop-color:#42C0A6"/>
			<stop  offset="0.8041" style="stop-color:#83CB9D"/>
			<stop  offset="1" style="stop-color:#9CCF99"/>
		</radialGradient>
		<path class="st33" d="M168.5,403.5l3,12c13.7,41.3,27.3,82.7,41,124l2,3l17-14L168.5,403.5z"/>
		
			<radialGradient id="SVGID_35_" cx="148.0352" cy="250.216" r="199.0771" gradientTransform="matrix(1 0 0 -1 0 814)" gradientUnits="userSpaceOnUse">
			<stop  offset="0" style="stop-color:#78C6BD"/>
			<stop  offset="0.2356" style="stop-color:#77C2C1"/>
			<stop  offset="0.4744" style="stop-color:#74B6CC"/>
			<stop  offset="0.7146" style="stop-color:#6FA1DF"/>
			<stop  offset="0.9547" style="stop-color:#6885F9"/>
			<stop  offset="1" style="stop-color:#667FFF"/>
		</radialGradient>
		<path class="st34" d="M220.5,626.5l3,64L127,700l-0.5-2.5l22-58l67-16L220.5,626.5z"/>
		
			<radialGradient id="SVGID_36_" cx="61.595" cy="157.2223" r="85.8599" gradientTransform="matrix(1 0 0 -1 0 814)" gradientUnits="userSpaceOnUse">
			<stop  offset="0" style="stop-color:#4DC6BD"/>
			<stop  offset="0.2204" style="stop-color:#51C4BE"/>
			<stop  offset="0.4438" style="stop-color:#5DBFBF"/>
			<stop  offset="0.6687" style="stop-color:#72B6C2"/>
			<stop  offset="0.8932" style="stop-color:#8EAAC7"/>
			<stop  offset="1" style="stop-color:#9EA3C9"/>
		</radialGradient>
		<path class="st35" d="M148.5,643.5l-4,3l-36,37L104,690c0.8,21.5,1.7,43,2.5,64.5L148.5,643.5z"/>
		
			<radialGradient id="SVGID_37_" cx="58.5434" cy="383.7808" r="345.5039" gradientTransform="matrix(1 0 0 -1 0 814)" gradientUnits="userSpaceOnUse">
			<stop  offset="0" style="stop-color:#96E46F"/>
			<stop  offset="0.9068" style="stop-color:#6FBBD8"/>
		</radialGradient>
		<path class="st36" d="M168.5,403.5l-2,3l-44,158l21,72l4.5,7.5l72.5-17.5l-6-84L168.5,403.5z"/>
		
			<radialGradient id="SVGID_38_" cx="5.8956" cy="207.3901" r="177.4849" gradientTransform="matrix(1 0 0 -1 0 814)" gradientUnits="userSpaceOnUse">
			<stop  offset="0" style="stop-color:#96E46F"/>
			<stop  offset="1" style="stop-color:#6FBBD8"/>
		</radialGradient>
		<path class="st37" d="M125,561l-6.5,0.5l-37,31L79,598c8.3,30.7,16.7,61.3,25,92l44-46L125,561z"/>
		
			<radialGradient id="SVGID_39_" cx="-24.1372" cy="371.5851" r="177.5713" gradientTransform="matrix(1 0 0 -1 0 814)" gradientUnits="userSpaceOnUse">
			<stop  offset="0" style="stop-color:#00B5BE"/>
			<stop  offset="0.4002" style="stop-color:#45CBBB"/>
			<stop  offset="0.8075" style="stop-color:#86E0B9"/>
			<stop  offset="1" style="stop-color:#9FE8B8"/>
		</radialGradient>
		<path class="st38" d="M74.5,491.5c0.3,1.3,0.7,2.7,1,4l47,64l2.5,1.5l43.5-157.5L74.5,491.5z"/>
		
			<radialGradient id="SVGID_40_" cx="170.0881" cy="232.7876" r="102.8368" gradientTransform="matrix(1 0 0 -1 0 814)" gradientUnits="userSpaceOnUse">
			<stop  offset="0" style="stop-color:#00B5AF"/>
			<stop  offset="0.3898" style="stop-color:#42C0A6"/>
			<stop  offset="0.8041" style="stop-color:#83CB9D"/>
			<stop  offset="1" style="stop-color:#9CCF99"/>
		</radialGradient>
		<path class="st39" d="M74.5,491.5L125,561l-46,37l-13.5-20.5L74.5,491.5z"/>
		
			<radialGradient id="SVGID_41_" cx="361.5769" cy="352.9725" r="250.3397" gradientTransform="matrix(1 0 0 -1 0 814)" gradientUnits="userSpaceOnUse">
			<stop  offset="0" style="stop-color:#00B5AF"/>
			<stop  offset="0.3898" style="stop-color:#42C0A6"/>
			<stop  offset="0.8041" style="stop-color:#83CB9D"/>
			<stop  offset="1" style="stop-color:#9CCF99"/>
		</radialGradient>
		<path class="st40" d="M218.5,317.5l105-4l-15,78L218.5,317.5z"/>
		
			<radialGradient id="SVGID_42_" cx="257.5" cy="314.3404" r="262.9409" gradientTransform="matrix(1 0 0 -1 0 814)" gradientUnits="userSpaceOnUse">
			<stop  offset="0" style="stop-color:#00B5AF"/>
			<stop  offset="0.5826" style="stop-color:#2AD5A1"/>
			<stop  offset="1" style="stop-color:#43E899"/>
		</radialGradient>
		<path class="st41" d="M155.5,256.5l63,61l-50,86c-12.7-31.3-25.3-62.7-38-94L155.5,256.5z"/>
	</g>
	<g id="highlights" class="st42">
		<path class="st43" d="M172.5,251.5c-0.1-0.5,18.5-6.8,56-19c1.3-14,2.7-28,4-42c-0.3,14-0.7,28-1,42l27,1l-28,2
			c-7.7,52.7-11.7,79-12,79c-0.3,0,3-26.4,10-79C191.3,246.6,172.6,252,172.5,251.5z"/>
		<path class="st43" d="M249.5,316.5l72.3-4c-7.1-24-14.2-48-21.3-72c8.1,24,16.2,48,24.3,72l25.7-20l-26.7,23
			c-5.9,36.1-9,54.1-9.3,54c-0.3-0.1,2.1-18.1,7.3-54L249.5,316.5z"/>
		<path class="st43" d="M328.5,560.5l29,45l42-16l-41,18l-12,40l9-40L328.5,560.5z"/>
		<path class="st43" d="M287.5,45.5l30,19l16,45l-17-42l-25,54l24-55l-41,15l41-17L287.5,45.5z"/>
		<path class="st43" d="M452.5,485.5l24,68l-39,19l38-16c-18.4,33.1-27.4,49.8-27,50c0.4,0.2,10.7-17.1,31-52L452.5,485.5z"/>
		<path class="st43" d="M297.5,423.5l-20,56l-28,30l28-28c9.1,13.5,13.8,20.1,14,20c0.2-0.1-4.1-7.1-13-21L297.5,423.5z"/>
		<path class="st43" d="M201.5,347.5l-31,56l14,32l-17-33L201.5,347.5z"/>
		<path class="st43" d="M221.5,657.5c0.7,10.3,1.3,20.7,2,31l56,11l-58-9V657.5z"/>
		<path class="st43" d="M124.5,559.5l9-29c-2.7,10.3-5.3,20.7-8,31c3.7,13.3,7.3,26.7,11,40l-12-39l-25,19l24-20l-22-33L124.5,559.5
			z"/>
	</g>
</g>
</svg>
