<?xml version="1.0" encoding="utf-8"?>
<!-- Generator: Adobe Illustrator 24.1.3, SVG Export Plug-In . SVG Version: 6.00 Build 0)  -->
<svg version="1.1" id="hero" xmlns="http://www.w3.org/2000/svg" xmlns:xlink="http://www.w3.org/1999/xlink" x="0px" y="0px"
	 viewBox="0 0 550 993" style="enable-background:new 0 0 550 993;" xml:space="preserve">
<style type="text/css">
	.st0{fill:url(#SVGID_1_);}
	.st1{fill:url(#SVGID_2_);}
	.st2{fill:url(#SVGID_3_);}
	.st3{fill:url(#SVGID_4_);}
	.st4{fill:url(#SVGID_5_);}
	.st5{fill:url(#SVGID_6_);}
	.st6{fill:url(#SVGID_7_);}
	.st7{fill:url(#SVGID_8_);}
	.st8{fill:url(#SVGID_9_);}
	.st9{fill:url(#SVGID_10_);}
	.st10{fill:url(#SVGID_11_);}
	.st11{fill:url(#SVGID_12_);}
	.st12{fill:url(#SVGID_13_);}
	.st13{fill:url(#SVGID_14_);}
	.st14{opacity:0.88;fill:url(#SVGID_15_);enable-background:new    ;}
	.st15{opacity:0.5;}
	.st16{fill:#F2F2F2;}
	.st17{fill:url(#SVGID_16_);}
	.st18{fill:url(#SVGID_17_);}
	.st19{fill:url(#SVGID_18_);}
	.st20{fill:url(#SVGID_19_);}
	.st21{fill:url(#SVGID_20_);}
	.st22{fill:url(#SVGID_21_);}
	.st23{fill:url(#SVGID_22_);}
	.st24{fill:url(#SVGID_23_);}
	.st25{fill:url(#SVGID_24_);}
	.st26{fill:url(#SVGID_25_);}
	.st27{fill:url(#SVGID_26_);}
	.st28{fill:url(#SVGID_27_);}
	.st29{fill:url(#SVGID_28_);}
	.st30{fill:url(#SVGID_29_);}
	.st31{fill:url(#SVGID_30_);}
	.st32{fill:url(#SVGID_31_);}
	.st33{fill:url(#SVGID_32_);}
	.st34{fill:url(#SVGID_33_);}
	.st35{fill:url(#SVGID_34_);}
	.st36{fill:url(#SVGID_35_);}
	.st37{fill:url(#SVGID_36_);}
	.st38{fill:url(#SVGID_37_);}
	.st39{fill:url(#SVGID_38_);}
	.st40{fill:url(#SVGID_39_);}
	.st41{fill:url(#SVGID_40_);}
	.st42{fill:url(#SVGID_41_);}
	.st43{fill:url(#SVGID_42_);}
	.st44{fill:url(#SVGID_43_);}
	.st45{fill:url(#SVGID_44_);}
	.st46{fill:url(#SVGID_45_);}
	.st47{fill:url(#SVGID_46_);}
	.st48{fill:url(#SVGID_47_);}
	.st49{fill:url(#SVGID_48_);}
	.st50{fill:url(#SVGID_49_);}
	.st51{fill:url(#SVGID_50_);}
	.st52{fill:url(#SVGID_51_);}
	.st53{fill:url(#SVGID_52_);}
	.st54{fill:url(#SVGID_53_);}
	.st55{fill:url(#SVGID_54_);}
	.st56{fill:url(#SVGID_55_);}
	.st57{fill:url(#SVGID_56_);}
	.st58{fill:url(#SVGID_57_);}
	.st59{fill:url(#SVGID_58_);}
	.st60{fill:url(#SVGID_59_);}
	.st61{fill:url(#SVGID_60_);}
	.st62{fill:url(#SVGID_61_);}
	.st63{fill:url(#SVGID_62_);}
	.st64{fill:url(#SVGID_63_);}
	.st65{fill:url(#SVGID_64_);}
	.st66{fill:url(#SVGID_65_);}
	.st67{fill:url(#SVGID_66_);}
	.st68{fill:url(#SVGID_67_);}
	.st69{fill:url(#SVGID_68_);}
	.st70{fill:url(#SVGID_69_);}
	.st71{fill:url(#SVGID_70_);}
	.st72{fill:url(#SVGID_71_);}
	.st73{fill:url(#SVGID_72_);}
	.st74{fill:url(#SVGID_73_);}
	.st75{fill:url(#SVGID_74_);}
	.st76{fill:url(#SVGID_75_);}
	.st77{fill:url(#SVGID_76_);}
	.st78{fill:url(#SVGID_77_);}
	.st79{fill:url(#SVGID_78_);}
</style>
<g id="lower">
	<g id="shapes_shard_01">
		
			<radialGradient id="SVGID_1_" cx="311.6303" cy="283.1374" r="159.4441" gradientTransform="matrix(1 0 0 -1 0 994)" gradientUnits="userSpaceOnUse">
			<stop  offset="0" style="stop-color:#55BDC5"/>
			<stop  offset="0.1653" style="stop-color:#58B8C3"/>
			<stop  offset="0.3705" style="stop-color:#5FA8BD"/>
			<stop  offset="0.5966" style="stop-color:#6B8FB3"/>
			<stop  offset="0.8362" style="stop-color:#7C6CA6"/>
			<stop  offset="1" style="stop-color:#8A509B"/>
		</radialGradient>
		<path class="st0" d="M370,671.5c0.3,6.7,0.7,13.3,1,20c4.7,23.7,9.3,47.3,14,71l6,17l78-87l8-12L370,671.5z"/>
		
			<radialGradient id="SVGID_2_" cx="346.6374" cy="232.0495" r="141.3233" gradientTransform="matrix(1 0 0 -1 0 994)" gradientUnits="userSpaceOnUse">
			<stop  offset="0" style="stop-color:#55BDC5"/>
			<stop  offset="0.1653" style="stop-color:#58B8C3"/>
			<stop  offset="0.3705" style="stop-color:#5FA8BD"/>
			<stop  offset="0.5966" style="stop-color:#6B8FB3"/>
			<stop  offset="0.8362" style="stop-color:#7C6CA6"/>
			<stop  offset="1" style="stop-color:#8A509B"/>
		</radialGradient>
		<path class="st1" d="M253,700.5l5,8l52,53l57-83l3-7L253,700.5z"/>
		
			<radialGradient id="SVGID_3_" cx="262.5312" cy="277.9662" r="135.8014" gradientTransform="matrix(1 0 0 -1 0 994)" gradientUnits="userSpaceOnUse">
			<stop  offset="0" style="stop-color:#55BDC5"/>
			<stop  offset="0.1653" style="stop-color:#58B8C3"/>
			<stop  offset="0.3705" style="stop-color:#5FA8BD"/>
			<stop  offset="0.5966" style="stop-color:#6B8FB3"/>
			<stop  offset="0.8362" style="stop-color:#7C6CA6"/>
			<stop  offset="1" style="stop-color:#8A509B"/>
		</radialGradient>
		<path class="st2" d="M370,671.5l-60,88l81,20L370,671.5z"/>
		
			<radialGradient id="SVGID_4_" cx="176.2747" cy="288.4003" r="150.0409" gradientTransform="matrix(1 0 0 -1 0 994)" gradientUnits="userSpaceOnUse">
			<stop  offset="0" style="stop-color:#55BDC5"/>
			<stop  offset="0.1653" style="stop-color:#58B8C3"/>
			<stop  offset="0.3705" style="stop-color:#5FA8BD"/>
			<stop  offset="0.5966" style="stop-color:#6B8FB3"/>
			<stop  offset="0.8362" style="stop-color:#7C6CA6"/>
			<stop  offset="1" style="stop-color:#8A509B"/>
		</radialGradient>
		<path class="st3" d="M253,700.5l-76,54l97,61c-0.3-7.3-0.7-14.7-1-22l-18-88L253,700.5z"/>
		
			<radialGradient id="SVGID_5_" cx="263.8242" cy="277.9396" r="110.8524" gradientTransform="matrix(1 0 0 -1 0 994)" gradientUnits="userSpaceOnUse">
			<stop  offset="0" style="stop-color:#55BDC5"/>
			<stop  offset="0.1653" style="stop-color:#58B8C3"/>
			<stop  offset="0.3705" style="stop-color:#5FA8BD"/>
			<stop  offset="0.5966" style="stop-color:#6B8FB3"/>
			<stop  offset="0.8362" style="stop-color:#7C6CA6"/>
			<stop  offset="1" style="stop-color:#8A509B"/>
		</radialGradient>
		<path class="st4" d="M310,759.5l81,20l-117,36l3-8l24-39L310,759.5z"/>
		
			<radialGradient id="SVGID_6_" cx="232.1758" cy="252.3571" r="95.8963" gradientTransform="matrix(1 0 0 -1 0 994)" gradientUnits="userSpaceOnUse">
			<stop  offset="0" style="stop-color:#55BDC5"/>
			<stop  offset="0.1653" style="stop-color:#58B8C3"/>
			<stop  offset="0.3705" style="stop-color:#5FA8BD"/>
			<stop  offset="0.5966" style="stop-color:#6B8FB3"/>
			<stop  offset="0.8362" style="stop-color:#7C6CA6"/>
			<stop  offset="1" style="stop-color:#8A509B"/>
		</radialGradient>
		<path class="st5" d="M253,700.5l57,59l-36,56l-14-42C257.7,749.2,255.3,724.8,253,700.5z"/>
		
			<radialGradient id="SVGID_7_" cx="153.9066" cy="152.5931" r="190.8256" gradientTransform="matrix(1 0 0 -1 0 994)" gradientUnits="userSpaceOnUse">
			<stop  offset="0" style="stop-color:#A3ADBD"/>
			<stop  offset="0.2444" style="stop-color:#A3AAC1"/>
			<stop  offset="0.4922" style="stop-color:#A3A2CD"/>
			<stop  offset="0.7415" style="stop-color:#A294E2"/>
			<stop  offset="0.9906" style="stop-color:#A280FE"/>
			<stop  offset="1" style="stop-color:#A27FFF"/>
		</radialGradient>
		<path class="st6" d="M207,866.5h-2L310.5,993l0.5-9.5l-9-81L207,866.5z"/>
		
			<radialGradient id="SVGID_8_" cx="252.6097" cy="-41.9182" r="223.2486" gradientTransform="matrix(1 0 0 -1 0 994)" gradientUnits="userSpaceOnUse">
			<stop  offset="0" style="stop-color:#5A43C1"/>
			<stop  offset="0.2204" style="stop-color:#5D47C3"/>
			<stop  offset="0.4438" style="stop-color:#6653C7"/>
			<stop  offset="0.6687" style="stop-color:#7668CF"/>
			<stop  offset="0.8932" style="stop-color:#8B84DA"/>
			<stop  offset="1" style="stop-color:#9794E0"/>
		</radialGradient>
		<path class="st7" d="M275.5,814l-0.5,4.5l22,82l4,5l88-2l4-1c0.7-2.3,1.3-4.7,2-7c3.3-18.7,6.7-37.3,10-56l-122-25L275.5,814z"/>
		
			<radialGradient id="SVGID_9_" cx="292.0649" cy="328.7118" r="192.963" gradientTransform="matrix(1 0 0 -1 0 994)" gradientUnits="userSpaceOnUse">
			<stop  offset="0" style="stop-color:#7F85AA"/>
			<stop  offset="0.2373" style="stop-color:#8085AE"/>
			<stop  offset="0.4778" style="stop-color:#8284BA"/>
			<stop  offset="0.7198" style="stop-color:#8682CF"/>
			<stop  offset="0.9615" style="stop-color:#8B7FEB"/>
			<stop  offset="1" style="stop-color:#8C7FF0"/>
		</radialGradient>
		<path class="st8" d="M390,777.5l2,4c3.7,19.3,7.3,38.7,11,58l-0.5,2.5l-127-27.9L390,777.5z"/>
		
			<radialGradient id="SVGID_10_" cx="423.63" cy="55.1406" r="353.9698" gradientTransform="matrix(1 0 0 -1 0 994)" gradientUnits="userSpaceOnUse">
			<stop  offset="0" style="stop-color:#7B53C4"/>
			<stop  offset="0.2463" style="stop-color:#7D57C6"/>
			<stop  offset="0.496" style="stop-color:#8363CB"/>
			<stop  offset="0.7473" style="stop-color:#8E78D4"/>
			<stop  offset="0.9983" style="stop-color:#9C94E0"/>
			<stop  offset="1" style="stop-color:#9C94E0"/>
		</radialGradient>
		<path class="st9" d="M424,831.5h-1l-18,8l-2.5,2.5c-3.2,20.2-6.3,40.3-9.5,60.5C403.3,878.8,413.7,855.2,424,831.5z"/>
		
			<radialGradient id="SVGID_11_" cx="445.0738" cy="94.8616" r="172.5504" gradientTransform="matrix(1 0 0 -1 0 994)" gradientUnits="userSpaceOnUse">
			<stop  offset="0" style="stop-color:#6C49C1"/>
			<stop  offset="0.2292" style="stop-color:#6F4DC3"/>
			<stop  offset="0.4615" style="stop-color:#7659C8"/>
			<stop  offset="0.6952" style="stop-color:#836ED0"/>
			<stop  offset="0.9286" style="stop-color:#958ADC"/>
			<stop  offset="1" style="stop-color:#9C94E0"/>
		</radialGradient>
		<path class="st10" d="M390,777.5c4.2,21.5,8.3,43,12.5,64.5l21.5-10.5c17.7-50.3,35.3-100.7,53-151L390,777.5z"/>
		
			<radialGradient id="SVGID_12_" cx="-16.8687" cy="200.5129" r="261.8274" gradientTransform="matrix(1 0 0 -1 0 994)" gradientUnits="userSpaceOnUse">
			<stop  offset="0" style="stop-color:#4DC6BD"/>
			<stop  offset="0.2204" style="stop-color:#51C4BE"/>
			<stop  offset="0.4438" style="stop-color:#5DBFBF"/>
			<stop  offset="0.6687" style="stop-color:#72B6C2"/>
			<stop  offset="0.8932" style="stop-color:#8EAAC7"/>
			<stop  offset="1" style="stop-color:#9EA3C9"/>
		</radialGradient>
		<path class="st11" d="M177,754.5l98.5,59.5l-7.5,8.5l-58,42l-5,2L177,754.5z"/>
		
			<radialGradient id="SVGID_13_" cx="352.2484" cy="55.0824" r="180.1517" gradientTransform="matrix(1 0 0 -1 0 994)" gradientUnits="userSpaceOnUse">
			<stop  offset="0" style="stop-color:#787DD4"/>
			<stop  offset="0.2784" style="stop-color:#7B81D3"/>
			<stop  offset="0.5606" style="stop-color:#858DD1"/>
			<stop  offset="0.8437" style="stop-color:#95A1CC"/>
			<stop  offset="1" style="stop-color:#A1B0C9"/>
		</radialGradient>
		<path class="st12" d="M299.5,904L205,866.5l70.5-52.5L299.5,904z"/>
		
			<radialGradient id="SVGID_14_" cx="354.6064" cy="2.8524" r="111.6542" gradientTransform="matrix(1 0 0 -1 0 994)" gradientUnits="userSpaceOnUse">
			<stop  offset="0" style="stop-color:#5A49C1"/>
			<stop  offset="0.2292" style="stop-color:#5E4DC3"/>
			<stop  offset="0.4615" style="stop-color:#6859C8"/>
			<stop  offset="0.6952" style="stop-color:#7A6ED0"/>
			<stop  offset="0.9286" style="stop-color:#938ADC"/>
			<stop  offset="1" style="stop-color:#9C94E0"/>
		</radialGradient>
		<path class="st13" d="M299.5,904c3.7,29.7,7.3,59.3,11,89l82.5-90.5L299.5,904z"/>
		
			<radialGradient id="SVGID_15_" cx="34.277" cy="288.1097" r="376.8674" gradientTransform="matrix(1 0 0 -1 0 994)" gradientUnits="userSpaceOnUse">
			<stop  offset="0" style="stop-color:#55BDC5"/>
			<stop  offset="0.1897" style="stop-color:#57B9C3"/>
			<stop  offset="0.382" style="stop-color:#5DADBF"/>
			<stop  offset="0.5756" style="stop-color:#6798B7"/>
			<stop  offset="0.7701" style="stop-color:#757CAC"/>
			<stop  offset="0.9636" style="stop-color:#86589E"/>
			<stop  offset="1" style="stop-color:#8A509B"/>
		</radialGradient>
		<path class="st14" d="M177,754.5l98.5,59.5L390,777.5l87-97l-107-9l-117,29L177,754.5z"/>
	</g>
	<g id="highlights" class="st15">
		<path class="st16" d="M401,840.5c-2.7-15.3-5.3-30.7-8-46l10,46l17-7l-17,9l-6,37c1.3-12.3,2.7-24.7,4-37l-44-10L401,840.5z"/>
		<path class="st16" d="M194,823.5l12,41l45-32l-43,34l47,20l-47-18c19.5,23.8,29.2,35.8,29,36c-0.2,0.2-10.9-12.2-32-37L194,823.5z
			"/>
	</g>
</g>
<g id="main">
	<g id="shapes_color">
		
			<radialGradient id="SVGID_16_" cx="296.8335" cy="464.6711" r="257.7297" gradientTransform="matrix(1 0 0 -1 0 994)" gradientUnits="userSpaceOnUse">
			<stop  offset="0" style="stop-color:#00B5BE"/>
			<stop  offset="0.5826" style="stop-color:#2AD5BA"/>
			<stop  offset="1" style="stop-color:#43E8B8"/>
		</radialGradient>
		<path class="st17" d="M70.5,390l4.5,3.5l72,97l-9,93l-44-66l-1-3L70.5,390z"/>
		
			<radialGradient id="SVGID_17_" cx="224.3334" cy="608.7023" r="255.0836" gradientTransform="matrix(1 0 0 -1 0 994)" gradientUnits="userSpaceOnUse">
			<stop  offset="0" style="stop-color:#00B5BE"/>
			<stop  offset="0.5826" style="stop-color:#2AD5A8"/>
			<stop  offset="1" style="stop-color:#43E89A"/>
		</radialGradient>
		<path class="st18" d="M342,232.5l-52,85l-2,2c3.7-29,7.3-58,11-87H342z"/>
		
			<radialGradient id="SVGID_18_" cx="263.3342" cy="1027.0583" r="232.0394" gradientTransform="matrix(1 0 0 -1 0 994)" gradientUnits="userSpaceOnUse">
			<stop  offset="0" style="stop-color:#FFFF40"/>
			<stop  offset="0.4925" style="stop-color:#99F76C"/>
			<stop  offset="0.8381" style="stop-color:#57F188"/>
			<stop  offset="1" style="stop-color:#3EEF93"/>
		</radialGradient>
		<path class="st19" d="M342.5,35c0.4,0.7,0.8,1.5,1.1,2.2c-3.7,17.2-7.3,34.4-11,51.5c-12.5,14.9-25.1,29.9-37.6,44.8l-3-2
			c-8.3-28.7-16.7-57.3-25-86l0.5-2.5l44-43L342.5,35z"/>
		
			<radialGradient id="SVGID_19_" cx="345.4066" cy="987.9176" r="83.0279" gradientTransform="matrix(1 0 0 -1 0 994)" gradientUnits="userSpaceOnUse">
			<stop  offset="0" style="stop-color:#64F968"/>
			<stop  offset="0.1919" style="stop-color:#6AF66F"/>
			<stop  offset="1" style="stop-color:#7FE988"/>
		</radialGradient>
		<path class="st20" d="M388.5,65l-6.5,4.5l-41,16l-9.5,2.5c3.7-17.7,7.3-35.3,11-53L388.5,65z"/>
		
			<radialGradient id="SVGID_20_" cx="105.6158" cy="976.225" r="296.3492" gradientTransform="matrix(1 0 0 -1 0 994)" gradientUnits="userSpaceOnUse">
			<stop  offset="0" style="stop-color:#FFFF40"/>
			<stop  offset="0.4925" style="stop-color:#99F76C"/>
			<stop  offset="0.8381" style="stop-color:#57F188"/>
			<stop  offset="1" style="stop-color:#3EEF93"/>
		</radialGradient>
		<path class="st21" d="M294.5,132l1.5,3.5l9,49l-1,47l-9,6l-70,21l-46-50l-1.5-3.5l90-162L294.5,132z"/>
		
			<radialGradient id="SVGID_21_" cx="395.8999" cy="766.6709" r="138.4353" gradientTransform="matrix(1 0 0 -1 0 994)" gradientUnits="userSpaceOnUse">
			<stop  offset="0" style="stop-color:#00B5AF"/>
			<stop  offset="0.5826" style="stop-color:#2AD5A1"/>
			<stop  offset="1" style="stop-color:#43E899"/>
		</radialGradient>
		<path class="st22" d="M303,185.5l58,22c-1.7-23.7-3.3-47.3-5-71l-22-46l-2.5-2.5l-37,44C297.3,149.8,300.2,167.7,303,185.5z"/>
		
			<radialGradient id="SVGID_22_" cx="214.1126" cy="468.5934" r="217.1362" gradientTransform="matrix(1 0 0 -1 0 994)" gradientUnits="userSpaceOnUse">
			<stop  offset="0" style="stop-color:#00B5AF"/>
			<stop  offset="0.5826" style="stop-color:#2AD5A1"/>
			<stop  offset="1" style="stop-color:#43E899"/>
		</radialGradient>
		<path class="st23" d="M70.5,390l4.5-1.5l61-14l4.5,0.5l3.5,6.5l3,104l-2,6L70.5,390z"/>
		
			<radialGradient id="SVGID_23_" cx="254.2035" cy="445.4979" r="230.9947" gradientTransform="matrix(1 0 0 -1 0 994)" gradientUnits="userSpaceOnUse">
			<stop  offset="0" style="stop-color:#00B5AF"/>
			<stop  offset="0.5826" style="stop-color:#2AD5A1"/>
			<stop  offset="1" style="stop-color:#43E899"/>
		</radialGradient>
		<path class="st24" d="M140.5,375l1.5-3.5l60-67l36,89c0.3,3.3,0.7,6.7,1,10l-2,3l-90,84l-2,1L140.5,375z"/>
		
			<radialGradient id="SVGID_24_" cx="25.189" cy="725.9697" r="265.4065" gradientTransform="matrix(1 0 0 -1 0 994)" gradientUnits="userSpaceOnUse">
			<stop  offset="0" style="stop-color:#FCEE21"/>
			<stop  offset="0.4677" style="stop-color:#A0F576"/>
			<stop  offset="0.8301" style="stop-color:#5EF9B3"/>
			<stop  offset="1" style="stop-color:#45FBCA"/>
		</radialGradient>
		<path class="st25" d="M160,255.5l3,1l35,47l3,6L140.5,375l-70,15L160,255.5z"/>
		
			<radialGradient id="SVGID_25_" cx="0.9391" cy="853.1054" r="304.2782" gradientTransform="matrix(1 0 0 -1 0 994)" gradientUnits="userSpaceOnUse">
			<stop  offset="0" style="stop-color:#FCEE21"/>
			<stop  offset="0.4677" style="stop-color:#A0F576"/>
			<stop  offset="0.8301" style="stop-color:#5EF9B3"/>
			<stop  offset="1" style="stop-color:#45FBCA"/>
		</radialGradient>
		<path class="st26" d="M177.5,205l48.5,51.5l1,4l-23,47l-3,2l-41-54L177.5,205z"/>
		
			<radialGradient id="SVGID_26_" cx="313.6699" cy="631.5441" r="141.6898" gradientTransform="matrix(1 0 0 -1 0 994)" gradientUnits="userSpaceOnUse">
			<stop  offset="0" style="stop-color:#00B56C"/>
			<stop  offset="0.5826" style="stop-color:#2AD584"/>
			<stop  offset="1" style="stop-color:#43E893"/>
		</radialGradient>
		<path class="st27" d="M226,256.5l2,5l56,54l5,2c3.8-27.8,7.7-55.7,11.5-83.5L226,256.5z"/>
		
			<radialGradient id="SVGID_27_" cx="241.2518" cy="823.06" r="122.3112" gradientTransform="matrix(1 0 0 -1 0 994)" gradientUnits="userSpaceOnUse">
			<stop  offset="0" style="stop-color:#3AE879"/>
			<stop  offset="0.4281" style="stop-color:#40D88F"/>
			<stop  offset="1" style="stop-color:#46C5A8"/>
		</radialGradient>
		<path class="st28" d="M303,184.5l56,18l-1,4l-14,23l-4,4l-39.5,0.5L303,184.5z"/>
		
			<radialGradient id="SVGID_28_" cx="63.2571" cy="311.9441" r="272.5343" gradientTransform="matrix(1 0 0 -1 0 994)" gradientUnits="userSpaceOnUse">
			<stop  offset="0" style="stop-color:#00B5AF"/>
			<stop  offset="0.5826" style="stop-color:#2AD5A1"/>
			<stop  offset="1" style="stop-color:#43E899"/>
		</radialGradient>
		<path class="st29" d="M84.5,533l6.5,3.5l42,38l3,3l11,14l4,7l-4,2l-38,2l-7.5-0.5C95.8,579,90.2,556,84.5,533z"/>
		
			<radialGradient id="SVGID_29_" cx="36.5099" cy="426.4505" r="199.4696" gradientTransform="matrix(1 0 0 -1 0 994)" gradientUnits="userSpaceOnUse">
			<stop  offset="0" style="stop-color:#FFE47D"/>
			<stop  offset="1" style="stop-color:#6FC2BF"/>
		</radialGradient>
		<path class="st30" d="M93,514.5l43,63L84.5,533C87.3,526.8,90.2,520.7,93,514.5z"/>
		
			<radialGradient id="SVGID_30_" cx="378.6374" cy="834.4231" r="94.6049" gradientTransform="matrix(1 0 0 -1 0 994)" gradientUnits="userSpaceOnUse">
			<stop  offset="0" style="stop-color:#00B5AF"/>
			<stop  offset="0.5826" style="stop-color:#2AD5A1"/>
			<stop  offset="1" style="stop-color:#43E899"/>
		</radialGradient>
		<path class="st31" d="M388.5,65l-1.5,5.5l-27,58l-5.5,9.5l-23-50L388.5,65z"/>
		
			<radialGradient id="SVGID_31_" cx="468.5601" cy="643.127" r="261.2796" gradientTransform="matrix(1 0 0 -1 0 994)" gradientUnits="userSpaceOnUse">
			<stop  offset="0" style="stop-color:#00B5BE"/>
			<stop  offset="0.5826" style="stop-color:#2AD5BA"/>
			<stop  offset="1" style="stop-color:#43E8B8"/>
		</radialGradient>
		<path class="st32" d="M388.5,65l-34,73l4.5,64.5l6,9l100,86L388.5,65z"/>
		
			<radialGradient id="SVGID_32_" cx="371.9625" cy="631.9518" r="171.8521" gradientTransform="matrix(1 0 0 -1 0 994)" gradientUnits="userSpaceOnUse">
			<stop  offset="0" style="stop-color:#4DC6BD"/>
			<stop  offset="0.2356" style="stop-color:#4EC2C1"/>
			<stop  offset="0.4744" style="stop-color:#53B6CC"/>
			<stop  offset="0.7146" style="stop-color:#5AA1DF"/>
			<stop  offset="0.9547" style="stop-color:#6485F9"/>
			<stop  offset="1" style="stop-color:#667FFF"/>
		</radialGradient>
		<path class="st33" d="M442,275.5c0.3,2.7,0.7,5.3,1,8l39,101l7.5,17.5c-8.2-34.8-16.3-69.7-24.5-104.5L442,275.5z"/>
		
			<radialGradient id="SVGID_33_" cx="488.0935" cy="-35.0639" r="489.5842" gradientTransform="matrix(0.3629 -0.9318 -0.5417 -0.211 187.4115 1203.7279)" gradientUnits="userSpaceOnUse">
			<stop  offset="0" style="stop-color:#4DC6BD"/>
			<stop  offset="0.2705" style="stop-color:#4FC2BF"/>
			<stop  offset="0.5446" style="stop-color:#57B6C3"/>
			<stop  offset="0.8196" style="stop-color:#63A2CB"/>
			<stop  offset="1" style="stop-color:#6D90D2"/>
		</radialGradient>
		<path class="st34" d="M442,275.5L549.5,554l-6.5,5.5l-117,51l-37-60l-7-16l-1.5-7.5c-0.8-45.2-1.7-90.3-2.5-135.5l59-109
			L442,275.5z"/>
		
			<radialGradient id="SVGID_34_" cx="397.2336" cy="538.8924" r="268.7126" gradientTransform="matrix(1 0 0 -1 0 994)" gradientUnits="userSpaceOnUse">
			<stop  offset="0" style="stop-color:#4DC6BD"/>
			<stop  offset="0.2151" style="stop-color:#51C3C0"/>
			<stop  offset="0.4332" style="stop-color:#5DB8CA"/>
			<stop  offset="0.6526" style="stop-color:#72A7D9"/>
			<stop  offset="0.8718" style="stop-color:#8E90EF"/>
			<stop  offset="1" style="stop-color:#A27FFF"/>
		</radialGradient>
		<path class="st35" d="M427,607.5l-2,2c-3.7,14-7.3,28-11,42l58,29h5L549.5,554L427,607.5z"/>
		
			<radialGradient id="SVGID_35_" cx="416.399" cy="601.4505" r="162.6264" gradientTransform="matrix(1 0 0 -1 0 994)" gradientUnits="userSpaceOnUse">
			<stop  offset="0" style="stop-color:#3DA6C1"/>
			<stop  offset="0.5987" style="stop-color:#6AC0AE"/>
			<stop  offset="1" style="stop-color:#83CFA3"/>
		</radialGradient>
		<path class="st36" d="M379,391.5l-6,8l-27,82l35,52l1,1L379,391.5z"/>
		
			<radialGradient id="SVGID_36_" cx="453.8262" cy="418.7022" r="293.9045" gradientTransform="matrix(1 0 0 -1 0 994)" gradientUnits="userSpaceOnUse">
			<stop  offset="0" style="stop-color:#00B5AF"/>
			<stop  offset="0.2607" style="stop-color:#24BEA7"/>
			<stop  offset="0.7629" style="stop-color:#65CE99"/>
			<stop  offset="1" style="stop-color:#7ED493"/>
		</radialGradient>
		<path class="st37" d="M288,316.5l-49,87c20.7,42.3,41.3,84.7,62,127l47-48l31-91l-0.3-2.1L291,318.5L288,316.5z"/>
		
			<radialGradient id="SVGID_37_" cx="491.0973" cy="701.0552" r="147.9075" gradientTransform="matrix(1 5.323254e-04 5.323254e-04 -1 3.223664e-02 993.6407)" gradientUnits="userSpaceOnUse">
			<stop  offset="0" style="stop-color:#00B5AF"/>
			<stop  offset="0.3898" style="stop-color:#42C0A6"/>
			<stop  offset="0.8041" style="stop-color:#83CB9D"/>
			<stop  offset="1" style="stop-color:#9CCF99"/>
		</radialGradient>
		<path class="st38" d="M359,202.5l2,10l30,95l3,6h1l44-35l3-3L359,202.5z"/>
		
			<radialGradient id="SVGID_38_" cx="455.2031" cy="578.2634" r="249.5943" gradientTransform="matrix(1 0 0 -1 0 994)" gradientUnits="userSpaceOnUse">
			<stop  offset="0" style="stop-color:#009CD1"/>
			<stop  offset="0.4778" style="stop-color:#60C5B4"/>
			<stop  offset="0.8334" style="stop-color:#A2E0A1"/>
			<stop  offset="1" style="stop-color:#BBEB99"/>
		</radialGradient>
		<path class="st39" d="M394,313.5l-1,1c-4.3,22-8.7,44-13,66c-0.3,3.7-0.7,7.3-1,11l63-116L394,313.5z"/>
		
			<radialGradient id="SVGID_39_" cx="234.078" cy="821.9984" r="173.2893" gradientTransform="matrix(1 0 0 -1 0 994)" gradientUnits="userSpaceOnUse">
			<stop  offset="0" style="stop-color:#00B5BE"/>
			<stop  offset="0.4002" style="stop-color:#45CBBB"/>
			<stop  offset="0.8075" style="stop-color:#86E0B9"/>
			<stop  offset="1" style="stop-color:#9FE8B8"/>
		</radialGradient>
		<path class="st40" d="M359,202.5c11.7,37,23.3,74,35,111l-7,3l-91,2l-7-1L359,202.5z"/>
		
			<radialGradient id="SVGID_40_" cx="41.1882" cy="332.2093" r="247.6438" gradientTransform="matrix(1 0 0 -1 0 994)" gradientUnits="userSpaceOnUse">
			<stop  offset="0" style="stop-color:#00B5BE"/>
			<stop  offset="0.5826" style="stop-color:#2AD5BA"/>
			<stop  offset="1" style="stop-color:#43E8B8"/>
		</radialGradient>
		<path class="st41" d="M149.5,598l2.5,1.5l24,90c0.7,20,1.3,40,2,60l-1,5c-25.2-50.8-50.3-101.7-75.5-152.5L149.5,598z"/>
		
			<radialGradient id="SVGID_41_" cx="355.4011" cy="104.233" r="195.9687" gradientTransform="matrix(1 0 0 -1 0 994)" gradientUnits="userSpaceOnUse">
			<stop  offset="0" style="stop-color:#6B78D4"/>
			<stop  offset="0.2871" style="stop-color:#6E7CD3"/>
			<stop  offset="0.5781" style="stop-color:#7688D0"/>
			<stop  offset="0.8699" style="stop-color:#859CCC"/>
			<stop  offset="1" style="stop-color:#8DA8C9"/>
		</radialGradient>
		<path class="st42" d="M390,704.5c0.3,23.3,0.7,46.7,1,70l-1,4l-114,36v-8c5.7-39.7,11.3-79.3,17-119L390,704.5z"/>
		
			<radialGradient id="SVGID_42_" cx="527.9294" cy="190.9664" r="198.4273" gradientTransform="matrix(1 0 0 -1 0 994)" gradientUnits="userSpaceOnUse">
			<stop  offset="0" style="stop-color:#7149C1"/>
			<stop  offset="0.1933" style="stop-color:#724DC3"/>
			<stop  offset="0.3894" style="stop-color:#7659CB"/>
			<stop  offset="0.5866" style="stop-color:#7C6ED7"/>
			<stop  offset="0.7848" style="stop-color:#858AE7"/>
			<stop  offset="0.9819" style="stop-color:#91AEFD"/>
			<stop  offset="1" style="stop-color:#92B2FF"/>
		</radialGradient>
		<path class="st43" d="M415.5,650l61.5,30.5l-87,98l-1.5-72.5l-0.5-4.5l22-46L415.5,650z"/>
		
			<radialGradient id="SVGID_43_" cx="401.2038" cy="353.746" r="176.1707" gradientTransform="matrix(1 0 0 -1 0 994)" gradientUnits="userSpaceOnUse">
			<stop  offset="0" style="stop-color:#B6E473"/>
			<stop  offset="1" style="stop-color:#3FBFC4"/>
		</radialGradient>
		<path class="st44" d="M348.5,480L302,528.5l-1,3l1,11h1l77-7l2-1L348.5,480z"/>
		
			<radialGradient id="SVGID_44_" cx="339.3634" cy="410.3086" r="45.5138" gradientTransform="matrix(1 0 0 -1 0 994)" gradientUnits="userSpaceOnUse">
			<stop  offset="0" style="stop-color:#B6E473"/>
			<stop  offset="1" style="stop-color:#3FBFC4"/>
		</radialGradient>
		<path class="st45" d="M282,544.5l21-3l-1-13l-4,2l-11,9L282,544.5z"/>
		
			<radialGradient id="SVGID_45_" cx="235.6572" cy="460.3062" r="286.497" gradientTransform="matrix(1 0 0 -1 0 994)" gradientUnits="userSpaceOnUse">
			<stop  offset="0" style="stop-color:#76EAA9"/>
			<stop  offset="1" style="stop-color:#7388FF"/>
		</radialGradient>
		<path class="st46" d="M382,534.5l-79,7l-1,3c-4.3,27.3-8.7,54.7-13,82c0.7,19.3,1.3,38.7,2,58l2.5,5.5l95,16l27-56
			c-0.8-6.2-1.7-12.3-2.5-18.5l-24-81L382,534.5z"/>
		
			<radialGradient id="SVGID_46_" cx="219.2581" cy="404.4078" r="184.2543" gradientTransform="matrix(1 0 0 -1 0 994)" gradientUnits="userSpaceOnUse">
			<stop  offset="0" style="stop-color:#76EAA9"/>
			<stop  offset="1" style="stop-color:#7388FF"/>
		</radialGradient>
		<path class="st47" d="M303,541.5l-18,1l-1,2c1.7,26,3.3,52,5,78l1,9C294.3,601.5,298.7,571.5,303,541.5z"/>
		
			<radialGradient id="SVGID_47_" cx="266.5856" cy="340.1665" r="199.0796" gradientTransform="matrix(1 0 0 -1 0 994)" gradientUnits="userSpaceOnUse">
			<stop  offset="0" style="stop-color:#4DC6BD"/>
			<stop  offset="0.2444" style="stop-color:#4FC3C1"/>
			<stop  offset="0.4922" style="stop-color:#53BBCD"/>
			<stop  offset="0.7415" style="stop-color:#5BAEE2"/>
			<stop  offset="0.9906" style="stop-color:#669CFE"/>
			<stop  offset="1" style="stop-color:#669BFF"/>
		</radialGradient>
		<path class="st48" d="M382,534.5c11.2,38.5,22.3,77,33.5,115.5c3.8-14.2,7.7-28.3,11.5-42.5L382,534.5z"/>
		
			<radialGradient id="SVGID_48_" cx="59.9862" cy="376.5736" r="317.9666" gradientTransform="matrix(1 0 0 -1 0 994)" gradientUnits="userSpaceOnUse">
			<stop  offset="0" style="stop-color:#4DAFD2"/>
			<stop  offset="0.2204" style="stop-color:#51AED2"/>
			<stop  offset="0.4438" style="stop-color:#5DADD0"/>
			<stop  offset="0.6687" style="stop-color:#72AACE"/>
			<stop  offset="0.8932" style="stop-color:#8EA5CB"/>
			<stop  offset="1" style="stop-color:#9EA3C9"/>
		</radialGradient>
		<path class="st49" d="M178,748.5c-0.3,2-0.7,4-1,6l99,60c5.9-41.4,11.9-82.8,17.8-124.2l-6.8-0.8l-92,9L178,748.5z"/>
		
			<radialGradient id="SVGID_49_" cx="316.6319" cy="390.0549" r="269.6183" gradientTransform="matrix(1 0 0 -1 0 994)" gradientUnits="userSpaceOnUse">
			<stop  offset="0" style="stop-color:#00B5AF"/>
			<stop  offset="0.3898" style="stop-color:#42C0A6"/>
			<stop  offset="0.8041" style="stop-color:#83CB9D"/>
			<stop  offset="1" style="stop-color:#9CCF99"/>
		</radialGradient>
		<path class="st50" d="M239,403.5l3,12c13.7,41.3,27.3,82.7,41,124l2,3l17-14L239,403.5z"/>
		
			<radialGradient id="SVGID_50_" cx="218.5352" cy="430.216" r="199.0771" gradientTransform="matrix(1 0 0 -1 0 994)" gradientUnits="userSpaceOnUse">
			<stop  offset="0" style="stop-color:#78C6BD"/>
			<stop  offset="0.2356" style="stop-color:#77C2C1"/>
			<stop  offset="0.4744" style="stop-color:#74B6CC"/>
			<stop  offset="0.7146" style="stop-color:#6FA1DF"/>
			<stop  offset="0.9547" style="stop-color:#6885F9"/>
			<stop  offset="1" style="stop-color:#667FFF"/>
		</radialGradient>
		<path class="st51" d="M291,626.5l3,64l-96.5,9.5l-0.5-2.5l22-58l67-16L291,626.5z"/>
		
			<radialGradient id="SVGID_51_" cx="132.095" cy="337.2223" r="85.8599" gradientTransform="matrix(1 0 0 -1 0 994)" gradientUnits="userSpaceOnUse">
			<stop  offset="0" style="stop-color:#4DC6BD"/>
			<stop  offset="0.2204" style="stop-color:#51C4BE"/>
			<stop  offset="0.4438" style="stop-color:#5DBFBF"/>
			<stop  offset="0.6687" style="stop-color:#72B6C2"/>
			<stop  offset="0.8932" style="stop-color:#8EAAC7"/>
			<stop  offset="1" style="stop-color:#9EA3C9"/>
		</radialGradient>
		<path class="st52" d="M219,643.5l-4,3l-36,37l-4.5,6.5c0.8,21.5,1.7,43,2.5,64.5L219,643.5z"/>
		
			<radialGradient id="SVGID_52_" cx="129.0434" cy="563.7808" r="345.5039" gradientTransform="matrix(1 0 0 -1 0 994)" gradientUnits="userSpaceOnUse">
			<stop  offset="0" style="stop-color:#96E46F"/>
			<stop  offset="0.9068" style="stop-color:#6FBBD8"/>
		</radialGradient>
		<path class="st53" d="M239,403.5l-2,3l-44,158l21,72l4.5,7.5l72.5-17.5l-6-84L239,403.5z"/>
		
			<radialGradient id="SVGID_53_" cx="76.3956" cy="387.3901" r="177.4849" gradientTransform="matrix(1 0 0 -1 0 994)" gradientUnits="userSpaceOnUse">
			<stop  offset="0" style="stop-color:#96E46F"/>
			<stop  offset="1" style="stop-color:#6FBBD8"/>
		</radialGradient>
		<path class="st54" d="M195.5,561l-6.5,0.5l-37,31l-2.5,5.5c8.3,30.7,16.7,61.3,25,92l44-46L195.5,561z"/>
		
			<radialGradient id="SVGID_54_" cx="46.3628" cy="551.5851" r="177.5713" gradientTransform="matrix(1 0 0 -1 0 994)" gradientUnits="userSpaceOnUse">
			<stop  offset="0" style="stop-color:#00B5BE"/>
			<stop  offset="0.4002" style="stop-color:#45CBBB"/>
			<stop  offset="0.8075" style="stop-color:#86E0B9"/>
			<stop  offset="1" style="stop-color:#9FE8B8"/>
		</radialGradient>
		<path class="st55" d="M145,491.5l1,4l47,64l2.5,1.5L239,403.5L145,491.5z"/>
		
			<radialGradient id="SVGID_55_" cx="240.5881" cy="412.7876" r="102.8368" gradientTransform="matrix(1 0 0 -1 0 994)" gradientUnits="userSpaceOnUse">
			<stop  offset="0" style="stop-color:#00B5AF"/>
			<stop  offset="0.3898" style="stop-color:#42C0A6"/>
			<stop  offset="0.8041" style="stop-color:#83CB9D"/>
			<stop  offset="1" style="stop-color:#9CCF99"/>
		</radialGradient>
		<path class="st56" d="M145,491.5l50.5,69.5l-46,37L136,577.5L145,491.5z"/>
		
			<radialGradient id="SVGID_56_" cx="432.0769" cy="532.9725" r="250.3397" gradientTransform="matrix(1 0 0 -1 0 994)" gradientUnits="userSpaceOnUse">
			<stop  offset="0" style="stop-color:#00B5AF"/>
			<stop  offset="0.3898" style="stop-color:#42C0A6"/>
			<stop  offset="0.8041" style="stop-color:#83CB9D"/>
			<stop  offset="1" style="stop-color:#9CCF99"/>
		</radialGradient>
		<path class="st57" d="M289,317.5l105-4l-15,78L289,317.5z"/>
		
			<radialGradient id="SVGID_57_" cx="328" cy="494.3404" r="262.9409" gradientTransform="matrix(1 0 0 -1 0 994)" gradientUnits="userSpaceOnUse">
			<stop  offset="0" style="stop-color:#00B5AF"/>
			<stop  offset="0.5826" style="stop-color:#2AD5A1"/>
			<stop  offset="1" style="stop-color:#43E899"/>
		</radialGradient>
		<path class="st58" d="M226,256.5l63,61l-50,86c-12.7-31.3-25.3-62.7-38-94L226,256.5z"/>
	</g>
	<g id="highlights-2" class="st15">
		<path class="st16" d="M243,251.5c-0.1-0.5,18.5-6.8,56-19c1.3-14,2.7-28,4-42c-0.3,14-0.7,28-1,42l27,1l-28,2
			c-7.7,52.7-11.7,79-12,79c-0.3,0,3-26.4,10-79C261.8,246.6,243.1,252,243,251.5z"/>
		<path class="st16" d="M320,316.5l72.3-4c-7.1-24-14.2-48-21.3-72c8.1,24,16.2,48,24.3,72l25.7-20l-26.7,23
			c-5.9,36.1-9,54.1-9.3,54c-0.3-0.1,2.1-18.1,7.3-54L320,316.5z"/>
		<path class="st16" d="M399,560.5l29,45l42-16l-41,18l-12,40l9-40L399,560.5z"/>
		<path class="st16" d="M358,45.5l30,19l16,45l-17-42l-25,54l24-55l-41,15l41-17L358,45.5z"/>
		<path class="st16" d="M523,485.5l24,68l-39,19l38-16c-18.4,33.1-27.4,49.8-27,50c0.4,0.2,10.7-17.1,31-52L523,485.5z"/>
		<path class="st16" d="M368,423.5l-20,56l-28,30l28-28c9.1,13.5,13.8,20.1,14,20c0.2-0.1-4.1-7.1-13-21L368,423.5z"/>
		<path class="st16" d="M272,347.5l-31,56l14,32l-17-33L272,347.5z"/>
		<path class="st16" d="M292,657.5c0.7,10.3,1.3,20.7,2,31l56,11l-58-9V657.5z"/>
		<path class="st16" d="M195,559.5l9-29c-2.7,10.3-5.3,20.7-8,31c3.7,13.3,7.3,26.7,11,40l-12-39l-25,19l24-20l-22-33L195,559.5z"/>
	</g>
</g>
<g id="lower-left">
	<g id="shapes_shard_03">
		
			<radialGradient id="SVGID_58_" cx="22.6957" cy="452.2418" r="154.4966" gradientTransform="matrix(1 0 0 -1 0 994)" gradientUnits="userSpaceOnUse">
			<stop  offset="2.890000e-02" style="stop-color:#00ACA8"/>
			<stop  offset="0.5946" style="stop-color:#2AD19F"/>
			<stop  offset="1" style="stop-color:#43E89A"/>
		</radialGradient>
		<path class="st59" d="M74,513.5l-14,8l6,88l21-76L74,513.5z"/>
		
			<radialGradient id="SVGID_59_" cx="-18.4581" cy="380.2805" r="265.4047" gradientTransform="matrix(1 0 0 -1 0 994)" gradientUnits="userSpaceOnUse">
			<stop  offset="0" style="stop-color:#FFE47D"/>
			<stop  offset="1" style="stop-color:#6FC2BF"/>
		</radialGradient>
		<path class="st60" d="M136,577.5l14,20l-3,9c-15.7,32.3-31.3,64.7-47,97c10.3-39,20.7-78,31-117L136,577.5z"/>
		
			<radialGradient id="SVGID_60_" cx="73.5434" cy="108.1516" r="120.4925" gradientTransform="matrix(1 0 0 -1 0 994)" gradientUnits="userSpaceOnUse">
			<stop  offset="0" style="stop-color:#4DC6BD"/>
			<stop  offset="0.2204" style="stop-color:#51C4BE"/>
			<stop  offset="0.4438" style="stop-color:#5DBFBF"/>
			<stop  offset="0.6687" style="stop-color:#72B6C2"/>
			<stop  offset="0.8932" style="stop-color:#8EAAC7"/>
			<stop  offset="1" style="stop-color:#9EA3C9"/>
		</radialGradient>
		<path class="st61" d="M136.3,796.7c-1.1,2.3-2.2,4.5-3.3,6.8l-15,43l-1,5l67-70c-0.2-0.2-0.5-0.3-0.7-0.5
			C167.6,786.3,152,791.5,136.3,796.7z"/>
		
			<radialGradient id="SVGID_61_" cx="77.4787" cy="176.2351" r="148.3867" gradientTransform="matrix(1 0 0 -1 0 994)" gradientUnits="userSpaceOnUse">
			<stop  offset="0" style="stop-color:#00B5BC"/>
			<stop  offset="0.2762" style="stop-color:#27BCBF"/>
			<stop  offset="0.7678" style="stop-color:#68C7C3"/>
			<stop  offset="1" style="stop-color:#81CBC5"/>
		</radialGradient>
		<path class="st62" d="M119,720.5c5.3,23,10.7,46,16,69c0.3,3,0.7,6,1,9c-6.3,17.7-12.7,35.3-19,53l-15-61c0.7-4,1.3-8,2-12
			L119,720.5z"/>
		
			<radialGradient id="SVGID_62_" cx="9.4892" cy="331.2175" r="98.6866" gradientTransform="matrix(1 0 0 -1 0 994)" gradientUnits="userSpaceOnUse">
			<stop  offset="0" style="stop-color:#B6E473"/>
			<stop  offset="1" style="stop-color:#3FBFC4"/>
		</radialGradient>
		<path class="st63" d="M66,609.5l2,1l34,88c0.3,3,0.7,6,1,9v76c-0.3,2.3-0.7,4.7-1,7L76.5,710L66,609.5z"/>
		
			<radialGradient id="SVGID_63_" cx="80.1699" cy="224.078" r="200.385" gradientTransform="matrix(1 0 0 -1 0 994)" gradientUnits="userSpaceOnUse">
			<stop  offset="0" style="stop-color:#00B5AF"/>
			<stop  offset="0.3898" style="stop-color:#42C0A6"/>
			<stop  offset="0.8041" style="stop-color:#83CB9D"/>
			<stop  offset="1" style="stop-color:#9CCF99"/>
		</radialGradient>
		<path class="st64" d="M101.5,699l4.5,3.5l13,19v2c-5.7,22.3-11.3,44.7-17,67C101.8,760,101.7,729.5,101.5,699z"/>
		
			<radialGradient id="SVGID_64_" cx="186.1505" cy="250.2198" r="139.6287" gradientTransform="matrix(1 0 0 -1 0 994)" gradientUnits="userSpaceOnUse">
			<stop  offset="0" style="stop-color:#00B5AF"/>
			<stop  offset="0.3898" style="stop-color:#42C0A6"/>
			<stop  offset="0.8041" style="stop-color:#83CB9D"/>
			<stop  offset="1" style="stop-color:#9CCF99"/>
		</radialGradient>
		<path class="st65" d="M119,723.5L101.5,699c16.2-33.8,32.3-67.7,48.5-101.5c8.7,30.3,17.3,60.7,26,91l-4,4l-48,29L119,723.5z"/>
		
			<radialGradient id="SVGID_65_" cx="241.6327" cy="252.6887" r="104.9169" gradientTransform="matrix(1 0 0 -1 0 994)" gradientUnits="userSpaceOnUse">
			<stop  offset="0" style="stop-color:#787DD4"/>
			<stop  offset="0.2784" style="stop-color:#7B81D3"/>
			<stop  offset="0.5606" style="stop-color:#858DD1"/>
			<stop  offset="0.8437" style="stop-color:#95A1CC"/>
			<stop  offset="1" style="stop-color:#A1B0C9"/>
		</radialGradient>
		<path class="st66" d="M176,688.5l-9,17l-28,81l-2.9,12.3c11.2-4,22.4-8.1,33.6-12.1c4.8-1.7,9.6-3.5,14.4-5.2
			c-2.2-9.1-4.4-18.2-6.6-27.3L176,688.5z"/>
		
			<radialGradient id="SVGID_66_" cx="171.8407" cy="268.3936" r="214.7103" gradientTransform="matrix(1 0 0 -1 0 994)" gradientUnits="userSpaceOnUse">
			<stop  offset="0" style="stop-color:#00B5AF"/>
			<stop  offset="0.3898" style="stop-color:#42C0A6"/>
			<stop  offset="0.8041" style="stop-color:#83CB9D"/>
			<stop  offset="1" style="stop-color:#9CCF99"/>
		</radialGradient>
		<path class="st67" d="M84,533.5l-18,76l35.5,89.5L136,577.5c-4.3-4.6-9-9.3-14-14c-10.7-10.1-22.1-19.4-34-28L84,533.5z"/>
		
			<radialGradient id="SVGID_67_" cx="101.7143" cy="251.8513" r="71.0786" gradientTransform="matrix(1 0 0 -1 0 994)" gradientUnits="userSpaceOnUse">
			<stop  offset="0" style="stop-color:#00B5AF"/>
			<stop  offset="0.2762" style="stop-color:#27B1B6"/>
			<stop  offset="0.7678" style="stop-color:#68AAC1"/>
			<stop  offset="1" style="stop-color:#81A7C5"/>
		</radialGradient>
		<path class="st68" d="M119,723.5c5.7,25.3,11.3,50.7,17,76l40-111L119,723.5z"/>
		
			<radialGradient id="SVGID_68_" cx="167.7446" cy="406.2111" r="160.5164" gradientTransform="matrix(1 0 0 -1 0 994)" gradientUnits="userSpaceOnUse">
			<stop  offset="0" style="stop-color:#00B5AF"/>
			<stop  offset="0.3898" style="stop-color:#42C0A6"/>
			<stop  offset="0.8041" style="stop-color:#83CB9D"/>
			<stop  offset="1" style="stop-color:#9CCF99"/>
		</radialGradient>
		<path class="st69" d="M74,513.5l62,64l-52-44L74,513.5z"/>
	</g>
	<g id="highlights-3" class="st15">
		<path class="st16" d="M78,709.5l12,46l-15-44c-1.7-20.3-3.3-40.7-5-61C72.7,670.2,75.3,689.8,78,709.5z"/>
		<path class="st16" d="M122,737.5c4.3,20.7,8.7,41.3,13,62l-8,24l10-24l27-11l-26,9l30-89l-32,89
			C131.3,777.5,126.7,757.5,122,737.5z"/>
		<path class="st16" d="M101,698.5l-8-20l8,21c0.3,8,0.7,16,1,24v-23l7,9l-7-10l6-23L101,698.5z"/>
	</g>
</g>
<g id="middle-left">
	<g id="shapes_shard_02_color">
		
			<radialGradient id="SVGID_69_" cx="169.467" cy="413.6403" r="193.2267" gradientTransform="matrix(1 0 0 -1 0 994)" gradientUnits="userSpaceOnUse">
			<stop  offset="0" style="stop-color:#00B5BE"/>
			<stop  offset="0.5826" style="stop-color:#2AD5BA"/>
			<stop  offset="1" style="stop-color:#43E8B8"/>
		</radialGradient>
		<path class="st70" d="M26,456.5l2-1l31,1l20,31L74.5,515L64,520.5l-4,1L40.5,503C35.7,487.5,30.8,472,26,456.5z"/>
		
			<radialGradient id="SVGID_70_" cx="-18.8354" cy="625.5523" r="240.8936" gradientTransform="matrix(1 0 0 -1 0 994)" gradientUnits="userSpaceOnUse">
			<stop  offset="0" style="stop-color:#FCEE21"/>
			<stop  offset="0.4677" style="stop-color:#A0F576"/>
			<stop  offset="0.8301" style="stop-color:#5EF9B3"/>
			<stop  offset="1" style="stop-color:#45FBCA"/>
		</radialGradient>
		<path class="st71" d="M142,373.5l-3,5l-78,77l-2.5,1.5L26,456.5l45-67L142,373.5z"/>
		
			<radialGradient id="SVGID_71_" cx="125.4505" cy="395.7453" r="189.5396" gradientTransform="matrix(1 0 0 -1 0 994)" gradientUnits="userSpaceOnUse">
			<stop  offset="0" style="stop-color:#00B5AF"/>
			<stop  offset="0.5826" style="stop-color:#2AD5A1"/>
			<stop  offset="1" style="stop-color:#43E899"/>
		</radialGradient>
		<path class="st72" d="M145.5,492l-1.5,0.5l-64-4l-2-1L58.5,457l83.5-83.5C143.2,413,144.3,452.5,145.5,492z"/>
		
			<radialGradient id="SVGID_72_" cx="196.6798" cy="494.147" r="134.4332" gradientTransform="matrix(1 0 0 -1 0 994)" gradientUnits="userSpaceOnUse">
			<stop  offset="0" style="stop-color:#00B5AF"/>
			<stop  offset="0.3898" style="stop-color:#42C0A6"/>
			<stop  offset="0.8041" style="stop-color:#83CB9D"/>
			<stop  offset="1" style="stop-color:#9CCF99"/>
		</radialGradient>
		<path class="st73" d="M117.5,490l-2.5,1.5l-30,38l-1,4l52,44c3.2-28.5,6.3-57,9.5-85.5L117.5,490z"/>
		
			<radialGradient id="SVGID_73_" cx="112.3232" cy="424.6155" r="146.7358" gradientTransform="matrix(1 0 0 -1 0 994)" gradientUnits="userSpaceOnUse">
			<stop  offset="2.890000e-02" style="stop-color:#00ACA8"/>
			<stop  offset="0.5946" style="stop-color:#2AD19F"/>
			<stop  offset="1" style="stop-color:#43E89A"/>
		</radialGradient>
		<path class="st74" d="M84,533.5l-2-3l-8-14v-2c1.3-9,2.7-18,4-27l39.5,2.5L84,533.5z"/>
		
			<radialGradient id="SVGID_74_" cx="71.1484" cy="461.2637" r="55.8405" gradientTransform="matrix(1 0 0 -1 0 994)" gradientUnits="userSpaceOnUse">
			<stop  offset="0" style="stop-color:#00B5BE"/>
			<stop  offset="0.5826" style="stop-color:#2AD5A8"/>
			<stop  offset="1" style="stop-color:#43E89A"/>
		</radialGradient>
		<path class="st75" d="M60,521.5l14-7l10,19L60,521.5z"/>
	</g>
</g>
<g id="middle-tiny">
	<g id="shapes-shard">
		
			<radialGradient id="SVGID_75_" cx="-17.3658" cy="465.0046" r="247.6768" gradientTransform="matrix(1 0 0 -1 0 994)" gradientUnits="userSpaceOnUse">
			<stop  offset="0" style="stop-color:#FCEE21"/>
			<stop  offset="0.4677" style="stop-color:#A0F576"/>
			<stop  offset="0.8301" style="stop-color:#5EF9B3"/>
			<stop  offset="1" style="stop-color:#45FBCA"/>
		</radialGradient>
		<path class="st76" d="M59,456.5H26l-26,46l6-3l52-41L59,456.5z"/>
		
			<radialGradient id="SVGID_76_" cx="106.2426" cy="421.7698" r="164.0688" gradientTransform="matrix(1 0 0 -1 0 994)" gradientUnits="userSpaceOnUse">
			<stop  offset="0" style="stop-color:#00B5AF"/>
			<stop  offset="0.5826" style="stop-color:#2AD5A1"/>
			<stop  offset="1" style="stop-color:#43E899"/>
		</radialGradient>
		<path class="st77" d="M59,456.5L78.5,487l-2.5,1.5l-69,14H0L59,456.5z"/>
		
			<radialGradient id="SVGID_77_" cx="46.9319" cy="468.7457" r="97.2248" gradientTransform="matrix(1 0 0 -1 0 994)" gradientUnits="userSpaceOnUse">
			<stop  offset="0" style="stop-color:#00ABBE"/>
			<stop  offset="0.5826" style="stop-color:#2AD1A8"/>
			<stop  offset="1" style="stop-color:#43E89A"/>
		</radialGradient>
		<path class="st78" d="M60,521.5l14.2-6.4l-3.2-1.6l-61-10l-10-1L60,521.5z"/>
		
			<radialGradient id="SVGID_78_" cx="52.8918" cy="463.544" r="86.4765" gradientTransform="matrix(1 0 0 -1 0 994)" gradientUnits="userSpaceOnUse">
			<stop  offset="0" style="stop-color:#00B5BE"/>
			<stop  offset="0.5826" style="stop-color:#2AD5A8"/>
			<stop  offset="1" style="stop-color:#43E89A"/>
		</radialGradient>
		<path class="st79" d="M78.5,487L0,502.5l74.2,12.6l0.3-0.1C75.8,505.7,77.2,496.3,78.5,487z"/>
	</g>
	<g id="highlights-4" class="st15">
		<path class="st16" d="M3,499.5l24-18l-23,19l46-8l-50,10l20-35L3,499.5z"/>
	</g>
</g>
</svg>
