<svg xmlns="http://www.w3.org/2000/svg" xmlns:xlink="http://www.w3.org/1999/xlink" viewBox="0 0 479.5 814.2147"><defs><radialGradient id="a07259cb-2ecc-4ece-a7ae-afa293928979" cx="393.5633" cy="970.4331" r="792.7989" gradientUnits="userSpaceOnUse"><stop offset="0" stop-color="#32bf53"/><stop offset="0.5589" stop-color="#48c279"/><stop offset="1" stop-color="#56c492"/></radialGradient><radialGradient id="b8ee543b-afc7-4fe8-b05c-e3569e414668" cx="352.9121" cy="75.8132" r="227.7472" gradientUnits="userSpaceOnUse"><stop offset="0" stop-color="#ffff40"/><stop offset="0.4925" stop-color="#99f76c"/><stop offset="0.8381" stop-color="#57f188"/><stop offset="1" stop-color="#3eef93"/></radialGradient><radialGradient id="b00d0cb6-5d2b-4cf3-9a74-2a76ca13d4af" cx="434.4066" cy="114.5824" r="83.0279" gradientUnits="userSpaceOnUse"><stop offset="0" stop-color="#64f968"/><stop offset="0.1919" stop-color="#6af66f"/><stop offset="1" stop-color="#7fe988"/></radialGradient><radialGradient id="bca92977-3fe2-466a-9972-037cf918a1ea" cx="195.4615" cy="126.4505" r="293.708" xlink:href="#b8ee543b-afc7-4fe8-b05c-e3569e414668"/><radialGradient id="bc42e266-9016-4541-b69a-f8203ed05700" cx="481.0879" cy="330.5824" r="133.2288" gradientUnits="userSpaceOnUse"><stop offset="0" stop-color="#00b5af"/><stop offset="0.5826" stop-color="#2ad5a1"/><stop offset="1" stop-color="#43e899"/></radialGradient><radialGradient id="ab001ab8-1f75-4543-bb8e-c8f63e9037b6" cx="300.2967" cy="634.4066" r="213.7512" xlink:href="#bc42e266-9016-4541-b69a-f8203ed05700"/><radialGradient id="be350f37-6130-42b2-b10b-d062eafcff78" cx="342.6264" cy="654.978" r="225.1542" xlink:href="#bc42e266-9016-4541-b69a-f8203ed05700"/><radialGradient id="f1aa2bad-a858-4613-9463-83a2bfaf37a7" cx="381.3956" cy="632.4286" r="252.1105" gradientUnits="userSpaceOnUse"><stop offset="0" stop-color="#00b5be"/><stop offset="0.5826" stop-color="#2ad5ba"/><stop offset="1" stop-color="#43e8b8"/></radialGradient><radialGradient id="b88cbca1-e8bb-4035-8414-143a461663a0" cx="114.3626" cy="376.0769" r="265.0422" gradientUnits="userSpaceOnUse"><stop offset="0" stop-color="#fcee21"/><stop offset="0.4677" stop-color="#a0f576"/><stop offset="0.8301" stop-color="#5ef9b3"/><stop offset="1" stop-color="#45fbca"/></radialGradient><radialGradient id="b6757947-45f6-456c-9551-0365bb5639b8" cx="91.8132" cy="249.0879" r="301.8941" xlink:href="#b88cbca1-e8bb-4035-8414-143a461663a0"/><radialGradient id="be75eedb-7e3e-4295-92af-c24d1d29b196" cx="320.4725" cy="486.4505" r="238.5465" gradientUnits="userSpaceOnUse"><stop offset="0" stop-color="#00b5be"/><stop offset="0.5826" stop-color="#2ad5a8"/><stop offset="1" stop-color="#43e89a"/></radialGradient><radialGradient id="b589807d-549a-438b-9c35-053d8089504f" cx="402.7582" cy="468.6484" r="139.424" gradientUnits="userSpaceOnUse"><stop offset="0" stop-color="#00b56c"/><stop offset="0.5826" stop-color="#2ad584"/><stop offset="1" stop-color="#43e893"/></radialGradient><radialGradient id="ad4f28c6-1375-4db9-9d68-5b9203c39c7c" cx="330.7582" cy="280.0769" r="121.2235" gradientUnits="userSpaceOnUse"><stop offset="0" stop-color="#3ae879"/><stop offset="0.4281" stop-color="#40d88f"/><stop offset="1" stop-color="#46c5a8"/></radialGradient><radialGradient id="e5171848-4e2e-408a-9164-3852f9e4195d" cx="152.7363" cy="789.4835" r="268.284" xlink:href="#bc42e266-9016-4541-b69a-f8203ed05700"/><radialGradient id="ee150436-203d-48cf-8f96-4bfb234a47ce" cx="125.044" cy="675.5495" r="201.3871" gradientUnits="userSpaceOnUse"><stop offset="0" stop-color="#ffe47d"/><stop offset="1" stop-color="#6fc2bf"/></radialGradient><radialGradient id="fa75ddde-00dc-4a29-b43b-905c4af90637" cx="467.6374" cy="268.0769" r="94.6049" xlink:href="#bc42e266-9016-4541-b69a-f8203ed05700"/><radialGradient id="a384840d-e7d6-41b5-b367-ac41a27c63cf" cx="557.044" cy="458.7582" r="260.715" xlink:href="#f1aa2bad-a858-4613-9463-83a2bfaf37a7"/><radialGradient id="ab98bb18-dfe3-40e8-8890-84c6f1ba38aa" cx="459.7253" cy="471.022" r="173.2666" gradientUnits="userSpaceOnUse"><stop offset="0" stop-color="#4dc6bd"/><stop offset="0.2356" stop-color="#4ec2c1"/><stop offset="0.4744" stop-color="#53b6cc"/><stop offset="0.7146" stop-color="#5aa1df"/><stop offset="0.9547" stop-color="#6485f9"/><stop offset="1" stop-color="#667fff"/></radialGradient><radialGradient id="ff287a8b-1bce-443e-a6e7-cc42d0bc9b3a" cx="473.967" cy="859.1099" r="483.987" gradientTransform="matrix(0.3629, -0.9318, 0.5417, 0.211, -163.3941, 1119.5208)" gradientUnits="userSpaceOnUse"><stop offset="0" stop-color="#4dc6bd"/><stop offset="0.2705" stop-color="#4fc2bf"/><stop offset="0.5446" stop-color="#57b6c3"/><stop offset="0.8196" stop-color="#63a2cb"/><stop offset="1" stop-color="#6d90d2"/></radialGradient><radialGradient id="acf4f107-b6ff-4a92-974f-2d507c43982a" cx="488.2088" cy="564.7802" r="265.4326" gradientUnits="userSpaceOnUse"><stop offset="0" stop-color="#4dc6bd"/><stop offset="0.2151" stop-color="#51c3c0"/><stop offset="0.4332" stop-color="#5db8ca"/><stop offset="0.6526" stop-color="#72a7d9"/><stop offset="0.8718" stop-color="#8e90ef"/><stop offset="1" stop-color="#a27fff"/></radialGradient><radialGradient id="f152c612-49ce-4b68-804f-8f3471c99018" cx="500.0769" cy="499.5055" r="155.2005" gradientUnits="userSpaceOnUse"><stop offset="0" stop-color="#3da6c1"/><stop offset="0.5987" stop-color="#6ac0ae"/><stop offset="1" stop-color="#83cfa3"/></radialGradient><radialGradient id="adca3ad7-45bd-4541-92f6-b3a097af11d5" cx="543.5934" cy="681.8791" r="293.9572" gradientUnits="userSpaceOnUse"><stop offset="0" stop-color="#00b5af"/><stop offset="0.2607" stop-color="#24bea7"/><stop offset="0.7629" stop-color="#65ce99"/><stop offset="1" stop-color="#7ed493"/></radialGradient><radialGradient id="b5d4770b-6f11-4adb-983f-2bfcc3a723dc" cx="579.9889" cy="401.7912" r="147.8523" gradientTransform="translate(0.1952 -0.26) rotate(0.0305)" gradientUnits="userSpaceOnUse"><stop offset="0" stop-color="#00b5af"/><stop offset="0.3898" stop-color="#42c0a6"/><stop offset="0.8041" stop-color="#83cb9d"/><stop offset="1" stop-color="#9ccf99"/></radialGradient><radialGradient id="effc7913-b235-4397-8789-024fb5e87631" cx="543.5934" cy="522.0549" r="243.7129" gradientUnits="userSpaceOnUse"><stop offset="0" stop-color="#009cd1"/><stop offset="0.4778" stop-color="#60c5b4"/><stop offset="0.8334" stop-color="#a2e0a1"/><stop offset="1" stop-color="#bbeb99"/></radialGradient><radialGradient id="e567406f-605e-48c8-a571-83123d8ac232" cx="322.0549" cy="281.5275" r="172.8388" gradientUnits="userSpaceOnUse"><stop offset="0" stop-color="#00b5be"/><stop offset="0.4002" stop-color="#45cbbb"/><stop offset="0.8075" stop-color="#86e0b9"/><stop offset="1" stop-color="#9fe8b8"/></radialGradient><radialGradient id="b7bb25f3-c730-48da-b63c-e3c1de623e54" cx="130.5824" cy="770.4945" r="246.7861" xlink:href="#f1aa2bad-a858-4613-9463-83a2bfaf37a7"/><radialGradient id="e9d61827-b008-4ae4-a533-5da3bd88a3e6" cx="433.6154" cy="1001.5275" r="192.1941" gradientUnits="userSpaceOnUse"><stop offset="0" stop-color="#6b89d4"/><stop offset="0.2784" stop-color="#6f8bd3"/><stop offset="0.5606" stop-color="#7b91d1"/><stop offset="0.8437" stop-color="#8f9ccc"/><stop offset="1" stop-color="#9ea3c9"/></radialGradient><radialGradient id="a6435177-f1fa-47d9-ad59-0e329700e224" cx="553.4835" cy="982.5385" r="242.5778" gradientUnits="userSpaceOnUse"><stop offset="0" stop-color="#5a49c1"/><stop offset="0.209" stop-color="#5d4dc1"/><stop offset="0.4209" stop-color="#6659c2"/><stop offset="0.6341" stop-color="#766ec4"/><stop offset="0.8469" stop-color="#8b8ac7"/><stop offset="1" stop-color="#9ea3c9"/></radialGradient><radialGradient id="bc9ada20-a66f-4a8e-806c-692eb134486a" cx="494.1429" cy="749.9231" r="178.7011" gradientUnits="userSpaceOnUse"><stop offset="0" stop-color="#b6e473"/><stop offset="1" stop-color="#3fbfc4"/></radialGradient><radialGradient id="e01e05f9-508a-4d9f-a9ed-70b638430e17" cx="319.6813" cy="642.3187" r="290.559" gradientUnits="userSpaceOnUse"><stop offset="0" stop-color="#76eaa9"/><stop offset="1" stop-color="#7388ff"/></radialGradient><radialGradient id="f4ca58d1-f540-46fc-aa6e-6a1ea76a1c79" cx="348.956" cy="762.5824" r="207.9299" gradientUnits="userSpaceOnUse"><stop offset="0" stop-color="#4dc6bd"/><stop offset="0.2444" stop-color="#4fc3c1"/><stop offset="0.4922" stop-color="#53bbcd"/><stop offset="0.7415" stop-color="#5baee2"/><stop offset="0.9906" stop-color="#669cfe"/><stop offset="1" stop-color="#669bff"/></radialGradient><radialGradient id="e2387c1a-90dc-4ba6-a0a2-5958d8d0d9f9" cx="149.967" cy="727.3736" r="316.0268" gradientUnits="userSpaceOnUse"><stop offset="0" stop-color="#4dafb8"/><stop offset="0.2204" stop-color="#51aeb9"/><stop offset="0.4438" stop-color="#5dadbb"/><stop offset="0.6687" stop-color="#72aac0"/><stop offset="0.8932" stop-color="#8ea5c6"/><stop offset="1" stop-color="#9ea3c9"/></radialGradient><radialGradient id="b333b21d-8462-4c61-a6bb-e132b9b34c88" cx="405.1319" cy="711.9451" r="269.6183" gradientTransform="matrix(1, 0, 0, 1, 0, 0)" xlink:href="#b5d4770b-6f11-4adb-983f-2bfcc3a723dc"/><radialGradient id="f77def8b-d5fa-411a-a406-b634327245cf" cx="307.8132" cy="680.2967" r="189.679" gradientUnits="userSpaceOnUse"><stop offset="0" stop-color="#78c6bd"/><stop offset="0.2356" stop-color="#77c2c1"/><stop offset="0.4744" stop-color="#74b6cc"/><stop offset="0.7146" stop-color="#6fa1df"/><stop offset="0.9547" stop-color="#6885f9"/><stop offset="1" stop-color="#667fff"/></radialGradient><radialGradient id="e5740f4b-b6c7-45c1-89cc-4ed4e4c26341" cx="221.5714" cy="766.5385" r="84.5706" gradientUnits="userSpaceOnUse"><stop offset="0" stop-color="#4dc6bd"/><stop offset="0.2204" stop-color="#51c4be"/><stop offset="0.4438" stop-color="#5dbfbf"/><stop offset="0.6687" stop-color="#72b6c2"/><stop offset="0.8932" stop-color="#8eaac7"/><stop offset="1" stop-color="#9ea3c9"/></radialGradient><radialGradient id="b18a66f6-c4b2-48a8-8554-6f198010fb6e" cx="223.1538" cy="538.2747" r="340.8926" gradientUnits="userSpaceOnUse"><stop offset="0" stop-color="#96e46f"/><stop offset="0.9068" stop-color="#6fbbd8"/></radialGradient><radialGradient id="e4a187e5-48f4-42eb-ad5c-fcac8706954f" cx="165.3956" cy="715.1099" r="177.4849" gradientUnits="userSpaceOnUse"><stop offset="0" stop-color="#96e46f"/><stop offset="1" stop-color="#6fbbd8"/></radialGradient><radialGradient id="a60ac7cc-13ee-4b4e-a2f0-7e8d22c52a0f" cx="136.9121" cy="550.5385" r="176.3597" xlink:href="#e567406f-605e-48c8-a571-83123d8ac232"/><radialGradient id="ae467353-7697-4a37-b345-00afddaf88b1" cx="329.967" cy="689.7912" r="103.5379" gradientTransform="matrix(1, 0, 0, 1, 0, 0)" xlink:href="#b5d4770b-6f11-4adb-983f-2bfcc3a723dc"/><radialGradient id="b8cf33f8-daf0-4fa0-9e9a-d94d8ec4959e" cx="521.4396" cy="569.5275" r="250.8918" gradientTransform="matrix(1, 0, 0, 1, 0, 0)" xlink:href="#b5d4770b-6f11-4adb-983f-2bfcc3a723dc"/><radialGradient id="ed0d33ba-9130-4689-9c97-799f9efada00" cx="417" cy="607.5055" r="261.4056" xlink:href="#bc42e266-9016-4541-b69a-f8203ed05700"/></defs><g id="b0f69a61-500e-4c75-9528-8f9d521bdf14" data-name="crystal_base"><path d="M639,663,580,511q-12.5-50.5-25-101-15.8323-53.4345-34-109-21.5091-65.6367-44-127l-46-30q-15.5-17.5-31-35l-44,43q-44.5,80.5-89,161l-18,52L160,498q11,62.5,22,125l-9,19q8.5,34.5,17,69l38,76,38,77,97.7253,58.4066,114.989-36.9231,86.8926-96.3562L566,788Z" transform="translate(-159.5 -108.5)" style="fill:url(#a07259cb-2ecc-4ece-a7ae-afa293928979)"/></g><g id="f731cba9-fb9a-4315-9047-8db1b8c29d1d" data-name="shapes_color"><path d="M431.5,143.5q-5.5,26.5-11,53l-37,44-27-89,44-43Z" transform="translate(-159.5 -108.5)" style="fill:url(#b8ee543b-afc7-4fe8-b05c-e3569e414668)"/><path d="M477.5,173.5l-57,23q5.5-26.5,11-53Z" transform="translate(-159.5 -108.5)" style="fill:url(#b00d0cb6-5d2b-4cf3-9a74-2a76ca13d4af)"/><path d="M383.5,240.5l9,55-3,47-75,23-48-52,90-162Z" transform="translate(-159.5 -108.5)" style="fill:url(#bca92977-3fe2-466a-9972-037cf918a1ea)"/><path d="M391.5,293.5l56,18q-2-32.5-4-65l-23-50-37,44Q387.5,267,391.5,293.5Z" transform="translate(-159.5 -108.5)" style="fill:url(#bc42e266-9016-4541-b69a-f8203ed05700)"/><path d="M159.5,498.5l70-15q2.5,58.5,5,117Z" transform="translate(-159.5 -108.5)" style="fill:url(#ab001ab8-1f75-4543-bb8e-c8f63e9037b6)"/><path d="M229.5,483.5l60-66q19,47,38,94l-93,88Q232,541.5,229.5,483.5Z" transform="translate(-159.5 -108.5)" style="fill:url(#be350f37-6130-42b2-b10b-d062eafcff78)"/><path d="M159.5,498.5l75,102q-5,42-10,84L182,623Z" transform="translate(-159.5 -108.5)" style="fill:url(#f1aa2bad-a858-4613-9463-83a2bfaf37a7)"/><path d="M249.5,363.5l40,55-60,65-70,15Z" transform="translate(-159.5 -108.5)" style="fill:url(#b88cbca1-e8bb-4035-8414-143a461663a0)"/><path d="M266.5,313.5l48,52q-12.5,26.5-25,53l-41-55Z" transform="translate(-159.5 -108.5)" style="fill:url(#b6757947-45f6-456c-9551-0365bb5639b8)"/><path d="M427.5,341.5l-50,84q6.5-41.5,13-83Z" transform="translate(-159.5 -108.5)" style="fill:url(#be75eedb-7e3e-4295-92af-c24d1d29b196)"/><path d="M314.5,365.5l62,59q6.5-41,13-82Z" transform="translate(-159.5 -108.5)" style="fill:url(#b589807d-549a-438b-9c35-053d8089504f)"/><path d="M393.5,293.5l54,17-20,31-38,1Q391.5,318,393.5,293.5Z" transform="translate(-159.5 -108.5)" style="fill:url(#ad4f28c6-1375-4db9-9d68-5b9203c39c7c)"/><path d="M173.5,641.5l51,43,14,22-48,4Q182,676,173.5,641.5Z" transform="translate(-159.5 -108.5)" style="fill:url(#e5171848-4e2e-408a-9164-3852f9e4195d)"/><path d="M183.5,622.5l42,63-52-44Z" transform="translate(-159.5 -108.5)" style="fill:url(#ee150436-203d-48cf-8f96-4bfb234a47ce)"/><path d="M477.5,173.5l-34,73-23-50Z" transform="translate(-159.5 -108.5)" style="fill:url(#fa75ddde-00dc-4a29-b43b-905c4af90637)"/><path d="M477.5,173.5l-34,73q2,32.5,4,65l106,94Z" transform="translate(-159.5 -108.5)" style="fill:url(#a384840d-e7d6-41b5-b367-ac41a27c63cf)"/><path d="M530.5,385.5l48,125q-12.5-52-25-104Z" transform="translate(-159.5 -108.5)" style="fill:url(#ab98bb18-dfe3-40e8-8890-84c6f1ba38aa)"/><path d="M530.5,385.5l108,277-122,53-47-80q-.5-68.5-1-137Z" transform="translate(-159.5 -108.5)" style="fill:url(#ff287a8b-1bce-443e-a6e7-cc42d0bc9b3a)"/><path d="M516.4368,715.9238q-5.84,21.0453-11.6791,42.09L565.5,787.5l73-125Z" transform="translate(-159.5 -108.5)" style="fill:url(#acf4f107-b6ff-4a92-974f-2d507c43982a)"/><path d="M468.5,498.5l-31,90,32,47Q469,567,468.5,498.5Z" transform="translate(-159.5 -108.5)" style="fill:url(#f152c612-49ce-4b68-804f-8f3471c99018)"/><path d="M377.5,425.5,328,512l62.5,125.5,47-49,31-90Z" transform="translate(-159.5 -108.5)" style="fill:url(#adca3ad7-45bd-4541-92f6-b3a097af11d5)"/><path d="M447.53,311.4779l35.941,111.0192,47.02-36.975Z" transform="translate(-159.5 -108.5)" style="fill:url(#b5d4770b-6f11-4adb-983f-2bfcc3a723dc)"/><path d="M483.5243,422.48q-7.5474,37.9907-15.0947,75.9812L530.57,385.5387Z" transform="translate(-159.5 -108.5)" style="fill:url(#effc7913-b235-4397-8789-024fb5e87631)"/><path d="M447.5,311.5l36,111-106,3Z" transform="translate(-159.5 -108.5)" style="fill:url(#e567406f-605e-48c8-a571-83123d8ac232)"/><path d="M238.5,706.5q12.5,46,25,92l3,65-76-153Z" transform="translate(-159.5 -108.5)" style="fill:url(#b7bb25f3-c730-48da-b63c-e3c1de623e54)"/><path d="M477.5,814.5q1,36.5,2,73l-115,35,18-124Z" transform="translate(-159.5 -108.5)" style="fill:url(#e9d61827-b008-4ae4-a533-5da3bd88a3e6)"/><path d="M504.5,758.5l61,29-86,98q-1-35.5-2-71Z" transform="translate(-159.5 -108.5)" style="fill:url(#a6435177-f1fa-47d9-ad59-0e329700e224)"/><path d="M470,638q-16.25-24.75-32.5-49.5l-47,49q-7.4432,6.978-14.8864,13.9559l95.8134-8.3316Q470.7136,640.5622,470,638Z" transform="translate(-159.5 -108.5)" style="fill:url(#bc9ada20-a66f-4a8e-806c-692eb134486a)"/><path d="M471.427,643.1243l-95.8134,8.3316L374.5,652.5q4,73,8,146l95,16,27-56Q498.25,737.75,492,717,481.7135,680.0622,471.427,643.1243Z" transform="translate(-159.5 -108.5)" style="fill:url(#e01e05f9-508a-4d9f-a9ed-70b638430e17)"/><path d="M469.5,635.5q17.5,61.5,35,123l12-43Z" transform="translate(-159.5 -108.5)" style="fill:url(#f4ca58d1-f540-46fc-aa6e-6a1ea76a1c79)"/><path d="M286.7809,808.2959q-10.1454,26.9457-20.2908,53.8914l97.6751,60.5274q9.334-61.95,18.6682-123.9011Z" transform="translate(-159.5 -108.5)" style="fill:url(#e2387c1a-90dc-4ba6-a0a2-5958d8d0d9f9)"/><path d="M327.5,511.5q23.5,69.5,47,139l16-13Z" transform="translate(-159.5 -108.5)" style="fill:url(#b333b21d-8462-4c61-a6bb-e132b9b34c88)"/><path d="M378.5,736.5q2,31,4,62l-96,10,21-56Z" transform="translate(-159.5 -108.5)" style="fill:url(#f77def8b-d5fa-411a-a406-b634327245cf)"/><path d="M307.5,753.5l-44,45,3,64Q287,808,307.5,753.5Z" transform="translate(-159.5 -108.5)" style="fill:url(#e5740f4b-b6c7-45c1-89cc-4ed4e4c26341)"/><path d="M327.5,511.5q-21.5,79-43,158l23,83,71-16q-2-42-4-84Z" transform="translate(-159.5 -108.5)" style="fill:url(#b18a66f6-c4b2-48a8-8554-6f198010fb6e)"/><path d="M284.5,669.5l-46,37q12.5,46,25,92l44-46Z" transform="translate(-159.5 -108.5)" style="fill:url(#e4a187e5-48f4-42eb-ad5c-fcac8706954f)"/><path d="M234.5,599.5l50,70q21.5-79,43-158Z" transform="translate(-159.5 -108.5)" style="fill:url(#a60ac7cc-13ee-4b4e-a2f0-7e8d22c52a0f)"/><path d="M234.5,600.5l50,69-46,37-14-22Q229.5,642.5,234.5,600.5Z" transform="translate(-159.5 -108.5)" style="fill:url(#ae467353-7697-4a37-b345-00afddaf88b1)"/><path d="M377,426l106-4-15,78Z" transform="translate(-159.5 -108.5)" style="fill:url(#b8cf33f8-daf0-4fa0-9e9a-d94d8ec4959e)"/><path d="M315,366l63,60-50,86q-19-47-38-94Z" transform="translate(-159.5 -108.5)" style="fill:url(#ed0d33ba-9130-4689-9c97-799f9efada00)"/></g></svg>