<svg id="Layer_1" data-name="Layer 1" xmlns="http://www.w3.org/2000/svg" xmlns:xlink="http://www.w3.org/1999/xlink" viewBox="0 0 800 1200"><defs><radialGradient id="radial-gradient" cx="412.0902" cy="80.047" r="490.3486" gradientTransform="matrix(1, 0, 0, -1, 0, 1200)" gradientUnits="userSpaceOnUse"><stop offset="0" stop-color="#32bf53"/><stop offset="0.5589" stop-color="#48c279"/><stop offset="1" stop-color="#56c492"/></radialGradient><radialGradient id="radial-gradient-2" cx="242.4066" cy="250.6923" r="191.1897" gradientTransform="matrix(1, 0, 0, -1, 0, 1200)" gradientUnits="userSpaceOnUse"><stop offset="0" stop-color="#a3adbd"/><stop offset="0.2444" stop-color="#a3aac1"/><stop offset="0.4922" stop-color="#a3a2cd"/><stop offset="0.7415" stop-color="#a294e2"/><stop offset="0.9906" stop-color="#a280fe"/><stop offset="1" stop-color="#a27fff"/></radialGradient><radialGradient id="radial-gradient-3" cx="342.6264" cy="59.2198" r="218.7288" gradientTransform="matrix(1, 0, 0, -1, 0, 1200)" gradientUnits="userSpaceOnUse"><stop offset="0" stop-color="#5a43c1"/><stop offset="0.2204" stop-color="#5d47c3"/><stop offset="0.4438" stop-color="#6653c7"/><stop offset="0.6687" stop-color="#7668cf"/><stop offset="0.8932" stop-color="#8b84da"/><stop offset="1" stop-color="#9794e0"/></radialGradient><radialGradient id="radial-gradient-4" cx="381" cy="427.9231" r="194.093" gradientTransform="matrix(1, 0, 0, -1, 0, 1200)" gradientUnits="userSpaceOnUse"><stop offset="0" stop-color="#7f85aa"/><stop offset="0.2373" stop-color="#8085ae"/><stop offset="0.4778" stop-color="#8284ba"/><stop offset="0.7198" stop-color="#8682cf"/><stop offset="0.9615" stop-color="#8b7feb"/><stop offset="1" stop-color="#8c7ff0"/></radialGradient><radialGradient id="radial-gradient-5" cx="511.1538" cy="154.1648" r="343.9975" gradientTransform="matrix(1, 0, 0, -1, 0, 1200)" gradientUnits="userSpaceOnUse"><stop offset="0" stop-color="#7b53c4"/><stop offset="0.2463" stop-color="#7d57c6"/><stop offset="0.496" stop-color="#8363cb"/><stop offset="0.7473" stop-color="#8e78d4"/><stop offset="0.9983" stop-color="#9c94e0"/><stop offset="1" stop-color="#9c94e0"/></radialGradient><radialGradient id="radial-gradient-6" cx="533.3077" cy="192.5385" r="171.2058" gradientTransform="matrix(1, 0, 0, -1, 0, 1200)" gradientUnits="userSpaceOnUse"><stop offset="0" stop-color="#6c49c1"/><stop offset="0.2292" stop-color="#6f4dc3"/><stop offset="0.4615" stop-color="#7659c8"/><stop offset="0.6952" stop-color="#836ed0"/><stop offset="0.9286" stop-color="#958adc"/><stop offset="1" stop-color="#9c94e0"/></radialGradient><radialGradient id="radial-gradient-7" cx="73.6154" cy="298.1648" r="260.715" gradientTransform="matrix(1, 0, 0, -1, 0, 1200)" gradientUnits="userSpaceOnUse"><stop offset="0" stop-color="#4dc6bd"/><stop offset="0.2204" stop-color="#51c4be"/><stop offset="0.4438" stop-color="#5dbfbf"/><stop offset="0.6687" stop-color="#72b6c2"/><stop offset="0.8932" stop-color="#8eaac7"/><stop offset="1" stop-color="#9ea3c9"/></radialGradient><radialGradient id="radial-gradient-8" cx="441.5275" cy="152.5824" r="180.815" gradientTransform="matrix(1, 0, 0, -1, 0, 1200)" gradientUnits="userSpaceOnUse"><stop offset="0" stop-color="#787dd4"/><stop offset="0.2784" stop-color="#7b81d3"/><stop offset="0.5606" stop-color="#858dd1"/><stop offset="0.8437" stop-color="#95a1cc"/><stop offset="1" stop-color="#a1b0c9"/></radialGradient><radialGradient id="radial-gradient-9" cx="443.9011" cy="100.3625" r="112.2513" gradientTransform="matrix(1, 0, 0, -1, 0, 1200)" gradientUnits="userSpaceOnUse"><stop offset="0" stop-color="#5a49c1"/><stop offset="0.2292" stop-color="#5e4dc3"/><stop offset="0.4615" stop-color="#6859c8"/><stop offset="0.6952" stop-color="#7a6ed0"/><stop offset="0.9286" stop-color="#938adc"/><stop offset="1" stop-color="#9c94e0"/></radialGradient><radialGradient id="radial-gradient-10" cx="121.0879" cy="387.5714" r="375.7567" gradientTransform="matrix(1, 0, 0, -1, 0, 1200)" gradientUnits="userSpaceOnUse"><stop offset="0" stop-color="#55bdc5"/><stop offset="0.1897" stop-color="#57b9c3"/><stop offset="0.382" stop-color="#5dadbf"/><stop offset="0.5756" stop-color="#6798b7"/><stop offset="0.7701" stop-color="#757cac"/><stop offset="0.9636" stop-color="#86589e"/><stop offset="1" stop-color="#8a509b"/></radialGradient><radialGradient id="radial-gradient-11" cx="393.5633" cy="229.5669" r="792.7989" xlink:href="#radial-gradient"/><radialGradient id="radial-gradient-12" cx="352.9121" cy="1124.1868" r="227.7472" gradientTransform="matrix(1, 0, 0, -1, 0, 1200)" gradientUnits="userSpaceOnUse"><stop offset="0" stop-color="#ffff40"/><stop offset="0.4925" stop-color="#99f76c"/><stop offset="0.8381" stop-color="#57f188"/><stop offset="1" stop-color="#3eef93"/></radialGradient><radialGradient id="radial-gradient-13" cx="434.4066" cy="1085.4176" r="83.0279" gradientTransform="matrix(1, 0, 0, -1, 0, 1200)" gradientUnits="userSpaceOnUse"><stop offset="0" stop-color="#64f968"/><stop offset="0.1919" stop-color="#6af66f"/><stop offset="1" stop-color="#7fe988"/></radialGradient><radialGradient id="radial-gradient-14" cx="195.4615" cy="1073.5495" r="293.708" xlink:href="#radial-gradient-12"/><radialGradient id="radial-gradient-15" cx="481.0879" cy="869.4176" r="133.2288" gradientTransform="matrix(1, 0, 0, -1, 0, 1200)" gradientUnits="userSpaceOnUse"><stop offset="0" stop-color="#00b5af"/><stop offset="0.5826" stop-color="#2ad5a1"/><stop offset="1" stop-color="#43e899"/></radialGradient><radialGradient id="radial-gradient-16" cx="300.2967" cy="565.5934" r="213.7512" xlink:href="#radial-gradient-15"/><radialGradient id="radial-gradient-17" cx="342.6264" cy="545.022" r="225.1542" xlink:href="#radial-gradient-15"/><radialGradient id="radial-gradient-18" cx="381.3956" cy="567.5714" r="252.1105" gradientTransform="matrix(1, 0, 0, -1, 0, 1200)" gradientUnits="userSpaceOnUse"><stop offset="0" stop-color="#00b5be"/><stop offset="0.5826" stop-color="#2ad5ba"/><stop offset="1" stop-color="#43e8b8"/></radialGradient><radialGradient id="radial-gradient-19" cx="114.3626" cy="823.9231" r="265.0422" gradientTransform="matrix(1, 0, 0, -1, 0, 1200)" gradientUnits="userSpaceOnUse"><stop offset="0" stop-color="#fcee21"/><stop offset="0.4677" stop-color="#a0f576"/><stop offset="0.8301" stop-color="#5ef9b3"/><stop offset="1" stop-color="#45fbca"/></radialGradient><radialGradient id="radial-gradient-20" cx="91.8132" cy="950.9121" r="301.8941" xlink:href="#radial-gradient-19"/><radialGradient id="radial-gradient-21" cx="320.4725" cy="713.5495" r="238.5465" gradientTransform="matrix(1, 0, 0, -1, 0, 1200)" gradientUnits="userSpaceOnUse"><stop offset="0" stop-color="#00b5be"/><stop offset="0.5826" stop-color="#2ad5a8"/><stop offset="1" stop-color="#43e89a"/></radialGradient><radialGradient id="radial-gradient-22" cx="402.7582" cy="731.3516" r="139.424" gradientTransform="matrix(1, 0, 0, -1, 0, 1200)" gradientUnits="userSpaceOnUse"><stop offset="0" stop-color="#00b56c"/><stop offset="0.5826" stop-color="#2ad584"/><stop offset="1" stop-color="#43e893"/></radialGradient><radialGradient id="radial-gradient-23" cx="330.7582" cy="919.9231" r="121.2235" gradientTransform="matrix(1, 0, 0, -1, 0, 1200)" gradientUnits="userSpaceOnUse"><stop offset="0" stop-color="#3ae879"/><stop offset="0.4281" stop-color="#40d88f"/><stop offset="1" stop-color="#46c5a8"/></radialGradient><radialGradient id="radial-gradient-24" cx="152.7363" cy="410.5165" r="268.284" xlink:href="#radial-gradient-15"/><radialGradient id="radial-gradient-25" cx="125.044" cy="524.4505" r="201.3871" gradientTransform="matrix(1, 0, 0, -1, 0, 1200)" gradientUnits="userSpaceOnUse"><stop offset="0" stop-color="#ffe47d"/><stop offset="1" stop-color="#6fc2bf"/></radialGradient><radialGradient id="radial-gradient-26" cx="467.6374" cy="931.9231" r="94.6049" xlink:href="#radial-gradient-15"/><radialGradient id="radial-gradient-27" cx="557.044" cy="741.2418" r="260.715" xlink:href="#radial-gradient-18"/><radialGradient id="radial-gradient-28" cx="459.7253" cy="728.978" r="173.2666" gradientTransform="matrix(1, 0, 0, -1, 0, 1200)" gradientUnits="userSpaceOnUse"><stop offset="0" stop-color="#4dc6bd"/><stop offset="0.2356" stop-color="#4ec2c1"/><stop offset="0.4744" stop-color="#53b6cc"/><stop offset="0.7146" stop-color="#5aa1df"/><stop offset="0.9547" stop-color="#6485f9"/><stop offset="1" stop-color="#667fff"/></radialGradient><radialGradient id="radial-gradient-29" cx="473.967" cy="340.8901" r="483.987" gradientTransform="matrix(0.3629, -0.9318, -0.5417, -0.211, 486.6459, 1372.7207)" gradientUnits="userSpaceOnUse"><stop offset="0" stop-color="#4dc6bd"/><stop offset="0.2705" stop-color="#4fc2bf"/><stop offset="0.5446" stop-color="#57b6c3"/><stop offset="0.8196" stop-color="#63a2cb"/><stop offset="1" stop-color="#6d90d2"/></radialGradient><radialGradient id="radial-gradient-30" cx="488.2088" cy="635.2198" r="265.4326" gradientTransform="matrix(1, 0, 0, -1, 0, 1200)" gradientUnits="userSpaceOnUse"><stop offset="0" stop-color="#4dc6bd"/><stop offset="0.2151" stop-color="#51c3c0"/><stop offset="0.4332" stop-color="#5db8ca"/><stop offset="0.6526" stop-color="#72a7d9"/><stop offset="0.8718" stop-color="#8e90ef"/><stop offset="1" stop-color="#a27fff"/></radialGradient><radialGradient id="radial-gradient-31" cx="500.0769" cy="700.4945" r="155.2005" gradientTransform="matrix(1, 0, 0, -1, 0, 1200)" gradientUnits="userSpaceOnUse"><stop offset="0" stop-color="#3da6c1"/><stop offset="0.5987" stop-color="#6ac0ae"/><stop offset="1" stop-color="#83cfa3"/></radialGradient><radialGradient id="radial-gradient-32" cx="543.5934" cy="518.1209" r="293.9572" gradientTransform="matrix(1, 0, 0, -1, 0, 1200)" gradientUnits="userSpaceOnUse"><stop offset="0" stop-color="#00b5af"/><stop offset="0.2607" stop-color="#24bea7"/><stop offset="0.7629" stop-color="#65ce99"/><stop offset="1" stop-color="#7ed493"/></radialGradient><radialGradient id="radial-gradient-33" cx="579.9889" cy="798.2088" r="147.8523" gradientTransform="matrix(1, 0.0005, 0.0005, -1, -0.4436, 1199.74)" gradientUnits="userSpaceOnUse"><stop offset="0" stop-color="#00b5af"/><stop offset="0.3898" stop-color="#42c0a6"/><stop offset="0.8041" stop-color="#83cb9d"/><stop offset="1" stop-color="#9ccf99"/></radialGradient><radialGradient id="radial-gradient-34" cx="543.5934" cy="677.9451" r="243.7129" gradientTransform="matrix(1, 0, 0, -1, 0, 1200)" gradientUnits="userSpaceOnUse"><stop offset="0" stop-color="#009cd1"/><stop offset="0.4778" stop-color="#60c5b4"/><stop offset="0.8334" stop-color="#a2e0a1"/><stop offset="1" stop-color="#bbeb99"/></radialGradient><radialGradient id="radial-gradient-35" cx="322.0549" cy="918.4725" r="172.8388" gradientTransform="matrix(1, 0, 0, -1, 0, 1200)" gradientUnits="userSpaceOnUse"><stop offset="0" stop-color="#00b5be"/><stop offset="0.4002" stop-color="#45cbbb"/><stop offset="0.8075" stop-color="#86e0b9"/><stop offset="1" stop-color="#9fe8b8"/></radialGradient><radialGradient id="radial-gradient-36" cx="130.5824" cy="429.5055" r="246.7861" xlink:href="#radial-gradient-18"/><radialGradient id="radial-gradient-37" cx="443.9011" cy="204.011" r="192.1941" gradientTransform="matrix(1, 0, 0, -1, 0, 1200)" gradientUnits="userSpaceOnUse"><stop offset="0" stop-color="#6b78d4"/><stop offset="0.2871" stop-color="#6e7cd3"/><stop offset="0.5781" stop-color="#7688d0"/><stop offset="0.8699" stop-color="#859ccc"/><stop offset="1" stop-color="#8da8c9"/></radialGradient><radialGradient id="radial-gradient-38" cx="615.8571" cy="290.2527" r="196.1815" gradientTransform="matrix(1, 0, 0, -1, 0, 1200)" gradientUnits="userSpaceOnUse"><stop offset="0" stop-color="#7149c1"/><stop offset="0.1933" stop-color="#724dc3"/><stop offset="0.3894" stop-color="#7659cb"/><stop offset="0.5866" stop-color="#7c6ed7"/><stop offset="0.7848" stop-color="#858ae7"/><stop offset="0.9819" stop-color="#91aefd"/><stop offset="1" stop-color="#92b2ff"/></radialGradient><radialGradient id="radial-gradient-39" cx="490.495" cy="453.81" r="173.4107" gradientTransform="matrix(1, 0, 0, -1, 0, 1200)" gradientUnits="userSpaceOnUse"><stop offset="0" stop-color="#b6e473"/><stop offset="1" stop-color="#3fbfc4"/></radialGradient><radialGradient id="radial-gradient-40" cx="423.1686" cy="514.7075" r="39.4506" xlink:href="#radial-gradient-39"/><radialGradient id="radial-gradient-41" cx="325.7308" cy="557.6813" r="285.5068" gradientTransform="matrix(1, 0, 0, -1, 0, 1200)" gradientUnits="userSpaceOnUse"><stop offset="0" stop-color="#76eaa9"/><stop offset="1" stop-color="#7388ff"/></radialGradient><radialGradient id="radial-gradient-42" cx="313.7473" cy="503.4835" r="172.8026" xlink:href="#radial-gradient-41"/><radialGradient id="radial-gradient-43" cx="354.3032" cy="437.6665" r="201.2903" gradientTransform="matrix(1, 0, 0, -1, 0, 1200)" gradientUnits="userSpaceOnUse"><stop offset="0" stop-color="#4dc6bd"/><stop offset="0.2444" stop-color="#4fc3c1"/><stop offset="0.4922" stop-color="#53bbcd"/><stop offset="0.7415" stop-color="#5baee2"/><stop offset="0.9906" stop-color="#669cfe"/><stop offset="1" stop-color="#669bff"/></radialGradient><radialGradient id="radial-gradient-44" cx="148.9862" cy="472.7909" r="317.1088" gradientTransform="matrix(1, 0, 0, -1, 0, 1200)" gradientUnits="userSpaceOnUse"><stop offset="0" stop-color="#4dafd2"/><stop offset="0.2204" stop-color="#51aed2"/><stop offset="0.4438" stop-color="#5dadd0"/><stop offset="0.6687" stop-color="#72aace"/><stop offset="0.8932" stop-color="#8ea5cb"/><stop offset="1" stop-color="#9ea3c9"/></radialGradient><radialGradient id="radial-gradient-45" cx="405.1319" cy="488.0549" r="269.6183" gradientTransform="matrix(1, 0, 0, -1, 0, 1200)" xlink:href="#radial-gradient-33"/><radialGradient id="radial-gradient-46" cx="307.8132" cy="519.7033" r="189.679" gradientTransform="matrix(1, 0, 0, -1, 0, 1200)" gradientUnits="userSpaceOnUse"><stop offset="0" stop-color="#78c6bd"/><stop offset="0.2356" stop-color="#77c2c1"/><stop offset="0.4744" stop-color="#74b6cc"/><stop offset="0.7146" stop-color="#6fa1df"/><stop offset="0.9547" stop-color="#6885f9"/><stop offset="1" stop-color="#667fff"/></radialGradient><radialGradient id="radial-gradient-47" cx="221.5714" cy="433.4615" r="84.5706" xlink:href="#radial-gradient-7"/><radialGradient id="radial-gradient-48" cx="223.1538" cy="661.7253" r="340.8926" gradientTransform="matrix(1, 0, 0, -1, 0, 1200)" gradientUnits="userSpaceOnUse"><stop offset="0" stop-color="#96e46f"/><stop offset="0.9068" stop-color="#6fbbd8"/></radialGradient><radialGradient id="radial-gradient-49" cx="165.3956" cy="484.8901" r="177.4849" gradientTransform="matrix(1, 0, 0, -1, 0, 1200)" gradientUnits="userSpaceOnUse"><stop offset="0" stop-color="#96e46f"/><stop offset="1" stop-color="#6fbbd8"/></radialGradient><radialGradient id="radial-gradient-50" cx="136.9121" cy="649.4615" r="176.3597" xlink:href="#radial-gradient-35"/><radialGradient id="radial-gradient-51" cx="329.967" cy="510.2088" r="103.5379" gradientTransform="matrix(1, 0, 0, -1, 0, 1200)" xlink:href="#radial-gradient-33"/><radialGradient id="radial-gradient-52" cx="521.4396" cy="630.4725" r="250.8918" gradientTransform="matrix(1, 0, 0, -1, 0, 1200)" xlink:href="#radial-gradient-33"/><radialGradient id="radial-gradient-53" cx="417" cy="592.4945" r="261.4056" xlink:href="#radial-gradient-15"/><radialGradient id="radial-gradient-54" cx="209.4879" cy="221.1023" r="207.9621" xlink:href="#radial-gradient"/><radialGradient id="radial-gradient-55" cx="164.3407" cy="206.3846" r="116.8372" xlink:href="#radial-gradient-7"/><radialGradient id="radial-gradient-56" cx="165.9231" cy="274.4286" r="146.9681" gradientTransform="matrix(1, 0, 0, -1, 0, 1200)" gradientUnits="userSpaceOnUse"><stop offset="0" stop-color="#00b5bc"/><stop offset="0.2762" stop-color="#27bcbf"/><stop offset="0.7678" stop-color="#68c7c3"/><stop offset="1" stop-color="#81cbc5"/></radialGradient><radialGradient id="radial-gradient-57" cx="100.5165" cy="427.9231" r="98.1227" xlink:href="#radial-gradient-39"/><radialGradient id="radial-gradient-58" cx="168.5604" cy="325.0659" r="202.7966" gradientTransform="matrix(1, 0, 0, -1, 0, 1200)" xlink:href="#radial-gradient-33"/><radialGradient id="radial-gradient-59" cx="76.7802" cy="480.1429" r="255.7453" xlink:href="#radial-gradient-25"/><radialGradient id="radial-gradient-60" cx="274.5824" cy="347.2198" r="139.4414" gradientTransform="matrix(1, 0, 0, -1, 0, 1200)" xlink:href="#radial-gradient-33"/><radialGradient id="radial-gradient-61" cx="327.3297" cy="349.3297" r="102.494" xlink:href="#radial-gradient-8"/><radialGradient id="radial-gradient-62" cx="260.3407" cy="365.8132" r="214.941" gradientTransform="matrix(1, 0, 0, -1, 0, 1200)" xlink:href="#radial-gradient-33"/><radialGradient id="radial-gradient-63" cx="116.3407" cy="549.2418" r="146.6108" gradientTransform="matrix(1, 0, 0, -1, 0, 1200)" gradientUnits="userSpaceOnUse"><stop offset="0.0289" stop-color="#00aca8"/><stop offset="0.5946" stop-color="#2ad19f"/><stop offset="1" stop-color="#43e89a"/></radialGradient><radialGradient id="radial-gradient-64" cx="190.7143" cy="350.3846" r="71.5596" gradientTransform="matrix(1, 0, 0, -1, 0, 1200)" gradientUnits="userSpaceOnUse"><stop offset="0" stop-color="#00b5af"/><stop offset="0.2762" stop-color="#27b1b6"/><stop offset="0.7678" stop-color="#68aac1"/><stop offset="1" stop-color="#81a7c5"/></radialGradient><radialGradient id="radial-gradient-65" cx="253.7206" cy="507.1934" r="155.1169" gradientTransform="matrix(1, 0, 0, -1, 0, 1200)" xlink:href="#radial-gradient-33"/><radialGradient id="radial-gradient-66" cx="48.4505" cy="728.7802" r="265.4326" xlink:href="#radial-gradient"/><radialGradient id="radial-gradient-67" cx="70.7444" cy="721.4615" r="237.4971" xlink:href="#radial-gradient-19"/><radialGradient id="radial-gradient-68" cx="214.4505" cy="495.967" r="185.6973" xlink:href="#radial-gradient-15"/><radialGradient id="radial-gradient-69" cx="285.2637" cy="591.7033" r="133.5667" gradientTransform="matrix(1, 0, 0, -1, 0, 1200)" xlink:href="#radial-gradient-33"/><radialGradient id="radial-gradient-70" cx="254.4066" cy="512.978" r="188.079" xlink:href="#radial-gradient-18"/><radialGradient id="radial-gradient-71" cx="201.2637" cy="523.3956" r="143.647" xlink:href="#radial-gradient-63"/><radialGradient id="radial-gradient-72" cx="160.6484" cy="559.2637" r="55.8405" xlink:href="#radial-gradient-21"/><radialGradient id="radial-gradient-73" cx="127.0333" cy="566.1031" r="127.2968" xlink:href="#radial-gradient"/><radialGradient id="radial-gradient-74" cx="72.4286" cy="562.4286" r="244.5264" xlink:href="#radial-gradient-19"/><radialGradient id="radial-gradient-75" cx="195.0659" cy="521.2857" r="160.8491" xlink:href="#radial-gradient-15"/><radialGradient id="radial-gradient-76" cx="136.3187" cy="566.7802" r="95.8565" gradientTransform="matrix(1, 0, 0, -1, 0, 1200)" gradientUnits="userSpaceOnUse"><stop offset="0" stop-color="#00abbe"/><stop offset="0.5826" stop-color="#2ad1a8"/><stop offset="1" stop-color="#43e89a"/></radialGradient><radialGradient id="radial-gradient-77" cx="142.0549" cy="561.044" r="86.0715" xlink:href="#radial-gradient-21"/></defs><g id="lower"><g id="crystal_shard_01" data-name="crystal shard 01"><path d="M342,810l-76,52q14,56.5,28,113,29.4823,35.8257,60,72,23.0451,27.31,46,54l82-90q15.5-35.5,31-71l52.6069-150.8727L458,780Z" style="fill:url(#radial-gradient)"/></g><g id="shapes_shard_01_copy" data-name="shapes shard 01 copy"><path d="M293.5,974.5q53,63.5,106,127-5.5-44.5-11-89Z" style="fill:url(#radial-gradient-2)"/><path d="M364.5,922.5l24,90,94-1,9-61Z" style="fill:url(#radial-gradient-3)"/><path d="M479.4483,885.3754Q485.4741,917.9377,491.5,950.5L364.5146,922.5807Q421.9816,903.9782,479.4483,885.3754Z" style="fill:url(#radial-gradient-4)"/><path d="M511.5,941.5l-20,9-9,60Z" style="fill:url(#radial-gradient-5)"/><path d="M479.5,885.5l12,65,21-10,52-151Z" style="fill:url(#radial-gradient-6)"/><path d="M266.5,862.5l98,60-71,53Z" style="fill:url(#radial-gradient-7)"/><path d="M388.5,1012.5l-95-37,71-53Z" style="fill:url(#radial-gradient-8)"/><path d="M388.5,1012.5q5.5,44.5,11,89l83-91Z" style="fill:url(#radial-gradient-9)"/><path d="M266.5,862.5l98,60,115-37,86-98-108-8-116,30Z" style="fill:url(#radial-gradient-10)"/></g></g><g id="main"><g id="crystal_base" data-name="crystal base"><path d="M639,663,580,511q-12.5-50.5-25-101-15.8323-53.4345-34-109-21.5091-65.6367-44-127l-46-30-31-35-44,43L267,313l-18,52L160,498q11,62.5,22,125l-9,19q8.5,34.5,17,69l38,76,38,77,97.7253,58.4066,114.989-36.9231,86.8926-96.3562L566,788Z" style="fill:url(#radial-gradient-11)"/></g><g id="shapes_color" data-name="shapes color"><path d="M431.5,143.5q-5.5,26.5-11,53l-37,44-27-89,44-43Z" style="fill:url(#radial-gradient-12)"/><path d="M477.5,173.5l-57,23q5.5-26.5,11-53Z" style="fill:url(#radial-gradient-13)"/><path d="M383.5,240.5l9,55-3,47-75,23-48-52,90-162Z" style="fill:url(#radial-gradient-14)"/><path d="M391.5,293.5l56,18q-2-32.5-4-65l-23-50-37,44Q387.5,267,391.5,293.5Z" style="fill:url(#radial-gradient-15)"/><path d="M159.5,498.5l70-15q2.5,58.5,5,117Z" style="fill:url(#radial-gradient-16)"/><path d="M229.5,483.5l60-66q19,47,38,94l-93,88Q232,541.5,229.5,483.5Z" style="fill:url(#radial-gradient-17)"/><path d="M159.5,498.5l75,102q-5,42-10,84L182,623Z" style="fill:url(#radial-gradient-18)"/><path d="M249.5,363.5l40,55-60,65-70,15Z" style="fill:url(#radial-gradient-19)"/><path d="M266.5,313.5l48,52q-12.5,26.5-25,53l-41-55Z" style="fill:url(#radial-gradient-20)"/><path d="M427.5,341.5l-50,84q6.5-41.5,13-83Z" style="fill:url(#radial-gradient-21)"/><path d="M314.5,365.5l62,59q6.5-41,13-82Z" style="fill:url(#radial-gradient-22)"/><path d="M393.5,293.5l54,17-20,31-38,1Q391.5,318,393.5,293.5Z" style="fill:url(#radial-gradient-23)"/><path d="M173.5,641.5l51,43,14,22-48,4Q182,676,173.5,641.5Z" style="fill:url(#radial-gradient-24)"/><path d="M183.5,622.5l42,63-52-44Z" style="fill:url(#radial-gradient-25)"/><path d="M477.5,173.5l-34,73-23-50Z" style="fill:url(#radial-gradient-26)"/><path d="M477.5,173.5l-34,73q2,32.5,4,65l106,94Z" style="fill:url(#radial-gradient-27)"/><path d="M530.5,385.5l48,125q-12.5-52-25-104Z" style="fill:url(#radial-gradient-28)"/><path d="M530.5,385.5l108,277-122,53L471,643l-1.5-7.5q-.5-68.5-1-137Z" style="fill:url(#radial-gradient-29)"/><path d="M516.4368,715.9238q-5.84,21.0453-11.6791,42.09L565.5,787.5l73-125Z" style="fill:url(#radial-gradient-30)"/><path d="M468.5,498.5l-31,90,32,47Q469,567,468.5,498.5Z" style="fill:url(#radial-gradient-31)"/><path d="M377.5,425.5,328,512l62.5,125.5,47-49,31-90Z" style="fill:url(#radial-gradient-32)"/><path d="M447.53,311.4779l35.941,111.0192,47.02-36.975Z" style="fill:url(#radial-gradient-33)"/><path d="M483.5243,422.48q-7.5474,37.9906-15.0947,75.9812l62.14-112.9225Z" style="fill:url(#radial-gradient-34)"/><path d="M447.5,311.5l36,111-106,3Z" style="fill:url(#radial-gradient-35)"/><path d="M238.5,706.5q12.5,46,25,92l3,65-76-153Z" style="fill:url(#radial-gradient-36)"/><path d="M477.5,814.5q1,36.5,2,73l-115,35,18-124Z" style="fill:url(#radial-gradient-37)"/><path d="M504.5,758.5l61,29-86,98q-1-35.5-2-71Z" style="fill:url(#radial-gradient-38)"/><path d="M469,635l-31.5-46.5-46.26,48.2287L391,650l80.427-6.8757Z" style="fill:url(#radial-gradient-39)"/><path d="M374,651l18-1q-.5-6.5-1-13Z" style="fill:url(#radial-gradient-40)"/><path d="M492,717q-10.2867-36.9378-20.573-73.8757l-79.7444,6.9344A17.0789,17.0789,0,0,1,391,653c-5.4142,26.2976-9.0319,51.4018-12.2448,77.1573Q380.6275,764.3287,382.5,798.5l95,16,27-56Q498.25,737.75,492,717Z" style="fill:url(#radial-gradient-41)"/><path d="M391.6826,650.0587,374,651q2.5,43,5,86Q385.3413,693.5293,391.6826,650.0587Z" style="fill:url(#radial-gradient-42)"/><path d="M471,643q16.75,57.75,33.5,115.5l12-43Z" style="fill:url(#radial-gradient-43)"/><path d="M286.7809,808.2959,266,864l99,59q8.9167-62.0929,17.8334-124.1864Z" style="fill:url(#radial-gradient-44)"/><path d="M327.5,511.5q23.5,69.5,47,139l16-13Z" style="fill:url(#radial-gradient-45)"/><path d="M378.5,736.5q2,31,4,62l-96,10,21-56Z" style="fill:url(#radial-gradient-46)"/><path d="M307.5,753.5l-44,45,3,64Q287,808,307.5,753.5Z" style="fill:url(#radial-gradient-47)"/><path d="M327.5,511.5q-21.5,79-43,158l23,83,71-16q-2-42-4-84Z" style="fill:url(#radial-gradient-48)"/><path d="M284.5,669.5l-46,37q12.5,46,25,92l44-46Z" style="fill:url(#radial-gradient-49)"/><path d="M234.5,599.5l50,70q21.5-79,43-158Z" style="fill:url(#radial-gradient-50)"/><path d="M234.5,600.5l50,69-46,37-14-22Q229.5,642.5,234.5,600.5Z" style="fill:url(#radial-gradient-51)"/><path d="M377,426l106-4-15,78Z" style="fill:url(#radial-gradient-52)"/><path d="M315,366l63,60-50,86q-19-47-38-94Z" style="fill:url(#radial-gradient-53)"/></g></g><g id="lower-left"><g id="crystal_shard_03" data-name="crystal shard 03"><path d="M238,706l27,90q.5,34,1,68l6,26-65,69q-7.6775-30.2052-17-62-12.0106-40.7948-25-78c-3.9466-31.9366-7.3442-65.2981-10-100q-3.5593-46.5078-5-90l13-7,10,20,51,41Z" style="fill:url(#radial-gradient-54)"/></g><g id="shapes_shard_03" data-name="shapes shard 03"><path d="M225.5,907.5l-19,52,65-70Z" style="fill:url(#radial-gradient-55)"/><path d="M207.3952,833.492q8.658,36.8517,17.3159,73.7032L207.6048,957.508l-17.0487-58.7056Q198.9758,866.1473,207.3952,833.492Z" style="fill:url(#radial-gradient-56)"/><path d="M155.5,718.5l35,89q.5,46.5,1,93-13-41-26-82Q160.5,768.5,155.5,718.5Z" style="fill:url(#radial-gradient-57)"/><path d="M190.5,807.5l18,25-17,62Q191,851,190.5,807.5Z" style="fill:url(#radial-gradient-58)"/><path d="M224.5,684.5l14,21-48,102Q207.5,746,224.5,684.5Z" style="fill:url(#radial-gradient-59)"/><path d="M208.5,832.5l-18-25,48-101,26,89Z" style="fill:url(#radial-gradient-60)"/><path d="M263.9621,798.6478q-19.4537,54.34-38.9075,108.6794L271.5,889.5q-2.5358-13.4146-5.0716-26.8293Z" style="fill:url(#radial-gradient-61)"/><path d="M173.5,641.5q-9.5,38.5-19,77l36,89q17-61.5,34-123Z" style="fill:url(#radial-gradient-62)"/><path d="M163.5,622.5l-14,7,6,89,18-77Z" style="fill:url(#radial-gradient-63)"/><path d="M208,832q8.5,38,17,76,20-56.5,40-113Z" style="fill:url(#radial-gradient-64)"/><path d="M163,622l60,61-49-41Z" style="fill:url(#radial-gradient-65)"/></g></g><g id="middle-left"><g id="crystal_shard_02" data-name="crystal shard 02"><path d="M229,485l-70,15-43,64q6.5,23.5,13,47l20,19,21,9,54,44q5-41,10-82Q231.5,543,229,485Z" style="fill:url(#radial-gradient-66)"/></g><g id="shapes_shard_02_color" data-name="shapes shard 02 color"><path d="M229.5,483.5l-82,82L115,565l45.5-67.5Z" style="fill:url(#radial-gradient-67)"/><path d="M234.5,600.5l-68-4-19-31L230,484Z" style="fill:url(#radial-gradient-68)"/><path d="M206.5,598.5l-33,43,52,44,9-85Z" style="fill:url(#radial-gradient-69)"/><path d="M115,565l32.5.5,19,31-3,27-14,6-20-18Q122.25,588.25,115,565Z" style="fill:url(#radial-gradient-70)"/><path d="M173.5,641.5l-11-18q2-13.5,4-27l40,2Z" style="fill:url(#radial-gradient-71)"/><path d="M149.5,629.5l13-7,11,19Z" style="fill:url(#radial-gradient-72)"/></g></g><g id="middle-tiny"><g id="crystal_shard_02_copy_2" data-name="crystal shard 02 copy 2"><path d="M167,596q-2,13.5-4,27l-14,7L89,611l27-47,32,1Z" style="fill:url(#radial-gradient-73)"/></g><g id="shapes_shard_03_copy" data-name="shapes shard 03 copy"><path d="M147.5,565.5l-31-2-27,47Z" style="fill:url(#radial-gradient-74)"/><path d="M147.5,565.5l20,30-78,15Z" style="fill:url(#radial-gradient-75)"/><path d="M149.5,629.5l13.7327-5.8854-73.1811-12.94Z" style="fill:url(#radial-gradient-76)"/><path d="M167.5,595.5l-78,15,.5516.1747,73.1811,12.94L163.5,623.5Q165.5,609.5,167.5,595.5Z" style="fill:url(#radial-gradient-77)"/></g></g></svg>