<svg xmlns="http://www.w3.org/2000/svg" xmlns:xlink="http://www.w3.org/1999/xlink" viewBox="0 0 2560 2560"><defs><linearGradient id="f4a08d2b-2188-4a1c-9930-12e839536315" x1="171" y1="1344.75" x2="2302" y2="1344.75" gradientUnits="userSpaceOnUse"><stop offset="0" stop-color="#9acd32"/><stop offset="0.1372" stop-color="#9ccb34" stop-opacity="0.9801"/><stop offset="0.277" stop-color="#a2c63c" stop-opacity="0.9204"/><stop offset="0.4181" stop-color="#acbe48" stop-opacity="0.8208"/><stop offset="0.5601" stop-color="#bab359" stop-opacity="0.6811"/><stop offset="0.7027" stop-color="#cca46f" stop-opacity="0.5012"/><stop offset="0.846" stop-color="#e3928a" stop-opacity="0.2809"/><stop offset="0.9873" stop-color="#fc7da9" stop-opacity="0.0249"/><stop offset="1" stop-color="#ff7bac" stop-opacity="0"/></linearGradient></defs><g style="isolation:isolate"><g id="a1571a32-e8a7-483d-850e-1b5f64c27f06" data-name="Inverse Green"><g id="acd9a1c9-bfe8-4a51-86e7-b31f806521cd" data-name="Layer 34"><path d="M2294,826,1680,497l-136-12-154-11H1127L928,485,766,497,182,839l-11,33L1228.5,2215.5Q1765.25,1535.75,2302,856,2298,841,2294,826Z" style="fill:#00ffb0"/></g><g id="e58c96cc-fedb-4be5-ae41-5a0833c5c014" data-name="Layer 34 copy 2"><path d="M2294,826,1680,497l-136-12-154-11H1127L928,485,766,497,182,839l-11,33L1228.5,2215.5Q1765.25,1535.75,2302,856,2298,841,2294,826Z" style="fill:url(#f4a08d2b-2188-4a1c-9930-12e839536315)"/></g><g id="ba9b912a-6329-41eb-a40a-98417a5dfa95" data-name="slice copy 5"><path d="M1036,929l-179-1v18l183,41,181-19,3-21Z" style="fill:#008c61;opacity:0.65"/><path d="M1405,934l173,5q1,5,2,10l-181,38-178-19,3-21Z" style="fill:#008c61;opacity:0.6000000000000001"/><path d="M857,928v18l-176,8L540,923V913l136-7Z" style="fill:#008c61;opacity:0.7000000000000001"/><path d="M1759,915l161-5-3.4835,10L1749,957l-169-8q-1-5-2-10Z" style="fill:#008c61;opacity:0.7000000000000001"/><path d="M2023,883l117-13q1,3.5,2,7l-103,33-122,10,3-10Z" style="fill:#008c61;opacity:0.8"/><path d="M2190,851l67-5,6,9-40,20-81,2q-1-3.5-2-7Z" style="fill:#008c61;opacity:0.85"/><path d="M431,878l109,35v10l-126-8L310,882l4-8Z" style="fill:#008c61;opacity:0.8"/><path d="M255,853l59,21-4,8-67-3-44-16,4-12Z" style="fill:#008c61;opacity:0.85"/><path d="M2257,846l6,9,39,1q-4-15-8-30Z" style="fill:#008c61;opacity:0.9"/><path d="M182,839l-1,1-10,31v1l28-9,4-12Z" style="fill:#008c61;opacity:0.9"/></g><g id="bb438537-b8f4-4f90-b3d7-1c6aeb2314ae" data-name="Yellow copy 2"><g style="opacity:0.62"><path d="M1680,497l614,329-37,20-46,3Z" style="fill:#00996d"/></g><g style="opacity:0.5"><path d="M2023,883l117-13,71-21L1607,506Z" style="fill:#00996d"/></g><g style="opacity:0.4"><path d="M2023,883l-103,27-161,5q-76-204.5-152-409Z" style="fill:#00996d"/></g><g style="opacity:0.25"><path d="M1318,514l87,420,175,5,179-24Z" style="fill:#00996d"/></g><g style="opacity:0.1"><path d="M1318,514q-143.5,208-287,416l193,17,181-13Z" style="fill:#00996d"/></g><g style="opacity:0.25"><path d="M922,506,676,906l181,22,174,2Z" style="fill:#00996d"/></g><g style="opacity:0.4"><path d="M922,506,676,906l-135,7L431,878Z" style="fill:#00996d"/></g><g style="opacity:0.5"><path d="M431,878l-117-4-59-21L766,497Z" style="fill:#00996d"/></g><g style="opacity:0.6000000000000001"><path d="M255,853l-52-2-21-12L766,497Z" style="fill:#00996d"/></g><g style="opacity:0.6000000000000001"><path d="M171,872l28-9,44,16s657.3333,891.3334,986,1337C1005.6342,1937.0243,171,872,171,872Z" style="fill:#00996d"/></g><g style="opacity:0.5"><path d="M243,879l67,3,104,33,814,1301Z" style="fill:#00996d"/></g><g style="opacity:0.4"><path d="M414,915l126,8,141,31q274,631,548,1262Q821.5,1565.5,414,915Z" style="fill:#00996d"/></g><g style="opacity:0.25"><path d="M681,954l176-8,183,41,189,1229Q955,1585,681,954Z" style="fill:#00996d"/></g><g style="opacity:0.1"><path d="M1040,987l181-19,178,19s-111.3334,804-170,1229C1164.3334,1791.3334,1040,987,1040,987Z" style="fill:#00996d"/></g><g style="opacity:0.25"><path d="M1399,987l181-38,169,8s-344,834-520,1259C1287.6666,1791,1399,987,1399,987Z" style="fill:#00996d"/></g><g style="opacity:0.4"><path d="M1749,957l168-37,122-10L1229,2216Q1489,1586.5,1749,957Z" style="fill:#00996d"/></g><g style="opacity:0.5"><path d="M2039,910l103-33,81-2L1229,2216Z" style="fill:#00996d"/></g><g style="opacity:0.62"><path d="M2302,856l-39-1-40,20L1229,2216Q1765.5,1536,2302,856Z" style="fill:#00996d"/></g><g style="opacity:0.45"><path d="M431,878,766,497l156,9Z" style="fill:#00996d"/></g><g style="opacity:0.2"><path d="M922,506l109,424q143.5-208,287-416Z" style="fill:#00996d"/></g><g style="opacity:0.2"><path d="M1759,915,1318,514l289-8Q1683,710.5,1759,915Z" style="fill:#00996d"/></g><path d="M1607,506l604,343L1680,497Z" style="fill:#00996d;opacity:0.56"/><polygon points="1390 474 1534 484 1680 497 1607 506 1318 514 922 506 766 497 922 485.444 1127 474 1390 474" style="fill:#00996d;opacity:0.56"/></g><g id="ab1f1ec2-8882-42b2-ba3c-ba98067c54ab" data-name="Yellow copy 7" style="opacity:0.2;mix-blend-mode:multiply"><g style="opacity:0.7000000000000001"><path d="M1680,497l614,329-37,20-46,3Z" style="fill:#00996d"/></g><g style="opacity:0.5"><path d="M2023,883l117-13,71-21L1607,506Z" style="fill:#00996d"/></g><g style="opacity:0.4"><path d="M2023,883l-103,27-161,5q-76-204.5-152-409Z" style="fill:#00996d"/></g><g style="opacity:0.25"><path d="M1318,514l87,420,175,5,179-24Z" style="fill:#00996d"/></g><g style="opacity:0.1"><path d="M1318,514q-143.5,208-287,416l193,17,181-13Z" style="fill:#00996d"/></g><g style="opacity:0.25"><path d="M922,506,676,906l181,22,174,2Z" style="fill:#00996d"/></g><g style="opacity:0.4"><path d="M922,506,676,906l-135,7L431,878Z" style="fill:#00996d"/></g><g style="opacity:0.5"><path d="M431,878l-117-4-59-21L766,497Z" style="fill:#00996d"/></g><g style="opacity:0.7000000000000001"><path d="M255,853l-52-2-21-12L766,497Z" style="fill:#00996d"/></g><g style="opacity:0.7000000000000001"><path d="M171,872l28-9,44,16s657.3333,891.3334,986,1337C1005.6342,1937.0243,171,872,171,872Z" style="fill:#00996d"/></g><g style="opacity:0.5"><path d="M243,879l67,3,104,33,814,1301Z" style="fill:#00996d"/></g><g style="opacity:0.4"><path d="M414,915l126,8,141,31q274,631,548,1262Q821.5,1565.5,414,915Z" style="fill:#00996d"/></g><g style="opacity:0.25"><path d="M681,954l176-8,183,41,189,1229Q955,1585,681,954Z" style="fill:#00996d"/></g><g style="opacity:0.1"><path d="M1040,987l181-19,178,19s-111.3334,804-170,1229C1164.3334,1791.3334,1040,987,1040,987Z" style="fill:#00996d"/></g><g style="opacity:0.25"><path d="M1399,987l181-38,169,8s-344,834-520,1259C1287.6666,1791,1399,987,1399,987Z" style="fill:#00996d"/></g><g style="opacity:0.4"><path d="M1749,957l168-37,122-10L1229,2216Q1489,1586.5,1749,957Z" style="fill:#00996d"/></g><g style="opacity:0.5"><path d="M2039,910l103-33,81-2L1229,2216Z" style="fill:#00996d"/></g><g style="opacity:0.7000000000000001"><path d="M2302,856l-39-1-40,20L1229,2216Q1765.5,1536,2302,856Z" style="fill:#00996d"/></g><g style="opacity:0.45"><path d="M431,878,766,497l156,9Z" style="fill:#00996d"/></g><g style="opacity:0.2"><path d="M922,506l109,424q143.5-208,287-416Z" style="fill:#00996d"/></g><g style="opacity:0.2"><path d="M1759,915,1318,514l289-8Q1683,710.5,1759,915Z" style="fill:#00996d"/></g><path d="M1607,506l604,343L1680,497Z" style="fill:#00996d;opacity:0.6000000000000001"/><polygon points="1390 474 1534 484 1680 497 1607 506 1318 514 922 506 766 497 922 485.444 1127 474 1390 474" style="fill:#00996d;opacity:0.56"/></g><text transform="translate(1224.3955 997.5493)" style="writing-mode:tb;text-orientation:upright;glyph-orientation-vertical:0deg;font-size:88px;fill:#fff;font-family:Ubuntu-Bold, Ubuntu;font-weight:700">PLACEHOLDER</text></g></g></svg>