<svg id="scroll" xmlns="http://www.w3.org/2000/svg" xmlns:xlink="http://www.w3.org/1999/xlink" viewBox="0 0 203 265"><defs><radialGradient id="radial-gradient" cx="-30.3221" cy="-2.9745" r="453.1591" gradientUnits="userSpaceOnUse"><stop offset="0" stop-color="#32bf53"/><stop offset="0.3524" stop-color="#4c8782"/><stop offset="0.7922" stop-color="#6946b9"/><stop offset="1" stop-color="#752dce"/></radialGradient><radialGradient id="radial-gradient-2" cx="-17.5824" cy="-22.9341" r="415.1728" xlink:href="#radial-gradient"/><radialGradient id="radial-gradient-3" cx="-46.1359" cy="-77.1545" r="524.3082" gradientUnits="userSpaceOnUse"><stop offset="0" stop-color="#32bf53"/><stop offset="0.2446" stop-color="#449f74"/><stop offset="0.7577" stop-color="#6761b5"/><stop offset="1" stop-color="#7549ce"/></radialGradient><radialGradient id="radial-gradient-4" cx="51.8002" cy="-42.2259" r="344.4723" xlink:href="#radial-gradient"/><radialGradient id="radial-gradient-5" cx="-0.033" cy="-15.0156" r="390.4228" gradientUnits="userSpaceOnUse"><stop offset="0" stop-color="#4cbf53"/><stop offset="0.3524" stop-color="#5c8782"/><stop offset="0.7922" stop-color="#6e46b9"/><stop offset="1" stop-color="#752dce"/></radialGradient><radialGradient id="radial-gradient-6" cx="-58.643" cy="-68.7222" r="526.196" xlink:href="#radial-gradient"/><radialGradient id="radial-gradient-7" cx="-124.5475" cy="69.3291" r="225.4248" gradientTransform="translate(3.6986 4.6322) rotate(-1.8969)" gradientUnits="userSpaceOnUse"><stop offset="0" stop-color="#b6e473"/><stop offset="1" stop-color="#3fbfc4"/></radialGradient><radialGradient id="radial-gradient-8" cx="145.4365" cy="12.0769" r="186.4762" gradientUnits="userSpaceOnUse"><stop offset="0" stop-color="#4fea95"/><stop offset="1" stop-color="#8087fe"/></radialGradient><radialGradient id="radial-gradient-9" cx="53.4144" cy="68.0891" r="137.2539" gradientTransform="translate(3.6986 4.6322) rotate(-1.8969)" gradientUnits="userSpaceOnUse"><stop offset="0" stop-color="#72c2bd"/><stop offset="0.2444" stop-color="#71c0c1"/><stop offset="0.4922" stop-color="#6fbacd"/><stop offset="0.7415" stop-color="#6bafe2"/><stop offset="0.9906" stop-color="#66a1fe"/><stop offset="1" stop-color="#66a0ff"/></radialGradient><radialGradient id="radial-gradient-10" cx="-10.8012" cy="148.4015" r="155.4494" gradientTransform="translate(3.6986 4.6322) rotate(-1.8969)" gradientUnits="userSpaceOnUse"><stop offset="0" stop-color="#2dc6bd"/><stop offset="0.1933" stop-color="#31c4be"/><stop offset="0.3894" stop-color="#3dbec0"/><stop offset="0.5866" stop-color="#52b3c4"/><stop offset="0.7848" stop-color="#6ea5ca"/><stop offset="0.9819" stop-color="#9292d1"/><stop offset="1" stop-color="#9690d2"/></radialGradient><radialGradient id="radial-gradient-11" cx="167.9153" cy="168.006" r="170.0956" gradientTransform="translate(3.6986 4.6322) rotate(-1.8969)" gradientUnits="userSpaceOnUse"><stop offset="0" stop-color="#97aaea"/><stop offset="0.6399" stop-color="#61c7c9"/><stop offset="1" stop-color="#48d5b9"/></radialGradient><radialGradient id="radial-gradient-12" cx="34.1102" cy="147.5639" r="73.7703" gradientTransform="translate(3.6986 4.6322) rotate(-1.8969)" gradientUnits="userSpaceOnUse"><stop offset="0" stop-color="#4dc6bd"/><stop offset="0.2565" stop-color="#51c4c0"/><stop offset="0.5165" stop-color="#5dbdc8"/><stop offset="0.7771" stop-color="#71b1d6"/><stop offset="1" stop-color="#89a4e6"/></radialGradient><linearGradient id="linear-gradient" x1="51.711" y1="185.0888" x2="143.9376" y2="171.5796" gradientUnits="userSpaceOnUse"><stop offset="0" stop-color="#2ab8c9"/><stop offset="1" stop-color="#897ac2"/></linearGradient><radialGradient id="radial-gradient-13" cx="16.6117" cy="201.2832" r="119.5325" gradientTransform="translate(3.6986 4.6322) rotate(-1.8969)" gradientUnits="userSpaceOnUse"><stop offset="0" stop-color="#79c6bd"/><stop offset="0.1838" stop-color="#79c2bd"/><stop offset="0.3702" stop-color="#78b6bf"/><stop offset="0.5578" stop-color="#76a1c1"/><stop offset="0.7463" stop-color="#7485c4"/><stop offset="0.9337" stop-color="#7161c7"/><stop offset="1" stop-color="#7052c9"/></radialGradient></defs><g id="left-bottom"><g id="inner"><path d="M197,55c-2.9769,12.36-7.2573,29.1909-13,49-5.2314,18.0452-14.4025,49.462-30,89-10.3051,26.1223-21.15,50.1381-32,72L96.013,225.6728q-10.4184-42.6786-20.8369-85.3571Q38.088,70.658,1,1l99,44Z" style="fill:url(#radial-gradient)"/><g id="shapes"><path d="M100,45,82,64,0,0Z" style="fill:url(#radial-gradient-2)"/><path d="M100,45,82,63l84,11,37-23Z" style="fill:url(#radial-gradient-3)"/><path d="M166,74l37-23-20,57-30,15Z" style="fill:url(#radial-gradient-4)"/><path d="M129,196l34-5q10-41.5,20-83l-30,15Z" style="fill:url(#radial-gradient-5)"/><path d="M129,196l34-5-41,74Q125.5,230.5,129,196Z" style="fill:url(#radial-gradient-6)"/></g></g><g id="_Layer_" data-name="&lt;Layer&gt;"><path d="M82,63l-6,76-1.307,1.832Q37.3465,70.416,0,0Z" style="fill:url(#radial-gradient-7)"/><path d="M82,63l5,7,61,51,5,1.4615L166,74Z" style="fill:url(#radial-gradient-8)"/><path d="M82,63q-.5,3.5-1,7l15,84c15.6845-7.5821,31.7435-16.1958,48-26q4.5642-2.7526,9-5.5385Z" style="fill:url(#radial-gradient-9)"/><path d="M153,122.4615,146,139l-44,80-6,7q-.5-7-1-14V158l2-5Z" style="fill:url(#radial-gradient-10)"/><path d="M74.693,140.832Q76.3465,142.916,78,145l15,9,4-1L82,63h0Z" style="fill:url(#radial-gradient-11)"/><path d="M97,153q-.5,36.5-1,73-10.6536-42.5839-21.307-85.168Z" style="fill:url(#radial-gradient-12)"/><path d="M152,123,96,226l5-2,24-23,4-5Q140.5,159.5,152,123Z" style="fill:url(#linear-gradient)"/><path d="M129,196,96,226l26,39Q125.5,230.5,129,196Z" style="fill:url(#radial-gradient-13)"/></g><g id="highlights" style="opacity:0.5"><path d="M90,109q4,21.5,8,43l32-17L98,154q-.5,13-1,26-.5-13.5-1-27Z" style="fill:#f2f2f2"/><path d="M96,226l11,16-9-16,20-20Z" style="fill:#f2f2f2"/></g></g></svg>