<svg id="scroll" xmlns="http://www.w3.org/2000/svg" xmlns:xlink="http://www.w3.org/1999/xlink" viewBox="0 0 227.3574 403.2455"><defs><radialGradient id="radial-gradient" cx="-43.623" cy="-37.2857" r="473.5353" gradientTransform="translate(16.6177 -12.4205) rotate(4.1431)" gradientUnits="userSpaceOnUse"><stop offset="0" stop-color="#1fbf8a"/><stop offset="0.239" stop-color="#389f90"/><stop offset="0.756" stop-color="#6a5e9d"/><stop offset="1" stop-color="#7e45a2"/></radialGradient><radialGradient id="radial-gradient-2" cx="-20.6044" cy="308.8022" r="95.0915" gradientTransform="matrix(1, 0, 0, 1, 0, 0)" xlink:href="#radial-gradient"/><radialGradient id="radial-gradient-3" cx="-253.2198" cy="94.6484" r="491.789" gradientUnits="userSpaceOnUse"><stop offset="0" stop-color="#1fbf8a"/><stop offset="0.2739" stop-color="#409592"/><stop offset="0.598" stop-color="#616a9b"/><stop offset="0.851" stop-color="#764fa0"/><stop offset="1" stop-color="#7e45a2"/></radialGradient><radialGradient id="radial-gradient-4" cx="-137.967" cy="132.0989" r="361.0635" xlink:href="#radial-gradient-3"/><radialGradient id="radial-gradient-5" cx="-92.0262" cy="133.6157" r="341.233" xlink:href="#radial-gradient-3"/><radialGradient id="radial-gradient-6" cx="-96.5315" cy="43.1176" r="432.0992" xlink:href="#radial-gradient-3"/><radialGradient id="radial-gradient-7" cx="-183.8583" cy="16.1372" r="585.7377" gradientUnits="userSpaceOnUse"><stop offset="0" stop-color="#1fbf8a"/><stop offset="1" stop-color="#7e45a2"/></radialGradient><radialGradient id="radial-gradient-8" cx="-99.1978" cy="37.1538" r="477.4603" xlink:href="#radial-gradient-7"/><radialGradient id="radial-gradient-9" cx="37.6813" cy="24.0989" r="136.3377" xlink:href="#radial-gradient-7"/><radialGradient id="radial-gradient-10" cx="76.7249" cy="9.6733" r="187.3578" gradientUnits="userSpaceOnUse"><stop offset="0" stop-color="#0ec492"/><stop offset="1" stop-color="#7e45a2"/></radialGradient><radialGradient id="radial-gradient-11" cx="99.1593" cy="147.9231" r="111.199" gradientUnits="userSpaceOnUse"><stop offset="0" stop-color="#55bab8"/><stop offset="0.3059" stop-color="#5dc3b7"/><stop offset="0.7972" stop-color="#75dab3"/><stop offset="1" stop-color="#80e6b1"/></radialGradient><radialGradient id="radial-gradient-12" cx="164.8288" cy="-12.1337" r="88.2215" gradientUnits="userSpaceOnUse"><stop offset="0" stop-color="#65d4b6"/><stop offset="1" stop-color="#57c4c0"/></radialGradient><radialGradient id="radial-gradient-13" cx="193.4492" cy="38.7578" r="48.6295" gradientUnits="userSpaceOnUse"><stop offset="0" stop-color="#609fcf"/><stop offset="1" stop-color="#59c4c0"/></radialGradient><radialGradient id="radial-gradient-14" cx="236.8681" cy="58.243" r="78.6099" gradientUnits="userSpaceOnUse"><stop offset="0" stop-color="#9282c7"/><stop offset="1" stop-color="#59b6c0"/></radialGradient><radialGradient id="radial-gradient-15" cx="16.8242" cy="113.2103" r="184.792" gradientUnits="userSpaceOnUse"><stop offset="0" stop-color="#4ee5b6"/><stop offset="1" stop-color="#8a5dd6"/></radialGradient><radialGradient id="radial-gradient-16" cx="6.956" cy="119.044" r="166.2905" gradientUnits="userSpaceOnUse"><stop offset="0" stop-color="#4eddb6"/><stop offset="1" stop-color="#8360ca"/></radialGradient><radialGradient id="radial-gradient-17" cx="45.6142" cy="-15.3543" r="265.9925" gradientUnits="userSpaceOnUse"><stop offset="0" stop-color="#4dd6be"/><stop offset="0.1924" stop-color="#4fd2be"/><stop offset="0.3875" stop-color="#57c6c0"/><stop offset="0.5838" stop-color="#63b1c1"/><stop offset="0.781" stop-color="#7495c4"/><stop offset="0.9772" stop-color="#8971c8"/><stop offset="1" stop-color="#8c6cc8"/></radialGradient><radialGradient id="radial-gradient-18" cx="244.1868" cy="222.2059" r="179.4429" gradientUnits="userSpaceOnUse"><stop offset="0" stop-color="#924396"/><stop offset="1" stop-color="#5abdea"/></radialGradient><radialGradient id="radial-gradient-19" cx="-7.9451" cy="206.2088" r="138.2808" gradientUnits="userSpaceOnUse"><stop offset="0" stop-color="#4ec1b1"/><stop offset="0.9946" stop-color="#858ce2"/></radialGradient><radialGradient id="radial-gradient-20" cx="217.6813" cy="251.1758" r="127.4927" gradientUnits="userSpaceOnUse"><stop offset="0" stop-color="#714aac"/><stop offset="0.2931" stop-color="#885cb5"/><stop offset="0.7444" stop-color="#a673c1"/><stop offset="1" stop-color="#b17cc6"/></radialGradient><radialGradient id="radial-gradient-21" cx="267.4264" cy="294.6074" r="156.6053" gradientTransform="translate(16.6177 -12.4205) rotate(4.1431)" gradientUnits="userSpaceOnUse"><stop offset="0" stop-color="#6c49c1"/><stop offset="0.2292" stop-color="#6f4dc3"/><stop offset="0.4615" stop-color="#7659c8"/><stop offset="0.6952" stop-color="#836ed0"/><stop offset="0.9286" stop-color="#958adc"/><stop offset="1" stop-color="#9c94e0"/></radialGradient><radialGradient id="radial-gradient-22" cx="197.9011" cy="375" r="184.7468" gradientUnits="userSpaceOnUse"><stop offset="0" stop-color="#9685d4"/><stop offset="0.3109" stop-color="#9286d4"/><stop offset="0.6259" stop-color="#8689d6"/><stop offset="0.942" stop-color="#728dd8"/><stop offset="1" stop-color="#6d8ed9"/></radialGradient><radialGradient id="radial-gradient-23" cx="210.6886" cy="320.1204" r="135.2652" gradientTransform="translate(16.6177 -12.4205) rotate(4.1431)" gradientUnits="userSpaceOnUse"><stop offset="0" stop-color="#9062d4"/><stop offset="0.2373" stop-color="#9066d3"/><stop offset="0.4778" stop-color="#8f72d1"/><stop offset="0.7198" stop-color="#8e87ce"/><stop offset="0.9615" stop-color="#8da3ca"/><stop offset="1" stop-color="#8da8c9"/></radialGradient><radialGradient id="radial-gradient-24" cx="109.8878" cy="409.9331" r="211.1568" gradientTransform="translate(16.6177 -12.4205) rotate(4.1431)" gradientUnits="userSpaceOnUse"><stop offset="0" stop-color="#6b6ad4"/><stop offset="0.2523" stop-color="#6d6ed3"/><stop offset="0.508" stop-color="#747ad1"/><stop offset="0.7644" stop-color="#7f8ece"/><stop offset="1" stop-color="#8da8c9"/></radialGradient><radialGradient id="radial-gradient-25" cx="128.725" cy="556.8081" r="314.906" gradientTransform="translate(16.6177 -12.4205) rotate(4.1431)" gradientUnits="userSpaceOnUse"><stop offset="0" stop-color="#7835c7"/><stop offset="0.18" stop-color="#7739c7"/><stop offset="0.3624" stop-color="#7345c7"/><stop offset="0.5461" stop-color="#6e5ac6"/><stop offset="0.7306" stop-color="#6676c5"/><stop offset="0.9141" stop-color="#5c9ac4"/><stop offset="1" stop-color="#56aec4"/></radialGradient><radialGradient id="radial-gradient-26" cx="129.2594" cy="356.6255" r="118.0265" gradientTransform="translate(16.6177 -12.4205) rotate(4.1431)" gradientUnits="userSpaceOnUse"><stop offset="0" stop-color="#5a43c1"/><stop offset="0.2151" stop-color="#5e47c2"/><stop offset="0.4332" stop-color="#6a52c7"/><stop offset="0.6526" stop-color="#7f66ce"/><stop offset="0.8718" stop-color="#9b81d9"/><stop offset="1" stop-color="#af94e0"/></radialGradient><radialGradient id="radial-gradient-27" cx="64.021" cy="263.2912" r="159.2193" gradientTransform="translate(16.6177 -12.4205) rotate(4.1431)" gradientUnits="userSpaceOnUse"><stop offset="0" stop-color="#5a49c1"/><stop offset="0.2292" stop-color="#5e4dc3"/><stop offset="0.4615" stop-color="#6859c8"/><stop offset="0.6952" stop-color="#7a6ed0"/><stop offset="0.9286" stop-color="#938adc"/><stop offset="1" stop-color="#9c94e0"/></radialGradient><radialGradient id="radial-gradient-28" cx="76.4531" cy="22.4321" r="207.9767" gradientUnits="userSpaceOnUse"><stop offset="0" stop-color="#4dd0b5"/><stop offset="0.2231" stop-color="#50cab8"/><stop offset="0.5299" stop-color="#59b8c0"/><stop offset="0.8838" stop-color="#679bcd"/><stop offset="1" stop-color="#6d90d2"/></radialGradient><radialGradient id="radial-gradient-29" cx="79.0001" cy="86.4815" r="119.0866" gradientUnits="userSpaceOnUse"><stop offset="0" stop-color="#4dbcbd"/><stop offset="0.2544" stop-color="#50b8bf"/><stop offset="0.5122" stop-color="#59acc4"/><stop offset="0.7706" stop-color="#6898cd"/><stop offset="1" stop-color="#7b7fd7"/></radialGradient><radialGradient id="radial-gradient-30" cx="31.3516" cy="218.1791" r="99.4551" gradientUnits="userSpaceOnUse"><stop offset="0" stop-color="#4ec1b1"/><stop offset="0.9946" stop-color="#818cd3"/></radialGradient><radialGradient id="radial-gradient-31" cx="23.3297" cy="139.9479" r="122.8851" gradientUnits="userSpaceOnUse"><stop offset="0" stop-color="#4edd9d"/><stop offset="1" stop-color="#9183d6"/></radialGradient><radialGradient id="radial-gradient-32" cx="27" cy="158.5154" r="139.6697" gradientUnits="userSpaceOnUse"><stop offset="0" stop-color="#60d0b6"/><stop offset="0.994" stop-color="#825dd6"/></radialGradient></defs><g id="right-bottom"><g id="inner"><path d="M23,204q-3.5,19.5-7,39L7,260q-3.5,22.5-7,45l31.239,76.333,39.52,21.9125q55.1142-49.8,110.2282-99.5993,7.4943-25.2257,14.9888-50.4513,8.4252-10.678,16.85-21.356,6.76-19.25,13.5193-38.5-3.83-17.1633-7.66-34.3266Q213.3425,121.5063,208,84q-11.5-17.5-23-35L150,19,112,1,56,21,30,59.4615q-8,38-16,76Z" style="fill:url(#radial-gradient)"/><g id="shapes"><path d="M31,381l16-4,24,26Z" style="fill:url(#radial-gradient-2)"/><path d="M0,305l33-6q7,39,14,78l-16,4Z" style="fill:url(#radial-gradient-3)"/><path d="M4,264l40-11q-5.5,23-11,46L0,305Q2,284.5,4,264Z" style="fill:url(#radial-gradient-4)"/><path d="M55,235l-39,9L4,264l40-10Z" style="fill:url(#radial-gradient-5)"/><path d="M64,198l-41,6q-3.5,20-7,40l39-9Z" style="fill:url(#radial-gradient-6)"/><path d="M14,135l37-15q6.5,39,13,78l-41,6Z" style="fill:url(#radial-gradient-7)"/><path d="M30,59,59,49q-4,35.5-8,71L14,135Q22,97,30,59Z" style="fill:url(#radial-gradient-8)"/><path d="M56,21,30,59l28-9L71,23Z" style="fill:url(#radial-gradient-9)"/><path d="M56,21,112,0,71,23Z" style="fill:url(#radial-gradient-10)"/></g></g><g id="_Layer_" data-name="&lt;Layer&gt;"><path d="M71,23l3,3,9,103-34-9q5-35.2692,10-70.5385Z" style="fill:url(#radial-gradient-11)"/><path d="M112,0l26,25,14-7Z" style="fill:url(#radial-gradient-12)"/><path d="M152,18l-14,5,45,38,3-15Z" style="fill:url(#radial-gradient-13)"/><path d="M211,83q-12.5-18.5-25-37-2.5,7.5-5,15,5.5,5.5,11,11Z" style="fill:url(#radial-gradient-14)"/><path d="M82,128l-33-8q14,29.5,28,59l33-9Z" style="fill:url(#radial-gradient-15)"/><path d="M103,169l-22,8,13,6,52,16Z" style="fill:url(#radial-gradient-16)"/><path d="M227.3574,193.01,224,193l-57-65A777.1047,777.1047,0,0,1,115,9q-1.5336-4.5079-3-9l33,21,39,33,27,29Q219.1788,138.005,227.3574,193.01Z" style="fill:url(#radial-gradient-17)"/><path d="M213,232q7.1787-19.495,14.3574-38.99Q197.6788,160.005,168,127l-10,9-18,54,3,10Z" style="fill:url(#radial-gradient-18)"/><path d="M142,197l2,8q-2,15.5-4,31L33,299l12-48q5-8.2692,10-16.5385L61,230l68-30Z" style="fill:url(#radial-gradient-19)"/><path d="M195.9033,253.522,213,232l-71-35,3,8q23,23,46,46Z" style="fill:url(#radial-gradient-20)"/><path d="M142,197q-4,20-8,40,1,3.5,2,7l42,58,3.2474,1.5939q7.328-25.0359,14.6559-50.0719Z" style="fill:url(#radial-gradient-21)"/><path d="M134,237,33,299l88,25q7-41.5,14-83Z" style="fill:url(#radial-gradient-22)"/><path d="M134,237q-7,45-14,90l49-17,12.2474-6.4061Z" style="fill:url(#radial-gradient-23)"/><path d="M121,322,91,360,43,312,33,299Z" style="fill:url(#radial-gradient-24)"/><path d="M33,299l59,60q-9.5,20.5-19,41l-2,3a581.22,581.22,0,0,1-29-73Q36.8922,314.0772,33,299Z" style="fill:url(#radial-gradient-25)"/><path d="M46.561,377.43,71,403,33,299Q39.78,338.215,46.561,377.43Z" style="fill:url(#radial-gradient-26)"/><path d="M181.2205,303.9666,121,322,91,358,71,403Z" style="fill:url(#radial-gradient-27)"/><path d="M112,0,71,23q5.5,52.5,11,105l72,4,14-4Z" style="fill:url(#radial-gradient-28)"/><path d="M82,128l18,42,42,27q13-35,26-70Z" style="fill:url(#radial-gradient-29)"/><path d="M64,198l-9,36.4615L142,197Z" style="fill:url(#radial-gradient-30)"/><path d="M64,198,49,119l32,58Z" style="fill:url(#radial-gradient-31)"/><path d="M81,177l61,20-78,1Z" style="fill:url(#radial-gradient-32)"/></g><g id="highlights" style="opacity:0.5"><path d="M164,125,126,26l43,100,45,52-46-47-18,47,15-49-31-2Z" style="fill:#f2f2f2"/><path d="M131,251l-12,69-37-8,36,11-16,22,20-22,36-12-36,9Z" style="fill:#f2f2f2"/></g></g></svg>