<svg xmlns="http://www.w3.org/2000/svg" xmlns:xlink="http://www.w3.org/1999/xlink" viewBox="0 0 600 1000"><defs><radialGradient id="radial-gradient" cx="381.9894" cy="379.0785" r="293.2607" gradientTransform="matrix(-0.0331, -0.9995, 0.9995, -0.0331, -205.7353, 802.7104)" gradientUnits="userSpaceOnUse"><stop offset="0" stop-color="#00b5af"/><stop offset="0.5826" stop-color="#2ad5a1"/><stop offset="1" stop-color="#43e899"/></radialGradient><radialGradient id="radial-gradient-2" cx="388.7569" cy="377.4172" r="329.1126" gradientTransform="matrix(0.9995, -0.0331, 0.0331, 0.9995, -14.6958, 9.5377)" xlink:href="#radial-gradient"/><radialGradient id="radial-gradient-3" cx="490.3846" cy="431.3414" r="218.6382" gradientTransform="matrix(-0.0331, -0.9995, 0.9995, -0.0331, -205.7353, 802.7104)" gradientUnits="userSpaceOnUse"><stop offset="0" stop-color="#ffff5e"/><stop offset="0.4925" stop-color="#99f77a"/><stop offset="0.8381" stop-color="#57f18c"/><stop offset="1" stop-color="#3eef93"/></radialGradient><radialGradient id="radial-gradient-4" cx="503.2165" cy="484.3601" r="126.1215" gradientTransform="matrix(-0.0331, -0.9995, 0.9995, -0.0331, -205.7353, 802.7104)" gradientUnits="userSpaceOnUse"><stop offset="0" stop-color="#ffff40"/><stop offset="0.4925" stop-color="#99f76c"/><stop offset="0.8381" stop-color="#57f188"/><stop offset="1" stop-color="#3eef93"/></radialGradient><radialGradient id="radial-gradient-5" cx="695.801" cy="441.5395" r="128.852" gradientTransform="matrix(-0.0331, -0.9995, 0.9995, -0.0331, -205.7353, 802.7104)" gradientUnits="userSpaceOnUse"><stop offset="0" stop-color="#fcee21"/><stop offset="0.4677" stop-color="#a0f576"/><stop offset="0.8301" stop-color="#5ef9b3"/><stop offset="1" stop-color="#45fbca"/></radialGradient><radialGradient id="radial-gradient-6" cx="260.4815" cy="242.0944" r="148.949" gradientTransform="matrix(0.9995, -0.0331, 0.0331, 0.9995, -14.6958, 9.5377)" gradientUnits="userSpaceOnUse"><stop offset="0" stop-color="#ffee60"/><stop offset="0.4754" stop-color="#a0f596"/><stop offset="0.8326" stop-color="#5ef9bc"/><stop offset="1" stop-color="#45fbca"/></radialGradient><radialGradient id="radial-gradient-7" cx="448.5936" cy="231.2467" r="170.418" gradientTransform="matrix(0.9995, -0.0331, 0.0331, 0.9995, -14.6958, 9.5377)" gradientUnits="userSpaceOnUse"><stop offset="0" stop-color="#00c9f4"/><stop offset="0.4345" stop-color="#50dac4"/><stop offset="0.8196" stop-color="#92e99c"/><stop offset="1" stop-color="#abee8d"/></radialGradient><radialGradient id="radial-gradient-8" cx="229.7033" cy="269.1758" r="152.3282" gradientUnits="userSpaceOnUse"><stop offset="0" stop-color="#c8e0ab"/><stop offset="0.0649" stop-color="#c1e1ab"/><stop offset="0.7003" stop-color="#80eca7"/><stop offset="1" stop-color="#67f0a5"/></radialGradient><radialGradient id="radial-gradient-9" cx="243.1501" cy="94.5897" r="70.0686" gradientTransform="matrix(0.9995, -0.0331, 0.0331, 0.9995, -14.6958, 9.5377)" gradientUnits="userSpaceOnUse"><stop offset="0" stop-color="#64f968"/><stop offset="0.1919" stop-color="#6af66f"/><stop offset="1" stop-color="#7fe988"/></radialGradient><radialGradient id="radial-gradient-10" cx="438.3322" cy="116.1168" r="133.3504" gradientTransform="matrix(0.9995, -0.0331, 0.0331, 0.9995, -14.6958, 9.5377)" gradientUnits="userSpaceOnUse"><stop offset="0" stop-color="#00b5be"/><stop offset="0.5826" stop-color="#2ad5a8"/><stop offset="1" stop-color="#43e89a"/></radialGradient><radialGradient id="radial-gradient-11" cx="465.7073" cy="211.2194" r="191.039" gradientTransform="matrix(0.9995, -0.0331, 0.0331, 0.9995, -14.6958, 9.5377)" gradientUnits="userSpaceOnUse"><stop offset="0" stop-color="#00b5bb"/><stop offset="0.5826" stop-color="#2ad7b1"/><stop offset="1" stop-color="#43ebab"/></radialGradient><radialGradient id="radial-gradient-12" cx="427.7631" cy="253.9889" r="140.2214" gradientTransform="matrix(0.9995, -0.0331, 0.0331, 0.9995, -14.6958, 9.5377)" gradientUnits="userSpaceOnUse"><stop offset="0" stop-color="#00c4ba"/><stop offset="0.5826" stop-color="#2adaa6"/><stop offset="1" stop-color="#43e89a"/></radialGradient><radialGradient id="radial-gradient-13" cx="454.4667" cy="350.2106" r="287.3198" gradientTransform="matrix(0.9995, -0.0331, 0.0331, 0.9995, -14.6958, 9.5377)" gradientUnits="userSpaceOnUse"><stop offset="0" stop-color="#009cd1"/><stop offset="0.4345" stop-color="#50cab7"/><stop offset="0.8196" stop-color="#92efa1"/><stop offset="1" stop-color="#abfd99"/></radialGradient><radialGradient id="radial-gradient-14" cx="338.271" cy="185.9829" r="65.2833" gradientTransform="matrix(0.9995, -0.0331, 0.0331, 0.9995, -14.6958, 9.5377)" gradientUnits="userSpaceOnUse"><stop offset="0" stop-color="#a6e0c0"/><stop offset="0.6591" stop-color="#8ff285"/><stop offset="1" stop-color="#85fa6c"/></radialGradient><radialGradient id="radial-gradient-15" cx="364.209" cy="239.0686" r="240.1988" gradientTransform="matrix(0.9995, -0.0331, 0.0331, 0.9995, -14.6958, 9.5377)" gradientUnits="userSpaceOnUse"><stop offset="0" stop-color="#00ceaf"/><stop offset="0.5826" stop-color="#06a4aa"/><stop offset="1" stop-color="#0a8ba7"/></radialGradient><radialGradient id="radial-gradient-16" cx="434.2814" cy="263.6693" r="129.0063" gradientTransform="matrix(0.9995, -0.0331, 0.0331, 0.9995, -14.6958, 9.5377)" gradientUnits="userSpaceOnUse"><stop offset="0" stop-color="#00c4ba"/><stop offset="0.1848" stop-color="#17c9b7"/><stop offset="0.7386" stop-color="#58d9ad"/><stop offset="1" stop-color="#71dfa9"/></radialGradient><radialGradient id="radial-gradient-17" cx="495.7835" cy="301.6985" r="148.1997" gradientTransform="matrix(0.9995, -0.0331, 0.0331, 0.9995, -14.6958, 9.5377)" gradientUnits="userSpaceOnUse"><stop offset="0" stop-color="#04a2c3"/><stop offset="0.6135" stop-color="#2dd2b3"/><stop offset="1" stop-color="#43ebab"/></radialGradient><radialGradient id="radial-gradient-18" cx="521.3267" cy="297.4402" r="184.0421" xlink:href="#radial-gradient-10"/><radialGradient id="radial-gradient-19" cx="416.2433" cy="355.7183" r="219.9026" gradientTransform="matrix(0.9995, -0.0331, 0.0331, 0.9995, -14.6958, 9.5377)" gradientUnits="userSpaceOnUse"><stop offset="0" stop-color="#4db4bd"/><stop offset="0.209" stop-color="#51b2be"/><stop offset="0.4209" stop-color="#5daec1"/><stop offset="0.6341" stop-color="#72a5c6"/><stop offset="0.8469" stop-color="#8e9acc"/><stop offset="1" stop-color="#a790d2"/></radialGradient><radialGradient id="radial-gradient-20" cx="526.8879" cy="295.2038" r="121.6223" gradientTransform="matrix(0.9995, -0.0331, 0.0331, 0.9995, -14.6958, 9.5377)" gradientUnits="userSpaceOnUse"><stop offset="0" stop-color="#76eaa9"/><stop offset="1" stop-color="#6772ff"/></radialGradient><radialGradient id="radial-gradient-21" cx="498.7142" cy="216.9148" r="171.639" gradientTransform="matrix(0.9995, -0.0331, 0.0331, 0.9995, -14.6958, 9.5377)" gradientUnits="userSpaceOnUse"><stop offset="0" stop-color="#4dc6bd"/><stop offset="0.2204" stop-color="#51c3be"/><stop offset="0.4438" stop-color="#5dbabf"/><stop offset="0.6687" stop-color="#72aac2"/><stop offset="0.8932" stop-color="#8e94c7"/><stop offset="1" stop-color="#9e88c9"/></radialGradient><radialGradient id="radial-gradient-22" cx="278.8896" cy="341.5012" r="506.6576" gradientTransform="translate(44.8905 -30.0621) rotate(4.1431)" gradientUnits="userSpaceOnUse"><stop offset="0" stop-color="#1fbf8a"/><stop offset="0.239" stop-color="#389f90"/><stop offset="0.756" stop-color="#6a5e9d"/><stop offset="1" stop-color="#7e45a2"/></radialGradient><radialGradient id="radial-gradient-23" cx="322.2412" cy="476.1148" r="148.1475" gradientTransform="translate(44.8905 -30.0621) rotate(4.1431)" gradientUnits="userSpaceOnUse"><stop offset="0" stop-color="#4dc6bd"/><stop offset="0.1915" stop-color="#4bc2be"/><stop offset="0.3856" stop-color="#44b6c2"/><stop offset="0.581" stop-color="#38a1c9"/><stop offset="0.7773" stop-color="#2785d2"/><stop offset="0.9726" stop-color="#1261dd"/><stop offset="1" stop-color="#0f5bdf"/></radialGradient><radialGradient id="radial-gradient-24" cx="314.9812" cy="417.0151" r="410.6339" gradientTransform="translate(42.1953 -27.9534) rotate(3.7987)" gradientUnits="userSpaceOnUse"><stop offset="0" stop-color="#76eaa9"/><stop offset="1" stop-color="#db54ff"/></radialGradient><radialGradient id="radial-gradient-25" cx="366.4974" cy="469.9507" r="261.1366" gradientTransform="translate(44.8905 -30.0621) rotate(4.1431)" gradientUnits="userSpaceOnUse"><stop offset="0" stop-color="#4ee3db"/><stop offset="1" stop-color="#d370c5"/></radialGradient><radialGradient id="radial-gradient-26" cx="684.3511" cy="367.8511" r="287.498" gradientTransform="translate(44.8905 -30.0621) rotate(4.1431)" gradientUnits="userSpaceOnUse"><stop offset="0" stop-color="#4dced4"/><stop offset="0.2151" stop-color="#50cad3"/><stop offset="0.4332" stop-color="#5abed2"/><stop offset="0.6526" stop-color="#6ba9cf"/><stop offset="0.8718" stop-color="#828dcb"/><stop offset="1" stop-color="#9379c8"/></radialGradient><radialGradient id="radial-gradient-27" cx="538.7701" cy="731.7659" r="223.1252" gradientTransform="translate(44.8905 -30.0621) rotate(4.1431)" gradientUnits="userSpaceOnUse"><stop offset="0" stop-color="#925396"/><stop offset="0.1897" stop-color="#8e5698"/><stop offset="0.382" stop-color="#82609f"/><stop offset="0.5756" stop-color="#6d70aa"/><stop offset="0.7701" stop-color="#5187ba"/><stop offset="0.9636" stop-color="#2da5cf"/><stop offset="1" stop-color="#25abd3"/></radialGradient><radialGradient id="radial-gradient-28" cx="386.4734" cy="522.6815" r="184.8223" gradientTransform="translate(44.8905 -30.0621) rotate(4.1431)" gradientUnits="userSpaceOnUse"><stop offset="0" stop-color="#4dafd2"/><stop offset="0.2204" stop-color="#51aed2"/><stop offset="0.4438" stop-color="#5dadd0"/><stop offset="0.6687" stop-color="#72aace"/><stop offset="0.8932" stop-color="#8ea5cb"/><stop offset="1" stop-color="#9ea3c9"/></radialGradient><radialGradient id="radial-gradient-29" cx="549.7412" cy="666.3731" r="137.0425" gradientTransform="translate(44.8905 -30.0621) rotate(4.1431)" gradientUnits="userSpaceOnUse"><stop offset="0" stop-color="#804e95"/><stop offset="0.2151" stop-color="#815297"/><stop offset="0.4332" stop-color="#865e9f"/><stop offset="0.6526" stop-color="#8d73ab"/><stop offset="0.8718" stop-color="#978fbd"/><stop offset="1" stop-color="#9ea3c9"/></radialGradient><radialGradient id="radial-gradient-30" cx="603.939" cy="707.5159" r="156.7762" gradientTransform="translate(44.8905 -30.0621) rotate(4.1431)" gradientUnits="userSpaceOnUse"><stop offset="0" stop-color="#6c49c1"/><stop offset="0.2292" stop-color="#6f4dc3"/><stop offset="0.4615" stop-color="#7659c8"/><stop offset="0.6952" stop-color="#836ed0"/><stop offset="0.9286" stop-color="#958adc"/><stop offset="1" stop-color="#9c94e0"/></radialGradient><radialGradient id="radial-gradient-31" cx="607.5594" cy="845.1862" r="264.1997" gradientTransform="translate(44.8905 -30.0621) rotate(4.1431)" gradientUnits="userSpaceOnUse"><stop offset="0" stop-color="#6b78d4"/><stop offset="0.2871" stop-color="#6e7cd3"/><stop offset="0.5781" stop-color="#7688d0"/><stop offset="0.8699" stop-color="#859ccc"/><stop offset="1" stop-color="#8da8c9"/></radialGradient><radialGradient id="radial-gradient-32" cx="546.972" cy="728.8786" r="133.2882" xlink:href="#radial-gradient-31"/><radialGradient id="radial-gradient-33" cx="439.1608" cy="822.8713" r="194.3989" xlink:href="#radial-gradient-31"/><radialGradient id="radial-gradient-34" cx="464.9465" cy="964.2483" r="303.2017" gradientTransform="translate(44.8905 -30.0621) rotate(4.1431)" gradientUnits="userSpaceOnUse"><stop offset="0" stop-color="#7835c7"/><stop offset="0.18" stop-color="#7639c8"/><stop offset="0.3624" stop-color="#7145c9"/><stop offset="0.5461" stop-color="#695acc"/><stop offset="0.7306" stop-color="#5d76d0"/><stop offset="0.9141" stop-color="#4e9ad4"/><stop offset="1" stop-color="#46aed7"/></radialGradient><radialGradient id="radial-gradient-35" cx="331.8708" cy="770.0409" r="122.5714" gradientTransform="translate(44.8905 -30.0621) rotate(4.1431)" gradientUnits="userSpaceOnUse"><stop offset="0" stop-color="#5a43c1"/><stop offset="0.2204" stop-color="#5d47c3"/><stop offset="0.4438" stop-color="#6653c7"/><stop offset="0.6687" stop-color="#7668cf"/><stop offset="0.8932" stop-color="#8b84da"/><stop offset="1" stop-color="#9794e0"/></radialGradient><radialGradient id="radial-gradient-36" cx="400.196" cy="676.1442" r="159.5913" gradientTransform="translate(44.8905 -30.0621) rotate(4.1431)" gradientUnits="userSpaceOnUse"><stop offset="0" stop-color="#5a49c1"/><stop offset="0.2292" stop-color="#5e4dc3"/><stop offset="0.4615" stop-color="#6859c8"/><stop offset="0.6952" stop-color="#7a6ed0"/><stop offset="0.9286" stop-color="#938adc"/><stop offset="1" stop-color="#9c94e0"/></radialGradient><radialGradient id="radial-gradient-37" cx="362.868" cy="427.2712" r="154.8917" gradientTransform="translate(44.8905 -30.0621) rotate(4.1431)" gradientUnits="userSpaceOnUse"><stop offset="0" stop-color="#4dc6bd"/><stop offset="0.2705" stop-color="#4fc2bf"/><stop offset="0.5446" stop-color="#57b6c3"/><stop offset="0.8196" stop-color="#63a2cb"/><stop offset="1" stop-color="#6d90d2"/></radialGradient><radialGradient id="radial-gradient-38" cx="276.0246" cy="558.928" r="232.7088" gradientTransform="translate(44.8905 -30.0621) rotate(4.1431)" gradientUnits="userSpaceOnUse"><stop offset="0" stop-color="#4dc6bd"/><stop offset="0.2356" stop-color="#50c2be"/><stop offset="0.4744" stop-color="#58b6c3"/><stop offset="0.7146" stop-color="#65a1ca"/><stop offset="0.9547" stop-color="#7785d5"/><stop offset="1" stop-color="#7b7fd7"/></radialGradient><radialGradient id="radial-gradient-39" cx="22.6639" cy="224.6361" r="350.1404" gradientTransform="translate(-65.3503 41.2562) rotate(-6.0212)" gradientUnits="userSpaceOnUse"><stop offset="0" stop-color="#32bf53"/><stop offset="0.5589" stop-color="#489f79"/><stop offset="1" stop-color="#568992"/></radialGradient><radialGradient id="radial-gradient-40" cx="72.477" cy="267.8708" r="140.282" gradientTransform="matrix(0.9995, -0.0331, 0.0331, 0.9995, -14.6958, 9.5377)" gradientUnits="userSpaceOnUse"><stop offset="0" stop-color="#ffff40"/><stop offset="0.0381" stop-color="#f6fe44"/><stop offset="0.5148" stop-color="#8ff171"/><stop offset="0.8452" stop-color="#4de88e"/><stop offset="1" stop-color="#34e599"/></radialGradient><radialGradient id="radial-gradient-41" cx="341.1439" cy="365.9002" r="172.6737" gradientTransform="matrix(0.999, -0.044, 0.044, 0.999, -18.3079, 12.5029)" gradientUnits="userSpaceOnUse"><stop offset="0" stop-color="#00c9f4"/><stop offset="0.1782" stop-color="#16d0e3"/><stop offset="0.7365" stop-color="#57e6af"/><stop offset="1" stop-color="#70ee9b"/></radialGradient><radialGradient id="radial-gradient-42" cx="307.8767" cy="441.6185" r="298.8348" gradientTransform="matrix(0.9995, -0.0331, 0.0331, 0.9995, -14.6958, 9.5377)" gradientUnits="userSpaceOnUse"><stop offset="0" stop-color="#00b5af"/><stop offset="0.2712" stop-color="#26c4a8"/><stop offset="0.7662" stop-color="#67de9d"/><stop offset="1" stop-color="#80e899"/></radialGradient><radialGradient id="radial-gradient-43" cx="268.5917" cy="579.0994" r="242.9972" gradientTransform="matrix(0.9995, -0.0331, 0.0331, 0.9995, -14.6958, 9.5377)" gradientUnits="userSpaceOnUse"><stop offset="0" stop-color="#00b5be"/><stop offset="0.0194" stop-color="#02b5bd"/><stop offset="0.6858" stop-color="#43bb95"/><stop offset="1" stop-color="#5cbd85"/></radialGradient><radialGradient id="radial-gradient-44" cx="268.5917" cy="569.6049" r="325.2621" gradientTransform="matrix(0.9995, -0.0331, 0.0331, 0.9995, -14.6958, 9.5377)" gradientUnits="userSpaceOnUse"><stop offset="0" stop-color="#6ae879"/><stop offset="1" stop-color="#6f9ed8"/></radialGradient><radialGradient id="radial-gradient-45" cx="221.1193" cy="590.1763" r="157.3846" gradientTransform="matrix(0.9995, -0.0331, 0.0331, 0.9995, -14.6958, 9.5377)" gradientUnits="userSpaceOnUse"><stop offset="0" stop-color="#168492"/><stop offset="0.6627" stop-color="#52bb9e"/><stop offset="1" stop-color="#6bd2a3"/></radialGradient><radialGradient id="radial-gradient-46" cx="174.9828" cy="483.4361" r="85.4657" gradientTransform="matrix(0.9995, -0.0331, 0.0331, 0.9995, -14.6958, 9.5377)" gradientUnits="userSpaceOnUse"><stop offset="0" stop-color="#78b8ae"/><stop offset="0.2812" stop-color="#74b8af"/><stop offset="0.5662" stop-color="#68b9b2"/><stop offset="0.8521" stop-color="#54bab7"/><stop offset="1" stop-color="#46bbbb"/></radialGradient><radialGradient id="radial-gradient-47" cx="381.8403" cy="409.4221" r="413.6089" gradientTransform="matrix(0.9995, -0.0331, 0.0331, 0.9995, -14.6958, 9.5377)" gradientUnits="userSpaceOnUse"><stop offset="0" stop-color="#00b5be"/><stop offset="0.1723" stop-color="#2ebfbd"/><stop offset="0.5821" stop-color="#95d5ba"/><stop offset="0.8667" stop-color="#d7e3b9"/><stop offset="1" stop-color="#f0e8b8"/></radialGradient><radialGradient id="radial-gradient-48" cx="318.4377" cy="518.1764" r="269.0395" gradientTransform="matrix(0.9995, -0.0331, 0.0331, 0.9995, -14.6958, 9.5377)" gradientUnits="userSpaceOnUse"><stop offset="0" stop-color="#00b59e"/><stop offset="0.0118" stop-color="#03b69e"/><stop offset="0.5016" stop-color="#6ad1ac"/><stop offset="0.841" stop-color="#ace1b5"/><stop offset="1" stop-color="#c5e8b8"/></radialGradient><radialGradient id="radial-gradient-49" cx="115.171" cy="200.9522" r="79.4734" xlink:href="#radial-gradient-11"/><radialGradient id="radial-gradient-50" cx="52.8791" cy="585.3736" r="467.4779" gradientUnits="userSpaceOnUse"><stop offset="0" stop-color="#32bf53"/><stop offset="0.3524" stop-color="#4c8782"/><stop offset="0.7922" stop-color="#6946b9"/><stop offset="1" stop-color="#752dce"/></radialGradient><radialGradient id="radial-gradient-51" cx="-37.2227" cy="657.7537" r="222.6935" gradientTransform="matrix(0.9995, -0.0331, 0.0331, 0.9995, -14.6958, 9.5377)" gradientUnits="userSpaceOnUse"><stop offset="0" stop-color="#b6e473"/><stop offset="1" stop-color="#3fbfc4"/></radialGradient><radialGradient id="radial-gradient-52" cx="129.6066" cy="594.2996" r="200.6376" gradientTransform="matrix(0.9995, -0.0331, 0.0331, 0.9995, -14.6958, 9.5377)" gradientUnits="userSpaceOnUse"><stop offset="0" stop-color="#76eaa9"/><stop offset="1" stop-color="#7388ff"/></radialGradient><radialGradient id="radial-gradient-53" cx="107.7417" cy="699.5946" r="135.308" gradientTransform="matrix(0.9995, -0.0331, 0.0331, 0.9995, -14.6958, 9.5377)" gradientUnits="userSpaceOnUse"><stop offset="0" stop-color="#78c6bd"/><stop offset="0.2356" stop-color="#77c2c1"/><stop offset="0.4744" stop-color="#74b6cc"/><stop offset="0.7146" stop-color="#6fa1df"/><stop offset="0.9547" stop-color="#6885f9"/><stop offset="1" stop-color="#667fff"/></radialGradient><radialGradient id="radial-gradient-54" cx="73.8574" cy="735.5281" r="156.5268" gradientTransform="matrix(0.9995, -0.0331, 0.0331, 0.9995, -14.6958, 9.5377)" gradientUnits="userSpaceOnUse"><stop offset="0" stop-color="#2dc6bd"/><stop offset="0.1933" stop-color="#31c4be"/><stop offset="0.3894" stop-color="#3dbec0"/><stop offset="0.5866" stop-color="#52b3c4"/><stop offset="0.7848" stop-color="#6ea5ca"/><stop offset="0.9819" stop-color="#9292d1"/><stop offset="1" stop-color="#9690d2"/></radialGradient><radialGradient id="radial-gradient-55" cx="228.6228" cy="749.5337" r="126.0381" gradientTransform="matrix(0.9995, -0.0331, 0.0331, 0.9995, -14.6958, 9.5377)" gradientUnits="userSpaceOnUse"><stop offset="0" stop-color="#c4aaea"/><stop offset="0.2501" stop-color="#a2b6e0"/><stop offset="0.7595" stop-color="#61cccd"/><stop offset="1" stop-color="#48d5c5"/></radialGradient><radialGradient id="radial-gradient-56" cx="127.8758" cy="734.237" r="68.5713" gradientTransform="matrix(0.9995, -0.0331, 0.0331, 0.9995, -14.6958, 9.5377)" gradientUnits="userSpaceOnUse"><stop offset="0" stop-color="#4dc6bd"/><stop offset="0.2373" stop-color="#51c4c1"/><stop offset="0.4778" stop-color="#5dbecc"/><stop offset="0.7198" stop-color="#72b4df"/><stop offset="0.9615" stop-color="#8ea7fa"/><stop offset="1" stop-color="#93a4ff"/></radialGradient><radialGradient id="radial-gradient-57" cx="93.1747" cy="758.492" r="157.2812" gradientTransform="matrix(0.9995, -0.0331, 0.0331, 0.9995, -14.6958, 9.5377)" gradientUnits="userSpaceOnUse"><stop offset="0" stop-color="#4dc6bd"/><stop offset="0.1838" stop-color="#4ec2bd"/><stop offset="0.3702" stop-color="#52b6bf"/><stop offset="0.5578" stop-color="#58a1c1"/><stop offset="0.7463" stop-color="#6185c4"/><stop offset="0.9337" stop-color="#6c61c7"/><stop offset="1" stop-color="#7052c9"/></radialGradient><radialGradient id="radial-gradient-58" cx="106.7404" cy="788.4418" r="116.1209" gradientTransform="matrix(0.9995, -0.0331, 0.0331, 0.9995, -14.6958, 9.5377)" gradientUnits="userSpaceOnUse"><stop offset="0" stop-color="#79c6bd"/><stop offset="0.1838" stop-color="#79c2bd"/><stop offset="0.3702" stop-color="#78b6bf"/><stop offset="0.5578" stop-color="#76a1c1"/><stop offset="0.7463" stop-color="#7485c4"/><stop offset="0.9337" stop-color="#7161c7"/><stop offset="1" stop-color="#7052c9"/></radialGradient><radialGradient id="radial-gradient-59" cx="122.7203" cy="721.9818" r="255.5485" gradientUnits="userSpaceOnUse"><stop offset="0" stop-color="#32bf94"/><stop offset="0.1848" stop-color="#45a894"/><stop offset="0.7386" stop-color="#796792"/><stop offset="1" stop-color="#8e4e92"/></radialGradient><radialGradient id="radial-gradient-60" cx="354.5266" cy="894.1487" r="88.9369" gradientTransform="matrix(0.9994, -0.0338, 0.0338, 0.9994, -15.1671, 9.7486)" gradientUnits="userSpaceOnUse"><stop offset="0" stop-color="#7f85aa"/><stop offset="0.2373" stop-color="#8085ae"/><stop offset="0.4778" stop-color="#8284ba"/><stop offset="0.7198" stop-color="#8682cf"/><stop offset="0.9615" stop-color="#8b7feb"/><stop offset="1" stop-color="#8c7ff0"/></radialGradient><radialGradient id="radial-gradient-61" cx="249.6243" cy="868.0308" r="123.1424" gradientTransform="matrix(0.9995, -0.0331, 0.0331, 0.9995, -14.6958, 9.5377)" gradientUnits="userSpaceOnUse"><stop offset="0" stop-color="#6b78d4"/><stop offset="0.2757" stop-color="#6e74d3"/><stop offset="0.5552" stop-color="#7668d1"/><stop offset="0.8354" stop-color="#8354cc"/><stop offset="1" stop-color="#8d44c9"/></radialGradient><radialGradient id="radial-gradient-62" cx="117.6809" cy="887.8742" r="249.9891" gradientTransform="matrix(0.9995, -0.0331, 0.0331, 0.9995, -14.6958, 9.5377)" gradientUnits="userSpaceOnUse"><stop offset="0" stop-color="#787dd4"/><stop offset="0.3109" stop-color="#7c7dd3"/><stop offset="0.6259" stop-color="#887dd0"/><stop offset="0.942" stop-color="#9c7eca"/><stop offset="1" stop-color="#a17ec9"/></radialGradient><radialGradient id="radial-gradient-63" cx="403.5604" cy="956.0276" r="183.1017" gradientUnits="userSpaceOnUse"><stop offset="0" stop-color="#7f85aa"/><stop offset="0.2902" stop-color="#8283ae"/><stop offset="0.5843" stop-color="#8a7fba"/><stop offset="0.8792" stop-color="#9877ce"/><stop offset="1" stop-color="#9f73d9"/></radialGradient></defs><g id="scroll"><g id="top"><path d="M304.7265,384.2645q-14.0851-32.5516-28.17-65.1032-7.9891-29.7519-15.9784-59.5037l-7.3869-41.7784-26.1384-64.17L299.7007,51.2484l55.06,236.8945Q329.7439,336.2037,304.7265,384.2645Z" style="fill:url(#radial-gradient)"/><path d="M226.9862,151.71l5.9669,23.4026L253.366,217.46q3.71,21.3889,7.42,42.7779,7.9728,29.2521,15.9453,58.5042l28.3671,63.7952q32.9295-59.4721,65.8591-118.9444l9.372-49.3372,5.0171-43.3035q-19.4417-33.6117-38.8831-67.2234l-47.141-52.4129Z" style="fill:url(#radial-gradient-2)"/><g id="shapes_copy" data-name="shapes copy"><path d="M226.503,152.2266q3.225,11.4432,6.45,22.8863l51.8924,56.3132,14.727-8.4921q4.4344-17.1562,8.8691-34.3124Z" style="fill:url(#radial-gradient-3)"/><path d="M226.503,152.2266l74.651-2.385q4.16,19.8732,8.32,39.7463Z" style="fill:url(#radial-gradient-4)"/><path d="M227.5025,152.1935l73.6515-2.3519q3.551-13.6251,7.1018-27.25-4.5192-35.4135-9.0383-70.827Z" style="fill:url(#radial-gradient-5)"/><path d="M298.5638,303.9245q-6.8591-36.2493-13.7183-72.4984l14.727-8.4921Q299.0682,263.4292,298.5638,303.9245Z" style="fill:url(#radial-gradient-6)"/><path d="M315.5444,312.4543l12.1323-26.416q-9.5844-47.709-19.1689-95.4178-4.3137,16.1079-8.6273,32.2159-.6583,40.5441-1.3167,81.0881Z" style="fill:url(#radial-gradient-7)"/><path d="M298.5638,303.9245q3.3064,39.412,6.6128,78.8243,5.1674-35.647,10.3348-71.2939Z" style="fill:url(#radial-gradient-8)"/><path d="M308.2558,122.5916l20.9554-1.6946q1.941-1.4967,3.8985-3.1308a127.8064,127.8064,0,0,0,16.4611-16.5539l-50.19-49.5641Z" style="fill:url(#radial-gradient-9)"/><path d="M308.2559,122.5916l25.4827,14.1642L385,171q-8.14-17.3378-17.28-35.37-9.0419-17.8028-18.1492-34.4181Z" style="fill:url(#radial-gradient-10)"/><path d="M308.2559,122.5916,385,171v20l-53.2-22.1624-30.6456-18.996Q304.705,136.2165,308.2559,122.5916Z" style="fill:url(#radial-gradient-11)"/><path d="M316.4437,158.34,385,191l-14.1087,70.5944-61.4172-72.0065Z" style="fill:url(#radial-gradient-12)"/><path d="M308.4416,188.6216l19.2351,97.4167,43.2808-22.445Q339.6995,226.1076,308.4416,188.6216Z" style="fill:url(#radial-gradient-13)"/><path d="M317.4431,158.307,308.5409,191.62l-7.3869-41.7783Z" style="fill:url(#radial-gradient-14)"/></g></g><g id="right"><path d="M432.72,186.63q-3.15,10.61-6.301,21.22-3.0346,14.1081-6.0694,28.2163l-3.6732,40.1436-18.9693,61.6617,58.5971,17.07,36.94,27.7924,38.5088,14.7334q-10.1172-48.6918-20.2346-97.3835Z" style="fill:url(#radial-gradient-15)"/><g id="shapes_copy_2" data-name="shapes copy 2"><path d="M450.1148,243.5858Q443.0575,278.7929,436,314l76-14Z" style="fill:url(#radial-gradient-16)"/><path d="M450.5847,227.5615q-.2349,8.0121-.47,16.0243L512,300Z" style="fill:url(#radial-gradient-17)"/><path d="M432.2369,187.1467l17.2821,38.449L512,300Z" style="fill:url(#radial-gradient-18)"/><path d="M513,300l-39,31-38-17Z" style="fill:url(#radial-gradient-19)"/><path d="M512,301l-39,30,35,28Q510,330,512,301Z" style="fill:url(#radial-gradient-20)"/><path d="M512.0018,299.568l-4.0107,60.1657q12.1225,18.609,24.2453,37.2179Q522.1191,348.26,512.0018,299.568Z" style="fill:url(#radial-gradient-21)"/></g></g><g id="spiked"><path d="M356.4805,643.9576q-9.98,40.8858-19.96,81.7716l28.7185,74.1423,39.52,21.9124,110.2282-99.5993q7.4943-25.2257,14.9888-50.4513,8.4252-10.6779,16.85-21.356,6.76-19.25,13.5193-38.5-3.83-17.1633-7.66-34.3266-2.6766-28.0625-5.3532-56.1251-19.9767-39.1086-39.9534-78.2173-37.5908-27.7884-75.1812-55.5769l-52.8456,51.3162-24.3358,31.45-18.804,65.8135Z" style="fill:url(#radial-gradient-22)"/><g id="shapes-3" data-name="shapes"><path d="M413.5648,451.0778l-.3282,87.5787-27.9-2.3955Q399.4508,493.6693,413.5648,451.0778Z" style="fill:url(#radial-gradient-23)"/><path d="M546.0617,518.1994l-39.5361-77.0578L449.7609,421.99Z" style="fill:url(#radial-gradient-24)"/><path d="M384.3846,535.564l10.6419,116.0721,81.7557-35.1853q-32.2355-39.4318-64.4708-78.8639Z" style="fill:url(#radial-gradient-25)"/><path d="M561.3574,611.5484l-77.32-53.7266L449.7609,421.99l96.3008,96.209Q553.71,564.8738,561.3574,611.5484Z" style="fill:url(#radial-gradient-26)"/><path d="M547.4962,650.6491l13.8612-39.1007-77.32-53.7266q-4.575,28.5573-9.15,57.1145Z" style="fill:url(#radial-gradient-27)"/><path d="M474.86,615.309q-3.39,19.1181-6.78,38.2364L363.8926,721.57l31.1339-69.9335Z" style="fill:url(#radial-gradient-28)"/><path d="M529.9034,672.06l16.6224-21.8562-71.6391-35.2679Z" style="fill:url(#radial-gradient-29)"/><path d="M474.8867,614.9363q-3.4895,20.4883-6.9787,40.9765l47.3395,66.22q7.3278-25.036,14.6559-50.072Z" style="fill:url(#radial-gradient-30)"/><path d="M468.08,653.5454,363.8926,721.57,454.74,740.81Q461.41,697.1775,468.08,653.5454Z" style="fill:url(#radial-gradient-31)"/><path d="M467.935,655.54q-6.5976,42.6348-13.195,85.27l60.5075-18.6773Z" style="fill:url(#radial-gradient-32)"/><path d="M454.74,740.81l-29.6749,35.95-61.1725-55.19Z" style="fill:url(#radial-gradient-33)"/><path d="M363.8926,721.57l61.1725,55.19q-10.153,22.5122-20.3059,45.0242Z" style="fill:url(#radial-gradient-34)"/><path d="M380.561,795.9682l24.1982,25.8157L363.8926,721.57Q372.2267,758.7688,380.561,795.9682Z" style="fill:url(#radial-gradient-35)"/><path d="M515.2205,722.5051,454.713,741.1824q-14.23,16.515-28.4608,33.03l-21.493,47.5714Z" style="fill:url(#radial-gradient-36)"/><path d="M449.7609,421.99,411.254,455.2955q.9913,41.68,1.9826,83.361l70.8,19.1653Z" style="fill:url(#radial-gradient-37)"/><path d="M412.3114,537.5869l63.5456,77.7943q4.1262-29.2784,8.2522-58.5568Z" style="fill:url(#radial-gradient-38)"/></g></g><g id="left"><path d="M159,193l56,80,22,73q15.5,76.5,31,153-1,34-2,68l-37,11-85-14L70,480l32-54Z" style="fill:url(#radial-gradient-39)"/><g id="shapes_copy_3" data-name="shapes copy 3"><path d="M165.8527,213.0484l18.1694,95.4508,30.8571-35.0406Z" style="fill:url(#radial-gradient-40)"/><path d="M214.8461,272.4592q7.7376,37.2643,15.4754,74.5286l6.1334,68.5672L194.0717,362.37q-5.1852-26.7976-10.37-53.5953Z" style="fill:url(#radial-gradient-41)"/><path d="M199.0673,370.035,159.5,474.4018,44.04,432.2005,164.7539,210.0831Z" style="fill:url(#radial-gradient-42)"/><path d="M70.132,479.863q-13.046-23.8313-26.092-47.6625L159.5,474.4018l-8.2268,68.81Z" style="fill:url(#radial-gradient-43)"/><path d="M188.6034,461.9317,204.7,434.3838q23.5966,32.7367,47.1931,65.4737Z" style="fill:url(#radial-gradient-44)"/><path d="M159.5,474.4018l-8.2268,68.81,100.62-43.3544-63.29-37.9258Z" style="fill:url(#radial-gradient-45)"/><path d="M251.8934,499.8575,152,543l88.7078-3.25Q246.3006,519.8035,251.8934,499.8575Z" style="fill:url(#radial-gradient-46)"/><path d="M203.6347,432.4179q-2.3-31.6911-4.6005-63.3824,18.7515,22.3915,37.5028,44.7832,7.6783,43.0194,15.3564,86.0388Z" style="fill:url(#radial-gradient-47)"/><path d="M199.0673,370.035,159.5,474.4018,191.0524,460.35l14.1642-25.4828Q202.142,402.451,199.0673,370.035Z" style="fill:url(#radial-gradient-48)"/></g><path d="M124.1938,284.4664q20.2966-36.6919,40.5932-73.3839l-6.5925-17.7915Q141.1942,238.8787,124.1938,284.4664Z" style="fill:url(#radial-gradient-49)"/></g><g id="left-bottom"><path d="M297,626l-30,87q-11,42-22,84-16.8384,28.1809-33.6767,56.3618l-26.31-39.1506q-10.4184-42.6784-20.8369-85.357-38.83-69.753-77.66-139.5058L192,630Z" style="fill:url(#radial-gradient-50)"/><g id="shapes-4" data-name="shapes"><path d="M168.0411,649.1826q-2.1739,40.0939-4.3481,80.1879Q125.3957,660.6,87.0983,591.83Z" style="fill:url(#radial-gradient-51)"/><path d="M168.0742,650.1821,241,713q3.5-24.5,7-49Z" style="fill:url(#radial-gradient-52)"/><path d="M169.1068,651.1484Q174.5535,694.5741,180,738l61-25Z" style="fill:url(#radial-gradient-53)"/><path d="M241,712,185.4631,812.6955l-5.481-74.86Z" style="fill:url(#radial-gradient-54)"/><path d="M163.693,729.3705l16.2891,8.4654L168.0742,650.182Z" style="fill:url(#radial-gradient-55)"/><path d="M179.9821,737.8359q2.2408,37.4464,4.4815,74.8927L163.693,729.3705Z" style="fill:url(#radial-gradient-56)"/><path d="M241,712q-27.9936,51.1056-55.987,102.2112l32.0551-29.0769Q229.0339,748.5672,241,712Z" style="fill:url(#radial-gradient-57)"/><path d="M217,785q-15.9936,14.6057-31.987,29.2112,12.6388,19.0922,25.2778,38.1842Z" style="fill:url(#radial-gradient-58)"/></g></g><g id="right-bottom"><path d="M298,748,262,885l5,11,8,12,37.1973,26.1554L349,882Z" style="fill:url(#radial-gradient-59)"/><g id="shapes_copy_4" data-name="shapes copy 4"><path d="M309,796l3,66,37.0753,21.3931Z" style="fill:url(#radial-gradient-60)"/><path d="M311.681,933.6722l37.3567-50.2641L312,862Z" style="fill:url(#radial-gradient-61)"/><path d="M312,860l-37.193,47.8786,36.9071,26.7931Z" style="fill:url(#radial-gradient-62)"/><path d="M267,896l8,11,37-47-3-64Z" style="fill:url(#radial-gradient-63)"/></g></g></g></svg>