<svg xmlns="http://www.w3.org/2000/svg" xmlns:xlink="http://www.w3.org/1999/xlink" viewBox="0 0 403 696"><defs><radialGradient id="radial-gradient" cx="-98.8047" cy="259.4525" r="437.6559" gradientTransform="matrix(1, -0.0002, 0.0001, 1, 1.0989, -0.1136)" gradientUnits="userSpaceOnUse"><stop offset="0" stop-color="#a2bef1"/><stop offset="0.7047" stop-color="#ae7fdb"/><stop offset="1" stop-color="#b463d2"/></radialGradient><radialGradient id="radial-gradient-2" cx="-79.6539" cy="318.2398" r="273.503" gradientTransform="matrix(1, -0.0002, 0.0001, 1, 1.0989, -0.1136)" gradientUnits="userSpaceOnUse"><stop offset="0" stop-color="#aba8f1"/><stop offset="1" stop-color="#ac7ed2"/></radialGradient><radialGradient id="radial-gradient-3" cx="-89.8161" cy="270.6986" r="238.6051" gradientTransform="matrix(1, -0.0002, 0.0001, 1, 1.0989, -0.1136)" gradientUnits="userSpaceOnUse"><stop offset="0" stop-color="#a2bef1"/><stop offset="0.8379" stop-color="#aa7fd7"/><stop offset="1" stop-color="#ac72d2"/></radialGradient><radialGradient id="radial-gradient-4" cx="-184.9563" cy="250.8225" r="356.5263" gradientTransform="matrix(1, -0.0002, 0.0001, 1, 1.0989, -0.1136)" gradientUnits="userSpaceOnUse"><stop offset="0" stop-color="#4d57c6"/><stop offset="0.2033" stop-color="#5159c7"/><stop offset="0.4095" stop-color="#5d5ec8"/><stop offset="0.617" stop-color="#7266cb"/><stop offset="0.824" stop-color="#8e72ce"/><stop offset="1" stop-color="#ac7ed2"/></radialGradient><radialGradient id="radial-gradient-5" cx="271.0372" cy="70.6166" r="227.3131" xlink:href="#radial-gradient-4"/><radialGradient id="radial-gradient-6" cx="196.7878" cy="26.798" r="152.7697" gradientTransform="matrix(1, -0.0002, 0.0001, 1, 1.0989, -0.1136)" gradientUnits="userSpaceOnUse"><stop offset="0" stop-color="#4d57c6"/><stop offset="0.6762" stop-color="#8c71ce"/><stop offset="1" stop-color="#ac7ed2"/></radialGradient><radialGradient id="radial-gradient-7" cx="209.4021" cy="165.523" r="217.1576" gradientTransform="matrix(1, -0.0002, 0.0001, 1, 1.0989, -0.1136)" gradientUnits="userSpaceOnUse"><stop offset="0" stop-color="#4d57c6"/><stop offset="1" stop-color="#b4b9d9"/></radialGradient><radialGradient id="radial-gradient-8" cx="86.2589" cy="55.7338" r="232.4369" gradientTransform="matrix(1, -0.0002, 0.0001, 1, 1.0989, -0.1136)" gradientUnits="userSpaceOnUse"><stop offset="0" stop-color="#94baff"/><stop offset="1" stop-color="#ac7ed2"/></radialGradient><radialGradient id="radial-gradient-9" cx="99.1865" cy="35.765" r="241.8562" xlink:href="#radial-gradient-4"/><radialGradient id="radial-gradient-10" cx="413.2018" cy="577.2462" r="556.621" gradientTransform="matrix(1, -0.0002, 0.0001, 1, 1.0989, -0.1136)" gradientUnits="userSpaceOnUse"><stop offset="0" stop-color="#c976d2"/><stop offset="1" stop-color="#5a51c7"/></radialGradient><radialGradient id="radial-gradient-11" cx="323.9827" cy="549.0716" r="437.9876" gradientTransform="matrix(1, -0.0002, 0.0001, 1, 1.0989, -0.1136)" gradientUnits="userSpaceOnUse"><stop offset="0" stop-color="#9962c1"/><stop offset="1" stop-color="#7955e0"/></radialGradient><radialGradient id="radial-gradient-12" cx="182.2001" cy="709.5516" r="442.741" gradientTransform="matrix(1, -0.0002, 0.0001, 1, 1.0989, -0.1136)" gradientUnits="userSpaceOnUse"><stop offset="0" stop-color="#c976d2"/><stop offset="1" stop-color="#7667d1"/></radialGradient><radialGradient id="radial-gradient-13" cx="-164.3689" cy="341.0782" r="332.5324" xlink:href="#radial-gradient-4"/><radialGradient id="radial-gradient-14" cx="50.4659" cy="190.9499" r="175.1473" gradientTransform="matrix(1, -0.0002, 0.0001, 1, 1.0989, -0.1136)" gradientUnits="userSpaceOnUse"><stop offset="0" stop-color="#878ed6"/><stop offset="1" stop-color="#ac7ed2"/></radialGradient><radialGradient id="radial-gradient-15" cx="21.3589" cy="600.6165" r="149.8704" gradientTransform="matrix(1, -0.0002, 0.0001, 1, 1.0989, -0.1136)" gradientUnits="userSpaceOnUse"><stop offset="0" stop-color="#9f4bc1"/><stop offset="1" stop-color="#9563da"/></radialGradient><radialGradient id="radial-gradient-16" cx="-21.6267" cy="568.0126" r="388.9741" gradientTransform="matrix(1, -0.0002, 0.0001, 1, 1.0989, -0.1136)" gradientUnits="userSpaceOnUse"><stop offset="0" stop-color="#7955e0"/><stop offset="1" stop-color="#9962c1"/></radialGradient><radialGradient id="radial-gradient-17" cx="246.8927" cy="701.702" r="187.7417" gradientTransform="matrix(1, -0.0002, 0.0001, 1, 1.0989, -0.1136)" gradientUnits="userSpaceOnUse"><stop offset="0" stop-color="#984bc1"/><stop offset="1" stop-color="#a768de"/></radialGradient><radialGradient id="radial-gradient-18" cx="235.358" cy="665.5979" r="141.122" gradientTransform="matrix(1, -0.0002, 0.0001, 1, 1.0989, -0.1136)" gradientUnits="userSpaceOnUse"><stop offset="0" stop-color="#9962c1"/><stop offset="1" stop-color="#9d59e0"/></radialGradient><radialGradient id="radial-gradient-19" cx="361.4095" cy="620.4663" r="287.7812" gradientTransform="matrix(1, -0.0002, 0.0001, 1, 1.0989, -0.1136)" gradientUnits="userSpaceOnUse"><stop offset="0" stop-color="#9962c1"/><stop offset="1" stop-color="#a768de"/></radialGradient><radialGradient id="radial-gradient-20" cx="379.8856" cy="374.9012" r="316.6745" gradientTransform="matrix(1, -0.0002, 0.0001, 1, 1.0989, -0.1136)" gradientUnits="userSpaceOnUse"><stop offset="0" stop-color="#c976d2"/><stop offset="1" stop-color="#7365c7"/></radialGradient><radialGradient id="radial-gradient-21" cx="-95.6335" cy="520.6011" r="295.1596" xlink:href="#radial-gradient-15"/><radialGradient id="radial-gradient-22" cx="168.3466" cy="686.2033" r="59.1016" gradientUnits="userSpaceOnUse"><stop offset="0" stop-color="#69ffbe"/><stop offset="0.1716" stop-color="#5feabf"/><stop offset="0.7344" stop-color="#42a9c3"/><stop offset="1" stop-color="#3690c4"/></radialGradient><radialGradient id="radial-gradient-23" cx="221.794" cy="717.5131" r="104.0951" xlink:href="#radial-gradient-22"/><radialGradient id="radial-gradient-24" cx="157.2802" cy="629.8297" r="43.2246" xlink:href="#radial-gradient-22"/><radialGradient id="radial-gradient-25" cx="231.134" cy="631.0202" r="42.4455" xlink:href="#radial-gradient-22"/><radialGradient id="radial-gradient-26" cx="161.8297" cy="588.8736" r="35.7234" xlink:href="#radial-gradient-22"/><radialGradient id="radial-gradient-27" cx="210.0728" cy="579.9725" r="43.9192" xlink:href="#radial-gradient-22"/><radialGradient id="radial-gradient-28" cx="385.1364" cy="311.3333" r="64.1745" gradientUnits="userSpaceOnUse"><stop offset="0" stop-color="#69ffbe"/><stop offset="0.6086" stop-color="#6fd0c9"/><stop offset="1" stop-color="#72b7cf"/></radialGradient><radialGradient id="radial-gradient-29" cx="373.9491" cy="343.9083" r="106.2327" xlink:href="#radial-gradient-22"/><radialGradient id="radial-gradient-30" cx="359.5954" cy="333.5879" r="70.7149" xlink:href="#radial-gradient-22"/><radialGradient id="radial-gradient-31" cx="254.3736" cy="276.3846" r="80.9116" xlink:href="#radial-gradient-22"/><radialGradient id="radial-gradient-32" cx="263.2088" cy="284.8901" r="79.1765" xlink:href="#radial-gradient-22"/><radialGradient id="radial-gradient-33" cx="314.4122" cy="345.7473" r="64.0919" xlink:href="#radial-gradient-22"/><radialGradient id="radial-gradient-34" cx="228.7912" cy="547.5055" r="85.6445" xlink:href="#radial-gradient-22"/><radialGradient id="radial-gradient-35" cx="145.978" cy="423.2857" r="77.2211" xlink:href="#radial-gradient-22"/><radialGradient id="radial-gradient-36" cx="147.5604" cy="445.4396" r="60.9739" xlink:href="#radial-gradient-22"/><radialGradient id="radial-gradient-37" cx="266.2418" cy="415.1099" r="107.0769" xlink:href="#radial-gradient-22"/><radialGradient id="radial-gradient-38" cx="243.8912" cy="279.5943" r="80.9282" xlink:href="#radial-gradient-22"/><radialGradient id="radial-gradient-39" cx="348.4293" cy="322.3022" r="61.9247" xlink:href="#radial-gradient-22"/><radialGradient id="radial-gradient-40" cx="336.4992" cy="636.2527" r="96.5524" xlink:href="#radial-gradient-22"/><radialGradient id="radial-gradient-41" cx="295.2527" cy="594.7947" r="58.6795" xlink:href="#radial-gradient-22"/><radialGradient id="radial-gradient-42" cx="298.8132" cy="553.6363" r="74.5491" xlink:href="#radial-gradient-22"/><radialGradient id="radial-gradient-43" cx="176.967" cy="657.3974" r="105.8913" xlink:href="#radial-gradient-22"/><radialGradient id="radial-gradient-44" cx="180.8706" cy="583.7992" r="47.3504" xlink:href="#radial-gradient-22"/><radialGradient id="radial-gradient-45" cx="168.6593" cy="684.9121" r="114.5922" xlink:href="#radial-gradient-22"/><radialGradient id="radial-gradient-46" cx="186.8571" cy="521.1319" r="53.4666" xlink:href="#radial-gradient-22"/><radialGradient id="radial-gradient-47" cx="303.9353" cy="699.5104" r="56.392" xlink:href="#radial-gradient-22"/><radialGradient id="radial-gradient-48" cx="359.478" cy="573.3062" r="80.3113" xlink:href="#radial-gradient-22"/><radialGradient id="radial-gradient-49" cx="167.6254" cy="585.3077" r="178.6422" xlink:href="#radial-gradient-22"/><radialGradient id="radial-gradient-50" cx="366.9615" cy="530.8316" r="83.2043" xlink:href="#radial-gradient-22"/><radialGradient id="radial-gradient-51" cx="229.9505" cy="582.7189" r="81.5695" xlink:href="#radial-gradient-22"/><radialGradient id="radial-gradient-52" cx="246.8848" cy="521.2255" r="54.2439" xlink:href="#radial-gradient-22"/><radialGradient id="radial-gradient-53" cx="236.9868" cy="498.2609" r="66.5182" gradientTransform="translate(-17.592 10.1443) rotate(-1.9516)" xlink:href="#radial-gradient-22"/><radialGradient id="radial-gradient-54" cx="340.456" cy="477.2714" r="70.9965" xlink:href="#radial-gradient-22"/><radialGradient id="radial-gradient-55" cx="224.1247" cy="648.4914" r="142.0439" xlink:href="#radial-gradient-22"/><radialGradient id="radial-gradient-56" cx="374.2382" cy="575.5902" r="88.2792" xlink:href="#radial-gradient-22"/><radialGradient id="radial-gradient-57" cx="201.9902" cy="612.4454" r="157.3997" xlink:href="#radial-gradient-22"/><radialGradient id="radial-gradient-58" cx="356.9038" cy="612.6167" r="74.4405" xlink:href="#radial-gradient-22"/><radialGradient id="radial-gradient-59" cx="267.0227" cy="630.9734" r="94.0171" xlink:href="#radial-gradient-22"/><radialGradient id="radial-gradient-60" cx="267.1606" cy="633.3242" r="108.7461" xlink:href="#radial-gradient-22"/><radialGradient id="radial-gradient-61" cx="282.3022" cy="485.2145" r="53.5951" xlink:href="#radial-gradient-22"/><radialGradient id="radial-gradient-62" cx="368.1484" cy="427.478" r="104.8352" xlink:href="#radial-gradient-22"/><radialGradient id="radial-gradient-63" cx="392.3969" cy="365.8368" r="150.355" xlink:href="#radial-gradient-22"/><radialGradient id="radial-gradient-64" cx="243.344" cy="462.9554" r="65.4485" xlink:href="#radial-gradient-22"/><radialGradient id="radial-gradient-65" cx="427.6729" cy="541.828" r="61.9402" xlink:href="#radial-gradient-22"/><radialGradient id="radial-gradient-66" cx="304.0604" cy="487.7967" r="64.1343" xlink:href="#radial-gradient-22"/><radialGradient id="radial-gradient-67" cx="298.2582" cy="502.9066" r="95.0258" xlink:href="#radial-gradient-22"/><radialGradient id="radial-gradient-68" cx="526.2857" cy="477.2198" r="183.6495" gradientUnits="userSpaceOnUse"><stop offset="0" stop-color="#69ffbe"/><stop offset="0.052" stop-color="#66f3c0"/><stop offset="0.2083" stop-color="#5dd6c4"/><stop offset="0.3739" stop-color="#56bec8"/><stop offset="0.5508" stop-color="#52aeca"/><stop offset="0.7469" stop-color="#4fa4cc"/><stop offset="1" stop-color="#4ea1cc"/></radialGradient><radialGradient id="radial-gradient-69" cx="316.6154" cy="377.1319" r="71.3756" xlink:href="#radial-gradient-22"/><radialGradient id="radial-gradient-70" cx="289.7143" cy="449.9231" r="61.7257" xlink:href="#radial-gradient-22"/><radialGradient id="radial-gradient-71" cx="305.1429" cy="372.7802" r="73.7365" xlink:href="#radial-gradient-22"/><radialGradient id="radial-gradient-72" cx="282.989" cy="440.033" r="66.6602" xlink:href="#radial-gradient-22"/><radialGradient id="radial-gradient-73" cx="353.2473" cy="453.437" r="55.2854" xlink:href="#radial-gradient-22"/><radialGradient id="radial-gradient-74" cx="288.4292" cy="521.5144" r="42.936" gradientTransform="translate(-6.6507 4.4089) rotate(-0.7624)" xlink:href="#radial-gradient-22"/><radialGradient id="radial-gradient-75" cx="290.3695" cy="523.3462" r="47.7007" xlink:href="#radial-gradient-22"/><radialGradient id="radial-gradient-76" cx="301.2912" cy="539.8272" r="52.2291" xlink:href="#radial-gradient-22"/><radialGradient id="radial-gradient-77" cx="379.0932" cy="500.4322" r="39.8632" xlink:href="#radial-gradient-22"/><radialGradient id="radial-gradient-78" cx="317.4957" cy="551.7759" r="53.1163" xlink:href="#radial-gradient-22"/><radialGradient id="radial-gradient-79" cx="273.3759" cy="500.7481" r="54.1913" xlink:href="#radial-gradient-22"/><radialGradient id="radial-gradient-80" cx="285.3901" cy="500.469" r="45.6567" xlink:href="#radial-gradient-22"/><radialGradient id="radial-gradient-81" cx="329.2088" cy="464.951" r="43.1988" xlink:href="#radial-gradient-22"/><radialGradient id="radial-gradient-82" cx="134.6374" cy="641" r="124.1429" xlink:href="#radial-gradient-22"/><radialGradient id="radial-gradient-83" cx="305.747" cy="543.3415" r="108.2844" xlink:href="#radial-gradient-22"/><radialGradient id="radial-gradient-84" cx="301.7567" cy="593.8947" r="108.9031" xlink:href="#radial-gradient-22"/><radialGradient id="radial-gradient-85" cx="317.011" cy="546.8462" r="103.501" xlink:href="#radial-gradient-22"/><radialGradient id="radial-gradient-86" cx="168.0934" cy="669.0265" r="67.5976" xlink:href="#radial-gradient-22"/><radialGradient id="radial-gradient-87" cx="289.3698" cy="432.0147" r="78.3453" xlink:href="#radial-gradient-22"/><radialGradient id="radial-gradient-88" cx="192.1593" cy="469.3027" r="71.538" xlink:href="#radial-gradient-22"/><radialGradient id="radial-gradient-89" cx="316.602" cy="471.2705" r="106.6554" xlink:href="#radial-gradient-22"/><radialGradient id="radial-gradient-90" cx="251.3476" cy="513.8204" r="46.6423" xlink:href="#radial-gradient-22"/><radialGradient id="radial-gradient-91" cx="156.7995" cy="552.0909" r="28.7994" gradientTransform="matrix(0.7679, 0.6406, -0.6406, 0.7679, 395.2137, 8.345)" xlink:href="#radial-gradient-22"/><radialGradient id="radial-gradient-92" cx="221.6917" cy="532.4716" r="53.5713" gradientTransform="matrix(0.7679, 0.6406, -0.6406, 0.7679, 395.2137, 8.345)" xlink:href="#radial-gradient-22"/><radialGradient id="radial-gradient-93" cx="215.1892" cy="560.3771" r="44.0136" gradientTransform="matrix(0.7679, 0.6406, -0.6406, 0.7679, 395.2137, 8.345)" xlink:href="#radial-gradient-22"/><radialGradient id="radial-gradient-94" cx="198.3298" cy="584.2204" r="37.2079" gradientTransform="matrix(0.7679, 0.6406, -0.6406, 0.7679, 395.2137, 8.345)" xlink:href="#radial-gradient-22"/><radialGradient id="radial-gradient-95" cx="242.0096" cy="418.9799" r="47.926" xlink:href="#radial-gradient-22"/><radialGradient id="radial-gradient-96" cx="358.3136" cy="523.9828" r="110.6626" xlink:href="#radial-gradient-22"/><radialGradient id="radial-gradient-97" cx="387.764" cy="432.004" r="27.3973" xlink:href="#radial-gradient-22"/><radialGradient id="radial-gradient-98" cx="353.6242" cy="424.7622" r="29.5493" xlink:href="#radial-gradient-22"/><radialGradient id="radial-gradient-99" cx="405.2308" cy="401.4615" r="50.9002" xlink:href="#radial-gradient-68"/><radialGradient id="radial-gradient-100" cx="332.7071" cy="411.6469" r="35.0275" xlink:href="#radial-gradient-22"/><radialGradient id="radial-gradient-101" cx="317.2447" cy="403.654" r="28.9446" xlink:href="#radial-gradient-22"/><radialGradient id="radial-gradient-102" cx="307.5891" cy="340.6426" r="62.43" xlink:href="#radial-gradient-22"/><radialGradient id="radial-gradient-103" cx="317.911" cy="401.0285" r="46.908" xlink:href="#radial-gradient-22"/><radialGradient id="radial-gradient-104" cx="374.7544" cy="325.2067" r="70.708" xlink:href="#radial-gradient-22"/><radialGradient id="radial-gradient-105" cx="327.609" cy="360.58" r="35.3062" xlink:href="#radial-gradient-22"/><radialGradient id="radial-gradient-106" cx="306.5175" cy="334.4827" r="36.8232" xlink:href="#radial-gradient-22"/><radialGradient id="radial-gradient-107" cx="360.8297" cy="330.1484" r="35.3009" xlink:href="#radial-gradient-22"/><radialGradient id="radial-gradient-108" cx="313.1753" cy="309.9545" r="59.4258" xlink:href="#radial-gradient-22"/><radialGradient id="radial-gradient-109" cx="313.1484" cy="348.3571" r="40.8513" xlink:href="#radial-gradient-22"/><radialGradient id="radial-gradient-110" cx="346.349" cy="318.7595" r="33.277" gradientTransform="matrix(0.9848, -0.1735, 0.1735, 0.9848, -50.7103, 61.8614)" xlink:href="#radial-gradient-22"/><radialGradient id="radial-gradient-111" cx="296.8808" cy="325.9062" r="34.9701" gradientTransform="matrix(0.9848, -0.1735, 0.1735, 0.9848, -50.7103, 61.8614)" xlink:href="#radial-gradient-22"/><radialGradient id="radial-gradient-112" cx="232.6538" cy="402.0546" r="25.0268" xlink:href="#radial-gradient-22"/><radialGradient id="radial-gradient-113" cx="278.5177" cy="397.2798" r="44.4825" xlink:href="#radial-gradient-22"/><radialGradient id="radial-gradient-114" cx="268.6972" cy="396.7661" r="37.7732" xlink:href="#radial-gradient-22"/><radialGradient id="radial-gradient-115" cx="258.524" cy="344.5592" r="28.4436" xlink:href="#radial-gradient-22"/><radialGradient id="radial-gradient-116" cx="289.8179" cy="351.0999" r="69.3289" xlink:href="#radial-gradient-22"/><radialGradient id="radial-gradient-117" cx="323.159" cy="390.1183" r="29.3882" xlink:href="#radial-gradient-22"/><radialGradient id="radial-gradient-118" cx="285.8717" cy="393.0849" r="35.7717" xlink:href="#radial-gradient-22"/><radialGradient id="radial-gradient-119" cx="326.9637" cy="370.8817" r="30.2167" xlink:href="#radial-gradient-22"/><radialGradient id="radial-gradient-120" cx="278.7418" cy="383.9337" r="32.8065" xlink:href="#radial-gradient-22"/><radialGradient id="radial-gradient-121" cx="268.5401" cy="355.6517" r="46.9205" xlink:href="#radial-gradient-22"/><radialGradient id="radial-gradient-122" cx="324.2613" cy="358.7247" r="38.514" xlink:href="#radial-gradient-22"/><radialGradient id="radial-gradient-123" cx="296.3431" cy="331.1459" r="42.907" xlink:href="#radial-gradient-22"/><radialGradient id="radial-gradient-124" cx="268.1792" cy="344.1044" r="43.8151" xlink:href="#radial-gradient-22"/><radialGradient id="radial-gradient-125" cx="233.7814" cy="326.4078" r="43.9648" xlink:href="#radial-gradient-22"/><radialGradient id="radial-gradient-126" cx="270.5976" cy="281.3798" r="46.5343" xlink:href="#radial-gradient-22"/><radialGradient id="radial-gradient-127" cx="254.6278" cy="317.643" r="33.8707" xlink:href="#radial-gradient-22"/><radialGradient id="radial-gradient-128" cx="260.3468" cy="352.2563" r="51.7092" xlink:href="#radial-gradient-22"/><radialGradient id="radial-gradient-129" cx="204.1022" cy="326.145" r="24.2033" xlink:href="#radial-gradient-22"/><radialGradient id="radial-gradient-130" cx="217.2208" cy="368.6199" r="41.1635" xlink:href="#radial-gradient-22"/><radialGradient id="radial-gradient-131" cx="188.137" cy="400.0495" r="43.9912" xlink:href="#radial-gradient-22"/><radialGradient id="radial-gradient-132" cx="188.7112" cy="362.7824" r="18.3761" xlink:href="#radial-gradient-22"/><radialGradient id="radial-gradient-133" cx="242.533" cy="363.2463" r="46.8145" xlink:href="#radial-gradient-22"/><radialGradient id="radial-gradient-134" cx="236.7308" cy="388.9083" r="46.9727" xlink:href="#radial-gradient-22"/><radialGradient id="radial-gradient-135" cx="229.8756" cy="449.9592" r="50.1155" xlink:href="#radial-gradient-22"/><radialGradient id="radial-gradient-136" cx="274.751" cy="396.4212" r="102.6204" xlink:href="#radial-gradient-22"/><radialGradient id="radial-gradient-137" cx="169.5635" cy="437.6738" r="59.5805" xlink:href="#radial-gradient-22"/><radialGradient id="radial-gradient-138" cx="177.4641" cy="675.1167" r="55.9072" xlink:href="#radial-gradient-22"/><radialGradient id="radial-gradient-139" cx="135.7582" cy="632.6154" r="38.9004" xlink:href="#radial-gradient-22"/><radialGradient id="radial-gradient-140" cx="104.6663" cy="627.6901" r="41.4522" xlink:href="#radial-gradient-22"/><radialGradient id="radial-gradient-141" cx="188.0127" cy="668.8336" r="50.781" xlink:href="#radial-gradient-22"/><radialGradient id="radial-gradient-142" cx="134.0417" cy="576.4121" r="12.9388" xlink:href="#radial-gradient-22"/><radialGradient id="radial-gradient-143" cx="189.5064" cy="608.0604" r="45.0702" xlink:href="#radial-gradient-22"/><radialGradient id="radial-gradient-144" cx="127.4121" cy="658.1439" r="77.2854" xlink:href="#radial-gradient-22"/><radialGradient id="radial-gradient-145" cx="172.891" cy="622.7688" r="58.7831" xlink:href="#radial-gradient-22"/><radialGradient id="radial-gradient-146" cx="183.129" cy="625.3871" r="62.9165" gradientTransform="matrix(0.9996, -0.0269, 0.0269, 0.9996, -16.2662, 4.32)" xlink:href="#radial-gradient-22"/><radialGradient id="radial-gradient-147" cx="335.3407" cy="413.1319" r="50.4462" xlink:href="#radial-gradient-22"/><radialGradient id="radial-gradient-148" cx="232.7473" cy="510.0549" r="42.0347" xlink:href="#radial-gradient-22"/></defs><g id="spiked"><g id="shapes_color_2"><path d="M114.976,168.0125l2.0005,5q4.0061,54.4993,8.0124,108.9985L5,328.0293,0,329.03Q57.4881,248.5212,114.976,168.0125Z" style="fill:url(#radial-gradient)"/><path d="M115.0006,378.012,4,332.0294q-2-1.5-4-2.9993l123.4889-47.5192,1.5,3.5Q119.9949,331.5114,115.0006,378.012Z" style="fill:url(#radial-gradient-2)"/><path d="M0,329.03q20.5049,49.9966,41.01,99.9934l3-1,68.9912-49.0107,1.5-2.5Z" style="fill:url(#radial-gradient-3)"/><path d="M114.5005,376.5121q.25,2.25.5005,4.5Q87.0115,458.5163,59.0217,536.02l-2,3Q49.016,484.0222,41.01,429.0235Z" style="fill:url(#radial-gradient-4)"/><path d="M234.96,77.9939l-3,1.0005-41.994,35.0065-2,3,3,.9995L263.96,91.9893q1-1,2-2Z" style="fill:url(#radial-gradient-5)"/><path d="M196.9526,0q-.5,2-.9995,4-4.4935,53.5007-8.987,107.0012.5,3,1.0006,6Q211.4633,97.4975,234.96,77.9939,215.9563,38.9969,196.9526,0Z" style="fill:url(#radial-gradient-6)"/><path d="M139.9618,57.0088,196.9526,0l-8.9859,117.0012-2,0q-23.0024-28.4964-46.0046-56.9927Z" style="fill:url(#radial-gradient-7)"/><path d="M188.9668,118.001l-11.982,149.0016q-30.5043-47.9952-61.0085-95.99-.5-1.5-1-3L139.9618,57.0088Q164.4645,87.5049,188.9668,118.001Z" style="fill:url(#radial-gradient-8)"/><path d="M335.9735,229.9778l-7.9994,3.0012-146.99,30.0229-5,.0008q5.9913-73.0008,11.9824-146.0015L265.96,89.989Q300.9668,159.9834,335.9735,229.9778Z" style="fill:url(#radial-gradient-9)"/><path d="M185.9906,319.001q-4.9929,59.5007-9.9856,119.0013L359,466.9737l3-1q-8.0079-69.9986-16.0157-139.9972l2.9967-27-17.002-22.9973-3-1Z" style="fill:url(#radial-gradient-10)"/><path d="M179.0046,436.0019,362,465.9732q-7.9986,9.0012-15.9972,18.0025l-17.9984,7.0028q-2.4985,10-4.9974,20.0007-2.4994,2.5005-4.9992,5.0008-.9991,5.5-1.9986,11-6.4986,9.501-12.9972,19.002l-4,.0006L140.0137,499.0078l-4-2.9993q20.4954-30.0032,40.9911-60.0063Z" style="fill:url(#radial-gradient-11)"/><path d="M179.0046,436.0019q-.5-1.5-1-3l-60.0038-54.99-3.5-1.4994Q85.7614,457.7664,57.0221,539.0207l3,0,74.992-40.0117Z" style="fill:url(#radial-gradient-12)"/><path d="M123.4889,281.5109l-8.9884,95.0012,64.5041,59.49q4.4965-27.5007,8.9932-55.0013l-.007-59q.5-1,1-2l-12.006-55.998-2-2-49.9956,18.0078Z" style="fill:url(#radial-gradient-13)"/><path d="M114.976,168.0125q4.2566,56.7492,8.5129,113.4984l52.4955-18.5082Q145.48,215.5076,114.976,168.0125Z" style="fill:url(#radial-gradient-14)"/><path d="M57.0221,539.0207l6,.9991,77,29.9879L127.0309,640.01q-.5,1-1,2Z" style="fill:url(#radial-gradient-15)"/><path d="M137.0135,496.0083q.5,2.5,1.0006,5l27.0072,71.9956,110.0015,53.9827,5,.9992q.9992-6,1.9985-12-2.5013-12-5.0026-23.9992l-1.0014-12,26.9948-34.0041Z" style="fill:url(#radial-gradient-16)"/><path d="M139.0223,571.0078q.5-.5,1-1l24.999.9961q1,1,2,2Q178.026,616.5017,189.0305,660q-.5.5-1,1l-61.9994-18.99Q132.5268,606.5088,139.0223,571.0078Z" style="fill:url(#radial-gradient-17)"/><path d="M166.0212,572.0036l114.0015,55.9821L188.0306,661Q177.0259,616.5019,166.0212,572.0036Z" style="fill:url(#radial-gradient-18)"/><path d="M166.0212,572.0036l-26.9989-.9958q-1.0005-4.5-2.001-9-.5034-28.5-1.0067-57,.4995-4.5.9989-9Q151.5173,534.006,166.0212,572.0036Z" style="fill:url(#radial-gradient-19)"/><path d="M175.9844,263.0027q6.0033,29.499,12.0064,58.998L331.979,275.9783q-1.0007-6.5-2.0014-13l5.9958-33.0009Z" style="fill:url(#radial-gradient-20)"/><path d="M137.0135,496.0083,57.0221,539.0207q41,15.9936,82,31.9871Z" style="fill:url(#radial-gradient-21)"/></g><g id="shapes_spikes_color_copy_2" data-name="shapes_spikes_color copy 2"><path d="M191,648l1-1,3-1h3l7,4,2,2,1,2q2,18.5,4,37v5Z" style="fill:url(#radial-gradient-22)"/><path d="M216,651l-2-1-6,1-1,1q2.5,22,5,44Q214,673.5,216,651Z" style="fill:url(#radial-gradient-23)"/><path d="M183,618h2l7,4,2,2q.7257,3.0188,1.4512,6.0375Q196.2255,637.0188,197,644v2l-6,2Q187,633,183,618Z" style="fill:url(#radial-gradient-24)"/><path d="M194,624l3-2,11-2h2l6,31-9,1Q200.5,638,194,624Z" style="fill:url(#radial-gradient-25)"/><path d="M187,590q.5,1.5,1,3l6,30v1l-11-6q.5-12,1-24Z" style="fill:url(#radial-gradient-26)"/><path d="M187,590l23,30-16,4Q190.5,607,187,590Z" style="fill:url(#radial-gradient-27)"/><path d="M370,252l-12-5-17,3q-.5,8-1,16l13,7,9-1Q366,262,370,252Z" style="fill:url(#radial-gradient-28)"/><path d="M353,273l-27,34,20-13q8-11,16-22Z" style="fill:url(#radial-gradient-29)"/><path d="M340,266q-8,13.5-16,27,1,7,2,14l27-34Z" style="fill:url(#radial-gradient-30)"/><path d="M341,250l-17,16v27q8-13.5,16-27Q340.5,258,341,250Z" style="fill:url(#radial-gradient-31)"/><path d="M324,266v27l-13-6Q317.5,276.5,324,266Z" style="fill:url(#radial-gradient-32)"/><path d="M326,307l-34-8,32-6Q325,300,326,307Z" style="fill:url(#radial-gradient-33)"/><path d="M208,493l-22,4q-2,6.5-4,13-.5,3-1,6l11,9h21l18-16-4-4Z" style="fill:url(#radial-gradient-34)"/><path d="M181,462l9-2h7q1,1.5,2,3l9,29v2l-21,4q-.5-1-1-2-2.5-15.5-5-31Z" style="fill:url(#radial-gradient-35)"/><path d="M177,469q2,23.5,4,47l6-18-6-36Q179,465.5,177,469Z" style="fill:url(#radial-gradient-36)"/><path d="M208,494l23,15q-10-20-20-40l-14-9Q202.5,477,208,494Z" style="fill:url(#radial-gradient-37)"/><path d="M311,287l13,6-32,6Z" style="fill:url(#radial-gradient-38)"/><path d="M346,294l-20,13,23-8Z" style="fill:url(#radial-gradient-39)"/><path d="M260,627q6.5,28,13,56l6,3h1q1-35,2-70h-2l-19,9Z" style="fill:url(#radial-gradient-40)"/><path d="M264.7618,589.061,264,589l-12,16-1.0044,2.24L252,610q4,7.5,8,15l1,1,21-10-2-4-14-22Z" style="fill:url(#radial-gradient-41)"/><path d="M230,551v3q3.5,14,7,28l1.4747,1.6771L241,584l10-5,1-1v-2l-9-26-2-4a28.95,28.95,0,0,0-3,1l-7,3Z" style="fill:url(#radial-gradient-42)"/><path d="M224,616l2-1,22-7,2.9956-.76L261,626q2,8.5,4,17l-2,1-17-2-3-1Q233.5,628.5,224,616Z" style="fill:url(#radial-gradient-43)"/><path d="M230,551q4.2375,16.3386,8.4747,32.6771L237,586l-16,12-3,2q.5-20.5,1-41l2-2,7-5Z" style="fill:url(#radial-gradient-44)"/><path d="M273,681q-4-19-8-38l-22-2q11,22.5,22,45h1l7-4Z" style="fill:url(#radial-gradient-45)"/><path d="M230,551l-11,8q2-12,4-24l3,4,3,7Q229.5,548.5,230,551Z" style="fill:url(#radial-gradient-46)"/><path d="M273,681l-8,5,5,3,6,1,4-4Z" style="fill:url(#radial-gradient-47)"/><path d="M310,554l-5,10,6,9q2-6,4-12Z" style="fill:url(#radial-gradient-48)"/><path d="M285.5,569.5q-.25-2.75-.5-5.5-3.5-14-7-28l-1-2h-1l-8,9q-.5,2-1,4l9,33,2-1,7-7Q285.25,570.75,285.5,569.5Z" style="fill:url(#radial-gradient-49)"/><path d="M316,527H302v2l6,24,2,3,4,5,2,2,9,2,2-1Q321.5,545.5,316,527Z" style="fill:url(#radial-gradient-50)"/><path d="M285.5,569.5q-4.25-17.75-8.5-35.5l3-2,19-5h3q4,14.5,8,29l-4,8-3,2-15,4Z" style="fill:url(#radial-gradient-51)"/><path d="M267,547q5-6.5,10-13l1-2q.5-11,1-22l-1-2-6,6Q269.5,530.5,267,547Z" style="fill:url(#radial-gradient-52)"/><path d="M278,508l14,2,3,3q3.5,6,7,12v2l-25,7Q277.5,521,278,508Z" style="fill:url(#radial-gradient-53)"/><path d="M292,510l11,5,13,12H302Z" style="fill:url(#radial-gradient-54)"/><path d="M285.5,569.5q.25,2.25.5,4.5,6.5,13.5,13,27l2,2,4,1,10-1,2-1v-3q-2.5-13-5-26l-1-2-5-7Z" style="fill:url(#radial-gradient-55)"/><path d="M311,571l3-10,13,3q-2,20.5-4,41h-2l-3-2-1-1Z" style="fill:url(#radial-gradient-56)"/><path d="M276,580l18,26h2l4-2,1-1q-7.75-16.75-15.5-33.5Z" style="fill:url(#radial-gradient-57)"/><path d="M323,605l-6-3-1,2q.5,6,1,12l1,2Q320.5,611.5,323,605Z" style="fill:url(#radial-gradient-58)"/><path d="M301,603l16-1q.5,8,1,16l-4,1-2-2-10-12Z" style="fill:url(#radial-gradient-59)"/><path d="M301,603q6.5,8,13,16l-6-2-14-11Z" style="fill:url(#radial-gradient-60)"/><path d="M323,474l-29-16q1-7,2-14Z" style="fill:url(#radial-gradient-61)"/><path d="M318.5,437.5,305,437l18,37Z" style="fill:url(#radial-gradient-62)"/><path d="M282,402q11.5,17.5,23,35l13.5.5Q312.75,423.25,307,409Z" style="fill:url(#radial-gradient-63)"/><path d="M275.5,440.5,294,458q1-7,2-14-11-12.5-22-25Z" style="fill:url(#radial-gradient-64)"/><path d="M392,503l-7,7q1,4,2,8l1,2,9-2,4.5-5.5L403,506l-2-1Z" style="fill:url(#radial-gradient-65)"/><path d="M342,459l2,3,41,48h1l7-6q-.5-1.5-1-3-20.5-29.5-41-59l-3-2-2,1q-2,7-4,14Z" style="fill:url(#radial-gradient-66)"/><path d="M342,459l4.5,24.5L388,520q-1-5-2-10Z" style="fill:url(#radial-gradient-67)"/><path d="M368,432h-4l-15,7-1,1,45,64,10,2Q385.5,469,368,432Z" style="fill:url(#radial-gradient-68)"/><path d="M348,411l-2,2-4,8q-.5,2-1,4,.5,1.5,1,3,2.5,5.5,5,11l1,1,20-8Z" style="fill:url(#radial-gradient-69)"/><path d="M330,437l12,22,6-19q-3.5-7.5-7-15l-2,1-8,9Z" style="fill:url(#radial-gradient-70)"/><path d="M320,407l4,4,16,14h1l7-14Z" style="fill:url(#radial-gradient-71)"/><path d="M320,407q5,15,10,30l11-12Z" style="fill:url(#radial-gradient-72)"/><path d="M351,505l-2,1h-6l-3-1-2-1-12-11-2-3,2-1,5-1h4Z" style="fill:url(#radial-gradient-73)"/><path d="M340,505q-.5,1.5-1,3l-5,6-2,1-2-1-14-12q-.5-1.5-1-3l9-9Z" style="fill:url(#radial-gradient-74)"/><path d="M332,515q.1412,1.0883.2822,2.1764Q331.6413,519.0882,331,521l-2,2-17.5-17.5q.25-1.25.5-2.5.5-1.5,1-3l2-1Z" style="fill:url(#radial-gradient-75)"/><path d="M340,505l-8,10,3,3,14,9,8,3q-2.792-4.8858-6-10c-2.67-4.2424-5.3489-8.2413-8-12Z" style="fill:url(#radial-gradient-76)"/><path d="M340,505h11l6,25Z" style="fill:url(#radial-gradient-77)"/><path d="M329,523l3-8,25,15Z" style="fill:url(#radial-gradient-78)"/><path d="M324,490l-9,9-2-1-7-11q-2.5-4.5-5-9l5,1,16,8Z" style="fill:url(#radial-gradient-79)"/><path d="M315,499q-1.75,3.25-3.5,6.5L301,478Z" style="fill:url(#radial-gradient-80)"/><path d="M301,478l23,12,11-2-26-10Z" style="fill:url(#radial-gradient-81)"/><path d="M238.4747,583.6771Q228.2374,591.8386,218,600l6,16,26.9956-8.76q-.4978-1.62-.9956-3.24l-10-19Z" style="fill:url(#radial-gradient-82)"/><path d="M241,546q14,20,28,40v1l-3,2-1.2382.061L263,588l-10-8-1-2Q246.5,562,241,546Z" style="fill:url(#radial-gradient-83)"/><path d="M269,586l-4.2382,3.061Q273.381,602.53,282,616,275.5,601,269,586Z" style="fill:url(#radial-gradient-84)"/><path d="M252,578l-13.5253,5.6771q6.26,11.7817,12.5209,23.5633l13.7662-18.1794Z" style="fill:url(#radial-gradient-85)"/><path d="M207,652l-10-6-3-22Q200.5,638,207,652Z" style="fill:url(#radial-gradient-86)"/><path d="M247,456q.5,2,1,4l10,17,12-2,1-1q-2-5-4-10Z" style="fill:url(#radial-gradient-87)"/><path d="M247,456l11,19q-.5,1.5-1,3l-8.363,7.8063L245,487l-3-18Q244.5,462.5,247,456Z" style="fill:url(#radial-gradient-88)"/><path d="M258,475l2,4,10,14,3.5,3.5q-1.25-11.25-2.5-22.5Z" style="fill:url(#radial-gradient-89)"/><path d="M258,475q7.75,10.75,15.5,21.5L245,487Z" style="fill:url(#radial-gradient-90)"/><path d="M189,554l-10,3h-3q4-11,8-22,1,2.5,2,5Z" style="fill:url(#radial-gradient-91)"/><path d="M196,557l-12-22q2,9,4,18l1,1,6,3Z" style="fill:url(#radial-gradient-92)"/><path d="M188,553v2q.5,6,1,12,.5,1.5,1,3l6-13Z" style="fill:url(#radial-gradient-93)"/><path d="M188,553l-12,4,14,13Q189,561.5,188,553Z" style="fill:url(#radial-gradient-94)"/><path d="M282,402q11.5,17.5,23,35l-9,7q-11-12.5-22-25Q278,410.5,282,402Z" style="fill:url(#radial-gradient-95)"/><path d="M305,437l-9,7,27,30Z" style="fill:url(#radial-gradient-96)"/><path d="M387,405v5l-5,5-4,1a5.0115,5.0115,0,0,1-1-1,5.7461,5.7461,0,0,1-1-4l5-7h4Z" style="fill:url(#radial-gradient-97)"/><path d="M356,394l-1,1q-.5,4-1,8v2l24,11q-.5-2.5-1-5v-1l-3-8-16-8Z" style="fill:url(#radial-gradient-98)"/><path d="M366,386l-10,8,17,8,3,2,4,1h7Z" style="fill:url(#radial-gradient-99)"/><path d="M344,382l2,1,9,9,1,2q-1,5.5-2,11l-14-9v-1l3-12Z" style="fill:url(#radial-gradient-100)"/><path d="M356,375h-2l-9,6-1,1,12,12,10-8Z" style="fill:url(#radial-gradient-101)"/><path d="M344,382l12-7-14-6-5,1q.5,1.5,1,3,2.5,4.5,5,9Z" style="fill:url(#radial-gradient-102)"/><path d="M340,396q2-7,4-14-3.5-6-7-12l-2.1055,2.9216L335,383Q337.5,389.5,340,396Z" style="fill:url(#radial-gradient-103)"/><path d="M360,352l-2-1-13-1,18,17,2,1Q362.5,360,360,352Z" style="fill:url(#radial-gradient-104)"/><path d="M347,351l18,17-18.5-8.5-.5-.5v-7Z" style="fill:url(#radial-gradient-105)"/><path d="M333,339q-1,6.5-2,13l4,8,1-1,9-14Z" style="fill:url(#radial-gradient-106)"/><path d="M343,345l3,6h1l13,1-9.5-10.5L348,341l-4,3Z" style="fill:url(#radial-gradient-107)"/><path d="M333,339l10,6,7.5-3.5L339,337Z" style="fill:url(#radial-gradient-108)"/><path d="M343,345q-4,7.5-8,15l11.5-.5q.25-4.25.5-8.5Z" style="fill:url(#radial-gradient-109)"/><path d="M324.5023,318.3057l.347,1.97,6.1386,6.0264,2.1432.6378q-.7221-6.9805-1.4441-13.9612Z" style="fill:url(#radial-gradient-110)"/><path d="M324.5023,318.3057q4.3145,4.317,8.6288,8.6339l-11.8181,2.082Z" style="fill:url(#radial-gradient-111)"/><path d="M259,423q-5.5-10-11-20,.5-5,1-10,1,2,2,4,3.5,11,7,22Q258.5,421,259,423Z" style="fill:url(#radial-gradient-112)"/><path d="M249,393q5,15,10,30-1-12-2-24Z" style="fill:url(#radial-gradient-113)"/><path d="M258,361q-2,3.5-4,7,2,3.5,4,7l10,2,6-6-4-8Z" style="fill:url(#radial-gradient-114)"/><path d="M271,354l-13,7,12,2Q270.5,358.5,271,354Z" style="fill:url(#radial-gradient-115)"/><path d="M270,363l4,8v-9l-3-8Q270.5,358.5,270,363Z" style="fill:url(#radial-gradient-116)"/><path d="M307,374v1q2,6,4,12l2,3,1.5-16-1.5-1h-5Z" style="fill:url(#radial-gradient-117)"/><path d="M307,374h-2l-7,1-1,1,16,14Z" style="fill:url(#radial-gradient-118)"/><path d="M307,374h7.5L313,360h-1l-7,4q.5,4,1,8Z" style="fill:url(#radial-gradient-119)"/><path d="M306,364l-2-1h-7v13l10-2Q306.5,369,306,364Z" style="fill:url(#radial-gradient-120)"/><path d="M293.5,349.5q1.2484,1.2213,2.5,2.5c3.2766,3.3491,6.2684,6.6988,9,10l1,2-9-1Q295.25,356.25,293.5,349.5Z" style="fill:url(#radial-gradient-121)"/><path d="M293.5,349.5,306,364l7-4Z" style="fill:url(#radial-gradient-122)"/><path d="M272,315l-1,1-4,8,15,11,2,1Z" style="fill:url(#radial-gradient-123)"/><path d="M268,324h-1l-5,2-1,1,23,9Z" style="fill:url(#radial-gradient-124)"/><path d="M258,317l2,1,8,5v1l-7,3Z" style="fill:url(#radial-gradient-125)"/><path d="M272,315l-14,2,10,7Q270,319.5,272,315Z" style="fill:url(#radial-gradient-126)"/><path d="M226,320q.5,1.5,1,3,2.5,5,5,10l2,2q1-2,2-4v-1Z" style="fill:url(#radial-gradient-127)"/><path d="M233,334l3-4,3,37q-.5-2-1-4-2.5-13.5-5-27Z" style="fill:url(#radial-gradient-128)"/><path d="M233,334l-1,1-10,5h-2l6-20Q229.5,327,233,334Z" style="fill:url(#radial-gradient-129)"/><path d="M220,340l13-6,6,33Z" style="fill:url(#radial-gradient-130)"/><path d="M214,376l-13,1,15,13Q215,383,214,376Z" style="fill:url(#radial-gradient-131)"/><path d="M204,357q2.6832,4.6181,5.364,9.7095Q211.8581,371.4643,214,376l-13,1Z" style="fill:url(#radial-gradient-132)"/><path d="M204,357q5,9.5,10,19l4-3Z" style="fill:url(#radial-gradient-133)"/><path d="M214,376q1,7,2,14,1-8.5,2-17Z" style="fill:url(#radial-gradient-134)"/><path d="M233,433l-1-1-14-8q1,6,2,12,.5,1.5,1,3l10,2Q232,437,233,433Z" style="fill:url(#radial-gradient-135)"/><path d="M208,409c.8691,3.4766,1,4,1,4l9,12h1l14,8q-3.5-9.5-7-19Z" style="fill:url(#radial-gradient-136)"/><path d="M208,409q1,10,2,20l11,10q-1-7-2-14Z" style="fill:url(#radial-gradient-137)"/><path d="M170.51,654.8217,162,648H150l-10,8,9,9,15-2Z" style="fill:url(#radial-gradient-138)"/><path d="M160,624q1,12,2,24l8.51,6.8217Q168.7548,645.4109,167,636,163.5,630,160,624Z" style="fill:url(#radial-gradient-139)"/><path d="M153,622l-7,7-6,27,10-8Z" style="fill:url(#radial-gradient-140)"/><path d="M153,622l7,2q1,12,2,24H150Z" style="fill:url(#radial-gradient-141)"/><path d="M155,600h-1l-10-7-1-1,13-8Q155.5,592,155,600Z" style="fill:url(#radial-gradient-142)"/><path d="M156,584q-.5,8-1,16h1l5-4,1-1Z" style="fill:url(#radial-gradient-143)"/><path d="M155,600l-12-8q2,11,4,22l1-1q3.5-6,7-12Z" style="fill:url(#radial-gradient-144)"/><path d="M155,600l7-5-3,15-1-1-3-8Z" style="fill:url(#radial-gradient-145)"/><path d="M155,600q2,5,4,10l-12,4Q151,607,155,600Z" style="fill:url(#radial-gradient-146)"/><path d="M381,405l-4,6q-2-4.5-4-9Z" style="fill:url(#radial-gradient-147)"/><path d="M241,546l-11,5q-3.5-8-7-16Z" style="fill:url(#radial-gradient-148)"/></g><g id="highlights-13" data-name="highlights" style="opacity:0.4"><path d="M167,30,142,57q5.5,8.5,11,17L141,59q-4,14.5-8,29,3.5-15.5,7-31Z" style="fill:#f2f2f2"/><path d="M240,80l21,10-37,14,42-14Z" style="fill:#f2f2f2"/><path d="M308,175q11.5,26.5,23,53l-80,19,85-17Q322,202.5,308,175Z" style="fill:#f2f2f2"/><path d="M119,223v55L52,309l71-27Q121,252.5,119,223Z" style="fill:#f2f2f2"/><path d="M15,308q-5.5,9-11,18l25-8L5,328l71,33L0,329Z" style="fill:#f2f2f2"/><path d="M89,448,59,534q-6.5-38-13-76,5.5,40.5,11,81c23.3207,35.757,36.3986,53.6942,36,53q-15.5-27-31-54Z" style="fill:#f2f2f2"/><path d="M144,404l33,32q-20,30-40,60l43-59,36,5-37-8Z" style="fill:#f2f2f2"/><path d="M177,20,195,4q-1,23-2,46,2-25,4-50Q187,10,177,20Z" style="fill:#f2f2f2"/><path d="M180,283l6,39q1,12.5,2,25V322Q184,302.5,180,283Z" style="fill:#f2f2f2"/></g><g id="highlights_spikes" style="opacity:0.4"><path d="M151,627q.2484.0186-1,20h11q-.25-14.99,0-15,.25-.0084,1,15,8.2337,7.7365,8,8-.234.265-9-7H150l-10,9,9-10Q150.7514,626.979,151,627Z" style="fill:#f2f2f2"/><path d="M144,661l5,6,15-4-15,3Z" style="fill:#f2f2f2"/><path d="M201,472q2.5,10.5,5,21l-18,3-6-25q2,13,4,26-2,7.5-4,15l6-13,20-4,18,11-18-13Q204.5,482.5,201,472Z" style="fill:#f2f2f2"/><path d="M212,414q-.2913.19,7,12,.5,4.5,1,9v-9l8,4-8-5Q212.2876,413.8111,212,414Z" style="fill:#f2f2f2"/><path d="M250,461l8,13h7l-6,1,6,9-7-8-10,8,9-9Q253.5,468,250,461Z" style="fill:#f2f2f2"/><path d="M239,585l9,21-12,6,13-4,9,13-7-14q5-6.5,10-13l-11,11Q244.5,595,239,585Z" style="fill:#f2f2f2"/><path d="M266,647l6,34-6,4,7-3,6,3-5-4Q270,664,266,647Z" style="fill:#f2f2f2"/><path d="M186,544q.5,4.5,1,9l-8,3,8-2q1,4,2,8-.5-4-1-8l6,2-6-3Q187,548.5,186,544Z" style="fill:#f2f2f2"/><path d="M258,361l11,1q1-3,2-6-.5,3.5-1,7l3,6-4-6Z" style="fill:#f2f2f2"/><path d="M335,340l8,4,7-2-6,3,3,6-4-5-3,5q1-3,2-6Z" style="fill:#f2f2f2"/><path d="M292,418q.4541-.3189,14,18l10,1-10,1-9,6q-1,5-2,10v-9l-11-15,12,12,8-5Q291.5485,418.3153,292,418Z" style="fill:#f2f2f2"/><path d="M372,475l20,29c-4.0756,3.919-6.0841,6.0721-6,6l7-6,10,2-10-3Z" style="fill:#f2f2f2"/><path d="M358,422l8,10-11,5,12-4,9,16q-4-8.5-8-17Z" style="fill:#f2f2f2"/><path d="M341,377q1,2.5,2,5-.5,3.5-1,7,1-3.5,2-7l5-3-5,2Z" style="fill:#f2f2f2"/><path d="M351,389l4,5v7q.5-3.5,1-7Z" style="fill:#f2f2f2"/><path d="M361,390l5-3,10,8-10-9Z" style="fill:#f2f2f2"/><path d="M380,405l-3,6,4-6-8-3Z" style="fill:#f2f2f2"/><path d="M384,405l2,1v4l-4,5,5-5v-5Z" style="fill:#f2f2f2"/><path d="M341,250q-.5,8-1,16l3-14,15-5Z" style="fill:#f2f2f2"/><path d="M332,259l-7,8q-.5,6.5-1,13V268l-11,16q5.5-9,11-18Z" style="fill:#f2f2f2"/><path d="M229,326l3,8-8,4,9-3q2,12.5,4,25l-3-27Z" style="fill:#f2f2f2"/><path d="M312,483l12,6,10-1-8,2,4,6-6-5Z" style="fill:#f2f2f2"/><path d="M324,507l8,7,6-7q-2.5,4-5,8l10,6-11-5Z" style="fill:#f2f2f2"/><path d="M309,558l-3,5-8,3,8-2,4,6-3-6Q308,561,309,558Z" style="fill:#f2f2f2"/><path d="M298,520l4,8,3,9q-1-4.5-2-9l9-1h-9Z" style="fill:#f2f2f2"/><path d="M279,543q-.5-4.5-1-9V508q-.5,13-1,26Q278,538.5,279,543Z" style="fill:#f2f2f2"/><path d="M146,594l8,6q-2,4.5-4,9,2.5-4.5,5-9,.5-8,1-16-1,7.5-2,15Z" style="fill:#f2f2f2"/><path d="M306,364v10l-5,1h5l3,5q-1-3-2-6Q306.5,369,306,364Z" style="fill:#f2f2f2"/><path d="M190,605q2.5,9,5,18l15-3-16,4-11-6,11,5Q192,614,190,605Z" style="fill:#f2f2f2"/><path d="M207,652l9-1-8,2q1,12,2,24Z" style="fill:#f2f2f2"/><path d="M205,377l7-2-3-9q2.5,5,5,10Z" style="fill:#f2f2f2"/></g></g></svg>