<svg id="scroll" xmlns="http://www.w3.org/2000/svg" xmlns:xlink="http://www.w3.org/1999/xlink" viewBox="0 0 80 167"><defs><radialGradient id="radial-gradient" cx="-125.4724" cy="-23.0614" r="229.4732" gradientUnits="userSpaceOnUse"><stop offset="0" stop-color="#32bf94"/><stop offset="0.1848" stop-color="#45a894"/><stop offset="0.7386" stop-color="#796792"/><stop offset="1" stop-color="#8e4e92"/></radialGradient><radialGradient id="radial-gradient-2" cx="28.3615" cy="48.217" r="41.8023" gradientTransform="matrix(0.9999, 0.0133, -0.0133, 0.9999, 1.3366, -0.9026)" xlink:href="#radial-gradient"/><radialGradient id="radial-gradient-3" cx="-8.6042" cy="-54.7132" r="192.7572" gradientUnits="userSpaceOnUse"><stop offset="0" stop-color="#329294"/><stop offset="0.2637" stop-color="#537993"/><stop offset="0.5684" stop-color="#736293"/><stop offset="0.8247" stop-color="#875392"/><stop offset="1" stop-color="#8e4e92"/></radialGradient><radialGradient id="radial-gradient-4" cx="-56.2967" cy="-1.3444" r="157.0071" gradientUnits="userSpaceOnUse"><stop offset="0" stop-color="#32bf94"/><stop offset="0.0603" stop-color="#3ab594"/><stop offset="0.358" stop-color="#5e8993"/><stop offset="0.6245" stop-color="#786992"/><stop offset="0.8476" stop-color="#885592"/><stop offset="1" stop-color="#8e4e92"/></radialGradient><radialGradient id="radial-gradient-5" cx="-67.9612" cy="46.893" r="107.3708" gradientUnits="userSpaceOnUse"><stop offset="0" stop-color="#32bf94"/><stop offset="0.025" stop-color="#35bc94"/><stop offset="0.483" stop-color="#608195"/><stop offset="0.821" stop-color="#7c5c96"/><stop offset="1" stop-color="#864e96"/></radialGradient><radialGradient id="radial-gradient-6" cx="-25.2008" cy="30.2548" r="80.8996" xlink:href="#radial-gradient-5"/><radialGradient id="radial-gradient-7" cx="-68.5093" cy="11.6716" r="164.0392" gradientUnits="userSpaceOnUse"><stop offset="0" stop-color="#617eaa"/><stop offset="0.2609" stop-color="#657dae"/><stop offset="0.5254" stop-color="#7078ba"/><stop offset="0.7905" stop-color="#8271ce"/><stop offset="1" stop-color="#9669e4"/></radialGradient><radialGradient id="radial-gradient-8" cx="104.7305" cy="63.0601" r="89.6682" gradientTransform="translate(7.2742 0.9639) rotate(-1.9344)" gradientUnits="userSpaceOnUse"><stop offset="0" stop-color="#8756aa"/><stop offset="0.2565" stop-color="#8658ae"/><stop offset="0.5165" stop-color="#835cba"/><stop offset="0.7771" stop-color="#7e65ce"/><stop offset="1" stop-color="#796ee6"/></radialGradient><radialGradient id="radial-gradient-9" cx="-17.4549" cy="99.5515" r="125.1712" gradientTransform="translate(7.3128 0.9305) rotate(-1.8969)" gradientUnits="userSpaceOnUse"><stop offset="0" stop-color="#6b78d4"/><stop offset="0.2757" stop-color="#6e74d3"/><stop offset="0.5552" stop-color="#7668d1"/><stop offset="0.8354" stop-color="#8354cc"/><stop offset="1" stop-color="#8d44c9"/></radialGradient><radialGradient id="radial-gradient-10" cx="-124.7723" cy="120.6841" r="220.8207" gradientTransform="translate(7.3128 0.9305) rotate(-1.8969)" gradientUnits="userSpaceOnUse"><stop offset="0" stop-color="#787dd4"/><stop offset="0.3109" stop-color="#7c7dd3"/><stop offset="0.6259" stop-color="#887dd0"/><stop offset="0.942" stop-color="#9c7eca"/><stop offset="1" stop-color="#a17ec9"/></radialGradient></defs><g id="bottom"><g id="inner"><path d="M43,0,7,71,1,101q5.5,26.5,11,53l31,11,37-49L62,83Q52.5,41.5,43,0Z" style="fill:url(#radial-gradient)"/><g id="shapes"><path d="M57,90l23,26L62,83Z" style="fill:url(#radial-gradient-2)"/><path d="M43,0q-.5,6-1,12L57,90l5-7Q52.5,41.5,43,0Z" style="fill:url(#radial-gradient-3)"/><path d="M7,71l9,16L42,12q.5-6,1-12Z" style="fill:url(#radial-gradient-4)"/><path d="M0,101l12,53q2-33.5,4-67Z" style="fill:url(#radial-gradient-5)"/><path d="M0,101,16,87,7,71Q3.5,86,0,101Z" style="fill:url(#radial-gradient-6)"/></g></g><g id="_Layer_" data-name="&lt;Layer&gt;"><path d="M16,87q-2,33.5-4,67l3-3L46,95q-2-41.5-4-83Z" style="fill:url(#radial-gradient-7)"/><path d="M42,12q1,41,2,82l3,3,29,18,4,1L57,90Z" style="fill:url(#radial-gradient-8)"/><path d="M43,167l37-51L44,94q-.5,1.5-1,3-.5,34-1,68Z" style="fill:url(#radial-gradient-9)"/><path d="M44,94,12,154l31,13Q43.5,130.5,44,94Z" style="fill:url(#radial-gradient-10)"/></g><g id="highlights" style="opacity:0.5"><path d="M44,163l33-43L43,167,15,155l27,9q.5-12,1-24Q43.5,151.5,44,163Z" style="fill:#f2f2f2"/><path d="M43,67V94L31,117,44,94Q43.5,80.5,43,67Z" style="fill:#f2f2f2"/></g></g></svg>