<svg id="f8c9b783-585f-492e-9eef-debb13e0be98" data-name="bg" xmlns="http://www.w3.org/2000/svg" xmlns:xlink="http://www.w3.org/1999/xlink" viewBox="0 0 400 400"><defs><pattern id="e598e43c-3b57-4c24-8194-fedf3892e89d" data-name="Crystals Pure 3" width="200" height="200" patternUnits="userSpaceOnUse" viewBox="0 0 200 200"><rect width="200" height="200" style="fill:none"/><g id="bede0ca0-3d82-4089-8fbf-df96b9b7396c" data-name="first"><path d="M-75,6l30,27,30,14L0,33Q2,15.5,4-2L-27-53Z" style="fill:#37c976"/></g><g id="e2fda31a-bcb2-438d-a72c-7d35f6e10520" data-name="second"><path d="M5-4-33,23q5-26.5,10-53Z" style="fill:#bbd646"/></g><g id="ee3e8fdb-aee3-46fe-b452-408208e50f97" data-name="third"><polygon points="-45 33 -15 47 13 -23 -45 33" style="fill:#f3ff45"/></g><g id="b15c711c-e95e-485d-8fb6-5c39eb8d2dbe" data-name="first"><path d="M110,88l19,16,10-39c.6588-.2994,33-12,33-12L151,42S120.6951,18.199,113,12L87,26Z" style="fill:#37c976"/><path d="M13-23,29,30,9,19,0,0Z" style="fill:#37c976"/><polygon points="17.167 170.122 42.423 160.843 132 172 158.117 132.825 34 47 -20 84 -6 137 17.167 170.122" style="fill:#37c976"/><path d="M30-20C34-3,43,29,43,29L95,80S84.3333,43,79,25l46-44L44-25Z" style="fill:#37c976"/><path d="M125,6l30,27,30,14,15-14q2-17.5,4-35L173-53Z" style="fill:#37c976"/><polygon points="148 74 140 107 187 148 165 83 181 58 148 74" style="fill:#37c976"/></g><g id="b0379a80-b7bb-4aa6-b8df-eb75d7ff129f" data-name="second"><path d="M205-4,167,23q5-26.5,10-53Z" style="fill:#bbd646"/><path d="M113,12l2,45-5,31L91,37Z" style="fill:#bbd646"/><path d="M39,4" style="fill:#bbd646"/><path d="M55,0,94,78,58,28Z" style="fill:#bbd646"/><polygon points="29 75 19 120 -7 137 -21 84 29 75" style="fill:#bbd646"/><path d="M29,30,9,15,0,0-15,47Z" style="fill:#bbd646"/><path d="M130,136l-3,12L66,134l5-45,20,18,21-6Z" style="fill:#bbd646"/><polygon points="44 -25 104 -13 106 0 44 -25" style="fill:#bbd646"/><polygon points="150 83 150 91 154.78 79.33 150 83" style="fill:#a3d774"/><polygon points="155 97 187 148 140 107 155 97" style="fill:#bbd646"/><polygon points="127 148 132 172 99.462 133.297 127 148" style="fill:#37c976"/></g><g id="aa1c4fc0-4442-4ea6-bfbe-699c91f99314" data-name="third"><path d="M29,75q-5,19-10,38,.5,15,1,30l46-9,25-27L71,89Z" style="fill:#f3ff45"/><path d="M139,65l-25-7-2-8,1-38Z" style="fill:#f3ff45"/><polygon points="155 97 187 148 165 83 155 97" style="fill:#f3ff45"/><polygon points="55 0 95 80 71 -5 30 -20 55 0" style="fill:#f3ff45"/><polygon points="155 33 185 47 213 -23 155 33" style="fill:#f3ff45"/></g><g id="ed216c3d-b6bf-4066-9a9a-054f8e8b5abf" data-name="fourth"><polygon points="99 133 132 172 127 148 120 133 110 107 91 107 99 133" style="fill:#64d682"/><polygon points="72.505 0.264 74.813 16.264 106 0 68.813 -15.022 72.505 0.264" style="fill:#64d682"/><path d="M71,89,29,75q2.5-14,5-28Z" style="fill:#64d682"/><polygon points="165 83 150 91 140 107 148 74 165 83" style="fill:#64d682"/><path d="M112,50,95,47l15,41,4-30Z" style="fill:#64d682"/></g><g id="feae3ed4-ea9c-49fb-949f-933f9a92fa08" data-name="fifth"><polygon points="66 134 57 144 132 172 99 133 66 134" style="fill:#4cc964"/><polygon points="139 65 110 88 114 58 139 65" style="fill:#4cc964"/><polygon points="145 98 155 97 150 91 145 98" style="fill:#4cc964"/><polygon points="165 83 181 58 155 79 165 83" style="fill:#4cc964"/><polygon points="82.582 12.11 75 16 79.418 24.638 106 0 82.582 12.11" style="fill:#4cc964"/><polygon points="150 91 145 87 150.033 82.693 150 91" style="fill:#4cc964"/><path d="M150,91l10-1,5-7Z" style="fill:#4cc964"/></g><g id="fd6d249f-9ab5-4712-95bc-ee18a3a62b53" data-name="sixth"><polygon points="181 58 144.956 86.879 148 74 181 58" style="fill:#0bbe6b"/><polygon points="143.011 95.055 140 107 150 91 143.011 95.055" style="fill:#0bbe6b"/></g><polygon points="20 143 41 161 66 134 20 143" style="fill:#64d682"/><polygon points="57 144 132 172 41 161 57 144" style="fill:#0bbe6b"/><path d="M129.9743,137.0973l-2.9179,11.022c9.9624-5.0744,21.9248-10.1638,31.8872-15.2382C149.9538,134.2815,138.9641,135.6969,129.9743,137.0973Z" style="fill:#4cc964"/><polygon points="130 137 159 133 112 101 130 137" style="fill:#f3ff45"/><polygon points="127 148 159 133 134 151 127 148" style="fill:#0bbe6b"/><polygon points="134 151 132 172 159 133 134 151" style="fill:#64d682"/><polygon points="127 148 132 172 134 151 127 148" style="fill:#4cc964"/><polygon points="112 101 120 133 91 107 112 101" style="fill:#4cc964"/><polygon points="99 133 120 133 127 148 99 133" style="fill:#0bbe6b"/><path d="M103,136" style="fill:#64d682"/><path d="M19,113q.5,15,1,30l-27-6Z" style="fill:#4cc964"/><polygon points="-7 137 20 143 41 161 5.44 153.209 -7 137" style="fill:#0bbe6b"/><polygon points="1 69 29 75 -21 84 1 69" style="fill:#0bbe6b"/><path d="M71,89l27,2L34,47Z" style="fill:#4cc964"/><polygon points="58 28 43 29 40.516 20.022 55 0 58 28" style="fill:#64d682"/><polygon points="43 29 55 0 40 19 43 29" style="fill:#4cc964"/><polygon points="32.934 -8.593 55 0 40 19 32.934 -8.593" style="fill:#0bbe6b"/><path d="M110,88l14,1,10-5q2.5-9.5,5-19Z" style="fill:#0bbe6b"/><polygon points="113 12 146 49 172 53 113 12" style="fill:#4cc964"/><polygon points="146 48 139 65 171.396 53.517 146 48" style="fill:#64d682"/><path d="M110,88l14,1q2.5,7.5,5,15Z" style="fill:#bbd646"/><path d="M173-53q2,11.5,4,23L171,2q-2-13-4-26Z" style="fill:#f3ff45"/><polygon points="167 -25 125 6 167 20 171 2 167 -25" style="fill:#4cc964"/><polygon points="125 6 167 20 138.89 19.099 125 6" style="fill:#0bbe6b"/><path d="M167-25l-7,5L171,3Q169-11,167-25Z" style="fill:#64d682"/><polygon points="125.505 5.253 167 -25 173 -53 162 -29 125.505 5.253" style="fill:#bbd646"/><path d="M0,0,13-23Q11-4,9,15Z" style="fill:#64d682"/><path d="M13-23Q11-4,9,15l12,9Q17,.5,13-23Z" style="fill:#4cc964"/><g id="b41e870e-b415-4cc7-8374-9e8b36d9b078" data-name="first"><polygon points="217.167 170.122 242.423 160.843 332 172 358.117 132.825 234 47 180 84 194 137 217.167 170.122" style="fill:#37c976"/></g><g id="b032fb35-dc91-4e9e-828b-fd48504563db" data-name="second"><polygon points="229 75 219 120 193 137 179 84 229 75" style="fill:#bbd646"/><path d="M229,30,209,15,200,0,185,47Z" style="fill:#bbd646"/></g><path d="M219,113q.5,15,1,30l-27-6Z" style="fill:#4cc964"/><polygon points="193 137 220 143 241 161 205.44 153.209 193 137" style="fill:#0bbe6b"/><polygon points="201 69 229 75 179 84 201 69" style="fill:#0bbe6b"/><g id="a17b5843-00bf-494a-8caa-d9c01124ff16" data-name="first"><path d="M-75,206l30,27,30,14L0,233q2-17.5,4-35l-31-51Z" style="fill:#37c976"/></g><g id="a25f41b2-89f6-48d9-a860-5dd5ac8eedc1" data-name="second"><path d="M5,196l-38,27q5-26.5,10-53Z" style="fill:#bbd646"/></g><g id="b5dbaff9-9fe7-4e43-b46c-12590bbca39a" data-name="third"><polygon points="-45 233 -15 247 13 177 -45 233" style="fill:#f3ff45"/></g><g id="b5bbe585-75b0-49d2-9af8-4c5f6189a2b9" data-name="first"><path d="M13,177l16,53L9,219,0,200Z" style="fill:#37c976"/><path d="M30,180c4,17,13,49,13,49l52,51s-10.6667-37-16-55l46-44-81-6Z" style="fill:#37c976"/><path d="M125,206l30,27,30,14,15-14q2-17.5,4-35l-31-51Z" style="fill:#37c976"/></g><g id="f3844ea4-3e0a-42bc-839d-69833b908e9e" data-name="second"><path d="M205,196l-38,27q5-26.5,10-53Z" style="fill:#bbd646"/><polygon points="44 175 104 187 106 200 44 175" style="fill:#bbd646"/></g><g id="e666d9d0-3ed1-44b6-8106-9e88f0361a5f" data-name="third"><polygon points="55 200 95 280 71 195 30 180 55 200" style="fill:#f3ff45"/><polygon points="155 233 185 247 213 177 155 233" style="fill:#f3ff45"/></g><g id="bd48388c-caef-4f85-aa60-40a394cca467" data-name="fourth"><polygon points="72.505 200.264 74.813 216.264 106 200 68.813 184.978 72.505 200.264" style="fill:#64d682"/></g><polygon points="32.934 191.407 55 200 40 219 32.934 191.407" style="fill:#0bbe6b"/><path d="M173,147q2,11.5,4,23l-6,32q-2-13-4-26Z" style="fill:#f3ff45"/><polygon points="167 175 125 206 167 220 171 202 167 175" style="fill:#4cc964"/><path d="M167,175l-7,5,11,23Q169,189,167,175Z" style="fill:#64d682"/><polygon points="125.505 205.253 167 175 173 147 162 171 125.505 205.253" style="fill:#bbd646"/><path d="M0,200l13-23q-2,19-4,38Z" style="fill:#64d682"/><path d="M13,177q-2,19-4,38l12,9Q17,200.5,13,177Z" style="fill:#4cc964"/></pattern></defs><rect width="400" height="400" style="fill:url(#e598e43c-3b57-4c24-8194-fedf3892e89d)"/></svg>