<svg xmlns="http://www.w3.org/2000/svg" xmlns:xlink="http://www.w3.org/1999/xlink" viewBox="0 0 800 1200"><defs><radialGradient id="aff83f4b-3507-4864-9ccc-66022c1a79d9" cx="390.847" cy="643.7329" r="603.3747" gradientUnits="userSpaceOnUse"><stop offset="0" stop-color="#32bf53"/><stop offset="0.5589" stop-color="#48c279"/><stop offset="1" stop-color="#56c492"/></radialGradient><radialGradient id="b8e102c9-3cd9-4ca5-974c-b9a30ab086fd" cx="602.0361" cy="195.0432" r="262.9606" gradientUnits="userSpaceOnUse"><stop offset="0" stop-color="#ffdd81"/><stop offset="1" stop-color="#a448ac"/></radialGradient><radialGradient id="bbe5128f-95b2-4ff4-8fef-aac826620b10" cx="592.8546" cy="413.4045" r="85.4722" xlink:href="#b8e102c9-3cd9-4ca5-974c-b9a30ab086fd"/><radialGradient id="b11648dc-809f-4fda-9362-8cad30c6f4ab" cx="726.5682" cy="302.0359" r="211.6765" gradientUnits="userSpaceOnUse"><stop offset="0" stop-color="#cd639b"/><stop offset="0.1933" stop-color="#c9629a"/><stop offset="0.3894" stop-color="#bd5f97"/><stop offset="0.5866" stop-color="#a85991"/><stop offset="0.7848" stop-color="#8c5289"/><stop offset="0.9819" stop-color="#68487f"/><stop offset="1" stop-color="#64477e"/></radialGradient><radialGradient id="a3b8ae9a-4f47-43b3-a9f6-b23064ced30d" cx="416.4027" cy="453.9647" r="180.1755" xlink:href="#b8e102c9-3cd9-4ca5-974c-b9a30ab086fd"/><radialGradient id="be9e0b6a-3165-4448-8e9e-f1d8046b1e20" cx="532.2095" cy="340.3137" r="78.1693" xlink:href="#b11648dc-809f-4fda-9362-8cad30c6f4ab"/><radialGradient id="a9403b29-a9a7-4ad8-b2ce-95abae2c1598" cx="626.5216" cy="432.0625" r="85.5885" gradientUnits="userSpaceOnUse"><stop offset="0" stop-color="#cc639b"/><stop offset="0.1785" stop-color="#c8629a"/><stop offset="0.3594" stop-color="#bc5f97"/><stop offset="0.5416" stop-color="#a75b92"/><stop offset="0.7245" stop-color="#8b548c"/><stop offset="0.9065" stop-color="#674c83"/><stop offset="1" stop-color="#51477e"/></radialGradient><radialGradient id="b910b4a4-9315-473a-99dc-a33ce45b04f3" cx="497.0751" cy="332.6515" r="54.4204" xlink:href="#b8e102c9-3cd9-4ca5-974c-b9a30ab086fd"/><radialGradient id="b6a9c071-7d0d-48dc-967f-bc70c3e61a63" cx="529.804" cy="365.7069" r="39.5575" xlink:href="#b11648dc-809f-4fda-9362-8cad30c6f4ab"/><radialGradient id="bc42cad7-7710-4601-bfb3-3dec68e09db2" cx="504.584" cy="458.5068" r="48.9366" gradientUnits="userSpaceOnUse"><stop offset="0" stop-color="#ffdd81"/><stop offset="1" stop-color="#9148ac"/></radialGradient><radialGradient id="afd9fbfb-7c9e-4767-8eb0-891aa9d22e5c" cx="573.6353" cy="330.7487" r="91.0388" xlink:href="#b8e102c9-3cd9-4ca5-974c-b9a30ab086fd"/><radialGradient id="b08825d7-c3cd-416f-ace0-c9abe2a94be0" cx="605.3002" cy="333.2191" r="72.632" xlink:href="#b11648dc-809f-4fda-9362-8cad30c6f4ab"/><radialGradient id="f42877e4-8233-4ccf-aeed-23dee7fab40e" cx="638.4633" cy="491.115" r="125.7418" xlink:href="#b11648dc-809f-4fda-9362-8cad30c6f4ab"/><radialGradient id="aba83ce7-2269-4cef-b3e8-a890cecd19c0" cx="556.4932" cy="435.8169" r="33.6112" gradientUnits="userSpaceOnUse"><stop offset="0" stop-color="#ffdd81"/><stop offset="1" stop-color="#7748ac"/></radialGradient><radialGradient id="af2c5e2b-cc7f-403c-b361-0dce0c15208e" cx="267.1446" cy="277.5533" r="135.9244" gradientUnits="userSpaceOnUse"><stop offset="0" stop-color="#fcee21"/><stop offset="0.4651" stop-color="#a1e452"/><stop offset="0.8293" stop-color="#5fde75"/><stop offset="1" stop-color="#46db83"/></radialGradient><radialGradient id="be93099d-a7f2-4604-8a15-05de34919ea5" cx="289.1119" cy="303.7586" r="199.2497" gradientUnits="userSpaceOnUse"><stop offset="0" stop-color="#fcee21"/><stop offset="0.4677" stop-color="#a0f576"/><stop offset="0.8301" stop-color="#5ef9b3"/><stop offset="1" stop-color="#45fbca"/></radialGradient><radialGradient id="a4145d14-f2bf-456e-9633-2700f3643119" cx="265.7479" cy="126.0401" r="342.1396" gradientUnits="userSpaceOnUse"><stop offset="0" stop-color="#64f968"/><stop offset="0.1919" stop-color="#6af66f"/><stop offset="1" stop-color="#7fe988"/></radialGradient><radialGradient id="a0ec8ce0-c72b-4f2b-8287-9e9a8a0e6646" cx="314.7539" cy="245.9876" r="227.3672" gradientUnits="userSpaceOnUse"><stop offset="0" stop-color="#ffff40"/><stop offset="0.4925" stop-color="#99f76c"/><stop offset="0.8381" stop-color="#57f188"/><stop offset="1" stop-color="#3eef93"/></radialGradient><radialGradient id="ad925bc9-39b5-42bf-97a6-d125ca7c27fc" cx="517.3164" cy="352.2399" r="130.305" gradientUnits="userSpaceOnUse"><stop offset="0" stop-color="#00b5af"/><stop offset="0.5826" stop-color="#2ad5a1"/><stop offset="1" stop-color="#43e899"/></radialGradient><radialGradient id="e3bc79cb-8da0-46b0-9488-b0a873eb9377" cx="258.2042" cy="561.767" r="91.3466" gradientUnits="userSpaceOnUse"><stop offset="0" stop-color="#64f968"/><stop offset="0.5934" stop-color="#63f094"/><stop offset="1" stop-color="#63eaad"/></radialGradient><radialGradient id="ae93ccf7-ce01-47c8-98a5-1e3bac0faaa9" cx="316.5356" cy="571.1399" r="92.859" xlink:href="#ad925bc9-39b5-42bf-97a6-d125ca7c27fc"/><radialGradient id="bacd1c83-18e4-47d9-b045-f626335fdce3" cx="437.7752" cy="341.6337" r="87.1668" gradientUnits="userSpaceOnUse"><stop offset="0" stop-color="#4dc6bd"/><stop offset="0.2151" stop-color="#51c3c0"/><stop offset="0.4332" stop-color="#5db8ca"/><stop offset="0.6526" stop-color="#72a7d9"/><stop offset="0.8718" stop-color="#8e90ef"/><stop offset="1" stop-color="#a27fff"/></radialGradient><radialGradient id="b97bb294-c44f-400c-9ea6-a501e93f63ad" cx="502.1669" cy="311.0701" r="71.8504" gradientUnits="userSpaceOnUse"><stop offset="0" stop-color="#85ff7e"/><stop offset="1" stop-color="#73beae"/></radialGradient><radialGradient id="bbf5cdb9-03d6-4320-a343-dea46f526bba" cx="441.738" cy="373.6238" r="53.8433" gradientUnits="userSpaceOnUse"><stop offset="0" stop-color="#00b5be"/><stop offset="0.5826" stop-color="#2ad5ba"/><stop offset="1" stop-color="#43e8b8"/></radialGradient><radialGradient id="b8ace95f-92eb-4bb6-81a2-0f8ba2e5b25d" cx="482.9823" cy="387.3029" r="60.5339" xlink:href="#ad925bc9-39b5-42bf-97a6-d125ca7c27fc"/><radialGradient id="ad91633d-b1c1-490f-94d0-c7b66b491ce8" cx="436.1879" cy="413.78" r="94.2744" xlink:href="#bacd1c83-18e4-47d9-b045-f626335fdce3"/><radialGradient id="eb4e51e6-5922-442e-921d-0c7fa2c98647" cx="474.0311" cy="475.9359" r="92.3407" gradientUnits="userSpaceOnUse"><stop offset="0" stop-color="#4dc6bd"/><stop offset="0.2356" stop-color="#4ec2c1"/><stop offset="0.4744" stop-color="#53b6cc"/><stop offset="0.7146" stop-color="#5aa1df"/><stop offset="0.9547" stop-color="#6485f9"/><stop offset="1" stop-color="#667fff"/></radialGradient><radialGradient id="b5ca3aad-640e-4c23-86d3-9ddcbfb80041" cx="507.6855" cy="581.9135" r="121.077" gradientUnits="userSpaceOnUse"><stop offset="0" stop-color="#ffe42a"/><stop offset="1" stop-color="#73beff"/></radialGradient><radialGradient id="e3074184-76bb-407c-86a3-4d24e55d765e" cx="506.8009" cy="562.9931" r="131.4346" xlink:href="#bacd1c83-18e4-47d9-b045-f626335fdce3"/><radialGradient id="a111ab4c-3c62-4e63-87b1-9c1b91e4f653" cx="488.8452" cy="619.7338" r="120.3469" xlink:href="#b5ca3aad-640e-4c23-86d3-9ddcbfb80041"/><radialGradient id="a85cd9d7-99fa-4219-95e6-373395cbc69b" cx="406.7056" cy="449.5378" r="161.5685" gradientUnits="userSpaceOnUse"><stop offset="0" stop-color="#78c6bd"/><stop offset="0.2356" stop-color="#77c2c1"/><stop offset="0.4744" stop-color="#74b6cc"/><stop offset="0.7146" stop-color="#6fa1df"/><stop offset="0.9547" stop-color="#6885f9"/><stop offset="1" stop-color="#667fff"/></radialGradient><radialGradient id="a12f41f9-070c-4e62-90ca-4dad4609588b" cx="606.2629" cy="491.3939" r="104.957" xlink:href="#eb4e51e6-5922-442e-921d-0c7fa2c98647"/><radialGradient id="a04c2ced-1489-4bb1-8970-811cddcb8331" cx="406.2248" cy="439.5227" r="127.1594" gradientUnits="userSpaceOnUse"><stop offset="0" stop-color="#00b5af"/><stop offset="0.4224" stop-color="#4cb6b7"/><stop offset="0.8157" stop-color="#8eb8bd"/><stop offset="1" stop-color="#a7b8c0"/></radialGradient><radialGradient id="b5c020f7-30cc-415c-8a71-8bf7aa9e00fc" cx="332.696" cy="566.2428" r="112.1445" gradientUnits="userSpaceOnUse"><stop offset="0" stop-color="#4dc6bd"/><stop offset="0.2204" stop-color="#51c4be"/><stop offset="0.4438" stop-color="#5dbfbf"/><stop offset="0.6687" stop-color="#72b6c2"/><stop offset="0.8932" stop-color="#8eaac7"/><stop offset="1" stop-color="#9ea3c9"/></radialGradient><radialGradient id="bdb24d38-4760-445b-a403-ba2b5a4b9bac" cx="249.553" cy="574.0308" r="29.3385" gradientUnits="userSpaceOnUse"><stop offset="0" stop-color="#00b5af"/><stop offset="0.5392" stop-color="#23b89e"/><stop offset="1" stop-color="#3cba92"/></radialGradient><radialGradient id="bfaec2f8-0b87-4826-b4c0-df98c93338b8" cx="199.0054" cy="497.2132" r="117.0889" gradientUnits="userSpaceOnUse"><stop offset="0" stop-color="#00b5af"/><stop offset="0.3898" stop-color="#42c0a6"/><stop offset="0.8041" stop-color="#83cb9d"/><stop offset="1" stop-color="#9ccf99"/></radialGradient><radialGradient id="aa8f512b-fa90-4e54-b109-057061bc36b9" cx="347.6085" cy="478.9057" r="110.7671" xlink:href="#bfaec2f8-0b87-4826-b4c0-df98c93338b8"/><radialGradient id="a1d704b6-b5f1-4c5e-80dd-79b1414d3b11" cx="499.8501" cy="495.7247" r="144.1177" gradientUnits="userSpaceOnUse"><stop offset="0" stop-color="#009cd1"/><stop offset="0.4778" stop-color="#60c5b4"/><stop offset="0.8334" stop-color="#a2e0a1"/><stop offset="1" stop-color="#bbeb99"/></radialGradient><radialGradient id="bb98b5b1-5071-4505-a646-d3ee04487e2e" cx="298.171" cy="604.9279" r="71.3005" gradientUnits="userSpaceOnUse"><stop offset="0" stop-color="#4dc6bd"/><stop offset="0.1763" stop-color="#4bc2ba"/><stop offset="0.3551" stop-color="#46b6b2"/><stop offset="0.535" stop-color="#3ca1a5"/><stop offset="0.7158" stop-color="#2f8592"/><stop offset="0.8955" stop-color="#1e617a"/><stop offset="1" stop-color="#13486a"/></radialGradient><radialGradient id="f7202b81-812a-4d89-98ed-d0f4a8d1f6fa" cx="233.2317" cy="384.7271" r="91.8744" xlink:href="#bbf5cdb9-03d6-4320-a343-dea46f526bba"/><radialGradient id="a77cee74-0af8-4418-b0df-e42a21a66f58" cx="427.973" cy="449.271" r="76.4812" gradientUnits="userSpaceOnUse"><stop offset="0" stop-color="#00b5af"/><stop offset="0.3198" stop-color="#42c0a6"/><stop offset="0.6596" stop-color="#83cb9d"/><stop offset="0.8203" stop-color="#9ccf99"/></radialGradient><radialGradient id="accc7732-b3c2-414a-9c84-411f40bbb685" cx="454.6639" cy="570.3104" r="157.8675" xlink:href="#eb4e51e6-5922-442e-921d-0c7fa2c98647"/><radialGradient id="b80e3dcb-5b24-46d8-b05a-ea0f096003ee" cx="441.0499" cy="308.6727" r="33.031" xlink:href="#af2c5e2b-cc7f-403c-b361-0dce0c15208e"/><radialGradient id="edac8dfe-f2cf-4be7-9e34-68a25d480eb1" cx="220.0629" cy="365.462" r="185.3955" gradientUnits="userSpaceOnUse"><stop offset="0" stop-color="#64f968"/><stop offset="0.2607" stop-color="#4df78c"/><stop offset="0.7629" stop-color="#23f4cd"/><stop offset="1" stop-color="#12f3e6"/></radialGradient><radialGradient id="a54c66f6-fc11-4e35-b5ed-82cb6597f89a" cx="478.4854" cy="330.7552" r="57.178" xlink:href="#ad925bc9-39b5-42bf-97a6-d125ca7c27fc"/><radialGradient id="ed0af265-d0bf-43b0-a288-b15cad916ef2" cx="493.8104" cy="513.8439" r="177.2991" xlink:href="#bfaec2f8-0b87-4826-b4c0-df98c93338b8"/><radialGradient id="fae84ece-c46f-42e7-abe6-f8943c99bc77" cx="289.4973" cy="383.3364" r="91.4535" gradientUnits="userSpaceOnUse"><stop offset="0" stop-color="#00b5be"/><stop offset="0.4002" stop-color="#45cbbb"/><stop offset="0.8075" stop-color="#86e0b9"/><stop offset="1" stop-color="#9fe8b8"/></radialGradient><radialGradient id="e7306268-fb00-4b98-9be6-d4ec0ed3cac6" cx="435.8614" cy="556.4686" r="117.2257" xlink:href="#bfaec2f8-0b87-4826-b4c0-df98c93338b8"/><radialGradient id="be623352-11a2-4ac7-a14d-384b7a86168b" cx="457.4087" cy="616.5196" r="166.2462" gradientUnits="userSpaceOnUse"><stop offset="0" stop-color="#4dc6bd"/><stop offset="0.1952" stop-color="#51c6bc"/><stop offset="0.3931" stop-color="#5dc6b9"/><stop offset="0.5923" stop-color="#72c5b3"/><stop offset="0.7924" stop-color="#8ec4ab"/><stop offset="0.9915" stop-color="#b2c3a1"/><stop offset="1" stop-color="#b4c3a1"/></radialGradient><radialGradient id="a79b8331-e871-4d83-be49-53e37c9d4cc2" cx="443.6968" cy="398.4358" r="59.3031" xlink:href="#bbf5cdb9-03d6-4320-a343-dea46f526bba"/><radialGradient id="b403d94d-5de5-42e9-9294-936589f82eeb" cx="436.9189" cy="253.592" r="593.2673" gradientTransform="translate(844.3634 831.1651) rotate(180)" xlink:href="#aff83f4b-3507-4864-9ccc-66022c1a79d9"/><radialGradient id="b693c5d5-106c-4173-a852-ed5e9eabdd48" cx="645.0361" cy="-173.9568" r="262.9606" gradientTransform="translate(844.3634 831.1651) rotate(180)" xlink:href="#b8e102c9-3cd9-4ca5-974c-b9a30ab086fd"/><radialGradient id="f679c2e9-3352-462b-a6ec-e4833d11596f" cx="635.8546" cy="44.4045" r="85.4722" gradientTransform="translate(844.3634 831.1651) rotate(180)" xlink:href="#b8e102c9-3cd9-4ca5-974c-b9a30ab086fd"/><radialGradient id="a041d275-75b3-4d22-90ae-f104416c2441" cx="769.5682" cy="-66.9641" r="211.6765" gradientTransform="translate(844.3634 831.1651) rotate(180)" xlink:href="#b11648dc-809f-4fda-9362-8cad30c6f4ab"/><radialGradient id="fdeda2d4-3bc4-447c-8d5e-161c177ef00e" cx="459.4027" cy="84.9647" r="180.1755" gradientTransform="translate(844.3634 831.1651) rotate(180)" xlink:href="#b8e102c9-3cd9-4ca5-974c-b9a30ab086fd"/><radialGradient id="abaa5524-e116-4134-8ebb-f397b072a810" cx="575.2095" cy="-28.6863" r="78.1693" gradientTransform="translate(844.3634 831.1651) rotate(180)" xlink:href="#b11648dc-809f-4fda-9362-8cad30c6f4ab"/><radialGradient id="a7dcf21e-9a74-4a85-86a3-973d34641926" cx="669.5216" cy="63.0625" r="85.5885" gradientTransform="translate(844.3634 831.1651) rotate(180)" xlink:href="#a9403b29-a9a7-4ad8-b2ce-95abae2c1598"/><radialGradient id="bbba8280-0949-4e34-91d4-47eee65f108a" cx="540.0751" cy="-36.3485" r="54.4204" gradientTransform="translate(844.3634 831.1651) rotate(180)" xlink:href="#b8e102c9-3cd9-4ca5-974c-b9a30ab086fd"/><radialGradient id="ac2c5100-0fde-4c33-9b4e-3c96cd339d5b" cx="572.804" cy="-3.2931" r="39.5575" gradientTransform="translate(844.3634 831.1651) rotate(180)" xlink:href="#b11648dc-809f-4fda-9362-8cad30c6f4ab"/><radialGradient id="aba427a9-1736-4293-9b4d-2f4229af2636" cx="547.584" cy="89.5068" r="48.9366" gradientTransform="translate(844.3634 831.1651) rotate(180)" xlink:href="#bc42cad7-7710-4601-bfb3-3dec68e09db2"/><radialGradient id="a4cf6191-20c2-41b7-9fc6-ecfa78ce53e3" cx="616.6353" cy="-38.2513" r="91.0388" gradientTransform="translate(844.3634 831.1651) rotate(180)" xlink:href="#b8e102c9-3cd9-4ca5-974c-b9a30ab086fd"/><radialGradient id="ee452d59-3b60-4076-a299-1a542e9927ab" cx="648.3002" cy="-35.7809" r="72.632" gradientTransform="translate(844.3634 831.1651) rotate(180)" xlink:href="#b11648dc-809f-4fda-9362-8cad30c6f4ab"/><radialGradient id="a5f65d08-2946-4e50-967b-9ef03a0fa5c9" cx="681.4633" cy="122.115" r="125.7418" gradientTransform="translate(844.3634 831.1651) rotate(180)" xlink:href="#b11648dc-809f-4fda-9362-8cad30c6f4ab"/><radialGradient id="bf10230e-5db2-4365-a1eb-9a7723c0ec16" cx="599.4932" cy="66.8169" r="33.6112" gradientTransform="translate(844.3634 831.1651) rotate(180)" xlink:href="#aba83ce7-2269-4cef-b3e8-a890cecd19c0"/><radialGradient id="ae27452e-cb71-4271-a18d-41ac6765c472" cx="310.1446" cy="-91.4467" r="135.9244" gradientTransform="translate(844.3634 831.1651) rotate(180)" xlink:href="#af2c5e2b-cc7f-403c-b361-0dce0c15208e"/><radialGradient id="b5390c87-026d-42ab-8a5d-a929af148be0" cx="332.1119" cy="-65.2414" r="199.2497" gradientTransform="translate(844.3634 831.1651) rotate(180)" xlink:href="#be93099d-a7f2-4604-8a15-05de34919ea5"/><radialGradient id="a735bccd-2b9e-49df-8583-f1292708da83" cx="308.7479" cy="-242.9599" r="342.1396" gradientTransform="translate(844.3634 831.1651) rotate(180)" xlink:href="#a4145d14-f2bf-456e-9633-2700f3643119"/><radialGradient id="e9406b19-48db-4097-8f8a-7b360479ffcd" cx="357.7539" cy="-123.0124" r="227.3672" gradientTransform="translate(844.3634 831.1651) rotate(180)" xlink:href="#a0ec8ce0-c72b-4f2b-8287-9e9a8a0e6646"/><radialGradient id="bbec9596-f4b9-4afc-b1d7-1c991fa7636e" cx="560.3164" cy="-16.7601" r="130.305" gradientTransform="translate(844.3634 831.1651) rotate(180)" xlink:href="#ad925bc9-39b5-42bf-97a6-d125ca7c27fc"/><radialGradient id="e38234f1-fbb5-4997-b222-aa52764da722" cx="301.0013" cy="192.0123" r="91.9113" gradientTransform="translate(844.3634 831.1651) rotate(180)" xlink:href="#e3bc79cb-8da0-46b0-9488-b0a873eb9377"/><radialGradient id="afc41e1e-3bbb-48ef-8c2b-644a105a6ab2" cx="359.5356" cy="202.1399" r="92.859" gradientTransform="translate(844.3634 831.1651) rotate(180)" xlink:href="#ad925bc9-39b5-42bf-97a6-d125ca7c27fc"/><radialGradient id="f9a8f12e-4302-4127-a17c-c87b900ddd25" cx="480.7752" cy="-27.3663" r="87.1668" gradientTransform="translate(844.3634 831.1651) rotate(180)" xlink:href="#bacd1c83-18e4-47d9-b045-f626335fdce3"/><radialGradient id="ac0c6bbd-1b9e-47bc-b0f8-54e9728bf63d" cx="545.1669" cy="-57.9299" r="71.8504" gradientTransform="translate(844.3634 831.1651) rotate(180)" xlink:href="#b97bb294-c44f-400c-9ea6-a501e93f63ad"/><radialGradient id="bea67cd7-b8cc-4a9e-9296-03ff9666b4b3" cx="484.738" cy="4.6238" r="53.8433" gradientTransform="translate(844.3634 831.1651) rotate(180)" xlink:href="#bbf5cdb9-03d6-4320-a343-dea46f526bba"/><radialGradient id="f70430d2-d129-462c-bed4-4a6321d6d2c6" cx="525.9823" cy="18.3029" r="60.5339" gradientTransform="translate(844.3634 831.1651) rotate(180)" xlink:href="#ad925bc9-39b5-42bf-97a6-d125ca7c27fc"/><radialGradient id="a0f9f04c-998c-4a83-937d-6ea665ea9595" cx="479.1879" cy="44.78" r="94.2744" gradientTransform="translate(844.3634 831.1651) rotate(180)" xlink:href="#bacd1c83-18e4-47d9-b045-f626335fdce3"/><radialGradient id="e11d1103-4172-495a-9a85-4ae40173a87b" cx="517.0311" cy="106.9359" r="92.3407" gradientTransform="translate(844.3634 831.1651) rotate(180)" xlink:href="#eb4e51e6-5922-442e-921d-0c7fa2c98647"/><radialGradient id="a178f2e0-e3e4-4209-9729-6c09dc48b2ae" cx="550.6855" cy="212.9135" r="121.077" gradientTransform="translate(844.3634 831.1651) rotate(180)" xlink:href="#b5ca3aad-640e-4c23-86d3-9ddcbfb80041"/><radialGradient id="bf11dad5-a58a-4e9a-a6de-1f36e7f9236f" cx="549.8009" cy="193.9931" r="131.4346" gradientTransform="translate(844.3634 831.1651) rotate(180)" xlink:href="#bacd1c83-18e4-47d9-b045-f626335fdce3"/><radialGradient id="e200be63-2fc3-4222-9dd2-ae951381df2a" cx="531.8452" cy="250.7338" r="120.3469" gradientTransform="translate(844.3634 831.1651) rotate(180)" xlink:href="#b5ca3aad-640e-4c23-86d3-9ddcbfb80041"/><radialGradient id="ec8acfd7-01bb-41ca-9a5f-8767fbfa348f" cx="449.7056" cy="80.5378" r="161.5685" gradientTransform="translate(844.3634 831.1651) rotate(180)" xlink:href="#a85cd9d7-99fa-4219-95e6-373395cbc69b"/><radialGradient id="b9465bda-802f-461d-8a50-2d983a8bfb08" cx="649.2629" cy="122.3939" r="104.957" gradientTransform="translate(844.3634 831.1651) rotate(180)" xlink:href="#eb4e51e6-5922-442e-921d-0c7fa2c98647"/><radialGradient id="e922bfcd-910f-45a4-8cee-b488fd6f9ec8" cx="449.2248" cy="70.5227" r="127.1594" gradientTransform="translate(844.3634 831.1651) rotate(180)" xlink:href="#a04c2ced-1489-4bb1-8970-811cddcb8331"/><radialGradient id="aedb3261-4206-4ae2-a51d-c21a6d1a61f5" cx="375.696" cy="197.2428" r="112.1445" gradientTransform="translate(844.3634 831.1651) rotate(180)" xlink:href="#b5c020f7-30cc-415c-8a71-8bf7aa9e00fc"/><radialGradient id="b0bcfbd8-f34f-496a-aeeb-15302f8529a4" cx="301.0577" cy="204.4455" r="24.2853" gradientTransform="translate(844.3634 831.1651) rotate(180)" xlink:href="#bdb24d38-4760-445b-a403-ba2b5a4b9bac"/><radialGradient id="fb91ed5b-64b8-4703-8bd0-9a4318053384" cx="242.0054" cy="128.2132" r="117.0889" gradientTransform="translate(844.3634 831.1651) rotate(180)" xlink:href="#bfaec2f8-0b87-4826-b4c0-df98c93338b8"/><radialGradient id="b762e91a-8cab-42cf-b1a3-b4e037dd6448" cx="390.6085" cy="109.9057" r="110.7671" gradientTransform="translate(844.3634 831.1651) rotate(180)" xlink:href="#bfaec2f8-0b87-4826-b4c0-df98c93338b8"/><radialGradient id="bc9e9db1-b174-43c7-89eb-bfda18a87a49" cx="542.8501" cy="126.7247" r="144.1177" gradientTransform="translate(844.3634 831.1651) rotate(180)" xlink:href="#a1d704b6-b5f1-4c5e-80dd-79b1414d3b11"/><radialGradient id="bb6be768-2828-45dd-a5b9-00d1e4fd22b1" cx="341.171" cy="235.9279" r="71.3005" gradientTransform="translate(844.3634 831.1651) rotate(180)" xlink:href="#bb98b5b1-5071-4505-a646-d3ee04487e2e"/><radialGradient id="b27589b3-c225-49fe-9f97-24af32d9f325" cx="276.2317" cy="15.7271" r="91.8744" gradientTransform="translate(844.3634 831.1651) rotate(180)" xlink:href="#bbf5cdb9-03d6-4320-a343-dea46f526bba"/><radialGradient id="b660df89-2b9c-485c-8ccf-814bf55fa295" cx="470.973" cy="80.271" r="76.4812" gradientTransform="translate(844.3634 831.1651) rotate(180)" xlink:href="#a77cee74-0af8-4418-b0df-e42a21a66f58"/><radialGradient id="bcf017a7-879a-413a-91b7-f089b69b74af" cx="497.6639" cy="201.3104" r="157.8675" gradientTransform="translate(844.3634 831.1651) rotate(180)" xlink:href="#eb4e51e6-5922-442e-921d-0c7fa2c98647"/><radialGradient id="e072ceae-3b69-4cd0-a1b7-90e0ac48a155" cx="484.0499" cy="-60.3273" r="33.031" gradientTransform="translate(844.3634 831.1651) rotate(180)" xlink:href="#af2c5e2b-cc7f-403c-b361-0dce0c15208e"/><radialGradient id="b8eac07f-4c33-41b0-b86d-a5b877820469" cx="263.0629" cy="-3.538" r="185.3955" gradientTransform="translate(844.3634 831.1651) rotate(180)" xlink:href="#edac8dfe-f2cf-4be7-9e34-68a25d480eb1"/><radialGradient id="bb738dab-0fd9-4c5d-ab49-733ba7513a4c" cx="521.4854" cy="-38.2448" r="57.178" gradientTransform="translate(844.3634 831.1651) rotate(180)" xlink:href="#ad925bc9-39b5-42bf-97a6-d125ca7c27fc"/><radialGradient id="fe73a7df-c330-4afc-a254-de17547f558a" cx="536.8104" cy="144.8439" r="177.2991" gradientTransform="translate(844.3634 831.1651) rotate(180)" xlink:href="#bfaec2f8-0b87-4826-b4c0-df98c93338b8"/><radialGradient id="eb947ed5-3289-4901-bb38-c0cd7df66838" cx="332.4973" cy="14.3364" r="91.4535" gradientTransform="translate(844.3634 831.1651) rotate(180)" xlink:href="#fae84ece-c46f-42e7-abe6-f8943c99bc77"/><radialGradient id="a3e6aff6-0448-483d-94a7-c300d9ec8111" cx="478.8614" cy="187.4686" r="117.2257" gradientTransform="translate(844.3634 831.1651) rotate(180)" xlink:href="#bfaec2f8-0b87-4826-b4c0-df98c93338b8"/><radialGradient id="ed51fc3b-587d-4306-84f7-c217e825eac4" cx="500.4087" cy="247.5196" r="166.2462" gradientTransform="translate(844.3634 831.1651) rotate(180)" xlink:href="#be623352-11a2-4ac7-a14d-384b7a86168b"/><radialGradient id="a38a25d4-c227-44ec-8dad-b56dd9f25312" cx="486.6968" cy="29.4358" r="59.3031" gradientTransform="translate(844.3634 831.1651) rotate(180)" xlink:href="#bbf5cdb9-03d6-4320-a343-dea46f526bba"/></defs><g id="fea12044-f730-4751-ac35-631d82b7ea03" data-name="crystal_base"><path d="M238,610l-27-17,21.0093-39.4361L229.507,455.972l67.5636-85.08,42.54-92.5872q28.7772-20.0187,57.5542-40.0376l47.5447,7.507,25.0236,67.5636,27.5259,42.54q6.2559,40.0377,12.5118,80.0754l40.0376,35.033q15.0143,42.54,30.0283,85.08-5.0047,32.5306-10.0094,65.0612L365,617Z" style="fill:url(#aff83f4b-3507-4864-9ccc-66022c1a79d9)"/><path d="M459.7237,453.47c2.5023-7.5071,167.6577-242.7285,167.6577-242.7285L510.7607,471.3161,492.2543,448.465Z" style="fill:#662d91"/><path d="M490.4339,452.9966,616.2626,338.8851l-102.91,157.8214Z" style="fill:#662d91"/><path d="M502.2637,468.4838l45.7109-14.856,54.3833-17.6746-93.3021,56.0417Z" style="fill:#662d91"/><polygon points="484.747 358.38 519.78 350.873 494.757 383.404 484.747 358.38" style="fill:#662d91"/></g><g id="ebd8c002-223e-4aa8-92c7-0ea6bb190768" data-name="shapes_spikes"><polygon points="502.264 388.408 627.381 210.741 539.799 375.897 502.264 388.408" style="fill:url(#b8e102c9-3cd9-4ca5-974c-b9a30ab086fd)"/><path d="M559.8179,408.4273,509.7708,453.47q-8.8509-19.1852-17.7016-38.37Z" style="fill:url(#bbe5128f-95b2-4ff4-8fef-aac826620b10)"/><polygon points="539.799 378.399 537.819 410.6 627.381 210.741 539.799 378.399" style="fill:url(#b11648dc-809f-4fda-9362-8cad30c6f4ab)"/><polygon points="539.799 375.897 507.323 428.886 502.264 385.906 539.799 375.897" style="fill:url(#a3b8ae9a-4f47-43b3-a9f6-b23064ced30d)"/><path d="M539.799,375.8967l-1.9284,34.2513-38.1093,25.8052Z" style="fill:url(#be9e0b6a-3165-4448-8e9e-f1d8046b1e20)"/><polygon points="601.175 437.328 569.827 445.963 549.808 470.986 601.175 437.328" style="fill:url(#a9403b29-a9a7-4ad8-b2ce-95abae2c1598)"/><path d="M522.2825,350.8731,494.7566,370.892q2.5025-7.5072,5.0047-15.0142Z" style="fill:url(#b910b4a4-9315-473a-99dc-a33ce45b04f3)"/><polygon points="522.283 350.873 497.231 382.359 494.757 368.39 522.283 350.873" style="fill:url(#b6a9c071-7d0d-48dc-967f-bc70c3e61a63)"/><path d="M549.8084,473.4885,532.292,458.4744l17.5164-5.0047Z" style="fill:url(#bc42cad7-7710-4601-bfb3-3dec68e09db2)"/><path d="M624.8791,330.8543l-65.0612,77.573-21.9473,1.7207Z" style="fill:url(#afd9fbfb-7c9e-4767-8eb0-891aa9d22e5c)"/><polygon points="624.879 330.854 572.962 405.815 558.113 409.115 624.879 330.854" style="fill:url(#b08825d7-c3cd-416f-ace0-c9abe2a94be0)"/><polygon points="572.33 405.925 537.159 460.097 518.433 446.32 557.316 408.427 572.33 405.925" style="fill:url(#f42877e4-8233-4ccf-aeed-23dee7fab40e)"/><polygon points="569.827 445.963 549.808 470.986 549.808 453.47 569.827 445.963" style="fill:url(#aba83ce7-2269-4cef-b3e8-a890cecd19c0)"/></g><g id="f5c42e87-a3bf-4036-b144-d08cdd906dc8" data-name="shapes_main"><path d="M338.5725,276.4573Q351.57,338.3512,364.5679,400.245l-67.4973-29.3531Z" style="fill:url(#af2c5e2b-cc7f-403c-b361-0dce0c15208e)"/><path d="M364.5679,400.245,229.507,455.972l67.5636-85.08Z" style="fill:url(#be93099d-a7f2-4604-8a15-05de34919ea5)"/><path d="M364.5679,402.7207q17.33-87.8892,34.6606-175.7784l46.7322,17.5807Q405.2644,323.6219,364.5679,402.7207Z" style="fill:url(#a4145d14-f2bf-456e-9633-2700f3643119)"/><path d="M338.5725,277.6952l25.9954,122.55q17.33-86.6514,34.6606-173.3027Z" style="fill:url(#a0ec8ce0-c72b-4f2b-8287-9e9a8a0e6646)"/><path d="M449.9814,306.1664l-85.4135,96.5543q40.6965-79.0988,81.3928-158.1977Q447.971,275.3447,449.9814,306.1664Z" style="fill:url(#ad925bc9-39b5-42bf-97a6-d125ca7c27fc)"/><path d="M224,573l50.203-104.6718L229.507,455.972Z" style="fill:url(#e3bc79cb-8da0-46b0-9488-b0a873eb9377)"/><path d="M274.203,468.3282l55.3982,20.1744-97.5919,62.559Z" style="fill:url(#ae93ccf7-ce01-47c8-98a5-1e3bac0faaa9)"/><path d="M465.98,312.0866l-18.7676,48.7959,52.5494-5.0047Z" style="fill:url(#bacd1c83-18e4-47d9-b045-f626335fdce3)"/><path d="M447.2119,360.8826q1.3846-27.3582,2.7695-54.7162l18.5,3.4178Z" style="fill:url(#b97bb294-c44f-400c-9ea6-a501e93f63ad)"/><path d="M418.4348,399.6691q15.7733-46.7514,31.5466-93.5027-1.8569,26.6143-3.7136,53.2287Q432.3512,379.532,418.4348,399.6691Z" style="fill:url(#bbf5cdb9-03d6-4320-a343-dea46f526bba)"/><path d="M447.2119,358.38q-14.3886,20.6443-28.7771,41.2889" style="fill:url(#b8ace95f-92eb-4bb6-81a2-0f8ba2e5b25d)"/><path d="M512.2731,440.9579l-11.2606-86.3312-55.0518,5.0047Q479.1169,400.2946,512.2731,440.9579Z" style="fill:url(#ad91633d-b1c1-490f-94d0-c7b66b491ce8)"/><path d="M549.8084,468.4838,509.7708,491.005l71.3171,63.81Z" style="fill:url(#eb4e51e6-5922-442e-921d-0c7fa2c98647)"/><path d="M377.1459,568.578l128.8713-43.7912h0l3.7536-33.7818Z" style="fill:url(#b5ca3aad-640e-4c23-86d3-9ddcbfb80041)"/><path d="M586.0926,559.82,509.7708,491.005l-3.7536,33.7818Z" style="fill:url(#e3074184-76bb-407c-86a3-4d24e55d765e)"/><path d="M369.6389,571.08,593.6,564.8245l-87.5824-40.0377Z" style="fill:url(#a111ab4c-3c62-4e63-87b1-9c1b91e4f653)"/><path d="M482.2449,473.4885l27.5259,17.5165V435.9532Q496.0077,454.7209,482.2449,473.4885Z" style="fill:url(#a85cd9d7-99fa-4219-95e6-373395cbc69b)"/><path d="M549.8084,468.4838l-40.0376-32.5306V491.005Z" style="fill:url(#a12f41f9-070c-4e62-90ca-4dad4609588b)"/><path d="M447.2119,358.38l37.5353,112.606,25.0236-35.033Q478.4913,397.1667,447.2119,358.38Z" style="fill:url(#a04c2ced-1489-4bb1-8970-811cddcb8331)"/><polygon points="346.183 518.228 413.43 537.299 378.397 569.829 346.183 518.228" style="fill:url(#b5c020f7-30cc-415c-8a71-8bf7aa9e00fc)"/><path d="M215,597l69.106-40.7826-52.0967-5.1558Q223.5048,574.0308,215,597Z" style="fill:url(#bdb24d38-4760-445b-a403-ba2b5a4b9bac)"/><path d="M329.6012,488.5026l-46.7331,67.7148q-25.4293-2.5781-50.8588-5.1558Z" style="fill:url(#bfaec2f8-0b87-4826-b4c0-df98c93338b8)"/><path d="M378.3971,569.8292l-95.529-13.6118L328.35,489.7538Z" style="fill:url(#aa8f512b-fa90-4e54-b109-057061bc36b9)"/><path d="M454.7189,438.4555l-2.5023,62.5589,32.5306-30.0282Z" style="fill:url(#a1d704b6-b5f1-4c5e-80dd-79b1414d3b11)"/><path d="M216.9819,597.3285,375.139,572.8411l-91.033-15.3859Z" style="fill:url(#bb98b5b1-5071-4505-a646-d3ee04487e2e)"/><path d="M364.5679,400.245,274.203,469.566q27.6992,9.4683,55.3982,18.9366Z" style="fill:url(#f7202b81-812a-4d89-98ed-d0f4a8d1f6fa)"/><path d="M447.2119,358.38l37.5353,112.606q-33.273-36.0918-66.5461-72.1834Z" style="fill:url(#a77cee74-0af8-4418-b0df-e42a21a66f58)"/><path d="M484.7472,470.9862l25.0236,20.0188-127.62,75.0707Q433.4489,518.531,484.7472,470.9862Z" style="fill:url(#accc7732-b3c2-414a-9c84-411f40bbb685)"/><path d="M446.9094,357.4727q2.1549-26.272,4.31-52.5442" style="fill:url(#b80e3dcb-5b24-46d8-b05a-ea0f096003ee)"/><path d="M229.6394,455.9494,364.5679,400.245,274.203,469.566Z" style="fill:url(#edac8dfe-f2cf-4be7-9e34-68a25d480eb1)"/><path d="M446.2678,244.2726l22.2817,64.37-18.5681-2.4757Q448.1246,275.2195,446.2678,244.2726Z" style="fill:url(#a54c66f6-fc11-4e35-b5ed-82cb6597f89a)"/><polygon points="419.034 400.245 451.354 497.407 453.235 440.791 419.034 400.245" style="fill:url(#ed0af265-d0bf-43b0-a288-b15cad916ef2)"/><path d="M419.0345,399.0071l-89.1271,89.1271L363.33,400.245Z" style="fill:url(#fae84ece-c46f-42e7-abe6-f8943c99bc77)"/><path d="M328.67,489.372l90.365-90.3649,33.1821,102.0073Z" style="fill:url(#e7306268-fb00-4b98-9be6-d4ec0ed3cac6)"/><path d="M328.67,489.372l123.7876,11.1409L414.083,537.6492l-67.6751-18.6634Z" style="fill:url(#be623352-11a2-4ac7-a14d-384b7a86168b)"/><path d="M449.9814,306.1664q-15.4735,46.42-30.9469,92.8407l-54.4666,1.2379Z" style="fill:url(#a79b8331-e871-4d83-be49-53e37c9d4cc2)"/></g><g id="eacf3a57-5ad3-4779-9c15-843925fcc1fd" data-name="highlights" style="opacity:0.5"><path d="M468.55,309.88l-14.8545-3.7136q-3.7135-30.947-7.4272-61.8938,1.2378,30.9468,2.4757,61.8938l-66.8453,74.2725L448.7435,309.88q-.7657,24.25-1.5316,48.5l5.2452-49.7381Z" style="fill:#f2f2f2"/><path d="M363.33,401.4828l-36.2313,87.02,20.8163,32.5582,65.515,16.2378-63.81-18.7677-20.0188-30.0283Z" style="fill:#f2f2f2"/><polygon points="372.141 400.92 418.201 400.535 452.217 438.456 452.217 501.014 454.719 435.953 419.438 398.06 372.141 400.92" style="fill:#f2f2f2"/><polygon points="509.028 437.658 509.028 488.888 486.26 472.306 508.286 491.115 382.151 566.076 508.286 492.847 504.766 526.038 510.018 492.352 577.334 553.564 512.273 491.005 549.121 470.079 512.273 488.503 509.028 437.658" style="fill:#f2f2f2"/><path d="M623.9441,216.9009,537.2967,375.8967l-32.8056,8.9645,31.3481-5.94q-13.22,19.9458-26.44,39.8916v3.7136l28.42-41.9553,2.5273-3.8461Z" style="fill:#f2f2f2"/><path d="M620.6443,334.9515q-.3552-.3075-64.2056,72.7207l-18.5681,2.4758,16.695-.9508L519.78,443.46l37.8964-34.55q.6189-.6189,1.2379-1.2379Q620.9989,335.2539,620.6443,334.9515Z" style="fill:#f2f2f2"/><polygon points="568.818 446.046 550.78 470.097 569.552 446.917 601.002 437.381 568.818 446.046" style="fill:#f2f2f2"/><path d="M297.7226,370.5359l40.85-92.8407,60.656-49.515-58.18,51.9908q11.76,60.037,23.52,120.074-12.9977-58.18-25.9954-116.36Q318.1476,327.21,297.7226,370.5359Z" style="fill:#f2f2f2"/><path d="M232.4689,456.2215,272.9651,467.09q89.8833-66.2564,90.365-65.6075.4792.6405-86.6514,66.8454l48.2772,17.33L274.203,472.0418l-38.4694,74.6126,35.9936-75.8505Z" style="fill:#f2f2f2"/><polygon points="475.365 321.388 499.761 355.878 511.93 435.327 497.021 356.919 458.062 359.259 495.783 354.444 475.365 321.388" style="fill:#f2f2f2"/><path d="M315.0529,507.94,281.7663,554,242.59,551.0618l37.8029,5.1556-23.52,16.0923,27.2333-14.8545q58.0833,8.0806,58.18,7.4273.0976-.6485-56.9423-9.903Z" style="fill:#f2f2f2"/></g><g id="f4222d3f-4a17-4257-9451-4cb7028020f3" data-name="bottom"><g id="b89dd88b-0cfa-4c3f-bc98-6b640e33a00b" data-name="crystal_base copy"><path d="M548,599l36.3681,10.066L569.354,646.6012q1.2511,48.7961,2.5024,97.5919l-67.5636,85.08-42.54,92.5871L404.1986,961.898l-47.5448-7.5071q-12.5116-33.7818-25.0235-67.5636l-27.5259-42.54-12.5118-80.0754L251.5549,729.179l-30.0282-85.08L249,609l205,3Z" style="fill:url(#b403d94d-5de5-42e9-9294-936589f82eeb)"/><path d="M341.64,746.6955c-2.5023,7.507-167.6578,242.7284-167.6578,242.7284L290.6027,728.849,309.1091,751.7Z" style="fill:#662d91"/><path d="M310.93,747.1686,185.1008,861.28l102.91-157.8214Z" style="fill:#662d91"/><path d="M299.1,731.6813l-45.7109,14.8561-54.3833,17.6745L292.3076,708.17Z" style="fill:#662d91"/><polygon points="316.616 841.785 281.583 849.292 306.607 816.761 316.616 841.785" style="fill:#662d91"/></g><g id="ba66e59a-8c84-4b96-8373-e2e6a7ae6efc" data-name="shapes_spikes copy"><polygon points="299.1 811.757 173.982 989.424 261.564 824.268 299.1 811.757" style="fill:url(#b693c5d5-106c-4173-a852-ed5e9eabdd48)"/><path d="M241.5455,791.7379l50.0471-45.0424q8.8508,19.185,17.7016,38.37Z" style="fill:url(#f679c2e9-3352-462b-a6ec-e4833d11596f)"/><polygon points="261.564 821.766 263.544 789.565 173.982 989.424 261.564 821.766" style="fill:url(#a041d275-75b3-4d22-90ae-f104416c2441)"/><polygon points="261.564 824.268 294.04 771.279 299.1 814.259 261.564 824.268" style="fill:url(#fdeda2d4-3bc4-447c-8d5e-161c177ef00e)"/><path d="M261.5643,824.2685q.9643-17.1258,1.9285-34.2513l38.1092-25.8053Z" style="fill:url(#abaa5524-e116-4134-8ebb-f397b072a810)"/><polygon points="200.188 762.837 231.536 754.203 251.555 729.179 200.188 762.837" style="fill:url(#a7dcf21e-9a74-4a85-86a3-973d34641926)"/><path d="M279.0808,849.292l27.5259-20.0188q-2.5023,7.5071-5.0047,15.0141Z" style="fill:url(#bbba8280-0949-4e34-91d4-47eee65f108a)"/><polygon points="279.081 849.292 304.132 817.806 306.607 831.776 279.081 849.292" style="fill:url(#ac2c5100-0fde-4c33-9b4e-3c96cd339d5b)"/><path d="M251.5549,726.6766l17.5165,15.0142-17.5165,5.0047Z" style="fill:url(#aba427a9-1736-4293-9b4d-2f4229af2636)"/><path d="M176.4843,869.3109l65.0612-77.573,21.9473-1.7207Z" style="fill:url(#a4cf6191-20c2-41b7-9fc6-ecfa78ce53e3)"/><polygon points="176.484 869.311 228.401 794.35 243.25 791.05 176.484 869.311" style="fill:url(#ee452d59-3b60-4076-a299-1a542e9927ab)"/><polygon points="229.034 794.24 264.204 740.068 282.931 753.845 244.048 791.738 229.034 794.24" style="fill:url(#a5f65d08-2946-4e50-967b-9ef03a0fa5c9)"/><polygon points="231.536 754.203 251.555 729.179 251.555 746.695 231.536 754.203" style="fill:url(#bf10230e-5db2-4365-a1eb-9a7723c0ec16)"/></g><g id="ee1846bb-2d9a-40f2-b19f-08db0c8acb35" data-name="shapes_main copy"><path d="M462.7908,923.7078Q449.7932,861.8139,436.7954,799.92l67.4974,29.353Z" style="fill:url(#ae27452e-cb71-4271-a18d-41ac6765c472)"/><path d="M436.7954,799.92l135.061-55.7271-67.5636,85.08Z" style="fill:url(#b5390c87-026d-42ab-8a5d-a929af148be0)"/><path d="M436.7954,797.4444l-34.66,175.7784-46.7322-17.5807Z" style="fill:url(#a735bccd-2b9e-49df-8583-f1292708da83)"/><path d="M462.7908,922.47,436.7954,799.92l-34.66,173.3026Z" style="fill:url(#e9406b19-48db-4097-8f8a-7b360479ffcd)"/><path d="M351.382,893.9988l85.4134-96.5544L355.4027,955.6421Q353.3923,924.82,351.382,893.9988Z" style="fill:url(#bbec9596-f4b9-4afc-b1d7-1c991fa7636e)"/><path d="M578,628,527.16,731.837l44.696,12.3561Q574.9283,686.0966,578,628Z" style="fill:url(#e38234f1-fbb5-4997-b222-aa52764da722)"/><path d="M527.16,731.837l-55.3982-20.1745,97.5918-62.5589Z" style="fill:url(#afc41e1e-3bbb-48ef-8c2b-644a105a6ab2)"/><path d="M335.3838,888.0785l18.7677-48.7959-52.55,5.0047Z" style="fill:url(#f9a8f12e-4302-4127-a17c-c87b900ddd25)"/><path d="M354.1515,839.2826q-1.3848,27.3581-2.7695,54.7162l-18.5-3.4179Z" style="fill:url(#ac0c6bbd-1b9e-47bc-b0f8-54e9728bf63d)"/><path d="M382.9286,800.4961q-15.7733,46.7513-31.5466,93.5027,1.8567-26.6143,3.7136-53.2287Q369.012,820.6331,382.9286,800.4961Z" style="fill:url(#bea67cd7-b8cc-4a9e-9296-03ff9666b4b3)"/><path d="M354.1515,841.785q14.3885-20.6445,28.7771-41.2889" style="fill:url(#f70430d2-d129-462c-bed4-4a6321d6d2c6)"/><path d="M289.09,759.2072l11.2606,86.3313,55.0518-5.0047Z" style="fill:url(#a0f9f04c-998c-4a83-937d-6ea665ea9595)"/><path d="M251.5549,731.6813,291.5926,709.16l-71.3171-63.81Q235.9151,688.5158,251.5549,731.6813Z" style="fill:url(#e11d1103-4172-495a-9a85-4ae40173a87b)"/><path d="M424.2174,631.5871,295.3461,675.3783h0L291.5926,709.16Z" style="fill:url(#a178f2e0-e3e4-4209-9729-6c09dc48b2ae)"/><path d="M215.2708,640.3454,291.5926,709.16l3.7535-33.7818Z" style="fill:url(#bf11dad5-a58a-4e9a-a6de-1f36e7f9236f)"/><path d="M431.7245,629.0848l-223.9608,6.2559,87.5824,40.0376Z" style="fill:url(#e200be63-2fc3-4222-9dd2-ae951381df2a)"/><path d="M319.1185,726.6766,291.5926,709.16v55.0518Z" style="fill:url(#ec8acfd7-01bb-41ca-9a5f-8767fbfa348f)"/><path d="M251.5549,731.6813l40.0377,32.5306V709.16Z" style="fill:url(#b9465bda-802f-461d-8a50-2d983a8bfb08)"/><path d="M354.1515,841.785,316.6162,729.179l-25.0236,35.0329Z" style="fill:url(#e922bfcd-910f-45a4-8cee-b488fd6f9ec8)"/><polygon points="455.181 681.937 387.933 662.867 422.966 630.336 455.181 681.937" style="fill:url(#aedb3261-4206-4ae2-a51d-c21a6d1a61f5)"/><path d="M569.2482,604.3357q-25.9954,19.8062-51.9908,39.6121l52.0966,5.1558Z" style="fill:url(#b0bcfbd8-f34f-496a-aeeb-15302f8529a4)"/><path d="M471.7622,711.6625l46.7331-67.7147,50.8587,5.1558Z" style="fill:url(#fb91ed5b-64b8-4703-8bd0-9a4318053384)"/><path d="M422.9663,630.336l95.529,13.6118-45.4819,66.4635Z" style="fill:url(#b762e91a-8cab-42cf-b1a3-b4e037dd6448)"/><path d="M346.6444,761.71q1.2511-31.28,2.5024-62.5589L316.6162,729.179Z" style="fill:url(#bc9e9db1-b174-43c7-89eb-bfda18a87a49)"/><path d="M584.3814,602.8367,426.2244,627.324l91.033,15.3859Z" style="fill:url(#bb6be768-2828-45dd-a5b9-00d1e4fd22b1)"/><path d="M436.7954,799.92l90.365-69.3211-55.3982-18.9366Z" style="fill:url(#b27589b3-c225-49fe-9f97-24af32d9f325)"/><path d="M354.1515,841.785,316.6162,729.179l66.5461,72.1833Z" style="fill:url(#b660df89-2b9c-485c-8ccf-814bf55fa295)"/><path d="M316.6162,729.179,291.5926,709.16l127.62-75.0706Z" style="fill:url(#bcf017a7-879a-413a-91b7-f089b69b74af)"/><path d="M354.454,842.6924q-2.1551,26.272-4.31,52.5442" style="fill:url(#e072ceae-3b69-4cd0-a1b7-90e0ac48a155)"/><path d="M571.7239,744.2157,436.7954,799.92l90.365-69.3211Z" style="fill:url(#b8eac07f-4c33-41b0-b86d-a5b877820469)"/><path d="M355.0956,955.8926q-11.1409-32.1849-22.2818-64.37l18.5682,2.4758Q353.2387,924.9456,355.0956,955.8926Z" style="fill:url(#bb738dab-0fd9-4c5d-ab49-733ba7513a4c)"/><polygon points="382.329 799.92 350.009 702.758 348.128 759.374 382.329 799.92" style="fill:url(#fe73a7df-c330-4afc-a254-de17547f558a)"/><path d="M382.3289,801.1581,471.456,712.031,438.0333,799.92Z" style="fill:url(#eb947ed5-3289-4901-bb38-c0cd7df66838)"/><path d="M472.6938,710.7931l-90.3649,90.365L349.1468,699.1507Z" style="fill:url(#a3e6aff6-0448-483d-94a7-c300d9ec8111)"/><path d="M472.6938,710.7931,348.9062,699.6522,387.28,662.5159l67.6751,18.6634Q463.8246,695.9863,472.6938,710.7931Z" style="fill:url(#ed51fc3b-587d-4306-84f7-c217e825eac4)"/><path d="M351.382,893.9988q15.4734-46.42,30.9469-92.8407l54.4665-1.2379Q394.0888,846.9595,351.382,893.9988Z" style="fill:url(#a38a25d4-c227-44ec-8dad-b56dd9f25312)"/></g><g id="f38b4ae1-8c02-41b5-b62e-2b8dd0d7b2e3" data-name="highlights copy" style="opacity:0.5"><path d="M332.8138,890.2851l14.8545,3.7137q3.7137,30.9468,7.4273,61.8938-1.2378-30.947-2.4758-61.8938l66.8454-74.2726L352.62,890.2851q.7659-24.25,1.5317-48.5-2.6227,24.8689-5.2453,49.738Z" style="fill:#f2f2f2"/><path d="M438.0333,798.6823l36.2312-87.02-20.8163-32.5581-65.5149-16.2378,63.81,18.7676,20.0189,30.0283Z" style="fill:#f2f2f2"/><polygon points="429.222 799.245 383.162 799.63 349.147 761.71 349.147 699.151 346.644 764.212 381.925 802.105 429.222 799.245" style="fill:#f2f2f2"/><polygon points="292.335 762.507 292.335 711.278 315.104 727.859 293.078 709.05 419.213 634.089 293.078 707.318 296.597 674.127 291.345 707.813 224.029 646.601 289.09 709.16 252.242 730.086 289.09 711.662 292.335 762.507" style="fill:#f2f2f2"/><path d="M177.4192,983.2643l86.6475-158.9958,32.8056-8.9645-31.3482,5.94,26.44-39.8917v-3.7136l-28.42,41.9553L261.017,823.44Q219.2182,903.352,177.4192,983.2643Z" style="fill:#f2f2f2"/><path d="M180.7191,865.2136q.3552.3076,64.2055-72.7207l18.5682-2.4757-16.6951.9507,34.7855-34.263-37.8965,34.55-1.2378,1.2379Q180.3645,864.9113,180.7191,865.2136Z" style="fill:#f2f2f2"/><polygon points="232.546 754.119 250.583 730.069 231.811 753.248 200.361 762.784 232.546 754.119" style="fill:#f2f2f2"/><path d="M503.6407,829.6292l-40.85,92.8407L402.1349,971.985l58.18-51.9908-23.52-120.074q12.9978,58.18,25.9954,116.36Q483.2159,872.9548,503.6407,829.6292Z" style="fill:#f2f2f2"/><path d="M568.8945,743.9437l-40.4962-10.8688q-89.8834,66.2562-90.365,65.6074-.4794-.6405,86.6513-66.8453l-48.2771-17.33L527.16,728.1234q19.2347-37.3063,38.4694-74.6127l-35.9937,75.8505Z" style="fill:#f2f2f2"/><polygon points="325.999 878.777 301.602 844.287 289.434 764.838 304.343 843.246 343.302 840.906 305.581 845.722 325.999 878.777" style="fill:#f2f2f2"/><path d="M486.3105,692.2249l33.2866-46.06,39.1767,2.9383-37.8028-5.1556,23.52-16.0924L517.2574,642.71q-58.0833-8.0806-58.18-7.4273-.0977.6484,56.9423,9.9031Z" style="fill:#f2f2f2"/></g></g></svg>