<svg id="scroll" xmlns="http://www.w3.org/2000/svg" xmlns:xlink="http://www.w3.org/1999/xlink" viewBox="0 0 600 1000"><defs><radialGradient id="radial-gradient" cx="322.8248" cy="297.5209" r="244.2377" gradientTransform="translate(-14.6958 9.5377) rotate(-1.8969)" gradientUnits="userSpaceOnUse"><stop offset="0" stop-color="#00ceaf"/><stop offset="0.2554" stop-color="#23afad"/><stop offset="0.7612" stop-color="#6476a9"/><stop offset="1" stop-color="#7d5fa7"/></radialGradient><radialGradient id="radial-gradient-2" cx="307.2857" cy="375.7305" r="183.1557" gradientTransform="matrix(1, 0, 0, 1, 0, 0)" xlink:href="#radial-gradient"/><radialGradient id="radial-gradient-3" cx="356.6577" cy="327.4151" r="184.7842" gradientTransform="matrix(1, 0, 0, 1, 0, 0)" xlink:href="#radial-gradient"/><radialGradient id="radial-gradient-4" cx="310.37" cy="329.3516" r="240.3012" gradientTransform="matrix(1, 0, 0, 1, 0, 0)" xlink:href="#radial-gradient"/><radialGradient id="radial-gradient-5" cx="324.5604" cy="324.5456" r="275.2232" gradientTransform="matrix(1, 0, 0, 1, 0, 0)" xlink:href="#radial-gradient"/><radialGradient id="radial-gradient-6" cx="270.979" cy="277.9005" r="393.9144" gradientTransform="matrix(1, 0, 0, 1, 0, 0)" xlink:href="#radial-gradient"/><radialGradient id="radial-gradient-7" cx="297.4462" cy="205.2456" r="341.0425" gradientTransform="matrix(1, 0, 0, 1, 0, 0)" xlink:href="#radial-gradient"/><radialGradient id="radial-gradient-8" cx="365.8332" cy="328.729" r="134.5754" gradientTransform="translate(-14.6958 9.5377) rotate(-1.8969)" gradientUnits="userSpaceOnUse"><stop offset="0" stop-color="#00c4ba"/><stop offset="0.1848" stop-color="#17c9b7"/><stop offset="0.7386" stop-color="#58d9ad"/><stop offset="1" stop-color="#71dfa9"/></radialGradient><radialGradient id="radial-gradient-9" cx="449.4467" cy="384.2551" r="138.7992" gradientUnits="userSpaceOnUse"><stop offset="0" stop-color="#04c0c1"/><stop offset="0.5589" stop-color="#2ad4b4"/><stop offset="1" stop-color="#43e2ab"/></radialGradient><radialGradient id="radial-gradient-10" cx="456.2158" cy="364.6869" r="194.5211" gradientTransform="translate(-14.6958 9.5377) rotate(-1.8969)" gradientUnits="userSpaceOnUse"><stop offset="0" stop-color="#00c1be"/><stop offset="0.5826" stop-color="#2ad9a8"/><stop offset="1" stop-color="#43e89a"/></radialGradient><radialGradient id="radial-gradient-11" cx="384.4313" cy="367.0769" r="118.59" gradientUnits="userSpaceOnUse"><stop offset="0" stop-color="#6cd3b5"/><stop offset="0.2731" stop-color="#68d4b6"/><stop offset="0.5499" stop-color="#5cd5b7"/><stop offset="0.8274" stop-color="#48d8ba"/><stop offset="1" stop-color="#37dabc"/></radialGradient><radialGradient id="radial-gradient-12" cx="424.8354" cy="342.7435" r="159.6755" gradientUnits="userSpaceOnUse"><stop offset="0" stop-color="#76eaa9"/><stop offset="1" stop-color="#6760ff"/></radialGradient><radialGradient id="radial-gradient-13" cx="432.032" cy="285.5834" r="171.1714" gradientTransform="translate(-14.6958 9.5377) rotate(-1.8969)" gradientUnits="userSpaceOnUse"><stop offset="0" stop-color="#4dc6bd"/><stop offset="0.2204" stop-color="#51c3be"/><stop offset="0.4438" stop-color="#5dbabf"/><stop offset="0.6687" stop-color="#72aac2"/><stop offset="0.8932" stop-color="#8e94c7"/><stop offset="1" stop-color="#9e88c9"/></radialGradient><radialGradient id="radial-gradient-14" cx="382.1975" cy="500.9329" r="318.6401" gradientTransform="translate(-14.6958 9.5377) rotate(-1.8969)" gradientUnits="userSpaceOnUse"><stop offset="0" stop-color="#00b5af"/><stop offset="0.5826" stop-color="#2ad5a1"/><stop offset="1" stop-color="#43e899"/></radialGradient><radialGradient id="radial-gradient-15" cx="352.3846" cy="413.8791" r="196.2136" gradientTransform="matrix(1, 0, 0, 1, 0, 0)" xlink:href="#radial-gradient-14"/><radialGradient id="radial-gradient-16" cx="358.4505" cy="439.989" r="258.8147" gradientUnits="userSpaceOnUse"><stop offset="0" stop-color="#00b5af"/><stop offset="1" stop-color="#43e899"/></radialGradient><radialGradient id="radial-gradient-17" cx="325.4835" cy="462.4066" r="149.384" xlink:href="#radial-gradient-16"/><radialGradient id="radial-gradient-18" cx="269.3077" cy="484.5604" r="253.2183" xlink:href="#radial-gradient-16"/><radialGradient id="radial-gradient-19" cx="340.2527" cy="469.2637" r="352.4598" xlink:href="#radial-gradient-16"/><radialGradient id="radial-gradient-20" cx="370.9724" cy="429" r="221.1684" gradientTransform="translate(-205.7353 802.7104) rotate(-91.8969)" gradientUnits="userSpaceOnUse"><stop offset="0" stop-color="#ffff5e"/><stop offset="0.4925" stop-color="#99f77a"/><stop offset="0.8381" stop-color="#57f18c"/><stop offset="1" stop-color="#3eef93"/></radialGradient><radialGradient id="radial-gradient-21" cx="387.5869" cy="482.2147" r="122.5169" gradientTransform="translate(-205.7353 802.7104) rotate(-91.8969)" gradientUnits="userSpaceOnUse"><stop offset="0" stop-color="#ffff40"/><stop offset="0.4925" stop-color="#99f76c"/><stop offset="0.8381" stop-color="#57f188"/><stop offset="1" stop-color="#3eef93"/></radialGradient><radialGradient id="radial-gradient-22" cx="576.3885" cy="438.9889" r="129.6362" gradientTransform="translate(-205.7353 802.7104) rotate(-91.8969)" gradientUnits="userSpaceOnUse"><stop offset="0" stop-color="#fcee21"/><stop offset="0.4677" stop-color="#a0f576"/><stop offset="0.8301" stop-color="#5ef9b3"/><stop offset="1" stop-color="#45fbca"/></radialGradient><radialGradient id="radial-gradient-23" cx="257.8088" cy="362.0084" r="149.4797" gradientTransform="translate(-14.6958 9.5377) rotate(-1.8969)" gradientUnits="userSpaceOnUse"><stop offset="0" stop-color="#ffee60"/><stop offset="0.4754" stop-color="#a0f596"/><stop offset="0.8326" stop-color="#5ef9bc"/><stop offset="1" stop-color="#45fbca"/></radialGradient><radialGradient id="radial-gradient-24" cx="448.7858" cy="349.302" r="173.0918" gradientTransform="translate(-14.6958 9.5377) rotate(-1.8969)" gradientUnits="userSpaceOnUse"><stop offset="0" stop-color="#00c9f4"/><stop offset="0.4345" stop-color="#50dac4"/><stop offset="0.8196" stop-color="#92e99c"/><stop offset="1" stop-color="#abee8d"/></radialGradient><radialGradient id="radial-gradient-25" cx="229.7178" cy="386.5259" r="159.8339" gradientUnits="userSpaceOnUse"><stop offset="0" stop-color="#c8e0ab"/><stop offset="0.0649" stop-color="#c1e1ab"/><stop offset="0.7003" stop-color="#80eca7"/><stop offset="1" stop-color="#67f0a5"/></radialGradient><radialGradient id="radial-gradient-26" cx="240.2788" cy="213.9654" r="70.5853" gradientTransform="translate(-14.6958 9.5377) rotate(-1.8969)" gradientUnits="userSpaceOnUse"><stop offset="0" stop-color="#64f968"/><stop offset="0.1919" stop-color="#6af66f"/><stop offset="1" stop-color="#7fe988"/></radialGradient><radialGradient id="radial-gradient-27" cx="436.5506" cy="235.4979" r="132.9737" gradientTransform="translate(-14.6958 9.5377) rotate(-1.8969)" gradientUnits="userSpaceOnUse"><stop offset="0" stop-color="#00b5be"/><stop offset="0.5826" stop-color="#2ad5a8"/><stop offset="1" stop-color="#43e89a"/></radialGradient><radialGradient id="radial-gradient-28" cx="457.1655" cy="331.2785" r="174.4837" gradientTransform="translate(-14.6958 9.5377) rotate(-1.8969)" gradientUnits="userSpaceOnUse"><stop offset="0" stop-color="#00b5bb"/><stop offset="0.5826" stop-color="#2ad7b1"/><stop offset="1" stop-color="#43ebab"/></radialGradient><radialGradient id="radial-gradient-29" cx="426.4617" cy="376.9275" r="143.0893" gradientTransform="translate(-14.6958 9.5377) rotate(-1.8969)" gradientUnits="userSpaceOnUse"><stop offset="0" stop-color="#00c4ba"/><stop offset="0.5826" stop-color="#2adaa6"/><stop offset="1" stop-color="#43e89a"/></radialGradient><radialGradient id="radial-gradient-30" cx="473.329" cy="447.4716" r="276.2517" gradientTransform="translate(-14.6958 9.5377) rotate(-1.8969)" gradientUnits="userSpaceOnUse"><stop offset="0" stop-color="#009cd1"/><stop offset="0.3563" stop-color="#39c2b5"/><stop offset="0.7934" stop-color="#7aec95"/><stop offset="1" stop-color="#93fd89"/></radialGradient><radialGradient id="radial-gradient-31" cx="343.6051" cy="295.9231" r="79.8852" gradientUnits="userSpaceOnUse"><stop offset="0" stop-color="#34e09f"/><stop offset="0.6478" stop-color="#6cf27c"/><stop offset="1" stop-color="#85fa6c"/></radialGradient><radialGradient id="radial-gradient-32" cx="115.5448" cy="292.2888" r="469.8113" gradientUnits="userSpaceOnUse"><stop offset="0" stop-color="#07d887"/><stop offset="0.6478" stop-color="#35a08e"/><stop offset="1" stop-color="#4a8791"/></radialGradient><radialGradient id="radial-gradient-33" cx="82.4679" cy="529.0018" r="215.5438" xlink:href="#radial-gradient-32"/><radialGradient id="radial-gradient-34" cx="187.2857" cy="504.6044" r="205.5282" xlink:href="#radial-gradient-32"/><radialGradient id="radial-gradient-35" cx="251.5" cy="545.7123" r="118.1565" xlink:href="#radial-gradient-32"/><radialGradient id="radial-gradient-36" cx="193.0543" cy="435.1558" r="278.2346" xlink:href="#radial-gradient-32"/><radialGradient id="radial-gradient-37" cx="145.98" cy="416.0072" r="373.0061" xlink:href="#radial-gradient-32"/><radialGradient id="radial-gradient-38" cx="232.5461" cy="398.0049" r="214.8636" xlink:href="#radial-gradient-32"/><radialGradient id="radial-gradient-39" cx="260.8681" cy="406.2308" r="197.4594" xlink:href="#radial-gradient-32"/><radialGradient id="radial-gradient-40" cx="196.3988" cy="312.447" r="386.3936" xlink:href="#radial-gradient-32"/><radialGradient id="radial-gradient-41" cx="64.7854" cy="231.9252" r="580.5636" xlink:href="#radial-gradient-32"/><radialGradient id="radial-gradient-42" cx="132.7842" cy="349.4455" r="148.9581" gradientTransform="translate(-14.6958 9.5377) rotate(-1.8969)" gradientUnits="userSpaceOnUse"><stop offset="0" stop-color="#ffff40"/><stop offset="0.0381" stop-color="#f6fe44"/><stop offset="0.5148" stop-color="#8ff171"/><stop offset="0.8452" stop-color="#4de88e"/><stop offset="1" stop-color="#34e599"/></radialGradient><radialGradient id="radial-gradient-43" cx="283.022" cy="570.1189" r="203.9856" gradientUnits="userSpaceOnUse"><stop offset="0" stop-color="#00b897"/><stop offset="0.266" stop-color="#25c698"/><stop offset="0.7646" stop-color="#66df9a"/><stop offset="1" stop-color="#7fe99b"/></radialGradient><radialGradient id="radial-gradient-44" cx="376.6439" cy="524.3219" r="300.5038" gradientTransform="translate(-14.6958 9.5377) rotate(-1.8969)" gradientUnits="userSpaceOnUse"><stop offset="0" stop-color="#00b5af"/><stop offset="0.2712" stop-color="#26c4a8"/><stop offset="0.7662" stop-color="#67de9d"/><stop offset="1" stop-color="#80e899"/></radialGradient><radialGradient id="radial-gradient-45" cx="336.6525" cy="661.496" r="243.959" gradientTransform="translate(-14.6958 9.5377) rotate(-1.8969)" gradientUnits="userSpaceOnUse"><stop offset="0" stop-color="#00b5be"/><stop offset="0.0194" stop-color="#02b5bd"/><stop offset="0.6858" stop-color="#43bb95"/><stop offset="1" stop-color="#5cbd85"/></radialGradient><radialGradient id="radial-gradient-46" cx="216.4335" cy="502.1666" r="159.0826" gradientUnits="userSpaceOnUse"><stop offset="0" stop-color="#6ae8c4"/><stop offset="1" stop-color="#6fb57f"/></radialGradient><radialGradient id="radial-gradient-47" cx="290.6436" cy="673.2529" r="161.0665" gradientTransform="translate(-14.6958 9.5377) rotate(-1.8969)" gradientUnits="userSpaceOnUse"><stop offset="0" stop-color="#168492"/><stop offset="0.6627" stop-color="#52bb9e"/><stop offset="1" stop-color="#6bd2a3"/></radialGradient><radialGradient id="radial-gradient-48" cx="243.8791" cy="546.5571" r="129.7146" gradientUnits="userSpaceOnUse"><stop offset="0" stop-color="#2cc29a"/><stop offset="0.3545" stop-color="#37bea1"/><stop offset="1" stop-color="#48b7ac"/></radialGradient><radialGradient id="radial-gradient-49" cx="432.0044" cy="528.5717" r="211.135" gradientUnits="userSpaceOnUse"><stop offset="0" stop-color="#00a07f"/><stop offset="0.2554" stop-color="#23b28e"/><stop offset="0.7612" stop-color="#64d4a9"/><stop offset="1" stop-color="#7de1b4"/></radialGradient><radialGradient id="radial-gradient-50" cx="288.033" cy="588.4725" r="373.2329" gradientUnits="userSpaceOnUse"><stop offset="0" stop-color="#6ae8ba"/><stop offset="1" stop-color="#6fb57f"/></radialGradient><radialGradient id="radial-gradient-51" cx="180.7245" cy="282.3162" r="82.0429" xlink:href="#radial-gradient-28"/><radialGradient id="radial-gradient-52" cx="288.2269" cy="602.6007" r="50.6516" gradientUnits="userSpaceOnUse"><stop offset="0" stop-color="#5ab48b"/><stop offset="1" stop-color="#54bac4"/></radialGradient><radialGradient id="radial-gradient-53" cx="108.6779" cy="555.0255" r="453.1591" gradientUnits="userSpaceOnUse"><stop offset="0" stop-color="#32bf53"/><stop offset="0.3524" stop-color="#4c8782"/><stop offset="0.7922" stop-color="#6946b9"/><stop offset="1" stop-color="#752dce"/></radialGradient><radialGradient id="radial-gradient-54" cx="121.4176" cy="535.0659" r="415.1728" xlink:href="#radial-gradient-53"/><radialGradient id="radial-gradient-55" cx="92.8641" cy="480.8455" r="524.3082" gradientUnits="userSpaceOnUse"><stop offset="0" stop-color="#32bf53"/><stop offset="0.2446" stop-color="#449f74"/><stop offset="0.7577" stop-color="#6761b5"/><stop offset="1" stop-color="#7549ce"/></radialGradient><radialGradient id="radial-gradient-56" cx="190.8002" cy="515.7741" r="344.4723" xlink:href="#radial-gradient-53"/><radialGradient id="radial-gradient-57" cx="138.967" cy="542.9844" r="390.4228" gradientUnits="userSpaceOnUse"><stop offset="0" stop-color="#4cbf53"/><stop offset="0.3524" stop-color="#5c8782"/><stop offset="0.7922" stop-color="#6e46b9"/><stop offset="1" stop-color="#752dce"/></radialGradient><radialGradient id="radial-gradient-58" cx="80.357" cy="489.2778" r="526.196" xlink:href="#radial-gradient-53"/><radialGradient id="radial-gradient-59" cx="14.4525" cy="627.3291" r="225.4248" gradientTransform="translate(-14.6958 9.5377) rotate(-1.8969)" gradientUnits="userSpaceOnUse"><stop offset="0" stop-color="#b6e473"/><stop offset="1" stop-color="#3fbfc4"/></radialGradient><radialGradient id="radial-gradient-60" cx="284.4365" cy="570.0769" r="186.4762" gradientUnits="userSpaceOnUse"><stop offset="0" stop-color="#4fea95"/><stop offset="1" stop-color="#8087fe"/></radialGradient><radialGradient id="radial-gradient-61" cx="192.4144" cy="626.0891" r="137.2539" gradientTransform="translate(-14.6958 9.5377) rotate(-1.8969)" gradientUnits="userSpaceOnUse"><stop offset="0" stop-color="#72c2bd"/><stop offset="0.2444" stop-color="#71c0c1"/><stop offset="0.4922" stop-color="#6fbacd"/><stop offset="0.7415" stop-color="#6bafe2"/><stop offset="0.9906" stop-color="#66a1fe"/><stop offset="1" stop-color="#66a0ff"/></radialGradient><radialGradient id="radial-gradient-62" cx="128.1988" cy="706.4015" r="155.4494" gradientTransform="translate(-14.6958 9.5377) rotate(-1.8969)" gradientUnits="userSpaceOnUse"><stop offset="0" stop-color="#2dc6bd"/><stop offset="0.1933" stop-color="#31c4be"/><stop offset="0.3894" stop-color="#3dbec0"/><stop offset="0.5866" stop-color="#52b3c4"/><stop offset="0.7848" stop-color="#6ea5ca"/><stop offset="0.9819" stop-color="#9292d1"/><stop offset="1" stop-color="#9690d2"/></radialGradient><radialGradient id="radial-gradient-63" cx="306.9153" cy="726.006" r="170.0956" gradientTransform="translate(-14.6958 9.5377) rotate(-1.8969)" gradientUnits="userSpaceOnUse"><stop offset="0" stop-color="#97aaea"/><stop offset="0.6399" stop-color="#61c7c9"/><stop offset="1" stop-color="#48d5b9"/></radialGradient><radialGradient id="radial-gradient-64" cx="173.1102" cy="705.5639" r="73.7703" gradientTransform="translate(-14.6958 9.5377) rotate(-1.8969)" gradientUnits="userSpaceOnUse"><stop offset="0" stop-color="#4dc6bd"/><stop offset="0.2565" stop-color="#51c4c0"/><stop offset="0.5165" stop-color="#5dbdc8"/><stop offset="0.7771" stop-color="#71b1d6"/><stop offset="1" stop-color="#89a4e6"/></radialGradient><linearGradient id="linear-gradient" x1="190.711" y1="743.0888" x2="282.9376" y2="729.5796" gradientUnits="userSpaceOnUse"><stop offset="0" stop-color="#2ab8c9"/><stop offset="1" stop-color="#897ac2"/></linearGradient><radialGradient id="radial-gradient-65" cx="155.6117" cy="759.2832" r="119.5325" gradientTransform="translate(-14.6958 9.5377) rotate(-1.8969)" gradientUnits="userSpaceOnUse"><stop offset="0" stop-color="#79c6bd"/><stop offset="0.1838" stop-color="#79c2bd"/><stop offset="0.3702" stop-color="#78b6bf"/><stop offset="0.5578" stop-color="#76a1c1"/><stop offset="0.7463" stop-color="#7485c4"/><stop offset="0.9337" stop-color="#7161c7"/><stop offset="1" stop-color="#7052c9"/></radialGradient><radialGradient id="radial-gradient-66" cx="214.377" cy="344.7143" r="473.5353" gradientTransform="translate(44.8905 -30.0621) rotate(4.1431)" gradientUnits="userSpaceOnUse"><stop offset="0" stop-color="#1fbf8a"/><stop offset="0.239" stop-color="#389f90"/><stop offset="0.756" stop-color="#6a5e9d"/><stop offset="1" stop-color="#7e45a2"/></radialGradient><radialGradient id="radial-gradient-67" cx="237.3956" cy="690.8022" r="95.0915" gradientTransform="matrix(1, 0, 0, 1, 0, 0)" xlink:href="#radial-gradient-66"/><radialGradient id="radial-gradient-68" cx="4.7802" cy="476.6484" r="491.789" gradientUnits="userSpaceOnUse"><stop offset="0" stop-color="#1fbf8a"/><stop offset="0.2739" stop-color="#409592"/><stop offset="0.598" stop-color="#616a9b"/><stop offset="0.851" stop-color="#764fa0"/><stop offset="1" stop-color="#7e45a2"/></radialGradient><radialGradient id="radial-gradient-69" cx="120.033" cy="514.0989" r="361.0635" xlink:href="#radial-gradient-68"/><radialGradient id="radial-gradient-70" cx="165.9738" cy="515.6157" r="341.233" xlink:href="#radial-gradient-68"/><radialGradient id="radial-gradient-71" cx="161.4685" cy="425.1176" r="432.0992" xlink:href="#radial-gradient-68"/><radialGradient id="radial-gradient-72" cx="74.1417" cy="398.1372" r="585.7377" gradientUnits="userSpaceOnUse"><stop offset="0" stop-color="#1fbf8a"/><stop offset="1" stop-color="#7e45a2"/></radialGradient><radialGradient id="radial-gradient-73" cx="158.8022" cy="419.1538" r="477.4603" xlink:href="#radial-gradient-72"/><radialGradient id="radial-gradient-74" cx="295.6813" cy="406.0989" r="136.3377" xlink:href="#radial-gradient-72"/><radialGradient id="radial-gradient-75" cx="334.7249" cy="391.6733" r="187.3578" gradientUnits="userSpaceOnUse"><stop offset="0" stop-color="#0ec492"/><stop offset="1" stop-color="#7e45a2"/></radialGradient><radialGradient id="radial-gradient-76" cx="357.1593" cy="529.9231" r="111.199" gradientUnits="userSpaceOnUse"><stop offset="0" stop-color="#55bab8"/><stop offset="0.3059" stop-color="#5dc3b7"/><stop offset="0.7972" stop-color="#75dab3"/><stop offset="1" stop-color="#80e6b1"/></radialGradient><radialGradient id="radial-gradient-77" cx="422.8288" cy="369.8663" r="88.2215" gradientUnits="userSpaceOnUse"><stop offset="0" stop-color="#65d4b6"/><stop offset="1" stop-color="#57c4c0"/></radialGradient><radialGradient id="radial-gradient-78" cx="451.4492" cy="420.7578" r="48.6295" gradientUnits="userSpaceOnUse"><stop offset="0" stop-color="#609fcf"/><stop offset="1" stop-color="#59c4c0"/></radialGradient><radialGradient id="radial-gradient-79" cx="494.8681" cy="440.243" r="78.6099" gradientUnits="userSpaceOnUse"><stop offset="0" stop-color="#9282c7"/><stop offset="1" stop-color="#59b6c0"/></radialGradient><radialGradient id="radial-gradient-80" cx="274.8242" cy="495.2103" r="184.792" gradientUnits="userSpaceOnUse"><stop offset="0" stop-color="#4ee5b6"/><stop offset="1" stop-color="#8a5dd6"/></radialGradient><radialGradient id="radial-gradient-81" cx="264.956" cy="501.044" r="166.2905" gradientUnits="userSpaceOnUse"><stop offset="0" stop-color="#4eddb6"/><stop offset="1" stop-color="#8360ca"/></radialGradient><radialGradient id="radial-gradient-82" cx="303.6142" cy="366.6457" r="265.9925" gradientUnits="userSpaceOnUse"><stop offset="0" stop-color="#4dd6be"/><stop offset="0.1924" stop-color="#4fd2be"/><stop offset="0.3875" stop-color="#57c6c0"/><stop offset="0.5838" stop-color="#63b1c1"/><stop offset="0.781" stop-color="#7495c4"/><stop offset="0.9772" stop-color="#8971c8"/><stop offset="1" stop-color="#8c6cc8"/></radialGradient><radialGradient id="radial-gradient-83" cx="502.1868" cy="604.2059" r="179.4429" gradientUnits="userSpaceOnUse"><stop offset="0" stop-color="#924396"/><stop offset="1" stop-color="#5abdea"/></radialGradient><radialGradient id="radial-gradient-84" cx="250.0549" cy="588.2088" r="138.2808" gradientUnits="userSpaceOnUse"><stop offset="0" stop-color="#4ec1b1"/><stop offset="0.9946" stop-color="#858ce2"/></radialGradient><radialGradient id="radial-gradient-85" cx="475.6813" cy="633.1758" r="127.4927" gradientUnits="userSpaceOnUse"><stop offset="0" stop-color="#714aac"/><stop offset="0.2931" stop-color="#885cb5"/><stop offset="0.7444" stop-color="#a673c1"/><stop offset="1" stop-color="#b17cc6"/></radialGradient><radialGradient id="radial-gradient-86" cx="525.4264" cy="676.6074" r="156.6053" gradientTransform="translate(44.8905 -30.0621) rotate(4.1431)" gradientUnits="userSpaceOnUse"><stop offset="0" stop-color="#6c49c1"/><stop offset="0.2292" stop-color="#6f4dc3"/><stop offset="0.4615" stop-color="#7659c8"/><stop offset="0.6952" stop-color="#836ed0"/><stop offset="0.9286" stop-color="#958adc"/><stop offset="1" stop-color="#9c94e0"/></radialGradient><radialGradient id="radial-gradient-87" cx="455.9011" cy="757" r="184.7468" gradientUnits="userSpaceOnUse"><stop offset="0" stop-color="#9685d4"/><stop offset="0.3109" stop-color="#9286d4"/><stop offset="0.6259" stop-color="#8689d6"/><stop offset="0.942" stop-color="#728dd8"/><stop offset="1" stop-color="#6d8ed9"/></radialGradient><radialGradient id="radial-gradient-88" cx="468.6886" cy="702.1204" r="135.2652" gradientTransform="translate(44.8905 -30.0621) rotate(4.1431)" gradientUnits="userSpaceOnUse"><stop offset="0" stop-color="#9062d4"/><stop offset="0.2373" stop-color="#9066d3"/><stop offset="0.4778" stop-color="#8f72d1"/><stop offset="0.7198" stop-color="#8e87ce"/><stop offset="0.9615" stop-color="#8da3ca"/><stop offset="1" stop-color="#8da8c9"/></radialGradient><radialGradient id="radial-gradient-89" cx="367.8878" cy="791.9331" r="211.1568" gradientTransform="translate(44.8905 -30.0621) rotate(4.1431)" gradientUnits="userSpaceOnUse"><stop offset="0" stop-color="#6b6ad4"/><stop offset="0.2523" stop-color="#6d6ed3"/><stop offset="0.508" stop-color="#747ad1"/><stop offset="0.7644" stop-color="#7f8ece"/><stop offset="1" stop-color="#8da8c9"/></radialGradient><radialGradient id="radial-gradient-90" cx="386.725" cy="938.8081" r="314.906" gradientTransform="translate(44.8905 -30.0621) rotate(4.1431)" gradientUnits="userSpaceOnUse"><stop offset="0" stop-color="#7835c7"/><stop offset="0.18" stop-color="#7739c7"/><stop offset="0.3624" stop-color="#7345c7"/><stop offset="0.5461" stop-color="#6e5ac6"/><stop offset="0.7306" stop-color="#6676c5"/><stop offset="0.9141" stop-color="#5c9ac4"/><stop offset="1" stop-color="#56aec4"/></radialGradient><radialGradient id="radial-gradient-91" cx="387.2594" cy="738.6255" r="118.0265" gradientTransform="translate(44.8905 -30.0621) rotate(4.1431)" gradientUnits="userSpaceOnUse"><stop offset="0" stop-color="#5a43c1"/><stop offset="0.2151" stop-color="#5e47c2"/><stop offset="0.4332" stop-color="#6a52c7"/><stop offset="0.6526" stop-color="#7f66ce"/><stop offset="0.8718" stop-color="#9b81d9"/><stop offset="1" stop-color="#af94e0"/></radialGradient><radialGradient id="radial-gradient-92" cx="322.021" cy="645.2912" r="159.2193" gradientTransform="translate(44.8905 -30.0621) rotate(4.1431)" gradientUnits="userSpaceOnUse"><stop offset="0" stop-color="#5a49c1"/><stop offset="0.2292" stop-color="#5e4dc3"/><stop offset="0.4615" stop-color="#6859c8"/><stop offset="0.6952" stop-color="#7a6ed0"/><stop offset="0.9286" stop-color="#938adc"/><stop offset="1" stop-color="#9c94e0"/></radialGradient><radialGradient id="radial-gradient-93" cx="334.4531" cy="404.4321" r="207.9767" gradientUnits="userSpaceOnUse"><stop offset="0" stop-color="#4dd0b5"/><stop offset="0.2231" stop-color="#50cab8"/><stop offset="0.5299" stop-color="#59b8c0"/><stop offset="0.8838" stop-color="#679bcd"/><stop offset="1" stop-color="#6d90d2"/></radialGradient><radialGradient id="radial-gradient-94" cx="337.0001" cy="468.4815" r="119.0866" gradientUnits="userSpaceOnUse"><stop offset="0" stop-color="#4dbcbd"/><stop offset="0.2544" stop-color="#50b8bf"/><stop offset="0.5122" stop-color="#59acc4"/><stop offset="0.7706" stop-color="#6898cd"/><stop offset="1" stop-color="#7b7fd7"/></radialGradient><radialGradient id="radial-gradient-95" cx="289.3516" cy="600.1791" r="99.4551" gradientUnits="userSpaceOnUse"><stop offset="0" stop-color="#4ec1b1"/><stop offset="0.9946" stop-color="#818cd3"/></radialGradient><radialGradient id="radial-gradient-96" cx="281.3297" cy="521.9479" r="122.8851" gradientUnits="userSpaceOnUse"><stop offset="0" stop-color="#4edd9d"/><stop offset="1" stop-color="#9183d6"/></radialGradient><radialGradient id="radial-gradient-97" cx="285" cy="540.5154" r="139.6697" gradientUnits="userSpaceOnUse"><stop offset="0" stop-color="#60d0b6"/><stop offset="0.994" stop-color="#825dd6"/></radialGradient><radialGradient id="radial-gradient-98" cx="123.5276" cy="645.9386" r="229.4732" gradientUnits="userSpaceOnUse"><stop offset="0" stop-color="#32bf94"/><stop offset="0.1848" stop-color="#45a894"/><stop offset="0.7386" stop-color="#796792"/><stop offset="1" stop-color="#8e4e92"/></radialGradient><radialGradient id="radial-gradient-99" cx="277.3615" cy="717.217" r="41.8023" gradientTransform="matrix(0.9999, 0.0133, -0.0133, 0.9999, 10.26, -4.1564)" xlink:href="#radial-gradient-98"/><radialGradient id="radial-gradient-100" cx="240.3958" cy="614.2868" r="192.7572" gradientUnits="userSpaceOnUse"><stop offset="0" stop-color="#329294"/><stop offset="0.2637" stop-color="#537993"/><stop offset="0.5684" stop-color="#736293"/><stop offset="0.8247" stop-color="#875392"/><stop offset="1" stop-color="#8e4e92"/></radialGradient><radialGradient id="radial-gradient-101" cx="192.7033" cy="667.6556" r="157.0071" gradientUnits="userSpaceOnUse"><stop offset="0" stop-color="#32bf94"/><stop offset="0.0603" stop-color="#3ab594"/><stop offset="0.358" stop-color="#5e8993"/><stop offset="0.6245" stop-color="#786992"/><stop offset="0.8476" stop-color="#885592"/><stop offset="1" stop-color="#8e4e92"/></radialGradient><radialGradient id="radial-gradient-102" cx="181.0388" cy="715.893" r="107.3708" gradientUnits="userSpaceOnUse"><stop offset="0" stop-color="#32bf94"/><stop offset="0.025" stop-color="#35bc94"/><stop offset="0.483" stop-color="#608195"/><stop offset="0.821" stop-color="#7c5c96"/><stop offset="1" stop-color="#864e96"/></radialGradient><radialGradient id="radial-gradient-103" cx="223.7992" cy="699.2548" r="80.8996" xlink:href="#radial-gradient-102"/><radialGradient id="radial-gradient-104" cx="180.4907" cy="680.6716" r="164.0392" gradientUnits="userSpaceOnUse"><stop offset="0" stop-color="#617eaa"/><stop offset="0.2609" stop-color="#657dae"/><stop offset="0.5254" stop-color="#7078ba"/><stop offset="0.7905" stop-color="#8271ce"/><stop offset="1" stop-color="#9669e4"/></radialGradient><radialGradient id="radial-gradient-105" cx="353.7305" cy="732.0601" r="89.6682" gradientTransform="translate(-15.1671 9.7486) rotate(-1.9344)" gradientUnits="userSpaceOnUse"><stop offset="0" stop-color="#8756aa"/><stop offset="0.2565" stop-color="#8658ae"/><stop offset="0.5165" stop-color="#835cba"/><stop offset="0.7771" stop-color="#7e65ce"/><stop offset="1" stop-color="#796ee6"/></radialGradient><radialGradient id="radial-gradient-106" cx="231.5451" cy="768.5515" r="125.1712" gradientTransform="translate(-14.6958 9.5377) rotate(-1.8969)" gradientUnits="userSpaceOnUse"><stop offset="0" stop-color="#6b78d4"/><stop offset="0.2757" stop-color="#6e74d3"/><stop offset="0.5552" stop-color="#7668d1"/><stop offset="0.8354" stop-color="#8354cc"/><stop offset="1" stop-color="#8d44c9"/></radialGradient><radialGradient id="radial-gradient-107" cx="124.2277" cy="789.6841" r="220.8207" gradientTransform="translate(-14.6958 9.5377) rotate(-1.8969)" gradientUnits="userSpaceOnUse"><stop offset="0" stop-color="#787dd4"/><stop offset="0.3109" stop-color="#7c7dd3"/><stop offset="0.6259" stop-color="#887dd0"/><stop offset="0.942" stop-color="#9c7eca"/><stop offset="1" stop-color="#a17ec9"/></radialGradient></defs><g id="right"><g id="inner"><path d="M367,250a386.8559,386.8559,0,0,1-7,59c-1.4722,7.4749-2.7419,13.7846-6,26l-19.2929,72.3338L393,424l37.2444,28.196,38.5088,14.7334q-10.1172-48.6918-20.2345-97.3836Z" style="fill:url(#radial-gradient)"/><g id="shapes"><path d="M444,430l-13,23,38,14Q456.5,448.5,444,430Z" style="fill:url(#radial-gradient-2)"/><path d="M409,401l-16,23,38,29,13-23Z" style="fill:url(#radial-gradient-3)"/><path d="M372,383l-38,24,59,17,16-23Z" style="fill:url(#radial-gradient-4)"/><path d="M387,310l-33,24q-10,36.5-20,73l39-24Q380,346.5,387,310Z" style="fill:url(#radial-gradient-5)"/><path d="M386,291l-28,20q-2,11.5-4,23l32-24Z" style="fill:url(#radial-gradient-6)"/><path d="M367,250l-9,61,28-20Q376.5,270.5,367,250Z" style="fill:url(#radial-gradient-7)"/></g></g><g id="_Layer_" data-name="&lt;Layer&gt;"><path d="M387,310q-8.5,36-17,72l8,2,65-12,6-2-17-19Z" style="fill:url(#radial-gradient-8)"/><path d="M386,290q.5,10,1,20l62,60-53-70Z" style="fill:url(#radial-gradient-9)"/><path d="M367,250q9.5,20.5,19,41,61.362,80.2008,63,79Q450.9641,368.559,367,250Z" style="fill:url(#radial-gradient-10)"/><path d="M449,370l-3,4-34,26-3,1-39-19Z" style="fill:url(#radial-gradient-11)"/><path d="M449,370l-40,31,35,29,3-10q1-22,2-44Z" style="fill:url(#radial-gradient-12)"/><path d="M449,370q-2.5,30-5,60,12.5,18.5,25,37Q459,418.5,449,370Z" style="fill:url(#radial-gradient-13)"/></g><g id="highlights" style="opacity:0.5"><path d="M449,370q12.1554,57.9726,12,58-.15.0319-12-55-1,14.5-2,29,.5-15.5,1-31l-25,19,24-20-14-15,12.0964,11.34Q447.0482,368.17,449,370Z" style="fill:#f2f2f2"/></g></g><g id="top"><g id="inner-2" data-name="inner"><path d="M234.9531,294.5744Q245.9766,318.7872,257,343l21.7313,95.2041L307,506l63-121q6.5-38.5,13-77-2.5-11.5-5-23l-33-62-43-45-69,95Q233.9765,283.7873,234.9531,294.5744Z" style="fill:url(#radial-gradient-14)"/><g id="shapes-2" data-name="shapes"><path d="M236,296l51,55-29-6Z" style="fill:url(#radial-gradient-15)"/><path d="M257,343q11,47.5,22,95l22-15q-7-36-14-72Z" style="fill:url(#radial-gradient-16)"/><path d="M329,406l22,17-8,14-25-6Q323.5,418.5,329,406Z" style="fill:url(#radial-gradient-17)"/><path d="M373,382l-43,24,21,17Z" style="fill:url(#radial-gradient-18)"/><polygon points="301 423 318 431 342 438 307 502 279 438 301 423" style="fill:url(#radial-gradient-19)"/></g></g><g id="shapes_copy_5" data-name="shapes copy 5"><path d="M229,272l6,23,52,56,17-5q5-20.5,10-41l-79-32Z" style="fill:url(#radial-gradient-20)"/><path d="M229,272l74.1539-2.6969L305,272q2.5,16,5,32v4Z" style="fill:url(#radial-gradient-21)"/><path d="M229,272l74.1539-2.6969L307,264l3.2559-21.9469L301,171Z" style="fill:url(#radial-gradient-22)"/><path d="M300.5638,423.386q-6.8591-36.2492-13.7183-72.4984L301,343l1,2q-.5,38-1,76Z" style="fill:url(#radial-gradient-23)"/><path d="M318,431q5.5-12.5,11-25l1-4-18-89-2-5-9,35-.4362,80.386L303,426l13,6Z" style="fill:url(#radial-gradient-24)"/><path d="M300.5638,423.386,307,507q5.5-38,11-76Z" style="fill:url(#radial-gradient-25)"/><path d="M310,242l21.2112-1.6415q1.941-1.4967,3.8985-3.1307a127.8005,127.8005,0,0,0,16.4611-16.554L301,171Z" style="fill:url(#radial-gradient-26)"/><path d="M310,242l3,4,71,44h3q-8.2283-17.1723-17.28-34.9081-9.0491-17.7063-18.1492-34.4181Z" style="fill:url(#radial-gradient-27)"/><path d="M310,242l77,48.4615v20L385,311l-67-32q-4-17-8-34Z" style="fill:url(#radial-gradient-28)"/><path d="M319,278l68,32.4615Q378.5,347.7308,370,385l-3-1-54-69-3-7q.5-4,1-8l7-21Z" style="fill:url(#radial-gradient-29)"/><path d="M310,308q9.5,49,19,98l41-21Z" style="fill:url(#radial-gradient-30)"/><path d="M319,278l-9,30q-3.423-19.3485-6.8461-38.6969Q306.5771,255.6516,310,242Z" style="fill:url(#radial-gradient-31)"/></g><g id="highlights_copy_2" data-name="highlights copy 2" style="opacity:0.5"><path d="M301,171l17,17-16-15,3,30q-2-15-4-30-18.7663,25.1741-19,25Q281.7588,197.8236,301,171Z" style="fill:#f2f2f2"/><path d="M309,246l-7,22-40,3,40-1,6,29q-2-15-4-30Q306.5,257.5,309,246Z" style="fill:#f2f2f2"/><path d="M359,297l28,13q-4,18-8,36,3.5-17.5,7-35Z" style="fill:#f2f2f2"/></g></g><g id="left"><g id="inner-3" data-name="inner"><path d="M229,272l58,79q16,36.7308,32,73.4615,3.5,19.5,7,39,.5,27,1,54,9.5,36,19,72Q342.5,613.2308,339,637l-19,35.4615L214,644l-74-85,32-54.5385Z" style="fill:url(#radial-gradient-32)"/><g id="shapes-3" data-name="shapes"><path d="M214,644l7-21-80-62Z" style="fill:url(#radial-gradient-33)"/><path d="M221,623l83,11q8,19,16,38L214,644Z" style="fill:url(#radial-gradient-34)"/><path d="M314,618l25,18-19,36q-8-19-16-38Z" style="fill:url(#radial-gradient-35)"/><path d="M325,577l21,12q-3.5,24-7,48l-25-19Z" style="fill:url(#radial-gradient-36)"/><path d="M310,503l17,15q9.5,36,19,72l-21-13Z" style="fill:url(#radial-gradient-37)"/><path d="M314,458l12,5q.5,27.5,1,55l-17-16Q312,480,314,458Z" style="fill:url(#radial-gradient-38)"/><path d="M309,427l10-2q3.5,18.5,7,37l-12-3Q311.5,443,309,427Z" style="fill:url(#radial-gradient-39)"/><path d="M287,351l32,74-10,2Z" style="fill:url(#radial-gradient-40)"/><path d="M229,272l6,17,52,62Z" style="fill:url(#radial-gradient-41)"/></g></g><g id="_Layer_2" data-name="&lt;Layer&gt;"><path d="M235,289q.5,10.5,1,21,8.5,40,17,80l32-30q1-4.5,2-9Z" style="fill:url(#radial-gradient-42)"/><path d="M287,351q11,38.2308,22,76.4615,2.5,15,5,30Q312,480.2308,310,503l-3-2-39-52-14.2986-61.764Z" style="fill:url(#radial-gradient-43)"/><path d="M270,452q-8.244,22.3005-17,45-11.399,29.5369-23,58L121,515l-7-4L235,289Q252.5,370.5,270,452Z" style="fill:url(#radial-gradient-44)"/><path d="M141,561l-27-50,115.5,41.8634L230,558l-6,58-3,7Z" style="fill:url(#radial-gradient-45)"/><path d="M258.6034,540.3932,275,512l50,65Z" style="fill:url(#radial-gradient-46)"/><path d="M229,553q-4,35-8,70l15-5,81-35,8-6-63-37Z" style="fill:url(#radial-gradient-47)"/><path d="M325,577,221,623l58,8,35-13Z" style="fill:url(#radial-gradient-48)"/><path d="M274,512l-6-58q.5-3,1-6l41,55,15,74Z" style="fill:url(#radial-gradient-49)"/><path d="M269,448q-9.33,25.1091-18.7693,50.1821Q239.9278,525.5505,229.5,552.8634L261,540l14.2166-26.6715Z" style="fill:url(#radial-gradient-50)"/><path d="M193,366l42-77-6-17Z" style="fill:url(#radial-gradient-51)"/><path d="M279,631l35-13-10,16Z" style="fill:url(#radial-gradient-52)"/></g><g id="highlights_copy_3" data-name="highlights copy 3" style="opacity:0.5"><path d="M270,448l3,42q-2-20-4-40l-13,33,12-35q-9.4764-46.8942-9-47Q259.4794,400.898,270,448Z" style="fill:#f2f2f2"/><path d="M230,551l-32-9,30,12q-1,12.5-2,25,2.5-12.5,5-25l31-13,9-19-10,18Z" style="fill:#f2f2f2"/><path d="M136,471l-18,39,57,23-57-19,19,39-23-42Z" style="fill:#f2f2f2"/></g></g><g id="left-bottom"><g id="inner-4" data-name="inner"><path d="M336,613c-2.9769,12.36-7.2573,29.1909-13,49-5.2314,18.0452-14.4025,49.462-30,89-10.3051,26.1223-21.15,50.1381-32,72l-25.987-39.3272q-10.4184-42.6786-20.8369-85.3571Q177.088,628.658,140,559l99,44Z" style="fill:url(#radial-gradient-53)"/><g id="shapes-4" data-name="shapes"><path d="M239,603l-18,19-82-64Z" style="fill:url(#radial-gradient-54)"/><path d="M239,603l-18,18,84,11,37-23Z" style="fill:url(#radial-gradient-55)"/><path d="M305,632l37-23-20,57-30,15Z" style="fill:url(#radial-gradient-56)"/><path d="M268,754l34-5q10-41.5,20-83l-30,15Z" style="fill:url(#radial-gradient-57)"/><path d="M268,754l34-5-41,74Q264.5,788.5,268,754Z" style="fill:url(#radial-gradient-58)"/></g></g><g id="_Layer_3" data-name="&lt;Layer&gt;"><path d="M221,621l-6,76-1.307,1.832Q176.3465,628.416,139,558Z" style="fill:url(#radial-gradient-59)"/><path d="M221,621l5,7,61,51,5,1.4615L305,632Z" style="fill:url(#radial-gradient-60)"/><path d="M221,621q-.5,3.5-1,7l15,84c15.6845-7.5821,31.7435-16.1958,48-26q4.5642-2.7527,9-5.5385Z" style="fill:url(#radial-gradient-61)"/><path d="M292,680.4615,285,697l-44,80-6,7q-.5-7-1-14V716l2-5Z" style="fill:url(#radial-gradient-62)"/><path d="M213.693,698.832Q215.3465,700.916,217,703l15,9,4-1-15-90h0Z" style="fill:url(#radial-gradient-63)"/><path d="M236,711q-.5,36.5-1,73-10.6536-42.584-21.307-85.168Z" style="fill:url(#radial-gradient-64)"/><path d="M291,681,235,784l5-2,24-23,4-5Q279.5,717.5,291,681Z" style="fill:url(#linear-gradient)"/><path d="M268,754l-33,30,26,39Q264.5,788.5,268,754Z" style="fill:url(#radial-gradient-65)"/></g><g id="highlights-2" data-name="highlights" style="opacity:0.5"><path d="M229,667q4,21.5,8,43l32-17-32,19q-.5,13-1,26-.5-13.5-1-27Z" style="fill:#f2f2f2"/><path d="M235,784l11,16-9-16,20-20Z" style="fill:#f2f2f2"/></g></g><g id="right-bottom"><g id="inner-5" data-name="inner"><path d="M281,586q-3.5,19.5-7,39l-9,17q-3.5,22.5-7,45l31.239,76.333,39.52,21.9125q55.1142-49.8,110.2282-99.5993,7.4943-25.2256,14.9888-50.4513,8.4252-10.678,16.85-21.356,6.76-19.25,13.5193-38.5-3.83-17.1633-7.66-34.3266Q471.3425,503.5063,466,466q-11.5-17.5-23-35l-35-30-38-18-56,20-26,38.4615q-8,38-16,76Z" style="fill:url(#radial-gradient-66)"/><g id="shapes-5" data-name="shapes"><path d="M289,763l16-4,24,26Z" style="fill:url(#radial-gradient-67)"/><path d="M258,687l33-6q7,39,14,78l-16,4Z" style="fill:url(#radial-gradient-68)"/><path d="M262,646l40-11q-5.5,23-11,46l-33,6Q260,666.5,262,646Z" style="fill:url(#radial-gradient-69)"/><path d="M313,617l-39,9-12,20,40-10Z" style="fill:url(#radial-gradient-70)"/><path d="M322,580l-41,6q-3.5,20-7,40l39-9Z" style="fill:url(#radial-gradient-71)"/><path d="M272,517l37-15q6.5,39,13,78l-41,6Z" style="fill:url(#radial-gradient-72)"/><path d="M288,441l29-10q-4,35.5-8,71l-37,15Q280,479,288,441Z" style="fill:url(#radial-gradient-73)"/><path d="M314,403l-26,38,28-9,13-27Z" style="fill:url(#radial-gradient-74)"/><path d="M314,403l56-21-41,23Z" style="fill:url(#radial-gradient-75)"/></g></g><g id="_Layer_4" data-name="&lt;Layer&gt;"><path d="M329,405l3,3,9,103-34-9q5-35.2692,10-70.5385Z" style="fill:url(#radial-gradient-76)"/><path d="M370,382l26,25,14-7Z" style="fill:url(#radial-gradient-77)"/><path d="M410,400l-14,5,45,38,3-15Z" style="fill:url(#radial-gradient-78)"/><path d="M469,465q-12.5-18.5-25-37-2.5,7.5-5,15l11,11Z" style="fill:url(#radial-gradient-79)"/><path d="M340,510l-33-8q14,29.5,28,59l33-9Z" style="fill:url(#radial-gradient-80)"/><path d="M361,551l-22,8,13,6,52,16Z" style="fill:url(#radial-gradient-81)"/><path d="M485.3574,575.01,482,575l-57-65a777.1047,777.1047,0,0,1-52-119q-1.5336-4.5079-3-9l33,21,39,33,27,29Q477.1788,520.005,485.3574,575.01Z" style="fill:url(#radial-gradient-82)"/><path d="M471,614q7.1787-19.495,14.3574-38.99Q455.6789,542.005,426,509l-10,9-18,54,3,10Z" style="fill:url(#radial-gradient-83)"/><path d="M400,579l2,8q-2,15.5-4,31L291,681l12-48q5-8.2692,10-16.5385L319,612l68-30Z" style="fill:url(#radial-gradient-84)"/><path d="M453.9033,635.522,471,614l-71-35,3,8,46,46Z" style="fill:url(#radial-gradient-85)"/><path d="M400,579q-4,20-8,40,1,3.5,2,7l42,58,3.2474,1.5939q7.3279-25.0359,14.6559-50.0719Z" style="fill:url(#radial-gradient-86)"/><path d="M392,619,291,681l88,25q7-41.5,14-83Z" style="fill:url(#radial-gradient-87)"/><path d="M392,619q-7,45-14,90l49-17,12.2474-6.4061Z" style="fill:url(#radial-gradient-88)"/><path d="M379,704l-30,38-48-48-10-13Z" style="fill:url(#radial-gradient-89)"/><path d="M291,681l59,60q-9.5,20.5-19,41l-2,3a581.22,581.22,0,0,1-29-73Q294.8922,696.0772,291,681Z" style="fill:url(#radial-gradient-90)"/><path d="M304.561,759.43,329,785,291,681Q297.78,720.2149,304.561,759.43Z" style="fill:url(#radial-gradient-91)"/><path d="M439.2205,685.9666,379,704l-30,36-20,45Z" style="fill:url(#radial-gradient-92)"/><path d="M370,382l-41,23q5.5,52.5,11,105l72,4,14-4Z" style="fill:url(#radial-gradient-93)"/><path d="M340,510l18,42,42,27q13-35,26-70Z" style="fill:url(#radial-gradient-94)"/><path d="M322,580l-9,36.4615L400,579Z" style="fill:url(#radial-gradient-95)"/><path d="M322,580l-15-79,32,58Z" style="fill:url(#radial-gradient-96)"/><path d="M339,559l61,20-78,1Z" style="fill:url(#radial-gradient-97)"/></g><g id="highlights-3" data-name="highlights" style="opacity:0.5"><path d="M422,507l-38-99,43,100,45,52-46-47-18,47,15-49-31-2Z" style="fill:#f2f2f2"/><path d="M389,633l-12,69-37-8,36,11-16,22,20-22,36-12-36,9Z" style="fill:#f2f2f2"/></g></g><g id="bottom"><g id="inner-6" data-name="inner"><path d="M292,669l-36,71-6,30q5.5,26.5,11,53l31,11,37-49-18-33Q301.5,710.5,292,669Z" style="fill:url(#radial-gradient-98)"/><g id="shapes-6" data-name="shapes"><path d="M306,759l23,26-18-33Z" style="fill:url(#radial-gradient-99)"/><path d="M292,669q-.5,6-1,12l15,78,5-7Q301.5,710.5,292,669Z" style="fill:url(#radial-gradient-100)"/><path d="M256,740l9,16,26-75q.5-6,1-12Z" style="fill:url(#radial-gradient-101)"/><path d="M249,770l12,53q2-33.5,4-67Z" style="fill:url(#radial-gradient-102)"/><path d="M249,770l16-14-9-16Q252.5,755,249,770Z" style="fill:url(#radial-gradient-103)"/></g></g><g id="_Layer_5" data-name="&lt;Layer&gt;"><path d="M265,756q-2,33.5-4,67l3-3,31-56q-2-41.5-4-83Z" style="fill:url(#radial-gradient-104)"/><path d="M291,681q1,41,2,82l3,3,29,18,4,1-23-26Z" style="fill:url(#radial-gradient-105)"/><path d="M292,836l37-51-36-22-1,3q-.5,34-1,68Z" style="fill:url(#radial-gradient-106)"/><path d="M293,763l-32,60,31,13Q292.5,799.5,293,763Z" style="fill:url(#radial-gradient-107)"/></g><g id="highlights-4" data-name="highlights" style="opacity:0.5"><path d="M293,832l33-43-34,47-28-12,27,9q.5-12,1-24Q292.5,820.5,293,832Z" style="fill:#f2f2f2"/><path d="M292,736v27l-12,23,13-23Q292.5,749.5,292,736Z" style="fill:#f2f2f2"/></g></g></svg>