<svg xmlns="http://www.w3.org/2000/svg" xmlns:xlink="http://www.w3.org/1999/xlink" viewBox="0 0 600 1000"><defs><radialGradient id="radial-gradient" cx="121.9267" cy="633.8205" r="236.161" gradientUnits="userSpaceOnUse"><stop offset="0" stop-color="#32bf94"/><stop offset="0.1848" stop-color="#45a894"/><stop offset="0.7386" stop-color="#796792"/><stop offset="1" stop-color="#8e4e92"/></radialGradient><radialGradient id="radial-gradient-2" cx="355.9267" cy="732.2632" r="90.17" gradientTransform="translate(-15.1671 9.7486) rotate(-1.9344)" gradientUnits="userSpaceOnUse"><stop offset="0" stop-color="#8756aa"/><stop offset="0.2373" stop-color="#8557ae"/><stop offset="0.4778" stop-color="#7f5cba"/><stop offset="0.7198" stop-color="#7563cf"/><stop offset="0.9615" stop-color="#686ceb"/><stop offset="1" stop-color="#656ef0"/></radialGradient><radialGradient id="radial-gradient-3" cx="233.8965" cy="768.9176" r="123.1424" gradientTransform="translate(-14.6958 9.5377) rotate(-1.8969)" gradientUnits="userSpaceOnUse"><stop offset="0" stop-color="#6b78d4"/><stop offset="0.2757" stop-color="#6e74d3"/><stop offset="0.5552" stop-color="#7668d1"/><stop offset="0.8354" stop-color="#8354cc"/><stop offset="1" stop-color="#8d44c9"/></radialGradient><radialGradient id="radial-gradient-4" cx="119.6193" cy="788.761" r="227.2098" gradientTransform="translate(-14.6958 9.5377) rotate(-1.8969)" gradientUnits="userSpaceOnUse"><stop offset="0" stop-color="#787dd4"/><stop offset="0.3109" stop-color="#7c7dd3"/><stop offset="0.6259" stop-color="#887dd0"/><stop offset="0.942" stop-color="#9c7eca"/><stop offset="1" stop-color="#a17ec9"/></radialGradient><radialGradient id="radial-gradient-5" cx="181.8586" cy="680.1354" r="161.452" gradientUnits="userSpaceOnUse"><stop offset="0" stop-color="#617eaa"/><stop offset="0.2609" stop-color="#657dae"/><stop offset="0.5254" stop-color="#7078ba"/><stop offset="0.7905" stop-color="#8271ce"/><stop offset="1" stop-color="#9669e4"/></radialGradient><radialGradient id="radial-gradient-6" cx="298.9445" cy="306.4066" r="240.1988" gradientTransform="translate(-14.6958 9.5377) rotate(-1.8969)" gradientUnits="userSpaceOnUse"><stop offset="0" stop-color="#00ceaf"/><stop offset="0.5826" stop-color="#06a4aa"/><stop offset="1" stop-color="#0a8ba7"/></radialGradient><radialGradient id="radial-gradient-7" cx="369.0168" cy="331.0073" r="129.0063" gradientTransform="translate(-14.6958 9.5377) rotate(-1.8969)" gradientUnits="userSpaceOnUse"><stop offset="0" stop-color="#00c4ba"/><stop offset="0.1848" stop-color="#17c9b7"/><stop offset="0.7386" stop-color="#58d9ad"/><stop offset="1" stop-color="#71dfa9"/></radialGradient><radialGradient id="radial-gradient-8" cx="430.519" cy="369.0365" r="148.1997" gradientTransform="translate(-14.6958 9.5377) rotate(-1.8969)" gradientUnits="userSpaceOnUse"><stop offset="0" stop-color="#04a2c3"/><stop offset="0.6135" stop-color="#2dd2b3"/><stop offset="1" stop-color="#43ebab"/></radialGradient><radialGradient id="radial-gradient-9" cx="456.0621" cy="364.7781" r="184.0421" gradientTransform="translate(-14.6958 9.5377) rotate(-1.8969)" gradientUnits="userSpaceOnUse"><stop offset="0" stop-color="#00b5be"/><stop offset="0.5826" stop-color="#2ad5a8"/><stop offset="1" stop-color="#43e89a"/></radialGradient><radialGradient id="radial-gradient-10" cx="350.9788" cy="423.0563" r="219.9026" gradientTransform="translate(-14.6958 9.5377) rotate(-1.8969)" gradientUnits="userSpaceOnUse"><stop offset="0" stop-color="#4db4bd"/><stop offset="0.209" stop-color="#51b2be"/><stop offset="0.4209" stop-color="#5daec1"/><stop offset="0.6341" stop-color="#72a5c6"/><stop offset="0.8469" stop-color="#8e9acc"/><stop offset="1" stop-color="#a790d2"/></radialGradient><radialGradient id="radial-gradient-11" cx="461.6233" cy="362.5418" r="121.6223" gradientTransform="translate(-14.6958 9.5377) rotate(-1.8969)" gradientUnits="userSpaceOnUse"><stop offset="0" stop-color="#76eaa9"/><stop offset="1" stop-color="#6772ff"/></radialGradient><radialGradient id="radial-gradient-12" cx="433.4496" cy="284.2528" r="171.639" gradientTransform="translate(-14.6958 9.5377) rotate(-1.8969)" gradientUnits="userSpaceOnUse"><stop offset="0" stop-color="#4dc6bd"/><stop offset="0.2204" stop-color="#51c3be"/><stop offset="0.4438" stop-color="#5dbabf"/><stop offset="0.6687" stop-color="#72aac2"/><stop offset="0.8932" stop-color="#8e94c7"/><stop offset="1" stop-color="#9e88c9"/></radialGradient><radialGradient id="radial-gradient-13" cx="262.5274" cy="377.1231" r="293.2607" gradientTransform="translate(-205.7353 802.7104) rotate(-91.8969)" gradientUnits="userSpaceOnUse"><stop offset="0" stop-color="#00b5af"/><stop offset="0.5826" stop-color="#2ad5a1"/><stop offset="1" stop-color="#43e899"/></radialGradient><radialGradient id="radial-gradient-14" cx="386.8015" cy="496.8792" r="329.1126" gradientTransform="translate(-14.6958 9.5377) rotate(-1.8969)" xlink:href="#radial-gradient-13"/><radialGradient id="radial-gradient-15" cx="370.9226" cy="429.386" r="218.6382" gradientTransform="translate(-205.7353 802.7104) rotate(-91.8969)" gradientUnits="userSpaceOnUse"><stop offset="0" stop-color="#ffff5e"/><stop offset="0.4925" stop-color="#99f77a"/><stop offset="0.8381" stop-color="#57f18c"/><stop offset="1" stop-color="#3eef93"/></radialGradient><radialGradient id="radial-gradient-16" cx="383.7545" cy="482.4048" r="126.1215" gradientTransform="translate(-205.7353 802.7104) rotate(-91.8969)" gradientUnits="userSpaceOnUse"><stop offset="0" stop-color="#ffff40"/><stop offset="0.4925" stop-color="#99f76c"/><stop offset="0.8381" stop-color="#57f188"/><stop offset="1" stop-color="#3eef93"/></radialGradient><radialGradient id="radial-gradient-17" cx="576.339" cy="439.5842" r="128.852" gradientTransform="translate(-205.7353 802.7104) rotate(-91.8969)" gradientUnits="userSpaceOnUse"><stop offset="0" stop-color="#fcee21"/><stop offset="0.4677" stop-color="#a0f576"/><stop offset="0.8301" stop-color="#5ef9b3"/><stop offset="1" stop-color="#45fbca"/></radialGradient><radialGradient id="radial-gradient-18" cx="258.5261" cy="361.5564" r="148.949" gradientTransform="translate(-14.6958 9.5377) rotate(-1.8969)" gradientUnits="userSpaceOnUse"><stop offset="0" stop-color="#ffee60"/><stop offset="0.4754" stop-color="#a0f596"/><stop offset="0.8326" stop-color="#5ef9bc"/><stop offset="1" stop-color="#45fbca"/></radialGradient><radialGradient id="radial-gradient-19" cx="446.6382" cy="350.7087" r="170.418" gradientTransform="translate(-14.6958 9.5377) rotate(-1.8969)" gradientUnits="userSpaceOnUse"><stop offset="0" stop-color="#00c9f4"/><stop offset="0.4345" stop-color="#50dac4"/><stop offset="0.8196" stop-color="#92e99c"/><stop offset="1" stop-color="#abee8d"/></radialGradient><radialGradient id="radial-gradient-20" cx="231.7033" cy="388.6374" r="152.3282" gradientUnits="userSpaceOnUse"><stop offset="0" stop-color="#c8e0ab"/><stop offset="0.0649" stop-color="#c1e1ab"/><stop offset="0.7003" stop-color="#80eca7"/><stop offset="1" stop-color="#67f0a5"/></radialGradient><radialGradient id="radial-gradient-21" cx="241.1947" cy="214.0517" r="70.0686" gradientTransform="translate(-14.6958 9.5377) rotate(-1.8969)" gradientUnits="userSpaceOnUse"><stop offset="0" stop-color="#64f968"/><stop offset="0.1919" stop-color="#6af66f"/><stop offset="1" stop-color="#7fe988"/></radialGradient><radialGradient id="radial-gradient-22" cx="436.3769" cy="235.5788" r="133.3504" xlink:href="#radial-gradient-9"/><radialGradient id="radial-gradient-23" cx="463.7519" cy="330.6814" r="191.039" gradientTransform="translate(-14.6958 9.5377) rotate(-1.8969)" gradientUnits="userSpaceOnUse"><stop offset="0" stop-color="#00b5bb"/><stop offset="0.5826" stop-color="#2ad7b1"/><stop offset="1" stop-color="#43ebab"/></radialGradient><radialGradient id="radial-gradient-24" cx="425.8077" cy="373.4509" r="140.2214" gradientTransform="translate(-14.6958 9.5377) rotate(-1.8969)" gradientUnits="userSpaceOnUse"><stop offset="0" stop-color="#00c4ba"/><stop offset="0.5826" stop-color="#2adaa6"/><stop offset="1" stop-color="#43e89a"/></radialGradient><radialGradient id="radial-gradient-25" cx="452.5113" cy="469.6727" r="287.3198" gradientTransform="translate(-14.6958 9.5377) rotate(-1.8969)" gradientUnits="userSpaceOnUse"><stop offset="0" stop-color="#009cd1"/><stop offset="0.4345" stop-color="#50cab7"/><stop offset="0.8196" stop-color="#92efa1"/><stop offset="1" stop-color="#abfd99"/></radialGradient><radialGradient id="radial-gradient-26" cx="336.3156" cy="305.4449" r="65.2833" gradientTransform="translate(-14.6958 9.5377) rotate(-1.8969)" gradientUnits="userSpaceOnUse"><stop offset="0" stop-color="#a6e0c0"/><stop offset="0.6591" stop-color="#8ff285"/><stop offset="1" stop-color="#85fa6c"/></radialGradient><radialGradient id="radial-gradient-27" cx="115.5448" cy="291.7776" r="470.2733" gradientUnits="userSpaceOnUse"><stop offset="0" stop-color="#07d887"/><stop offset="0.6399" stop-color="#3da28e"/><stop offset="1" stop-color="#568992"/></radialGradient><radialGradient id="radial-gradient-28" cx="135.2429" cy="348.6062" r="146.2785" gradientTransform="translate(-14.6958 9.5377) rotate(-1.8969)" gradientUnits="userSpaceOnUse"><stop offset="0" stop-color="#ffff40"/><stop offset="0.0381" stop-color="#f6fe44"/><stop offset="0.5148" stop-color="#8ff171"/><stop offset="0.8452" stop-color="#4de88e"/><stop offset="1" stop-color="#34e599"/></radialGradient><radialGradient id="radial-gradient-29" cx="436.6599" cy="451.9464" r="201.8821" gradientTransform="translate(-18.3079 12.5029) rotate(-2.5239)" gradientUnits="userSpaceOnUse"><stop offset="0" stop-color="#00c9f4"/><stop offset="0.1782" stop-color="#16d0e3"/><stop offset="0.7365" stop-color="#57e6af"/><stop offset="1" stop-color="#70ee9b"/></radialGradient><radialGradient id="radial-gradient-30" cx="375.241" cy="522.3539" r="298.8348" gradientTransform="translate(-14.6958 9.5377) rotate(-1.8969)" gradientUnits="userSpaceOnUse"><stop offset="0" stop-color="#00b5af"/><stop offset="0.2712" stop-color="#26c4a8"/><stop offset="0.7662" stop-color="#67de9d"/><stop offset="1" stop-color="#80e899"/></radialGradient><radialGradient id="radial-gradient-31" cx="335.956" cy="659.8348" r="242.9971" gradientTransform="translate(-14.6958 9.5377) rotate(-1.8969)" gradientUnits="userSpaceOnUse"><stop offset="0" stop-color="#00b5be"/><stop offset="0.0194" stop-color="#02b5bd"/><stop offset="0.6858" stop-color="#43bb95"/><stop offset="1" stop-color="#5cbd85"/></radialGradient><radialGradient id="radial-gradient-32" cx="335.956" cy="650.3403" r="325.2621" gradientTransform="translate(-14.6958 9.5377) rotate(-1.8969)" gradientUnits="userSpaceOnUse"><stop offset="0" stop-color="#6ae879"/><stop offset="1" stop-color="#6f9ed8"/></radialGradient><radialGradient id="radial-gradient-33" cx="288.4836" cy="670.9117" r="157.3846" gradientTransform="translate(-14.6958 9.5377) rotate(-1.8969)" gradientUnits="userSpaceOnUse"><stop offset="0" stop-color="#168492"/><stop offset="0.6627" stop-color="#52bb9e"/><stop offset="1" stop-color="#6bd2a3"/></radialGradient><radialGradient id="radial-gradient-34" cx="242.3471" cy="557.706" r="99.4837" gradientTransform="translate(-14.6958 9.5377) rotate(-1.8969)" gradientUnits="userSpaceOnUse"><stop offset="0" stop-color="#78b8ae"/><stop offset="0.2812" stop-color="#74b8af"/><stop offset="0.5662" stop-color="#68b9b2"/><stop offset="0.8521" stop-color="#54bab7"/><stop offset="1" stop-color="#46bbbb"/></radialGradient><radialGradient id="radial-gradient-35" cx="449.2047" cy="490.1575" r="413.6089" gradientTransform="translate(-14.6958 9.5377) rotate(-1.8969)" gradientUnits="userSpaceOnUse"><stop offset="0" stop-color="#00b5be"/><stop offset="0.1723" stop-color="#2ebfbd"/><stop offset="0.5821" stop-color="#95d5ba"/><stop offset="0.8667" stop-color="#d7e3b9"/><stop offset="1" stop-color="#f0e8b8"/></radialGradient><radialGradient id="radial-gradient-36" cx="385.8021" cy="598.9118" r="269.0395" gradientTransform="translate(-14.6958 9.5377) rotate(-1.8969)" gradientUnits="userSpaceOnUse"><stop offset="0" stop-color="#00b59e"/><stop offset="0.0118" stop-color="#03b69e"/><stop offset="0.5016" stop-color="#6ad1ac"/><stop offset="0.841" stop-color="#ace1b5"/><stop offset="1" stop-color="#c5e8b8"/></radialGradient><radialGradient id="radial-gradient-37" cx="182.5354" cy="281.6876" r="79.4734" xlink:href="#radial-gradient-23"/><radialGradient id="radial-gradient-38" cx="109.0387" cy="556.5117" r="455.4328" gradientUnits="userSpaceOnUse"><stop offset="0" stop-color="#32bf53"/><stop offset="0.3524" stop-color="#4c8782"/><stop offset="0.7922" stop-color="#6946b9"/><stop offset="1" stop-color="#752dce"/></radialGradient><radialGradient id="radial-gradient-39" cx="21.29" cy="627.5677" r="215.6157" gradientTransform="translate(-14.6958 9.5377) rotate(-1.8969)" gradientUnits="userSpaceOnUse"><stop offset="0" stop-color="#b6e473"/><stop offset="1" stop-color="#3fbfc4"/></radialGradient><radialGradient id="radial-gradient-40" cx="184.4261" cy="570.503" r="194.4807" gradientTransform="translate(-14.6958 9.5377) rotate(-1.8969)" gradientUnits="userSpaceOnUse"><stop offset="0" stop-color="#76eaa9"/><stop offset="1" stop-color="#7388ff"/></radialGradient><radialGradient id="radial-gradient-41" cx="161.274" cy="670.6937" r="133.8242" gradientTransform="translate(-14.6958 9.5377) rotate(-1.8969)" gradientUnits="userSpaceOnUse"><stop offset="0" stop-color="#78c6bd"/><stop offset="0.2356" stop-color="#77c2c1"/><stop offset="0.4744" stop-color="#74b6cc"/><stop offset="0.7146" stop-color="#6fa1df"/><stop offset="0.9547" stop-color="#6885f9"/><stop offset="1" stop-color="#667fff"/></radialGradient><radialGradient id="radial-gradient-42" cx="123.2277" cy="706.5182" r="159.5966" gradientTransform="translate(-14.6958 9.5377) rotate(-1.8969)" gradientUnits="userSpaceOnUse"><stop offset="0" stop-color="#2dc6bd"/><stop offset="0.1933" stop-color="#31c4be"/><stop offset="0.3894" stop-color="#3dbec0"/><stop offset="0.5866" stop-color="#52b3c4"/><stop offset="0.7848" stop-color="#6ea5ca"/><stop offset="0.9819" stop-color="#9292d1"/><stop offset="1" stop-color="#9690d2"/></radialGradient><radialGradient id="radial-gradient-43" cx="279.6061" cy="720.8715" r="126.1469" gradientTransform="translate(-14.6958 9.5377) rotate(-1.8969)" gradientUnits="userSpaceOnUse"><stop offset="0" stop-color="#c4aaea"/><stop offset="0.2501" stop-color="#a2b6e0"/><stop offset="0.7595" stop-color="#61cccd"/><stop offset="1" stop-color="#48d5c5"/></radialGradient><radialGradient id="radial-gradient-44" cx="178.1294" cy="705.5069" r="69.8404" gradientTransform="translate(-14.6958 9.5377) rotate(-1.8969)" gradientUnits="userSpaceOnUse"><stop offset="0" stop-color="#4dc6bd"/><stop offset="0.2373" stop-color="#51c4c1"/><stop offset="0.4778" stop-color="#5dbecc"/><stop offset="0.7198" stop-color="#72b4df"/><stop offset="0.9615" stop-color="#8ea7fa"/><stop offset="1" stop-color="#93a4ff"/></radialGradient><radialGradient id="radial-gradient-45" cx="142.7696" cy="729.121" r="159.8671" gradientTransform="translate(-14.6958 9.5377) rotate(-1.8969)" gradientUnits="userSpaceOnUse"><stop offset="0" stop-color="#4dc6bd"/><stop offset="0.1838" stop-color="#4ec2bd"/><stop offset="0.3702" stop-color="#52b6bf"/><stop offset="0.5578" stop-color="#58a1c1"/><stop offset="0.7463" stop-color="#6185c4"/><stop offset="0.9337" stop-color="#6c61c7"/><stop offset="1" stop-color="#7052c9"/></radialGradient><radialGradient id="radial-gradient-46" cx="157.7237" cy="759.5752" r="116.1209" gradientTransform="translate(-14.6958 9.5377) rotate(-1.8969)" gradientUnits="userSpaceOnUse"><stop offset="0" stop-color="#79c6bd"/><stop offset="0.1838" stop-color="#79c2bd"/><stop offset="0.3702" stop-color="#78b6bf"/><stop offset="0.5578" stop-color="#76a1c1"/><stop offset="0.7463" stop-color="#7485c4"/><stop offset="0.9337" stop-color="#7161c7"/><stop offset="1" stop-color="#7052c9"/></radialGradient><radialGradient id="radial-gradient-47" cx="216.4854" cy="344.9042" r="472.4085" gradientTransform="translate(44.8905 -30.0621) rotate(4.1431)" gradientUnits="userSpaceOnUse"><stop offset="0" stop-color="#1fbf8a"/><stop offset="0.239" stop-color="#389f90"/><stop offset="0.756" stop-color="#6a5e9d"/><stop offset="1" stop-color="#7e45a2"/></radialGradient><radialGradient id="radial-gradient-48" cx="297.5275" cy="461.7814" r="155.4174" gradientTransform="translate(44.8905 -30.0621) rotate(4.1431)" gradientUnits="userSpaceOnUse"><stop offset="0" stop-color="#4ddac2"/><stop offset="0.1756" stop-color="#4bd6c3"/><stop offset="0.3537" stop-color="#45cac6"/><stop offset="0.5329" stop-color="#3bb5ca"/><stop offset="0.713" stop-color="#2d99d1"/><stop offset="0.892" stop-color="#1c75d9"/><stop offset="1" stop-color="#0f5bdf"/></radialGradient><radialGradient id="radial-gradient-49" cx="239.411" cy="384.3117" r="394.5943" gradientTransform="translate(42.1953 -27.9534) rotate(3.7987)" gradientUnits="userSpaceOnUse"><stop offset="0" stop-color="#76eaa9"/><stop offset="1" stop-color="#704aff"/></radialGradient><radialGradient id="radial-gradient-50" cx="288.0562" cy="461.2657" r="203.1873" gradientTransform="translate(44.8905 -30.0621) rotate(4.1431)" gradientUnits="userSpaceOnUse"><stop offset="0" stop-color="#4ee3db"/><stop offset="1" stop-color="#d370c5"/></radialGradient><radialGradient id="radial-gradient-51" cx="606.8684" cy="333.1015" r="291.6321" gradientTransform="translate(44.8905 -30.0621) rotate(4.1431)" gradientUnits="userSpaceOnUse"><stop offset="0" stop-color="#4dced4"/><stop offset="0.2151" stop-color="#50cad3"/><stop offset="0.4332" stop-color="#5abed2"/><stop offset="0.6526" stop-color="#6ba9cf"/><stop offset="0.8718" stop-color="#828dcb"/><stop offset="1" stop-color="#9379c8"/></radialGradient><radialGradient id="radial-gradient-52" cx="460.3289" cy="700.8137" r="223.1252" gradientTransform="translate(44.8905 -30.0621) rotate(4.1431)" gradientUnits="userSpaceOnUse"><stop offset="0" stop-color="#925396"/><stop offset="0.1897" stop-color="#8e5698"/><stop offset="0.382" stop-color="#82609f"/><stop offset="0.5756" stop-color="#6d70aa"/><stop offset="0.7701" stop-color="#5187ba"/><stop offset="0.9636" stop-color="#2da5cf"/><stop offset="1" stop-color="#25abd3"/></radialGradient><radialGradient id="radial-gradient-53" cx="310.4874" cy="494.7152" r="178.8527" gradientTransform="translate(44.8905 -30.0621) rotate(4.1431)" gradientUnits="userSpaceOnUse"><stop offset="0" stop-color="#4dafd2"/><stop offset="0.2204" stop-color="#51aed2"/><stop offset="0.4438" stop-color="#5dadd0"/><stop offset="0.6687" stop-color="#72aace"/><stop offset="0.8932" stop-color="#8ea5cb"/><stop offset="1" stop-color="#9ea3c9"/></radialGradient><radialGradient id="radial-gradient-54" cx="471.3" cy="635.4209" r="137.0425" gradientTransform="translate(44.8905 -30.0621) rotate(4.1431)" gradientUnits="userSpaceOnUse"><stop offset="0" stop-color="#804e95"/><stop offset="0.2151" stop-color="#815297"/><stop offset="0.4332" stop-color="#865e9f"/><stop offset="0.6526" stop-color="#8d73ab"/><stop offset="0.8718" stop-color="#978fbd"/><stop offset="1" stop-color="#9ea3c9"/></radialGradient><radialGradient id="radial-gradient-55" cx="525.4978" cy="676.5637" r="156.7762" gradientTransform="translate(44.8905 -30.0621) rotate(4.1431)" gradientUnits="userSpaceOnUse"><stop offset="0" stop-color="#6c49c1"/><stop offset="0.2292" stop-color="#6f4dc3"/><stop offset="0.4615" stop-color="#7659c8"/><stop offset="0.6952" stop-color="#836ed0"/><stop offset="0.9286" stop-color="#958adc"/><stop offset="1" stop-color="#9c94e0"/></radialGradient><radialGradient id="radial-gradient-56" cx="525.3118" cy="814.2341" r="259.623" gradientTransform="translate(44.8905 -30.0621) rotate(4.1431)" gradientUnits="userSpaceOnUse"><stop offset="0" stop-color="#6b78d4"/><stop offset="0.2871" stop-color="#6e7cd3"/><stop offset="0.5781" stop-color="#7688d0"/><stop offset="0.8699" stop-color="#859ccc"/><stop offset="1" stop-color="#8da8c9"/></radialGradient><radialGradient id="radial-gradient-57" cx="468.5308" cy="697.9264" r="133.2882" xlink:href="#radial-gradient-56"/><radialGradient id="radial-gradient-58" cx="361.7559" cy="796.2939" r="207.0869" xlink:href="#radial-gradient-56"/><radialGradient id="radial-gradient-59" cx="384.9133" cy="940.3339" r="317.2314" gradientTransform="translate(44.8905 -30.0621) rotate(4.1431)" gradientUnits="userSpaceOnUse"><stop offset="0" stop-color="#7835c7"/><stop offset="0.18" stop-color="#7639c8"/><stop offset="0.3624" stop-color="#7145c9"/><stop offset="0.5461" stop-color="#695acc"/><stop offset="0.7306" stop-color="#5d76d0"/><stop offset="0.9141" stop-color="#4e9ad4"/><stop offset="1" stop-color="#46aed7"/></radialGradient><radialGradient id="radial-gradient-60" cx="385.8666" cy="738.4236" r="117.3787" gradientTransform="translate(44.8905 -30.0621) rotate(4.1431)" gradientUnits="userSpaceOnUse"><stop offset="0" stop-color="#5a43c1"/><stop offset="0.2151" stop-color="#5e47c2"/><stop offset="0.4332" stop-color="#6a52c7"/><stop offset="0.6526" stop-color="#7f66ce"/><stop offset="0.8718" stop-color="#9b81d9"/><stop offset="1" stop-color="#af94e0"/></radialGradient><radialGradient id="radial-gradient-61" cx="321.7548" cy="645.192" r="159.5913" gradientTransform="translate(44.8905 -30.0621) rotate(4.1431)" gradientUnits="userSpaceOnUse"><stop offset="0" stop-color="#5a49c1"/><stop offset="0.2292" stop-color="#5e4dc3"/><stop offset="0.4615" stop-color="#6859c8"/><stop offset="0.6952" stop-color="#7a6ed0"/><stop offset="0.9286" stop-color="#938adc"/><stop offset="1" stop-color="#9c94e0"/></radialGradient><radialGradient id="radial-gradient-62" cx="275.4175" cy="394.4707" r="161.6377" gradientTransform="translate(44.8905 -30.0621) rotate(4.1431)" gradientUnits="userSpaceOnUse"><stop offset="0" stop-color="#4dc6bd"/><stop offset="0.2705" stop-color="#4fc2bf"/><stop offset="0.5446" stop-color="#57b6c3"/><stop offset="0.8196" stop-color="#63a2cb"/><stop offset="1" stop-color="#6d90d2"/></radialGradient><radialGradient id="radial-gradient-63" cx="197.5833" cy="527.9758" r="232.7089" gradientTransform="translate(44.8905 -30.0621) rotate(4.1431)" gradientUnits="userSpaceOnUse"><stop offset="0" stop-color="#4dc6bd"/><stop offset="0.2356" stop-color="#50c2be"/><stop offset="0.4744" stop-color="#58b6c3"/><stop offset="0.7146" stop-color="#65a1ca"/><stop offset="0.9547" stop-color="#7785d5"/><stop offset="1" stop-color="#7b7fd7"/></radialGradient><radialGradient id="radial-gradient-64" cx="244.6703" cy="468.989" r="182.1379" gradientUnits="userSpaceOnUse"><stop offset="0" stop-color="#4ee3db"/><stop offset="1" stop-color="#8596e2"/></radialGradient></defs><g id="scroll"><g id="bottom"><path d="M292,658q-17.5,44-35,88-3.5,20.5-7,41,5,16.5,10,33l31,11,39-46-15-31Q303.5,706,292,658Z" style="fill:url(#radial-gradient)"/><path d="M292,681.4615q.5,41,1,82l37.0753,21.3931L305,760Q298.5,720.7308,292,681.4615Z" style="fill:url(#radial-gradient-2)"/><path d="M292.681,835.1337l37.3567-50.264L293,763.4615Z" style="fill:url(#radial-gradient-3)"/><path d="M293,761.4615l-33,60,32.7141,14.6717Z" style="fill:url(#radial-gradient-4)"/><path d="M267,754.4615q-3.5,33.5-7,67l33-60q-.5-40.5-1-81Q279.5,717.4616,267,754.4615Z" style="fill:url(#radial-gradient-5)"/></g><g id="right"><path d="M369.72,256.0919q-3.15,10.61-6.301,21.22-3.0346,14.1082-6.0694,28.2164l-3.6732,40.1436-18.9693,61.6617,58.5971,17.07,36.94,27.7925,38.5088,14.7334q-10.1172-48.6918-20.2346-97.3836Z" style="fill:url(#radial-gradient-6)"/><path d="M387.1148,313.0474Q380.0575,348.2544,373,383.4615l76-14Z" style="fill:url(#radial-gradient-7)"/><path d="M387.5847,297.023q-.2349,8.0122-.47,16.0244L449,369.4615Q418.2923,333.2424,387.5847,297.023Z" style="fill:url(#radial-gradient-8)"/><path d="M369.2369,256.6082l17.2821,38.449L449,369.4615Z" style="fill:url(#radial-gradient-9)"/><path d="M450,369.4615l-39,31-38-17Z" style="fill:url(#radial-gradient-10)"/><path d="M449,370.4615l-39,30,35,28Q447,399.4616,449,370.4615Z" style="fill:url(#radial-gradient-11)"/><path d="M449.0018,369.03l-4.0107,60.1658,24.2453,37.2178Q459.1191,417.7213,449.0018,369.03Z" style="fill:url(#radial-gradient-12)"/></g><g id="top"><path d="M306.7265,503.726q-14.0851-32.5515-28.17-65.1032-7.9891-29.7519-15.9784-59.5037l-7.3869-41.7784-26.1384-64.17L301.7007,170.71l55.06,236.8945Q331.7439,455.6653,306.7265,503.726Z" style="fill:url(#radial-gradient-13)"/><path d="M228.9862,271.1719q2.9835,11.7012,5.9669,23.4025L255.366,336.922q3.71,21.3888,7.42,42.7778,7.9728,29.2521,15.9453,58.5043l28.3671,63.7952q32.9295-59.4723,65.8591-118.9444l9.372-49.3373,5.0171-43.3034q-19.4417-33.6117-38.8831-67.2234l-47.141-52.4129Z" style="fill:url(#radial-gradient-14)"/><g id="shapes_copy_5" data-name="shapes copy 5"><path d="M228.5031,271.6881q3.2249,11.4432,6.45,22.8864l51.8924,56.3131,14.727-8.4921q4.4346-17.1561,8.8691-34.3124Z" style="fill:url(#radial-gradient-15)"/><path d="M228.503,271.6881l74.651-2.385q4.16,19.8732,8.32,39.7464Z" style="fill:url(#radial-gradient-16)"/><path d="M229.5025,271.655l73.6515-2.3519q3.551-13.6249,7.1018-27.25-4.5192-35.4135-9.0383-70.8269Z" style="fill:url(#radial-gradient-17)"/><path d="M300.5638,423.386q-6.8591-36.2492-13.7183-72.4984l14.727-8.4921Q301.0682,382.8907,300.5638,423.386Z" style="fill:url(#radial-gradient-18)"/><path d="M317.5444,431.9159,329.6767,405.5q-9.5844-47.7089-19.1689-95.4178l-8.6273,32.216-1.3167,81.088Z" style="fill:url(#radial-gradient-19)"/><path d="M300.5638,423.386q3.3064,39.412,6.6128,78.8243,5.1674-35.6469,10.3348-71.2939Z" style="fill:url(#radial-gradient-20)"/><path d="M310.2558,242.0531l20.9554-1.6946q1.941-1.4967,3.8985-3.1307a127.8005,127.8005,0,0,0,16.4611-16.554l-50.19-49.564Z" style="fill:url(#radial-gradient-21)"/><path d="M310.2559,242.0531l25.4827,14.1643L387,290.4615q-8.14-17.3376-17.28-35.37-9.0419-17.8028-18.1492-34.4181Z" style="fill:url(#radial-gradient-22)"/><path d="M310.2559,242.0531,387,290.4615v20l-53.2-22.1624-30.6456-18.996Q306.705,255.6782,310.2559,242.0531Z" style="fill:url(#radial-gradient-23)"/><path d="M318.4437,277.8017,387,310.4615,372.8913,381.056,311.4741,309.05Z" style="fill:url(#radial-gradient-24)"/><path d="M310.4416,308.0831,329.6767,405.5l43.2808-22.4449Z" style="fill:url(#radial-gradient-25)"/><path d="M319.4431,277.7686l-8.9022,33.3129-7.3869-41.7784Z" style="fill:url(#radial-gradient-26)"/></g></g><g id="left"><g id="inner"><path d="M229,271.4615l58,80q16,36.5,32,73,3.5,19.5,7,39,.5,27,1,54,9.5,36,19,72Q345,606.7308,344,624l-24,48.4615-106-28q-37-43-74-86l32-54Z" style="fill:url(#radial-gradient-27)"/></g><path d="M235.8527,291.51q9.0848,47.7255,18.17,95.4509L287,351.4615Z" style="fill:url(#radial-gradient-28)"/><path d="M287,349.4615q11,39,22,78,2.5,15,5,30-2.5,22-5,44l-44.9283-60.63q-5.1852-26.7976-10.37-53.5953Z" style="fill:url(#radial-gradient-29)"/><path d="M269.0673,448.4965Q249.2838,500.68,229.5,552.8634L114.04,510.6621,234.7539,288.5446Z" style="fill:url(#radial-gradient-30)"/><path d="M140.132,558.3245,114.04,510.6621,229.5,552.8634q-4.1134,34.4051-8.2268,68.81Z" style="fill:url(#radial-gradient-31)"/><path d="M258.6034,540.3932q8.0486-13.7739,16.0969-27.5479l47.1931,65.4737Z" style="fill:url(#radial-gradient-32)"/><path d="M229.5,552.8634q-4.1134,34.4051-8.2268,68.81l100.62-43.3544-63.29-37.9258Z" style="fill:url(#radial-gradient-33)"/><path d="M321.8934,578.319,222,621.4615l81,14,16-23Z" style="fill:url(#radial-gradient-34)"/><path d="M273.6347,510.88q-2.3-31.6912-4.6005-63.3825Q289.0171,474.4793,309,501.4615l12.8934,76.8575Z" style="fill:url(#radial-gradient-35)"/><path d="M269.0673,448.4965Q249.2837,500.68,229.5,552.8634l31.5522-14.0521,14.1642-25.4828Q272.1421,480.9125,269.0673,448.4965Z" style="fill:url(#radial-gradient-36)"/><path d="M194.1938,362.928q20.2966-36.692,40.5932-73.3839l-6.5925-17.7915Q211.1943,317.34,194.1938,362.928Z" style="fill:url(#radial-gradient-37)"/></g><g id="left-bottom"><g id="inner-2" data-name="inner"><path d="M341,617l-29,80q-8.5,34.7309-17,69.4615l-33.6767,56.3619-26.31-39.1506q-10.4184-42.6786-20.8369-85.3571L141,560.4615,239,603Z" style="fill:url(#radial-gradient-38)"/></g><path d="M218.0411,618.6441q-2.1741,40.0939-4.3481,80.1879L140,558.4615Z" style="fill:url(#radial-gradient-39)"/><path d="M222,621.4615l70,59q5-22.5,10-45Z" style="fill:url(#radial-gradient-40)"/><path d="M221,620.4615l9,87,62-27Z" style="fill:url(#radial-gradient-41)"/><path d="M292,680.4615l-57,104q-2.5089-38.582-5.0179-77.164Z" style="fill:url(#radial-gradient-42)"/><path d="M213.693,698.832l16.2891,8.4655Q225.4911,663.88,221,620.4615l-3-2Z" style="fill:url(#radial-gradient-43)"/><path d="M229.9821,707.2975Q232.491,745.38,235,783.4615q-10.6536-42.3147-21.307-84.6295Z" style="fill:url(#radial-gradient-44)"/><path d="M292,680.4615,235.013,783.6728l32.0551-29.077Q279.534,717.5287,292,680.4615Z" style="fill:url(#radial-gradient-45)"/><path d="M267,754.4615l-31.987,29.2113,25.2778,38.1842Z" style="fill:url(#radial-gradient-46)"/></g><g id="right-bottom"><g id="inner-3" data-name="inner"><path d="M279,590.4615l-18.4794,98.7293Q274.88,726.262,289.239,763.333l39.52,21.9125,110.2282-99.5993q7.4943-25.2256,14.9888-50.4513,8.4252-10.678,16.85-21.356,6.76-19.25,13.5193-38.5-3.83-17.1633-7.66-34.3266-2.6766-28.0626-5.3533-56.1251L444,427.4615l-70-44-57,19-29,39q-8,38-16,76Q275.5,553.9616,279,590.4615Z" style="fill:url(#radial-gradient-47)"/></g><path d="M331,405.4615q3.1183,48.3284,6.2366,96.6566L309,501.4615q4-35,8-70Q324,418.4616,331,405.4615Z" style="fill:url(#radial-gradient-48)"/><path d="M469,466.4615q-12.5-19.5-25-39l-35-28-35-16Z" style="fill:url(#radial-gradient-49)"/><path d="M308.3846,499.0255q6.8076,39.718,13.6154,79.436l78.7822,1.4509-64.4708-78.864Z" style="fill:url(#radial-gradient-50)"/><path d="M485.3574,575.01l-77.32-53.7266Q390.5186,451.8725,373,382.4615l96,83Q477.1788,520.2358,485.3574,575.01Z" style="fill:url(#radial-gradient-51)"/><path d="M471.4962,614.1107,485.3574,575.01l-77.32-53.7266q-4.575,28.5573-9.15,57.1145Z" style="fill:url(#radial-gradient-52)"/><path d="M398.86,578.7705q-3.39,19.1182-6.78,38.2364L291,681.4615q5.5-23,11-46l11-19Z" style="fill:url(#radial-gradient-53)"/><path d="M453.9034,635.522l16.6224-21.8562-71.6391-35.268Z" style="fill:url(#radial-gradient-54)"/><path d="M398.8867,578.3978q-3.4895,20.4884-6.9787,40.9766l47.3395,66.22q7.3278-25.0361,14.6559-50.072Z" style="fill:url(#radial-gradient-55)"/><path d="M392.08,617.0069,291,680.4615l87.74,23.81Q385.41,660.6391,392.08,617.0069Z" style="fill:url(#radial-gradient-56)"/><path d="M391.935,619.0017q-6.5976,42.6348-13.195,85.27l60.5075-18.6772Z" style="fill:url(#radial-gradient-57)"/><path d="M378.74,704.2712l-29.6749,35.95L292,680.4615Z" style="fill:url(#radial-gradient-58)"/><path d="M292,680.4615l57.0651,59.76q-10.153,22.512-20.3059,45.0242Z" style="fill:url(#radial-gradient-59)"/><path d="M304.561,759.43l24.1982,25.8157L292,680.4615Z" style="fill:url(#radial-gradient-60)"/><path d="M439.2205,685.9666,378.713,704.6439l-28.4608,33.03q-10.7465,23.7858-21.493,47.5715Z" style="fill:url(#radial-gradient-61)"/><path d="M373,383.4615l-43,23,7.2366,95.6566,70.8,19.1652Q390.5186,452.3724,373,383.4615Z" style="fill:url(#radial-gradient-62)"/><path d="M336.3114,501.0484l63.5457,77.7943,8.2521-58.5568Z" style="fill:url(#radial-gradient-63)"/><path d="M322,578.4615l-9,38,88-37Z" style="fill:url(#radial-gradient-64)"/></g></g></svg>