<svg id="scroll" xmlns="http://www.w3.org/2000/svg" xmlns:xlink="http://www.w3.org/1999/xlink" viewBox="0 0 600 1000"><defs><radialGradient id="radial-gradient" cx="121.9267" cy="633.8205" r="236.161" gradientUnits="userSpaceOnUse"><stop offset="0" stop-color="#32bf94"/><stop offset="0.1848" stop-color="#45a894"/><stop offset="0.7386" stop-color="#796792"/><stop offset="1" stop-color="#8e4e92"/></radialGradient><radialGradient id="radial-gradient-2" cx="177.1228" cy="680.1365" r="164.9407" gradientUnits="userSpaceOnUse"><stop offset="0" stop-color="#617eaa"/><stop offset="0.2609" stop-color="#657dae"/><stop offset="0.5254" stop-color="#7078ba"/><stop offset="0.7905" stop-color="#8271ce"/><stop offset="1" stop-color="#9669e4"/></radialGradient><radialGradient id="radial-gradient-3" cx="355.749" cy="732.3322" r="90.1779" gradientTransform="translate(-15.1671 9.7486) rotate(-1.9344)" gradientUnits="userSpaceOnUse"><stop offset="0" stop-color="#8756aa"/><stop offset="0.2373" stop-color="#8557ae"/><stop offset="0.4778" stop-color="#7f5cba"/><stop offset="0.7198" stop-color="#7563cf"/><stop offset="0.9615" stop-color="#686ceb"/><stop offset="1" stop-color="#656ef0"/></radialGradient><radialGradient id="radial-gradient-4" cx="230.3667" cy="768.5515" r="127.138" gradientTransform="translate(-14.6958 9.5377) rotate(-1.8969)" gradientUnits="userSpaceOnUse"><stop offset="0" stop-color="#6b78d4"/><stop offset="0.2757" stop-color="#6e74d3"/><stop offset="0.5552" stop-color="#7668d1"/><stop offset="0.8354" stop-color="#8354cc"/><stop offset="1" stop-color="#8d44c9"/></radialGradient><radialGradient id="radial-gradient-5" cx="119.877" cy="789.6841" r="226.4123" gradientTransform="translate(-14.6958 9.5377) rotate(-1.8969)" gradientUnits="userSpaceOnUse"><stop offset="0" stop-color="#787dd4"/><stop offset="0.3109" stop-color="#7c7dd3"/><stop offset="0.6259" stop-color="#887dd0"/><stop offset="0.942" stop-color="#9c7eca"/><stop offset="1" stop-color="#a17ec9"/></radialGradient><radialGradient id="radial-gradient-6" cx="322.8248" cy="302.3833" r="240.2445" gradientTransform="translate(-14.6958 9.5377) rotate(-1.8969)" gradientUnits="userSpaceOnUse"><stop offset="0" stop-color="#00ceaf"/><stop offset="0.2554" stop-color="#23afad"/><stop offset="0.7612" stop-color="#6476a9"/><stop offset="1" stop-color="#7d5fa7"/></radialGradient><radialGradient id="radial-gradient-7" cx="369.0182" cy="329.5231" r="130.5917" gradientTransform="translate(-14.6958 9.5377) rotate(-1.8969)" gradientUnits="userSpaceOnUse"><stop offset="0" stop-color="#00c4ba"/><stop offset="0.1848" stop-color="#17c9b7"/><stop offset="0.7386" stop-color="#58d9ad"/><stop offset="1" stop-color="#71dfa9"/></radialGradient><radialGradient id="radial-gradient-8" cx="449.4396" cy="384.0769" r="137.0637" gradientUnits="userSpaceOnUse"><stop offset="0" stop-color="#04c0c1"/><stop offset="0.5589" stop-color="#2ad4b4"/><stop offset="1" stop-color="#43e2ab"/></radialGradient><radialGradient id="radial-gradient-9" cx="455.9965" cy="365.2163" r="185.2287" gradientTransform="translate(-14.6958 9.5377) rotate(-1.8969)" gradientUnits="userSpaceOnUse"><stop offset="0" stop-color="#00c1be"/><stop offset="0.5826" stop-color="#2ad9a8"/><stop offset="1" stop-color="#43e89a"/></radialGradient><radialGradient id="radial-gradient-10" cx="386.8833" cy="367.1712" r="114.2336" gradientUnits="userSpaceOnUse"><stop offset="0" stop-color="#6cd3b5"/><stop offset="0.2731" stop-color="#68d4b6"/><stop offset="0.5499" stop-color="#5cd5b7"/><stop offset="0.8274" stop-color="#48d8ba"/><stop offset="1" stop-color="#37dabc"/></radialGradient><radialGradient id="radial-gradient-11" cx="425.044" cy="366.4117" r="96.5019" gradientUnits="userSpaceOnUse"><stop offset="0" stop-color="#76eaa9"/><stop offset="1" stop-color="#6760ff"/></radialGradient><radialGradient id="radial-gradient-12" cx="433.473" cy="286.1172" r="169.9937" gradientTransform="translate(-14.6958 9.5377) rotate(-1.8969)" gradientUnits="userSpaceOnUse"><stop offset="0" stop-color="#4dc6bd"/><stop offset="0.2204" stop-color="#51c3be"/><stop offset="0.4438" stop-color="#5dbabf"/><stop offset="0.6687" stop-color="#72aac2"/><stop offset="0.8932" stop-color="#8e94c7"/><stop offset="1" stop-color="#9e88c9"/></radialGradient><radialGradient id="radial-gradient-13" cx="378.1603" cy="497.0096" r="311.2107" gradientTransform="translate(-14.6958 9.5377) rotate(-1.8969)" gradientUnits="userSpaceOnUse"><stop offset="0" stop-color="#00b5af"/><stop offset="0.5826" stop-color="#2ad5a1"/><stop offset="1" stop-color="#43e899"/></radialGradient><radialGradient id="radial-gradient-14" cx="371.183" cy="429.2749" r="220.0352" gradientTransform="translate(-205.7353 802.7104) rotate(-91.8969)" gradientUnits="userSpaceOnUse"><stop offset="0" stop-color="#ffff5e"/><stop offset="0.4925" stop-color="#99f77a"/><stop offset="0.8381" stop-color="#57f18c"/><stop offset="1" stop-color="#3eef93"/></radialGradient><radialGradient id="radial-gradient-15" cx="387.5869" cy="482.2147" r="122.5169" gradientTransform="translate(-205.7353 802.7104) rotate(-91.8969)" gradientUnits="userSpaceOnUse"><stop offset="0" stop-color="#ffff40"/><stop offset="0.4925" stop-color="#99f76c"/><stop offset="0.8381" stop-color="#57f188"/><stop offset="1" stop-color="#3eef93"/></radialGradient><radialGradient id="radial-gradient-16" cx="576.3885" cy="438.9889" r="129.6362" gradientTransform="translate(-205.7353 802.7104) rotate(-91.8969)" gradientUnits="userSpaceOnUse"><stop offset="0" stop-color="#fcee21"/><stop offset="0.4677" stop-color="#a0f576"/><stop offset="0.8301" stop-color="#5ef9b3"/><stop offset="1" stop-color="#45fbca"/></radialGradient><radialGradient id="radial-gradient-17" cx="257.8088" cy="362.0084" r="149.4797" gradientTransform="translate(-14.6958 9.5377) rotate(-1.8969)" gradientUnits="userSpaceOnUse"><stop offset="0" stop-color="#ffee60"/><stop offset="0.4754" stop-color="#a0f596"/><stop offset="0.8326" stop-color="#5ef9bc"/><stop offset="1" stop-color="#45fbca"/></radialGradient><radialGradient id="radial-gradient-18" cx="448.7858" cy="349.302" r="173.0918" gradientTransform="translate(-14.6958 9.5377) rotate(-1.8969)" gradientUnits="userSpaceOnUse"><stop offset="0" stop-color="#00c9f4"/><stop offset="0.4345" stop-color="#50dac4"/><stop offset="0.8196" stop-color="#92e99c"/><stop offset="1" stop-color="#abee8d"/></radialGradient><radialGradient id="radial-gradient-19" cx="229.7178" cy="388.6374" r="153.9388" gradientUnits="userSpaceOnUse"><stop offset="0" stop-color="#c8e0ab"/><stop offset="0.0649" stop-color="#c1e1ab"/><stop offset="0.7003" stop-color="#80eca7"/><stop offset="1" stop-color="#67f0a5"/></radialGradient><radialGradient id="radial-gradient-20" cx="240.2788" cy="213.9654" r="70.5853" gradientTransform="translate(-14.6958 9.5377) rotate(-1.8969)" gradientUnits="userSpaceOnUse"><stop offset="0" stop-color="#64f968"/><stop offset="0.1919" stop-color="#6af66f"/><stop offset="1" stop-color="#7fe988"/></radialGradient><radialGradient id="radial-gradient-21" cx="436.5264" cy="235.5788" r="133.5145" gradientTransform="translate(-14.6958 9.5377) rotate(-1.8969)" gradientUnits="userSpaceOnUse"><stop offset="0" stop-color="#00b5be"/><stop offset="0.5826" stop-color="#2ad5a8"/><stop offset="1" stop-color="#43e89a"/></radialGradient><radialGradient id="radial-gradient-22" cx="457.1655" cy="331.2785" r="174.4837" gradientTransform="translate(-14.6958 9.5377) rotate(-1.8969)" gradientUnits="userSpaceOnUse"><stop offset="0" stop-color="#00b5bb"/><stop offset="0.5826" stop-color="#2ad7b1"/><stop offset="1" stop-color="#43ebab"/></radialGradient><radialGradient id="radial-gradient-23" cx="426.4617" cy="375.2213" r="142.8632" gradientTransform="translate(-14.6958 9.5377) rotate(-1.8969)" gradientUnits="userSpaceOnUse"><stop offset="0" stop-color="#00c4ba"/><stop offset="0.5826" stop-color="#2adaa6"/><stop offset="1" stop-color="#43e89a"/></radialGradient><radialGradient id="radial-gradient-24" cx="453.0773" cy="469.735" r="288.7055" gradientTransform="translate(-14.6958 9.5377) rotate(-1.8969)" gradientUnits="userSpaceOnUse"><stop offset="0" stop-color="#009cd1"/><stop offset="0.4345" stop-color="#50cab7"/><stop offset="0.8196" stop-color="#92efa1"/><stop offset="1" stop-color="#abfd99"/></radialGradient><radialGradient id="radial-gradient-25" cx="343.6051" cy="295.9231" r="79.8852" gradientUnits="userSpaceOnUse"><stop offset="0" stop-color="#34e09f"/><stop offset="0.6478" stop-color="#6cf27c"/><stop offset="1" stop-color="#85fa6c"/></radialGradient><radialGradient id="radial-gradient-26" cx="115.5448" cy="292.2888" r="469.8113" gradientUnits="userSpaceOnUse"><stop offset="0" stop-color="#07d887"/><stop offset="0.6478" stop-color="#35a08e"/><stop offset="1" stop-color="#4a8791"/></radialGradient><radialGradient id="radial-gradient-27" cx="132.7842" cy="349.4455" r="148.9581" gradientTransform="translate(-14.6958 9.5377) rotate(-1.8969)" gradientUnits="userSpaceOnUse"><stop offset="0" stop-color="#ffff40"/><stop offset="0.0381" stop-color="#f6fe44"/><stop offset="0.5148" stop-color="#8ff171"/><stop offset="0.8452" stop-color="#4de88e"/><stop offset="1" stop-color="#34e599"/></radialGradient><radialGradient id="radial-gradient-28" cx="283.022" cy="570.1189" r="203.9856" gradientUnits="userSpaceOnUse"><stop offset="0" stop-color="#00b897"/><stop offset="0.266" stop-color="#25c698"/><stop offset="0.7646" stop-color="#66df9a"/><stop offset="1" stop-color="#7fe99b"/></radialGradient><radialGradient id="radial-gradient-29" cx="376.6439" cy="524.3219" r="300.5038" gradientTransform="translate(-14.6958 9.5377) rotate(-1.8969)" gradientUnits="userSpaceOnUse"><stop offset="0" stop-color="#00b5af"/><stop offset="0.2712" stop-color="#26c4a8"/><stop offset="0.7662" stop-color="#67de9d"/><stop offset="1" stop-color="#80e899"/></radialGradient><radialGradient id="radial-gradient-30" cx="336.6525" cy="662.8019" r="244.2034" gradientTransform="translate(-14.6958 9.5377) rotate(-1.8969)" gradientUnits="userSpaceOnUse"><stop offset="0" stop-color="#00b5be"/><stop offset="0.0194" stop-color="#02b5bd"/><stop offset="0.6858" stop-color="#43bb95"/><stop offset="1" stop-color="#5cbd85"/></radialGradient><radialGradient id="radial-gradient-31" cx="217.7038" cy="502.0153" r="156.659" gradientUnits="userSpaceOnUse"><stop offset="0" stop-color="#6ae8c4"/><stop offset="1" stop-color="#6fb57f"/></radialGradient><radialGradient id="radial-gradient-32" cx="288.8967" cy="674.8389" r="162.1278" gradientTransform="translate(-14.6958 9.5377) rotate(-1.8969)" gradientUnits="userSpaceOnUse"><stop offset="0" stop-color="#168492"/><stop offset="0.6627" stop-color="#52bb9e"/><stop offset="1" stop-color="#6bd2a3"/></radialGradient><radialGradient id="radial-gradient-33" cx="228.804" cy="564.8718" r="104.3515" gradientUnits="userSpaceOnUse"><stop offset="0" stop-color="#53af90"/><stop offset="0.3035" stop-color="#53b194"/><stop offset="0.6111" stop-color="#52b5a0"/><stop offset="0.9196" stop-color="#50bdb4"/><stop offset="1" stop-color="#50bfbb"/></radialGradient><radialGradient id="radial-gradient-34" cx="426.2498" cy="529.1963" r="205.2926" gradientUnits="userSpaceOnUse"><stop offset="0" stop-color="#00a07f"/><stop offset="0.2554" stop-color="#23b28e"/><stop offset="0.7612" stop-color="#64d4a9"/><stop offset="1" stop-color="#7de1b4"/></radialGradient><radialGradient id="radial-gradient-35" cx="288.033" cy="588.4725" r="373.2329" gradientUnits="userSpaceOnUse"><stop offset="0" stop-color="#6ae8ba"/><stop offset="1" stop-color="#6fb57f"/></radialGradient><radialGradient id="radial-gradient-36" cx="180.7245" cy="282.3162" r="82.0429" xlink:href="#radial-gradient-22"/><radialGradient id="radial-gradient-37" cx="107.8789" cy="555.0281" r="457.8578" gradientUnits="userSpaceOnUse"><stop offset="0" stop-color="#32bf53"/><stop offset="0.3524" stop-color="#4c8782"/><stop offset="0.7922" stop-color="#6946b9"/><stop offset="1" stop-color="#752dce"/></radialGradient><radialGradient id="radial-gradient-38" cx="20.0447" cy="627.345" r="217.7854" gradientTransform="translate(-14.6958 9.5377) rotate(-1.8969)" gradientUnits="userSpaceOnUse"><stop offset="0" stop-color="#b6e473"/><stop offset="1" stop-color="#3fbfc4"/></radialGradient><radialGradient id="radial-gradient-39" cx="182.2393" cy="569.614" r="198.9843" gradientTransform="translate(-14.6958 9.5377) rotate(-1.8969)" gradientUnits="userSpaceOnUse"><stop offset="0" stop-color="#76eaa9"/><stop offset="1" stop-color="#7388ff"/></radialGradient><radialGradient id="radial-gradient-40" cx="169.9968" cy="649.6237" r="137.2539" gradientTransform="translate(-14.6958 9.5377) rotate(-1.8969)" gradientUnits="userSpaceOnUse"><stop offset="0" stop-color="#78c6bd"/><stop offset="0.2356" stop-color="#77c2c1"/><stop offset="0.4744" stop-color="#74b6cc"/><stop offset="0.7146" stop-color="#6fa1df"/><stop offset="0.9547" stop-color="#6885f9"/><stop offset="1" stop-color="#667fff"/></radialGradient><radialGradient id="radial-gradient-41" cx="128.1988" cy="706.4015" r="155.4494" gradientTransform="translate(-14.6958 9.5377) rotate(-1.8969)" gradientUnits="userSpaceOnUse"><stop offset="0" stop-color="#2dc6bd"/><stop offset="0.1933" stop-color="#31c4be"/><stop offset="0.3894" stop-color="#3dbec0"/><stop offset="0.5866" stop-color="#52b3c4"/><stop offset="0.7848" stop-color="#6ea5ca"/><stop offset="0.9819" stop-color="#9292d1"/><stop offset="1" stop-color="#9690d2"/></radialGradient><radialGradient id="radial-gradient-42" cx="306.9153" cy="726.3682" r="170.2448" gradientTransform="translate(-14.6958 9.5377) rotate(-1.8969)" gradientUnits="userSpaceOnUse"><stop offset="0" stop-color="#97aaea"/><stop offset="0.6399" stop-color="#61c7d1"/><stop offset="1" stop-color="#48d5c5"/></radialGradient><radialGradient id="radial-gradient-43" cx="173.1102" cy="705.5639" r="73.7703" gradientTransform="translate(-14.6958 9.5377) rotate(-1.8969)" gradientUnits="userSpaceOnUse"><stop offset="0" stop-color="#4dc6bd"/><stop offset="0.2373" stop-color="#51c4c1"/><stop offset="0.4778" stop-color="#5dbecc"/><stop offset="0.7198" stop-color="#72b4df"/><stop offset="0.9615" stop-color="#8ea7fa"/><stop offset="1" stop-color="#93a4ff"/></radialGradient><radialGradient id="radial-gradient-44" cx="142.7138" cy="729.2771" r="159.9856" gradientTransform="translate(-14.6958 9.5377) rotate(-1.8969)" gradientUnits="userSpaceOnUse"><stop offset="0" stop-color="#4dc6bd"/><stop offset="0.2055" stop-color="#50c2be"/><stop offset="0.4139" stop-color="#5bb6bf"/><stop offset="0.6237" stop-color="#6ca1c2"/><stop offset="0.833" stop-color="#8385c5"/><stop offset="1" stop-color="#9b69c9"/></radialGradient><radialGradient id="radial-gradient-45" cx="157.6213" cy="759.1533" r="116.4421" gradientTransform="translate(-14.6958 9.5377) rotate(-1.8969)" gradientUnits="userSpaceOnUse"><stop offset="0" stop-color="#79c6bd"/><stop offset="0.1838" stop-color="#79c2bd"/><stop offset="0.3702" stop-color="#78b6bf"/><stop offset="0.5578" stop-color="#76a1c1"/><stop offset="0.7463" stop-color="#7485c4"/><stop offset="0.9337" stop-color="#7161c7"/><stop offset="1" stop-color="#7052c9"/></radialGradient><radialGradient id="radial-gradient-46" cx="216.4854" cy="344.9042" r="472.4085" gradientTransform="translate(44.8905 -30.0621) rotate(4.1431)" gradientUnits="userSpaceOnUse"><stop offset="0" stop-color="#1fbf8a"/><stop offset="0.239" stop-color="#389f90"/><stop offset="0.756" stop-color="#6a5e9d"/><stop offset="1" stop-color="#7e45a2"/></radialGradient><radialGradient id="radial-gradient-47" cx="371.1099" cy="512.3481" r="100.144" gradientUnits="userSpaceOnUse"><stop offset="0" stop-color="#4dcbbb"/><stop offset="0.377" stop-color="#51ccbc"/><stop offset="0.7584" stop-color="#5dcdbf"/><stop offset="1" stop-color="#69cfc2"/></radialGradient><radialGradient id="radial-gradient-48" cx="258.3207" cy="386.4114" r="397.1773" gradientTransform="translate(42.1953 -27.9534) rotate(3.7987)" gradientUnits="userSpaceOnUse"><stop offset="0" stop-color="#76f8a9"/><stop offset="1" stop-color="#704aff"/></radialGradient><radialGradient id="radial-gradient-49" cx="296.9437" cy="483.1452" r="208.6642" gradientTransform="translate(44.8905 -30.0621) rotate(4.1431)" gradientUnits="userSpaceOnUse"><stop offset="0" stop-color="#4eddb6"/><stop offset="1" stop-color="#b443eb"/></radialGradient><radialGradient id="radial-gradient-50" cx="308.3407" cy="367.7253" r="262.2353" gradientUnits="userSpaceOnUse"><stop offset="0" stop-color="#4dd6be"/><stop offset="0.1924" stop-color="#4fd2be"/><stop offset="0.3875" stop-color="#57c6c0"/><stop offset="0.5838" stop-color="#63b1c1"/><stop offset="0.781" stop-color="#7495c4"/><stop offset="0.9772" stop-color="#8971c8"/><stop offset="1" stop-color="#8c6cc8"/></radialGradient><radialGradient id="radial-gradient-51" cx="502.1868" cy="605.3516" r="174.371" gradientUnits="userSpaceOnUse"><stop offset="0" stop-color="#924396"/><stop offset="1" stop-color="#5abdea"/></radialGradient><radialGradient id="radial-gradient-52" cx="491.5587" cy="712.8777" r="205.107" gradientUnits="userSpaceOnUse"><stop offset="0" stop-color="#6b78d4"/><stop offset="0.2841" stop-color="#6e7cd4"/><stop offset="0.572" stop-color="#7688d4"/><stop offset="0.8609" stop-color="#839cd4"/><stop offset="1" stop-color="#8ba9d4"/></radialGradient><radialGradient id="radial-gradient-53" cx="475.6813" cy="633.1758" r="127.4927" gradientUnits="userSpaceOnUse"><stop offset="0" stop-color="#714aac"/><stop offset="0.2931" stop-color="#885cb5"/><stop offset="0.7444" stop-color="#a673c1"/><stop offset="1" stop-color="#b17cc6"/></radialGradient><radialGradient id="radial-gradient-54" cx="525.4264" cy="676.6074" r="156.6053" gradientTransform="translate(44.8905 -30.0621) rotate(4.1431)" gradientUnits="userSpaceOnUse"><stop offset="0" stop-color="#6c49c1"/><stop offset="0.2292" stop-color="#6f4dc3"/><stop offset="0.4615" stop-color="#7659c8"/><stop offset="0.6952" stop-color="#836ed0"/><stop offset="0.9286" stop-color="#958adc"/><stop offset="1" stop-color="#9c94e0"/></radialGradient><radialGradient id="radial-gradient-55" cx="528.4667" cy="815.5927" r="261.4565" gradientTransform="translate(44.8905 -30.0621) rotate(4.1431)" gradientUnits="userSpaceOnUse"><stop offset="0" stop-color="#6b78d4"/><stop offset="0.2871" stop-color="#6e7cd3"/><stop offset="0.5781" stop-color="#7688d0"/><stop offset="0.8699" stop-color="#859ccc"/><stop offset="1" stop-color="#8da8c9"/></radialGradient><radialGradient id="radial-gradient-56" cx="468.6886" cy="702.1204" r="135.2652" gradientTransform="translate(44.8905 -30.0621) rotate(4.1431)" gradientUnits="userSpaceOnUse"><stop offset="0" stop-color="#9062d4"/><stop offset="0.2373" stop-color="#9066d3"/><stop offset="0.4778" stop-color="#8f72d1"/><stop offset="0.7198" stop-color="#8e87ce"/><stop offset="0.9615" stop-color="#8da3ca"/><stop offset="1" stop-color="#8da8c9"/></radialGradient><radialGradient id="radial-gradient-57" cx="361.6659" cy="799.1267" r="211.1568" xlink:href="#radial-gradient-55"/><radialGradient id="radial-gradient-58" cx="386.725" cy="939.4505" r="315.6975" gradientTransform="translate(44.8905 -30.0621) rotate(4.1431)" gradientUnits="userSpaceOnUse"><stop offset="0" stop-color="#7835c7"/><stop offset="0.18" stop-color="#7639c8"/><stop offset="0.3624" stop-color="#7145c9"/><stop offset="0.5461" stop-color="#695acc"/><stop offset="0.7306" stop-color="#5d76d0"/><stop offset="0.9141" stop-color="#4e9ad4"/><stop offset="1" stop-color="#46aed7"/></radialGradient><radialGradient id="radial-gradient-59" cx="386.8165" cy="738.7481" r="117.9695" gradientTransform="translate(44.8905 -30.0621) rotate(4.1431)" gradientUnits="userSpaceOnUse"><stop offset="0" stop-color="#5a43c1"/><stop offset="0.2151" stop-color="#5e47c2"/><stop offset="0.4332" stop-color="#6a52c7"/><stop offset="0.6526" stop-color="#7f66ce"/><stop offset="0.8718" stop-color="#9b81d9"/><stop offset="1" stop-color="#af94e0"/></radialGradient><radialGradient id="radial-gradient-60" cx="321.7548" cy="645.192" r="159.5913" gradientTransform="translate(44.8905 -30.0621) rotate(4.1431)" gradientUnits="userSpaceOnUse"><stop offset="0" stop-color="#5a49c1"/><stop offset="0.2292" stop-color="#5e4dc3"/><stop offset="0.4615" stop-color="#6859c8"/><stop offset="0.6952" stop-color="#7a6ed0"/><stop offset="0.9286" stop-color="#938adc"/><stop offset="1" stop-color="#9c94e0"/></radialGradient><radialGradient id="radial-gradient-61" cx="294.1173" cy="392.7802" r="192.0921" gradientUnits="userSpaceOnUse"><stop offset="0" stop-color="#4dcbbd"/><stop offset="0.2587" stop-color="#4fc7be"/><stop offset="0.5209" stop-color="#56bbc3"/><stop offset="0.7838" stop-color="#61a7ca"/><stop offset="1" stop-color="#6d90d2"/></radialGradient><radialGradient id="radial-gradient-62" cx="203.7866" cy="505.4273" r="230.5519" gradientTransform="translate(44.8905 -30.0621) rotate(4.1431)" gradientUnits="userSpaceOnUse"><stop offset="0" stop-color="#4dc6bd"/><stop offset="0.2356" stop-color="#50c2be"/><stop offset="0.4744" stop-color="#58b6c3"/><stop offset="0.7146" stop-color="#65a1ca"/><stop offset="0.9547" stop-color="#7785d5"/><stop offset="1" stop-color="#7b7fd7"/></radialGradient><radialGradient id="radial-gradient-63" cx="272.7363" cy="577.3956" r="86.5714" gradientUnits="userSpaceOnUse"><stop offset="0" stop-color="#4ee3b1"/><stop offset="0.9946" stop-color="#858ce2"/></radialGradient></defs><g id="bottom"><path d="M292,658q-17.5,44-35,88-3.5,20.5-7,41l10,34,31,10,39-46-15-31Q303.5,706,292,658Z" style="fill:url(#radial-gradient)"/><g id="_Layer_" data-name="&lt;Layer&gt;"><path d="M267,754.4615Q263.5,787.7307,260,821l3-2,32-55q-1-34.5-2-69-.5-7.2693-1-14.5385Q279.5,717.4616,267,754.4615Z" style="fill:url(#radial-gradient-2)"/><path d="M292,681.4615q.5,40.7692,1,81.5385l3,3,29,17,5,2-25-25Q298.5,720.7308,292,681.4615Z" style="fill:url(#radial-gradient-3)"/><path d="M292,836l38-51-37-22-1,3q-.5,34-1,68Z" style="fill:url(#radial-gradient-4)"/><path d="M293,763l-33,58,32,15Q292.5,799.5,293,763Z" style="fill:url(#radial-gradient-5)"/></g><g id="highlights" style="opacity:0.5"><path d="M293,832l34-43-35,47-28-13,27,10q.5-12.5,1-25Q292.5,820,293,832Z" style="fill:#f2f2f2"/><path d="M292,736v27l-12,23,13-23Q292.5,749.5,292,736Z" style="fill:#f2f2f2"/></g></g><g id="right"><path d="M370,256q-3.2905,10.656-6.581,21.3121L357.35,305.5285l-3.6732,40.1436-18.9693,61.6617,58.5971,17.07,36.94,27.7925,38.5088,14.7334q-10.1172-48.6918-20.2345-97.3836Z" style="fill:url(#radial-gradient-6)"/><g id="_Layer_2" data-name="&lt;Layer&gt;"><path d="M387,311q-7,36.2307-14,72.4615L378,384l65-12,6-2c-2.3164-2.3345-4.5875-4.7323-7-7l-50-47Z" style="fill:url(#radial-gradient-7)"/><path d="M387,291l.1148,22.0473L449,370Z" style="fill:url(#radial-gradient-8)"/><path d="M370,256l18,40,61,74Z" style="fill:url(#radial-gradient-9)"/><path d="M449,370l-3,4-33,25-3,1-37-16.5385Z" style="fill:url(#radial-gradient-10)"/><path d="M449,370l-39,30,35,29q1-4.5,2-9,1-22,2-44Z" style="fill:url(#radial-gradient-11)"/><path d="M449,370q-2,29.5-4,59l24.2363,37.4131Q459.118,418.2066,449,370Z" style="fill:url(#radial-gradient-12)"/></g><g id="highlights-2" data-name="highlights" style="opacity:0.5"><path d="M449,370q12.1554,57.9726,12,58-.15.0319-12-55-1,14.5-2,29,.5-15.5,1-31l-25,19,24-20-14-15,12.0964,11.34Q447.0482,368.17,449,370Z" style="fill:#f2f2f2"/></g></g><g id="top"><path d="M234.9531,294.5744,255.366,336.922q3.71,21.3888,7.42,42.7778,7.9725,29.2521,15.9452,58.5043l28.3671,63.7952q32.9295-59.4723,65.8591-118.9444Q375.4787,334.0274,378,285L302,178Z" style="fill:url(#radial-gradient-13)"/><g id="shapes_copy_5" data-name="shapes copy 5"><path d="M229,272q2.9766,11.2872,5.9531,22.5744,25.9462,28.1566,51.8924,56.3132L303,346q5-20.5,10-41l-79-32Z" style="fill:url(#radial-gradient-14)"/><path d="M229,272l74.1539-2.6969L305,272q2.5,16,5,32v4Z" style="fill:url(#radial-gradient-15)"/><path d="M229,272l74.1539-2.6969L307,264l3.2559-21.9469L301,171Z" style="fill:url(#radial-gradient-16)"/><path d="M300.5638,423.386q-6.8591-36.2492-13.7183-72.4984L301,343l1,2q-.5,38-1,76Z" style="fill:url(#radial-gradient-17)"/><path d="M318,431q5.8383-12.75,11.6767-25.5.1617-1.75.3233-3.5l-18-89-2-5-9,35-.4362,80.386L303,426l13,6Z" style="fill:url(#radial-gradient-18)"/><path d="M300.5638,423.386q3.3064,39.412,6.6128,78.8243L318,431Z" style="fill:url(#radial-gradient-19)"/><path d="M310,242l21.2112-1.6415q1.941-1.4967,3.8985-3.1307a127.8005,127.8005,0,0,0,16.4611-16.554L301,171Z" style="fill:url(#radial-gradient-20)"/><path d="M310,242l3,4,71,44,3,.4615q-8.14-17.3377-17.28-35.37-9.0419-17.8028-18.1492-34.4181Z" style="fill:url(#radial-gradient-21)"/><path d="M310,242l77,48.4615v20L385,311l-67-32q-4-17-8-34Z" style="fill:url(#radial-gradient-22)"/><path d="M319,278l68,32.4615Q380,346.7308,373,383l-3-1-57-67-3-7q.5-4,1-8l7-21Z" style="fill:url(#radial-gradient-23)"/><path d="M310,308l19.6767,97.5,43.2808-22.4449Z" style="fill:url(#radial-gradient-24)"/><path d="M319,278l-9,30q-3.423-19.3485-6.8461-38.6969Q306.5771,255.6516,310,242Z" style="fill:url(#radial-gradient-25)"/></g><g id="highlights_copy_2" data-name="highlights copy 2" style="opacity:0.5"><path d="M301,171l17,17-16-15,3,30q-2-15-4-30-18.7663,25.1741-19,25Q281.7588,197.8236,301,171Z" style="fill:#f2f2f2"/><path d="M309,246l-7,22-40,3,40-1,6,29q-2-15-4-30Q306.5,257.5,309,246Z" style="fill:#f2f2f2"/><path d="M359,297l28,13q-3.5,18-7,36l6-35Z" style="fill:#f2f2f2"/></g></g><g id="left"><g id="inner"><path d="M229,272l58,79q16,36.7308,32,73.4615,3.5,19.5,7,39,.5,27,1,54,9.5,36,19,72Q345,606.7308,344,624l-24,48.4615-106-28q-37-43-74-86l32-54Z" style="fill:url(#radial-gradient-26)"/></g><g id="_Layer_3" data-name="&lt;Layer&gt;"><path d="M235,289q.5,10.5,1,21,8.5,40,17,80l32-30q1-4.5,2-9Z" style="fill:url(#radial-gradient-27)"/><path d="M287,351q11,38.2308,22,76.4615,2.5,15,5,30Q312,480.2308,310,503l-3-2-39-52-14.2986-61.764Z" style="fill:url(#radial-gradient-28)"/><path d="M270,452q-8.244,22.3005-17,45-11.399,29.5369-23,58L121,515l-7-4L235,289Q252.5,370.5,270,452Z" style="fill:url(#radial-gradient-29)"/><path d="M140.132,558.3245,114,511l115.5,41.8634L230,558l-9,64-1,2Z" style="fill:url(#radial-gradient-30)"/><path d="M258.6034,540.3932,275,512l48,66Z" style="fill:url(#radial-gradient-31)"/><path d="M229,553l-9,71,16-6,81-35,6-5-61-38Z" style="fill:url(#radial-gradient-32)"/><path d="M323,578,220,624l83,11.4615,16-23Q321,595.2308,323,578Z" style="fill:url(#radial-gradient-33)"/><path d="M274,512l-6-58q.5-3,1-6l41,55q6.5,37.5,13,75Z" style="fill:url(#radial-gradient-34)"/><path d="M269,448q-9.33,25.1091-18.7693,50.1821Q239.9278,525.5505,229.5,552.8634L261,540l14.2166-26.6715Z" style="fill:url(#radial-gradient-35)"/><path d="M193,366l42-77-6-17Z" style="fill:url(#radial-gradient-36)"/></g><g id="highlights_copy_3" data-name="highlights copy 3" style="opacity:0.5"><path d="M270,448l3,42q-2-20-4-40l-13,33,12-35q-9.4764-46.8942-9-47Q259.4794,400.898,270,448Z" style="fill:#f2f2f2"/><path d="M230,551l-32-9,30,12q-1,12.5-2,25,2.5-12.5,5-25l31-13,9-19-10,18Z" style="fill:#f2f2f2"/><path d="M136,471l-18,39,57,23-57-19,19,39-23-42Z" style="fill:#f2f2f2"/></g></g><g id="left-bottom"><g id="inner-2" data-name="inner"><path d="M341,617l-29,80q-8.5,34.7309-17,69.4615l-33.6767,56.3619-26.31-39.1506q-10.4184-42.6786-20.8369-85.3571Q177.088,628.658,140,559l99,44Z" style="fill:url(#radial-gradient-37)"/></g><g id="_Layer_4" data-name="&lt;Layer&gt;"><path d="M218,619l1,3s-1.3913,26.0872-4,75l-1.307,1.832L140,558Z" style="fill:url(#radial-gradient-38)"/><path d="M221,621l5,7,61,51,5,1.4615L304,635Z" style="fill:url(#radial-gradient-39)"/><path d="M221,621q-.5,3.5-1,7l15,84c15.6845-7.5821,31.7435-16.1958,48-26q4.5642-2.7527,9-5.5385Z" style="fill:url(#radial-gradient-40)"/><path d="M292,680.4615,285,697l-44,80-6,7q-.5-7-1-14V716l2-5Z" style="fill:url(#radial-gradient-41)"/><path d="M213.693,698.832Q215.3465,700.916,217,703l15,9,4-1-15-90-3-2Q215.8465,658.916,213.693,698.832Z" style="fill:url(#radial-gradient-42)"/><path d="M236,711q-.5,36.5-1,73-10.6536-42.584-21.307-85.168Z" style="fill:url(#radial-gradient-43)"/><path d="M292,680.4615,235,784l5-2,24-23,3-5Z" style="fill:url(#radial-gradient-44)"/><path d="M267,754l-32,30,25.2908,37.857Z" style="fill:url(#radial-gradient-45)"/></g><g id="highlights-3" data-name="highlights" style="opacity:0.5"><path d="M229,667q4,21.5,8,43l32-17-32,19q-.5,13-1,26-.5-13.5-1-27Z" style="fill:#f2f2f2"/><path d="M235,784l11,16-9-16q19.2457-19.7519,19-20Q255.7468,763.747,235,784Z" style="fill:#f2f2f2"/></g></g><g id="right-bottom"><g id="inner-3" data-name="inner"><path d="M279,590.4615l-18.4794,98.7293q14.359,37.071,28.7184,74.1422l39.52,21.9125q55.1142-49.8,110.2282-99.5993,7.4943-25.2256,14.9888-50.4513,8.4252-10.678,16.85-21.356,6.76-19.25,13.5193-38.5-3.83-17.1633-7.66-34.3266-2.6766-28.0626-5.3533-56.1251L444,427.4615l-70-44-57,19-29,39q-8,38-16,76Q275.5,553.9616,279,590.4615Z" style="fill:url(#radial-gradient-46)"/></g><path d="M329,405l3,3q3.5,47.5,7,95l-30-1.5385q4-35,8-70Z" style="fill:url(#radial-gradient-47)"/><path d="M469,465q-12.5-18.7692-25-37.5385l-35-28L373,383l20,22,57,49Z" style="fill:url(#radial-gradient-48)"/><path d="M309,501q6.5,38.7308,13,77.4615L328,581h76l-64-78-3-2Z" style="fill:url(#radial-gradient-49)"/><path d="M485.3574,575.01,482,575l-76-51L373,391v-8l96,82Q477.1788,520.005,485.3574,575.01Z" style="fill:url(#radial-gradient-50)"/><path d="M471,614q7.1787-19.495,14.3574-38.99l-77.32-53.7266L404,524l-6,48,3,10,68,32Z" style="fill:url(#radial-gradient-51)"/><path d="M400,579l2,8q-2,15.5-4,31L291,681q5.5-22.7692,11-45.5385l11-19L319,612l68-30Z" style="fill:url(#radial-gradient-52)"/><path d="M453.9033,635.522,471,614l-71-35,3,8,46,46Z" style="fill:url(#radial-gradient-53)"/><path d="M400,579q-4,20-8,40,1,3.5,2,7l42,58,3.2474,1.5939q7.3279-25.0359,14.6559-50.0719Z" style="fill:url(#radial-gradient-54)"/><path d="M392,619,291,681l88,25q7-41.5,14-83Z" style="fill:url(#radial-gradient-55)"/><path d="M392,619q-7,45-14,90l49-17,12.2474-6.4061Z" style="fill:url(#radial-gradient-56)"/><path d="M379,704l-30,38-48-48-10-13Z" style="fill:url(#radial-gradient-57)"/><path d="M291,681l59,60q-9.5,20.5-19,41l-2.2408,3.2455L300,712Z" style="fill:url(#radial-gradient-58)"/><path d="M304.561,759.43l24.1982,25.8157L291,681Q297.78,720.2149,304.561,759.43Z" style="fill:url(#radial-gradient-59)"/><path d="M439.2205,685.9666,379,704l-30,36-20.2408,45.2455Z" style="fill:url(#radial-gradient-60)"/><path d="M373,383.4615,329,405q4,48,8,96l8,5,60,16,3.0369-.7167Q390.5186,452.3724,373,383.4615Z" style="fill:url(#radial-gradient-61)"/><path d="M337,501l63,78q4-29,8-58Z" style="fill:url(#radial-gradient-62)"/><path d="M322,578.4615l-9,38L400,579Z" style="fill:url(#radial-gradient-63)"/><g id="highlights-4" data-name="highlights" style="opacity:0.5"><path d="M406,520q-13-54.5-26-109l30,110,61,44-62-40-6,35,3-36-36-14Z" style="fill:#f2f2f2"/><path d="M389,633l-12,69-38-8,37,11-16,22,20-22,36-12-36,9Z" style="fill:#f2f2f2"/></g></g></svg>