<svg id="ba506192-3a29-4a83-bfd1-fa2a649c1d58" data-name="Layer 1" xmlns="http://www.w3.org/2000/svg" xmlns:xlink="http://www.w3.org/1999/xlink" viewBox="0 0 800 1200"><defs><radialGradient id="b7c7aa02-6901-4492-bfe1-f6b83d01f69e" cx="412.0902" cy="80.047" r="490.3486" gradientTransform="matrix(1, 0, 0, -1, 0, 1200)" gradientUnits="userSpaceOnUse"><stop offset="0" stop-color="#32bf53"/><stop offset="0.5589" stop-color="#48c279"/><stop offset="1" stop-color="#56c492"/></radialGradient><radialGradient id="af57d16c-622f-4fd8-be49-5ae753328910" cx="242.4066" cy="250.6923" r="191.1897" gradientTransform="matrix(1, 0, 0, -1, 0, 1200)" gradientUnits="userSpaceOnUse"><stop offset="0" stop-color="#a3adbd"/><stop offset="0.2444" stop-color="#a3aac1"/><stop offset="0.4922" stop-color="#a3a2cd"/><stop offset="0.7415" stop-color="#a294e2"/><stop offset="0.9906" stop-color="#a280fe"/><stop offset="1" stop-color="#a27fff"/></radialGradient><radialGradient id="e06a239d-ff7a-4ded-9358-a2b458b3044e" cx="342.6264" cy="59.2198" r="218.7288" gradientTransform="matrix(1, 0, 0, -1, 0, 1200)" gradientUnits="userSpaceOnUse"><stop offset="0" stop-color="#5a43c1"/><stop offset="0.2204" stop-color="#5d47c3"/><stop offset="0.4438" stop-color="#6653c7"/><stop offset="0.6687" stop-color="#7668cf"/><stop offset="0.8932" stop-color="#8b84da"/><stop offset="1" stop-color="#9794e0"/></radialGradient><radialGradient id="bb674848-90d4-4d1b-939d-ffc00eac4a81" cx="381" cy="427.9231" r="194.093" gradientTransform="matrix(1, 0, 0, -1, 0, 1200)" gradientUnits="userSpaceOnUse"><stop offset="0" stop-color="#7f85aa"/><stop offset="0.2373" stop-color="#8085ae"/><stop offset="0.4778" stop-color="#8284ba"/><stop offset="0.7198" stop-color="#8682cf"/><stop offset="0.9615" stop-color="#8b7feb"/><stop offset="1" stop-color="#8c7ff0"/></radialGradient><radialGradient id="a681bc43-a99d-4ff7-8118-b5324eac0a54" cx="511.1538" cy="154.1648" r="343.9975" gradientTransform="matrix(1, 0, 0, -1, 0, 1200)" gradientUnits="userSpaceOnUse"><stop offset="0" stop-color="#7b53c4"/><stop offset="0.2463" stop-color="#7d57c6"/><stop offset="0.496" stop-color="#8363cb"/><stop offset="0.7473" stop-color="#8e78d4"/><stop offset="0.9983" stop-color="#9c94e0"/><stop offset="1" stop-color="#9c94e0"/></radialGradient><radialGradient id="f5387fb5-26f0-4f42-876b-34f6f4314ca6" cx="533.3077" cy="192.5385" r="171.2058" gradientTransform="matrix(1, 0, 0, -1, 0, 1200)" gradientUnits="userSpaceOnUse"><stop offset="0" stop-color="#6c49c1"/><stop offset="0.2292" stop-color="#6f4dc3"/><stop offset="0.4615" stop-color="#7659c8"/><stop offset="0.6952" stop-color="#836ed0"/><stop offset="0.9286" stop-color="#958adc"/><stop offset="1" stop-color="#9c94e0"/></radialGradient><radialGradient id="a41a6c3d-7df3-472e-a228-fab0c9323d79" cx="73.6154" cy="298.1648" r="260.715" gradientTransform="matrix(1, 0, 0, -1, 0, 1200)" gradientUnits="userSpaceOnUse"><stop offset="0" stop-color="#4dc6bd"/><stop offset="0.2204" stop-color="#51c4be"/><stop offset="0.4438" stop-color="#5dbfbf"/><stop offset="0.6687" stop-color="#72b6c2"/><stop offset="0.8932" stop-color="#8eaac7"/><stop offset="1" stop-color="#9ea3c9"/></radialGradient><radialGradient id="a1706b08-cc02-4497-9d38-8f845d0a5596" cx="441.5275" cy="152.5824" r="180.815" gradientTransform="matrix(1, 0, 0, -1, 0, 1200)" gradientUnits="userSpaceOnUse"><stop offset="0" stop-color="#787dd4"/><stop offset="0.2784" stop-color="#7b81d3"/><stop offset="0.5606" stop-color="#858dd1"/><stop offset="0.8437" stop-color="#95a1cc"/><stop offset="1" stop-color="#a1b0c9"/></radialGradient><radialGradient id="b1739913-e453-4228-b500-22e173975b1b" cx="443.9011" cy="100.3625" r="112.2513" gradientTransform="matrix(1, 0, 0, -1, 0, 1200)" gradientUnits="userSpaceOnUse"><stop offset="0" stop-color="#5a49c1"/><stop offset="0.2292" stop-color="#5e4dc3"/><stop offset="0.4615" stop-color="#6859c8"/><stop offset="0.6952" stop-color="#7a6ed0"/><stop offset="0.9286" stop-color="#938adc"/><stop offset="1" stop-color="#9c94e0"/></radialGradient><radialGradient id="bb9f3fa6-9a2f-4733-830b-545e877e0164" cx="121.0879" cy="387.5714" r="375.7567" gradientTransform="matrix(1, 0, 0, -1, 0, 1200)" gradientUnits="userSpaceOnUse"><stop offset="0" stop-color="#55bdc5"/><stop offset="0.1897" stop-color="#57b9c3"/><stop offset="0.382" stop-color="#5dadbf"/><stop offset="0.5756" stop-color="#6798b7"/><stop offset="0.7701" stop-color="#757cac"/><stop offset="0.9636" stop-color="#86589e"/><stop offset="1" stop-color="#8a509b"/></radialGradient><radialGradient id="f63a3d3c-ef4e-4f73-aaee-8bace8bd5c55" cx="393.5633" cy="229.5669" r="792.7989" xlink:href="#b7c7aa02-6901-4492-bfe1-f6b83d01f69e"/><radialGradient id="f9dd6fe4-51a6-4ed3-907a-0413c326944d" cx="352.9121" cy="1124.1868" r="227.7472" gradientTransform="matrix(1, 0, 0, -1, 0, 1200)" gradientUnits="userSpaceOnUse"><stop offset="0" stop-color="#ffff40"/><stop offset="0.4925" stop-color="#99f76c"/><stop offset="0.8381" stop-color="#57f188"/><stop offset="1" stop-color="#3eef93"/></radialGradient><radialGradient id="a1b8045f-7130-44cc-b763-77b70d08f7ef" cx="434.4066" cy="1085.4176" r="83.0279" gradientTransform="matrix(1, 0, 0, -1, 0, 1200)" gradientUnits="userSpaceOnUse"><stop offset="0" stop-color="#64f968"/><stop offset="0.1919" stop-color="#6af66f"/><stop offset="1" stop-color="#7fe988"/></radialGradient><radialGradient id="eaba54a2-6df8-4932-855f-34a45eff076f" cx="195.4615" cy="1073.5495" r="293.708" xlink:href="#f9dd6fe4-51a6-4ed3-907a-0413c326944d"/><radialGradient id="be3b8f9f-ac1e-4599-a649-d47dd76789b8" cx="481.0879" cy="869.4176" r="133.2288" gradientTransform="matrix(1, 0, 0, -1, 0, 1200)" gradientUnits="userSpaceOnUse"><stop offset="0" stop-color="#00b5af"/><stop offset="0.5826" stop-color="#2ad5a1"/><stop offset="1" stop-color="#43e899"/></radialGradient><radialGradient id="ae7207ce-b4e8-44fa-926a-1f1caeff0f93" cx="300.2967" cy="565.5934" r="213.7512" xlink:href="#be3b8f9f-ac1e-4599-a649-d47dd76789b8"/><radialGradient id="bc7578f1-bd25-4f0d-9d86-6e23b81154ab" cx="342.6264" cy="545.022" r="225.1542" xlink:href="#be3b8f9f-ac1e-4599-a649-d47dd76789b8"/><radialGradient id="ee681880-090b-4ff6-8b94-1930160486bb" cx="381.3956" cy="567.5714" r="252.1105" gradientTransform="matrix(1, 0, 0, -1, 0, 1200)" gradientUnits="userSpaceOnUse"><stop offset="0" stop-color="#00b5be"/><stop offset="0.5826" stop-color="#2ad5ba"/><stop offset="1" stop-color="#43e8b8"/></radialGradient><radialGradient id="aa74662e-c272-47d1-adca-3fd3f684465b" cx="114.3626" cy="823.9231" r="265.0422" gradientTransform="matrix(1, 0, 0, -1, 0, 1200)" gradientUnits="userSpaceOnUse"><stop offset="0" stop-color="#fcee21"/><stop offset="0.4677" stop-color="#a0f576"/><stop offset="0.8301" stop-color="#5ef9b3"/><stop offset="1" stop-color="#45fbca"/></radialGradient><radialGradient id="fea4922c-3afe-4244-abca-0484127d1643" cx="91.8132" cy="950.9121" r="301.8941" xlink:href="#aa74662e-c272-47d1-adca-3fd3f684465b"/><radialGradient id="e0597ee4-3817-452b-99fd-3003b8f40985" cx="320.4725" cy="713.5495" r="238.5465" gradientTransform="matrix(1, 0, 0, -1, 0, 1200)" gradientUnits="userSpaceOnUse"><stop offset="0" stop-color="#00b5be"/><stop offset="0.5826" stop-color="#2ad5a8"/><stop offset="1" stop-color="#43e89a"/></radialGradient><radialGradient id="b19837f3-4f1b-4b0a-9bbf-b3b8948ce3ac" cx="402.7582" cy="731.3516" r="139.424" gradientTransform="matrix(1, 0, 0, -1, 0, 1200)" gradientUnits="userSpaceOnUse"><stop offset="0" stop-color="#00b56c"/><stop offset="0.5826" stop-color="#2ad584"/><stop offset="1" stop-color="#43e893"/></radialGradient><radialGradient id="a59a1663-c0c0-4dd9-ab8d-456e3e8016a5" cx="330.7582" cy="919.9231" r="121.2235" gradientTransform="matrix(1, 0, 0, -1, 0, 1200)" gradientUnits="userSpaceOnUse"><stop offset="0" stop-color="#3ae879"/><stop offset="0.4281" stop-color="#40d88f"/><stop offset="1" stop-color="#46c5a8"/></radialGradient><radialGradient id="be90dabb-dfe4-4de5-9ddb-aad857e8b06b" cx="152.7363" cy="410.5165" r="268.284" xlink:href="#be3b8f9f-ac1e-4599-a649-d47dd76789b8"/><radialGradient id="fdba995e-b4c5-43e8-85fc-656f9128e779" cx="125.044" cy="524.4505" r="201.3871" gradientTransform="matrix(1, 0, 0, -1, 0, 1200)" gradientUnits="userSpaceOnUse"><stop offset="0" stop-color="#ffe47d"/><stop offset="1" stop-color="#6fc2bf"/></radialGradient><radialGradient id="e9b65f46-8faa-4d7d-8812-ebe95b16d2fe" cx="467.6374" cy="931.9231" r="94.6049" xlink:href="#be3b8f9f-ac1e-4599-a649-d47dd76789b8"/><radialGradient id="e53c0dfd-f308-4d74-b520-825edacbc8ae" cx="557.044" cy="741.2418" r="260.715" xlink:href="#ee681880-090b-4ff6-8b94-1930160486bb"/><radialGradient id="efe939e3-19c8-4d51-a8e7-ae868e9faeb3" cx="459.7253" cy="728.978" r="173.2666" gradientTransform="matrix(1, 0, 0, -1, 0, 1200)" gradientUnits="userSpaceOnUse"><stop offset="0" stop-color="#4dc6bd"/><stop offset="0.2356" stop-color="#4ec2c1"/><stop offset="0.4744" stop-color="#53b6cc"/><stop offset="0.7146" stop-color="#5aa1df"/><stop offset="0.9547" stop-color="#6485f9"/><stop offset="1" stop-color="#667fff"/></radialGradient><radialGradient id="a493981a-3194-4e68-92a1-f172bf05c10a" cx="473.967" cy="340.8901" r="483.987" gradientTransform="matrix(0.3629, -0.9318, -0.5417, -0.211, 486.6459, 1372.7207)" gradientUnits="userSpaceOnUse"><stop offset="0" stop-color="#4dc6bd"/><stop offset="0.2705" stop-color="#4fc2bf"/><stop offset="0.5446" stop-color="#57b6c3"/><stop offset="0.8196" stop-color="#63a2cb"/><stop offset="1" stop-color="#6d90d2"/></radialGradient><radialGradient id="ac6010da-b941-403f-b99e-35d99b0dde7d" cx="488.2088" cy="635.2198" r="265.4326" gradientTransform="matrix(1, 0, 0, -1, 0, 1200)" gradientUnits="userSpaceOnUse"><stop offset="0" stop-color="#4dc6bd"/><stop offset="0.2151" stop-color="#51c3c0"/><stop offset="0.4332" stop-color="#5db8ca"/><stop offset="0.6526" stop-color="#72a7d9"/><stop offset="0.8718" stop-color="#8e90ef"/><stop offset="1" stop-color="#a27fff"/></radialGradient><radialGradient id="a9935c71-8f0b-434a-88eb-11173d435768" cx="500.0769" cy="700.4945" r="155.2005" gradientTransform="matrix(1, 0, 0, -1, 0, 1200)" gradientUnits="userSpaceOnUse"><stop offset="0" stop-color="#3da6c1"/><stop offset="0.5987" stop-color="#6ac0ae"/><stop offset="1" stop-color="#83cfa3"/></radialGradient><radialGradient id="acdcf11f-8d40-4b1f-a89c-4ce8e3c111af" cx="543.5934" cy="518.1209" r="293.9572" gradientTransform="matrix(1, 0, 0, -1, 0, 1200)" gradientUnits="userSpaceOnUse"><stop offset="0" stop-color="#00b5af"/><stop offset="0.2607" stop-color="#24bea7"/><stop offset="0.7629" stop-color="#65ce99"/><stop offset="1" stop-color="#7ed493"/></radialGradient><radialGradient id="ba6d1b57-5d07-4282-8c63-92e4e3ba54e2" cx="579.9889" cy="798.2088" r="147.8523" gradientTransform="matrix(1, 0.0005, 0.0005, -1, -0.4436, 1199.74)" gradientUnits="userSpaceOnUse"><stop offset="0" stop-color="#00b5af"/><stop offset="0.3898" stop-color="#42c0a6"/><stop offset="0.8041" stop-color="#83cb9d"/><stop offset="1" stop-color="#9ccf99"/></radialGradient><radialGradient id="b8997df9-d174-4415-b969-e961817a28df" cx="543.5934" cy="677.9451" r="243.7129" gradientTransform="matrix(1, 0, 0, -1, 0, 1200)" gradientUnits="userSpaceOnUse"><stop offset="0" stop-color="#009cd1"/><stop offset="0.4778" stop-color="#60c5b4"/><stop offset="0.8334" stop-color="#a2e0a1"/><stop offset="1" stop-color="#bbeb99"/></radialGradient><radialGradient id="bc952e56-bd92-4293-b205-b2552f955d0e" cx="322.0549" cy="918.4725" r="172.8388" gradientTransform="matrix(1, 0, 0, -1, 0, 1200)" gradientUnits="userSpaceOnUse"><stop offset="0" stop-color="#00b5be"/><stop offset="0.4002" stop-color="#45cbbb"/><stop offset="0.8075" stop-color="#86e0b9"/><stop offset="1" stop-color="#9fe8b8"/></radialGradient><radialGradient id="a6990054-526b-4faf-b303-85d7a56a07c9" cx="130.5824" cy="429.5055" r="246.7861" xlink:href="#ee681880-090b-4ff6-8b94-1930160486bb"/><radialGradient id="b50fd301-2578-45d9-8fdc-c421cb7423e4" cx="443.9011" cy="204.011" r="192.1941" gradientTransform="matrix(1, 0, 0, -1, 0, 1200)" gradientUnits="userSpaceOnUse"><stop offset="0" stop-color="#6b78d4"/><stop offset="0.2871" stop-color="#6e7cd3"/><stop offset="0.5781" stop-color="#7688d0"/><stop offset="0.8699" stop-color="#859ccc"/><stop offset="1" stop-color="#8da8c9"/></radialGradient><radialGradient id="b019d20c-e86c-4996-9631-cf8354459ba9" cx="615.8571" cy="290.2527" r="196.1815" gradientTransform="matrix(1, 0, 0, -1, 0, 1200)" gradientUnits="userSpaceOnUse"><stop offset="0" stop-color="#7149c1"/><stop offset="0.1933" stop-color="#724dc3"/><stop offset="0.3894" stop-color="#7659cb"/><stop offset="0.5866" stop-color="#7c6ed7"/><stop offset="0.7848" stop-color="#858ae7"/><stop offset="0.9819" stop-color="#91aefd"/><stop offset="1" stop-color="#92b2ff"/></radialGradient><radialGradient id="bc28fe42-856c-4fff-81e2-edf8630b8454" cx="490.495" cy="453.81" r="173.4107" gradientTransform="matrix(1, 0, 0, -1, 0, 1200)" gradientUnits="userSpaceOnUse"><stop offset="0" stop-color="#b6e473"/><stop offset="1" stop-color="#3fbfc4"/></radialGradient><radialGradient id="f68d78ed-724c-47cb-b52d-49d09e019011" cx="423.1686" cy="514.7075" r="39.4506" xlink:href="#bc28fe42-856c-4fff-81e2-edf8630b8454"/><radialGradient id="a30686e3-3d9c-449a-9776-1895a59265c8" cx="325.7308" cy="557.6813" r="285.5068" gradientTransform="matrix(1, 0, 0, -1, 0, 1200)" gradientUnits="userSpaceOnUse"><stop offset="0" stop-color="#76eaa9"/><stop offset="1" stop-color="#7388ff"/></radialGradient><radialGradient id="a602aeda-0919-49f6-b812-5adb26a2a298" cx="313.7473" cy="503.4835" r="172.8026" xlink:href="#a30686e3-3d9c-449a-9776-1895a59265c8"/><radialGradient id="a0bc5b0b-ee36-40fe-ba0f-59d06b15217f" cx="354.3032" cy="437.6665" r="201.2903" gradientTransform="matrix(1, 0, 0, -1, 0, 1200)" gradientUnits="userSpaceOnUse"><stop offset="0" stop-color="#4dc6bd"/><stop offset="0.2444" stop-color="#4fc3c1"/><stop offset="0.4922" stop-color="#53bbcd"/><stop offset="0.7415" stop-color="#5baee2"/><stop offset="0.9906" stop-color="#669cfe"/><stop offset="1" stop-color="#669bff"/></radialGradient><radialGradient id="a9c8870f-850b-41dd-ad6b-944f2474afee" cx="148.9862" cy="472.7909" r="317.1088" gradientTransform="matrix(1, 0, 0, -1, 0, 1200)" gradientUnits="userSpaceOnUse"><stop offset="0" stop-color="#4dafd2"/><stop offset="0.2204" stop-color="#51aed2"/><stop offset="0.4438" stop-color="#5dadd0"/><stop offset="0.6687" stop-color="#72aace"/><stop offset="0.8932" stop-color="#8ea5cb"/><stop offset="1" stop-color="#9ea3c9"/></radialGradient><radialGradient id="ad269930-9263-42c8-8b9f-690527e08ecf" cx="405.1319" cy="488.0549" r="269.6183" gradientTransform="matrix(1, 0, 0, -1, 0, 1200)" xlink:href="#ba6d1b57-5d07-4282-8c63-92e4e3ba54e2"/><radialGradient id="b5dbde9a-7f7a-4dbd-8c39-a3b23e3e44ce" cx="307.8132" cy="519.7033" r="189.679" gradientTransform="matrix(1, 0, 0, -1, 0, 1200)" gradientUnits="userSpaceOnUse"><stop offset="0" stop-color="#78c6bd"/><stop offset="0.2356" stop-color="#77c2c1"/><stop offset="0.4744" stop-color="#74b6cc"/><stop offset="0.7146" stop-color="#6fa1df"/><stop offset="0.9547" stop-color="#6885f9"/><stop offset="1" stop-color="#667fff"/></radialGradient><radialGradient id="a4380324-b82c-4a23-b175-51f1e5aa959c" cx="221.5714" cy="433.4615" r="84.5706" xlink:href="#a41a6c3d-7df3-472e-a228-fab0c9323d79"/><radialGradient id="b9135375-15eb-48f3-9439-16d5af0c8968" cx="223.1538" cy="661.7253" r="340.8926" gradientTransform="matrix(1, 0, 0, -1, 0, 1200)" gradientUnits="userSpaceOnUse"><stop offset="0" stop-color="#96e46f"/><stop offset="0.9068" stop-color="#6fbbd8"/></radialGradient><radialGradient id="adea13ee-a54f-470d-b591-3dd6182bb4cb" cx="165.3956" cy="484.8901" r="177.4849" gradientTransform="matrix(1, 0, 0, -1, 0, 1200)" gradientUnits="userSpaceOnUse"><stop offset="0" stop-color="#96e46f"/><stop offset="1" stop-color="#6fbbd8"/></radialGradient><radialGradient id="bdbf5e2b-56da-4a6f-afab-3d80306dfbc3" cx="136.9121" cy="649.4615" r="176.3597" xlink:href="#bc952e56-bd92-4293-b205-b2552f955d0e"/><radialGradient id="b8580651-4d80-49b3-a338-9b7d42be3499" cx="329.967" cy="510.2088" r="103.5379" gradientTransform="matrix(1, 0, 0, -1, 0, 1200)" xlink:href="#ba6d1b57-5d07-4282-8c63-92e4e3ba54e2"/><radialGradient id="a56ca49e-c0fc-4a5c-8b71-aeeadf7d7b9b" cx="521.4396" cy="630.4725" r="250.8918" gradientTransform="matrix(1, 0, 0, -1, 0, 1200)" xlink:href="#ba6d1b57-5d07-4282-8c63-92e4e3ba54e2"/><radialGradient id="ee06f7ff-d6ec-402c-96d3-523ff428cee8" cx="417" cy="592.4945" r="261.4056" xlink:href="#be3b8f9f-ac1e-4599-a649-d47dd76789b8"/><radialGradient id="a71b6539-bc63-41db-9b51-a7c828a2acb2" cx="209.4879" cy="221.1023" r="207.9621" xlink:href="#b7c7aa02-6901-4492-bfe1-f6b83d01f69e"/><radialGradient id="e8dac9cb-b0a7-4af8-bd54-3aca05afdcbf" cx="164.3407" cy="206.3846" r="116.8372" xlink:href="#a41a6c3d-7df3-472e-a228-fab0c9323d79"/><radialGradient id="b979de80-88fa-4894-aca3-3ce99b2691f9" cx="165.9231" cy="274.4286" r="146.9681" gradientTransform="matrix(1, 0, 0, -1, 0, 1200)" gradientUnits="userSpaceOnUse"><stop offset="0" stop-color="#00b5bc"/><stop offset="0.2762" stop-color="#27bcbf"/><stop offset="0.7678" stop-color="#68c7c3"/><stop offset="1" stop-color="#81cbc5"/></radialGradient><radialGradient id="b3f8ccbf-a7eb-4f4c-b94a-371ce8fc5ff9" cx="100.5165" cy="427.9231" r="98.1227" xlink:href="#bc28fe42-856c-4fff-81e2-edf8630b8454"/><radialGradient id="f5feec07-ee51-4095-b73a-796e7475c7bf" cx="168.5604" cy="325.0659" r="202.7966" gradientTransform="matrix(1, 0, 0, -1, 0, 1200)" xlink:href="#ba6d1b57-5d07-4282-8c63-92e4e3ba54e2"/><radialGradient id="f0f7fe2b-fa7b-412d-b2ef-c8d4536df2a4" cx="76.7802" cy="480.1429" r="255.7453" xlink:href="#fdba995e-b4c5-43e8-85fc-656f9128e779"/><radialGradient id="a2f238d0-cb8a-41ff-85f7-5d9eaa71b5ad" cx="274.5824" cy="347.2198" r="139.4414" gradientTransform="matrix(1, 0, 0, -1, 0, 1200)" xlink:href="#ba6d1b57-5d07-4282-8c63-92e4e3ba54e2"/><radialGradient id="b8d3dd2d-b522-44d3-b6f9-f63afdb6be18" cx="327.3297" cy="349.3297" r="102.494" xlink:href="#a1706b08-cc02-4497-9d38-8f845d0a5596"/><radialGradient id="af25eadc-0bb8-49e9-9aba-becca03be34a" cx="260.3407" cy="365.8132" r="214.941" gradientTransform="matrix(1, 0, 0, -1, 0, 1200)" xlink:href="#ba6d1b57-5d07-4282-8c63-92e4e3ba54e2"/><radialGradient id="b623c67d-8eef-45bb-bc7c-1c997eda902c" cx="116.3407" cy="549.2418" r="146.6108" gradientTransform="matrix(1, 0, 0, -1, 0, 1200)" gradientUnits="userSpaceOnUse"><stop offset="0.0289" stop-color="#00aca8"/><stop offset="0.5946" stop-color="#2ad19f"/><stop offset="1" stop-color="#43e89a"/></radialGradient><radialGradient id="bb02778a-be27-4f47-be57-fda6752c9850" cx="190.7143" cy="350.3846" r="71.5596" gradientTransform="matrix(1, 0, 0, -1, 0, 1200)" gradientUnits="userSpaceOnUse"><stop offset="0" stop-color="#00b5af"/><stop offset="0.2762" stop-color="#27b1b6"/><stop offset="0.7678" stop-color="#68aac1"/><stop offset="1" stop-color="#81a7c5"/></radialGradient><radialGradient id="b8ff294e-28f7-43a6-8e5b-9ec6992f4433" cx="253.7206" cy="507.1934" r="155.1169" gradientTransform="matrix(1, 0, 0, -1, 0, 1200)" xlink:href="#ba6d1b57-5d07-4282-8c63-92e4e3ba54e2"/><radialGradient id="edc3adcc-96e3-4ed0-93b2-a0779ad3416d" cx="48.4505" cy="728.7802" r="265.4326" xlink:href="#b7c7aa02-6901-4492-bfe1-f6b83d01f69e"/><radialGradient id="a2f1a5c6-dad9-437d-858c-ab33c289ab81" cx="70.7444" cy="721.4615" r="237.4971" xlink:href="#aa74662e-c272-47d1-adca-3fd3f684465b"/><radialGradient id="fd68f898-900f-4f86-bcf8-44bb4cd58484" cx="214.4505" cy="495.967" r="185.6973" xlink:href="#be3b8f9f-ac1e-4599-a649-d47dd76789b8"/><radialGradient id="b11388ac-d8e8-42da-bbc3-2537e241a259" cx="285.2637" cy="591.7033" r="133.5667" gradientTransform="matrix(1, 0, 0, -1, 0, 1200)" xlink:href="#ba6d1b57-5d07-4282-8c63-92e4e3ba54e2"/><radialGradient id="a91008fa-e55c-4fd2-82e1-4e58e6671c2d" cx="254.4066" cy="512.978" r="188.079" xlink:href="#ee681880-090b-4ff6-8b94-1930160486bb"/><radialGradient id="b5cc9351-2a13-436d-8d97-f83c25d82e3a" cx="201.2637" cy="523.3956" r="143.647" xlink:href="#b623c67d-8eef-45bb-bc7c-1c997eda902c"/><radialGradient id="bf141c07-43a3-4141-b410-4dcefd1b12c0" cx="160.6484" cy="559.2637" r="55.8405" xlink:href="#e0597ee4-3817-452b-99fd-3003b8f40985"/><radialGradient id="e57434e9-6025-42f5-b00b-b46ebc8f8853" cx="127.0333" cy="566.1031" r="127.2968" xlink:href="#b7c7aa02-6901-4492-bfe1-f6b83d01f69e"/><radialGradient id="fb3fe729-cc42-4f15-acdb-f2e0289728d2" cx="72.4286" cy="562.4286" r="244.5264" xlink:href="#aa74662e-c272-47d1-adca-3fd3f684465b"/><radialGradient id="b94f977d-189d-4252-8d44-64aa8c4ef246" cx="195.0659" cy="521.2857" r="160.8491" xlink:href="#be3b8f9f-ac1e-4599-a649-d47dd76789b8"/><radialGradient id="e6d28823-d730-46db-99b7-b0efc7ec8d86" cx="136.3187" cy="566.7802" r="95.8565" gradientTransform="matrix(1, 0, 0, -1, 0, 1200)" gradientUnits="userSpaceOnUse"><stop offset="0" stop-color="#00abbe"/><stop offset="0.5826" stop-color="#2ad1a8"/><stop offset="1" stop-color="#43e89a"/></radialGradient><radialGradient id="a9a0177a-fc80-42a5-b0ea-07f23b133809" cx="142.0549" cy="561.044" r="86.0715" xlink:href="#e0597ee4-3817-452b-99fd-3003b8f40985"/></defs><g id="f4091d8c-ae8a-4c2e-9824-d4dbbc908250" data-name="lower crystal"><g id="b1cfd606-0ab2-44b9-b7c2-81167e2229b3" data-name="crystal shard 01"><path d="M342,810l-76,52q14,56.5,28,113,29.4823,35.8257,60,72,23.0451,27.31,46,54l82-90q15.5-35.5,31-71l52.6069-150.8727L458,780Z" style="fill:url(#b7c7aa02-6901-4492-bfe1-f6b83d01f69e)"/></g><g id="a54ec3bf-405a-43de-8d04-8aee3f093936" data-name="shapes shard 01 copy"><path d="M293.5,974.5q53,63.5,106,127-5.5-44.5-11-89Z" style="fill:url(#af57d16c-622f-4fd8-be49-5ae753328910)"/><path d="M364.5,922.5l24,90,94-1,9-61Z" style="fill:url(#e06a239d-ff7a-4ded-9358-a2b458b3044e)"/><path d="M479.4483,885.3754Q485.4741,917.9377,491.5,950.5L364.5146,922.5807Q421.9816,903.9782,479.4483,885.3754Z" style="fill:url(#bb674848-90d4-4d1b-939d-ffc00eac4a81)"/><path d="M511.5,941.5l-20,9-9,60Z" style="fill:url(#a681bc43-a99d-4ff7-8118-b5324eac0a54)"/><path d="M479.5,885.5l12,65,21-10,52-151Z" style="fill:url(#f5387fb5-26f0-4f42-876b-34f6f4314ca6)"/><path d="M266.5,862.5l98,60-71,53Z" style="fill:url(#a41a6c3d-7df3-472e-a228-fab0c9323d79)"/><path d="M388.5,1012.5l-95-37,71-53Z" style="fill:url(#a1706b08-cc02-4497-9d38-8f845d0a5596)"/><path d="M388.5,1012.5q5.5,44.5,11,89l83-91Z" style="fill:url(#b1739913-e453-4228-b500-22e173975b1b)"/><path d="M266.5,862.5l98,60,115-37,86-98-108-8-116,30Z" style="fill:url(#bb9f3fa6-9a2f-4733-830b-545e877e0164)"/></g></g><g id="a3ad49ec-3fb0-46c1-ab8a-41c0aeb22980" data-name="main crystal"><g id="b0df409e-e17a-4a4a-822a-87785efe88ae" data-name="crystal base"><path d="M639,663,580,511q-12.5-50.5-25-101-15.8323-53.4345-34-109-21.5091-65.6367-44-127l-46-30-31-35-44,43L267,313l-18,52L160,498q11,62.5,22,125l-9,19q8.5,34.5,17,69l38,76,38,77,97.7253,58.4066,114.989-36.9231,86.8926-96.3562L566,788Z" style="fill:url(#f63a3d3c-ef4e-4f73-aaee-8bace8bd5c55)"/></g><g id="e247acd2-5c1b-4ee3-a959-18a10da4f108" data-name="shapes color"><path d="M431.5,143.5q-5.5,26.5-11,53l-37,44-27-89,44-43Z" style="fill:url(#f9dd6fe4-51a6-4ed3-907a-0413c326944d)"/><path d="M477.5,173.5l-57,23q5.5-26.5,11-53Z" style="fill:url(#a1b8045f-7130-44cc-b763-77b70d08f7ef)"/><path d="M383.5,240.5l9,55-3,47-75,23-48-52,90-162Z" style="fill:url(#eaba54a2-6df8-4932-855f-34a45eff076f)"/><path d="M391.5,293.5l56,18q-2-32.5-4-65l-23-50-37,44Q387.5,267,391.5,293.5Z" style="fill:url(#be3b8f9f-ac1e-4599-a649-d47dd76789b8)"/><path d="M159.5,498.5l70-15q2.5,58.5,5,117Z" style="fill:url(#ae7207ce-b4e8-44fa-926a-1f1caeff0f93)"/><path d="M229.5,483.5l60-66q19,47,38,94l-93,88Q232,541.5,229.5,483.5Z" style="fill:url(#bc7578f1-bd25-4f0d-9d86-6e23b81154ab)"/><path d="M159.5,498.5l75,102q-5,42-10,84L182,623Z" style="fill:url(#ee681880-090b-4ff6-8b94-1930160486bb)"/><path d="M249.5,363.5l40,55-60,65-70,15Z" style="fill:url(#aa74662e-c272-47d1-adca-3fd3f684465b)"/><path d="M266.5,313.5l48,52q-12.5,26.5-25,53l-41-55Z" style="fill:url(#fea4922c-3afe-4244-abca-0484127d1643)"/><path d="M427.5,341.5l-50,84q6.5-41.5,13-83Z" style="fill:url(#e0597ee4-3817-452b-99fd-3003b8f40985)"/><path d="M314.5,365.5l62,59q6.5-41,13-82Z" style="fill:url(#b19837f3-4f1b-4b0a-9bbf-b3b8948ce3ac)"/><path d="M393.5,293.5l54,17-20,31-38,1Q391.5,318,393.5,293.5Z" style="fill:url(#a59a1663-c0c0-4dd9-ab8d-456e3e8016a5)"/><path d="M173.5,641.5l51,43,14,22-48,4Q182,676,173.5,641.5Z" style="fill:url(#be90dabb-dfe4-4de5-9ddb-aad857e8b06b)"/><path d="M183.5,622.5l42,63-52-44Z" style="fill:url(#fdba995e-b4c5-43e8-85fc-656f9128e779)"/><path d="M477.5,173.5l-34,73-23-50Z" style="fill:url(#e9b65f46-8faa-4d7d-8812-ebe95b16d2fe)"/><path d="M477.5,173.5l-34,73q2,32.5,4,65l106,94Z" style="fill:url(#e53c0dfd-f308-4d74-b520-825edacbc8ae)"/><path d="M530.5,385.5l48,125q-12.5-52-25-104Z" style="fill:url(#efe939e3-19c8-4d51-a8e7-ae868e9faeb3)"/><path d="M530.5,385.5l108,277-122,53L471,643l-1.5-7.5q-.5-68.5-1-137Z" style="fill:url(#a493981a-3194-4e68-92a1-f172bf05c10a)"/><path d="M516.4368,715.9238q-5.84,21.0453-11.6791,42.09L565.5,787.5l73-125Z" style="fill:url(#ac6010da-b941-403f-b99e-35d99b0dde7d)"/><path d="M468.5,498.5l-31,90,32,47Q469,567,468.5,498.5Z" style="fill:url(#a9935c71-8f0b-434a-88eb-11173d435768)"/><path d="M377.5,425.5,328,512l62.5,125.5,47-49,31-90Z" style="fill:url(#acdcf11f-8d40-4b1f-a89c-4ce8e3c111af)"/><path d="M447.53,311.4779l35.941,111.0192,47.02-36.975Z" style="fill:url(#ba6d1b57-5d07-4282-8c63-92e4e3ba54e2)"/><path d="M483.5243,422.48q-7.5474,37.9906-15.0947,75.9812l62.14-112.9225Z" style="fill:url(#b8997df9-d174-4415-b969-e961817a28df)"/><path d="M447.5,311.5l36,111-106,3Z" style="fill:url(#bc952e56-bd92-4293-b205-b2552f955d0e)"/><path d="M238.5,706.5q12.5,46,25,92l3,65-76-153Z" style="fill:url(#a6990054-526b-4faf-b303-85d7a56a07c9)"/><path d="M477.5,814.5q1,36.5,2,73l-115,35,18-124Z" style="fill:url(#b50fd301-2578-45d9-8fdc-c421cb7423e4)"/><path d="M504.5,758.5l61,29-86,98q-1-35.5-2-71Z" style="fill:url(#b019d20c-e86c-4996-9631-cf8354459ba9)"/><path d="M469,635l-31.5-46.5-46.26,48.2287L391,650l80.427-6.8757Z" style="fill:url(#bc28fe42-856c-4fff-81e2-edf8630b8454)"/><path d="M374,651l18-1q-.5-6.5-1-13Z" style="fill:url(#f68d78ed-724c-47cb-b52d-49d09e019011)"/><path d="M492,717q-10.2867-36.9378-20.573-73.8757l-79.7444,6.9344A17.0789,17.0789,0,0,1,391,653c-5.4142,26.2976-9.0319,51.4018-12.2448,77.1573Q380.6275,764.3287,382.5,798.5l95,16,27-56Q498.25,737.75,492,717Z" style="fill:url(#a30686e3-3d9c-449a-9776-1895a59265c8)"/><path d="M391.6826,650.0587,374,651q2.5,43,5,86Q385.3413,693.5293,391.6826,650.0587Z" style="fill:url(#a602aeda-0919-49f6-b812-5adb26a2a298)"/><path d="M471,643q16.75,57.75,33.5,115.5l12-43Z" style="fill:url(#a0bc5b0b-ee36-40fe-ba0f-59d06b15217f)"/><path d="M286.7809,808.2959,266,864l99,59q8.9167-62.0929,17.8334-124.1864Z" style="fill:url(#a9c8870f-850b-41dd-ad6b-944f2474afee)"/><path d="M327.5,511.5q23.5,69.5,47,139l16-13Z" style="fill:url(#ad269930-9263-42c8-8b9f-690527e08ecf)"/><path d="M378.5,736.5q2,31,4,62l-96,10,21-56Z" style="fill:url(#b5dbde9a-7f7a-4dbd-8c39-a3b23e3e44ce)"/><path d="M307.5,753.5l-44,45,3,64Q287,808,307.5,753.5Z" style="fill:url(#a4380324-b82c-4a23-b175-51f1e5aa959c)"/><path d="M327.5,511.5q-21.5,79-43,158l23,83,71-16q-2-42-4-84Z" style="fill:url(#b9135375-15eb-48f3-9439-16d5af0c8968)"/><path d="M284.5,669.5l-46,37q12.5,46,25,92l44-46Z" style="fill:url(#adea13ee-a54f-470d-b591-3dd6182bb4cb)"/><path d="M234.5,599.5l50,70q21.5-79,43-158Z" style="fill:url(#bdbf5e2b-56da-4a6f-afab-3d80306dfbc3)"/><path d="M234.5,600.5l50,69-46,37-14-22Q229.5,642.5,234.5,600.5Z" style="fill:url(#b8580651-4d80-49b3-a338-9b7d42be3499)"/><path d="M377,426l106-4-15,78Z" style="fill:url(#a56ca49e-c0fc-4a5c-8b71-aeeadf7d7b9b)"/><path d="M315,366l63,60-50,86q-19-47-38-94Z" style="fill:url(#ee06f7ff-d6ec-402c-96d3-523ff428cee8)"/></g></g><g id="f5d0a22a-d474-45e5-b3c4-041b16808668" data-name="lower left crystal"><g id="aa259b89-251b-4d66-9b2f-e420d0854dad" data-name="crystal shard 03"><path d="M238,706l27,90q.5,34,1,68l6,26-65,69q-7.6775-30.2052-17-62-12.0106-40.7948-25-78c-3.9466-31.9366-7.3442-65.2981-10-100q-3.5593-46.5078-5-90l13-7,10,20,51,41Z" style="fill:url(#a71b6539-bc63-41db-9b51-a7c828a2acb2)"/></g><g id="f5c10a3f-93d7-4cc3-9936-9bd466fdc37c" data-name="shapes shard 03"><path d="M225.5,907.5l-19,52,65-70Z" style="fill:url(#e8dac9cb-b0a7-4af8-bd54-3aca05afdcbf)"/><path d="M207.3952,833.492q8.658,36.8517,17.3159,73.7032L207.6048,957.508l-17.0487-58.7056Q198.9758,866.1473,207.3952,833.492Z" style="fill:url(#b979de80-88fa-4894-aca3-3ce99b2691f9)"/><path d="M155.5,718.5l35,89q.5,46.5,1,93-13-41-26-82Q160.5,768.5,155.5,718.5Z" style="fill:url(#b3f8ccbf-a7eb-4f4c-b94a-371ce8fc5ff9)"/><path d="M190.5,807.5l18,25-17,62Q191,851,190.5,807.5Z" style="fill:url(#f5feec07-ee51-4095-b73a-796e7475c7bf)"/><path d="M224.5,684.5l14,21-48,102Q207.5,746,224.5,684.5Z" style="fill:url(#f0f7fe2b-fa7b-412d-b2ef-c8d4536df2a4)"/><path d="M208.5,832.5l-18-25,48-101,26,89Z" style="fill:url(#a2f238d0-cb8a-41ff-85f7-5d9eaa71b5ad)"/><path d="M263.9621,798.6478q-19.4537,54.34-38.9075,108.6794L271.5,889.5q-2.5358-13.4146-5.0716-26.8293Z" style="fill:url(#b8d3dd2d-b522-44d3-b6f9-f63afdb6be18)"/><path d="M173.5,641.5q-9.5,38.5-19,77l36,89q17-61.5,34-123Z" style="fill:url(#af25eadc-0bb8-49e9-9aba-becca03be34a)"/><path d="M163.5,622.5l-14,7,6,89,18-77Z" style="fill:url(#b623c67d-8eef-45bb-bc7c-1c997eda902c)"/><path d="M208,832q8.5,38,17,76,20-56.5,40-113Z" style="fill:url(#bb02778a-be27-4f47-be57-fda6752c9850)"/><path d="M163,622l60,61-49-41Z" style="fill:url(#b8ff294e-28f7-43a6-8e5b-9ec6992f4433)"/></g></g><g id="b838182d-a590-4eee-a834-56884efc2116" data-name="middle left crystal"><g id="b4d55cda-a906-4242-addc-00f90ad3b653" data-name="crystal shard 02"><path d="M229,485l-70,15-43,64q6.5,23.5,13,47l20,19,21,9,54,44q5-41,10-82Q231.5,543,229,485Z" style="fill:url(#edc3adcc-96e3-4ed0-93b2-a0779ad3416d)"/></g><g id="be5c03e4-7d73-42c3-891c-08435de81f80" data-name="shapes shard 02 color"><path d="M229.5,483.5l-82,82L115,565l45.5-67.5Z" style="fill:url(#a2f1a5c6-dad9-437d-858c-ab33c289ab81)"/><path d="M234.5,600.5l-68-4-19-31L230,484Z" style="fill:url(#fd68f898-900f-4f86-bcf8-44bb4cd58484)"/><path d="M206.5,598.5l-33,43,52,44,9-85Z" style="fill:url(#b11388ac-d8e8-42da-bbc3-2537e241a259)"/><path d="M115,565l32.5.5,19,31-3,27-14,6-20-18Q122.25,588.25,115,565Z" style="fill:url(#a91008fa-e55c-4fd2-82e1-4e58e6671c2d)"/><path d="M173.5,641.5l-11-18q2-13.5,4-27l40,2Z" style="fill:url(#b5cc9351-2a13-436d-8d97-f83c25d82e3a)"/><path d="M149.5,629.5l13-7,11,19Z" style="fill:url(#bf141c07-43a3-4141-b410-4dcefd1b12c0)"/></g></g><g id="bccc862b-c66c-4417-a347-7ac268cde142" data-name="middle tiny crystal"><g id="f0c48941-aa32-4732-b4d8-b7d641c9e5b1" data-name="crystal shard 02 copy 2"><path d="M167,596q-2,13.5-4,27l-14,7L89,611l27-47,32,1Z" style="fill:url(#e57434e9-6025-42f5-b00b-b46ebc8f8853)"/></g><g id="a2fa23e6-08f3-4017-9706-67f064e9f2ca" data-name="shapes shard 03 copy"><path d="M147.5,565.5l-31-2-27,47Z" style="fill:url(#fb3fe729-cc42-4f15-acdb-f2e0289728d2)"/><path d="M147.5,565.5l20,30-78,15Z" style="fill:url(#b94f977d-189d-4252-8d44-64aa8c4ef246)"/><path d="M149.5,629.5l13.7327-5.8854-73.1811-12.94Z" style="fill:url(#e6d28823-d730-46db-99b7-b0efc7ec8d86)"/><path d="M167.5,595.5l-78,15,.5516.1747,73.1811,12.94L163.5,623.5Q165.5,609.5,167.5,595.5Z" style="fill:url(#a9a0177a-fc80-42a5-b0ea-07f23b133809)"/></g></g></svg>