<svg id="b88a9f86-797d-42a1-a17e-41026b908299" data-name="Layer 1" xmlns="http://www.w3.org/2000/svg" xmlns:xlink="http://www.w3.org/1999/xlink" viewBox="0 0 400 800"><defs><pattern id="bb062f4a-71f9-4729-9979-42e8f377fbd4" data-name="Romboid Good" width="440" height="444" patternTransform="translate(107.5399 46.46) scale(0.26)" patternUnits="userSpaceOnUse" viewBox="0 0 440 444"><rect width="440" height="444" style="fill:none"/><polygon points="420 444 330 264 240 444 330 624 420 444" style="fill:#4d4d4d"/><polygon points="200 444 110 264 20 444 110 624 200 444" style="fill:#4d4d4d"/><polygon points="530 222 440 42 350 222 440 402 530 222" style="fill:#4d4d4d"/><polygon points="420 0 330 -180 240 0 330 180 420 0" style="fill:#4d4d4d"/><polygon points="310 222 220 42 130 222 220 402 310 222" style="fill:#4d4d4d"/><polygon points="200 0 110 -180 20 0 110 180 200 0" style="fill:#4d4d4d"/><polygon points="90 222 0 42 -90 222 0 402 90 222" style="fill:#4d4d4d"/></pattern></defs><rect x="0.5" y="0.5" width="399" height="799" style="fill:url(#bb062f4a-71f9-4729-9979-42e8f377fbd4)"/><path d="M398,1V799H0V1H398m1-1H-1V800H399V0Z" transform="translate(1)"/></svg>