<svg id="f8f1e471-1a6b-422b-888d-d2987031fd32" data-name="Layer 1" xmlns="http://www.w3.org/2000/svg" xmlns:xlink="http://www.w3.org/1999/xlink" viewBox="0 0 400 400"><defs><pattern id="b377e947-e9c2-491f-8d46-1a5008bccfaa" data-name="New Pattern 2" width="400" height="400" patternUnits="userSpaceOnUse" viewBox="0 0 400 400"><rect width="400" height="400" style="fill:none"/><polygon points="480 400 400 220 320 400 400 580 480 400" style="fill:#4d4d4d"/><polygon points="280 400 200 220 120 400 200 580 280 400" style="fill:#4d4d4d"/><polygon points="380 200 300 10 220 200 300 390 380 200" style="fill:#4d4d4d"/><polygon points="80 400 0 220 -80 400 0 580 80 400" style="fill:#4d4d4d"/><polygon points="180 200 100 10 20 200 100 390 180 200" style="fill:#4d4d4d"/><polygon points="480 0 400 -180 320 0 400 180 480 0" style="fill:#4d4d4d"/><polygon points="280 0 200 -180 120 0 200 180 280 0" style="fill:#4d4d4d"/><polygon points="80 0 0 -180 -80 0 0 180 80 0" style="fill:#4d4d4d"/></pattern></defs><rect width="400" height="400" style="fill:url(#b377e947-e9c2-491f-8d46-1a5008bccfaa)"/></svg>