<svg id="ba0263f6-b8e4-496d-acc6-6222a304ba44" data-name="Layer 1" xmlns="http://www.w3.org/2000/svg" xmlns:xlink="http://www.w3.org/1999/xlink" viewBox="0 0 400 400"><defs><pattern id="ecdbeb93-0b01-44c3-ac96-b2198f6116aa" data-name="Romboid Good" width="440" height="444" patternUnits="userSpaceOnUse" viewBox="0 0 440 444"><rect width="440" height="444" style="fill:none"/><polygon points="420 444 330 264 240 444 330 624 420 444" style="fill:#4d4d4d"/><polygon points="200 444 110 264 20 444 110 624 200 444" style="fill:#4d4d4d"/><polygon points="530 222 440 42 350 222 440 402 530 222" style="fill:#4d4d4d"/><polygon points="420 0 330 -180 240 0 330 180 420 0" style="fill:#4d4d4d"/><polygon points="310 222 220 42 130 222 220 402 310 222" style="fill:#4d4d4d"/><polygon points="200 0 110 -180 20 0 110 180 200 0" style="fill:#4d4d4d"/><polygon points="90 222 0 42 -90 222 0 402 90 222" style="fill:#4d4d4d"/></pattern></defs><rect width="400" height="400" style="fill:url(#ecdbeb93-0b01-44c3-ac96-b2198f6116aa)"/></svg>