<svg xmlns="http://www.w3.org/2000/svg" xmlns:xlink="http://www.w3.org/1999/xlink" viewBox="0 0 124 338"><defs><linearGradient id="linear-gradient" x1="-10.4572" y1="65.15" x2="111.9601" y2="276.2143" gradientUnits="userSpaceOnUse"><stop offset="0" stop-color="#67c6a0"/><stop offset="0.5" stop-color="#4cc2c1"/><stop offset="0.8067" stop-color="#7cacc8"/><stop offset="1" stop-color="#95a1cc"/></linearGradient><radialGradient id="radial-gradient" cx="-37.3043" cy="28.2582" r="154.4966" gradientUnits="userSpaceOnUse"><stop offset="0.0289" stop-color="#00aca8"/><stop offset="0.5946" stop-color="#2ad19f"/><stop offset="1" stop-color="#43e89a"/></radialGradient><radialGradient id="radial-gradient-2" cx="-78.4581" cy="100.2195" r="265.4047" gradientUnits="userSpaceOnUse"><stop offset="0" stop-color="#ffe47d"/><stop offset="1" stop-color="#6fc2bf"/></radialGradient><radialGradient id="radial-gradient-3" cx="13.5434" cy="372.1154" r="120.1059" gradientUnits="userSpaceOnUse"><stop offset="0" stop-color="#4dc6bd"/><stop offset="0.2204" stop-color="#51c4be"/><stop offset="0.4438" stop-color="#5dbfbf"/><stop offset="0.6687" stop-color="#72b6c2"/><stop offset="0.8932" stop-color="#8eaac7"/><stop offset="1" stop-color="#9ea3c9"/></radialGradient><radialGradient id="radial-gradient-4" cx="17.4787" cy="304.2649" r="148.3867" gradientUnits="userSpaceOnUse"><stop offset="0" stop-color="#00b5bc"/><stop offset="0.2762" stop-color="#27bcbf"/><stop offset="0.7678" stop-color="#68c7c3"/><stop offset="1" stop-color="#81cbc5"/></radialGradient><radialGradient id="radial-gradient-5" cx="-50.5108" cy="149.2825" r="98.6866" gradientUnits="userSpaceOnUse"><stop offset="0" stop-color="#b6e473"/><stop offset="1" stop-color="#3fbfc4"/></radialGradient><radialGradient id="radial-gradient-6" cx="20.1699" cy="256.422" r="200.385" gradientUnits="userSpaceOnUse"><stop offset="0" stop-color="#00b5af"/><stop offset="0.3898" stop-color="#42c0a6"/><stop offset="0.8041" stop-color="#83cb9d"/><stop offset="1" stop-color="#9ccf99"/></radialGradient><radialGradient id="radial-gradient-7" cx="126.1505" cy="230.2802" r="139.6287" xlink:href="#radial-gradient-6"/><radialGradient id="radial-gradient-8" cx="181.6327" cy="227.8113" r="104.9169" gradientUnits="userSpaceOnUse"><stop offset="0" stop-color="#787dd4"/><stop offset="0.2784" stop-color="#7b81d3"/><stop offset="0.5606" stop-color="#858dd1"/><stop offset="0.8437" stop-color="#95a1cc"/><stop offset="1" stop-color="#a1b0c9"/></radialGradient><radialGradient id="radial-gradient-9" cx="111.8407" cy="212.1064" r="214.7103" xlink:href="#radial-gradient-6"/><radialGradient id="radial-gradient-10" cx="41.7143" cy="228.6487" r="71.0786" gradientUnits="userSpaceOnUse"><stop offset="0" stop-color="#00b5af"/><stop offset="0.2762" stop-color="#27b1b6"/><stop offset="0.7678" stop-color="#68aac1"/><stop offset="1" stop-color="#81a7c5"/></radialGradient><radialGradient id="radial-gradient-11" cx="107.7446" cy="74.2889" r="160.5164" xlink:href="#radial-gradient-6"/></defs><g id="hero"><g id="lower-left"><g id="bg"><path d="M88.1148,86.5074,114.23,173.8368l.9672,65.9822q2.9016,12.6142,5.8033,25.2285L58.1311,332q-7.7376-30.08-15.4754-60.16L17.5082,196.1543c-3.8172-30.989-7.1034-63.36-9.6721-97.0326Q4.3935,53.9938,3,11.7923L15.5738,5,75.541,68.0712Z" style="fill:url(#linear-gradient)"/></g><g id="shapes_shard_03"><path d="M14,0,0,8,6,96,27,20Z" style="fill:url(#radial-gradient)"/><path d="M76,64,90,84l-3,9q-23.5,48.5-47,97Q55.5,131.5,71,73Z" style="fill:url(#radial-gradient-2)"/><path d="M76,285l-3,5L58,333l-1,5,67-70Z" style="fill:url(#radial-gradient-3)"/><path d="M59,207q8,34.5,16,69,.5,4.5,1,9-9.5,26.5-19,53L42,277q1-6,2-12Z" style="fill:url(#radial-gradient-4)"/><path d="M6,96l2,1,34,88q.5,4.5,1,9v76q-.5,3.5-1,7L16.5,196.5Z" style="fill:url(#radial-gradient-5)"/><path d="M41.5,185.5,46,189l13,19v2q-8.5,33.5-17,67Q41.75,231.25,41.5,185.5Z" style="fill:url(#radial-gradient-6)"/><path d="M59,210,41.5,185.5Q65.75,134.75,90,84q13,45.5,26,91l-4,4L64,208Z" style="fill:url(#radial-gradient-7)"/><path d="M116,175l-9,17L79,273l-2.9454,12.3272L124,268q-3.2858-13.6647-6.5716-27.3293Z" style="fill:url(#radial-gradient-8)"/><path d="M24,20,6,96l35.5,89.5L76,64c-4.343-4.6109-9.0036-9.2941-14-14A331.6543,331.6543,0,0,0,28,22Z" style="fill:url(#radial-gradient-9)"/><path d="M59,210q8.5,38,17,76l40-111Z" style="fill:url(#radial-gradient-10)"/><path d="M14,0,76,64,24,20Z" style="fill:url(#radial-gradient-11)"/></g><g id="highlights-5" data-name="highlights" style="opacity:0.5"><path d="M18,196l12,46L15,198q-2.5-30.5-5-61Q14,166.5,18,196Z" style="fill:#f2f2f2"/><path d="M62,224q6.5,31,13,62-4,12-8,24l10-24,27-11-26,9,30-89L76,284Q69,254,62,224Z" style="fill:#f2f2f2"/><path d="M41,185l-8-20,8,21q.5,12,1,24V187l7,9-7-10,6-23Z" style="fill:#f2f2f2"/></g></g></g></svg>