<svg id="scroll" xmlns="http://www.w3.org/2000/svg" xmlns:xlink="http://www.w3.org/1999/xlink" viewBox="0 0 371.3574 665"><defs><linearGradient id="linear-gradient" x1="50.2033" y1="1708.618" x2="326.2411" y2="1319.7989" gradientTransform="matrix(1, 0, 0, -1, 0, 1860)" gradientUnits="userSpaceOnUse"><stop offset="0" stop-color="#70e29c"/><stop offset="0.5168" stop-color="#58b8c4"/><stop offset="1" stop-color="#9e88c9"/></linearGradient><radialGradient id="radial-gradient" cx="251.8332" cy="157.729" r="134.5754" gradientTransform="translate(-9.0977 5.6709) rotate(-1.8969)" gradientUnits="userSpaceOnUse"><stop offset="0" stop-color="#00c4ba"/><stop offset="0.1848" stop-color="#17c9b7"/><stop offset="0.7386" stop-color="#58d9ad"/><stop offset="1" stop-color="#71dfa9"/></radialGradient><radialGradient id="radial-gradient-2" cx="335.4467" cy="213.2551" r="138.7992" gradientUnits="userSpaceOnUse"><stop offset="0" stop-color="#04c0c1"/><stop offset="0.5589" stop-color="#2ad4b4"/><stop offset="1" stop-color="#43e2ab"/></radialGradient><radialGradient id="radial-gradient-3" cx="342.2158" cy="193.6869" r="194.5211" gradientTransform="translate(-9.0977 5.6709) rotate(-1.8969)" gradientUnits="userSpaceOnUse"><stop offset="0" stop-color="#00c1be"/><stop offset="0.5826" stop-color="#2ad9a8"/><stop offset="1" stop-color="#43e89a"/></radialGradient><radialGradient id="radial-gradient-4" cx="270.4313" cy="196.0769" r="118.59" gradientUnits="userSpaceOnUse"><stop offset="0" stop-color="#6cd3b5"/><stop offset="0.2731" stop-color="#68d4b6"/><stop offset="0.5499" stop-color="#5cd5b7"/><stop offset="0.8274" stop-color="#48d8ba"/><stop offset="1" stop-color="#37dabc"/></radialGradient><radialGradient id="radial-gradient-5" cx="310.8354" cy="171.7435" r="159.6755" gradientUnits="userSpaceOnUse"><stop offset="0" stop-color="#76eaa9"/><stop offset="1" stop-color="#6760ff"/></radialGradient><radialGradient id="radial-gradient-6" cx="317.9972" cy="116.4271" r="167.811" gradientTransform="translate(-9.0977 5.6709) rotate(-1.8969)" gradientUnits="userSpaceOnUse"><stop offset="0" stop-color="#4dc6bd"/><stop offset="0.2204" stop-color="#51c3be"/><stop offset="0.4438" stop-color="#5dbabf"/><stop offset="0.6687" stop-color="#72aac2"/><stop offset="0.8932" stop-color="#8e94c7"/><stop offset="1" stop-color="#9e88c9"/></radialGradient><radialGradient id="radial-gradient-7" cx="256.9724" cy="258" r="221.1684" gradientTransform="translate(-152.6021 512.1124) rotate(-91.8969)" gradientUnits="userSpaceOnUse"><stop offset="0" stop-color="#ffff5e"/><stop offset="0.4925" stop-color="#99f77a"/><stop offset="0.8381" stop-color="#57f18c"/><stop offset="1" stop-color="#3eef93"/></radialGradient><radialGradient id="radial-gradient-8" cx="273.5869" cy="311.2147" r="122.5169" gradientTransform="translate(-152.6021 512.1124) rotate(-91.8969)" gradientUnits="userSpaceOnUse"><stop offset="0" stop-color="#ffff40"/><stop offset="0.4925" stop-color="#99f76c"/><stop offset="0.8381" stop-color="#57f188"/><stop offset="1" stop-color="#3eef93"/></radialGradient><radialGradient id="radial-gradient-9" cx="462.3885" cy="267.9889" r="129.6362" gradientTransform="translate(-152.6021 512.1124) rotate(-91.8969)" gradientUnits="userSpaceOnUse"><stop offset="0" stop-color="#fcee21"/><stop offset="0.4677" stop-color="#a0f576"/><stop offset="0.8301" stop-color="#5ef9b3"/><stop offset="1" stop-color="#45fbca"/></radialGradient><radialGradient id="radial-gradient-10" cx="143.8088" cy="191.0084" r="149.4797" gradientTransform="translate(-9.0977 5.6709) rotate(-1.8969)" gradientUnits="userSpaceOnUse"><stop offset="0" stop-color="#ffee60"/><stop offset="0.4754" stop-color="#a0f596"/><stop offset="0.8326" stop-color="#5ef9bc"/><stop offset="1" stop-color="#45fbca"/></radialGradient><radialGradient id="radial-gradient-11" cx="334.7858" cy="178.302" r="173.0918" gradientTransform="translate(-9.0977 5.6709) rotate(-1.8969)" gradientUnits="userSpaceOnUse"><stop offset="0" stop-color="#00c9f4"/><stop offset="0.4345" stop-color="#50dac4"/><stop offset="0.8196" stop-color="#92e99c"/><stop offset="1" stop-color="#abee8d"/></radialGradient><radialGradient id="radial-gradient-12" cx="115.7178" cy="215.5259" r="159.8339" gradientUnits="userSpaceOnUse"><stop offset="0" stop-color="#c8e0ab"/><stop offset="0.0649" stop-color="#c1e1ab"/><stop offset="0.7003" stop-color="#80eca7"/><stop offset="1" stop-color="#67f0a5"/></radialGradient><radialGradient id="radial-gradient-13" cx="126.2788" cy="42.9654" r="70.5853" gradientTransform="translate(-9.0977 5.6709) rotate(-1.8969)" gradientUnits="userSpaceOnUse"><stop offset="0" stop-color="#64f968"/><stop offset="0.1919" stop-color="#6af66f"/><stop offset="1" stop-color="#7fe988"/></radialGradient><radialGradient id="radial-gradient-14" cx="322.5506" cy="64.4979" r="132.9737" gradientTransform="translate(-9.0977 5.6709) rotate(-1.8969)" gradientUnits="userSpaceOnUse"><stop offset="0" stop-color="#00b5be"/><stop offset="0.5826" stop-color="#2ad5a8"/><stop offset="1" stop-color="#43e89a"/></radialGradient><radialGradient id="radial-gradient-15" cx="343.1655" cy="160.2785" r="174.4837" gradientTransform="translate(-9.0977 5.6709) rotate(-1.8969)" gradientUnits="userSpaceOnUse"><stop offset="0" stop-color="#00b5bb"/><stop offset="0.5826" stop-color="#2ad7b1"/><stop offset="1" stop-color="#43ebab"/></radialGradient><radialGradient id="radial-gradient-16" cx="312.4617" cy="205.9275" r="143.0893" gradientTransform="translate(-9.0977 5.6709) rotate(-1.8969)" gradientUnits="userSpaceOnUse"><stop offset="0" stop-color="#00c4ba"/><stop offset="0.5826" stop-color="#2adaa6"/><stop offset="1" stop-color="#43e89a"/></radialGradient><radialGradient id="radial-gradient-17" cx="359.329" cy="276.4716" r="276.2517" gradientTransform="translate(-9.0977 5.6709) rotate(-1.8969)" gradientUnits="userSpaceOnUse"><stop offset="0" stop-color="#009cd1"/><stop offset="0.3563" stop-color="#39c2b5"/><stop offset="0.7934" stop-color="#7aec95"/><stop offset="1" stop-color="#93fd89"/></radialGradient><radialGradient id="radial-gradient-18" cx="229.6051" cy="124.9231" r="79.8852" gradientUnits="userSpaceOnUse"><stop offset="0" stop-color="#34e09f"/><stop offset="0.6478" stop-color="#6cf27c"/><stop offset="1" stop-color="#85fa6c"/></radialGradient><radialGradient id="radial-gradient-19" cx="18.7842" cy="178.4455" r="148.9581" gradientTransform="translate(-9.0977 5.6709) rotate(-1.8969)" gradientUnits="userSpaceOnUse"><stop offset="0" stop-color="#ffff40"/><stop offset="0.0381" stop-color="#f6fe44"/><stop offset="0.5148" stop-color="#8ff171"/><stop offset="0.8452" stop-color="#4de88e"/><stop offset="1" stop-color="#34e599"/></radialGradient><radialGradient id="radial-gradient-20" cx="169.022" cy="399.1189" r="203.9856" gradientUnits="userSpaceOnUse"><stop offset="0" stop-color="#00b897"/><stop offset="0.266" stop-color="#25c698"/><stop offset="0.7646" stop-color="#66df9a"/><stop offset="1" stop-color="#7fe99b"/></radialGradient><radialGradient id="radial-gradient-21" cx="262.6439" cy="353.3219" r="300.5038" gradientTransform="translate(-9.0977 5.6709) rotate(-1.8969)" gradientUnits="userSpaceOnUse"><stop offset="0" stop-color="#00b5af"/><stop offset="0.2712" stop-color="#26c4a8"/><stop offset="0.7662" stop-color="#67de9d"/><stop offset="1" stop-color="#80e899"/></radialGradient><radialGradient id="radial-gradient-22" cx="222.6525" cy="490.496" r="243.959" gradientTransform="translate(-9.0977 5.6709) rotate(-1.8969)" gradientUnits="userSpaceOnUse"><stop offset="0" stop-color="#00b5be"/><stop offset="0.0194" stop-color="#02b5bd"/><stop offset="0.6858" stop-color="#43bb95"/><stop offset="1" stop-color="#5cbd85"/></radialGradient><radialGradient id="radial-gradient-23" cx="102.4335" cy="331.1666" r="159.0826" gradientUnits="userSpaceOnUse"><stop offset="0" stop-color="#6ae8c4"/><stop offset="1" stop-color="#6fb57f"/></radialGradient><radialGradient id="radial-gradient-24" cx="176.6436" cy="502.2529" r="161.0665" gradientTransform="translate(-9.0977 5.6709) rotate(-1.8969)" gradientUnits="userSpaceOnUse"><stop offset="0" stop-color="#168492"/><stop offset="0.6627" stop-color="#52bb9e"/><stop offset="1" stop-color="#6bd2a3"/></radialGradient><radialGradient id="radial-gradient-25" cx="129.8791" cy="375.5571" r="129.7146" gradientUnits="userSpaceOnUse"><stop offset="0" stop-color="#2cc29a"/><stop offset="0.3545" stop-color="#37bea1"/><stop offset="1" stop-color="#48b7ac"/></radialGradient><radialGradient id="radial-gradient-26" cx="318.0044" cy="357.5717" r="211.135" gradientUnits="userSpaceOnUse"><stop offset="0" stop-color="#00a07f"/><stop offset="0.2554" stop-color="#23b28e"/><stop offset="0.7612" stop-color="#64d4a9"/><stop offset="1" stop-color="#7de1b4"/></radialGradient><radialGradient id="radial-gradient-27" cx="174.033" cy="417.4725" r="373.2329" gradientUnits="userSpaceOnUse"><stop offset="0" stop-color="#6ae8ba"/><stop offset="1" stop-color="#6fb57f"/></radialGradient><radialGradient id="radial-gradient-28" cx="66.7245" cy="111.3162" r="82.0429" xlink:href="#radial-gradient-15"/><radialGradient id="radial-gradient-29" cx="174.2269" cy="431.6007" r="50.6516" gradientUnits="userSpaceOnUse"><stop offset="0" stop-color="#5ab48b"/><stop offset="1" stop-color="#54bac4"/></radialGradient><radialGradient id="radial-gradient-30" cx="-99.5475" cy="456.3291" r="225.4248" gradientTransform="translate(-9.0977 5.6709) rotate(-1.8969)" gradientUnits="userSpaceOnUse"><stop offset="0" stop-color="#b6e473"/><stop offset="1" stop-color="#3fbfc4"/></radialGradient><radialGradient id="radial-gradient-31" cx="170.4365" cy="399.0769" r="186.4762" gradientUnits="userSpaceOnUse"><stop offset="0" stop-color="#4fea95"/><stop offset="1" stop-color="#8087fe"/></radialGradient><radialGradient id="radial-gradient-32" cx="78.4144" cy="455.0891" r="137.2539" gradientTransform="translate(-9.0977 5.6709) rotate(-1.8969)" gradientUnits="userSpaceOnUse"><stop offset="0" stop-color="#72c2bd"/><stop offset="0.2444" stop-color="#71c0c1"/><stop offset="0.4922" stop-color="#6fbacd"/><stop offset="0.7415" stop-color="#6bafe2"/><stop offset="0.9906" stop-color="#66a1fe"/><stop offset="1" stop-color="#66a0ff"/></radialGradient><radialGradient id="radial-gradient-33" cx="14.1988" cy="535.4015" r="155.4494" gradientTransform="translate(-9.0977 5.6709) rotate(-1.8969)" gradientUnits="userSpaceOnUse"><stop offset="0" stop-color="#2dc6bd"/><stop offset="0.1933" stop-color="#31c4be"/><stop offset="0.3894" stop-color="#3dbec0"/><stop offset="0.5866" stop-color="#52b3c4"/><stop offset="0.7848" stop-color="#6ea5ca"/><stop offset="0.9819" stop-color="#9292d1"/><stop offset="1" stop-color="#9690d2"/></radialGradient><radialGradient id="radial-gradient-34" cx="192.9153" cy="555.006" r="170.0956" gradientTransform="translate(-9.0977 5.6709) rotate(-1.8969)" gradientUnits="userSpaceOnUse"><stop offset="0" stop-color="#97aaea"/><stop offset="0.6399" stop-color="#61c7c9"/><stop offset="1" stop-color="#48d5b9"/></radialGradient><radialGradient id="radial-gradient-35" cx="59.1102" cy="534.5639" r="73.7703" gradientTransform="translate(-9.0977 5.6709) rotate(-1.8969)" gradientUnits="userSpaceOnUse"><stop offset="0" stop-color="#4dc6bd"/><stop offset="0.2565" stop-color="#51c4c0"/><stop offset="0.5165" stop-color="#5dbdc8"/><stop offset="0.7771" stop-color="#71b1d6"/><stop offset="1" stop-color="#89a4e6"/></radialGradient><linearGradient id="linear-gradient-2" x1="76.711" y1="572.0888" x2="168.9376" y2="558.5796" gradientUnits="userSpaceOnUse"><stop offset="0" stop-color="#2ab8c9"/><stop offset="1" stop-color="#897ac2"/></linearGradient><radialGradient id="radial-gradient-36" cx="41.6117" cy="588.2832" r="119.5325" gradientTransform="translate(-9.0977 5.6709) rotate(-1.8969)" gradientUnits="userSpaceOnUse"><stop offset="0" stop-color="#79c6bd"/><stop offset="0.1838" stop-color="#79c2bd"/><stop offset="0.3702" stop-color="#78b6bf"/><stop offset="0.5578" stop-color="#76a1c1"/><stop offset="0.7463" stop-color="#7485c4"/><stop offset="0.9337" stop-color="#7161c7"/><stop offset="1" stop-color="#7052c9"/></radialGradient><radialGradient id="radial-gradient-37" cx="243.1593" cy="358.9231" r="111.199" gradientUnits="userSpaceOnUse"><stop offset="0" stop-color="#55bab8"/><stop offset="0.3059" stop-color="#5dc3b7"/><stop offset="0.7972" stop-color="#75dab3"/><stop offset="1" stop-color="#80e6b1"/></radialGradient><radialGradient id="radial-gradient-38" cx="308.8288" cy="198.8663" r="88.2215" gradientUnits="userSpaceOnUse"><stop offset="0" stop-color="#65d4b6"/><stop offset="1" stop-color="#57c4c0"/></radialGradient><radialGradient id="radial-gradient-39" cx="337.4492" cy="249.7578" r="48.6295" gradientUnits="userSpaceOnUse"><stop offset="0" stop-color="#609fcf"/><stop offset="1" stop-color="#59c4c0"/></radialGradient><radialGradient id="radial-gradient-40" cx="380.8681" cy="269.243" r="78.6099" gradientUnits="userSpaceOnUse"><stop offset="0" stop-color="#9282c7"/><stop offset="1" stop-color="#59b6c0"/></radialGradient><radialGradient id="radial-gradient-41" cx="160.8242" cy="324.2103" r="184.792" gradientUnits="userSpaceOnUse"><stop offset="0" stop-color="#4ee5b6"/><stop offset="1" stop-color="#8a5dd6"/></radialGradient><radialGradient id="radial-gradient-42" cx="150.956" cy="330.044" r="166.2905" gradientUnits="userSpaceOnUse"><stop offset="0" stop-color="#4eddb6"/><stop offset="1" stop-color="#8360ca"/></radialGradient><radialGradient id="radial-gradient-43" cx="189.6142" cy="195.6457" r="265.9925" gradientUnits="userSpaceOnUse"><stop offset="0" stop-color="#4dd6be"/><stop offset="0.1924" stop-color="#4fd2be"/><stop offset="0.3875" stop-color="#57c6c0"/><stop offset="0.5838" stop-color="#63b1c1"/><stop offset="0.781" stop-color="#7495c4"/><stop offset="0.9772" stop-color="#8971c8"/><stop offset="1" stop-color="#8c6cc8"/></radialGradient><radialGradient id="radial-gradient-44" cx="388.1868" cy="433.2059" r="179.4429" gradientUnits="userSpaceOnUse"><stop offset="0" stop-color="#924396"/><stop offset="1" stop-color="#5abdea"/></radialGradient><radialGradient id="radial-gradient-45" cx="136.0549" cy="417.2088" r="138.2808" gradientUnits="userSpaceOnUse"><stop offset="0" stop-color="#4ec1b1"/><stop offset="0.9946" stop-color="#858ce2"/></radialGradient><radialGradient id="radial-gradient-46" cx="361.6813" cy="462.1758" r="127.4927" gradientUnits="userSpaceOnUse"><stop offset="0" stop-color="#714aac"/><stop offset="0.2931" stop-color="#885cb5"/><stop offset="0.7444" stop-color="#a673c1"/><stop offset="1" stop-color="#b17cc6"/></radialGradient><radialGradient id="radial-gradient-47" cx="411.4264" cy="505.6074" r="156.6053" gradientTransform="translate(32.2383 -22.2727) rotate(4.1431)" gradientUnits="userSpaceOnUse"><stop offset="0" stop-color="#6c49c1"/><stop offset="0.2292" stop-color="#6f4dc3"/><stop offset="0.4615" stop-color="#7659c8"/><stop offset="0.6952" stop-color="#836ed0"/><stop offset="0.9286" stop-color="#958adc"/><stop offset="1" stop-color="#9c94e0"/></radialGradient><radialGradient id="radial-gradient-48" cx="341.9011" cy="586" r="184.7468" gradientUnits="userSpaceOnUse"><stop offset="0" stop-color="#9685d4"/><stop offset="0.3109" stop-color="#9286d4"/><stop offset="0.6259" stop-color="#8689d6"/><stop offset="0.942" stop-color="#728dd8"/><stop offset="1" stop-color="#6d8ed9"/></radialGradient><radialGradient id="radial-gradient-49" cx="354.6886" cy="531.1204" r="135.2652" gradientTransform="translate(32.2383 -22.2727) rotate(4.1431)" gradientUnits="userSpaceOnUse"><stop offset="0" stop-color="#9062d4"/><stop offset="0.2373" stop-color="#9066d3"/><stop offset="0.4778" stop-color="#8f72d1"/><stop offset="0.7198" stop-color="#8e87ce"/><stop offset="0.9615" stop-color="#8da3ca"/><stop offset="1" stop-color="#8da8c9"/></radialGradient><radialGradient id="radial-gradient-50" cx="253.8878" cy="620.9331" r="211.1568" gradientTransform="translate(32.2383 -22.2727) rotate(4.1431)" gradientUnits="userSpaceOnUse"><stop offset="0" stop-color="#6b6ad4"/><stop offset="0.2523" stop-color="#6d6ed3"/><stop offset="0.508" stop-color="#747ad1"/><stop offset="0.7644" stop-color="#7f8ece"/><stop offset="1" stop-color="#8da8c9"/></radialGradient><radialGradient id="radial-gradient-51" cx="272.725" cy="767.8081" r="314.906" gradientTransform="translate(32.2383 -22.2727) rotate(4.1431)" gradientUnits="userSpaceOnUse"><stop offset="0" stop-color="#7835c7"/><stop offset="0.18" stop-color="#7739c7"/><stop offset="0.3624" stop-color="#7345c7"/><stop offset="0.5461" stop-color="#6e5ac6"/><stop offset="0.7306" stop-color="#6676c5"/><stop offset="0.9141" stop-color="#5c9ac4"/><stop offset="1" stop-color="#56aec4"/></radialGradient><radialGradient id="radial-gradient-52" cx="273.2594" cy="567.6255" r="118.0265" gradientTransform="translate(32.2383 -22.2727) rotate(4.1431)" gradientUnits="userSpaceOnUse"><stop offset="0" stop-color="#5a43c1"/><stop offset="0.2151" stop-color="#5e47c2"/><stop offset="0.4332" stop-color="#6a52c7"/><stop offset="0.6526" stop-color="#7f66ce"/><stop offset="0.8718" stop-color="#9b81d9"/><stop offset="1" stop-color="#af94e0"/></radialGradient><radialGradient id="radial-gradient-53" cx="208.021" cy="474.2912" r="159.2193" gradientTransform="translate(32.2383 -22.2727) rotate(4.1431)" gradientUnits="userSpaceOnUse"><stop offset="0" stop-color="#5a49c1"/><stop offset="0.2292" stop-color="#5e4dc3"/><stop offset="0.4615" stop-color="#6859c8"/><stop offset="0.6952" stop-color="#7a6ed0"/><stop offset="0.9286" stop-color="#938adc"/><stop offset="1" stop-color="#9c94e0"/></radialGradient><radialGradient id="radial-gradient-54" cx="220.4531" cy="233.4321" r="207.9767" gradientUnits="userSpaceOnUse"><stop offset="0" stop-color="#4dd0b5"/><stop offset="0.2231" stop-color="#50cab8"/><stop offset="0.5299" stop-color="#59b8c0"/><stop offset="0.8838" stop-color="#679bcd"/><stop offset="1" stop-color="#6d90d2"/></radialGradient><radialGradient id="radial-gradient-55" cx="223.0001" cy="297.4815" r="119.0866" gradientUnits="userSpaceOnUse"><stop offset="0" stop-color="#4dbcbd"/><stop offset="0.2544" stop-color="#50b8bf"/><stop offset="0.5122" stop-color="#59acc4"/><stop offset="0.7706" stop-color="#6898cd"/><stop offset="1" stop-color="#7b7fd7"/></radialGradient><radialGradient id="radial-gradient-56" cx="175.3516" cy="429.1791" r="99.4551" gradientUnits="userSpaceOnUse"><stop offset="0" stop-color="#4ec1b1"/><stop offset="0.9946" stop-color="#818cd3"/></radialGradient><radialGradient id="radial-gradient-57" cx="167.3297" cy="350.9479" r="122.8851" gradientUnits="userSpaceOnUse"><stop offset="0" stop-color="#4edd9d"/><stop offset="1" stop-color="#9183d6"/></radialGradient><radialGradient id="radial-gradient-58" cx="171" cy="369.5154" r="139.6697" gradientUnits="userSpaceOnUse"><stop offset="0" stop-color="#60d0b6"/><stop offset="0.994" stop-color="#825dd6"/></radialGradient><radialGradient id="radial-gradient-59" cx="66.4907" cy="509.6716" r="164.0392" gradientUnits="userSpaceOnUse"><stop offset="0" stop-color="#617eaa"/><stop offset="0.2609" stop-color="#657dae"/><stop offset="0.5254" stop-color="#7078ba"/><stop offset="0.7905" stop-color="#8271ce"/><stop offset="1" stop-color="#9669e4"/></radialGradient><radialGradient id="radial-gradient-60" cx="239.7305" cy="561.0601" r="89.6682" gradientTransform="translate(-9.4595 5.8035) rotate(-1.9344)" gradientUnits="userSpaceOnUse"><stop offset="0" stop-color="#8756aa"/><stop offset="0.2565" stop-color="#8658ae"/><stop offset="0.5165" stop-color="#835cba"/><stop offset="0.7771" stop-color="#7e65ce"/><stop offset="1" stop-color="#796ee6"/></radialGradient><radialGradient id="radial-gradient-61" cx="117.5451" cy="597.5515" r="125.1712" gradientTransform="translate(-9.0977 5.6709) rotate(-1.8969)" gradientUnits="userSpaceOnUse"><stop offset="0" stop-color="#6b78d4"/><stop offset="0.2757" stop-color="#6e74d3"/><stop offset="0.5552" stop-color="#7668d1"/><stop offset="0.8354" stop-color="#8354cc"/><stop offset="1" stop-color="#8d44c9"/></radialGradient><radialGradient id="radial-gradient-62" cx="10.2277" cy="618.6841" r="220.8207" gradientTransform="translate(-9.0977 5.6709) rotate(-1.8969)" gradientUnits="userSpaceOnUse"><stop offset="0" stop-color="#787dd4"/><stop offset="0.3109" stop-color="#7c7dd3"/><stop offset="0.6259" stop-color="#887dd0"/><stop offset="0.942" stop-color="#9c7eca"/><stop offset="1" stop-color="#a17ec9"/></radialGradient></defs><g id="bgc"><path d="M351,295q-9.5-46-19-92L249,83,234,52,187,8l-69.4506,96.0879-33.9,92.2q-37.2,71.1-74.5,142.2L103,524,123.25,606.0879Q135.1247,626.0439,147,646l30,13,36-49,109-97q6.5-25.5,13-51l15-22q8-19.5,16-39Z" style="fill:url(#linear-gradient)"/></g><g id="right"><g id="_Layer_" data-name="&lt;Layer&gt;"><path d="M273,139q-8.5,36-17,72l8,2,65-12,6-2-17-19Z" style="fill:url(#radial-gradient)"/><path d="M272,119q.5,10,1,20l62,60-53-70Z" style="fill:url(#radial-gradient-2)"/><path d="M253,79q9.5,20.5,19,41,61.362,80.2008,63,79Q336.9641,197.5589,253,79Z" style="fill:url(#radial-gradient-3)"/><path d="M335,199l-3,4-34,26-3,1-39-19Z" style="fill:url(#radial-gradient-4)"/><path d="M335,199l-40,31,35,29,3-10q1-22,2-44Z" style="fill:url(#radial-gradient-5)"/><path d="M335,199q-2.5,30-5,60l25,35Q345,246.5,335,199Z" style="fill:url(#radial-gradient-6)"/></g><g id="highlights" style="opacity:0.5"><path d="M335,199q12.1554,57.9726,12,58-.15.0319-12-55l-3,30q1-16,2-32l-25,19,24-20-14-15,12.0964,11.34Q333.0482,197.17,335,199Z" style="fill:#f2f2f2"/></g></g><g id="top"><g id="shapes_copy_5" data-name="shapes copy 5"><path d="M115,101l6,23,52,56,17-5q5-20.5,10-41l-79-32Z" style="fill:url(#radial-gradient-7)"/><path d="M115,101l74.1539-2.6969L191,101q2.5,16,5,32v4Z" style="fill:url(#radial-gradient-8)"/><path d="M115,101l74.1539-2.6969L193,93l3.2559-21.9469L187,0Z" style="fill:url(#radial-gradient-9)"/><path d="M186.5638,252.386q-6.859-36.2492-13.7183-72.4984L187,172l1,2q-.5,38-1,76Z" style="fill:url(#radial-gradient-10)"/><path d="M204,260q5.5-12.5,11-25l1-4-18-89-2-5-9,35-.4362,80.386L189,255l13,6Z" style="fill:url(#radial-gradient-11)"/><path d="M186.5638,252.386,193,336q5.5-38,11-76Z" style="fill:url(#radial-gradient-12)"/><path d="M196,71l21.2112-1.6415q1.941-1.4967,3.8985-3.1307a127.8005,127.8005,0,0,0,16.4611-16.554L187,0Z" style="fill:url(#radial-gradient-13)"/><path d="M196,71l3,4,71,44h3q-8.2283-17.1723-17.28-34.9081-9.049-17.7063-18.1492-34.4181Z" style="fill:url(#radial-gradient-14)"/><path d="M196,71l77,48.4615v20L271,140l-67-32q-4-17-8-34Z" style="fill:url(#radial-gradient-15)"/><path d="M205,107l68,32.4615Q264.5,176.7308,256,214l-3-1-54-69-3-7q.5-4,1-8l7-21Z" style="fill:url(#radial-gradient-16)"/><path d="M196,137q9.5,49,19,98l41-21Z" style="fill:url(#radial-gradient-17)"/><path d="M205,107l-9,30q-3.423-19.3485-6.8461-38.6969Q192.5771,84.6516,196,71Z" style="fill:url(#radial-gradient-18)"/></g><g id="highlights_copy_2" data-name="highlights copy 2" style="opacity:0.5"><path d="M187,0l17,17L188,2l3,30q-2-15-4-30-18.7663,25.174-19,25Q167.7588,26.8236,187,0Z" style="fill:#f2f2f2"/><path d="M195,75l-7,22-40,3,40-1,6,29q-2-15-4-30Q192.5,86.5,195,75Z" style="fill:#f2f2f2"/><path d="M245,126l28,13q-4,18-8,36,3.5-17.5,7-35Z" style="fill:#f2f2f2"/></g></g><g id="left"><g id="_Layer_2" data-name="&lt;Layer&gt;"><path d="M121,118q.5,10.5,1,21,8.5,40,17,80l32-30q1-4.5,2-9Z" style="fill:url(#radial-gradient-19)"/><path d="M173,180q11,38.2308,22,76.4615,2.5,15,5,30Q198,309.2308,196,332l-3-2-39-52-14.2986-61.764Z" style="fill:url(#radial-gradient-20)"/><path d="M156,281q-8.244,22.3005-17,45-11.3989,29.537-23,58L7,344l-7-4L121,118Q138.5,199.5,156,281Z" style="fill:url(#radial-gradient-21)"/><path d="M27,390,0,340l115.5,41.8634L116,387l-6,58-3,7Z" style="fill:url(#radial-gradient-22)"/><path d="M144.6034,369.3932,161,341l50,65Z" style="fill:url(#radial-gradient-23)"/><path d="M115,382q-4,35-8,70l15-5,81-35,8-6-63-37Z" style="fill:url(#radial-gradient-24)"/><path d="M211,406,107,452l58,8,35-13Z" style="fill:url(#radial-gradient-25)"/><path d="M160,341l-6-58q.5-3,1-6l41,55,15,74Z" style="fill:url(#radial-gradient-26)"/><path d="M155,277q-9.33,25.1091-18.7693,50.1821Q125.9278,354.5505,115.5,381.8634L147,369l14.2166-26.6715Z" style="fill:url(#radial-gradient-27)"/><path d="M79,195l42-77-6-17Z" style="fill:url(#radial-gradient-28)"/><path d="M165,460l35-13-10,16Z" style="fill:url(#radial-gradient-29)"/></g><g id="highlights_copy_3" data-name="highlights copy 3" style="opacity:0.5"><path d="M156,277l3,42q-2-20-4-40l-13,33,12-35q-9.4764-46.8942-9-47Q145.4794,229.898,156,277Z" style="fill:#f2f2f2"/><path d="M116,380l-32-9,30,12q-1,12.5-2,25,2.5-12.5,5-25l31-13,9-19-10,18Z" style="fill:#f2f2f2"/><path d="M22,300,4,339l57,23L4,343l19,39L0,340Z" style="fill:#f2f2f2"/></g></g><g id="left-bottom"><g id="_Layer_3" data-name="&lt;Layer&gt;"><path d="M107,450l-6,76-1.307,1.832Q62.3465,457.416,25,387Z" style="fill:url(#radial-gradient-30)"/><path d="M107,450l5,7,61,51,5,1.4615L191,461Z" style="fill:url(#radial-gradient-31)"/><path d="M107,450q-.5,3.5-1,7l15,84c15.6845-7.5821,31.7435-16.1958,48-26q4.5642-2.7527,9-5.5385Z" style="fill:url(#radial-gradient-32)"/><path d="M178,509.4615,171,526l-44,80-6,7q-.5-7-1-14V545l2-5Z" style="fill:url(#radial-gradient-33)"/><path d="M99.693,527.832Q101.3465,529.916,103,532l15,9,4-1-15-90h0Z" style="fill:url(#radial-gradient-34)"/><path d="M122,540q-.5,36.5-1,73-10.6536-42.584-21.307-85.168Z" style="fill:url(#radial-gradient-35)"/><path d="M177,510,121,613l5-2,24-23,4-5Q165.5,546.5,177,510Z" style="fill:url(#linear-gradient-2)"/><path d="M154,583l-33,30,26,39Q150.5,617.5,154,583Z" style="fill:url(#radial-gradient-36)"/></g><g id="highlights-2" data-name="highlights" style="opacity:0.5"><path d="M115,496q4,21.5,8,43l32-17-32,19q-.5,13-1,26-.5-13.5-1-27Z" style="fill:#f2f2f2"/><path d="M121,613l11,16-9-16,20-20Z" style="fill:#f2f2f2"/></g></g><g id="right-bottom"><g id="_Layer_4" data-name="&lt;Layer&gt;"><path d="M215,234l3,3,9,103-34-9q5-35.2692,10-70.5385Z" style="fill:url(#radial-gradient-37)"/><path d="M256,211l26,25,14-7Z" style="fill:url(#radial-gradient-38)"/><path d="M296,229l-14,5,45,38,3-15Z" style="fill:url(#radial-gradient-39)"/><path d="M355,294q-12.5-18.5-25-37-2.5,7.5-5,15l11,11Z" style="fill:url(#radial-gradient-40)"/><path d="M226,339l-33-8q14,29.5,28,59l33-9Z" style="fill:url(#radial-gradient-41)"/><path d="M247,380l-22,8,13,6,52,16Z" style="fill:url(#radial-gradient-42)"/><path d="M371.3574,404.01,368,404l-57-65a777.1047,777.1047,0,0,1-52-119q-1.5336-4.5079-3-9l33,21,39,33,27,29Q363.1788,349.005,371.3574,404.01Z" style="fill:url(#radial-gradient-43)"/><path d="M357,443q7.1787-19.495,14.3574-38.99Q341.6789,371.005,312,338l-10,9-18,54,3,10Z" style="fill:url(#radial-gradient-44)"/><path d="M286,408l2,8q-2,15.5-4,31L177,510l12-48q5-8.2692,10-16.5385L205,441l68-30Z" style="fill:url(#radial-gradient-45)"/><path d="M339.9033,464.522,357,443l-71-35,3,8,46,46Z" style="fill:url(#radial-gradient-46)"/><path d="M286,408q-4,20-8,40,1,3.5,2,7l42,58,3.2474,1.5939q7.3279-25.0359,14.6559-50.0719Z" style="fill:url(#radial-gradient-47)"/><path d="M278,448,177,510l88,25q7-41.5,14-83Z" style="fill:url(#radial-gradient-48)"/><path d="M278,448q-7,45-14,90l49-17,12.2474-6.4061Z" style="fill:url(#radial-gradient-49)"/><path d="M265,533l-30,38-48-48-10-13Z" style="fill:url(#radial-gradient-50)"/><path d="M177,510l59,60q-9.5,20.5-19,41l-2,3a581.22,581.22,0,0,1-29-73Q180.8922,525.0772,177,510Z" style="fill:url(#radial-gradient-51)"/><path d="M190.561,588.43,215,614,177,510Q183.78,549.2149,190.561,588.43Z" style="fill:url(#radial-gradient-52)"/><path d="M325.2205,514.9666,265,533l-30,36-20,45Z" style="fill:url(#radial-gradient-53)"/><path d="M256,211l-41,23q5.5,52.5,11,105l72,4,14-4Z" style="fill:url(#radial-gradient-54)"/><path d="M226,339l18,42,42,27q13-35,26-70Z" style="fill:url(#radial-gradient-55)"/><path d="M208,409l-9,36.4615L286,408Z" style="fill:url(#radial-gradient-56)"/><path d="M208,409l-15-79,32,58Z" style="fill:url(#radial-gradient-57)"/><path d="M225,388l61,20-78,1Z" style="fill:url(#radial-gradient-58)"/></g><g id="highlights-3" data-name="highlights" style="opacity:0.5"><path d="M308,336l-38-99,43,100,45,52-46-47-18,47,15-49-31-2Z" style="fill:#f2f2f2"/><path d="M275,462l-12,69-37-8,36,11-16,22,20-22,36-12-36,9Z" style="fill:#f2f2f2"/></g></g><g id="bottom"><g id="_Layer_5" data-name="&lt;Layer&gt;"><path d="M151,585q-2,33.5-4,67l3-3,31-56q-2-41.5-4-83Z" style="fill:url(#radial-gradient-59)"/><path d="M177,510q1,41,2,82l3,3,29,18,4,1-23-26Z" style="fill:url(#radial-gradient-60)"/><path d="M178,665l37-51-36-22-1,3q-.5,34-1,68Z" style="fill:url(#radial-gradient-61)"/><path d="M179,592l-32,60,31,13Q178.5,628.5,179,592Z" style="fill:url(#radial-gradient-62)"/></g><g id="highlights-4" data-name="highlights" style="opacity:0.5"><path d="M179,661l33-43-34,47-28-12,27,9q.5-12,1-24Q178.5,649.5,179,661Z" style="fill:#f2f2f2"/><path d="M178,565v27l-12,23,13-23Q178.5,578.5,178,565Z" style="fill:#f2f2f2"/></g></g></svg>