<?xml version="1.0" encoding="utf-8"?>
<!-- Generator: Adobe Illustrator 28.2.0, SVG Export Plug-In . SVG Version: 6.00 Build 0)  -->
<svg version="1.1" id="scroll" xmlns="http://www.w3.org/2000/svg" xmlns:xlink="http://www.w3.org/1999/xlink" x="0px" y="0px"
	 viewBox="0 0 371.4 665" style="enable-background:new 0 0 371.4 665;" xml:space="preserve">
<style type="text/css">
	.st0{fill:url(#SVGID_1_);}
	.st1{fill:url(#SVGID_00000091709220212834274800000012621829845413207945_);}
	.st2{fill:url(#SVGID_00000093139548949568420910000008591352991344523193_);}
	.st3{fill:url(#SVGID_00000177450700261249417770000006863583004346239670_);}
	.st4{fill:url(#SVGID_00000160150171880956686190000007393934248002203814_);}
	.st5{fill:url(#SVGID_00000044150100698618626770000013815062727748400282_);}
	.st6{fill:url(#SVGID_00000046314445687710349280000004008687608441278910_);}
	.st7{opacity:0.5;}
	.st8{fill:#F2F2F2;}
	.st9{fill:url(#SVGID_00000183214978454378615510000018200634365889478574_);}
	.st10{fill:url(#SVGID_00000168084428365099026850000001614040118503868091_);}
	.st11{fill:url(#SVGID_00000160911840814104170120000010654537266358020531_);}
	.st12{fill:url(#SVGID_00000046328985383445782170000007811316754980540800_);}
	.st13{fill:url(#SVGID_00000039102562045305356780000017109263336652023458_);}
	.st14{fill:url(#SVGID_00000090269355134032093130000010920269069144506763_);}
	.st15{fill:url(#SVGID_00000045587035536586581600000000890787230791223219_);}
	.st16{fill:url(#SVGID_00000109024353861507804020000013276409244403768228_);}
	.st17{fill:url(#SVGID_00000098201937209632289520000009434086235158121863_);}
	.st18{fill:url(#SVGID_00000137816652652541307010000010705764753184962694_);}
	.st19{fill:url(#SVGID_00000152970488558742908540000012910586149228467331_);}
	.st20{fill:url(#SVGID_00000183234374453817746870000005767216761561023899_);}
	.st21{fill:url(#SVGID_00000043421585581912326660000002569453914563644817_);}
	.st22{fill:url(#SVGID_00000109752040023617655720000000844471912863061916_);}
	.st23{fill:url(#SVGID_00000073710845396454177380000009929813913747974071_);}
	.st24{fill:url(#SVGID_00000162309751091817432700000006665189178315606459_);}
	.st25{fill:url(#SVGID_00000147189054282659396860000008789266628204293782_);}
	.st26{fill:url(#SVGID_00000093167488045367236880000017907719581038313655_);}
	.st27{fill:url(#SVGID_00000062878956922666400210000013135921707988040126_);}
	.st28{fill:url(#SVGID_00000121989175828016652380000017298962972754716836_);}
	.st29{fill:url(#SVGID_00000144299905986809513060000004867698337641609626_);}
	.st30{fill:url(#SVGID_00000034769828879042548430000014031987400084492952_);}
	.st31{fill:url(#SVGID_00000152262970771917746780000007510932597541270970_);}
	.st32{fill:url(#SVGID_00000002357413906253225150000002613847082139080615_);}
	.st33{fill:url(#SVGID_00000047743592224815791200000008758476986430895525_);}
	.st34{fill:url(#SVGID_00000034090086226592315340000014129942415541838991_);}
	.st35{fill:url(#SVGID_00000143617806280129987070000000810051457362729377_);}
	.st36{fill:url(#SVGID_00000134236197592453411160000015258467266867991193_);}
	.st37{fill:url(#SVGID_00000007386306856596753780000013208846571194555025_);}
	.st38{fill:url(#SVGID_00000145058187126579402900000013363073453323501444_);}
	.st39{fill:url(#SVGID_00000013154032084029269970000003837828321840077994_);}
	.st40{fill:url(#SVGID_00000178167072814162065700000017387432332793479563_);}
	.st41{fill:url(#SVGID_00000171691041013468396100000002916797626664679851_);}
	.st42{fill:url(#SVGID_00000001650758634336137900000006223692761630128523_);}
	.st43{fill:url(#SVGID_00000023963910114951288910000005616463808291722919_);}
	.st44{fill:url(#SVGID_00000109018274986209401710000002653711467215348390_);}
	.st45{fill:url(#SVGID_00000113337871520128481320000011039816378259970217_);}
	.st46{fill:url(#SVGID_00000133508750015766210040000010611170231845462202_);}
	.st47{fill:url(#SVGID_00000150062733501911783680000012745758935271666567_);}
	.st48{fill:url(#SVGID_00000048476814283300972370000012581888719940563893_);}
	.st49{fill:url(#SVGID_00000146494678958039384550000007808409103133597077_);}
	.st50{fill:url(#SVGID_00000019641832214399611730000015037653422845911190_);}
	.st51{fill:url(#SVGID_00000127044928047613196560000017411117080030583195_);}
	.st52{fill:url(#SVGID_00000130638199698336264720000003888760911752656563_);}
	.st53{fill:url(#SVGID_00000079445456776651180890000010452478970299214782_);}
	.st54{fill:url(#SVGID_00000096742673184701089930000008663381569187664824_);}
	.st55{fill:url(#SVGID_00000068656961816762927070000009137795191223374725_);}
	.st56{fill:url(#SVGID_00000020393795324673685740000010045010368193862819_);}
	.st57{fill:url(#SVGID_00000137847004020029159430000001931519805924493445_);}
	.st58{fill:url(#SVGID_00000144311437333841774290000013658415316760779906_);}
	.st59{fill:url(#SVGID_00000131335938168335476320000000629315793474475919_);}
	.st60{fill:url(#SVGID_00000066488236575870297370000000652652852750904708_);}
	.st61{fill:url(#SVGID_00000176759898226649256100000011520218716983682439_);}
	.st62{fill:url(#SVGID_00000047060882256019322920000002528924449600510849_);}
	.st63{fill:url(#SVGID_00000021081349873903780680000017430030923279019397_);}
	.st64{fill:url(#SVGID_00000092423346406833359960000015231203528492170159_);}
	.st65{fill:url(#SVGID_00000081636081089621621830000001609035601087427745_);}
</style>
<g id="bgc">
	
		<linearGradient id="SVGID_1_" gradientUnits="userSpaceOnUse" x1="50.2033" y1="1532.618" x2="326.2411" y2="1143.799" gradientTransform="matrix(1 0 0 -1 0 1684)">
		<stop  offset="0" style="stop-color:#70E29C"/>
		<stop  offset="0.5168" style="stop-color:#58B8C4"/>
		<stop  offset="1" style="stop-color:#9E88C9"/>
	</linearGradient>
	<path class="st0" d="M351,295c-6.3-30.7-12.7-61.3-19-92L249,83l-15-31L187,8l-69.5,96.1l-33.9,92.2C58.8,243.7,34,291.1,9.1,338.5
		L103,524l20.2,82.1c7.9,13.3,15.8,26.6,23.8,39.9l30,13l36-49l109-97c4.3-17,8.7-34,13-51l15-22c5.3-13,10.7-26,16-39L351,295z"/>
</g>
<g id="right">
	<g id="_Layer_">
		
			<radialGradient id="SVGID_00000007417033064845175880000007766998601757555630_" cx="245.8807" cy="340.9764" r="134.5754" gradientTransform="matrix(0.9995 -3.310110e-02 3.310110e-02 0.9995 -9.214 -177.7138)" gradientUnits="userSpaceOnUse">
			<stop  offset="0" style="stop-color:#00C4BA"/>
			<stop  offset="0.1848" style="stop-color:#17C9B7"/>
			<stop  offset="0.7386" style="stop-color:#58D9AD"/>
			<stop  offset="1" style="stop-color:#71DFA9"/>
		</radialGradient>
		<path style="fill:url(#SVGID_00000007417033064845175880000007766998601757555630_);" d="M273,139c-5.7,24-11.3,48-17,72l8,2
			l65-12l6-2l-17-19L273,139z"/>
		
			<radialGradient id="SVGID_00000026150299653778317590000015949160692965231265_" cx="335.4467" cy="389.2551" r="138.7992" gradientTransform="matrix(1 0 0 1 0 -176)" gradientUnits="userSpaceOnUse">
			<stop  offset="0" style="stop-color:#04C0C1"/>
			<stop  offset="0.5589" style="stop-color:#2AD4B4"/>
			<stop  offset="1" style="stop-color:#43E2AB"/>
		</radialGradient>
		<path style="fill:url(#SVGID_00000026150299653778317590000015949160692965231265_);" d="M272,119c0.3,6.7,0.7,13.3,1,20l62,60
			l-53-70L272,119z"/>
		
			<radialGradient id="SVGID_00000173141854321610126890000001391526106231344775_" cx="336.2633" cy="376.9344" r="194.5211" gradientTransform="matrix(0.9995 -3.310110e-02 3.310110e-02 0.9995 -9.214 -177.7138)" gradientUnits="userSpaceOnUse">
			<stop  offset="0" style="stop-color:#00C1BE"/>
			<stop  offset="0.5826" style="stop-color:#2AD9A8"/>
			<stop  offset="1" style="stop-color:#43E89A"/>
		</radialGradient>
		<path style="fill:url(#SVGID_00000173141854321610126890000001391526106231344775_);" d="M253,79c6.3,13.7,12.7,27.3,19,41
			c40.9,53.5,61.9,79.8,63,79C336.3,198,309,158,253,79z"/>
		
			<radialGradient id="SVGID_00000114783308905269140300000015244227756207882112_" cx="270.4313" cy="372.0769" r="118.59" gradientTransform="matrix(1 0 0 1 0 -176)" gradientUnits="userSpaceOnUse">
			<stop  offset="0" style="stop-color:#6CD3B5"/>
			<stop  offset="0.2731" style="stop-color:#68D4B6"/>
			<stop  offset="0.5499" style="stop-color:#5CD5B7"/>
			<stop  offset="0.8274" style="stop-color:#48D8BA"/>
			<stop  offset="1" style="stop-color:#37DABC"/>
		</radialGradient>
		<path style="fill:url(#SVGID_00000114783308905269140300000015244227756207882112_);" d="M335,199l-3,4l-34,26l-3,1l-39-19
			L335,199z"/>
		
			<radialGradient id="SVGID_00000089565423468900761270000003339606220091781530_" cx="310.8354" cy="347.7435" r="159.6755" gradientTransform="matrix(1 0 0 1 0 -176)" gradientUnits="userSpaceOnUse">
			<stop  offset="0" style="stop-color:#76EAA9"/>
			<stop  offset="1" style="stop-color:#6760FF"/>
		</radialGradient>
		<path style="fill:url(#SVGID_00000089565423468900761270000003339606220091781530_);" d="M335,199l-40,31l35,29l3-10
			c0.7-14.7,1.3-29.3,2-44V199z"/>
		
			<radialGradient id="SVGID_00000114781071497198166060000015460671062871862457_" cx="312.0447" cy="299.6745" r="167.811" gradientTransform="matrix(0.9995 -3.310110e-02 3.310110e-02 0.9995 -9.214 -177.7138)" gradientUnits="userSpaceOnUse">
			<stop  offset="0" style="stop-color:#4DC6BD"/>
			<stop  offset="0.2204" style="stop-color:#51C3BE"/>
			<stop  offset="0.4438" style="stop-color:#5DBABF"/>
			<stop  offset="0.6687" style="stop-color:#72AAC2"/>
			<stop  offset="0.8932" style="stop-color:#8E94C7"/>
			<stop  offset="1" style="stop-color:#9E88C9"/>
		</radialGradient>
		<path style="fill:url(#SVGID_00000114781071497198166060000015460671062871862457_);" d="M335,199c-1.7,20-3.3,40-5,60l25,35
			C348.3,262.3,341.7,230.7,335,199z"/>
	</g>
	<g id="highlights" class="st7">
		<path class="st8" d="M335,199c8.1,38.6,12.1,58,12,58s-4.1-18.3-12-55l-3,30c0.7-10.7,1.3-21.3,2-32l-25,19l24-20l-14-15
			l12.1,11.3C332.4,196.6,333.7,197.8,335,199z"/>
	</g>
</g>
<g id="top">
	<g id="shapes_copy_5">
		
			<radialGradient id="SVGID_00000158741886255137668440000001016676617144655284_" cx="-148.275" cy="474.0475" r="221.1684" gradientTransform="matrix(-3.310104e-02 -0.9995 0.9995 -3.310104e-02 -381.9867 114.2287)" gradientUnits="userSpaceOnUse">
			<stop  offset="0" style="stop-color:#FFFF5E"/>
			<stop  offset="0.4925" style="stop-color:#99F77A"/>
			<stop  offset="0.8381" style="stop-color:#57F18C"/>
			<stop  offset="1" style="stop-color:#3EEF93"/>
		</radialGradient>
		<path style="fill:url(#SVGID_00000158741886255137668440000001016676617144655284_);" d="M115,101l6,23l52,56l17-5
			c3.3-13.7,6.7-27.3,10-41l-79-32L115,101z"/>
		
			<radialGradient id="SVGID_00000073697693223470443950000004786113804494450602_" cx="-131.6605" cy="527.2623" r="122.5169" gradientTransform="matrix(-3.310104e-02 -0.9995 0.9995 -3.310104e-02 -381.9867 114.2287)" gradientUnits="userSpaceOnUse">
			<stop  offset="0" style="stop-color:#FFFF40"/>
			<stop  offset="0.4925" style="stop-color:#99F76C"/>
			<stop  offset="0.8381" style="stop-color:#57F188"/>
			<stop  offset="1" style="stop-color:#3EEF93"/>
		</radialGradient>
		<path style="fill:url(#SVGID_00000073697693223470443950000004786113804494450602_);" d="M115,101l74.2-2.7l1.8,2.7
			c1.7,10.7,3.3,21.3,5,32v4L115,101z"/>
		
			<radialGradient id="SVGID_00000028315143818356316170000004317160349887372198_" cx="57.1411" cy="484.0365" r="129.6362" gradientTransform="matrix(-3.310104e-02 -0.9995 0.9995 -3.310104e-02 -381.9867 114.2287)" gradientUnits="userSpaceOnUse">
			<stop  offset="0" style="stop-color:#FCEE21"/>
			<stop  offset="0.4677" style="stop-color:#A0F576"/>
			<stop  offset="0.8301" style="stop-color:#5EF9B3"/>
			<stop  offset="1" style="stop-color:#45FBCA"/>
		</radialGradient>
		<path style="fill:url(#SVGID_00000028315143818356316170000004317160349887372198_);" d="M115,101l74.2-2.7L193,93l3.3-21.9L187,0
			L115,101z"/>
		
			<radialGradient id="SVGID_00000013179483960319423090000014270615617274102668_" cx="137.8563" cy="374.2558" r="149.4797" gradientTransform="matrix(0.9995 -3.310110e-02 3.310110e-02 0.9995 -9.214 -177.7138)" gradientUnits="userSpaceOnUse">
			<stop  offset="0" style="stop-color:#FFEE60"/>
			<stop  offset="0.4754" style="stop-color:#A0F596"/>
			<stop  offset="0.8326" style="stop-color:#5EF9BC"/>
			<stop  offset="1" style="stop-color:#45FBCA"/>
		</radialGradient>
		<path style="fill:url(#SVGID_00000013179483960319423090000014270615617274102668_);" d="M186.6,252.4
			c-4.6-24.2-9.1-48.3-13.7-72.5L187,172l1,2c-0.3,25.3-0.7,50.7-1,76L186.6,252.4z"/>
		
			<radialGradient id="SVGID_00000160186258138545668160000015746914854681690258_" cx="328.8333" cy="361.5494" r="173.0918" gradientTransform="matrix(0.9995 -3.310110e-02 3.310110e-02 0.9995 -9.214 -177.7138)" gradientUnits="userSpaceOnUse">
			<stop  offset="0" style="stop-color:#00C9F4"/>
			<stop  offset="0.4345" style="stop-color:#50DAC4"/>
			<stop  offset="0.8196" style="stop-color:#92E99C"/>
			<stop  offset="1" style="stop-color:#ABEE8D"/>
		</radialGradient>
		<path style="fill:url(#SVGID_00000160186258138545668160000015746914854681690258_);" d="M204,260c3.7-8.3,7.3-16.7,11-25l1-4
			l-18-89l-2-5l-9,35l-0.4,80.4l2.4,2.6l13,6L204,260z"/>
		
			<radialGradient id="SVGID_00000030456431904404015620000009400688046429855364_" cx="115.7178" cy="391.5259" r="159.8339" gradientTransform="matrix(1 0 0 1 0 -176)" gradientUnits="userSpaceOnUse">
			<stop  offset="0" style="stop-color:#C8E0AB"/>
			<stop  offset="6.490000e-02" style="stop-color:#C1E1AB"/>
			<stop  offset="0.7003" style="stop-color:#80ECA7"/>
			<stop  offset="1" style="stop-color:#67F0A5"/>
		</radialGradient>
		<path style="fill:url(#SVGID_00000030456431904404015620000009400688046429855364_);" d="M186.6,252.4L193,336
			c3.7-25.3,7.3-50.7,11-76L186.6,252.4z"/>
		
			<radialGradient id="SVGID_00000113329706526491593430000000943429967778121873_" cx="120.3263" cy="226.2128" r="70.5853" gradientTransform="matrix(0.9995 -3.310110e-02 3.310110e-02 0.9995 -9.214 -177.7138)" gradientUnits="userSpaceOnUse">
			<stop  offset="0" style="stop-color:#64F968"/>
			<stop  offset="0.1919" style="stop-color:#6AF66F"/>
			<stop  offset="1" style="stop-color:#7FE988"/>
		</radialGradient>
		<path style="fill:url(#SVGID_00000113329706526491593430000000943429967778121873_);" d="M196,71l21.2-1.6c1.3-1,2.6-2,3.9-3.1
			c6-5,11.5-10.5,16.5-16.6L187,0L196,71z"/>
		
			<radialGradient id="SVGID_00000016065916580558084580000007250876482862048662_" cx="316.5981" cy="247.7453" r="132.9737" gradientTransform="matrix(0.9995 -3.310110e-02 3.310110e-02 0.9995 -9.214 -177.7138)" gradientUnits="userSpaceOnUse">
			<stop  offset="0" style="stop-color:#00B5BE"/>
			<stop  offset="0.5826" style="stop-color:#2AD5A8"/>
			<stop  offset="1" style="stop-color:#43E89A"/>
		</radialGradient>
		<path style="fill:url(#SVGID_00000016065916580558084580000007250876482862048662_);" d="M196,71l3,4l71,44h3
			c-5.5-11.4-11.2-23.1-17.3-34.9c-6-11.8-12.1-23.3-18.1-34.4L196,71z"/>
		
			<radialGradient id="SVGID_00000127730955079825939770000013103904949878090161_" cx="337.213" cy="343.5259" r="174.4837" gradientTransform="matrix(0.9995 -3.310110e-02 3.310110e-02 0.9995 -9.214 -177.7138)" gradientUnits="userSpaceOnUse">
			<stop  offset="0" style="stop-color:#00B5BB"/>
			<stop  offset="0.5826" style="stop-color:#2AD7B1"/>
			<stop  offset="1" style="stop-color:#43EBAB"/>
		</radialGradient>
		<path style="fill:url(#SVGID_00000127730955079825939770000013103904949878090161_);" d="M196,71l77,48.5v20l-2,0.5l-67-32
			c-2.7-11.3-5.3-22.7-8-34V71z"/>
		
			<radialGradient id="SVGID_00000121983771815701933660000017512411679696032133_" cx="306.5092" cy="389.175" r="143.0893" gradientTransform="matrix(0.9995 -3.310110e-02 3.310110e-02 0.9995 -9.214 -177.7138)" gradientUnits="userSpaceOnUse">
			<stop  offset="0" style="stop-color:#00C4BA"/>
			<stop  offset="0.5826" style="stop-color:#2ADAA6"/>
			<stop  offset="1" style="stop-color:#43E89A"/>
		</radialGradient>
		<path style="fill:url(#SVGID_00000121983771815701933660000017512411679696032133_);" d="M205,107l68,32.5
			c-5.7,24.8-11.3,49.7-17,74.5l-3-1l-54-69l-3-7c0.3-2.7,0.7-5.3,1-8l7-21L205,107z"/>
		
			<radialGradient id="SVGID_00000095323798777634674500000002011844357708842420_" cx="353.3765" cy="459.7191" r="276.2517" gradientTransform="matrix(0.9995 -3.310110e-02 3.310110e-02 0.9995 -9.214 -177.7138)" gradientUnits="userSpaceOnUse">
			<stop  offset="0" style="stop-color:#009CD1"/>
			<stop  offset="0.3563" style="stop-color:#39C2B5"/>
			<stop  offset="0.7934" style="stop-color:#7AEC95"/>
			<stop  offset="1" style="stop-color:#93FD89"/>
		</radialGradient>
		<path style="fill:url(#SVGID_00000095323798777634674500000002011844357708842420_);" d="M196,137c6.3,32.7,12.7,65.3,19,98l41-21
			L196,137z"/>
		
			<radialGradient id="SVGID_00000134231003146962207610000018305822089488839834_" cx="229.6051" cy="300.9231" r="79.8852" gradientTransform="matrix(1 0 0 1 0 -176)" gradientUnits="userSpaceOnUse">
			<stop  offset="0" style="stop-color:#34E09F"/>
			<stop  offset="0.6478" style="stop-color:#6CF27C"/>
			<stop  offset="1" style="stop-color:#85FA6C"/>
		</radialGradient>
		<path style="fill:url(#SVGID_00000134231003146962207610000018305822089488839834_);" d="M205,107l-9,30
			c-2.3-12.9-4.6-25.8-6.8-38.7c2.3-9.1,4.6-18.2,6.8-27.3L205,107z"/>
	</g>
	<g id="highlights_copy_2" class="st7">
		<path class="st8" d="M187,0l17,17L188,2l3,30c-1.3-10-2.7-20-4-30c-12.5,16.8-18.8,25.1-19,25S174.2,17.9,187,0z"/>
		<path class="st8" d="M195,75l-7,22l-40,3l40-1l6,29c-1.3-10-2.7-20-4-30C191.7,90.3,193.3,82.7,195,75z"/>
		<path class="st8" d="M245,126l28,13c-2.7,12-5.3,24-8,36c2.3-11.7,4.7-23.3,7-35L245,126z"/>
	</g>
</g>
<g id="left">
	<g id="_Layer_2">
		
			<radialGradient id="SVGID_00000058549081794583866870000002630760087208727213_" cx="12.8317" cy="361.6929" r="148.9581" gradientTransform="matrix(0.9995 -3.310110e-02 3.310110e-02 0.9995 -9.214 -177.7138)" gradientUnits="userSpaceOnUse">
			<stop  offset="0" style="stop-color:#FFFF40"/>
			<stop  offset="3.810000e-02" style="stop-color:#F6FE44"/>
			<stop  offset="0.5148" style="stop-color:#8FF171"/>
			<stop  offset="0.8452" style="stop-color:#4DE88E"/>
			<stop  offset="1" style="stop-color:#34E599"/>
		</radialGradient>
		<path style="fill:url(#SVGID_00000058549081794583866870000002630760087208727213_);" d="M121,118c0.3,7,0.7,14,1,21
			c5.7,26.7,11.3,53.3,17,80l32-30c0.7-3,1.3-6,2-9L121,118z"/>
		
			<radialGradient id="SVGID_00000169518762940775501660000005401696560082476952_" cx="169.022" cy="575.1189" r="203.9856" gradientTransform="matrix(1 0 0 1 0 -176)" gradientUnits="userSpaceOnUse">
			<stop  offset="0" style="stop-color:#00B897"/>
			<stop  offset="0.266" style="stop-color:#25C698"/>
			<stop  offset="0.7646" style="stop-color:#66DF9A"/>
			<stop  offset="1" style="stop-color:#7FE99B"/>
		</radialGradient>
		<path style="fill:url(#SVGID_00000169518762940775501660000005401696560082476952_);" d="M173,180c7.3,25.5,14.7,51,22,76.5
			c1.7,10,3.3,20,5,30c-1.3,15.2-2.7,30.4-4,45.5l-3-2l-39-52l-14.3-61.8L173,180z"/>
		
			<radialGradient id="SVGID_00000118375342683766344690000000369731929353275578_" cx="256.6914" cy="536.5693" r="300.5038" gradientTransform="matrix(0.9995 -3.310110e-02 3.310110e-02 0.9995 -9.214 -177.7138)" gradientUnits="userSpaceOnUse">
			<stop  offset="0" style="stop-color:#00B5AF"/>
			<stop  offset="0.2712" style="stop-color:#26C4A8"/>
			<stop  offset="0.7662" style="stop-color:#67DE9D"/>
			<stop  offset="1" style="stop-color:#80E899"/>
		</radialGradient>
		<path style="fill:url(#SVGID_00000118375342683766344690000000369731929353275578_);" d="M156,281c-5.5,14.9-11.2,29.9-17,45
			c-7.6,19.7-15.3,39-23,58L7,344l-7-4l121-222C132.7,172.3,144.3,226.7,156,281z"/>
		
			<radialGradient id="SVGID_00000114046738201563859530000017411494584519233441_" cx="216.7" cy="673.7434" r="243.959" gradientTransform="matrix(0.9995 -3.310110e-02 3.310110e-02 0.9995 -9.214 -177.7138)" gradientUnits="userSpaceOnUse">
			<stop  offset="0" style="stop-color:#00B5BE"/>
			<stop  offset="1.940000e-02" style="stop-color:#02B5BD"/>
			<stop  offset="0.6858" style="stop-color:#43BB95"/>
			<stop  offset="1" style="stop-color:#5CBD85"/>
		</radialGradient>
		<path style="fill:url(#SVGID_00000114046738201563859530000017411494584519233441_);" d="M27,390L0,340l115.5,41.9l0.5,5.1l-6,58
			l-3,7L27,390z"/>
		
			<radialGradient id="SVGID_00000016788537513016049730000016233876141597732752_" cx="102.4335" cy="507.1666" r="159.0826" gradientTransform="matrix(1 0 0 1 0 -176)" gradientUnits="userSpaceOnUse">
			<stop  offset="0" style="stop-color:#6AE8C4"/>
			<stop  offset="1" style="stop-color:#6FB57F"/>
		</radialGradient>
		<path style="fill:url(#SVGID_00000016788537513016049730000016233876141597732752_);" d="M144.6,369.4L161,341l50,65L144.6,369.4z
			"/>
		
			<radialGradient id="SVGID_00000099651670458646391050000006770375486296657076_" cx="170.6911" cy="685.5004" r="161.0665" gradientTransform="matrix(0.9995 -3.310110e-02 3.310110e-02 0.9995 -9.214 -177.7138)" gradientUnits="userSpaceOnUse">
			<stop  offset="0" style="stop-color:#45ACAA"/>
			<stop  offset="0.6627" style="stop-color:#52BB9E"/>
			<stop  offset="1" style="stop-color:#6BD2A3"/>
		</radialGradient>
		<path style="fill:url(#SVGID_00000099651670458646391050000006770375486296657076_);" d="M115,382c-2.7,23.3-5.3,46.7-8,70l15-5
			l81-35l8-6l-63-37L115,382z"/>
		
			<radialGradient id="SVGID_00000116916955269808547430000006695639217336957825_" cx="108.7415" cy="546.2727" r="129.7146" gradientTransform="matrix(1 0 0 1 0 -176)" gradientUnits="userSpaceOnUse">
			<stop  offset="0" style="stop-color:#2CC29A"/>
			<stop  offset="0.3906" style="stop-color:#56BEA7"/>
			<stop  offset="1" style="stop-color:#5AC2BE"/>
		</radialGradient>
		<path style="fill:url(#SVGID_00000116916955269808547430000006695639217336957825_);" d="M211,406c-34.7,14.7-69.3,29.3-104,44
			c0,0.7,0,1.3,0,2c19.3,2.7,38.7,5.3,58,8c12.6-5.4,25.3-10.8,37.9-16.2C205.6,431.2,208.3,418.6,211,406z"/>
		
			<radialGradient id="SVGID_00000161622986603912554950000010643064917335870885_" cx="318.0044" cy="533.5717" r="211.135" gradientTransform="matrix(1 0 0 1 0 -176)" gradientUnits="userSpaceOnUse">
			<stop  offset="0" style="stop-color:#00A07F"/>
			<stop  offset="0.2554" style="stop-color:#23B28E"/>
			<stop  offset="0.7612" style="stop-color:#64D4A9"/>
			<stop  offset="1" style="stop-color:#7DE1B4"/>
		</radialGradient>
		<path style="fill:url(#SVGID_00000161622986603912554950000010643064917335870885_);" d="M160,341l-6-58c0.3-2,0.7-4,1-6l41,55
			l15,74L160,341z"/>
		
			<radialGradient id="SVGID_00000038390103503416755770000011678360817143256749_" cx="174.033" cy="593.4725" r="373.2329" gradientTransform="matrix(1 0 0 1 0 -176)" gradientUnits="userSpaceOnUse">
			<stop  offset="0" style="stop-color:#6AE8BA"/>
			<stop  offset="1" style="stop-color:#6FB57F"/>
		</radialGradient>
		<path style="fill:url(#SVGID_00000038390103503416755770000011678360817143256749_);" d="M155,277c-6.2,16.7-12.5,33.5-18.8,50.2
			c-6.9,18.2-13.8,36.5-20.7,54.7L147,369l14.2-26.7L155,277z"/>
		
			<radialGradient id="SVGID_00000134245243618379511270000018232571305076409777_" cx="66.7245" cy="287.3162" r="82.0429" gradientTransform="matrix(1 0 0 1 0 -176)" gradientUnits="userSpaceOnUse">
			<stop  offset="0" style="stop-color:#00B5BB"/>
			<stop  offset="0.5826" style="stop-color:#2AD7B1"/>
			<stop  offset="1" style="stop-color:#43EBAB"/>
		</radialGradient>
		<path style="fill:url(#SVGID_00000134245243618379511270000018232571305076409777_);" d="M79,195l42-77l-6-17L79,195z"/>
		
			<radialGradient id="SVGID_00000050656579654226315980000014160785819664282253_" cx="156.0675" cy="592.3065" r="59.0091" fx="101.5313" fy="569.7703" gradientTransform="matrix(1 0 0 1 0 -176)" gradientUnits="userSpaceOnUse">
			<stop  offset="0" style="stop-color:#5AB48B"/>
			<stop  offset="0.4189" style="stop-color:#85C19F"/>
			<stop  offset="1" style="stop-color:#54BAC4"/>
		</radialGradient>
		<path style="fill:url(#SVGID_00000050656579654226315980000014160785819664282253_);" d="M161.8,461.4c13.3-6,26.6-12,40-18.1
			c-3.9,6.5-7.9,13.1-11.8,19.6C180.6,462.5,171.2,461.9,161.8,461.4z"/>
	</g>
	<g id="highlights_copy_3" class="st7">
		<path class="st8" d="M156,277l3,42c-1.3-13.3-2.7-26.7-4-40l-13,33l12-35c-6.3-31.3-9.3-46.9-9-47S149,245.6,156,277z"/>
		<path class="st8" d="M116,380l-32-9l30,12c-0.7,8.3-1.3,16.7-2,25c1.7-8.3,3.3-16.7,5-25l31-13l9-19l-10,18L116,380z"/>
		<path class="st8" d="M22,300L4,339l57,23L4,343l19,39L0,340L22,300z"/>
	</g>
</g>
<g id="left-bottom">
	<g id="_Layer_3">
		
			<radialGradient id="SVGID_00000114792081022297720880000001443755802912080008_" cx="-105.5" cy="639.5765" r="225.4248" gradientTransform="matrix(0.9995 -3.310110e-02 3.310110e-02 0.9995 -9.214 -177.7138)" gradientUnits="userSpaceOnUse">
			<stop  offset="0" style="stop-color:#B6E473"/>
			<stop  offset="1" style="stop-color:#3FBFC4"/>
		</radialGradient>
		<path style="fill:url(#SVGID_00000114792081022297720880000001443755802912080008_);" d="M107,450l-6,76l-1.3,1.8
			C74.8,480.9,49.9,433.9,25,387L107,450z"/>
		
			<radialGradient id="SVGID_00000097496727090557288480000016386571808599214472_" cx="145.3356" cy="567.8108" r="186.4762" gradientTransform="matrix(1 0 0 1 0 -176)" gradientUnits="userSpaceOnUse">
			<stop  offset="0" style="stop-color:#4FEA95"/>
			<stop  offset="1" style="stop-color:#8087FE"/>
		</radialGradient>
		<path style="fill:url(#SVGID_00000097496727090557288480000016386571808599214472_);" d="M107,450l5,7l61,51l5,1.5l13-48.5
			L107,450z"/>
		
			<radialGradient id="SVGID_00000075159590908807028760000004588403786432252297_" cx="72.4619" cy="638.3365" r="137.2539" gradientTransform="matrix(0.9995 -3.310110e-02 3.310110e-02 0.9995 -9.214 -177.7138)" gradientUnits="userSpaceOnUse">
			<stop  offset="0" style="stop-color:#72C2BD"/>
			<stop  offset="0.2444" style="stop-color:#71C0C1"/>
			<stop  offset="0.4922" style="stop-color:#6FBACD"/>
			<stop  offset="0.7415" style="stop-color:#6BAFE2"/>
			<stop  offset="0.9906" style="stop-color:#66A1FE"/>
			<stop  offset="1" style="stop-color:#66A0FF"/>
		</radialGradient>
		<path style="fill:url(#SVGID_00000075159590908807028760000004588403786432252297_);" d="M107,450c-0.3,2.3-0.7,4.7-1,7l15,84
			c15.7-7.6,31.7-16.2,48-26c3-1.8,6-3.7,9-5.5L107,450z"/>
		
			<radialGradient id="SVGID_00000131347315754099980130000011559841008234891679_" cx="8.2463" cy="718.6489" r="155.4494" gradientTransform="matrix(0.9995 -3.310110e-02 3.310110e-02 0.9995 -9.214 -177.7138)" gradientUnits="userSpaceOnUse">
			<stop  offset="0" style="stop-color:#2DC6BD"/>
			<stop  offset="0.1933" style="stop-color:#31C4BE"/>
			<stop  offset="0.3894" style="stop-color:#3DBEC0"/>
			<stop  offset="0.5866" style="stop-color:#52B3C4"/>
			<stop  offset="0.7848" style="stop-color:#6EA5CA"/>
			<stop  offset="0.9819" style="stop-color:#9292D1"/>
			<stop  offset="1" style="stop-color:#9690D2"/>
		</radialGradient>
		<path style="fill:url(#SVGID_00000131347315754099980130000011559841008234891679_);" d="M178,509.5l-7,16.5l-44,80l-6,7
			c-0.3-4.7-0.7-9.3-1-14v-54l2-5L178,509.5z"/>
		
			<radialGradient id="SVGID_00000044881599862726398070000012142236794770934406_" cx="186.9628" cy="738.2534" r="170.0956" gradientTransform="matrix(0.9995 -3.310110e-02 3.310110e-02 0.9995 -9.214 -177.7138)" gradientUnits="userSpaceOnUse">
			<stop  offset="0" style="stop-color:#97AAEA"/>
			<stop  offset="0.6399" style="stop-color:#61C7C9"/>
			<stop  offset="1" style="stop-color:#48D5B9"/>
		</radialGradient>
		<path style="fill:url(#SVGID_00000044881599862726398070000012142236794770934406_);" d="M99.7,527.8c1.1,1.4,2.2,2.8,3.3,4.2
			l15,9l4-1l-15-90l0,0L99.7,527.8z"/>
		
			<radialGradient id="SVGID_00000050662488286890649460000000611963664022922426_" cx="53.1577" cy="717.8113" r="73.7703" gradientTransform="matrix(0.9995 -3.310110e-02 3.310110e-02 0.9995 -9.214 -177.7138)" gradientUnits="userSpaceOnUse">
			<stop  offset="0" style="stop-color:#4DC6BD"/>
			<stop  offset="0.2565" style="stop-color:#51C4C0"/>
			<stop  offset="0.5165" style="stop-color:#5DBDC8"/>
			<stop  offset="0.7771" style="stop-color:#71B1D6"/>
			<stop  offset="1" style="stop-color:#89A4E6"/>
		</radialGradient>
		<path style="fill:url(#SVGID_00000050662488286890649460000000611963664022922426_);" d="M122,540c-0.3,24.3-0.7,48.7-1,73
			c-7.1-28.4-14.2-56.8-21.3-85.2L122,540z"/>
		
			<linearGradient id="SVGID_00000175297103088643296440000007808241024906830524_" gradientUnits="userSpaceOnUse" x1="76.711" y1="748.0887" x2="168.9376" y2="734.5796" gradientTransform="matrix(1 0 0 1 0 -176)">
			<stop  offset="0" style="stop-color:#2AB8C9"/>
			<stop  offset="1" style="stop-color:#897AC2"/>
		</linearGradient>
		<path style="fill:url(#SVGID_00000175297103088643296440000007808241024906830524_);" d="M177,510l-56,103l5-2l24-23l4-5
			C161.7,558.7,169.3,534.3,177,510z"/>
		
			<radialGradient id="SVGID_00000062170618342970577620000013503338812848866951_" cx="35.6592" cy="771.5306" r="119.5325" gradientTransform="matrix(0.9995 -3.310110e-02 3.310110e-02 0.9995 -9.214 -177.7138)" gradientUnits="userSpaceOnUse">
			<stop  offset="0" style="stop-color:#79C6BD"/>
			<stop  offset="0.1838" style="stop-color:#79C2BD"/>
			<stop  offset="0.3702" style="stop-color:#78B6BF"/>
			<stop  offset="0.5578" style="stop-color:#76A1C1"/>
			<stop  offset="0.7463" style="stop-color:#7485C4"/>
			<stop  offset="0.9337" style="stop-color:#7161C7"/>
			<stop  offset="1" style="stop-color:#7052C9"/>
		</radialGradient>
		<path style="fill:url(#SVGID_00000062170618342970577620000013503338812848866951_);" d="M154,583l-33,30l26,39
			C149.3,629,151.7,606,154,583z"/>
	</g>
	<g id="highlights-2" class="st7">
		<path class="st8" d="M115,496c2.7,14.3,5.3,28.7,8,43l32-17l-32,19c-0.3,8.7-0.7,17.3-1,26c-0.3-9-0.7-18-1-27L115,496z"/>
		<path class="st8" d="M121,613l11,16l-9-16l20-20L121,613z"/>
	</g>
</g>
<g id="right-bottom">
	<g id="_Layer_4">
		
			<radialGradient id="SVGID_00000176015579778320876470000012463084456412460691_" cx="243.1593" cy="534.9231" r="111.199" gradientTransform="matrix(1 0 0 1 0 -176)" gradientUnits="userSpaceOnUse">
			<stop  offset="0" style="stop-color:#55BAB8"/>
			<stop  offset="0.3059" style="stop-color:#5DC3B7"/>
			<stop  offset="0.7972" style="stop-color:#75DAB3"/>
			<stop  offset="1" style="stop-color:#80E6B1"/>
		</radialGradient>
		<path style="fill:url(#SVGID_00000176015579778320876470000012463084456412460691_);" d="M215,234l3,3l9,103l-34-9
			c3.3-23.5,6.7-47,10-70.5L215,234z"/>
		
			<radialGradient id="SVGID_00000178922637047569457910000001579815384982510220_" cx="308.8288" cy="374.8663" r="88.2215" gradientTransform="matrix(1 0 0 1 0 -176)" gradientUnits="userSpaceOnUse">
			<stop  offset="0" style="stop-color:#65D4B6"/>
			<stop  offset="1" style="stop-color:#57C4C0"/>
		</radialGradient>
		<path style="fill:url(#SVGID_00000178922637047569457910000001579815384982510220_);" d="M256,211l26,25l14-7L256,211z"/>
		
			<radialGradient id="SVGID_00000032635578707871561620000012506868517314011268_" cx="337.4492" cy="425.7578" r="48.6295" gradientTransform="matrix(1 0 0 1 0 -176)" gradientUnits="userSpaceOnUse">
			<stop  offset="0" style="stop-color:#609FCF"/>
			<stop  offset="1" style="stop-color:#59C4C0"/>
		</radialGradient>
		<path style="fill:url(#SVGID_00000032635578707871561620000012506868517314011268_);" d="M296,229l-14,5l45,38l3-15L296,229z"/>
		
			<radialGradient id="SVGID_00000152266553109162671960000011678782101297867410_" cx="380.8681" cy="445.243" r="78.6099" gradientTransform="matrix(1 0 0 1 0 -176)" gradientUnits="userSpaceOnUse">
			<stop  offset="0" style="stop-color:#9282C7"/>
			<stop  offset="1" style="stop-color:#59B6C0"/>
		</radialGradient>
		<path style="fill:url(#SVGID_00000152266553109162671960000011678782101297867410_);" d="M355,294c-8.3-12.3-16.7-24.7-25-37
			c-1.7,5-3.3,10-5,15l11,11L355,294z"/>
		
			<radialGradient id="SVGID_00000155854482797453085910000005765001087472617894_" cx="160.8242" cy="500.2103" r="184.792" gradientTransform="matrix(1 0 0 1 0 -176)" gradientUnits="userSpaceOnUse">
			<stop  offset="0" style="stop-color:#4EE5B6"/>
			<stop  offset="1" style="stop-color:#8A5DD6"/>
		</radialGradient>
		<path style="fill:url(#SVGID_00000155854482797453085910000005765001087472617894_);" d="M226,339l-33-8c9.3,19.7,18.7,39.3,28,59
			l33-9L226,339z"/>
		
			<radialGradient id="SVGID_00000021822987101864512640000013957118923567468207_" cx="150.956" cy="506.044" r="166.2905" gradientTransform="matrix(1 0 0 1 0 -176)" gradientUnits="userSpaceOnUse">
			<stop  offset="0" style="stop-color:#4EDDB6"/>
			<stop  offset="1" style="stop-color:#8360CA"/>
		</radialGradient>
		<path style="fill:url(#SVGID_00000021822987101864512640000013957118923567468207_);" d="M247,380l-22,8l13,6l52,16L247,380z"/>
		
			<radialGradient id="SVGID_00000140720003813280404520000000528245230199766912_" cx="189.6142" cy="371.6457" r="265.9925" gradientTransform="matrix(1 0 0 1 0 -176)" gradientUnits="userSpaceOnUse">
			<stop  offset="0" style="stop-color:#4DD6BE"/>
			<stop  offset="0.1924" style="stop-color:#4FD2BE"/>
			<stop  offset="0.3875" style="stop-color:#57C6C0"/>
			<stop  offset="0.5838" style="stop-color:#63B1C1"/>
			<stop  offset="0.781" style="stop-color:#7495C4"/>
			<stop  offset="0.9772" style="stop-color:#8971C8"/>
			<stop  offset="1" style="stop-color:#8C6CC8"/>
		</radialGradient>
		<path style="fill:url(#SVGID_00000140720003813280404520000000528245230199766912_);" d="M371.4,404H368l-57-65
			c-20.6-38.1-38-78-52-119c-1-3-2-6-3-9l33,21l39,33l27,29C360.5,330.7,365.9,367.3,371.4,404z"/>
		
			<radialGradient id="SVGID_00000039122326333972440880000000422504492801214376_" cx="388.1868" cy="609.2059" r="179.4429" gradientTransform="matrix(1 0 0 1 0 -176)" gradientUnits="userSpaceOnUse">
			<stop  offset="0" style="stop-color:#924396"/>
			<stop  offset="1" style="stop-color:#5ABDEA"/>
		</radialGradient>
		<path style="fill:url(#SVGID_00000039122326333972440880000000422504492801214376_);" d="M357,443c4.8-13,9.6-26,14.4-39
			c-19.8-22-39.6-44-59.4-66l-10,9l-18,54l3,10L357,443z"/>
		
			<radialGradient id="SVGID_00000117671237523116459970000001001500221542456732_" cx="173.4861" cy="619.6308" r="138.2808" gradientTransform="matrix(1 0 0 1 0 -176)" gradientUnits="userSpaceOnUse">
			<stop  offset="0" style="stop-color:#4EC1B1"/>
			<stop  offset="0.1839" style="stop-color:#60AFC1"/>
			<stop  offset="0.4578" style="stop-color:#759CD3"/>
			<stop  offset="0.7295" style="stop-color:#8190DE"/>
			<stop  offset="0.9946" style="stop-color:#858CE2"/>
		</radialGradient>
		<path style="fill:url(#SVGID_00000117671237523116459970000001001500221542456732_);" d="M286,408l2,8c-1.3,10.3-2.7,20.7-4,31
			l-107,63c4.2-16.4,8.5-32.8,12.7-49.2c3.1-5.1,6.2-10.2,9.3-15.4l6-4.5l68-30L286,408z"/>
		
			<radialGradient id="SVGID_00000067935157050228711740000007890883222028550556_" cx="361.6813" cy="638.1758" r="127.4927" gradientTransform="matrix(1 0 0 1 0 -176)" gradientUnits="userSpaceOnUse">
			<stop  offset="0" style="stop-color:#714AAC"/>
			<stop  offset="0.2931" style="stop-color:#885CB5"/>
			<stop  offset="0.7444" style="stop-color:#A673C1"/>
			<stop  offset="1" style="stop-color:#B17CC6"/>
		</radialGradient>
		<path style="fill:url(#SVGID_00000067935157050228711740000007890883222028550556_);" d="M339.9,464.5L357,443l-71-35l3,8l46,46
			L339.9,464.5z"/>
		
			<radialGradient id="SVGID_00000114051165290660093240000002642894864018658452_" cx="423.5602" cy="665.1075" r="156.6053" gradientTransform="matrix(0.9974 7.224773e-02 -7.224773e-02 0.9974 31.6596 -182.2438)" gradientUnits="userSpaceOnUse">
			<stop  offset="0" style="stop-color:#6C49C1"/>
			<stop  offset="0.2292" style="stop-color:#6F4DC3"/>
			<stop  offset="0.4615" style="stop-color:#7659C8"/>
			<stop  offset="0.6952" style="stop-color:#836ED0"/>
			<stop  offset="0.9286" style="stop-color:#958ADC"/>
			<stop  offset="1" style="stop-color:#9C94E0"/>
		</radialGradient>
		<path style="fill:url(#SVGID_00000114051165290660093240000002642894864018658452_);" d="M286,408c-2.7,13.3-5.3,26.7-8,40
			c0.7,2.3,1.3,4.7,2,7l42,58l3.2,1.6c4.9-16.7,9.8-33.4,14.7-50.1L286,408z"/>
		
			<radialGradient id="SVGID_00000120556817924622243510000007125040409901057429_" cx="341.9011" cy="762" r="184.7468" gradientTransform="matrix(1 0 0 1 0 -176)" gradientUnits="userSpaceOnUse">
			<stop  offset="0" style="stop-color:#9685D4"/>
			<stop  offset="0.3109" style="stop-color:#9286D4"/>
			<stop  offset="0.6259" style="stop-color:#8689D6"/>
			<stop  offset="0.942" style="stop-color:#728DD8"/>
			<stop  offset="1" style="stop-color:#6D8ED9"/>
		</radialGradient>
		<path style="fill:url(#SVGID_00000120556817924622243510000007125040409901057429_);" d="M278,448l-101,62l88,25
			c4.7-27.7,9.3-55.3,14-83L278,448z"/>
		
			<radialGradient id="SVGID_00000167362230189721549430000012935547015159054487_" cx="366.8224" cy="690.6206" r="135.2652" gradientTransform="matrix(0.9974 7.224773e-02 -7.224773e-02 0.9974 31.6596 -182.2438)" gradientUnits="userSpaceOnUse">
			<stop  offset="0" style="stop-color:#9062D4"/>
			<stop  offset="0.2373" style="stop-color:#9066D3"/>
			<stop  offset="0.4778" style="stop-color:#8F72D1"/>
			<stop  offset="0.7198" style="stop-color:#8E87CE"/>
			<stop  offset="0.9615" style="stop-color:#8DA3CA"/>
			<stop  offset="1" style="stop-color:#8DA8C9"/>
		</radialGradient>
		<path style="fill:url(#SVGID_00000167362230189721549430000012935547015159054487_);" d="M278,448c-4.7,30-9.3,60-14,90l49-17
			l12.2-6.4L278,448z"/>
		
			<radialGradient id="SVGID_00000178182563029603577210000012452432242932535734_" cx="266.0216" cy="780.4332" r="211.1568" gradientTransform="matrix(0.9974 7.224773e-02 -7.224773e-02 0.9974 31.6596 -182.2438)" gradientUnits="userSpaceOnUse">
			<stop  offset="0" style="stop-color:#6B6AD4"/>
			<stop  offset="0.2523" style="stop-color:#6D6ED3"/>
			<stop  offset="0.508" style="stop-color:#747AD1"/>
			<stop  offset="0.7644" style="stop-color:#7F8ECE"/>
			<stop  offset="1" style="stop-color:#8DA8C9"/>
		</radialGradient>
		<path style="fill:url(#SVGID_00000178182563029603577210000012452432242932535734_);" d="M265,533l-30,38l-48-48l-10-13L265,533z"
			/>
		
			<radialGradient id="SVGID_00000092457665804765806520000003255203002949429678_" cx="284.8588" cy="927.3082" r="314.906" gradientTransform="matrix(0.9974 7.224773e-02 -7.224773e-02 0.9974 31.6596 -182.2438)" gradientUnits="userSpaceOnUse">
			<stop  offset="0" style="stop-color:#7835C7"/>
			<stop  offset="0.18" style="stop-color:#7739C7"/>
			<stop  offset="0.3624" style="stop-color:#7345C7"/>
			<stop  offset="0.5461" style="stop-color:#6E5AC6"/>
			<stop  offset="0.7306" style="stop-color:#6676C5"/>
			<stop  offset="0.9141" style="stop-color:#5C9AC4"/>
			<stop  offset="1" style="stop-color:#56AEC4"/>
		</radialGradient>
		<path style="fill:url(#SVGID_00000092457665804765806520000003255203002949429678_);" d="M177,510l59,60
			c-6.3,13.7-12.7,27.3-19,41l-2,3c-11.3-23.7-21-48-29-73C182.6,530.4,179.6,520.1,177,510z"/>
		
			<radialGradient id="SVGID_00000140695436838684673110000015243548354674461881_" cx="285.3932" cy="727.1256" r="118.0265" gradientTransform="matrix(0.9974 7.224773e-02 -7.224773e-02 0.9974 31.6596 -182.2438)" gradientUnits="userSpaceOnUse">
			<stop  offset="0" style="stop-color:#5A43C1"/>
			<stop  offset="0.2151" style="stop-color:#5E47C2"/>
			<stop  offset="0.4332" style="stop-color:#6A52C7"/>
			<stop  offset="0.6526" style="stop-color:#7F66CE"/>
			<stop  offset="0.8718" style="stop-color:#9B81D9"/>
			<stop  offset="1" style="stop-color:#AF94E0"/>
		</radialGradient>
		<path style="fill:url(#SVGID_00000140695436838684673110000015243548354674461881_);" d="M190.6,588.4L215,614l-38-104
			C181.5,536.1,186,562.3,190.6,588.4z"/>
		
			<radialGradient id="SVGID_00000160895312742528810630000001191676063694841228_" cx="220.1548" cy="633.7913" r="159.2193" gradientTransform="matrix(0.9974 7.224773e-02 -7.224773e-02 0.9974 31.6596 -182.2438)" gradientUnits="userSpaceOnUse">
			<stop  offset="0" style="stop-color:#5A49C1"/>
			<stop  offset="0.2292" style="stop-color:#5E4DC3"/>
			<stop  offset="0.4615" style="stop-color:#6859C8"/>
			<stop  offset="0.6952" style="stop-color:#7A6ED0"/>
			<stop  offset="0.9286" style="stop-color:#938ADC"/>
			<stop  offset="1" style="stop-color:#9C94E0"/>
		</radialGradient>
		<path style="fill:url(#SVGID_00000160895312742528810630000001191676063694841228_);" d="M325.2,515L265,533l-30,36l-20,45
			L325.2,515z"/>
		
			<radialGradient id="SVGID_00000169548575952296787140000014836400231797323653_" cx="220.4531" cy="409.4321" r="207.9767" gradientTransform="matrix(1 0 0 1 0 -176)" gradientUnits="userSpaceOnUse">
			<stop  offset="0" style="stop-color:#4DD0B5"/>
			<stop  offset="0.2231" style="stop-color:#50CAB8"/>
			<stop  offset="0.5299" style="stop-color:#59B8C0"/>
			<stop  offset="0.8838" style="stop-color:#679BCD"/>
			<stop  offset="1" style="stop-color:#6D90D2"/>
		</radialGradient>
		<path style="fill:url(#SVGID_00000169548575952296787140000014836400231797323653_);" d="M256,211l-41,23c3.7,35,7.3,70,11,105
			l72,4l14-4L256,211z"/>
		
			<radialGradient id="SVGID_00000042699358944228789530000001785264323506111653_" cx="223.0001" cy="473.4815" r="119.0866" gradientTransform="matrix(1 0 0 1 0 -176)" gradientUnits="userSpaceOnUse">
			<stop  offset="0" style="stop-color:#4DBCBD"/>
			<stop  offset="0.2544" style="stop-color:#50B8BF"/>
			<stop  offset="0.5122" style="stop-color:#59ACC4"/>
			<stop  offset="0.7706" style="stop-color:#6898CD"/>
			<stop  offset="1" style="stop-color:#7B7FD7"/>
		</radialGradient>
		<path style="fill:url(#SVGID_00000042699358944228789530000001785264323506111653_);" d="M226,339l18,42l42,27
			c8.7-23.3,17.3-46.7,26-70L226,339z"/>
		
			<radialGradient id="SVGID_00000084514197818377494140000006555147442909846935_" cx="175.3516" cy="605.1791" r="99.4551" gradientTransform="matrix(1 0 0 1 0 -176)" gradientUnits="userSpaceOnUse">
			<stop  offset="0" style="stop-color:#4EC1B1"/>
			<stop  offset="0.9946" style="stop-color:#818CD3"/>
		</radialGradient>
		<path style="fill:url(#SVGID_00000084514197818377494140000006555147442909846935_);" d="M208,409l-9,36.5l87-37.5L208,409z"/>
		
			<radialGradient id="SVGID_00000150075684916486803840000018206058094510754690_" cx="167.3297" cy="526.9479" r="122.8851" gradientTransform="matrix(1 0 0 1 0 -176)" gradientUnits="userSpaceOnUse">
			<stop  offset="0" style="stop-color:#4EDD9D"/>
			<stop  offset="1" style="stop-color:#9183D6"/>
		</radialGradient>
		<path style="fill:url(#SVGID_00000150075684916486803840000018206058094510754690_);" d="M208,409l-15-79l32,58L208,409z"/>
		
			<radialGradient id="SVGID_00000024692929962577676750000001060905354995582894_" cx="171" cy="545.5154" r="139.6697" gradientTransform="matrix(1 0 0 1 0 -176)" gradientUnits="userSpaceOnUse">
			<stop  offset="0" style="stop-color:#60D0B6"/>
			<stop  offset="0.994" style="stop-color:#825DD6"/>
		</radialGradient>
		<path style="fill:url(#SVGID_00000024692929962577676750000001060905354995582894_);" d="M225,388l61,20l-78,1L225,388z"/>
	</g>
	<g id="highlights-3" class="st7">
		<path class="st8" d="M308,336l-38-99l43,100l45,52l-46-47l-18,47l15-49l-31-2L308,336z"/>
		<path class="st8" d="M275,462l-12,69l-37-8l36,11l-16,22l20-22l36-12l-36,9L275,462z"/>
	</g>
</g>
<g id="bottom">
	<g id="_Layer_5">
		
			<radialGradient id="SVGID_00000000937125908130260880000007342320912052807552_" cx="66.4907" cy="685.6716" r="164.0392" gradientTransform="matrix(1 0 0 1 0 -176)" gradientUnits="userSpaceOnUse">
			<stop  offset="0" style="stop-color:#617EAA"/>
			<stop  offset="0.2609" style="stop-color:#657DAE"/>
			<stop  offset="0.5254" style="stop-color:#7078BA"/>
			<stop  offset="0.7905" style="stop-color:#8271CE"/>
			<stop  offset="1" style="stop-color:#9669E4"/>
		</radialGradient>
		<path style="fill:url(#SVGID_00000000937125908130260880000007342320912052807552_);" d="M151,585c-1.3,22.3-2.7,44.7-4,67l3-3
			l31-56c-1.3-27.7-2.7-55.3-4-83L151,585z"/>
		
			<radialGradient id="SVGID_00000150784122433622838190000000810651712507120572_" cx="233.6662" cy="744.4564" r="89.6682" gradientTransform="matrix(0.9994 -3.375524e-02 3.375524e-02 0.9994 -9.5893 -177.6675)" gradientUnits="userSpaceOnUse">
			<stop  offset="0" style="stop-color:#8756AA"/>
			<stop  offset="0.2565" style="stop-color:#8658AE"/>
			<stop  offset="0.5165" style="stop-color:#835CBA"/>
			<stop  offset="0.7771" style="stop-color:#7E65CE"/>
			<stop  offset="1" style="stop-color:#796EE6"/>
		</radialGradient>
		<path style="fill:url(#SVGID_00000150784122433622838190000000810651712507120572_);" d="M177,510c0.7,27.3,1.3,54.7,2,82l3,3
			l29,18l4,1l-23-26L177,510z"/>
		
			<radialGradient id="SVGID_00000029738870579657508710000003611936994922776761_" cx="111.5926" cy="780.799" r="125.1712" gradientTransform="matrix(0.9995 -3.310110e-02 3.310110e-02 0.9995 -9.214 -177.7138)" gradientUnits="userSpaceOnUse">
			<stop  offset="0" style="stop-color:#6B78D4"/>
			<stop  offset="0.2757" style="stop-color:#6E74D3"/>
			<stop  offset="0.5552" style="stop-color:#7668D1"/>
			<stop  offset="0.8354" style="stop-color:#8354CC"/>
			<stop  offset="1" style="stop-color:#8D44C9"/>
		</radialGradient>
		<path style="fill:url(#SVGID_00000029738870579657508710000003611936994922776761_);" d="M178,665l37-51l-36-22l-1,3
			c-0.3,22.7-0.7,45.3-1,68L178,665z"/>
		
			<radialGradient id="SVGID_00000013887566356530832120000013899634373291508097_" cx="4.2752" cy="801.9315" r="220.8207" gradientTransform="matrix(0.9995 -3.310110e-02 3.310110e-02 0.9995 -9.214 -177.7138)" gradientUnits="userSpaceOnUse">
			<stop  offset="0" style="stop-color:#787DD4"/>
			<stop  offset="0.3109" style="stop-color:#7C7DD3"/>
			<stop  offset="0.6259" style="stop-color:#887DD0"/>
			<stop  offset="0.942" style="stop-color:#9C7ECA"/>
			<stop  offset="1" style="stop-color:#A17EC9"/>
		</radialGradient>
		<path style="fill:url(#SVGID_00000013887566356530832120000013899634373291508097_);" d="M179,592l-32,60l31,13
			C178.3,640.7,178.7,616.3,179,592z"/>
	</g>
	<g id="highlights-4" class="st7">
		<path class="st8" d="M179,661l33-43l-34,47l-28-12l27,9c0.3-8,0.7-16,1-24C178.3,645.7,178.7,653.3,179,661z"/>
		<path class="st8" d="M178,565v27l-12,23l13-23C178.7,583,178.3,574,178,565z"/>
	</g>
</g>
</svg>
