<svg xmlns="http://www.w3.org/2000/svg" xmlns:xlink="http://www.w3.org/1999/xlink" viewBox="0 0 800 1200"><defs><radialGradient id="radial-gradient" cx="141.6593" cy="784.3407" r="467.5276" gradientUnits="userSpaceOnUse"><stop offset="0" stop-color="#55bdc5"/><stop offset="0.1653" stop-color="#58b8c3"/><stop offset="0.3705" stop-color="#5fa8bd"/><stop offset="0.5966" stop-color="#6b8fb3"/><stop offset="0.8362" stop-color="#7c6ca6"/><stop offset="1" stop-color="#8a509b"/></radialGradient><radialGradient id="radial-gradient-2" cx="401.1758" cy="817.1758" r="156.8929" xlink:href="#radial-gradient"/><radialGradient id="radial-gradient-3" cx="293.4435" cy="781.2035" r="165.571" xlink:href="#radial-gradient"/><radialGradient id="radial-gradient-4" cx="353.7033" cy="824.2967" r="132.3662" xlink:href="#radial-gradient"/><radialGradient id="radial-gradient-5" cx="266.2747" cy="814.011" r="148.5893" xlink:href="#radial-gradient"/><radialGradient id="radial-gradient-6" cx="305.1758" cy="891.8132" r="164.7877" xlink:href="#radial-gradient"/><radialGradient id="radial-gradient-7" cx="254.638" cy="829.5714" r="176.2995" xlink:href="#radial-gradient"/><radialGradient id="radial-gradient-8" cx="242.4066" cy="949.3077" r="191.1897" gradientUnits="userSpaceOnUse"><stop offset="0" stop-color="#a3adbd"/><stop offset="0.2444" stop-color="#a3aac1"/><stop offset="0.4922" stop-color="#a3a2cd"/><stop offset="0.7415" stop-color="#a294e2"/><stop offset="0.9906" stop-color="#a280fe"/><stop offset="1" stop-color="#a27fff"/></radialGradient><radialGradient id="radial-gradient-9" cx="342.6264" cy="1140.7802" r="218.7288" gradientUnits="userSpaceOnUse"><stop offset="0" stop-color="#5a43c1"/><stop offset="0.2204" stop-color="#5d47c3"/><stop offset="0.4438" stop-color="#6653c7"/><stop offset="0.6687" stop-color="#7668cf"/><stop offset="0.8932" stop-color="#8b84da"/><stop offset="1" stop-color="#9794e0"/></radialGradient><radialGradient id="radial-gradient-10" cx="381" cy="772.0769" r="194.093" gradientUnits="userSpaceOnUse"><stop offset="0" stop-color="#7f85aa"/><stop offset="0.2373" stop-color="#8085ae"/><stop offset="0.4778" stop-color="#8284ba"/><stop offset="0.7198" stop-color="#8682cf"/><stop offset="0.9615" stop-color="#8b7feb"/><stop offset="1" stop-color="#8c7ff0"/></radialGradient><radialGradient id="radial-gradient-11" cx="512.6359" cy="1046.6033" r="351.4767" gradientUnits="userSpaceOnUse"><stop offset="0" stop-color="#7b53c4"/><stop offset="0.2463" stop-color="#7d57c6"/><stop offset="0.496" stop-color="#8363cb"/><stop offset="0.7473" stop-color="#8e78d4"/><stop offset="0.9983" stop-color="#9c94e0"/><stop offset="1" stop-color="#9c94e0"/></radialGradient><radialGradient id="radial-gradient-12" cx="533.3077" cy="1007.4615" r="171.2058" gradientUnits="userSpaceOnUse"><stop offset="0" stop-color="#6c49c1"/><stop offset="0.2292" stop-color="#6f4dc3"/><stop offset="0.4615" stop-color="#7659c8"/><stop offset="0.6952" stop-color="#836ed0"/><stop offset="0.9286" stop-color="#958adc"/><stop offset="1" stop-color="#9c94e0"/></radialGradient><radialGradient id="radial-gradient-13" cx="73.6154" cy="901.8352" r="260.715" gradientUnits="userSpaceOnUse"><stop offset="0" stop-color="#4dc6bd"/><stop offset="0.2204" stop-color="#51c4be"/><stop offset="0.4438" stop-color="#5dbfbf"/><stop offset="0.6687" stop-color="#72b6c2"/><stop offset="0.8932" stop-color="#8eaac7"/><stop offset="1" stop-color="#9ea3c9"/></radialGradient><radialGradient id="radial-gradient-14" cx="441.5275" cy="1047.4176" r="180.815" gradientUnits="userSpaceOnUse"><stop offset="0" stop-color="#787dd4"/><stop offset="0.2784" stop-color="#7b81d3"/><stop offset="0.5606" stop-color="#858dd1"/><stop offset="0.8437" stop-color="#95a1cc"/><stop offset="1" stop-color="#a1b0c9"/></radialGradient><radialGradient id="radial-gradient-15" cx="443.9011" cy="1099.6374" r="112.2513" gradientUnits="userSpaceOnUse"><stop offset="0" stop-color="#5a49c1"/><stop offset="0.2292" stop-color="#5e4dc3"/><stop offset="0.4615" stop-color="#6859c8"/><stop offset="0.6952" stop-color="#7a6ed0"/><stop offset="0.9286" stop-color="#938adc"/><stop offset="1" stop-color="#9c94e0"/></radialGradient><radialGradient id="radial-gradient-16" cx="124.2527" cy="814.011" r="375.7567" gradientUnits="userSpaceOnUse"><stop offset="0" stop-color="#55bdc5"/><stop offset="0.1897" stop-color="#57b9c3"/><stop offset="0.382" stop-color="#5dadbf"/><stop offset="0.5756" stop-color="#6798b7"/><stop offset="0.7701" stop-color="#757cac"/><stop offset="0.9636" stop-color="#86589e"/><stop offset="1" stop-color="#8a509b"/></radialGradient><radialGradient id="radial-gradient-17" cx="393.5633" cy="970.4331" r="792.7989" gradientUnits="userSpaceOnUse"><stop offset="0" stop-color="#32bf53"/><stop offset="0.5589" stop-color="#48c279"/><stop offset="1" stop-color="#56c492"/></radialGradient><radialGradient id="radial-gradient-18" cx="352.9121" cy="75.8132" r="227.7472" gradientUnits="userSpaceOnUse"><stop offset="0" stop-color="#ffff40"/><stop offset="0.4925" stop-color="#99f76c"/><stop offset="0.8381" stop-color="#57f188"/><stop offset="1" stop-color="#3eef93"/></radialGradient><radialGradient id="radial-gradient-19" cx="434.4066" cy="114.5824" r="83.0279" gradientUnits="userSpaceOnUse"><stop offset="0" stop-color="#64f968"/><stop offset="0.1919" stop-color="#6af66f"/><stop offset="1" stop-color="#7fe988"/></radialGradient><radialGradient id="radial-gradient-20" cx="195.4615" cy="126.4505" r="293.708" xlink:href="#radial-gradient-18"/><radialGradient id="radial-gradient-21" cx="481.0879" cy="330.5824" r="133.2288" gradientUnits="userSpaceOnUse"><stop offset="0" stop-color="#00b5af"/><stop offset="0.5826" stop-color="#2ad5a1"/><stop offset="1" stop-color="#43e899"/></radialGradient><radialGradient id="radial-gradient-22" cx="300.2967" cy="634.4066" r="213.7512" xlink:href="#radial-gradient-21"/><radialGradient id="radial-gradient-23" cx="342.6264" cy="654.978" r="225.1542" xlink:href="#radial-gradient-21"/><radialGradient id="radial-gradient-24" cx="381.3956" cy="632.4286" r="252.1105" gradientUnits="userSpaceOnUse"><stop offset="0" stop-color="#00b5be"/><stop offset="0.5826" stop-color="#2ad5ba"/><stop offset="1" stop-color="#43e8b8"/></radialGradient><radialGradient id="radial-gradient-25" cx="114.3626" cy="376.0769" r="265.0422" gradientUnits="userSpaceOnUse"><stop offset="0" stop-color="#fcee21"/><stop offset="0.4677" stop-color="#a0f576"/><stop offset="0.8301" stop-color="#5ef9b3"/><stop offset="1" stop-color="#45fbca"/></radialGradient><radialGradient id="radial-gradient-26" cx="91.8132" cy="249.0879" r="301.8941" xlink:href="#radial-gradient-25"/><radialGradient id="radial-gradient-27" cx="319.832" cy="486.9505" r="242.1578" gradientUnits="userSpaceOnUse"><stop offset="0" stop-color="#00b5be"/><stop offset="0.5826" stop-color="#2ad5a8"/><stop offset="1" stop-color="#43e89a"/></radialGradient><radialGradient id="radial-gradient-28" cx="402.7582" cy="470.9559" r="141.7652" gradientUnits="userSpaceOnUse"><stop offset="0" stop-color="#00b56c"/><stop offset="0.5826" stop-color="#2ad584"/><stop offset="1" stop-color="#43e893"/></radialGradient><radialGradient id="radial-gradient-29" cx="330.2518" cy="279.44" r="122.3112" gradientUnits="userSpaceOnUse"><stop offset="0" stop-color="#3ae879"/><stop offset="0.4281" stop-color="#40d88f"/><stop offset="1" stop-color="#46c5a8"/></radialGradient><radialGradient id="radial-gradient-30" cx="152.7363" cy="789.4835" r="268.284" xlink:href="#radial-gradient-21"/><radialGradient id="radial-gradient-31" cx="125.044" cy="675.5495" r="201.3871" gradientUnits="userSpaceOnUse"><stop offset="0" stop-color="#ffe47d"/><stop offset="1" stop-color="#6fc2bf"/></radialGradient><radialGradient id="radial-gradient-32" cx="467.6374" cy="268.0769" r="94.6049" xlink:href="#radial-gradient-21"/><radialGradient id="radial-gradient-33" cx="557.044" cy="458.7582" r="260.715" xlink:href="#radial-gradient-24"/><radialGradient id="radial-gradient-34" cx="459.7253" cy="471.022" r="173.2666" gradientUnits="userSpaceOnUse"><stop offset="0" stop-color="#4dc6bd"/><stop offset="0.2356" stop-color="#4ec2c1"/><stop offset="0.4744" stop-color="#53b6cc"/><stop offset="0.7146" stop-color="#5aa1df"/><stop offset="0.9547" stop-color="#6485f9"/><stop offset="1" stop-color="#667fff"/></radialGradient><radialGradient id="radial-gradient-35" cx="473.967" cy="859.1099" r="483.987" gradientTransform="matrix(0.3629, -0.9318, 0.5417, 0.211, -163.3941, 1119.5208)" gradientUnits="userSpaceOnUse"><stop offset="0" stop-color="#4dc6bd"/><stop offset="0.2705" stop-color="#4fc2bf"/><stop offset="0.5446" stop-color="#57b6c3"/><stop offset="0.8196" stop-color="#63a2cb"/><stop offset="1" stop-color="#6d90d2"/></radialGradient><radialGradient id="radial-gradient-36" cx="488.2088" cy="564.7802" r="265.4326" gradientUnits="userSpaceOnUse"><stop offset="0" stop-color="#4dc6bd"/><stop offset="0.2151" stop-color="#51c3c0"/><stop offset="0.4332" stop-color="#5db8ca"/><stop offset="0.6526" stop-color="#72a7d9"/><stop offset="0.8718" stop-color="#8e90ef"/><stop offset="1" stop-color="#a27fff"/></radialGradient><radialGradient id="radial-gradient-37" cx="500.0769" cy="499.5055" r="155.2005" gradientUnits="userSpaceOnUse"><stop offset="0" stop-color="#3da6c1"/><stop offset="0.5987" stop-color="#6ac0ae"/><stop offset="1" stop-color="#83cfa3"/></radialGradient><radialGradient id="radial-gradient-38" cx="543.5934" cy="681.8791" r="293.9572" gradientUnits="userSpaceOnUse"><stop offset="0" stop-color="#00b5af"/><stop offset="0.2607" stop-color="#24bea7"/><stop offset="0.7629" stop-color="#65ce99"/><stop offset="1" stop-color="#7ed493"/></radialGradient><radialGradient id="radial-gradient-39" cx="579.9889" cy="401.7912" r="147.8523" gradientTransform="translate(0.1952 -0.26) rotate(0.0305)" gradientUnits="userSpaceOnUse"><stop offset="0" stop-color="#00b5af"/><stop offset="0.3898" stop-color="#42c0a6"/><stop offset="0.8041" stop-color="#83cb9d"/><stop offset="1" stop-color="#9ccf99"/></radialGradient><radialGradient id="radial-gradient-40" cx="543.5934" cy="522.0549" r="243.7129" gradientUnits="userSpaceOnUse"><stop offset="0" stop-color="#009cd1"/><stop offset="0.4778" stop-color="#60c5b4"/><stop offset="0.8334" stop-color="#a2e0a1"/><stop offset="1" stop-color="#bbeb99"/></radialGradient><radialGradient id="radial-gradient-41" cx="322.8165" cy="281.396" r="172.7223" gradientUnits="userSpaceOnUse"><stop offset="0" stop-color="#00b5be"/><stop offset="0.4002" stop-color="#45cbbb"/><stop offset="0.8075" stop-color="#86e0b9"/><stop offset="1" stop-color="#9fe8b8"/></radialGradient><radialGradient id="radial-gradient-42" cx="130.5824" cy="770.4945" r="246.7861" xlink:href="#radial-gradient-24"/><radialGradient id="radial-gradient-43" cx="443.9011" cy="995.989" r="192.1941" gradientUnits="userSpaceOnUse"><stop offset="0" stop-color="#6b78d4"/><stop offset="0.2871" stop-color="#6e7cd3"/><stop offset="0.5781" stop-color="#7688d0"/><stop offset="0.8699" stop-color="#859ccc"/><stop offset="1" stop-color="#8da8c9"/></radialGradient><radialGradient id="radial-gradient-44" cx="615.8571" cy="909.7473" r="196.1815" gradientUnits="userSpaceOnUse"><stop offset="0" stop-color="#7149c1"/><stop offset="0.1933" stop-color="#724dc3"/><stop offset="0.3894" stop-color="#7659cb"/><stop offset="0.5866" stop-color="#7c6ed7"/><stop offset="0.7848" stop-color="#858ae7"/><stop offset="0.9819" stop-color="#91aefd"/><stop offset="1" stop-color="#92b2ff"/></radialGradient><radialGradient id="radial-gradient-45" cx="490.495" cy="746.19" r="173.4107" gradientUnits="userSpaceOnUse"><stop offset="0" stop-color="#b6e473"/><stop offset="1" stop-color="#3fbfc4"/></radialGradient><radialGradient id="radial-gradient-46" cx="423.1686" cy="685.2925" r="39.4506" xlink:href="#radial-gradient-45"/><radialGradient id="radial-gradient-47" cx="325.7308" cy="642.3187" r="285.5068" gradientUnits="userSpaceOnUse"><stop offset="0" stop-color="#76eaa9"/><stop offset="1" stop-color="#7388ff"/></radialGradient><radialGradient id="radial-gradient-48" cx="313.7473" cy="696.5165" r="172.8026" xlink:href="#radial-gradient-47"/><radialGradient id="radial-gradient-49" cx="354.3032" cy="762.3335" r="201.2903" gradientUnits="userSpaceOnUse"><stop offset="0" stop-color="#4dc6bd"/><stop offset="0.2444" stop-color="#4fc3c1"/><stop offset="0.4922" stop-color="#53bbcd"/><stop offset="0.7415" stop-color="#5baee2"/><stop offset="0.9906" stop-color="#669cfe"/><stop offset="1" stop-color="#669bff"/></radialGradient><radialGradient id="radial-gradient-50" cx="148.9862" cy="727.2091" r="317.1088" gradientUnits="userSpaceOnUse"><stop offset="0" stop-color="#4dafd2"/><stop offset="0.2204" stop-color="#51aed2"/><stop offset="0.4438" stop-color="#5dadd0"/><stop offset="0.6687" stop-color="#72aace"/><stop offset="0.8932" stop-color="#8ea5cb"/><stop offset="1" stop-color="#9ea3c9"/></radialGradient><radialGradient id="radial-gradient-51" cx="405.1319" cy="711.9451" r="269.6183" gradientTransform="matrix(1, 0, 0, 1, 0, 0)" xlink:href="#radial-gradient-39"/><radialGradient id="radial-gradient-52" cx="307.9242" cy="680.2967" r="189.9298" gradientUnits="userSpaceOnUse"><stop offset="0" stop-color="#78c6bd"/><stop offset="0.2356" stop-color="#77c2c1"/><stop offset="0.4744" stop-color="#74b6cc"/><stop offset="0.7146" stop-color="#6fa1df"/><stop offset="0.9547" stop-color="#6885f9"/><stop offset="1" stop-color="#667fff"/></radialGradient><radialGradient id="radial-gradient-53" cx="221.095" cy="765.2179" r="85.6442" xlink:href="#radial-gradient-13"/><radialGradient id="radial-gradient-54" cx="223.1538" cy="538.2747" r="340.8926" gradientUnits="userSpaceOnUse"><stop offset="0" stop-color="#96e46f"/><stop offset="0.9068" stop-color="#6fbbd8"/></radialGradient><radialGradient id="radial-gradient-55" cx="165.3956" cy="715.1099" r="177.4849" gradientUnits="userSpaceOnUse"><stop offset="0" stop-color="#96e46f"/><stop offset="1" stop-color="#6fbbd8"/></radialGradient><radialGradient id="radial-gradient-56" cx="136.9121" cy="550.5385" r="176.3597" xlink:href="#radial-gradient-41"/><radialGradient id="radial-gradient-57" cx="329.967" cy="689.7912" r="103.5379" gradientTransform="matrix(1, 0, 0, 1, 0, 0)" xlink:href="#radial-gradient-39"/><radialGradient id="radial-gradient-58" cx="521.4396" cy="569.5275" r="250.8918" gradientTransform="matrix(1, 0, 0, 1, 0, 0)" xlink:href="#radial-gradient-39"/><radialGradient id="radial-gradient-59" cx="417" cy="607.5055" r="261.4056" xlink:href="#radial-gradient-21"/><radialGradient id="radial-gradient-60" cx="209.4879" cy="978.8977" r="207.9621" xlink:href="#radial-gradient-17"/><radialGradient id="radial-gradient-61" cx="164.0164" cy="993.3717" r="117.5776" xlink:href="#radial-gradient-13"/><radialGradient id="radial-gradient-62" cx="165.7147" cy="926.295" r="148.7369" gradientUnits="userSpaceOnUse"><stop offset="0" stop-color="#00b5bc"/><stop offset="0.2762" stop-color="#27bcbf"/><stop offset="0.7678" stop-color="#68c7c3"/><stop offset="1" stop-color="#81cbc5"/></radialGradient><radialGradient id="radial-gradient-63" cx="100.5165" cy="772.0769" r="98.1227" xlink:href="#radial-gradient-45"/><radialGradient id="radial-gradient-64" cx="168.5604" cy="874.9341" r="202.7966" gradientTransform="matrix(1, 0, 0, 1, 0, 0)" xlink:href="#radial-gradient-39"/><radialGradient id="radial-gradient-65" cx="76.7802" cy="719.8571" r="255.7453" xlink:href="#radial-gradient-31"/><radialGradient id="radial-gradient-66" cx="274.5824" cy="852.7802" r="139.4414" gradientTransform="matrix(1, 0, 0, 1, 0, 0)" xlink:href="#radial-gradient-39"/><radialGradient id="radial-gradient-67" cx="328.4307" cy="850.6703" r="103.0391" xlink:href="#radial-gradient-14"/><radialGradient id="radial-gradient-68" cx="260.3407" cy="834.1868" r="214.941" gradientTransform="matrix(1, 0, 0, 1, 0, 0)" xlink:href="#radial-gradient-39"/><radialGradient id="radial-gradient-69" cx="116.3407" cy="650.7582" r="146.6108" gradientUnits="userSpaceOnUse"><stop offset="0.0289" stop-color="#00aca8"/><stop offset="0.5946" stop-color="#2ad19f"/><stop offset="1" stop-color="#43e89a"/></radialGradient><radialGradient id="radial-gradient-70" cx="190.7143" cy="849.6154" r="71.5596" gradientUnits="userSpaceOnUse"><stop offset="0" stop-color="#00b5af"/><stop offset="0.2762" stop-color="#27b1b6"/><stop offset="0.7678" stop-color="#68aac1"/><stop offset="1" stop-color="#81a7c5"/></radialGradient><radialGradient id="radial-gradient-71" cx="253.7206" cy="692.8066" r="155.1169" gradientTransform="matrix(1, 0, 0, 1, 0, 0)" xlink:href="#radial-gradient-39"/><radialGradient id="radial-gradient-72" cx="48.4505" cy="471.2198" r="265.4326" xlink:href="#radial-gradient-17"/><radialGradient id="radial-gradient-73" cx="70.7444" cy="478.5385" r="237.4971" xlink:href="#radial-gradient-25"/><radialGradient id="radial-gradient-74" cx="214.4505" cy="704.033" r="185.6973" xlink:href="#radial-gradient-21"/><radialGradient id="radial-gradient-75" cx="285.2637" cy="608.2967" r="133.5667" gradientTransform="matrix(1, 0, 0, 1, 0, 0)" xlink:href="#radial-gradient-39"/><radialGradient id="radial-gradient-76" cx="254.4066" cy="687.022" r="188.079" xlink:href="#radial-gradient-24"/><radialGradient id="radial-gradient-77" cx="201.2637" cy="676.6044" r="143.647" xlink:href="#radial-gradient-69"/><radialGradient id="radial-gradient-78" cx="160.3806" cy="640.7564" r="56.9948" xlink:href="#radial-gradient-27"/><radialGradient id="radial-gradient-79" cx="127.0333" cy="633.8969" r="127.2968" xlink:href="#radial-gradient-17"/><radialGradient id="radial-gradient-80" cx="71.6342" cy="638.3594" r="248.5571" xlink:href="#radial-gradient-25"/><radialGradient id="radial-gradient-81" cx="195.2426" cy="680.7302" r="164.0688" xlink:href="#radial-gradient-21"/><radialGradient id="radial-gradient-82" cx="135.9319" cy="633.7543" r="97.2248" gradientUnits="userSpaceOnUse"><stop offset="0" stop-color="#00abbe"/><stop offset="0.5826" stop-color="#2ad1a8"/><stop offset="1" stop-color="#43e89a"/></radialGradient><radialGradient id="radial-gradient-83" cx="141.8918" cy="638.956" r="86.4765" xlink:href="#radial-gradient-27"/></defs><g id="lower"><g id="crystal_shard_01"><path d="M342,810l-76,52q14,56.5,28,113,29.4823,35.8256,60,72,23.0451,27.31,46,54l82-90q15.5-35.5,31-71l52.6069-150.8727L458,780Z" style="fill:url(#radial-gradient)"/><path d="M459,780l21,102,85-92Z" style="fill:url(#radial-gradient-2)"/><path d="M342,809l58,60,59-89Z" style="fill:url(#radial-gradient-3)"/><path d="M459,781l-59,87,79,18Q469,833.5,459,781Z" style="fill:url(#radial-gradient-4)"/><path d="M342,809l-75,53,97,60Q353,865.5,342,809Z" style="fill:url(#radial-gradient-5)"/><path d="M399,868l80,18L364,922Z" style="fill:url(#radial-gradient-6)"/><path d="M342,810l57,58-35,54Q353,866,342,810Z" style="fill:url(#radial-gradient-7)"/></g><g id="shapes_shard_01"><path d="M293.5,974.5l.5,1.5,105.5,125.5q-5.5-44.5-11-89Z" style="fill:url(#radial-gradient-8)"/><path d="M364.5,922.5l24,90,94-1,9-61Z" style="fill:url(#radial-gradient-9)"/><path d="M479.4483,885.3754Q485.4741,917.9377,491.5,950.5L364.5146,922.5807Q421.9816,903.9783,479.4483,885.3754Z" style="fill:url(#radial-gradient-10)"/><path d="M513,940l-21.5,10.5-9,60Z" style="fill:url(#radial-gradient-11)"/><path d="M479.5,885.5l12,65,21-10,52-151Z" style="fill:url(#radial-gradient-12)"/><path d="M266.5,862.5l98,60-71,53Z" style="fill:url(#radial-gradient-13)"/><path d="M388.5,1012.5l-95-37,71-53Z" style="fill:url(#radial-gradient-14)"/><path d="M388.5,1012.5q5.5,44.5,11,89l83-91Z" style="fill:url(#radial-gradient-15)"/><path d="M266.5,862.5l98,60,115-37,86-98-108-8-116,30Z" style="opacity:0.9;fill:url(#radial-gradient-16)"/></g><g id="highlights" style="opacity:0.5"><path d="M490,949q-2.5-17.5-5-35,3.5,17.5,7,35l17-7-17,9-6,37q2-18.5,4-37l-44-10Z" style="fill:#f2f2f2"/><path d="M283,932l12,41,45-32-43,34,47,20-47-18q29.313,35.7359,29,36-.3233.27-32-37Z" style="fill:#f2f2f2"/></g></g><g id="main"><g id="crystal_base"><path d="M639,663,580,511,554,407,477,174l-46-30q-15.5-17.5-31-35l-44,43q-44.5,80.5-89,161l-18,52L160,498q11,62.5,22,125l-9,19q8.5,34.5,17,69l38,76,38,77,97.7253,58.4066,114.989-36.9231,86.8926-96.3562L566,788Z" style="fill:url(#radial-gradient-17)"/></g><g id="shapes_color"><path d="M431.5,143.5q-5.5,26.5-11,53l-37,44-27-89,44-43Z" style="fill:url(#radial-gradient-18)"/><path d="M477.5,173.5l-57,23q5.5-26.5,11-53Z" style="fill:url(#radial-gradient-19)"/><path d="M383.5,240.5l9,55-3,47-75,23-48-52,90-162Z" style="fill:url(#radial-gradient-20)"/><path d="M391.5,293.5l56,18q-2-32.5-4-65l-23-50-37,44Q387.5,267,391.5,293.5Z" style="fill:url(#radial-gradient-21)"/><path d="M159.5,498.5l70-15q2.5,58.5,5,117Z" style="fill:url(#radial-gradient-22)"/><path d="M229.5,483.5l60-66q19,47,38,94l-93,88Q232,541.5,229.5,483.5Z" style="fill:url(#radial-gradient-23)"/><path d="M159.5,498.5l75,102q-5,42-10,84L182,623Z" style="fill:url(#radial-gradient-24)"/><path d="M249.5,363.5l40,55-60,65-70,15Z" style="fill:url(#radial-gradient-25)"/><path d="M266.5,313.5l48,52q-12.5,26.5-25,53l-41-55Z" style="fill:url(#radial-gradient-26)"/><path d="M429,342l-51,84,12-84Z" style="fill:url(#radial-gradient-27)"/><path d="M314.5,365.5,378,426q5.75-41.75,11.5-83.5Z" style="fill:url(#radial-gradient-28)"/><path d="M392,293l56,19-19,30-39.5.5Q390.75,317.75,392,293Z" style="fill:url(#radial-gradient-29)"/><path d="M173.5,641.5l51,43,14,22-48,4Q182,676,173.5,641.5Z" style="fill:url(#radial-gradient-30)"/><path d="M183.5,622.5l42,63-52-44Z" style="fill:url(#radial-gradient-31)"/><path d="M477.5,173.5l-34,73-23-50Z" style="fill:url(#radial-gradient-32)"/><path d="M477.5,173.5l-34,73q2,32.5,4,65l106,94Z" style="fill:url(#radial-gradient-33)"/><path d="M530.5,385.5l48,125q-12.5-52-25-104Z" style="fill:url(#radial-gradient-34)"/><path d="M530.5,385.5l108,277-122,53L471,643l-1.5-7.5q-.5-68.5-1-137Z" style="fill:url(#radial-gradient-35)"/><path d="M516.4368,715.9238q-5.84,21.0453-11.6791,42.09L565.5,787.5l73-125Z" style="fill:url(#radial-gradient-36)"/><path d="M468.5,498.5l-31,90,32,47Q469,567,468.5,498.5Z" style="fill:url(#radial-gradient-37)"/><path d="M377.5,425.5,328,512l62.5,125.5,47-49,31-90Z" style="fill:url(#radial-gradient-38)"/><path d="M447.53,311.4779l35.941,111.0192,47.02-36.975Z" style="fill:url(#radial-gradient-39)"/><path d="M483.5243,422.48q-7.5474,37.9907-15.0947,75.9812L530.57,385.5387Z" style="fill:url(#radial-gradient-40)"/><path d="M447.5,311.5l36,111L378,426Z" style="fill:url(#radial-gradient-41)"/><path d="M238.5,706.5q12.5,46,25,92l3,65-76-153Z" style="fill:url(#radial-gradient-42)"/><path d="M477.5,814.5q1,36.5,2,73l-115,35,18-124Z" style="fill:url(#radial-gradient-43)"/><path d="M504.5,758.5l61,29-86,98q-1-35.5-2-71Z" style="fill:url(#radial-gradient-44)"/><path d="M469,635l-31.5-46.5-46.26,48.2287Q391.12,643.3644,391,650l80.427-6.8757Z" style="fill:url(#radial-gradient-45)"/><path d="M374,651l18-1q-.5-6.5-1-13Z" style="fill:url(#radial-gradient-46)"/><path d="M492,717q-10.2866-36.9378-20.573-73.8757l-79.7444,6.9344A17.082,17.082,0,0,1,391,653c-5.4142,26.2976-9.0319,51.4018-12.2448,77.1573Q380.6276,764.3287,382.5,798.5l95,16,27-56Q498.25,737.75,492,717Z" style="fill:url(#radial-gradient-47)"/><path d="M391.6826,650.0587,374,651q2.5,43,5,86Q385.3413,693.5293,391.6826,650.0587Z" style="fill:url(#radial-gradient-48)"/><path d="M471,643q16.75,57.75,33.5,115.5l12-43Z" style="fill:url(#radial-gradient-49)"/><path d="M286.7809,808.2959,266,864l99,59q8.9167-62.0931,17.8334-124.1864Z" style="fill:url(#radial-gradient-50)"/><path d="M327.5,511.5q23.5,69.5,47,139l16-13Z" style="fill:url(#radial-gradient-51)"/><path d="M378.5,736.5,383,799l-96.5,9.5,21-56Z" style="fill:url(#radial-gradient-52)"/><path d="M308,752l-44.5,46.5,3,64Z" style="fill:url(#radial-gradient-53)"/><path d="M327.5,511.5q-21.5,79-43,158l23,83,71-16q-2-42-4-84Z" style="fill:url(#radial-gradient-54)"/><path d="M284.5,669.5l-46,37q12.5,46,25,92l44-46Z" style="fill:url(#radial-gradient-55)"/><path d="M234.5,599.5l50,70q21.5-79,43-158Z" style="fill:url(#radial-gradient-56)"/><path d="M234.5,600.5l50,69-46,37-14-22Q229.5,642.5,234.5,600.5Z" style="fill:url(#radial-gradient-57)"/><path d="M377,426l106-4-15,78Z" style="fill:url(#radial-gradient-58)"/><path d="M315,366l63,60-50,86q-19-47-38-94Z" style="fill:url(#radial-gradient-59)"/></g><g id="highlights-2" data-name="highlights" style="opacity:0.5"><path d="M332,360q-.2143-.6858,56-19,2-21,4-42-.5,21-1,42l27,1-28,2q-11.5083,79.0634-12,79-.49-.0683,10-79Q332.2164,360.68,332,360Z" style="fill:#f2f2f2"/><path d="M409,425l72.3022-4.0118Q470.651,384.9942,460,349q12.1511,35.9941,24.3022,71.9882L510,401l-26.6978,22.9882Q474.4886,478.0782,474,478q-.4878-.075,7.3022-54.0118Z" style="fill:#f2f2f2"/><path d="M488,669l29,45,42-16-41,18-12,40,9-40Z" style="fill:#f2f2f2"/><path d="M447,154l30,19,16,45-17-42-25,54,24-55-41,15,41-17Z" style="fill:#f2f2f2"/><path d="M612,594l24,68-39,19,38-16q-27.5313,49.6952-27,50,.55.3125,31-52Z" style="fill:#f2f2f2"/><path d="M457,532l-20,56-28,30,28-28,18,24-17-25Z" style="fill:#f2f2f2"/><path d="M361,456l-31,56,14,32-17-33Z" style="fill:#f2f2f2"/><path d="M381,766q1,15.5,2,31l56,11-58-9Z" style="fill:#f2f2f2"/><path d="M284,668l9-29q-4,15.5-8,31,5.5,20,11,40l-12-39-25,19,24-20-22-33Z" style="fill:#f2f2f2"/></g></g><g id="lower-left"><g id="crystal_shard_03"><path d="M238,706l27,90q.5,34,1,68l6,26-65,69q-7.6775-30.2052-17-62-12.0106-40.7946-25-78c-3.9466-31.9366-7.3442-65.2981-10-100q-3.5593-46.5078-5-90l13-7,10,20,51,41Z" style="fill:url(#radial-gradient-60)"/></g><g id="shapes_shard_03"><path d="M225,907l-18.5,52.5L272,890Z" style="fill:url(#radial-gradient-61)"/><path d="M208,832q8.5,37.5,17,75l-18,52q-8.2219-30.0989-16.4438-60.1976Z" style="fill:url(#radial-gradient-62)"/><path d="M155.5,718.5l35,89q.5,46.5,1,93-13-41-26-82Q160.5,768.5,155.5,718.5Z" style="fill:url(#radial-gradient-63)"/><path d="M190.5,807.5l18,25-17,62Q191,851,190.5,807.5Z" style="fill:url(#radial-gradient-64)"/><path d="M224.5,684.5l14,21-48,102Q207.5,746,224.5,684.5Z" style="fill:url(#radial-gradient-65)"/><path d="M208.5,832.5l-18-25,48-101,26,89Z" style="fill:url(#radial-gradient-66)"/><path d="M263.9621,798.6478q-19.4537,54.34-38.9075,108.6794L272,890l-5.5716-27.3293Z" style="fill:url(#radial-gradient-67)"/><path d="M173.5,641.5q-9.5,38.5-19,77l36,89q17-61.5,34-123Z" style="fill:url(#radial-gradient-68)"/><path d="M163.5,622.5l-14,7,6,89,18-77Z" style="fill:url(#radial-gradient-69)"/><path d="M208,832q8.5,38,17,76,20-56.5,40-113Z" style="fill:url(#radial-gradient-70)"/><path d="M163,622l60,61-49-41Z" style="fill:url(#radial-gradient-71)"/></g><g id="highlights-3" data-name="highlights" style="opacity:0.5"><path d="M167,818l12,46-15-44q-2.5-30.5-5-61Q163,788.5,167,818Z" style="fill:#f2f2f2"/><path d="M211,846q6.5,31,13,62l-8,24,10-24,27-11-26,9,30-89-32,89Q218,876,211,846Z" style="fill:#f2f2f2"/><path d="M190,807l-8-20,8,21q.5,12,1,24V809l7,9-7-10q2.5-10.5,5-21Z" style="fill:#f2f2f2"/></g></g><g id="middle-left"><g id="crystal_shard_02"><path d="M229,485l-70,15-43,64q6.5,23.5,13,47l20,19,21,9,54,44q5-41,10-82Q231.5,543,229,485Z" style="fill:url(#radial-gradient-72)"/></g><g id="shapes_shard_02_color"><path d="M229.5,483.5l-82,82L115,565l45.5-67.5Z" style="fill:url(#radial-gradient-73)"/><path d="M234.5,600.5l-68-4-19-31L230,484Z" style="fill:url(#radial-gradient-74)"/><path d="M206.5,598.5l-33,43,52,44,9-85Z" style="fill:url(#radial-gradient-75)"/><path d="M115,565l32.5.5,19,31-3,27-14,6-20-18Q122.25,588.25,115,565Z" style="fill:url(#radial-gradient-76)"/><path d="M173.5,641.5l-11-18q2-13.5,4-27l40,2Z" style="fill:url(#radial-gradient-77)"/><path d="M149,630l14-7,10.5,18.5Z" style="fill:url(#radial-gradient-78)"/></g></g><g id="middle-tiny"><g id="crystal_shard_02_copy_2" data-name="crystal_shard_02 copy 2"><path d="M167,596q-2,13.5-4,27l-14,7L89,611l27-47,32,1Z" style="fill:url(#radial-gradient-79)"/></g><g id="shapes_shard_03_copy" data-name="shapes_shard_03 copy"><path d="M148,565l-31.5-1.5L89,611Z" style="fill:url(#radial-gradient-80)"/><path d="M148,565l19.5,30.5L89,611Z" style="fill:url(#radial-gradient-81)"/><path d="M149,630l14.2327-6.3854L89,611Z" style="fill:url(#radial-gradient-82)"/><path d="M167.5,595.5,89,611l74.2327,12.6146L163.5,623.5Q165.5,609.5,167.5,595.5Z" style="fill:url(#radial-gradient-83)"/></g><g id="highlights-4" data-name="highlights" style="opacity:0.5"><path d="M92,608l24-18L93,609l44-7-48,9,20-35Z" style="fill:#f2f2f2"/></g></g></svg>